<svg width="90" height="90" viewBox="0 0 90 90" fill="none" xmlns="http://www.w3.org/2000/svg">
<g clip-path="url(#clip0_542_3145)">
<path d="M18.8712 69.0762L16.9944 67.1994L14.9414 69.2524L18.8712 73.1818L28.6073 63.4458L26.5544 61.3928L18.8712 69.0762Z" fill="url(#paint0_linear_542_3145)"/>
<path d="M21.7744 52.258C12.9699 52.258 5.80664 59.4211 5.80664 68.2258C5.80664 77.0305 12.9697 84.1936 21.7744 84.1936C30.5791 84.1936 37.7422 77.0305 37.7422 68.2258C37.7422 59.4211 30.579 52.258 21.7744 52.258ZM21.7744 81.2904C14.5706 81.2904 8.70984 75.4297 8.70984 68.2258C8.70984 61.0219 14.5706 55.1612 21.7744 55.1612C28.9783 55.1612 34.839 61.0219 34.839 68.2258C34.839 75.4297 28.9783 81.2904 21.7744 81.2904Z" fill="url(#paint1_linear_542_3145)"/>
<path d="M87.0968 63.871V49.3548C87.0968 47.754 85.7943 46.4516 84.1936 46.4516H72.5806C70.9798 46.4516 69.6774 47.7541 69.6774 49.3548V55.1612H55.1612V34.8388H69.6774V40.6452C69.6774 42.246 70.9799 43.5484 72.5806 43.5484H84.1936C85.7944 43.5484 87.0968 42.2459 87.0968 40.6452V26.129C87.0968 24.5282 85.7943 23.2258 84.1936 23.2258H72.5806C70.9798 23.2258 69.6774 24.5283 69.6774 26.129V31.9354H55.1612V11.613H69.6774V17.4194C69.6774 19.0202 70.9799 20.3226 72.5806 20.3226H84.1936C85.7944 20.3226 87.0968 19.0201 87.0968 17.4194V2.9032C87.0968 1.30254 85.7943 0 84.1936 0H72.5806C70.9798 0 69.6774 1.30254 69.6774 2.9032V8.70961H55.1612C53.5604 8.70961 52.258 10.0121 52.258 11.6128V31.9354H34.8386V34.8386H52.258V55.1612C52.258 56.7621 53.5605 58.0644 55.1612 58.0644H69.6774V63.8708H43.1105C41.4162 55.5565 34.9687 48.9502 26.7402 47.0234L29.7058 41.0922C35.9859 42.6895 40.6452 48.3912 40.6452 55.1612H43.5484C43.5484 45.556 35.7342 37.7418 26.129 37.7418V37.3491C29.5439 36.0229 31.86 32.7598 31.9321 29.032H31.9356C35.1373 29.032 37.742 26.4273 37.742 23.2256C37.742 22.7254 37.6784 22.2397 37.5588 21.7761C41.2386 19.7492 43.5484 15.9006 43.5484 11.6126V10.7156L41.4867 9.68484C42.8263 7.78535 43.5484 5.52428 43.5484 3.15229V0H20.6654C18.4094 0 16.3545 1.10654 15.1175 2.93836C9.91072 3.37166 5.80658 7.74773 5.80658 13.0644V23.2256C5.80658 26.4273 8.41131 29.032 11.613 29.032H11.6165C11.6495 30.8377 12.2189 32.5927 13.2522 34.0738C14.2856 35.5548 15.7363 36.695 17.4196 37.3491V37.7418C7.81418 37.742 0 45.5562 0 55.1612H2.9032C2.9032 48.391 7.56228 42.6895 13.8426 41.092L16.8082 47.0232C7.18682 49.2766 0 57.9275 0 68.2258C0 80.232 9.76799 90 21.7742 90C32.2894 90 41.0875 82.5073 43.1105 72.5806H87.0968C88.6976 72.5806 90 71.2781 90 69.6774V66.7742C90 65.1734 88.6975 63.871 87.0968 63.871ZM72.5806 26.129H84.1936L84.1954 40.6452H72.5806V26.129ZM72.5806 2.9032H84.1936L84.1954 17.4194H72.5806V2.9032ZM72.5806 49.3548H84.1936V63.871H72.5806V49.3548ZM23.2258 44.8091L26.4502 46.9587C25.3883 46.7257 24.3105 46.5727 23.2258 46.5012V44.8091ZM26.6767 40.6591L25.5663 42.8801L24.053 41.8713L25.2791 40.6452H26.1292C26.3127 40.6452 26.4946 40.6522 26.6767 40.6591ZM31.9354 26.129V20.3226C33.5363 20.3226 34.8386 21.6251 34.8386 23.2258C34.8388 24.8266 33.5363 26.129 31.9354 26.129ZM8.70961 23.2258C8.70961 21.625 10.0121 20.3226 11.6128 20.3226V26.129C10.0121 26.129 8.70961 24.8266 8.70961 23.2258ZM11.8635 17.4194H11.6128C10.593 17.4186 9.5913 17.6882 8.70961 18.2006V13.0646C8.70961 9.06258 11.9656 5.80658 15.9676 5.80658H16.8646L17.2658 5.00414C17.9139 3.70846 19.2162 2.90338 20.665 2.90338H40.6448V3.15246C40.6448 5.41248 39.7649 7.53697 38.1669 9.135L36.7425 10.5592L40.6018 12.4887C40.3186 15.3487 38.6568 17.8559 36.1478 19.2364C35.4257 18.473 34.5101 17.9196 33.4985 17.6351C34.3696 16.2838 34.8383 14.7106 34.8383 13.0646C34.8383 10.8046 33.9583 8.67973 32.3603 7.08205L31.5098 6.23162L29.4574 8.2844L30.308 9.13482C31.3574 10.1844 31.9354 11.5801 31.9354 13.0646C31.9354 14.3898 31.4736 15.6433 30.6281 16.6438L28.9301 14.3796C28.9969 13.9482 29.0322 13.5091 29.0322 13.0644C29.0322 10.8044 28.1521 8.67955 26.5542 7.08187L25.7038 6.23145L23.6508 8.28422L24.5014 9.13465C25.5509 10.1842 26.1288 11.5799 26.1288 13.0644C26.1288 14.3898 25.6681 15.6444 24.8224 16.6451L22.3546 13.3548C21.5365 12.2641 20.234 11.6128 18.8708 11.6128C16.9089 11.6128 15.2462 12.9166 14.703 14.703C13.3803 15.1054 12.3237 16.1223 11.8635 17.4194ZM14.5162 28.8536V18.871C14.5162 18.0707 15.1675 17.4194 15.9678 17.4194H17.4194V15.9678C17.4194 15.1675 18.0707 14.5162 18.871 14.5162C19.0962 14.5167 19.3183 14.5694 19.5197 14.6701C19.7211 14.7709 19.8965 14.9169 20.032 15.0968L24.5203 21.0809L26.554 19.0471C26.9926 18.6081 27.3819 18.1225 27.7149 17.5989L29.032 19.3547V28.8536C29.0336 30.2398 28.5709 31.5867 27.7178 32.6793C26.8647 33.772 25.6703 34.5475 24.3251 34.8822L23.2256 35.1571V38.5924L21.774 40.044L20.3224 38.5924V35.1571L19.2229 34.8822C17.8778 34.5474 16.6834 33.7718 15.8304 32.6792C14.9773 31.5866 14.5147 30.2398 14.5162 28.8536ZM17.4194 40.6452H18.2696L19.4957 41.8713L17.9824 42.8801L16.872 40.6591C17.0538 40.6522 17.2357 40.6452 17.4194 40.6452ZM20.3226 44.8091V46.5012C19.2379 46.5727 18.16 46.7257 17.0982 46.9587L20.3226 44.8091ZM21.7742 87.0968C11.3687 87.0968 2.9032 78.6313 2.9032 68.2258C2.9032 57.8203 11.3687 49.3548 21.7742 49.3548C32.1797 49.3548 40.6452 57.8203 40.6452 68.2258C40.6452 78.6313 32.1797 87.0968 21.7742 87.0968ZM87.0968 69.6774H43.4988C43.5306 69.1975 43.5484 68.7138 43.5484 68.2258C43.5484 67.7378 43.5306 67.2541 43.4988 66.7742H87.0968V69.6774Z" fill="url(#paint2_linear_542_3145)"/>
<path d="M75.4834 52.258H81.2898V55.1612H75.4834V52.258ZM75.4834 58.0646H81.2898V60.9678H75.4834V58.0646ZM75.4834 34.8388H81.2898V37.742H75.4834V34.8388ZM75.4834 29.0322H81.2898V31.9354H75.4834V29.0322ZM75.4834 11.613H81.2898V14.5162H75.4834V11.613ZM75.4834 5.8064H81.2898V8.7096H75.4834V5.8064Z" fill="url(#paint3_linear_542_3145)"/>
</g>
<defs>
<linearGradient id="paint0_linear_542_3145" x1="21.7744" y1="61.3928" x2="21.7744" y2="73.1818" gradientUnits="userSpaceOnUse">
<stop stop-color="#72C7D8"/>
<stop offset="0.489583" stop-color="#26519A"/>
<stop offset="1" stop-color="#41A575"/>
</linearGradient>
<linearGradient id="paint1_linear_542_3145" x1="21.7744" y1="52.258" x2="21.7744" y2="84.1936" gradientUnits="userSpaceOnUse">
<stop stop-color="#72C7D8"/>
<stop offset="0.489583" stop-color="#26519A"/>
<stop offset="1" stop-color="#41A575"/>
</linearGradient>
<linearGradient id="paint2_linear_542_3145" x1="45" y1="0" x2="45" y2="90" gradientUnits="userSpaceOnUse">
<stop stop-color="#72C7D8"/>
<stop offset="0.489583" stop-color="#26519A"/>
<stop offset="1" stop-color="#41A575"/>
</linearGradient>
<linearGradient id="paint3_linear_542_3145" x1="78.3866" y1="5.8064" x2="78.3866" y2="60.9678" gradientUnits="userSpaceOnUse">
<stop stop-color="#72C7D8"/>
<stop offset="0.489583" stop-color="#26519A"/>
<stop offset="1" stop-color="#41A575"/>
</linearGradient>
<clipPath id="clip0_542_3145">
<rect width="90" height="90" fill="white"/>
</clipPath>
</defs>
</svg>
