<svg width="100" height="100" viewBox="0 0 100 100" fill="none" xmlns="http://www.w3.org/2000/svg">
<path d="M20.3125 45.3125H4.6875C4.2731 45.3125 3.87567 45.1479 3.58265 44.8549C3.28962 44.5618 3.125 44.1644 3.125 43.75C3.125 43.3356 3.28962 42.9382 3.58265 42.6451C3.87567 42.3521 4.2731 42.1875 4.6875 42.1875H20.3125C20.7269 42.1875 21.1243 42.3521 21.4174 42.6451C21.7104 42.9382 21.875 43.3356 21.875 43.75C21.875 44.1644 21.7104 44.5618 21.4174 44.8549C21.1243 45.1479 20.7269 45.3125 20.3125 45.3125ZM20.3125 57.8125H4.6875C4.2731 57.8125 3.87567 57.6479 3.58265 57.3549C3.28962 57.0618 3.125 56.6644 3.125 56.25C3.125 55.8356 3.28962 55.4382 3.58265 55.1451C3.87567 54.8521 4.2731 54.6875 4.6875 54.6875H20.3125C20.7269 54.6875 21.1243 54.8521 21.4174 55.1451C21.7104 55.4382 21.875 55.8356 21.875 56.25C21.875 56.6644 21.7104 57.0618 21.4174 57.3549C21.1243 57.6479 20.7269 57.8125 20.3125 57.8125ZM20.3125 51.5625H12.5C12.0856 51.5625 11.6882 51.3979 11.3951 51.1049C11.1021 50.8118 10.9375 50.4144 10.9375 50C10.9375 49.5856 11.1021 49.1882 11.3951 48.8951C11.6882 48.6021 12.0856 48.4375 12.5 48.4375H20.3125C20.7269 48.4375 21.1243 48.6021 21.4174 48.8951C21.7104 49.1882 21.875 49.5856 21.875 50C21.875 50.4144 21.7104 50.8118 21.4174 51.1049C21.1243 51.3979 20.7269 51.5625 20.3125 51.5625ZM9.375 67.1875H6.25C5.8356 67.1875 5.43817 67.0229 5.14515 66.7299C4.85212 66.4368 4.6875 66.0394 4.6875 65.625C4.6875 65.2106 4.85212 64.8132 5.14515 64.5201C5.43817 64.2271 5.8356 64.0625 6.25 64.0625H9.375C9.7894 64.0625 10.1868 64.2271 10.4799 64.5201C10.7729 64.8132 10.9375 65.2106 10.9375 65.625C10.9375 66.0394 10.7729 66.4368 10.4799 66.7299C10.1868 67.0229 9.7894 67.1875 9.375 67.1875ZM14.0625 76.5625H12.5C12.0856 76.5625 11.6882 76.3979 11.3951 76.1049C11.1021 75.8118 10.9375 75.4144 10.9375 75C10.9375 74.5856 11.1021 74.1882 11.3951 73.8951C11.6882 73.6021 12.0856 73.4375 12.5 73.4375H14.0625C14.4769 73.4375 14.8743 73.6021 15.1674 73.8951C15.4604 74.1882 15.625 74.5856 15.625 75C15.625 75.4144 15.4604 75.8118 15.1674 76.1049C14.8743 76.3979 14.4769 76.5625 14.0625 76.5625ZM21.875 67.1875H14.0625C13.6481 67.1875 13.2507 67.0229 12.9576 66.7299C12.6646 66.4368 12.5 66.0394 12.5 65.625C12.5 65.2106 12.6646 64.8132 12.9576 64.5201C13.2507 64.2271 13.6481 64.0625 14.0625 64.0625H21.875C22.2894 64.0625 22.6868 64.2271 22.9799 64.5201C23.2729 64.8132 23.4375 65.2106 23.4375 65.625C23.4375 66.0394 23.2729 66.4368 22.9799 66.7299C22.6868 67.0229 22.2894 67.1875 21.875 67.1875Z" fill="url(#paint0_linear_519_3266)"/>
<path d="M60.9375 14.0625H25C24.5856 14.0625 24.1882 14.2271 23.8951 14.5201C23.6021 14.8132 23.4375 15.2106 23.4375 15.625C23.4375 16.0394 23.6021 16.4368 23.8951 16.7299C24.1882 17.0229 24.5856 17.1875 25 17.1875H46.3078C39.9647 20.0121 34.5763 24.6147 30.7947 30.4382C27.0132 36.2617 25.0006 43.0564 25.0006 50C25.0006 56.9436 27.0132 63.7383 30.7947 69.5618C34.5763 75.3853 39.9647 79.9879 46.3078 82.8125H21.875C21.4606 82.8125 21.0632 82.9771 20.7701 83.2701C20.4771 83.5632 20.3125 83.9606 20.3125 84.375C20.3125 84.7894 20.4771 85.1868 20.7701 85.4799C21.0632 85.7729 21.4606 85.9375 21.875 85.9375H60.9375C70.4687 85.9375 79.6096 82.1512 86.3491 75.4116C93.0887 68.6721 96.875 59.5312 96.875 50C96.875 40.4688 93.0887 31.3279 86.3491 24.5883C79.6096 17.8488 70.4687 14.0625 60.9375 14.0625ZM60.9375 82.8125C54.4478 82.8125 48.1038 80.8881 42.7079 77.2826C37.3119 73.6771 33.1062 68.5525 30.6227 62.5568C28.1392 56.5611 27.4894 49.9636 28.7555 43.5986C30.0216 37.2336 33.1466 31.387 37.7356 26.7981C42.3245 22.2091 48.1711 19.0841 54.5361 17.818C60.9011 16.5519 67.4986 17.2017 73.4943 19.6852C79.49 22.1687 84.6146 26.3744 88.2201 31.7704C91.8256 37.1663 93.75 43.5103 93.75 50C93.7405 58.6995 90.2804 67.04 84.1289 73.1914C77.9775 79.3429 69.637 82.803 60.9375 82.8125Z" fill="url(#paint1_linear_519_3266)"/>
<path d="M60.9375 20.3125C55.0659 20.3125 49.3261 22.0536 44.444 25.3157C39.5619 28.5779 35.7568 33.2144 33.5098 38.6391C31.2629 44.0638 30.675 50.0329 31.8205 55.7917C32.9659 61.5505 35.7934 66.8404 39.9453 70.9922C44.0972 75.1441 49.387 77.9716 55.1458 79.1171C60.9046 80.2626 66.8737 79.6746 72.2984 77.4277C77.7231 75.1807 82.3597 71.3756 85.6218 66.4935C88.8839 61.6114 90.625 55.8716 90.625 50C90.6163 42.129 87.4858 34.583 81.9202 29.0174C76.3545 23.4518 68.8085 20.3212 60.9375 20.3125ZM75.5391 72.1656L74.0094 69.5094C73.9075 69.3302 73.7713 69.173 73.6084 69.0468C73.4456 68.9205 73.2593 68.8277 73.0605 68.7737C72.8616 68.7197 72.654 68.7056 72.4497 68.7322C72.2453 68.7587 72.0483 68.8255 71.8698 68.9285C71.6914 69.0315 71.535 69.1688 71.4099 69.3325C71.2847 69.4962 71.1931 69.6831 71.1405 69.8823C71.0878 70.0815 71.0751 70.2892 71.103 70.4933C71.1309 70.6975 71.1989 70.8941 71.3031 71.0719L72.8266 73.7125C69.6102 75.3329 66.0955 76.2758 62.5 76.4828V73.4375C62.5 73.0231 62.3354 72.6257 62.0424 72.3326C61.7493 72.0396 61.3519 71.875 60.9375 71.875C60.5231 71.875 60.1257 72.0396 59.8327 72.3326C59.5396 72.6257 59.375 73.0231 59.375 73.4375V76.4828C55.78 76.2777 52.2653 75.337 49.0485 73.7187L50.5719 71.0781C50.6761 70.9004 50.7441 70.7037 50.772 70.4996C50.8 70.2954 50.7872 70.0877 50.7345 69.8885C50.6819 69.6893 50.5903 69.5025 50.4652 69.3388C50.34 69.1751 50.1837 69.0378 50.0052 68.9347C49.8268 68.8317 49.6297 68.765 49.4253 68.7384C49.221 68.7119 49.0134 68.726 48.8146 68.78C48.6157 68.834 48.4295 68.9268 48.2666 69.053C48.1038 69.1793 47.9675 69.3365 47.8656 69.5156L46.336 72.1719C43.3317 70.1847 40.759 67.6121 38.7719 64.6078L41.4281 63.0781C41.7841 62.8694 42.043 62.5285 42.1485 62.1296C42.254 61.7307 42.1974 61.3062 41.9911 60.9489C41.7848 60.5916 41.4455 60.3304 41.0473 60.2223C40.6491 60.1142 40.2243 60.1679 39.8656 60.3719L37.225 61.8953C35.6038 58.6771 34.6609 55.1601 34.4547 51.5625H37.5C37.9144 51.5625 38.3118 51.3979 38.6049 51.1049C38.8979 50.8118 39.0625 50.4144 39.0625 50C39.0625 49.5856 38.8979 49.1882 38.6049 48.8951C38.3118 48.6021 37.9144 48.4375 37.5 48.4375H34.4547C34.6598 44.8424 35.6006 41.3277 37.2188 38.1109L39.8594 39.6344C40.0372 39.7386 40.2338 39.8066 40.4379 39.8345C40.6421 39.8624 40.8498 39.8497 41.049 39.797C41.2482 39.7444 41.435 39.6528 41.5987 39.5276C41.7624 39.4025 41.8997 39.2462 42.0028 39.0677C42.1058 38.8892 42.1725 38.6922 42.1991 38.4878C42.2256 38.2835 42.2115 38.0759 42.1575 37.877C42.1035 37.6782 42.0107 37.492 41.8845 37.3291C41.7582 37.1662 41.601 37.03 41.4219 36.9281L38.7656 35.3984C40.7528 32.3941 43.3254 29.8215 46.3297 27.8344L47.8594 30.4906C48.0681 30.8466 48.4091 31.1055 48.808 31.211C49.2069 31.3165 49.6313 31.2599 49.9886 31.0536C50.3459 30.8472 50.6071 30.508 50.7152 30.1098C50.8234 29.7116 50.7696 29.2868 50.5656 28.9281L49.0422 26.2875C52.2605 24.6663 55.7774 23.7234 59.375 23.5172V26.5625C59.375 26.9769 59.5396 27.3743 59.8327 27.6674C60.1257 27.9604 60.5231 28.125 60.9375 28.125C61.3519 28.125 61.7493 27.9604 62.0424 27.6674C62.3354 27.3743 62.5 26.9769 62.5 26.5625V23.5172C66.0951 23.7223 69.6098 24.663 72.8266 26.2812L71.3031 28.9219C71.1989 29.0996 71.1309 29.2963 71.103 29.5004C71.0751 29.7046 71.0878 29.9123 71.1405 30.1115C71.1931 30.3107 71.2847 30.4975 71.4099 30.6612C71.535 30.8249 71.6914 30.9622 71.8698 31.0653C72.0483 31.1683 72.2453 31.235 72.4497 31.2616C72.654 31.2881 72.8616 31.274 73.0605 31.22C73.2593 31.166 73.4456 31.0732 73.6084 30.947C73.7713 30.8207 73.9075 30.6635 74.0094 30.4844L75.5391 27.8281C78.5434 29.8152 81.116 32.3879 83.1031 35.3922L80.4469 36.9219C80.2678 37.0237 80.1105 37.16 79.9843 37.3229C79.858 37.4857 79.7652 37.6719 79.7112 37.8708C79.6573 38.0697 79.6431 38.2772 79.6697 38.4816C79.6963 38.6859 79.763 38.883 79.866 39.0614C79.969 39.2399 80.1064 39.3962 80.27 39.5214C80.4337 39.6466 80.6206 39.7381 80.8198 39.7908C81.019 39.8434 81.2267 39.8562 81.4308 39.8283C81.635 39.8004 81.8316 39.7323 82.0094 39.6281L84.65 38.1047C86.2712 41.3229 87.2141 44.8399 87.4203 48.4375H84.375C83.9606 48.4375 83.5632 48.6021 83.2702 48.8951C82.9771 49.1882 82.8125 49.5856 82.8125 50C82.8125 50.4144 82.9771 50.8118 83.2702 51.1049C83.5632 51.3979 83.9606 51.5625 84.375 51.5625H87.4203C87.2152 55.1575 86.2745 58.6723 84.6563 61.8891L82.0156 60.3656C81.8379 60.2614 81.6412 60.1934 81.4371 60.1655C81.2329 60.1376 81.0252 60.1503 80.826 60.203C80.6268 60.2556 80.44 60.3472 80.2763 60.4724C80.1126 60.5975 79.9753 60.7538 79.8723 60.9323C79.7692 61.1108 79.7025 61.3078 79.6759 61.5122C79.6494 61.7165 79.6635 61.9241 79.7175 62.123C79.7715 62.3218 79.8643 62.508 79.9905 62.6709C80.1168 62.8338 80.274 62.97 80.4531 63.0719L83.1094 64.6016C81.1204 67.6065 78.5456 70.1792 75.5391 72.1656Z" fill="url(#paint2_linear_519_3266)"/>
<path d="M64.4891 53.025C64.9867 52.4521 65.3361 51.7658 65.5066 51.0264C65.6772 50.287 65.6637 49.517 65.4673 48.784C65.271 48.051 64.8978 47.3774 64.3804 46.8223C63.863 46.2671 63.2174 45.8474 62.5 45.6V31.25C62.5 30.8356 62.3354 30.4382 62.0424 30.1451C61.7493 29.8521 61.3519 29.6875 60.9375 29.6875C60.5231 29.6875 60.1257 29.8521 59.8326 30.1451C59.5396 30.4382 59.375 30.8356 59.375 31.25V45.6C58.3333 45.9669 57.4551 46.6906 56.8959 47.643C56.3367 48.5954 56.1326 49.715 56.3197 50.8034C56.5069 51.8919 57.0732 52.8789 57.9184 53.5898C58.7636 54.3008 59.8331 54.6896 60.9375 54.6875C61.2234 54.6852 61.5085 54.6565 61.7891 54.6016L65.8344 61.6063C66.043 61.9622 66.384 62.2212 66.7829 62.3266C67.1818 62.4321 67.6063 62.3755 67.9636 62.1692C68.3209 61.9629 68.5821 61.6236 68.6902 61.2254C68.7983 60.8272 68.7446 60.4024 68.5406 60.0438L64.4891 53.025ZM59.375 50C59.375 49.691 59.4666 49.3889 59.6383 49.1319C59.81 48.875 60.0541 48.6747 60.3396 48.5564C60.6251 48.4382 60.9392 48.4072 61.2423 48.4675C61.5454 48.5278 61.8238 48.6766 62.0424 48.8951C62.2609 49.1137 62.4097 49.3921 62.47 49.6952C62.5303 49.9983 62.4993 50.3124 62.3811 50.5979C62.2628 50.8835 62.0625 51.1275 61.8056 51.2992C61.5486 51.4709 61.2465 51.5625 60.9375 51.5625C60.5231 51.5625 60.1257 51.3979 59.8326 51.1049C59.5396 50.8118 59.375 50.4144 59.375 50ZM17.1875 26.5625H29.6875C30.1019 26.5625 30.4993 26.3979 30.7924 26.1049C31.0854 25.8118 31.25 25.4144 31.25 25C31.25 24.5856 31.0854 24.1882 30.7924 23.8951C30.4993 23.6021 30.1019 23.4375 29.6875 23.4375H17.1875C16.7731 23.4375 16.3757 23.6021 16.0826 23.8951C15.7896 24.1882 15.625 24.5856 15.625 25C15.625 25.4144 15.7896 25.8118 16.0826 26.1049C16.3757 26.3979 16.7731 26.5625 17.1875 26.5625ZM25 35.9375C25.4144 35.9375 25.8118 35.7729 26.1049 35.4799C26.3979 35.1868 26.5625 34.7894 26.5625 34.375C26.5625 33.9606 26.3979 33.5632 26.1049 33.2701C25.8118 32.9771 25.4144 32.8125 25 32.8125H17.1875C16.7731 32.8125 16.3757 32.9771 16.0826 33.2701C15.7896 33.5632 15.625 33.9606 15.625 34.375C15.625 34.7894 15.7896 35.1868 16.0826 35.4799C16.3757 35.7729 16.7731 35.9375 17.1875 35.9375H25ZM29.6875 75C29.6875 74.5856 29.5229 74.1882 29.2299 73.8951C28.9368 73.6021 28.5394 73.4375 28.125 73.4375H18.75C18.3356 73.4375 17.9382 73.6021 17.6451 73.8951C17.3521 74.1882 17.1875 74.5856 17.1875 75C17.1875 75.4144 17.3521 75.8118 17.6451 76.1049C17.9382 76.3979 18.3356 76.5625 18.75 76.5625H28.125C28.5394 76.5625 28.9368 76.3979 29.2299 76.1049C29.5229 75.8118 29.6875 75.4144 29.6875 75ZM12.5 35.9375H9.375C8.9606 35.9375 8.56317 35.7729 8.27015 35.4799C7.97712 35.1868 7.8125 34.7894 7.8125 34.375C7.8125 33.9606 7.97712 33.5632 8.27015 33.2701C8.56317 32.9771 8.9606 32.8125 9.375 32.8125H12.5C12.9144 32.8125 13.3118 32.9771 13.6049 33.2701C13.8979 33.5632 14.0625 33.9606 14.0625 34.375C14.0625 34.7894 13.8979 35.1868 13.6049 35.4799C13.3118 35.7729 12.9144 35.9375 12.5 35.9375Z" fill="url(#paint3_linear_519_3266)"/>
<defs>
<linearGradient id="paint0_linear_519_3266" x1="13.2812" y1="42.1875" x2="13.2812" y2="76.5625" gradientUnits="userSpaceOnUse">
<stop stop-color="#72C7D8"/>
<stop offset="0.489583" stop-color="#26519A"/>
<stop offset="1" stop-color="#41A575"/>
</linearGradient>
<linearGradient id="paint1_linear_519_3266" x1="58.5938" y1="14.0625" x2="58.5938" y2="85.9375" gradientUnits="userSpaceOnUse">
<stop stop-color="#72C7D8"/>
<stop offset="0.489583" stop-color="#26519A"/>
<stop offset="1" stop-color="#41A575"/>
</linearGradient>
<linearGradient id="paint2_linear_519_3266" x1="60.9375" y1="20.3125" x2="60.9375" y2="79.6875" gradientUnits="userSpaceOnUse">
<stop stop-color="#72C7D8"/>
<stop offset="0.489583" stop-color="#26519A"/>
<stop offset="1" stop-color="#41A575"/>
</linearGradient>
<linearGradient id="paint3_linear_519_3266" x1="38.2787" y1="23.4375" x2="38.2787" y2="76.5625" gradientUnits="userSpaceOnUse">
<stop stop-color="#72C7D8"/>
<stop offset="0.489583" stop-color="#26519A"/>
<stop offset="1" stop-color="#41A575"/>
</linearGradient>
</defs>
</svg>
