<svg width="116" height="90" viewBox="0 0 116 90" fill="none" xmlns="http://www.w3.org/2000/svg">
<path d="M104.796 19.1856C104.441 18.2903 103.745 17.5724 102.861 17.1896C101.977 16.8067 100.977 16.7902 100.081 17.1435L87.0492 22.2987C86.1539 22.6542 85.4362 23.3502 85.0534 24.2341C84.6705 25.118 84.6539 26.1177 85.0071 27.0138L85.5534 28.395C80.0813 31.1025 76.0728 31.8453 73.9521 30.5302C73.9246 30.5131 73.8965 30.497 73.8678 30.482C71.3721 29.1808 68.6273 28.4278 65.817 28.2734C63.0067 28.1191 60.1959 28.567 57.5728 29.5871C52.9443 27.3287 47.54 27.1022 41.4967 28.9173C39.1512 29.6626 36.6095 29.4816 34.3934 28.4115C33.3052 27.9069 32.1126 27.3549 30.8155 26.7554C31.0879 25.8809 31.0197 24.9358 30.6248 24.1093C30.2298 23.2829 29.5373 22.6362 28.6857 22.2987L15.6524 17.1435C14.7562 16.7902 13.7565 16.8068 12.8725 17.1896C11.9885 17.5725 11.2925 18.2903 10.9371 19.1856L0.253485 46.1954C-0.0998102 47.0915 -0.0832203 48.0912 0.299615 48.9751C0.682449 49.859 1.40026 50.5549 2.29558 50.9102L15.3287 56.0657C16.1567 56.3934 17.0762 56.4053 17.9124 56.0991C18.7486 55.793 19.4431 55.1901 19.8636 54.4051L21.1121 54.9142C21.2755 54.9753 21.417 55.0836 21.5188 55.2253C21.6205 55.367 21.6779 55.5357 21.6835 55.7101C21.7106 56.1504 21.7771 56.7217 21.8542 57.3828C21.9446 58.167 22.0563 59.12 22.1288 60.1071L19.1376 65.2888C18.4709 66.442 18.1812 67.7747 18.3088 69.1006C18.4364 70.4266 18.975 71.6795 19.8493 72.6844C20.7236 73.6894 21.89 74.3961 23.1855 74.7059C24.4811 75.0157 25.841 74.9131 27.0754 74.4124C27.2864 75.9368 28.041 77.3336 29.2003 78.3457C30.3596 79.3577 31.8454 79.9169 33.3843 79.9203C34.2134 79.9197 35.0346 79.7594 35.803 79.4483C36.0133 80.9734 36.7676 82.3711 37.9271 83.384C39.0865 84.3968 40.5729 84.9565 42.1124 84.96C42.6779 84.9595 43.2409 84.8849 43.7869 84.738C44.0404 84.6693 44.2895 84.5855 44.5329 84.4868C44.5694 84.7472 44.6215 85.0051 44.6889 85.2592C45.0156 86.4809 45.6973 87.5782 46.6477 88.4123C47.5982 89.2464 48.7747 89.7799 50.0284 89.9452C51.2822 90.1105 52.5567 89.9002 53.6909 89.3409C54.8251 88.7817 55.7679 87.8986 56.4001 86.8034L56.5721 86.5052L58.0086 87.3346C59.114 87.9739 60.3855 88.2675 61.6593 88.1774C62.9331 88.0873 64.1507 87.6177 65.155 86.8292C66.1594 86.0406 66.9046 84.9693 67.2944 83.7533C67.6842 82.5373 67.7008 81.2324 67.342 80.0069C68.2856 79.993 69.2142 79.7696 70.0608 79.3527C70.9073 78.9359 71.6506 78.336 72.2368 77.5965C72.823 76.857 73.2374 75.9965 73.4501 75.0771C73.6628 74.1578 73.6684 73.2026 73.4665 72.2808C73.6444 72.2957 73.8223 72.3059 73.9998 72.3059C74.9817 72.3088 75.951 72.0852 76.8324 71.6525C77.7139 71.2198 78.4836 70.5897 79.0819 69.8111C79.6802 69.0326 80.0909 68.1265 80.2821 67.1634C80.4732 66.2003 80.4397 65.2061 80.1842 64.258C80.1677 64.1963 80.1487 64.1357 80.1304 64.0749C80.6204 64.0586 81.1069 63.9865 81.5807 63.8602C82.693 63.5649 83.7046 62.974 84.5082 62.1502C85.3118 61.3264 85.8774 60.3003 86.145 59.181L96.0713 54.7401C96.5365 55.4195 97.2187 55.9207 98.006 56.1616C98.7934 56.4024 99.6392 56.3686 100.405 56.0657L113.438 50.9105C114.333 50.555 115.051 49.8591 115.434 48.9752C115.817 48.0912 115.833 47.0916 115.48 46.1954L104.796 19.1856ZM16.3262 53.5434L3.29312 48.388C3.06691 48.2971 2.88568 48.1207 2.7888 47.8969C2.69193 47.6732 2.68722 47.4203 2.7757 47.1931L13.4595 20.1834C13.5039 20.071 13.5702 19.9686 13.6545 19.882C13.7388 19.7954 13.8394 19.7263 13.9505 19.6789C14.0668 19.6281 14.1923 19.6019 14.3192 19.6018C14.434 19.6018 14.5477 19.6235 14.6544 19.6658L27.6875 24.8209C27.9139 24.9117 28.0952 25.0882 28.1921 25.3119C28.289 25.5357 28.2936 25.7887 28.2049 26.0158L17.5213 53.0258C17.4311 53.2526 17.2547 53.4344 17.0307 53.5315C16.8067 53.6285 16.5534 53.6328 16.3262 53.5434ZM22.8345 71.6768C21.9916 71.1855 21.3769 70.381 21.1245 69.4385C20.872 68.496 21.0022 67.492 21.4866 66.6451L25.1642 60.2753C25.6526 59.4293 26.457 58.812 27.4006 58.5591C27.8678 58.4339 28.3551 58.4019 28.8346 58.4651C29.3142 58.5282 29.7766 58.6851 30.1955 58.927C30.6144 59.1688 30.9816 59.4907 31.276 59.8745C31.5705 60.2582 31.7865 60.6962 31.9117 61.1634C32.0369 61.6306 32.0689 62.1179 32.0058 62.5974C31.9426 63.077 31.7857 63.5394 31.5439 63.9583L27.8661 70.3285C27.3768 71.1735 26.5723 71.79 25.6291 72.0428C24.6858 72.2956 23.6809 72.164 22.8345 71.6768ZM34.3579 77.0782C33.6547 77.2683 32.9108 77.2453 32.2206 77.0121C31.5305 76.7788 30.9252 76.3458 30.4815 75.768C30.0378 75.1902 29.7757 74.4936 29.7285 73.7667C29.6813 73.0397 29.8511 72.3151 30.2163 71.6847L33.8941 65.3148V65.313L36.2223 61.2817C36.4642 60.8628 36.7862 60.4956 37.1699 60.2012C37.5537 59.9068 37.9917 59.6908 38.4589 59.5656C38.9261 59.4404 39.4134 59.4085 39.8929 59.4717C40.3725 59.5348 40.8349 59.6918 41.2538 59.9336C41.6727 60.1755 42.0398 60.4975 42.3342 60.8812C42.6287 61.265 42.8447 61.703 42.9698 62.1702C43.095 62.6374 43.1269 63.1247 43.0638 63.6042C43.0006 64.0838 42.8437 64.5462 42.6018 64.9651L36.5958 75.3679C36.3543 75.7868 36.0322 76.1536 35.6481 76.4472C35.264 76.7408 34.8255 76.9552 34.3579 77.0782ZM43.0867 82.1177C42.3834 82.3078 41.6395 82.2848 40.9494 82.0515C40.2592 81.8183 39.6539 81.3853 39.2102 80.8075C38.7665 80.2297 38.5045 79.5331 38.4572 78.8061C38.41 78.0792 38.5798 77.3545 38.9451 76.7242L43.5442 68.7563C43.7861 68.3374 44.1082 67.9703 44.492 67.6759C44.8758 67.3814 45.3139 67.1655 45.7811 67.0404C46.2484 66.9152 46.7358 66.8834 47.2154 66.9466C47.695 67.0098 48.1574 67.1668 48.5763 67.4088C48.9952 67.6507 49.3623 67.9728 49.6568 68.3566C49.9512 68.7404 50.1671 69.1784 50.2923 69.6457C50.4174 70.113 50.4493 70.6003 50.3861 71.0799C50.3228 71.5595 50.1658 72.022 49.9239 72.4409L48.6942 74.5709L45.3243 80.4081C45.0827 80.8269 44.7605 81.1937 44.3762 81.4872C43.9919 81.7806 43.5532 81.9949 43.0855 82.1177H43.0867ZM54.0535 85.4471C53.5651 86.2933 52.7605 86.9109 51.8167 87.1639C50.873 87.4169 49.8674 87.2847 49.0212 86.7962C48.1749 86.3078 47.5574 85.5032 47.3043 84.5595C47.0513 83.6157 47.1836 82.6101 47.672 81.7639L51.0439 75.9236C51.5328 75.0778 52.3376 74.4609 53.2812 74.2086C54.2249 73.9562 55.2302 74.0891 56.0759 74.5779C56.9217 75.0667 57.5386 75.8715 57.7909 76.8152C58.0433 77.7589 57.9104 78.7642 57.4216 79.6099L54.0535 85.4471ZM64.3992 83.6374C63.9098 84.4824 63.1053 85.0989 62.1621 85.3517C61.2189 85.6044 60.2139 85.4727 59.3676 84.9855L57.9311 84.1561L59.7727 80.9662C60.4272 79.8348 60.7172 78.5292 60.6029 77.2272L63.1778 78.6876C63.98 79.1963 64.5548 79.9952 64.7821 80.9174C65.0095 81.8397 64.8719 82.8141 64.398 83.6374H64.3992ZM83.116 59.5294C82.6247 60.3724 81.8203 60.9871 80.8779 61.2397C79.9354 61.4922 78.9314 61.3621 78.0844 60.8777L77.2096 60.3725L69.3561 55.8383C69.0448 55.6612 68.676 55.6146 68.3304 55.7084C67.9848 55.8022 67.6903 56.029 67.5112 56.3391C67.3321 56.6493 67.283 57.0177 67.3745 57.364C67.4661 57.7102 67.6909 58.0062 67.9998 58.1873L75.8536 62.7218C76.2725 62.9637 76.6396 63.2857 76.934 63.6694C77.2285 64.0531 77.4445 64.4911 77.5696 64.9583C77.6948 65.4256 77.7267 65.9128 77.6636 66.3924C77.6004 66.872 77.4435 67.3344 77.2016 67.7533C76.9597 68.1721 76.6377 68.5393 76.254 68.8337C75.8703 69.1282 75.4323 69.3441 74.9651 69.4693C74.4978 69.5945 74.0106 69.6264 73.531 69.5633C73.0515 69.5001 72.589 69.3431 72.1702 69.1013L70.4233 68.0929L70.4201 68.0909L63.4416 64.0618C63.1301 63.882 62.7599 63.8332 62.4124 63.9263C62.0649 64.0195 61.7687 64.2468 61.5888 64.5583C61.409 64.8699 61.3603 65.2401 61.4534 65.5875C61.5465 65.935 61.7738 66.2312 62.0854 66.4111L69.0656 70.441C69.9081 70.9325 70.5224 71.7369 70.7746 72.679C71.0268 73.6212 70.8965 74.6249 70.4122 75.4715C69.9173 76.3131 69.1108 76.9259 68.1673 77.1772C67.2239 77.4286 66.2194 77.2982 65.3714 76.8144L64.6297 76.3937C64.556 76.3466 64.4814 76.3009 64.4059 76.2568L64.4016 76.2642L58.1702 72.73C57.4572 72.1711 56.633 71.7709 55.7528 71.5561C54.8726 71.3414 53.9567 71.317 53.0664 71.4847C53.2418 70.2235 53.0374 68.9385 52.4792 67.794C51.921 66.6495 51.0344 65.6973 49.9325 65.0591C48.6539 64.3174 47.1563 64.0461 45.6988 64.2919C45.9632 62.856 45.7283 61.3728 45.0333 60.0887C44.3383 58.8047 43.2249 57.797 41.8781 57.2331C40.5313 56.6692 39.0321 56.5829 37.6296 56.9887C36.227 57.3945 35.0055 58.2679 34.1678 59.4638C33.5433 58.0865 32.4492 56.9762 31.0811 56.3316C29.7131 55.6869 28.1604 55.5499 26.7006 55.945C25.9212 56.1527 25.1879 56.5054 24.5392 56.9848C24.4713 56.3989 24.413 55.8927 24.3916 55.5428C24.3528 54.859 24.1201 54.2004 23.7208 53.644C23.3214 53.0876 22.7719 52.6564 22.1365 52.4008L20.8856 51.8933L29.827 29.2887C31.0644 29.8606 32.2058 30.3889 33.2512 30.8735C36.0709 32.2173 39.2939 32.447 42.2756 31.5166C46.757 30.1705 50.803 30.0715 54.3453 31.2101C54.3064 31.2403 54.2693 31.2727 54.2341 31.3071C49.4496 35.9475 44.0577 39.9175 38.2059 43.1083C38.0437 43.1973 37.9015 43.3187 37.788 43.4647C37.6744 43.6108 37.592 43.7786 37.5457 43.9577C37.4994 44.1368 37.4903 44.3235 37.5188 44.5063C37.5474 44.6891 37.613 44.8641 37.7118 45.0206C41.4919 51.0145 46.7005 52.6176 52.7779 49.6607C56.4686 48.4332 60.308 47.2757 64.1912 46.22C64.8866 46.0163 65.6167 45.9593 66.3353 46.0527C67.0539 46.1461 67.7452 46.3878 68.3654 46.7625L81.7676 54.5001C82.6121 54.9893 83.2283 55.7934 83.481 56.7361C83.7338 57.6788 83.6025 58.6833 83.116 59.5294ZM83.1241 52.1488L69.7225 44.4112C68.7927 43.8568 67.759 43.4989 66.6854 43.3596C65.6118 43.2203 64.5211 43.3025 63.4805 43.6013C59.5184 44.6786 55.6006 45.8606 51.8355 47.1145C51.7769 47.1339 51.7198 47.1574 51.6644 47.1848C47.2054 49.3829 43.7282 48.6152 40.8181 44.7521C46.3407 41.6032 51.447 37.7748 56.0176 33.3562C58.5059 31.8722 61.3318 31.048 64.2278 30.9617C67.1237 30.8754 69.9938 31.5299 72.566 32.8632C75.576 34.6942 80.1577 34.0626 86.5544 30.9287L94.9893 52.253L86.145 56.2108C85.9454 55.3635 85.5745 54.5659 85.0551 53.8673C84.5357 53.1688 83.8788 52.5839 83.1248 52.1488H83.1241ZM112.944 47.8971C112.896 48.0082 112.827 48.1088 112.741 48.1931C112.654 48.2773 112.552 48.3436 112.439 48.388L99.4071 53.5434C99.1799 53.633 98.9265 53.6289 98.7025 53.5318C98.4784 53.4348 98.302 53.2528 98.212 53.0258L87.5284 26.0158C87.4397 25.7887 87.4443 25.5357 87.5412 25.3119C87.6381 25.0882 87.8195 24.9117 88.0458 24.8209L101.079 19.6658C101.306 19.5772 101.559 19.5819 101.783 19.6789C102.007 19.7758 102.183 19.9571 102.274 20.1834L112.958 47.1931C113.002 47.3055 113.024 47.4256 113.022 47.5464C113.019 47.6672 112.993 47.7864 112.945 47.8971H112.944ZM13.3836 43.0798C12.6541 43.0798 11.941 43.2961 11.3344 43.7014C10.7278 44.1067 10.2551 44.6828 9.97593 45.3567C9.69677 46.0307 9.62374 46.7724 9.76608 47.4878C9.90841 48.2033 10.2597 48.8605 10.7756 49.3763C11.2914 49.8922 11.9487 50.2434 12.6641 50.3857C13.3796 50.528 14.1213 50.4549 14.7952 50.1757C15.4692 49.8965 16.0452 49.4238 16.4505 48.8172C16.8557 48.2106 17.072 47.4975 17.072 46.768C17.0709 45.7901 16.6819 44.8526 15.9905 44.1611C15.299 43.4697 14.3614 43.0808 13.3836 43.0798ZM13.3836 47.7438C13.1906 47.7438 13.0019 47.6866 12.8414 47.5793C12.681 47.4721 12.5559 47.3197 12.482 47.1414C12.4082 46.9631 12.3888 46.7669 12.4265 46.5776C12.4641 46.3883 12.5571 46.2144 12.6936 46.0779C12.83 45.9415 13.0039 45.8485 13.1932 45.8109C13.3825 45.7732 13.5787 45.7925 13.757 45.8664C13.9353 45.9403 14.0877 46.0653 14.195 46.2258C14.3022 46.3863 14.3594 46.575 14.3594 46.768C14.3591 47.0267 14.2562 47.2747 14.0733 47.4576C13.8903 47.6406 13.6423 47.7435 13.3836 47.7438ZM101.873 43.0798C101.144 43.08 100.431 43.2964 99.8241 43.7019C99.2176 44.1073 98.745 44.6834 98.466 45.3574C98.187 46.0314 98.1141 46.773 98.2565 47.4884C98.399 48.2038 98.7503 48.8609 99.2662 49.3767C99.7821 49.8924 100.439 50.2436 101.155 50.3858C101.87 50.528 102.612 50.4549 103.286 50.1757C103.96 49.8964 104.536 49.4236 104.941 48.8171C105.346 48.2105 105.562 47.4974 105.562 46.768C105.561 45.7899 105.172 44.8523 104.48 44.1608C103.789 43.4694 102.851 43.0806 101.873 43.0798ZM101.873 47.7438C101.68 47.7436 101.491 47.6862 101.331 47.5789C101.171 47.4716 101.046 47.3191 100.972 47.1408C100.898 46.9624 100.879 46.7663 100.917 46.577C100.955 46.3878 101.048 46.214 101.184 46.0776C101.321 45.9412 101.495 45.8484 101.684 45.8108C101.873 45.7732 102.069 45.7926 102.248 45.8665C102.426 45.9404 102.578 46.0654 102.685 46.2259C102.793 46.3864 102.85 46.575 102.85 46.768C102.849 47.0268 102.746 47.275 102.563 47.458C102.38 47.6409 102.132 47.7437 101.873 47.7438ZM56.5104 16.2979V1.35627C56.5104 0.996568 56.6533 0.651594 56.9076 0.397243C57.162 0.142893 57.507 0 57.8667 0C58.2264 0 58.5713 0.142893 58.8257 0.397243C59.08 0.651594 59.2229 0.996568 59.2229 1.35627V16.2979C59.2229 16.6576 59.08 17.0026 58.8257 17.2569C58.5713 17.5113 58.2264 17.6542 57.8667 17.6542C57.507 17.6542 57.162 17.5113 56.9076 17.2569C56.6533 17.0026 56.5104 16.6576 56.5104 16.2979ZM35.5894 8.50248C35.4095 8.19095 35.3608 7.82072 35.4539 7.47326C35.547 7.1258 35.7744 6.82955 36.0859 6.6497C36.3974 6.46985 36.7677 6.42112 37.1151 6.51423C37.4626 6.60734 37.7588 6.83467 37.9387 7.14621L45.4093 20.0857C45.4997 20.24 45.5588 20.4107 45.583 20.5879C45.6072 20.7652 45.5962 20.9454 45.5505 21.1183C45.5047 21.2913 45.4253 21.4534 45.3166 21.5955C45.208 21.7376 45.0723 21.8568 44.9174 21.9462C44.7625 22.0357 44.5914 22.0936 44.4141 22.1166C44.2367 22.1397 44.0565 22.1274 43.8839 22.0806C43.7113 22.0337 43.5496 21.9532 43.4083 21.8436C43.2669 21.734 43.1486 21.5975 43.0602 21.442L35.5894 8.50248ZM70.7309 18.5681L78.2013 5.62876C78.3811 5.31723 78.6774 5.0899 79.0248 4.99679C79.3723 4.90367 79.7425 4.9524 80.0541 5.13225C80.3656 5.31211 80.5929 5.60835 80.686 5.95582C80.7792 6.30328 80.7304 6.6735 80.5506 6.98504L73.0795 19.9243C72.9911 20.0798 72.8728 20.2163 72.7315 20.3259C72.5901 20.4355 72.4285 20.516 72.2559 20.5629C72.0832 20.6098 71.9031 20.622 71.7257 20.599C71.5483 20.5759 71.3773 20.518 71.2224 20.4286C71.0675 20.3391 70.9318 20.2199 70.8231 20.0778C70.7145 19.9358 70.635 19.7736 70.5893 19.6007C70.5436 19.4277 70.5325 19.2475 70.5567 19.0703C70.581 18.893 70.64 18.7224 70.7305 18.5681H70.7309Z" fill="url(#paint0_linear_539_2747)"/>
<defs>
<linearGradient id="paint0_linear_539_2747" x1="57.8667" y1="0" x2="57.8667" y2="90" gradientUnits="userSpaceOnUse">
<stop stop-color="#72C7D8"/>
<stop offset="0.489583" stop-color="#26519A"/>
<stop offset="1" stop-color="#41A575"/>
</linearGradient>
</defs>
</svg>
