<svg width="90" height="90" viewBox="0 0 90 90" fill="none" xmlns="http://www.w3.org/2000/svg">
<path d="M44.9995 85.9571C36.8988 85.9574 28.9799 83.5554 22.2442 79.055C15.5086 74.5546 10.2588 68.1579 7.15878 60.6738C4.05872 53.1897 3.24764 44.9544 4.82809 37.0093C6.40855 29.0643 10.3096 21.7663 16.0378 16.0383C22.8265 9.25142 31.4345 5.17153 40.9337 4.24165C41.2712 4.20825 41.6105 4.17837 41.9444 4.15552C42.6159 4.10454 43.2997 4.07114 43.9765 4.05532C44.6532 4.0395 45.3423 4.0395 46.0226 4.05532C46.7028 4.07114 47.3831 4.10454 48.0546 4.15552C48.3886 4.17837 48.7278 4.20825 49.0653 4.24165C58.5575 5.17153 67.1708 9.25142 73.9612 16.0383C79.6895 21.7663 83.5905 29.0643 85.1709 37.0093C86.7514 44.9544 85.9403 53.1897 82.8402 60.6738C79.7402 68.1579 74.4904 74.5546 67.7548 79.055C61.0192 83.5554 53.1003 85.9574 44.9995 85.9571ZM44.9995 6.85552C44.6831 6.85552 44.3632 6.85552 44.045 6.86782C43.0975 6.88953 42.1511 6.94699 41.2079 7.04009C32.3644 7.9102 24.3487 11.7053 18.0276 18.0282C14.4547 21.5633 11.6156 25.7698 9.67359 30.4058C7.7316 35.0417 6.72499 40.0158 6.71162 45.0421C6.69825 50.0683 7.67838 55.0477 9.59568 59.6939C11.513 64.3402 14.3296 68.5617 17.8838 72.1158C21.4379 75.6699 25.6594 78.4866 30.3056 80.4039C34.9519 82.3212 39.9312 83.3013 44.9575 83.2879C49.9838 83.2746 54.9578 82.268 59.5938 80.326C64.2298 78.384 68.4362 75.5449 71.9714 71.9719C79.1246 64.8185 83.1433 55.1164 83.1433 45C83.1433 34.8837 79.1246 25.1816 71.9714 18.0282C65.6433 11.7 57.6347 7.90669 48.7911 7.04009C48.4765 7.0102 48.1601 6.98208 47.8507 6.95923C47.2231 6.91353 46.5851 6.88188 45.954 6.86782C45.6376 6.85552 45.3159 6.85552 44.9995 6.85552Z" fill="url(#paint0_linear_539_2724)"/>
<path d="M77.6121 46.4064H12.3867C12.0138 46.4064 11.6561 46.2582 11.3924 45.9945C11.1286 45.7308 10.9805 45.3731 10.9805 45.0001C10.9805 26.2425 26.2418 10.9812 44.9994 10.9812C63.757 10.9812 79.0184 26.2425 79.0184 45.0001C79.0184 45.3731 78.8702 45.7308 78.6065 45.9945C78.3428 46.2582 77.9851 46.4064 77.6121 46.4064ZM13.8246 43.5939H76.1742C75.4359 27.0371 61.7355 13.7937 44.9994 13.7937C28.2633 13.7937 14.5629 27.0371 13.8246 43.5939Z" fill="url(#paint1_linear_539_2724)"/>
<path d="M43.5458 46.4064C42.9128 46.4063 42.2858 46.2827 41.7001 46.0425C41.0144 45.7564 40.4 45.3229 39.9006 44.7727C39.4012 44.2226 39.029 43.5693 38.8103 42.8591C38.3453 41.3972 38.4163 39.8174 39.0107 38.4031C39.3499 37.5699 44.6093 30.4718 48.9617 24.6658C49.1483 24.4171 49.412 24.2372 49.7117 24.1544C50.0114 24.0715 50.3301 24.0903 50.618 24.2078C50.9059 24.3253 51.1467 24.5349 51.3027 24.8039C51.4588 25.0728 51.5214 25.3858 51.4806 25.6941C50.5226 32.8871 49.3097 41.6375 48.9687 42.4707C48.4022 43.8966 47.3466 45.0743 45.991 45.7929C45.2368 46.1901 44.3982 46.4005 43.5458 46.4064ZM41.5964 39.5158C41.2722 40.2976 41.2318 41.1682 41.4822 41.9767C41.5678 42.3031 41.7281 42.6051 41.9505 42.8589C42.1729 43.1127 42.4513 43.3113 42.7636 43.439C43.076 43.5667 43.4137 43.62 43.7502 43.5947C44.0867 43.5694 44.4127 43.4663 44.7025 43.2933C45.4491 42.8906 46.0308 42.2387 46.346 41.4511C46.5552 40.6707 47.2847 35.6099 47.9615 30.7109C45.0154 34.6871 41.9937 38.8109 41.5964 39.5158ZM44.9996 19.663C44.6266 19.663 44.2689 19.5149 44.0052 19.2512C43.7415 18.9874 43.5933 18.6297 43.5933 18.2568V12.3875C43.5933 12.0145 43.7415 11.6568 44.0052 11.3931C44.2689 11.1294 44.6266 10.9812 44.9996 10.9812C45.3725 10.9812 45.7302 11.1294 45.9939 11.3931C46.2576 11.6568 46.4058 12.0145 46.4058 12.3875V18.2568C46.4058 18.6297 46.2576 18.9874 45.9939 19.2512C45.7302 19.5149 45.3725 19.663 44.9996 19.663ZM38.8859 20.3416C38.5638 20.3413 38.2515 20.2305 38.0013 20.0277C37.7511 19.8248 37.5781 19.5422 37.5113 19.2271L36.2949 13.5054C36.2235 13.143 36.2976 12.767 36.5012 12.4588C36.7048 12.1506 37.0215 11.9348 37.3828 11.8582C37.7442 11.7815 38.1212 11.8501 38.4323 12.0491C38.7435 12.2482 38.9639 12.5616 39.0458 12.9218L40.2623 18.6417C40.306 18.8468 40.3034 19.0591 40.2545 19.263C40.2057 19.4669 40.1118 19.6573 39.9799 19.8202C39.8479 19.9832 39.6812 20.1146 39.4919 20.2048C39.3026 20.295 39.0956 20.3417 38.8859 20.3416ZM33.0552 22.2734C32.7832 22.2734 32.5171 22.1945 32.289 22.0463C32.061 21.8981 31.8808 21.687 31.7703 21.4384L29.4535 16.2353C29.3783 16.0666 29.3372 15.8847 29.3323 15.7C29.3275 15.5154 29.359 15.3316 29.4252 15.1591C29.5589 14.8108 29.8255 14.5299 30.1663 14.3782C30.5071 14.2264 30.8942 14.2163 31.2424 14.3499C31.4149 14.4161 31.5726 14.5156 31.7066 14.6428C31.8406 14.7699 31.9482 14.9222 32.0234 15.091L34.3384 20.2958C34.4336 20.5098 34.4737 20.7442 34.4554 20.9776C34.437 21.211 34.3606 21.4362 34.2331 21.6326C34.1056 21.829 33.9312 21.9905 33.7255 22.1024C33.5198 22.2143 33.2894 22.2731 33.0552 22.2734ZM27.7537 25.3759C27.5318 25.3758 27.313 25.3232 27.1154 25.2224C26.9177 25.1216 26.7467 24.9754 26.6164 24.7958L23.4277 20.4013C23.2109 20.0996 23.1223 19.7243 23.1813 19.3574C23.2403 18.9905 23.4421 18.662 23.7426 18.4434C24.0431 18.2249 24.4179 18.1342 24.7851 18.1911C25.1523 18.248 25.482 18.448 25.7023 18.7472L28.891 23.1417C29.0438 23.3515 29.1355 23.5995 29.1561 23.8582C29.1767 24.117 29.1252 24.3763 29.0075 24.6076C28.8897 24.8389 28.7103 25.0331 28.489 25.1687C28.2677 25.3043 28.0132 25.376 27.7537 25.3759ZM23.2115 29.5121C22.8654 29.5146 22.5306 29.3894 22.271 29.1605L18.5146 25.7767C18.2363 25.528 18.0682 25.1789 18.0472 24.8062C18.0263 24.4336 18.1543 24.0678 18.403 23.7895C18.6517 23.5112 19.0008 23.3431 19.3735 23.3221C19.7461 23.3012 20.1119 23.4292 20.3902 23.6779L24.1537 27.0705C24.3648 27.2609 24.5132 27.5109 24.5793 27.7874C24.6455 28.0639 24.6263 28.3539 24.5243 28.6193C24.4222 28.8847 24.2421 29.1129 24.0078 29.2738C23.7734 29.4348 23.4958 29.5209 23.2115 29.5208V29.5121ZM19.629 34.5025C19.3822 34.5026 19.1397 34.4377 18.9259 34.3144L14.941 32.0099C14.6179 31.8234 14.3821 31.5162 14.2855 31.1559C14.2377 30.9775 14.2255 30.7914 14.2496 30.6083C14.2737 30.4252 14.3336 30.2486 14.4259 30.0886C14.5183 29.9287 14.6412 29.7884 14.7877 29.676C14.9343 29.5635 15.1015 29.481 15.2799 29.4332C15.6402 29.3366 16.0241 29.3871 16.3472 29.5736L20.3392 31.8781C20.6075 32.0328 20.8171 32.2717 20.9357 32.5578C21.0543 32.8438 21.0751 33.161 20.995 33.4602C20.9148 33.7593 20.7382 34.0236 20.4925 34.212C20.2468 34.4005 19.9457 34.5026 19.6361 34.5025H19.629ZM17.1646 40.1292C17.0172 40.1288 16.8708 40.1057 16.7304 40.0607L12.8316 38.7933C12.6559 38.7363 12.4932 38.6452 12.3527 38.5253C12.2122 38.4054 12.0968 38.259 12.0129 38.0945C11.929 37.93 11.8783 37.7505 11.8637 37.5664C11.8492 37.3823 11.8711 37.1971 11.9281 37.0214C11.9851 36.8458 12.0761 36.683 12.1961 36.5426C12.316 36.4021 12.4624 36.2866 12.6269 36.2027C12.9592 36.0333 13.3452 36.0028 13.6999 36.1179L17.5988 37.3853C17.9174 37.4886 18.1887 37.7022 18.3638 37.9878C18.5389 38.2733 18.6064 38.6119 18.554 38.9428C18.5017 39.2736 18.333 39.5749 18.0782 39.7924C17.8235 40.0099 17.4995 40.1294 17.1646 40.1292ZM73.0542 39.8041C72.7193 39.8042 72.3953 39.6847 72.1406 39.4672C71.8859 39.2497 71.7172 38.9484 71.6648 38.6176C71.6125 38.2868 71.6799 37.9481 71.855 37.6626C72.0302 37.3771 72.3014 37.1634 72.6201 37.0601L76.2429 35.8824C76.4186 35.8252 76.6038 35.8033 76.7879 35.8177C76.9721 35.8322 77.1516 35.8827 77.3162 35.9665C77.4809 36.0504 77.6273 36.1658 77.7474 36.3062C77.8674 36.4466 77.9585 36.6093 78.0157 36.785C78.0728 36.9607 78.0948 37.1459 78.0803 37.33C78.0659 37.5142 78.0153 37.6937 77.9315 37.8583C77.8477 38.0229 77.7323 38.1694 77.5918 38.2894C77.4514 38.4095 77.2887 38.5006 77.113 38.5578L73.4884 39.7355C73.3483 39.7814 73.2017 39.8045 73.0542 39.8041ZM70.5248 34.2072C70.2151 34.2073 69.914 34.1052 69.6683 33.9167C69.4226 33.7283 69.246 33.464 69.1659 33.1649C69.0857 32.8657 69.1066 32.5485 69.2251 32.2625C69.3437 31.9764 69.5534 31.7375 69.8216 31.5828L73.5816 29.4119C73.7416 29.3195 73.9182 29.2596 74.1013 29.2355C74.2844 29.2114 74.4705 29.2236 74.6489 29.2715C74.8273 29.3193 74.9946 29.4018 75.1411 29.5143C75.2876 29.6267 75.4105 29.7669 75.5029 29.9269C75.5952 30.0869 75.6551 30.2635 75.6792 30.4466C75.7033 30.6297 75.6911 30.8158 75.6433 30.9942C75.5954 31.1726 75.5129 31.3399 75.4005 31.4864C75.288 31.6329 75.1478 31.7559 74.9878 31.8482L71.2261 34.0173C71.0132 34.1415 70.7712 34.207 70.5248 34.2072ZM66.8843 29.2572C66.6002 29.2569 66.3228 29.1705 66.0887 29.0094C65.8546 28.8483 65.6748 28.6201 65.573 28.3548C65.4712 28.0895 65.4521 27.7996 65.5183 27.5233C65.5845 27.2469 65.7329 26.9971 65.9439 26.8068L69.5263 23.5812C69.8064 23.3597 70.1602 23.253 70.5161 23.2828C70.8719 23.3126 71.2031 23.4767 71.4424 23.7417C71.6818 24.0067 71.8113 24.3529 71.8047 24.7099C71.7982 25.067 71.6561 25.4081 71.4072 25.6642L67.8248 28.8898C67.5676 29.1244 67.2325 29.2554 66.8843 29.2572ZM62.2929 25.1738C62.0338 25.1733 61.7799 25.1013 61.5591 24.9657C61.3384 24.83 61.1594 24.636 61.0419 24.4051C60.9245 24.1742 60.8731 23.9153 60.8934 23.657C60.9138 23.3987 61.0052 23.151 61.1574 22.9414L64.2353 18.7068C64.3435 18.5563 64.4803 18.4286 64.638 18.3312C64.7956 18.2337 64.971 18.1684 65.154 18.139C65.337 18.1095 65.524 18.1166 65.7042 18.1596C65.8845 18.2027 66.0545 18.281 66.2044 18.39C66.3543 18.499 66.4812 18.6366 66.5777 18.7948C66.6742 18.953 66.7386 19.1288 66.767 19.3119C66.7954 19.4951 66.7873 19.6821 66.7431 19.8621C66.699 20.0421 66.6198 20.2116 66.5099 20.3609L63.432 24.5955C63.3013 24.7749 63.1299 24.9209 62.9319 25.0214C62.7339 25.1219 62.515 25.1742 62.2929 25.1738ZM56.9527 22.1345C56.7184 22.1345 56.4878 22.076 56.2818 21.9642C56.0759 21.8524 55.9012 21.691 55.7735 21.4945C55.6459 21.298 55.5693 21.0727 55.5508 20.8392C55.5323 20.6056 55.5725 20.3711 55.6677 20.157L57.9318 15.0716C58.0835 14.7308 58.3644 14.4643 58.7127 14.3306C59.061 14.1969 59.4481 14.2071 59.7889 14.3588C60.1297 14.5106 60.3963 14.7915 60.5299 15.1398C60.6636 15.4881 60.6535 15.8752 60.5017 16.216L58.2376 21.2996C58.1271 21.5481 57.947 21.7592 57.7189 21.9074C57.4908 22.0556 57.2247 22.1345 56.9527 22.1345ZM51.1044 20.2695C50.8949 20.2696 50.6881 20.2229 50.4989 20.1328C50.3098 20.0427 50.1432 19.9115 50.0113 19.7487C49.8794 19.586 49.7855 19.3958 49.7365 19.1921C49.6875 18.9884 49.6846 18.7764 49.7281 18.5714L50.9304 12.9166C51.008 12.5518 51.2274 12.2327 51.5402 12.0297C51.8531 11.8266 52.2338 11.7561 52.5986 11.8337C52.9634 11.9114 53.2824 12.1307 53.4855 12.4436C53.6885 12.7564 53.759 13.1371 53.6814 13.5019L52.479 19.1603C52.4112 19.4744 52.2377 19.7558 51.9876 19.9576C51.7375 20.1594 51.4258 20.2695 51.1044 20.2695ZM54.715 77.6375H35.2841C34.9925 77.6374 34.7082 77.5467 34.4704 77.3779C34.2326 77.2091 34.0532 76.9705 33.957 76.6953C33.5711 75.6182 33.3922 74.4779 33.4296 73.3343C33.6142 68.6849 37.7328 62.2425 44.9908 62.2425C52.2488 62.2425 56.3673 68.6849 56.5519 73.3343C56.5922 74.4773 56.4163 75.6176 56.0333 76.6953C55.9376 76.9691 55.7595 77.2067 55.5235 77.3753C55.2875 77.544 55.0051 77.6356 54.715 77.6375ZM36.3564 74.825H53.6427C53.7314 74.3706 53.7674 73.9076 53.7499 73.4451C53.6146 70.0173 50.4206 65.055 44.9996 65.055C39.5785 65.055 36.3863 70.0173 36.2492 73.4451C36.2318 73.9076 36.2677 74.3706 36.3564 74.825Z" fill="url(#paint2_linear_539_2724)"/>
<path d="M44.9994 65.055C40.7314 65.055 37.265 61.5394 37.265 57.2011C37.265 52.8628 40.7385 49.3455 44.9994 49.3455C49.2604 49.3455 52.7338 52.8611 52.7338 57.2011C52.7338 61.5412 49.2674 65.055 44.9994 65.055ZM44.9994 52.158C42.2818 52.158 40.0775 54.4203 40.0775 57.2011C40.0775 59.982 42.2889 62.2425 44.9994 62.2425C47.71 62.2425 49.9213 59.9802 49.9213 57.2011C49.9213 54.422 47.717 52.158 44.9994 52.158ZM31.0512 67.3753H29.5307C28.606 67.3744 27.7195 67.0067 27.0657 66.3528C26.4118 65.699 26.0441 64.8125 26.0432 63.8878V57.2468C26.0441 56.3222 26.4118 55.4356 27.0657 54.7818C27.7195 54.128 28.606 53.7603 29.5307 53.7593H31.0512C31.9758 53.7603 32.8623 54.128 33.5162 54.7818C34.17 55.4356 34.5377 56.3222 34.5387 57.2468V63.8878C34.5377 64.8125 34.17 65.699 33.5162 66.3528C32.8623 67.0067 31.9758 67.3744 31.0512 67.3753ZM29.5307 56.5718C29.3524 56.5741 29.182 56.6459 29.0559 56.772C28.9298 56.8981 28.8579 57.0685 28.8557 57.2468V63.8878C28.8579 64.0662 28.9298 64.2365 29.0559 64.3626C29.182 64.4887 29.3524 64.5606 29.5307 64.5628H31.0512C31.2295 64.5606 31.3999 64.4887 31.526 64.3626C31.652 64.2365 31.7239 64.0662 31.7262 63.8878V57.2468C31.7239 57.0685 31.652 56.8981 31.526 56.772C31.3999 56.6459 31.2295 56.5741 31.0512 56.5718H29.5307ZM19.9418 67.3753H19.3723C18.3216 67.3739 17.3143 66.9558 16.5716 66.2127C15.8288 65.4696 15.4111 64.4622 15.4102 63.4115V52.2265C15.4111 51.176 15.8288 50.1687 16.5717 49.4259C17.3145 48.6831 18.3217 48.2653 19.3723 48.2644H19.9418C20.9925 48.2653 21.9999 48.683 22.743 49.4258C23.4861 50.1686 23.9043 51.1758 23.9057 52.2265V63.4115C23.9047 64.4625 23.4868 65.4702 22.7436 66.2133C22.0005 66.9565 20.9928 67.3744 19.9418 67.3753ZM19.3723 51.0769C19.0674 51.0769 18.775 51.198 18.5594 51.4136C18.3438 51.6292 18.2227 51.9216 18.2227 52.2265V63.4115C18.2227 63.7165 18.3437 64.0091 18.5593 64.225C18.7748 64.4409 19.0672 64.5624 19.3723 64.5628H19.9418C20.247 64.5624 20.5396 64.4409 20.7554 64.2251C20.9712 64.0093 21.0927 63.7167 21.0932 63.4115V52.2265C21.0927 51.9215 20.9712 51.6291 20.7553 51.4135C20.5394 51.198 20.2469 51.0769 19.9418 51.0769H19.3723ZM60.4682 67.3753H58.9477C58.023 67.3744 57.1365 67.0067 56.4826 66.3528C55.8288 65.699 55.4611 64.8125 55.4602 63.8878V57.2468C55.4611 56.3222 55.8288 55.4356 56.4826 54.7818C57.1365 54.128 58.023 53.7603 58.9477 53.7593H60.4682C61.3928 53.7603 62.2793 54.128 62.9332 54.7818C63.587 55.4356 63.9547 56.3222 63.9557 57.2468V63.8878C63.9547 64.8125 63.587 65.699 62.9332 66.3528C62.2793 67.0067 61.3928 67.3744 60.4682 67.3753ZM58.9477 56.5718C58.7693 56.5741 58.599 56.6459 58.4729 56.772C58.3468 56.8981 58.2749 57.0685 58.2727 57.2468V63.8878C58.2749 64.0662 58.3468 64.2365 58.4729 64.3626C58.599 64.4887 58.7693 64.5606 58.9477 64.5628H60.4682C60.6465 64.5606 60.8168 64.4887 60.9429 64.3626C61.069 64.2365 61.1409 64.0662 61.1432 63.8878V57.2468C61.1409 57.0685 61.069 56.8981 60.9429 56.772C60.8168 56.6459 60.6465 56.5741 60.4682 56.5718H58.9477ZM70.6266 67.3753H70.057C69.006 67.3744 67.9984 66.9565 67.2552 66.2133C66.512 65.4702 66.0941 64.4625 66.0932 63.4115V52.2265C66.0946 51.1758 66.5127 50.1686 67.2558 49.4258C67.9989 48.683 69.0063 48.2653 70.057 48.2644H70.6266C71.6771 48.2653 72.6843 48.6831 73.4272 49.4259C74.17 50.1687 74.5877 51.176 74.5887 52.2265V63.4115C74.5877 64.4622 74.1701 65.4696 73.4273 66.2127C72.6845 66.9558 71.6773 67.3739 70.6266 67.3753ZM70.057 51.0769C69.752 51.0769 69.4594 51.198 69.2435 51.4135C69.0276 51.6291 68.9061 51.9215 68.9057 52.2265V63.4115C68.9061 63.7167 69.0276 64.0093 69.2434 64.2251C69.4592 64.4409 69.7518 64.5624 70.057 64.5628H70.6266C70.9316 64.5624 71.224 64.4409 71.4396 64.225C71.6551 64.0091 71.7762 63.7165 71.7762 63.4115V52.2265C71.7762 51.9216 71.6551 51.6292 71.4395 51.4136C71.2239 51.198 70.9315 51.0769 70.6266 51.0769H70.057Z" fill="url(#paint3_linear_539_2724)"/>
<defs>
<linearGradient id="paint0_linear_539_2724" x1="44.9995" y1="4.04346" x2="44.9995" y2="85.9571" gradientUnits="userSpaceOnUse">
<stop stop-color="#72C7D8"/>
<stop offset="0.489583" stop-color="#26519A"/>
<stop offset="1" stop-color="#41A575"/>
</linearGradient>
<linearGradient id="paint1_linear_539_2724" x1="44.9994" y1="10.9812" x2="44.9994" y2="46.4064" gradientUnits="userSpaceOnUse">
<stop stop-color="#72C7D8"/>
<stop offset="0.489583" stop-color="#26519A"/>
<stop offset="1" stop-color="#41A575"/>
</linearGradient>
<linearGradient id="paint2_linear_539_2724" x1="44.972" y1="10.9812" x2="44.972" y2="77.6375" gradientUnits="userSpaceOnUse">
<stop stop-color="#72C7D8"/>
<stop offset="0.489583" stop-color="#26519A"/>
<stop offset="1" stop-color="#41A575"/>
</linearGradient>
<linearGradient id="paint3_linear_539_2724" x1="44.9994" y1="48.2644" x2="44.9994" y2="67.3753" gradientUnits="userSpaceOnUse">
<stop stop-color="#72C7D8"/>
<stop offset="0.489583" stop-color="#26519A"/>
<stop offset="1" stop-color="#41A575"/>
</linearGradient>
</defs>
</svg>
