<svg width="90" height="90" viewBox="0 0 90 90" fill="none" xmlns="http://www.w3.org/2000/svg">
<path d="M85.7812 54.8438H74.5312C74.1583 54.8438 73.8006 54.6956 73.5369 54.4319C73.2732 54.1681 73.125 53.8105 73.125 53.4375C73.125 53.0645 73.2732 52.7069 73.5369 52.4431C73.8006 52.1794 74.1583 52.0312 74.5312 52.0312H84.375V37.9688H74.7703C74.4641 37.9687 74.1663 37.8686 73.9221 37.6839C73.678 37.4991 73.5008 37.2397 73.4175 36.945C72.7961 34.7386 71.9138 32.6143 70.7892 30.6169C70.6378 30.3491 70.5783 30.039 70.62 29.7342C70.6617 29.4294 70.8021 29.1467 71.0198 28.9294L77.8162 22.133L67.8656 12.1837L61.0692 18.9844C60.8519 19.2021 60.5692 19.3426 60.2644 19.3842C59.9596 19.4259 59.6495 19.3664 59.3817 19.215C57.3842 18.0907 55.2598 17.2084 53.0536 16.5867C52.7585 16.503 52.4989 16.3251 52.3143 16.0801C52.1297 15.8351 52.0303 15.5364 52.0312 15.2297V5.625H37.9688V15.2297C37.9687 15.5359 37.8686 15.8337 37.6839 16.0779C37.4991 16.322 37.2397 16.4992 36.945 16.5825C34.7386 17.2039 32.6143 18.0862 30.6169 19.2108C30.3491 19.3622 30.039 19.4217 29.7342 19.38C29.4294 19.3383 29.1467 19.1979 28.9294 18.9802L22.1344 12.1837L12.1837 22.1344L18.9844 28.9308C19.2021 29.1481 19.3426 29.4308 19.3842 29.7356C19.4259 30.0404 19.3664 30.3505 19.215 30.6183C18.0911 32.616 17.2088 34.7403 16.5867 36.9464C16.503 37.2415 16.3251 37.5011 16.0801 37.6857C15.8351 37.8703 15.5364 37.9697 15.2297 37.9688H5.625V52.0312H15.2297C15.6026 52.0312 15.9603 52.1794 16.2241 52.4431C16.4878 52.7069 16.6359 53.0645 16.6359 53.4375C16.6359 53.8105 16.4878 54.1681 16.2241 54.4319C15.9603 54.6956 15.6026 54.8438 15.2297 54.8438H4.21875C3.84579 54.8438 3.4881 54.6956 3.22438 54.4319C2.96066 54.1681 2.8125 53.8105 2.8125 53.4375V36.5625C2.8125 36.1895 2.96066 35.8319 3.22438 35.5681C3.4881 35.3044 3.84579 35.1562 4.21875 35.1562H14.1848C14.7307 33.4407 15.4218 31.7748 16.2506 30.1767L9.20109 23.1286C8.93746 22.8649 8.78936 22.5073 8.78936 22.1344C8.78936 21.7615 8.93746 21.4039 9.20109 21.1402L21.1402 9.20109C21.4039 8.93746 21.7615 8.78936 22.1344 8.78936C22.5073 8.78936 22.8649 8.93746 23.1286 9.20109L30.1781 16.2506C31.7756 15.4215 33.4411 14.7304 35.1562 14.1848V4.21875C35.1562 3.84579 35.3044 3.4881 35.5681 3.22438C35.8319 2.96066 36.1895 2.8125 36.5625 2.8125H53.4375C53.8105 2.8125 54.1681 2.96066 54.4319 3.22438C54.6956 3.4881 54.8438 3.84579 54.8438 4.21875V14.1848C56.5589 14.7304 58.2244 15.4215 59.8219 16.2506L66.8714 9.20109C67.1351 8.93746 67.4927 8.78936 67.8656 8.78936C68.2385 8.78936 68.5961 8.93746 68.8598 9.20109L80.7989 21.1402C81.0625 21.4039 81.2106 21.7615 81.2106 22.1344C81.2106 22.5073 81.0625 22.8649 80.7989 23.1286L73.7494 30.1767C74.5776 31.7751 75.2687 33.4409 75.8152 35.1562H85.7812C86.1542 35.1562 86.5119 35.3044 86.7756 35.5681C87.0393 35.8319 87.1875 36.1895 87.1875 36.5625V53.4375C87.1875 53.8105 87.0393 54.1681 86.7756 54.4319C86.5119 54.6956 86.1542 54.8438 85.7812 54.8438Z" fill="url(#paint0_linear_519_3277)"/>
<path d="M80.1563 76.1372V66.0938C80.1563 65.8698 80.1028 65.6491 80.0004 65.45C79.8979 65.2509 79.7493 65.0792 79.5671 64.9491L70.3125 58.3383V45C70.3125 38.2867 67.6457 31.8484 62.8987 27.1014C58.1516 22.3543 51.7133 19.6875 45 19.6875C38.2867 19.6875 31.8484 22.3543 27.1014 27.1014C22.3544 31.8484 19.6875 38.2867 19.6875 45V58.3383L10.433 64.9477C10.2505 65.0779 10.1019 65.2499 9.99936 65.4492C9.89687 65.6486 9.84352 65.8696 9.84376 66.0938V76.1372C8.51815 76.4795 7.36287 77.2934 6.59448 78.4266C5.82609 79.5597 5.49734 80.9342 5.66985 82.2923C5.84236 83.6505 6.50429 84.8992 7.53156 85.8042C8.55884 86.7093 9.88093 87.2086 11.25 87.2086C12.6191 87.2086 13.9412 86.7093 14.9685 85.8042C15.9957 84.8992 16.6577 83.6505 16.8302 82.2923C17.0027 80.9342 16.6739 79.5597 15.9055 78.4266C15.1372 77.2934 13.9819 76.4795 12.6563 76.1372V66.818L21.9108 60.2086C22.0932 60.0783 22.2419 59.9064 22.3444 59.707C22.4469 59.5076 22.5003 59.2867 22.5 59.0625V45C22.5 39.0326 24.8705 33.3097 29.0901 29.0901C33.3097 24.8705 39.0326 22.5 45 22.5C50.9674 22.5 56.6904 24.8705 60.9099 29.0901C65.1295 33.3097 67.5 39.0326 67.5 45V59.0625C67.5 59.2864 67.5535 59.5071 67.6559 59.7062C67.7584 59.9053 67.907 60.0771 68.0892 60.2072L77.3438 66.818V76.1372C76.0182 76.4795 74.8629 77.2934 74.0945 78.4266C73.3261 79.5597 72.9973 80.9342 73.1699 82.2923C73.3424 83.6505 74.0043 84.8992 75.0316 85.8042C76.0588 86.7093 77.3809 87.2086 78.75 87.2086C80.1191 87.2086 81.4412 86.7093 82.4685 85.8042C83.4958 84.8992 84.1577 83.6505 84.3302 82.2923C84.5027 80.9342 84.1739 79.5597 83.4056 78.4266C82.6372 77.2934 81.4819 76.4795 80.1563 76.1372ZM14.0625 81.5625C14.0625 82.1188 13.8976 82.6625 13.5885 83.125C13.2795 83.5876 12.8402 83.948 12.3263 84.1609C11.8124 84.3738 11.2469 84.4295 10.7013 84.321C10.1558 84.2124 9.65461 83.9446 9.26128 83.5512C8.86794 83.1579 8.60008 82.6568 8.49155 82.1112C8.38303 81.5656 8.43873 81.0001 8.6516 80.4862C8.86447 79.9723 9.22496 79.533 9.68747 79.224C10.15 78.9149 10.6938 78.75 11.25 78.75C11.9959 78.75 12.7113 79.0463 13.2388 79.5738C13.7662 80.1012 14.0625 80.8166 14.0625 81.5625ZM78.75 84.375C78.1938 84.375 77.65 84.2101 77.1875 83.901C76.725 83.592 76.3645 83.1527 76.1516 82.6388C75.9387 82.1249 75.883 81.5594 75.9916 81.0138C76.1001 80.4682 76.3679 79.9671 76.7613 79.5738C77.1546 79.1804 77.6558 78.9126 78.2013 78.804C78.7469 78.6955 79.3124 78.7512 79.8263 78.9641C80.3402 79.177 80.7795 79.5374 81.0885 80C81.3976 80.4625 81.5625 81.0062 81.5625 81.5625C81.5625 82.3084 81.2662 83.0238 80.7388 83.5512C80.2113 84.0787 79.4959 84.375 78.75 84.375Z" fill="url(#paint1_linear_519_3277)"/>
<path d="M61.875 64.8872V45C61.875 40.5245 60.0971 36.2322 56.9324 33.0676C53.7678 29.9029 49.4755 28.125 45 28.125C40.5245 28.125 36.2323 29.9029 33.0676 33.0676C29.9029 36.2322 28.125 40.5245 28.125 45V64.8872C26.7994 65.2295 25.6441 66.0434 24.8757 67.1766C24.1073 68.3097 23.7786 69.6842 23.9511 71.0423C24.1236 72.4005 24.7855 73.6492 25.8128 74.5542C26.8401 75.4593 28.1622 75.9586 29.5313 75.9586C30.9004 75.9586 32.2224 75.4593 33.2497 74.5542C34.277 73.6492 34.9389 72.4005 35.1114 71.0423C35.2839 69.6842 34.9552 68.3097 34.1868 67.1766C33.4184 66.0434 32.2631 65.2295 30.9375 64.8872V45C30.9375 41.2704 32.4191 37.6935 35.0563 35.0563C37.6936 32.4191 41.2704 30.9375 45 30.9375C48.7296 30.9375 52.3065 32.4191 54.9437 35.0563C57.5809 37.6935 59.0625 41.2704 59.0625 45V64.8872C57.7369 65.2295 56.5816 66.0434 55.8132 67.1766C55.0448 68.3097 54.7161 69.6842 54.8886 71.0423C55.0611 72.4005 55.723 73.6492 56.7503 74.5542C57.7776 75.4593 59.0997 75.9586 60.4688 75.9586C61.8379 75.9586 63.1599 75.4593 64.1872 74.5542C65.2145 73.6492 65.8764 72.4005 66.0489 71.0423C66.2214 69.6842 65.8927 68.3097 65.1243 67.1766C64.3559 66.0434 63.2006 65.2295 61.875 64.8872ZM32.3438 70.3125C32.3438 70.8688 32.1788 71.4125 31.8698 71.875C31.5607 72.3376 31.1215 72.698 30.6076 72.9109C30.0936 73.1238 29.5281 73.1795 28.9826 73.071C28.437 72.9624 27.9359 72.6946 27.5425 72.3012C27.1492 71.9079 26.8813 71.4068 26.7728 70.8612C26.6643 70.3156 26.72 69.7501 26.9329 69.2362C27.1457 68.7223 27.5062 68.283 27.9687 67.974C28.4312 67.6649 28.975 67.5 29.5313 67.5C30.2772 67.5 30.9926 67.7963 31.52 68.3238C32.0474 68.8512 32.3438 69.5666 32.3438 70.3125ZM60.4688 73.125C59.9125 73.125 59.3687 72.9601 58.9062 72.651C58.4437 72.342 58.0832 71.9027 57.8704 71.3888C57.6575 70.8749 57.6018 70.3094 57.7103 69.7638C57.8188 69.2182 58.0867 68.7171 58.48 68.3238C58.8734 67.9304 59.3745 67.6626 59.9201 67.554C60.4656 67.4455 61.0311 67.5012 61.5451 67.7141C62.059 67.927 62.4982 68.2874 62.8073 68.75C63.1163 69.2125 63.2813 69.7562 63.2813 70.3125C63.2813 71.0584 62.9849 71.7738 62.4575 72.3012C61.9301 72.8287 61.2147 73.125 60.4688 73.125Z" fill="url(#paint2_linear_519_3277)"/>
<path d="M46.4063 76.1372V53.4375C46.4063 53.0645 46.2581 52.7069 45.9944 52.4431C45.7307 52.1794 45.373 52.0312 45 52.0312C44.6271 52.0312 44.2694 52.1794 44.0056 52.4431C43.7419 52.7069 43.5938 53.0645 43.5938 53.4375V76.1372C42.2682 76.4795 41.1129 77.2934 40.3445 78.4266C39.5761 79.5597 39.2473 80.9342 39.4198 82.2923C39.5924 83.6505 40.2543 84.8992 41.2816 85.8042C42.3088 86.7093 43.6309 87.2086 45 87.2086C46.3691 87.2086 47.6912 86.7093 48.7185 85.8042C49.7457 84.8992 50.4077 83.6505 50.5802 82.2923C50.7527 80.9342 50.4239 79.5597 49.6555 78.4266C48.8872 77.2934 47.7319 76.4795 46.4063 76.1372ZM45 84.375C44.4438 84.375 43.9 84.2101 43.4375 83.901C42.975 83.592 42.6145 83.1527 42.4016 82.6388C42.1887 82.1249 42.133 81.5594 42.2416 81.0138C42.3501 80.4682 42.6179 79.9671 43.0113 79.5738C43.4046 79.1804 43.9058 78.9126 44.4513 78.804C44.9969 78.6955 45.5624 78.7512 46.0763 78.9641C46.5902 79.177 47.0295 79.5374 47.3385 80C47.6476 80.4625 47.8125 81.0062 47.8125 81.5625C47.8125 82.3084 47.5162 83.0238 46.9888 83.5512C46.4613 84.0787 45.7459 84.375 45 84.375Z" fill="url(#paint3_linear_519_3277)"/>
<path d="M45 36.5625C43.3312 36.5625 41.6999 37.0574 40.3124 37.9845C38.9248 38.9116 37.8434 40.2294 37.2048 41.7711C36.5662 43.3129 36.3991 45.0094 36.7246 46.6461C37.0502 48.2828 37.8538 49.7862 39.0338 50.9662C40.2138 52.1462 41.7172 52.9498 43.3539 53.2754C44.9906 53.6009 46.6871 53.4338 48.2289 52.7952C49.7706 52.1566 51.0884 51.0752 52.0155 49.6876C52.9427 48.3001 53.4375 46.6688 53.4375 45C53.4353 42.7629 52.5456 40.6181 50.9637 39.0363C49.3819 37.4544 47.2371 36.5647 45 36.5625ZM45 50.625C43.8875 50.625 42.7999 50.2951 41.8749 49.677C40.9499 49.0589 40.2289 48.1804 39.8032 47.1526C39.3774 46.1248 39.266 44.9938 39.4831 43.9026C39.7001 42.8115 40.2359 41.8092 41.0225 41.0225C41.8092 40.2359 42.8115 39.7001 43.9026 39.4831C44.9938 39.266 46.1248 39.3774 47.1526 39.8032C48.1804 40.2289 49.0589 40.9499 49.677 41.8749C50.2951 42.7999 50.625 43.8875 50.625 45C50.625 46.4918 50.0324 47.9226 48.9775 48.9775C47.9226 50.0324 46.4918 50.625 45 50.625ZM43.5938 8.4375H46.4062V11.25H43.5938V8.4375ZM18.1477 20.1403L20.1361 18.1519L22.1245 20.1403L20.1361 22.1288L18.1477 20.1403ZM8.4375 43.5938H11.25V46.4062H8.4375V43.5938ZM78.75 43.5938H81.5625V46.4062H78.75V43.5938ZM67.8614 20.1445L69.8498 18.1561L71.8383 20.1445L69.8498 22.133L67.8614 20.1445Z" fill="url(#paint4_linear_519_3277)"/>
<defs>
<linearGradient id="paint0_linear_519_3277" x1="45" y1="2.8125" x2="45" y2="54.8438" gradientUnits="userSpaceOnUse">
<stop stop-color="#72C7D8"/>
<stop offset="0.489583" stop-color="#26519A"/>
<stop offset="1" stop-color="#41A575"/>
</linearGradient>
<linearGradient id="paint1_linear_519_3277" x1="45" y1="19.6875" x2="45" y2="87.2086" gradientUnits="userSpaceOnUse">
<stop stop-color="#72C7D8"/>
<stop offset="0.489583" stop-color="#26519A"/>
<stop offset="1" stop-color="#41A575"/>
</linearGradient>
<linearGradient id="paint2_linear_519_3277" x1="45" y1="28.125" x2="45" y2="75.9586" gradientUnits="userSpaceOnUse">
<stop stop-color="#72C7D8"/>
<stop offset="0.489583" stop-color="#26519A"/>
<stop offset="1" stop-color="#41A575"/>
</linearGradient>
<linearGradient id="paint3_linear_519_3277" x1="45" y1="52.0312" x2="45" y2="87.2086" gradientUnits="userSpaceOnUse">
<stop stop-color="#72C7D8"/>
<stop offset="0.489583" stop-color="#26519A"/>
<stop offset="1" stop-color="#41A575"/>
</linearGradient>
<linearGradient id="paint4_linear_519_3277" x1="45" y1="8.4375" x2="45" y2="53.4375" gradientUnits="userSpaceOnUse">
<stop stop-color="#72C7D8"/>
<stop offset="0.489583" stop-color="#26519A"/>
<stop offset="1" stop-color="#41A575"/>
</linearGradient>
</defs>
</svg>
