<svg width="90" height="90" viewBox="0 0 90 90" fill="none" xmlns="http://www.w3.org/2000/svg">
<g clip-path="url(#clip0_542_3151)">
<path d="M68.2503 0H8.25003C4.11001 0.00487502 0.754875 3.36001 0.75 7.50003V55.5002C0.749625 58.9212 3.06413 61.9086 6.37652 62.7633L7.12653 59.8592C6.15998 59.61 5.30372 59.0466 4.69247 58.2574C4.08122 57.4683 3.74968 56.4984 3.75001 55.5002V7.50003C3.75001 5.01471 5.76471 3.00001 8.25003 3.00001H68.2503C70.7356 3.00001 72.7503 5.01471 72.7503 7.50003V9.00004H75.7503V7.50003C75.7454 3.36001 72.3903 0.00487502 68.2503 0Z" fill="url(#paint0_linear_542_3151)"/>
<path d="M6.75 6H9.75001V9.00001H6.75V6ZM12.75 6H15.75V9.00001H12.75V6ZM18.75 6H21.7501V9.00001H18.75V6ZM88.8108 82.9398L74.5833 68.7123C75.3307 67.3782 75.9283 65.9656 76.3653 64.5002H78.7503V61.5002H77.0103C77.5753 57.8693 77.1396 54.153 75.7503 50.7512V36.0001H72.7503V45.5522C71.8595 44.4142 70.8542 43.3707 69.7503 42.4382V30.0001H66.7502V40.3411C65.7899 39.7846 64.7868 39.3056 63.7502 38.9086V24.0001H60.7502V37.9981C59.7618 37.7848 58.7591 37.6439 57.7502 37.5766V27.0001H54.7502V37.5766C53.7413 37.6439 52.7386 37.7848 51.7502 37.9981V33.0001H48.7502V38.9086C47.7137 39.3056 46.7105 39.7846 45.7502 40.3411V31.5001H42.7501V42.4382C41.6462 43.3707 40.6409 44.4142 39.7501 45.5522V34.5001H36.7501V50.7512C35.3608 54.153 34.9251 57.8693 35.4901 61.5002H15.75V64.5002H36.1351C39.425 75.5969 51.0876 81.9254 62.184 78.6356C64.3707 77.9872 66.437 76.9863 68.3013 75.6723L82.1898 89.5609C82.4711 89.8421 82.8526 90 83.2503 90C83.6481 90 84.0295 89.8421 84.3108 89.5609L88.8108 85.0608C89.092 84.7795 89.25 84.3981 89.25 84.0003C89.25 83.6026 89.092 83.2211 88.8108 82.9398ZM56.2502 76.5003C46.3134 76.4896 38.2608 68.437 38.2501 58.5002C38.2501 48.5591 46.3091 40.5001 56.2502 40.5001C66.1913 40.5001 74.2503 48.5591 74.2503 58.5002C74.2503 68.4413 66.1913 76.5003 56.2502 76.5003ZM83.2503 86.3793L70.6323 73.7613C71.4498 72.9888 72.2046 72.1527 72.8898 71.2608L85.6293 84.0003L83.2503 86.3793Z" fill="url(#paint1_linear_542_3151)"/>
<path d="M56.2501 43.5002C47.9657 43.5002 41.25 50.2159 41.25 58.5002C41.25 66.7846 47.9657 73.5003 56.2501 73.5003C64.5344 73.5003 71.2501 66.7846 71.2501 58.5002C71.2411 50.2196 64.5307 43.5092 56.2501 43.5002ZM56.2501 70.5003C54.1462 70.4976 52.08 69.9419 50.2587 68.8888C48.4374 67.8357 46.9249 66.3223 45.873 64.5003H66.6271C65.5752 66.3223 64.0627 67.8357 62.2414 68.8888C60.4201 69.9419 58.3539 70.4976 56.2501 70.5003ZM44.6445 61.5003C43.4376 56.9327 45.0491 52.084 48.75 49.1477V58.5002H51.75V47.3837C52.7119 46.9945 53.7204 46.7323 54.7501 46.6037V58.5002H57.7501V46.6037C58.7797 46.7323 59.7882 46.9945 60.7501 47.3837V58.5002H63.7501V49.1477C67.451 52.084 69.0626 56.9327 67.8556 61.5003H44.6445Z" fill="url(#paint2_linear_542_3151)"/>
<path d="M77.2503 12.0001H17.25C13.11 12.0049 9.75488 15.3601 9.75 19.5001V67.5003C9.75488 71.6403 13.11 74.9955 17.25 75.0003H36.7501V72.0003H17.25C14.7647 72.0003 12.75 69.9856 12.75 67.5003V19.5001C12.75 17.0148 14.7647 15.0001 17.25 15.0001H77.2503C79.7356 15.0001 81.7503 17.0148 81.7503 19.5001V67.5003C81.7501 68.5962 81.3501 69.6544 80.6253 70.4763L82.8753 72.4608C84.0843 71.0913 84.7511 69.3271 84.7503 67.5003V19.5001C84.7454 15.3601 81.3903 12.0049 77.2503 12.0001Z" fill="url(#paint3_linear_542_3151)"/>
<path d="M15.75 18.0001H18.75V21.0001H15.75V18.0001ZM21.75 18.0001H24.75V21.0001H21.75V18.0001ZM27.7501 18.0001H30.7501V21.0001H27.7501V18.0001ZM18.75 49.5002H21.75V58.5002H18.75V49.5002ZM24.75 40.5002H27.7501V58.5002H24.75V40.5002ZM30.7501 45.0002H33.7501V58.5002H30.7501V45.0002Z" fill="url(#paint4_linear_542_3151)"/>
</g>
<defs>
<linearGradient id="paint0_linear_542_3151" x1="38.2502" y1="0" x2="38.2502" y2="62.7633" gradientUnits="userSpaceOnUse">
<stop stop-color="#72C7D8"/>
<stop offset="0.489583" stop-color="#26519A"/>
<stop offset="1" stop-color="#41A575"/>
</linearGradient>
<linearGradient id="paint1_linear_542_3151" x1="48" y1="6" x2="48" y2="90" gradientUnits="userSpaceOnUse">
<stop stop-color="#72C7D8"/>
<stop offset="0.489583" stop-color="#26519A"/>
<stop offset="1" stop-color="#41A575"/>
</linearGradient>
<linearGradient id="paint2_linear_542_3151" x1="56.2501" y1="43.5002" x2="56.2501" y2="73.5003" gradientUnits="userSpaceOnUse">
<stop stop-color="#72C7D8"/>
<stop offset="0.489583" stop-color="#26519A"/>
<stop offset="1" stop-color="#41A575"/>
</linearGradient>
<linearGradient id="paint3_linear_542_3151" x1="47.2502" y1="12.0001" x2="47.2502" y2="75.0003" gradientUnits="userSpaceOnUse">
<stop stop-color="#72C7D8"/>
<stop offset="0.489583" stop-color="#26519A"/>
<stop offset="1" stop-color="#41A575"/>
</linearGradient>
<linearGradient id="paint4_linear_542_3151" x1="24.75" y1="18.0001" x2="24.75" y2="58.5002" gradientUnits="userSpaceOnUse">
<stop stop-color="#72C7D8"/>
<stop offset="0.489583" stop-color="#26519A"/>
<stop offset="1" stop-color="#41A575"/>
</linearGradient>
<clipPath id="clip0_542_3151">
<rect width="90" height="90" fill="white"/>
</clipPath>
</defs>
</svg>
