<svg width="90" height="90" viewBox="0 0 90 90" fill="none" xmlns="http://www.w3.org/2000/svg">
<path d="M58.7676 34.367C58.5662 34.367 58.3671 34.3238 58.1838 34.2401C58.0005 34.1565 57.8374 34.0344 57.7053 33.8823C57.5733 33.7301 57.4756 33.5513 57.4186 33.3581C57.3617 33.1648 57.347 32.9616 57.3755 32.7622C58.7958 22.7707 53.4925 20.5401 53.4397 20.519C47.5247 18.1477 42.7522 18.0581 39.2489 20.2782C33.4007 23.9696 32.7626 32.9573 32.7573 33.0469C32.7398 33.3272 32.6388 33.5958 32.4673 33.8182C32.2958 34.0406 32.0617 34.2065 31.7951 34.2947C31.5284 34.3828 31.2415 34.3891 30.9712 34.3127C30.701 34.2363 30.4598 34.0807 30.2788 33.8661C25.6786 28.4168 24.7294 22.1151 27.6069 16.1455C31.0346 9.03696 39.3491 3.84086 46.9639 4.05004C52.3727 4.19946 56.5757 7.03832 58.8626 12.0393C61.8965 13.2803 63.8178 15.293 64.5772 18.0159C66.495 24.9135 59.9278 33.7553 59.8592 33.8362C59.7285 34.0006 59.5626 34.1336 59.3737 34.2255C59.1848 34.3173 58.9777 34.3657 58.7676 34.367ZM46.5175 6.85551C40.1454 6.85551 33.0122 11.41 30.1399 17.3672C28.7337 20.2922 27.8249 24.562 30.5161 29.3204C31.3194 25.868 33.2337 20.7493 37.7337 17.8946C42.0456 15.1647 47.6794 15.1647 54.4821 17.8946C54.7282 17.993 59.5798 20.0198 60.3321 27.4922C61.5942 24.7623 62.6173 21.3786 61.8508 18.7032C61.2831 16.7344 59.803 15.3422 57.3298 14.4475C57.1465 14.381 56.979 14.2772 56.8379 14.1425C56.6969 14.0078 56.5855 13.8453 56.5106 13.6653C54.2378 8.20199 50.0208 6.94867 46.8848 6.85551H46.5175Z" fill="url(#paint0_linear_539_2710)"/>
<path d="M45.0596 48.3661C38.6506 48.3661 33.0256 42.7675 30.0145 33.3896C29.958 33.2136 29.9368 33.0282 29.952 32.8439C29.9673 32.6597 30.0186 32.4803 30.1032 32.3159C30.1877 32.1516 30.3038 32.0055 30.4448 31.886C30.5858 31.7665 30.749 31.6759 30.925 31.6195C31.2805 31.5055 31.6667 31.5374 31.9987 31.7081C32.163 31.7927 32.3091 31.9088 32.4287 32.0498C32.5482 32.1908 32.6387 32.354 32.6952 32.53C35.3143 40.6845 39.9373 45.5536 45.0631 45.5536C50.1889 45.5536 54.8137 40.6845 57.4311 32.53C57.5462 32.1752 57.7976 31.8807 58.1299 31.7113C58.4622 31.5418 58.8482 31.5113 59.203 31.6265C59.5577 31.7417 59.8522 31.993 60.0217 32.3253C60.1911 32.6576 60.2216 33.0436 60.1065 33.3984C57.0953 42.7658 51.4703 48.3661 45.0596 48.3661Z" fill="url(#paint1_linear_539_2710)"/>
<path d="M35.626 51.3476C35.253 51.3476 34.8953 51.1994 34.6316 50.9357C34.3679 50.672 34.2197 50.3143 34.2197 49.9414V41.532C34.2197 41.159 34.3679 40.8013 34.6316 40.5376C34.8953 40.2739 35.253 40.1257 35.626 40.1257C35.9989 40.1257 36.3566 40.2739 36.6203 40.5376C36.8841 40.8013 37.0322 41.159 37.0322 41.532V49.9414C37.0322 50.3143 36.8841 50.672 36.6203 50.9357C36.3566 51.1994 35.9989 51.3476 35.626 51.3476ZM54.3748 51.3476C54.0018 51.3476 53.6442 51.1994 53.3804 50.9357C53.1167 50.672 52.9686 50.3143 52.9686 49.9414V41.6796C52.9686 41.3067 53.1167 40.949 53.3804 40.6853C53.6442 40.4215 54.0018 40.2734 54.3748 40.2734C54.7478 40.2734 55.1054 40.4215 55.3692 40.6853C55.6329 40.949 55.7811 41.3067 55.7811 41.6796V49.9414C55.7811 50.3143 55.6329 50.672 55.3692 50.9357C55.1054 51.1994 54.7478 51.3476 54.3748 51.3476Z" fill="url(#paint2_linear_539_2710)"/>
<path d="M25.6641 85.9572C25.2911 85.9572 24.9334 85.809 24.6697 85.5453C24.406 85.2816 24.2578 84.9239 24.2578 84.5509V74.6667C24.2578 74.2938 24.406 73.9361 24.6697 73.6724C24.9334 73.4087 25.2911 73.2605 25.6641 73.2605C26.037 73.2605 26.3947 73.4087 26.6584 73.6724C26.9222 73.9361 27.0703 74.2938 27.0703 74.6667V84.5509C27.0703 84.9239 26.9222 85.2816 26.6584 85.5453C26.3947 85.809 26.037 85.9572 25.6641 85.9572Z" fill="url(#paint3_linear_539_2710)"/>
<path d="M64.3359 85.9572C63.963 85.9572 63.6053 85.809 63.3416 85.5453C63.0778 85.2816 62.9297 84.9239 62.9297 84.5509V74.6667C62.9297 74.2938 63.0778 73.9361 63.3416 73.6724C63.6053 73.4087 63.963 73.2605 64.3359 73.2605C64.7089 73.2605 65.0666 73.4087 65.3303 73.6724C65.594 73.9361 65.7422 74.2938 65.7422 74.6667V84.5509C65.7422 84.9239 65.594 85.2816 65.3303 85.5453C65.0666 85.809 64.7089 85.9572 64.3359 85.9572Z" fill="url(#paint4_linear_539_2710)"/>
<path d="M72.2973 85.9571H17.7031C17.3302 85.9571 16.9725 85.8089 16.7088 85.5452C16.445 85.2815 16.2969 84.9238 16.2969 84.5508V63.2813C16.3034 59.3737 17.8585 55.6281 20.6216 52.865C23.3847 50.1019 27.1303 48.5468 31.0379 48.5403H35.6258C35.9987 48.5403 36.3564 48.6884 36.6202 48.9522C36.8839 49.2159 37.032 49.5736 37.032 49.9465C37.032 50.3195 36.8839 50.6772 36.6202 50.9409C36.3564 51.2046 35.9987 51.3528 35.6258 51.3528H31.0379C27.8753 51.356 24.8431 52.6138 22.6068 54.8502C20.3704 57.0865 19.1126 60.1187 19.1094 63.2813V83.1446H70.891V63.2813C70.8878 60.1187 69.63 57.0865 67.3936 54.8502C65.1573 52.6138 62.1251 51.356 58.9625 51.3528H54.3746C54.0016 51.3528 53.644 51.2046 53.3802 50.9409C53.1165 50.6772 52.9684 50.3195 52.9684 49.9465C52.9684 49.5736 53.1165 49.2159 53.3802 48.9522C53.644 48.6884 54.0016 48.5403 54.3746 48.5403H58.9625C62.8701 48.5468 66.6157 50.1019 69.3788 52.865C72.1418 55.6281 73.697 59.3737 73.7035 63.2813V84.5508C73.7035 84.9238 73.5554 85.2815 73.2916 85.5452C73.0279 85.8089 72.6702 85.9571 72.2973 85.9571Z" fill="url(#paint5_linear_539_2710)"/>
<path d="M52.9102 63.5274C52.6635 63.5286 52.4209 63.4643 52.2071 63.341L44.297 58.8059C44.0991 58.6925 43.9317 58.5326 43.8093 58.3401C43.687 58.1476 43.6133 57.9283 43.5946 57.7009C43.5759 57.4736 43.6128 57.2451 43.7021 57.0352C43.7914 56.8253 43.9304 56.6403 44.1071 56.4961L53.4815 48.8514C53.7527 48.6302 54.0966 48.5181 54.4461 48.537C54.7955 48.5558 55.1254 48.7043 55.3712 48.9533L59.1083 52.7344C59.3299 52.9588 59.4696 53.2512 59.5049 53.5646C59.5403 53.878 59.4694 54.1941 59.3034 54.4623L54.1038 62.8594C53.9781 63.0631 53.8026 63.2314 53.5937 63.3483C53.3848 63.4652 53.1496 63.5268 52.9102 63.5274ZM47.4768 57.3838L52.4321 60.2244L56.3327 53.9244L54.2761 51.8397L47.4768 57.3838Z" fill="url(#paint6_linear_539_2710)"/>
<path d="M37.0905 63.5274C36.8507 63.5276 36.6149 63.4665 36.4053 63.3499C36.1958 63.2333 36.0196 63.065 35.8934 62.8611L30.6938 54.4641C30.5279 54.1959 30.4569 53.8797 30.4923 53.5663C30.5277 53.253 30.6674 52.9606 30.8889 52.7362L34.6296 48.9533C34.8754 48.7043 35.2052 48.5558 35.5547 48.537C35.9041 48.5181 36.248 48.6302 36.5192 48.8514L45.8936 56.4961C46.0704 56.6403 46.2094 56.8253 46.2987 57.0352C46.388 57.2451 46.4249 57.4736 46.4062 57.7009C46.3875 57.9283 46.3138 58.1476 46.1914 58.3401C46.069 58.5326 45.9017 58.6925 45.7038 58.8059L37.7936 63.341C37.5799 63.4643 37.3372 63.5286 37.0905 63.5274ZM33.668 53.9244L37.5686 60.2244L42.5239 57.3838L35.7247 51.8397L33.668 53.9244Z" fill="url(#paint7_linear_539_2710)"/>
<path d="M48.322 67.9887H41.6775C41.3587 67.9886 41.0493 67.8802 40.8002 67.6812C40.5511 67.4822 40.3769 67.2045 40.3064 66.8936L38.8843 60.6182C38.8392 60.4366 38.8307 60.2478 38.8594 60.0629C38.8882 59.878 38.9535 59.7007 39.0516 59.5414C39.1497 59.3821 39.2786 59.244 39.4308 59.1351C39.583 59.0262 39.7554 58.9488 39.9378 58.9074C40.1203 58.866 40.3092 58.8614 40.4934 58.894C40.6777 58.9265 40.8536 58.9955 41.0109 59.0968C41.1682 59.1982 41.3036 59.3299 41.4093 59.4843C41.515 59.6387 41.5889 59.8126 41.6265 59.9959L42.8007 65.1762H47.1953L48.3695 59.9959C48.4071 59.8126 48.481 59.6387 48.5867 59.4843C48.6924 59.3299 48.8279 59.1982 48.9851 59.0968C49.1424 58.9955 49.3183 58.9265 49.5026 58.894C49.6868 58.8614 49.8757 58.866 50.0582 58.9074C50.2407 58.9488 50.413 59.0262 50.5652 59.1351C50.7174 59.244 50.8463 59.3821 50.9444 59.5414C51.0425 59.7007 51.1078 59.878 51.1366 60.0629C51.1653 60.2478 51.1568 60.4366 51.1117 60.6182L49.6896 66.8936C49.6192 67.2039 49.4456 67.4812 49.1972 67.6801C48.9488 67.879 48.6403 67.9878 48.322 67.9887Z" fill="url(#paint8_linear_539_2710)"/>
<path d="M49.314 81.248C48.9592 81.249 48.617 81.1159 48.3562 80.8753C48.0954 80.6347 47.9352 80.3044 47.9077 79.9507L46.9726 67.9888H43.0175L42.0823 79.9507C42.068 80.1354 42.0175 80.3154 41.9336 80.4805C41.8497 80.6457 41.7341 80.7927 41.5934 80.9131C41.4527 81.0336 41.2896 81.1252 41.1136 81.1826C40.9375 81.2401 40.7518 81.2623 40.5671 81.248C40.3824 81.2336 40.2024 81.1831 40.0373 81.0992C39.8721 81.0153 39.7251 80.8997 39.6047 80.759C39.4842 80.6183 39.3926 80.4553 39.3352 80.2792C39.2777 80.1031 39.2555 79.9174 39.2698 79.7327L40.307 66.4735C40.3345 66.1198 40.4947 65.7895 40.7555 65.5489C41.0163 65.3083 41.3584 65.1752 41.7132 65.1763H48.2698C48.6247 65.1752 48.9668 65.3083 49.2276 65.5489C49.4884 65.7895 49.6486 66.1198 49.6761 66.4735L50.7132 79.7327C50.7276 79.917 50.7056 80.1022 50.6483 80.2779C50.5911 80.4536 50.4998 80.6163 50.3796 80.7567C50.2595 80.8971 50.1128 81.0124 49.9481 81.0961C49.7833 81.1798 49.6037 81.2302 49.4195 81.2444L49.314 81.248Z" fill="url(#paint9_linear_539_2710)"/>
<path d="M44.9999 85.9571C44.8047 85.9571 44.6118 85.9164 44.4332 85.8377C44.2547 85.759 44.0945 85.644 43.9628 85.5001L26.0524 65.9497C25.8118 65.6868 25.68 65.3424 25.6836 64.9861C25.6872 64.6298 25.8259 64.2881 26.0717 64.0302L28.4325 61.5534L25.3704 59.6743C25.1178 59.5197 24.9205 59.2893 24.8065 59.016C24.6926 58.7426 24.6678 58.4403 24.7358 58.152L26.6694 49.9571C26.7119 49.7773 26.7894 49.6076 26.8974 49.4577C27.0055 49.3078 27.142 49.1807 27.2992 49.0836C27.4564 48.9865 27.6311 48.9213 27.8135 48.8917C27.9959 48.8621 28.1823 48.8687 28.3622 48.9112C28.542 48.9537 28.7117 49.0312 28.8616 49.1392C29.0115 49.2473 29.1386 49.3838 29.2357 49.541C29.3328 49.6982 29.398 49.873 29.4276 50.0553C29.4572 50.2377 29.4505 50.4242 29.4081 50.604L27.7083 57.811L31.3874 60.0663C31.5646 60.1762 31.7151 60.3242 31.8281 60.4995C31.941 60.6747 32.0136 60.873 32.0405 61.0797C32.0675 61.2865 32.0481 61.4967 31.9837 61.6951C31.9194 61.8934 31.8118 62.075 31.6686 62.2266L29.0143 65.0128L46.037 83.6016C46.2211 83.8029 46.3427 84.0534 46.387 84.3225C46.4313 84.5917 46.3964 84.8679 46.2864 85.1175C46.1765 85.3672 45.9964 85.5795 45.7679 85.7285C45.5395 85.8776 45.2726 85.957 44.9999 85.9571Z" fill="url(#paint10_linear_539_2710)"/>
<path d="M45.0005 85.9571C44.7278 85.957 44.4609 85.8776 44.2325 85.7285C44.004 85.5795 43.8239 85.3672 43.714 85.1175C43.604 84.8679 43.5691 84.5917 43.6134 84.3225C43.6577 84.0534 43.7793 83.8029 43.9634 83.6016L60.9861 65.0198L58.3318 62.2266C58.1871 62.0748 58.0782 61.8926 58.013 61.6932C57.9479 61.4939 57.9282 61.2825 57.9553 61.0745C57.9824 60.8665 58.0557 60.6673 58.1698 60.4913C58.284 60.3153 58.436 60.1671 58.6148 60.0575L62.2939 57.8022L60.5941 50.5952C60.5516 50.4154 60.545 50.2289 60.5745 50.0466C60.6041 49.8642 60.6693 49.6894 60.7664 49.5322C60.8636 49.375 60.9907 49.2385 61.1406 49.1304C61.2905 49.0224 61.4602 48.9449 61.64 48.9024C61.8198 48.86 62.0062 48.8533 62.1886 48.8829C62.371 48.9125 62.5458 48.9777 62.703 49.0748C62.8602 49.1719 62.9967 49.299 63.1047 49.4489C63.2128 49.5988 63.2903 49.7685 63.3328 49.9483L65.2664 58.1432C65.3343 58.4315 65.3096 58.7338 65.1956 59.0072C65.0817 59.2805 64.8844 59.5109 64.6318 59.6655L61.5697 61.5446L63.9304 64.0214C64.1762 64.2793 64.315 64.621 64.3186 64.9773C64.3221 65.3336 64.1903 65.678 63.9497 65.9409L46.0376 85.5001C45.9059 85.644 45.7457 85.759 45.5672 85.8377C45.3886 85.9164 45.1956 85.9571 45.0005 85.9571Z" fill="url(#paint11_linear_539_2710)"/>
<defs>
<linearGradient id="paint0_linear_539_2710" x1="45.4513" y1="4.04395" x2="45.4513" y2="34.367" gradientUnits="userSpaceOnUse">
<stop stop-color="#72C7D8"/>
<stop offset="0.489583" stop-color="#26519A"/>
<stop offset="1" stop-color="#41A575"/>
</linearGradient>
<linearGradient id="paint1_linear_539_2710" x1="45.0612" y1="31.5522" x2="45.0612" y2="48.3661" gradientUnits="userSpaceOnUse">
<stop stop-color="#72C7D8"/>
<stop offset="0.489583" stop-color="#26519A"/>
<stop offset="1" stop-color="#41A575"/>
</linearGradient>
<linearGradient id="paint2_linear_539_2710" x1="45.0004" y1="40.1257" x2="45.0004" y2="51.3476" gradientUnits="userSpaceOnUse">
<stop stop-color="#72C7D8"/>
<stop offset="0.489583" stop-color="#26519A"/>
<stop offset="1" stop-color="#41A575"/>
</linearGradient>
<linearGradient id="paint3_linear_539_2710" x1="25.6641" y1="73.2605" x2="25.6641" y2="85.9572" gradientUnits="userSpaceOnUse">
<stop stop-color="#72C7D8"/>
<stop offset="0.489583" stop-color="#26519A"/>
<stop offset="1" stop-color="#41A575"/>
</linearGradient>
<linearGradient id="paint4_linear_539_2710" x1="64.3359" y1="73.2605" x2="64.3359" y2="85.9572" gradientUnits="userSpaceOnUse">
<stop stop-color="#72C7D8"/>
<stop offset="0.489583" stop-color="#26519A"/>
<stop offset="1" stop-color="#41A575"/>
</linearGradient>
<linearGradient id="paint5_linear_539_2710" x1="45.0002" y1="48.5403" x2="45.0002" y2="85.9571" gradientUnits="userSpaceOnUse">
<stop stop-color="#72C7D8"/>
<stop offset="0.489583" stop-color="#26519A"/>
<stop offset="1" stop-color="#41A575"/>
</linearGradient>
<linearGradient id="paint6_linear_539_2710" x1="51.5518" y1="48.5349" x2="51.5518" y2="63.5274" gradientUnits="userSpaceOnUse">
<stop stop-color="#72C7D8"/>
<stop offset="0.489583" stop-color="#26519A"/>
<stop offset="1" stop-color="#41A575"/>
</linearGradient>
<linearGradient id="paint7_linear_539_2710" x1="38.4471" y1="48.5349" x2="38.4471" y2="63.5274" gradientUnits="userSpaceOnUse">
<stop stop-color="#72C7D8"/>
<stop offset="0.489583" stop-color="#26519A"/>
<stop offset="1" stop-color="#41A575"/>
</linearGradient>
<linearGradient id="paint8_linear_539_2710" x1="44.998" y1="58.8726" x2="44.998" y2="67.9887" gradientUnits="userSpaceOnUse">
<stop stop-color="#72C7D8"/>
<stop offset="0.489583" stop-color="#26519A"/>
<stop offset="1" stop-color="#41A575"/>
</linearGradient>
<linearGradient id="paint9_linear_539_2710" x1="44.9916" y1="65.1763" x2="44.9916" y2="81.2522" gradientUnits="userSpaceOnUse">
<stop stop-color="#72C7D8"/>
<stop offset="0.489583" stop-color="#26519A"/>
<stop offset="1" stop-color="#41A575"/>
</linearGradient>
<linearGradient id="paint10_linear_539_2710" x1="35.552" y1="48.8735" x2="35.552" y2="85.9571" gradientUnits="userSpaceOnUse">
<stop stop-color="#72C7D8"/>
<stop offset="0.489583" stop-color="#26519A"/>
<stop offset="1" stop-color="#41A575"/>
</linearGradient>
<linearGradient id="paint11_linear_539_2710" x1="54.4493" y1="48.8647" x2="54.4493" y2="85.9571" gradientUnits="userSpaceOnUse">
<stop stop-color="#72C7D8"/>
<stop offset="0.489583" stop-color="#26519A"/>
<stop offset="1" stop-color="#41A575"/>
</linearGradient>
</defs>
</svg>
