<svg width="90" height="90" viewBox="0 0 90 90" fill="none" xmlns="http://www.w3.org/2000/svg">
<path d="M77.3442 43.6922V35.1562C77.3442 26.5782 73.9365 18.3514 67.8709 12.2858C61.8053 6.22013 53.5785 2.8125 45.0004 2.8125C36.4223 2.8125 28.1956 6.22013 22.1299 12.2858C16.0643 18.3514 12.6567 26.5782 12.6567 35.1562V43.6922C9.8331 44.0677 7.25708 45.5002 5.44847 47.7008C3.63986 49.9013 2.73331 52.706 2.91177 55.5488C3.09022 58.3917 4.3404 61.061 6.41001 63.0181C8.47961 64.9751 11.2146 66.0743 14.0629 66.0938H23.9067C24.2796 66.0938 24.6373 65.9456 24.901 65.6819C25.1647 65.4181 25.3129 65.0605 25.3129 64.6875V45C25.3129 44.627 25.1647 44.2694 24.901 44.0056C24.6373 43.7419 24.2796 43.5938 23.9067 43.5938H21.0942V35.1562C21.0942 28.8159 23.6128 22.7353 28.0961 18.252C32.5794 13.7687 38.6601 11.25 45.0004 11.25C51.3407 11.25 57.4214 13.7687 61.9047 18.252C66.388 22.7353 68.9067 28.8159 68.9067 35.1562V43.5938H66.0942C65.7212 43.5938 65.3635 43.7419 65.0998 44.0056C64.8361 44.2694 64.6879 44.627 64.6879 45V64.6875C64.6879 65.0605 64.8361 65.4181 65.0998 65.6819C65.3635 65.9456 65.7212 66.0938 66.0942 66.0938H71.7192V74.5312C71.7192 76.3961 70.9784 78.1845 69.6597 79.5031C68.3411 80.8217 66.5527 81.5625 64.6879 81.5625H51.7785C51.4866 80.743 50.9494 80.0334 50.2398 79.5301C49.5302 79.0269 48.6828 78.7545 47.8129 78.75H42.1879C41.069 78.75 39.996 79.1945 39.2048 79.9856C38.4136 80.7768 37.9692 81.8499 37.9692 82.9688C37.9692 84.0876 38.4136 85.1607 39.2048 85.9519C39.996 86.743 41.069 87.1875 42.1879 87.1875H47.8129C48.6828 87.183 49.5302 86.9106 50.2398 86.4074C50.9494 85.9041 51.4866 85.1945 51.7785 84.375H64.6879C67.2977 84.372 69.7998 83.334 71.6452 81.4885C73.4906 79.6431 74.5287 77.1411 74.5317 74.5312V66.0938H75.9379C78.7863 66.0743 81.5212 64.9751 83.5908 63.0181C85.6604 61.061 86.9106 58.3917 87.089 55.5488C87.2675 52.706 86.361 49.9013 84.5523 47.7008C82.7437 45.5002 80.1677 44.0677 77.3442 43.6922ZM47.8129 84.375H42.1879C41.8149 84.375 41.4573 84.2268 41.1935 83.9631C40.9298 83.6994 40.7817 83.3417 40.7817 82.9688C40.7817 82.5958 40.9298 82.2381 41.1935 81.9744C41.4573 81.7107 41.8149 81.5625 42.1879 81.5625H47.8129C48.1859 81.5625 48.5436 81.7107 48.8073 81.9744C49.071 82.2381 49.2192 82.5958 49.2192 82.9688C49.2192 83.3417 49.071 83.6994 48.8073 83.9631C48.5436 84.2268 48.1859 84.375 47.8129 84.375ZM15.4692 63.2812H14.0629C11.8251 63.2812 9.67903 62.3923 8.09669 60.81C6.51435 59.2276 5.62541 57.0815 5.62541 54.8438C5.62541 52.606 6.51435 50.4599 8.09669 48.8775C9.67903 47.2952 11.8251 46.4063 14.0629 46.4062H15.4692V63.2812ZM15.4692 37.9688H18.2817V43.5938H15.4692V37.9688ZM22.5004 46.4062V63.2812H18.2817V46.4062H22.5004ZM45.0004 8.4375C37.9161 8.44383 31.1238 11.2609 26.1144 16.2702C21.105 21.2796 18.288 28.0719 18.2817 35.1562H15.4692C15.4692 27.3241 18.5805 19.8127 24.1187 14.2745C29.6568 8.73632 37.1682 5.625 45.0004 5.625C52.8326 5.625 60.344 8.73632 65.8822 14.2745C71.4203 19.8127 74.5317 27.3241 74.5317 35.1562H71.7192C71.7128 28.0719 68.8958 21.2796 63.8864 16.2702C58.8771 11.2609 52.0847 8.44383 45.0004 8.4375ZM71.7192 63.2812H67.5004V46.4062H71.7192V63.2812ZM71.7192 43.5938V37.9688H74.5317V43.5938H71.7192ZM75.9379 63.2812H74.5317V46.4062H75.9379C78.1757 46.4063 80.3218 47.2952 81.9041 48.8775C83.4865 50.4599 84.3754 52.606 84.3754 54.8438C84.3754 57.0815 83.4865 59.2276 81.9041 60.81C80.3218 62.3923 78.1757 63.2812 75.9379 63.2812Z" fill="url(#paint0_linear_542_2809)"/>
<path d="M54.8438 22.5H35.1562C33.2914 22.5 31.503 23.2408 30.1844 24.5594C28.8658 25.878 28.125 27.6664 28.125 29.5312V56.25C28.125 58.1148 28.8658 59.9032 30.1844 61.2218C31.503 62.5405 33.2914 63.2812 35.1562 63.2812H37.9688V71.7188C37.9693 71.9893 38.0479 72.2539 38.195 72.4808C38.3422 72.7078 38.5517 72.8875 38.7984 72.9984C39.044 73.111 39.3171 73.1496 39.5842 73.1097C39.8514 73.0697 40.1012 72.9529 40.3031 72.7734L51.1594 63.2812H54.8438C56.7086 63.2812 58.497 62.5405 59.8156 61.2218C61.1342 59.9032 61.875 58.1148 61.875 56.25V29.5312C61.875 27.6664 61.1342 25.878 59.8156 24.5594C58.497 23.2408 56.7086 22.5 54.8438 22.5ZM59.0625 56.25C59.0592 57.3679 58.6136 58.439 57.8232 59.2294C57.0327 60.0199 55.9616 60.4654 54.8438 60.4688H50.625C50.2832 60.4692 49.9532 60.5942 49.6969 60.8203L40.7812 68.625V61.875C40.7812 61.502 40.6331 61.1444 40.3694 60.8806C40.1056 60.6169 39.748 60.4688 39.375 60.4688H35.1562C34.0384 60.4654 32.9673 60.0199 32.1768 59.2294C31.3864 58.439 30.9408 57.3679 30.9375 56.25V29.5312C30.9408 28.4134 31.3864 27.3423 32.1768 26.5518C32.9673 25.7614 34.0384 25.3158 35.1562 25.3125H54.8438C55.9616 25.3158 57.0327 25.7614 57.8232 26.5518C58.6136 27.3423 59.0592 28.4134 59.0625 29.5312V56.25Z" fill="url(#paint1_linear_542_2809)"/>
<path d="M45 39.375C45.8344 39.375 46.65 39.1276 47.3438 38.664C48.0376 38.2005 48.5783 37.5416 48.8976 36.7707C49.2169 35.9998 49.3005 35.1516 49.1377 34.3332C48.9749 33.5149 48.5731 32.7631 47.9831 32.1731C47.3931 31.5831 46.6414 31.1813 45.823 31.0186C45.0047 30.8558 44.1564 30.9393 43.3856 31.2586C42.6147 31.5779 41.9558 32.1187 41.4922 32.8124C41.0287 33.5062 40.7812 34.3219 40.7812 35.1563C40.7813 36.2751 41.2257 37.3482 42.0169 38.1394C42.8081 38.9305 43.8811 39.375 45 39.375ZM45 33.75C45.2781 33.75 45.55 33.8325 45.7813 33.987C46.0125 34.1415 46.1928 34.3611 46.2992 34.6181C46.4056 34.8751 46.4335 35.1578 46.3792 35.4306C46.325 35.7034 46.191 35.954 45.9944 36.1506C45.7977 36.3473 45.5471 36.4812 45.2743 36.5355C45.0016 36.5897 44.7188 36.5619 44.4619 36.4555C44.2049 36.349 43.9853 36.1688 43.8307 35.9375C43.6762 35.7063 43.5938 35.4344 43.5938 35.1563C43.5938 34.7833 43.7419 34.4256 44.0056 34.1619C44.2694 33.8982 44.627 33.75 45 33.75ZM50.625 54.8438H49.2188V42.1875C49.2188 41.8145 49.0706 41.4569 48.8069 41.1931C48.5431 40.9294 48.1855 40.7813 47.8125 40.7813H39.375C39.002 40.7813 38.6444 40.9294 38.3806 41.1931C38.1169 41.4569 37.9688 41.8145 37.9688 42.1875C37.9688 42.5605 38.1169 42.9181 38.3806 43.1819C38.6444 43.4456 39.002 43.5938 39.375 43.5938H40.7812V54.8438H39.375C39.002 54.8438 38.6444 54.9919 38.3806 55.2556C38.1169 55.5194 37.9688 55.877 37.9688 56.25C37.9688 56.623 38.1169 56.9806 38.3806 57.2444C38.6444 57.5081 39.002 57.6563 39.375 57.6563H50.625C50.998 57.6563 51.3556 57.5081 51.6194 57.2444C51.8831 56.9806 52.0312 56.623 52.0312 56.25C52.0312 55.877 51.8831 55.5194 51.6194 55.2556C51.3556 54.9919 50.998 54.8438 50.625 54.8438ZM46.4062 54.8438H43.5938V43.5938H46.4062V54.8438Z" fill="url(#paint2_linear_542_2809)"/>
<defs>
<linearGradient id="paint0_linear_542_2809" x1="45.0004" y1="2.8125" x2="45.0004" y2="87.1875" gradientUnits="userSpaceOnUse">
<stop stop-color="#72C7D8"/>
<stop offset="0.489583" stop-color="#26519A"/>
<stop offset="1" stop-color="#41A575"/>
</linearGradient>
<linearGradient id="paint1_linear_542_2809" x1="45" y1="22.5" x2="45" y2="73.125" gradientUnits="userSpaceOnUse">
<stop stop-color="#72C7D8"/>
<stop offset="0.489583" stop-color="#26519A"/>
<stop offset="1" stop-color="#41A575"/>
</linearGradient>
<linearGradient id="paint2_linear_542_2809" x1="45" y1="30.9375" x2="45" y2="57.6563" gradientUnits="userSpaceOnUse">
<stop stop-color="#72C7D8"/>
<stop offset="0.489583" stop-color="#26519A"/>
<stop offset="1" stop-color="#41A575"/>
</linearGradient>
</defs>
</svg>
