<svg width="90" height="90" viewBox="0 0 90 90" fill="none" xmlns="http://www.w3.org/2000/svg">
<path d="M12.6562 69.165V50.625H9.84375V69.165C9.02358 69.4541 8.31297 69.9899 7.80941 70.6989C7.30586 71.4079 7.03404 72.2554 7.03125 73.125C7.03125 75.4509 8.92406 77.3438 11.25 77.3438C13.5759 77.3438 15.4688 75.4509 15.4688 73.125C15.466 72.2554 15.1941 71.4079 14.6906 70.6989C14.187 69.9899 13.4764 69.4541 12.6562 69.165ZM11.25 74.5312C10.877 74.5312 10.5194 74.3831 10.2556 74.1194C9.99191 73.8556 9.84375 73.498 9.84375 73.125C9.84375 72.752 9.99191 72.3944 10.2556 72.1306C10.5194 71.8669 10.877 71.7188 11.25 71.7188C11.623 71.7188 11.9806 71.8669 12.2444 72.1306C12.5081 72.3944 12.6562 72.752 12.6562 73.125C12.6562 73.498 12.5081 73.8556 12.2444 74.1194C11.9806 74.3831 11.623 74.5312 11.25 74.5312ZM19.6875 50.625C17.3616 50.625 15.4688 52.5178 15.4688 54.8438C15.4688 56.6747 16.6486 58.2216 18.2812 58.8038V77.3438H21.0938V58.8038C21.9139 58.5147 22.6245 57.9788 23.1281 57.2698C23.6316 56.5608 23.9035 55.7134 23.9062 54.8438C23.9062 52.5178 22.0134 50.625 19.6875 50.625ZM19.6875 56.25C19.3145 56.25 18.9569 56.1018 18.6931 55.8381C18.4294 55.5744 18.2812 55.2167 18.2812 54.8438C18.2812 54.4708 18.4294 54.1131 18.6931 53.8494C18.9569 53.5857 19.3145 53.4375 19.6875 53.4375C20.0605 53.4375 20.4181 53.5857 20.6819 53.8494C20.9456 54.1131 21.0938 54.4708 21.0938 54.8438C21.0938 55.2167 20.9456 55.5744 20.6819 55.8381C20.4181 56.1018 20.0605 56.25 19.6875 56.25ZM74.5312 69.165V50.625H71.7188V69.165C70.8986 69.4541 70.188 69.9899 69.6844 70.6989C69.1809 71.4079 68.909 72.2554 68.9062 73.125C68.9062 75.4509 70.7991 77.3438 73.125 77.3438C75.4509 77.3438 77.3438 75.4509 77.3438 73.125C77.341 72.2554 77.0691 71.4079 76.5656 70.6989C76.062 69.9899 75.3514 69.4541 74.5312 69.165ZM73.125 74.5312C72.752 74.5312 72.3944 74.3831 72.1306 74.1194C71.8669 73.8556 71.7188 73.498 71.7188 73.125C71.7188 72.752 71.8669 72.3944 72.1306 72.1306C72.3944 71.8669 72.752 71.7188 73.125 71.7188C73.498 71.7188 73.8556 71.8669 74.1194 72.1306C74.3831 72.3944 74.5312 72.752 74.5312 73.125C74.5312 73.498 74.3831 73.8556 74.1194 74.1194C73.8556 74.3831 73.498 74.5312 73.125 74.5312ZM81.5625 50.625C79.2366 50.625 77.3438 52.5178 77.3438 54.8438C77.3438 56.6747 78.5236 58.2216 80.1562 58.8038V77.3438H82.9688V58.8038C83.7889 58.5147 84.4995 57.9788 85.0031 57.2698C85.5066 56.5608 85.7785 55.7134 85.7812 54.8438C85.7812 52.5178 83.8884 50.625 81.5625 50.625ZM81.5625 56.25C81.1895 56.25 80.8319 56.1018 80.5681 55.8381C80.3044 55.5744 80.1562 55.2167 80.1562 54.8438C80.1562 54.4708 80.3044 54.1131 80.5681 53.8494C80.8319 53.5857 81.1895 53.4375 81.5625 53.4375C81.9355 53.4375 82.2931 53.5857 82.5569 53.8494C82.8206 54.1131 82.9688 54.4708 82.9688 54.8438C82.9688 55.2167 82.8206 55.5744 82.5569 55.8381C82.2931 56.1018 81.9355 56.25 81.5625 56.25Z" fill="url(#paint0_linear_542_3141)"/>
<path d="M61.875 46.4062C61.3195 46.4062 60.7922 46.5202 60.3056 46.7156C60.0663 45.8221 59.5394 45.0322 58.8064 44.468C58.0734 43.9038 57.175 43.5965 56.25 43.5938C55.2088 43.5973 54.2062 43.9883 53.4375 44.6906C52.6691 43.9878 51.6663 43.5967 50.625 43.5938C50.13 43.5938 49.6603 43.695 49.2188 43.8525V31.7517C55.0659 30.0952 59.393 25.1086 60.2859 19.1531L66.2316 22.4241C62.7455 24.9848 60.4688 29.1023 60.4688 33.75C60.4688 41.5041 66.7772 47.8125 74.5312 47.8125C82.2853 47.8125 88.5938 41.5041 88.5938 33.75C88.5938 25.9959 82.2853 19.6875 74.5312 19.6875C72.6621 19.6857 70.8116 20.0586 69.0891 20.7844L60.4252 16.0186C59.978 7.88906 53.2406 1.40625 45 1.40625C36.7594 1.40625 30.022 7.88906 29.5748 16.02L20.9109 20.7844C19.1885 20.0585 17.3379 19.6855 15.4688 19.6875C7.71469 19.6875 1.40625 25.9959 1.40625 33.75C1.40625 41.5041 7.71469 47.8125 15.4688 47.8125C23.2228 47.8125 29.5312 41.5041 29.5312 33.75C29.5312 29.1009 27.2545 24.9848 23.767 22.4227L29.7141 19.1517C30.607 25.1128 34.9312 30.0966 40.7827 31.7531V57.6745C40.7824 58.3175 40.6353 58.952 40.3523 59.5294L39.1725 53.6316C38.7569 51.5793 37.6455 49.7335 36.0262 48.406C34.4069 47.0785 32.3789 46.3508 30.285 46.3458C29.34 46.3473 28.4341 46.7233 27.7659 47.3915C27.0977 48.0598 26.7216 48.9656 26.7202 49.9106C26.7202 50.6166 26.9269 51.3 27.3192 51.8878L28.7662 54.0591C29.302 54.862 29.648 55.793 29.7675 56.7506L30.7406 64.5314C30.9009 65.8294 31.3116 67.0627 31.9177 68.1131L36.5625 77.6672V80.1562H33.75V88.5938H64.6875V80.1562H61.875V77.812L64.125 74.8125C65.3995 73.1068 66.0899 71.0355 66.0938 68.9062V50.625C66.0938 48.2991 64.2009 46.4062 61.875 46.4062ZM74.5312 45C72.0986 44.9991 69.7327 44.2047 67.7925 42.7373C69.3745 40.6392 71.8636 39.375 74.5312 39.375C77.1989 39.375 79.688 40.6392 81.27 42.7373C79.3298 44.2047 76.9639 44.9991 74.5312 45ZM70.3125 32.3438C70.3125 30.0178 72.2053 28.125 74.5312 28.125C76.8572 28.125 78.75 30.0178 78.75 32.3438C78.75 34.6697 76.8572 36.5625 74.5312 36.5625C72.2053 36.5625 70.3125 34.6697 70.3125 32.3438ZM74.5312 22.5C80.7342 22.5 85.7812 27.547 85.7812 33.75C85.7826 36.3111 84.9049 38.7951 83.295 40.7869C82.1914 39.4105 80.7795 38.3131 79.1733 37.5834C80.6273 36.2939 81.5625 34.4348 81.5625 32.3438C81.5625 28.4667 78.4083 25.3125 74.5312 25.3125C70.6542 25.3125 67.5 28.4667 67.5 32.3438C67.5 34.4348 68.4352 36.2939 69.8892 37.5834C68.2833 38.3136 66.8715 39.4109 65.7675 40.7869C64.1576 38.7951 63.2799 36.3111 63.2812 33.75C63.2812 27.547 68.3283 22.5 74.5312 22.5ZM15.4688 45C13.0361 44.9991 10.6702 44.2047 8.73 42.7373C10.312 40.6392 12.8011 39.375 15.4688 39.375C18.1364 39.375 20.6255 40.6392 22.2075 42.7373C20.2673 44.2047 17.9014 44.9991 15.4688 45ZM11.25 32.3438C11.25 30.0178 13.1428 28.125 15.4688 28.125C17.7947 28.125 19.6875 30.0178 19.6875 32.3438C19.6875 34.6697 17.7947 36.5625 15.4688 36.5625C13.1428 36.5625 11.25 34.6697 11.25 32.3438ZM26.7188 33.75C26.7201 36.3111 25.8424 38.7951 24.2325 40.7869C23.1289 39.4105 21.717 38.3131 20.1108 37.5834C21.5648 36.2939 22.5 34.4348 22.5 32.3438C22.5 28.4667 19.3458 25.3125 15.4688 25.3125C11.5917 25.3125 8.4375 28.4667 8.4375 32.3438C8.4375 34.4348 9.37266 36.2939 10.8267 37.5834C9.22084 38.3136 7.80899 39.4109 6.705 40.7869C5.09508 38.7951 4.21745 36.3111 4.21875 33.75C4.21875 27.547 9.26578 22.5 15.4688 22.5C21.6717 22.5 26.7188 27.547 26.7188 33.75ZM32.3438 16.875C32.3438 9.89578 38.0208 4.21875 45 4.21875C51.9792 4.21875 57.6562 9.89578 57.6562 16.875C57.651 19.6359 56.7411 22.3191 55.0659 24.5137C53.9203 22.2005 52.0107 20.354 49.6603 19.2867C51.1031 17.9986 52.0312 16.1452 52.0312 14.0625C52.0312 10.1855 48.877 7.03125 45 7.03125C41.123 7.03125 37.9688 10.1855 37.9688 14.0625C37.9688 16.1452 38.8969 17.9986 40.3397 19.2867C37.9885 20.3541 36.0784 22.2011 34.9327 24.5152C33.2572 22.3202 32.3478 19.6363 32.3438 16.875ZM49.2188 14.0625C49.2188 16.3884 47.3259 18.2812 45 18.2812C42.6741 18.2812 40.7812 16.3884 40.7812 14.0625C40.7812 11.7366 42.6741 9.84375 45 9.84375C47.3259 9.84375 49.2188 11.7366 49.2188 14.0625ZM37.0716 26.723C37.6449 25.0775 38.7163 23.6514 40.1371 22.6426C41.5579 21.6339 43.2575 21.0925 45 21.0938C46.7419 21.0932 48.4409 21.6344 49.8615 22.6425C51.2821 23.6506 52.3539 25.0757 52.9284 26.7202C51.6806 27.7349 50.2493 28.5002 48.7125 28.9744C48.0023 27.6398 46.6144 26.7188 45 26.7188C43.3856 26.7188 41.9977 27.6398 41.2889 28.9744C39.7519 28.5009 38.3202 27.7366 37.0716 26.723ZM61.875 85.7812H36.5625V82.9688H61.875V85.7812ZM63.2812 68.9062C63.2784 70.4271 62.7853 71.9066 61.875 73.125L59.0625 76.8755V80.1562H39.375V77.0203L34.4025 66.8011C33.9401 65.9967 33.6437 65.1078 33.5306 64.1869L32.5575 56.4047C32.3824 55.0091 31.8856 53.6732 31.1063 52.5023L29.6578 50.3297C29.5822 50.2164 29.5388 50.0847 29.5321 49.9487C29.5255 49.8126 29.5559 49.6773 29.6202 49.5572C29.6844 49.4371 29.7801 49.3367 29.8969 49.2667C30.0137 49.1967 30.1474 49.1597 30.2836 49.1597C31.7277 49.1633 33.1262 49.6652 34.2431 50.5806C35.3599 51.4961 36.1265 52.7689 36.4134 54.1842L38.2219 63.2222H41.6503L42.8512 60.8189C43.3364 59.8486 43.5938 58.7602 43.5938 57.6759V30.9375C43.5938 30.5645 43.7419 30.2069 44.0056 29.9431C44.2694 29.6794 44.627 29.5312 45 29.5312C45.373 29.5312 45.7306 29.6794 45.9944 29.9431C46.2581 30.2069 46.4062 30.5645 46.4062 30.9375V53.4375H49.2188V47.8125C49.2188 47.4395 49.3669 47.0819 49.6306 46.8181C49.8944 46.5544 50.252 46.4062 50.625 46.4062C50.998 46.4062 51.3556 46.5544 51.6194 46.8181C51.8831 47.0819 52.0312 47.4395 52.0312 47.8125V53.4375H54.8438V47.8125C54.8438 47.4395 54.9919 47.0819 55.2556 46.8181C55.5194 46.5544 55.877 46.4062 56.25 46.4062C56.623 46.4062 56.9806 46.5544 57.2444 46.8181C57.5081 47.0819 57.6562 47.4395 57.6562 47.8125V53.4375H60.4688V50.625C60.4688 50.252 60.6169 49.8944 60.8806 49.6306C61.1444 49.3669 61.502 49.2188 61.875 49.2188C62.248 49.2188 62.6056 49.3669 62.8694 49.6306C63.1331 49.8944 63.2812 50.252 63.2812 50.625V68.9062Z" fill="url(#paint1_linear_542_3141)"/>
<defs>
<linearGradient id="paint0_linear_542_3141" x1="46.4062" y1="50.625" x2="46.4062" y2="77.3438" gradientUnits="userSpaceOnUse">
<stop stop-color="#72C7D8"/>
<stop offset="0.489583" stop-color="#26519A"/>
<stop offset="1" stop-color="#41A575"/>
</linearGradient>
<linearGradient id="paint1_linear_542_3141" x1="45" y1="1.40625" x2="45" y2="88.5938" gradientUnits="userSpaceOnUse">
<stop stop-color="#72C7D8"/>
<stop offset="0.489583" stop-color="#26519A"/>
<stop offset="1" stop-color="#41A575"/>
</linearGradient>
</defs>
</svg>
