<svg width="90" height="90" viewBox="0 0 90 90" fill="none" xmlns="http://www.w3.org/2000/svg">
<path d="M42.1875 39.375C37.5282 39.375 33.75 35.5968 33.75 30.9375C33.75 26.2782 37.5282 22.5 42.1875 22.5C46.8468 22.5 50.625 26.2782 50.625 30.9375C50.6201 35.5957 46.8457 39.3701 42.1875 39.375ZM42.1875 25.3125C39.0811 25.3125 36.5625 27.8311 36.5625 30.9375C36.5625 34.0439 39.0811 36.5625 42.1875 36.5625C45.2939 36.5625 47.8125 34.0439 47.8125 30.9375C47.8125 27.8311 45.2939 25.3125 42.1875 25.3125ZM66.0938 45C61.4344 45 57.6562 41.2218 57.6562 36.5625C57.6562 31.9032 61.4344 28.125 66.0938 28.125C70.7531 28.125 74.5312 31.9032 74.5312 36.5625C74.5263 41.2207 70.752 44.9951 66.0938 45ZM66.0938 30.9375C62.9873 30.9375 60.4688 33.4561 60.4688 36.5625C60.4688 39.6689 62.9873 42.1875 66.0938 42.1875C69.2002 42.1875 71.7188 39.6689 71.7188 36.5625C71.7188 33.4561 69.2002 30.9375 66.0938 30.9375ZM18.2812 45C13.6219 45 9.84375 41.2218 9.84375 36.5625C9.84375 31.9032 13.6219 28.125 18.2812 28.125C22.9406 28.125 26.7188 31.9032 26.7188 36.5625C26.7138 41.2207 22.9395 44.9951 18.2812 45ZM18.2812 30.9375C15.1748 30.9375 12.6562 33.4561 12.6562 36.5625C12.6562 39.6689 15.1748 42.1875 18.2812 42.1875C21.3877 42.1875 23.9062 39.6689 23.9062 36.5625C23.9062 33.4561 21.3877 30.9375 18.2812 30.9375ZM57.6562 28.125C52.9969 28.125 49.2188 24.3468 49.2188 19.6875C49.2188 15.0282 52.9969 11.25 57.6562 11.25C62.3156 11.25 66.0938 15.0282 66.0938 19.6875C66.0888 24.3457 62.3145 28.1201 57.6562 28.125ZM57.6562 14.0625C54.5498 14.0625 52.0312 16.5811 52.0312 19.6875C52.0312 22.7939 54.5498 25.3125 57.6562 25.3125C60.7627 25.3125 63.2812 22.7939 63.2812 19.6875C63.2812 16.5811 60.7627 14.0625 57.6562 14.0625ZM42.1875 16.875C37.5282 16.875 33.75 13.0968 33.75 8.4375C33.75 3.77817 37.5282 0 42.1875 0C46.8468 0 50.625 3.77817 50.625 8.4375C50.6201 13.0957 46.8457 16.8701 42.1875 16.875ZM42.1875 2.8125C39.0811 2.8125 36.5625 5.33109 36.5625 8.4375C36.5625 11.5439 39.0811 14.0625 42.1875 14.0625C45.2939 14.0625 47.8125 11.5439 47.8125 8.4375C47.8125 5.33109 45.2939 2.8125 42.1875 2.8125ZM26.7188 28.125C22.0594 28.125 18.2812 24.3468 18.2812 19.6875C18.2812 15.0282 22.0594 11.25 26.7188 11.25C31.3781 11.25 35.1562 15.0282 35.1562 19.6875C35.1513 24.3457 31.377 28.1201 26.7188 28.125ZM26.7188 14.0625C23.6123 14.0625 21.0938 16.5811 21.0938 19.6875C21.0938 22.7939 23.6123 25.3125 26.7188 25.3125C29.8252 25.3125 32.3438 22.7939 32.3438 19.6875C32.3438 16.5811 29.8252 14.0625 26.7188 14.0625ZM40.7812 73.125H43.5938V84.375H40.7812V73.125Z" fill="url(#paint0_linear_519_3272)"/>
<path d="M78.8428 48.6084C76.747 47.1677 74.262 46.3995 71.7188 46.4062H60.4688C59.7853 46.4123 59.1043 46.4743 58.4308 46.5903C57.5184 45.1669 56.3303 43.9405 54.9366 42.9834C52.8407 41.5427 50.3558 40.7745 47.8125 40.7812H36.5625C34.4467 40.783 32.3652 41.3155 30.5086 42.3301C28.652 43.3447 27.0796 44.8089 25.9355 46.5886C25.2651 46.4732 24.5865 46.4122 23.9062 46.4062H12.6562C10.1148 46.3995 7.63142 47.1666 5.53655 48.6056C3.83166 49.7657 2.43605 51.3248 1.47112 53.1472C0.506189 54.9697 0.00117217 57.0003 0 59.0625L0 67.5C0.00435937 71.3397 2.23903 74.8272 5.72611 76.4353C6.5845 76.8366 7.49863 77.1058 8.4375 77.2338V84.375H11.25V54.8437H8.4375V74.3906C7.90876 74.2839 7.39465 74.1144 6.90609 73.8858C4.41366 72.736 2.81559 70.2444 2.8125 67.5V59.0625C2.81426 57.4577 3.20795 55.8776 3.95936 54.4596C4.71077 53.0416 5.79715 51.8285 7.12406 50.9259C8.75211 49.8086 10.6817 49.2131 12.6562 49.2187H23.9062C24.1507 49.2187 24.3886 49.2456 24.6291 49.2622C24.1534 50.603 23.909 52.0148 23.9062 53.4375V64.6875C23.9076 66.4653 24.3938 68.2092 25.3125 69.7313V84.375H28.125V72.7537C29.381 73.6323 30.8263 74.2027 32.3438 74.4187V84.375H35.1562V49.2187H32.3438V71.5781C29.072 70.9052 26.7231 68.0273 26.7188 64.6875V53.4375C26.7248 48.0037 31.1288 43.5998 36.5625 43.5937H47.8125C49.7888 43.5883 51.7199 44.1845 53.349 45.3032C54.6748 46.2061 55.7601 47.419 56.5108 48.8365C57.2614 50.2541 57.6546 51.8335 57.6562 53.4375V64.6875C57.6538 66.0354 57.2645 67.3543 56.5346 68.4875C55.8047 69.6207 54.7648 70.5206 53.5386 71.0803C53.0584 71.3072 52.5522 71.4744 52.0312 71.5781V49.2187H49.2188V84.375H52.0312V74.4214C52.9617 74.2964 53.8679 74.0307 54.7186 73.6336C55.2557 73.3849 55.7684 73.0866 56.25 72.7426V84.375H59.0625V69.7061C59.9809 68.1931 60.4672 66.4574 60.4688 64.6875V53.4375C60.4631 52.0147 60.2172 50.6031 59.7414 49.2622C59.9832 49.2456 60.2227 49.2187 60.4688 49.2187H71.7188C73.695 49.2133 75.6261 49.8095 77.2553 50.9282C78.5811 51.8311 79.6664 53.044 80.417 54.4615C81.1676 55.8791 81.5608 57.4585 81.5625 59.0625V67.5C81.56 68.8479 81.1707 70.1668 80.4408 71.3C79.7109 72.4332 78.6711 73.3331 77.4449 73.8928C76.9646 74.1197 76.4584 74.2869 75.9375 74.3906V54.8437H73.125V84.375H75.9375V77.2339C76.868 77.1089 77.7741 76.8432 78.6248 76.4461C82.1237 74.8434 84.3694 71.3496 84.375 67.5V59.0625C84.3739 57.0012 83.8694 54.9714 82.9052 53.1495C81.9411 51.3275 80.5465 49.7687 78.8428 48.6084Z" fill="url(#paint1_linear_519_3272)"/>
<path d="M64.6875 78.75H67.5V84.375H64.6875V78.75ZM16.875 78.75H19.6875V84.375H16.875V78.75Z" fill="url(#paint2_linear_519_3272)"/>
<defs>
<linearGradient id="paint0_linear_519_3272" x1="42.1875" y1="0" x2="42.1875" y2="84.375" gradientUnits="userSpaceOnUse">
<stop stop-color="#72C7D8"/>
<stop offset="0.489583" stop-color="#26519A"/>
<stop offset="1" stop-color="#41A575"/>
</linearGradient>
<linearGradient id="paint1_linear_519_3272" x1="42.1875" y1="40.7812" x2="42.1875" y2="84.375" gradientUnits="userSpaceOnUse">
<stop stop-color="#72C7D8"/>
<stop offset="0.489583" stop-color="#26519A"/>
<stop offset="1" stop-color="#41A575"/>
</linearGradient>
<linearGradient id="paint2_linear_519_3272" x1="42.1875" y1="78.75" x2="42.1875" y2="84.375" gradientUnits="userSpaceOnUse">
<stop stop-color="#72C7D8"/>
<stop offset="0.489583" stop-color="#26519A"/>
<stop offset="1" stop-color="#41A575"/>
</linearGradient>
</defs>
</svg>
