<svg width="90" height="90" viewBox="0 0 90 90" fill="none" xmlns="http://www.w3.org/2000/svg">
<path d="M83.5543 85.7813H44.6768C44.3504 85.7813 44.0374 85.6517 43.8067 85.421C43.5759 85.1902 43.4463 84.8772 43.4463 84.5509V23.8765C43.4463 23.5501 43.5759 23.2371 43.8067 23.0064C44.0374 22.7756 44.3504 22.646 44.6768 22.646H83.5543C83.8806 22.646 84.1936 22.7756 84.4244 23.0064C84.6551 23.2371 84.7848 23.5501 84.7848 23.8765V84.5509C84.7848 84.8772 84.6551 85.1902 84.4244 85.421C84.1936 85.6517 83.8806 85.7813 83.5543 85.7813ZM45.9072 83.3204H82.3238V25.1069H45.9072V83.3204Z" fill="url(#paint0_linear_539_2730)"/>
<path d="M74.7896 85.7813H53.4375C53.1112 85.7813 52.7982 85.6517 52.5674 85.4209C52.3367 85.1902 52.207 84.8772 52.207 84.5509V68.314C52.207 67.9876 52.3367 67.6747 52.5674 67.4439C52.7982 67.2131 53.1112 67.0835 53.4375 67.0835H74.7896C75.116 67.0835 75.429 67.2131 75.6597 67.4439C75.8905 67.6747 76.0201 67.9876 76.0201 68.314V84.5509C76.0201 84.8772 75.8905 85.1902 75.6597 85.4209C75.429 85.6517 75.116 85.7813 74.7896 85.7813ZM54.668 83.3204H73.5592V69.5444H54.668V83.3204Z" fill="url(#paint1_linear_539_2730)"/>
<path d="M64.1145 85.7812C63.7881 85.7812 63.4751 85.6516 63.2444 85.4209C63.0136 85.1901 62.884 84.8771 62.884 84.5508V68.3139C62.884 67.9875 63.0136 67.6746 63.2444 67.4438C63.4751 67.213 63.7881 67.0834 64.1145 67.0834C64.4408 67.0834 64.7538 67.213 64.9845 67.4438C65.2153 67.6746 65.3449 67.9875 65.3449 68.3139V84.5508C65.3449 84.8771 65.2153 85.1901 64.9845 85.4209C64.7538 85.6516 64.4408 85.7812 64.1145 85.7812ZM53.1527 63.3375H50.2945C49.9682 63.3375 49.6552 63.2079 49.4245 62.9771C49.1937 62.7463 49.0641 62.4334 49.0641 62.107C49.0641 61.7807 49.1937 61.4677 49.4245 61.237C49.6552 61.0062 49.9682 60.8766 50.2945 60.8766H53.1527C53.4791 60.8766 53.792 61.0062 54.0228 61.237C54.2536 61.4677 54.3832 61.7807 54.3832 62.107C54.3832 62.4334 54.2536 62.7463 54.0228 62.9771C53.792 63.2079 53.4791 63.3375 53.1527 63.3375ZM61.4145 63.3375H58.5562C58.2299 63.3375 57.9169 63.2079 57.6862 62.9771C57.4554 62.7463 57.3258 62.4334 57.3258 62.107C57.3258 61.7807 57.4554 61.4677 57.6862 61.237C57.9169 61.0062 58.2299 60.8766 58.5562 60.8766H61.4145C61.7408 60.8766 62.0538 61.0062 62.2845 61.237C62.5153 61.4677 62.6449 61.7807 62.6449 62.107C62.6449 62.4334 62.5153 62.7463 62.2845 62.9771C62.0538 63.2079 61.7408 63.3375 61.4145 63.3375ZM69.6744 63.3375H66.8162C66.4899 63.3375 66.1769 63.2079 65.9461 62.9771C65.7154 62.7463 65.5857 62.4334 65.5857 62.107C65.5857 61.7807 65.7154 61.4677 65.9461 61.237C66.1769 61.0062 66.4899 60.8766 66.8162 60.8766H69.6744C70.0008 60.8766 70.3137 61.0062 70.5445 61.237C70.7752 61.4677 70.9049 61.7807 70.9049 62.107C70.9049 62.4334 70.7752 62.7463 70.5445 62.9771C70.3137 63.2079 70.0008 63.3375 69.6744 63.3375ZM77.9361 63.3375H75.0779C74.7516 63.3375 74.4386 63.2079 74.2079 62.9771C73.9771 62.7463 73.8475 62.4334 73.8475 62.107C73.8475 61.7807 73.9771 61.4677 74.2079 61.237C74.4386 61.0062 74.7516 60.8766 75.0779 60.8766H77.9361C78.2625 60.8766 78.5754 61.0062 78.8062 61.237C79.037 61.4677 79.1666 61.7807 79.1666 62.107C79.1666 62.4334 79.037 62.7463 78.8062 62.9771C78.5754 63.2079 78.2625 63.3375 77.9361 63.3375ZM53.1527 58.0078H50.2945C49.9682 58.0078 49.6552 57.8782 49.4245 57.6474C49.1937 57.4167 49.0641 57.1037 49.0641 56.7773C49.0641 56.451 49.1937 56.138 49.4245 55.9073C49.6552 55.6765 49.9682 55.5469 50.2945 55.5469H53.1527C53.4791 55.5469 53.792 55.6765 54.0228 55.9073C54.2536 56.138 54.3832 56.451 54.3832 56.7773C54.3832 57.1037 54.2536 57.4167 54.0228 57.6474C53.792 57.8782 53.4791 58.0078 53.1527 58.0078ZM61.4145 58.0078H58.5562C58.2299 58.0078 57.9169 57.8782 57.6862 57.6474C57.4554 57.4167 57.3258 57.1037 57.3258 56.7773C57.3258 56.451 57.4554 56.138 57.6862 55.9073C57.9169 55.6765 58.2299 55.5469 58.5562 55.5469H61.4145C61.7408 55.5469 62.0538 55.6765 62.2845 55.9073C62.5153 56.138 62.6449 56.451 62.6449 56.7773C62.6449 57.1037 62.5153 57.4167 62.2845 57.6474C62.0538 57.8782 61.7408 58.0078 61.4145 58.0078ZM69.6744 58.0078H66.8162C66.4899 58.0078 66.1769 57.8782 65.9461 57.6474C65.7154 57.4167 65.5857 57.1037 65.5857 56.7773C65.5857 56.451 65.7154 56.138 65.9461 55.9073C66.1769 55.6765 66.4899 55.5469 66.8162 55.5469H69.6744C70.0008 55.5469 70.3137 55.6765 70.5445 55.9073C70.7752 56.138 70.9049 56.451 70.9049 56.7773C70.9049 57.1037 70.7752 57.4167 70.5445 57.6474C70.3137 57.8782 70.0008 58.0078 69.6744 58.0078ZM77.9361 58.0078H75.0779C74.7516 58.0078 74.4386 57.8782 74.2079 57.6474C73.9771 57.4167 73.8475 57.1037 73.8475 56.7773C73.8475 56.451 73.9771 56.138 74.2079 55.9073C74.4386 55.6765 74.7516 55.5469 75.0779 55.5469H77.9361C78.2625 55.5469 78.5754 55.6765 78.8062 55.9073C79.037 56.138 79.1666 56.451 79.1666 56.7773C79.1666 57.1037 79.037 57.4167 78.8062 57.6474C78.5754 57.8782 78.2625 58.0078 77.9361 58.0078ZM53.1527 52.6623H50.2945C49.9682 52.6623 49.6552 52.5327 49.4245 52.3019C49.1937 52.0711 49.0641 51.7582 49.0641 51.4318C49.0641 51.1055 49.1937 50.7925 49.4245 50.5618C49.6552 50.331 49.9682 50.2014 50.2945 50.2014H53.1527C53.4791 50.2014 53.792 50.331 54.0228 50.5618C54.2536 50.7925 54.3832 51.1055 54.3832 51.4318C54.3832 51.7582 54.2536 52.0711 54.0228 52.3019C53.792 52.5327 53.4791 52.6623 53.1527 52.6623ZM61.4145 52.6623H58.5562C58.2299 52.6623 57.9169 52.5327 57.6862 52.3019C57.4554 52.0711 57.3258 51.7582 57.3258 51.4318C57.3258 51.1055 57.4554 50.7925 57.6862 50.5618C57.9169 50.331 58.2299 50.2014 58.5562 50.2014H61.4145C61.7408 50.2014 62.0538 50.331 62.2845 50.5618C62.5153 50.7925 62.6449 51.1055 62.6449 51.4318C62.6449 51.7582 62.5153 52.0711 62.2845 52.3019C62.0538 52.5327 61.7408 52.6623 61.4145 52.6623ZM69.6744 52.6623H66.8162C66.4899 52.6623 66.1769 52.5327 65.9461 52.3019C65.7154 52.0711 65.5857 51.7582 65.5857 51.4318C65.5857 51.1055 65.7154 50.7925 65.9461 50.5618C66.1769 50.331 66.4899 50.2014 66.8162 50.2014H69.6744C70.0008 50.2014 70.3137 50.331 70.5445 50.5618C70.7752 50.7925 70.9049 51.1055 70.9049 51.4318C70.9049 51.7582 70.7752 52.0711 70.5445 52.3019C70.3137 52.5327 70.0008 52.6623 69.6744 52.6623ZM77.9361 52.6623H75.0779C74.7516 52.6623 74.4386 52.5327 74.2079 52.3019C73.9771 52.0711 73.8475 51.7582 73.8475 51.4318C73.8475 51.1055 73.9771 50.7925 74.2079 50.5618C74.4386 50.331 74.7516 50.2014 75.0779 50.2014H77.9361C78.2625 50.2014 78.5754 50.331 78.8062 50.5618C79.037 50.7925 79.1666 51.1055 79.1666 51.4318C79.1666 51.7582 79.037 52.0711 78.8062 52.3019C78.5754 52.5327 78.2625 52.6623 77.9361 52.6623ZM53.1527 47.3256H50.2945C49.9682 47.3256 49.6552 47.1959 49.4245 46.9652C49.1937 46.7344 49.0641 46.4215 49.0641 46.0951C49.0641 45.7688 49.1937 45.4558 49.4245 45.225C49.6552 44.9943 49.9682 44.8646 50.2945 44.8646H53.1527C53.4791 44.8646 53.792 44.9943 54.0228 45.225C54.2536 45.4558 54.3832 45.7688 54.3832 46.0951C54.3832 46.4215 54.2536 46.7344 54.0228 46.9652C53.792 47.1959 53.4791 47.3256 53.1527 47.3256ZM61.4145 47.3256H58.5562C58.2299 47.3256 57.9169 47.1959 57.6862 46.9652C57.4554 46.7344 57.3258 46.4215 57.3258 46.0951C57.3258 45.7688 57.4554 45.4558 57.6862 45.225C57.9169 44.9943 58.2299 44.8646 58.5562 44.8646H61.4145C61.7408 44.8646 62.0538 44.9943 62.2845 45.225C62.5153 45.4558 62.6449 45.7688 62.6449 46.0951C62.6449 46.4215 62.5153 46.7344 62.2845 46.9652C62.0538 47.1959 61.7408 47.3256 61.4145 47.3256ZM69.6744 47.3256H66.8162C66.4899 47.3256 66.1769 47.1959 65.9461 46.9652C65.7154 46.7344 65.5857 46.4215 65.5857 46.0951C65.5857 45.7688 65.7154 45.4558 65.9461 45.225C66.1769 44.9943 66.4899 44.8646 66.8162 44.8646H69.6744C70.0008 44.8646 70.3137 44.9943 70.5445 45.225C70.7752 45.4558 70.9049 45.7688 70.9049 46.0951C70.9049 46.4215 70.7752 46.7344 70.5445 46.9652C70.3137 47.1959 70.0008 47.3256 69.6744 47.3256ZM77.9361 47.3256H75.0779C74.7516 47.3256 74.4386 47.1959 74.2079 46.9652C73.9771 46.7344 73.8475 46.4215 73.8475 46.0951C73.8475 45.7688 73.9771 45.4558 74.2079 45.225C74.4386 44.9943 74.7516 44.8646 75.0779 44.8646H77.9361C78.2625 44.8646 78.5754 44.9943 78.8062 45.225C79.037 45.4558 79.1666 45.7688 79.1666 46.0951C79.1666 46.4215 79.037 46.7344 78.8062 46.9652C78.5754 47.1959 78.2625 47.3256 77.9361 47.3256ZM53.1527 41.9889H50.2945C49.9682 41.9889 49.6552 41.8592 49.4245 41.6285C49.1937 41.3977 49.0641 41.0847 49.0641 40.7584C49.0641 40.4321 49.1937 40.1191 49.4245 39.8883C49.6552 39.6576 49.9682 39.5279 50.2945 39.5279H53.1527C53.4791 39.5279 53.792 39.6576 54.0228 39.8883C54.2536 40.1191 54.3832 40.4321 54.3832 40.7584C54.3832 41.0847 54.2536 41.3977 54.0228 41.6285C53.792 41.8592 53.4791 41.9889 53.1527 41.9889ZM61.4145 41.9889H58.5562C58.2299 41.9889 57.9169 41.8592 57.6862 41.6285C57.4554 41.3977 57.3258 41.0847 57.3258 40.7584C57.3258 40.4321 57.4554 40.1191 57.6862 39.8883C57.9169 39.6576 58.2299 39.5279 58.5562 39.5279H61.4145C61.7408 39.5279 62.0538 39.6576 62.2845 39.8883C62.5153 40.1191 62.6449 40.4321 62.6449 40.7584C62.6449 41.0847 62.5153 41.3977 62.2845 41.6285C62.0538 41.8592 61.7408 41.9889 61.4145 41.9889ZM69.6744 41.9889H66.8162C66.4899 41.9889 66.1769 41.8592 65.9461 41.6285C65.7154 41.3977 65.5857 41.0847 65.5857 40.7584C65.5857 40.4321 65.7154 40.1191 65.9461 39.8883C66.1769 39.6576 66.4899 39.5279 66.8162 39.5279H69.6744C70.0008 39.5279 70.3137 39.6576 70.5445 39.8883C70.7752 40.1191 70.9049 40.4321 70.9049 40.7584C70.9049 41.0847 70.7752 41.3977 70.5445 41.6285C70.3137 41.8592 70.0008 41.9889 69.6744 41.9889ZM77.9361 41.9889H75.0779C74.7516 41.9889 74.4386 41.8592 74.2079 41.6285C73.9771 41.3977 73.8475 41.0847 73.8475 40.7584C73.8475 40.4321 73.9771 40.1191 74.2079 39.8883C74.4386 39.6576 74.7516 39.5279 75.0779 39.5279H77.9361C78.2625 39.5279 78.5754 39.6576 78.8062 39.8883C79.037 40.1191 79.1666 40.4321 79.1666 40.7584C79.1666 41.0847 79.037 41.3977 78.8062 41.6285C78.5754 41.8592 78.2625 41.9889 77.9361 41.9889ZM53.1527 36.6521H50.2945C49.9682 36.6521 49.6552 36.5225 49.4245 36.2918C49.1937 36.061 49.0641 35.748 49.0641 35.4217C49.0641 35.0953 49.1937 34.7824 49.4245 34.5516C49.6552 34.3209 49.9682 34.1912 50.2945 34.1912H53.1527C53.4791 34.1912 53.792 34.3209 54.0228 34.5516C54.2536 34.7824 54.3832 35.0953 54.3832 35.4217C54.3832 35.748 54.2536 36.061 54.0228 36.2918C53.792 36.5225 53.4791 36.6521 53.1527 36.6521ZM61.4145 36.6521H58.5562C58.2299 36.6521 57.9169 36.5225 57.6862 36.2918C57.4554 36.061 57.3258 35.748 57.3258 35.4217C57.3258 35.0953 57.4554 34.7824 57.6862 34.5516C57.9169 34.3209 58.2299 34.1912 58.5562 34.1912H61.4145C61.7408 34.1912 62.0538 34.3209 62.2845 34.5516C62.5153 34.7824 62.6449 35.0953 62.6449 35.4217C62.6449 35.748 62.5153 36.061 62.2845 36.2918C62.0538 36.5225 61.7408 36.6521 61.4145 36.6521ZM69.6744 36.6521H66.8162C66.4899 36.6521 66.1769 36.5225 65.9461 36.2918C65.7154 36.061 65.5857 35.748 65.5857 35.4217C65.5857 35.0953 65.7154 34.7824 65.9461 34.5516C66.1769 34.3209 66.4899 34.1912 66.8162 34.1912H69.6744C70.0008 34.1912 70.3137 34.3209 70.5445 34.5516C70.7752 34.7824 70.9049 35.0953 70.9049 35.4217C70.9049 35.748 70.7752 36.061 70.5445 36.2918C70.3137 36.5225 70.0008 36.6521 69.6744 36.6521ZM77.9361 36.6521H75.0779C74.7516 36.6521 74.4386 36.5225 74.2079 36.2918C73.9771 36.061 73.8475 35.748 73.8475 35.4217C73.8475 35.0953 73.9771 34.7824 74.2079 34.5516C74.4386 34.3209 74.7516 34.1912 75.0779 34.1912H77.9361C78.2625 34.1912 78.5754 34.3209 78.8062 34.5516C79.037 34.7824 79.1666 35.0953 79.1666 35.4217C79.1666 35.748 79.037 36.061 78.8062 36.2918C78.5754 36.5225 78.2625 36.6521 77.9361 36.6521ZM53.1527 31.3137H50.2945C49.9682 31.3137 49.6552 31.184 49.4245 30.9533C49.1937 30.7225 49.0641 30.4095 49.0641 30.0832C49.0641 29.7569 49.1937 29.4439 49.4245 29.2131C49.6552 28.9824 49.9682 28.8527 50.2945 28.8527H53.1527C53.4791 28.8527 53.792 28.9824 54.0228 29.2131C54.2536 29.4439 54.3832 29.7569 54.3832 30.0832C54.3832 30.4095 54.2536 30.7225 54.0228 30.9533C53.792 31.184 53.4791 31.3137 53.1527 31.3137ZM61.4145 31.3137H58.5562C58.2299 31.3137 57.9169 31.184 57.6862 30.9533C57.4554 30.7225 57.3258 30.4095 57.3258 30.0832C57.3258 29.7569 57.4554 29.4439 57.6862 29.2131C57.9169 28.9824 58.2299 28.8527 58.5562 28.8527H61.4145C61.7408 28.8527 62.0538 28.9824 62.2845 29.2131C62.5153 29.4439 62.6449 29.7569 62.6449 30.0832C62.6449 30.4095 62.5153 30.7225 62.2845 30.9533C62.0538 31.184 61.7408 31.3137 61.4145 31.3137ZM69.6744 31.3137H66.8162C66.4899 31.3137 66.1769 31.184 65.9461 30.9533C65.7154 30.7225 65.5857 30.4095 65.5857 30.0832C65.5857 29.7569 65.7154 29.4439 65.9461 29.2131C66.1769 28.9824 66.4899 28.8527 66.8162 28.8527H69.6744C70.0008 28.8527 70.3137 28.9824 70.5445 29.2131C70.7752 29.4439 70.9049 29.7569 70.9049 30.0832C70.9049 30.4095 70.7752 30.7225 70.5445 30.9533C70.3137 31.184 70.0008 31.3137 69.6744 31.3137ZM77.9361 31.3137H75.0779C74.7516 31.3137 74.4386 31.184 74.2079 30.9533C73.9771 30.7225 73.8475 30.4095 73.8475 30.0832C73.8475 29.7569 73.9771 29.4439 74.2079 29.2131C74.4386 28.9824 74.7516 28.8527 75.0779 28.8527H77.9361C78.2625 28.8527 78.5754 28.9824 78.8062 29.2131C79.037 29.4439 79.1666 29.7569 79.1666 30.0832C79.1666 30.4095 79.037 30.7225 78.8062 30.9533C78.5754 31.184 78.2625 31.3137 77.9361 31.3137ZM44.6766 85.7812H24.9609C24.6346 85.7812 24.3216 85.6516 24.0909 85.4209C23.8601 85.1901 23.7305 84.8771 23.7305 84.5508V5.44922C23.7305 5.12288 23.8601 4.8099 24.0909 4.57915C24.3216 4.34839 24.6346 4.21875 24.9609 4.21875H44.6766C45.0029 4.21875 45.3159 4.34839 45.5466 4.57915C45.7774 4.8099 45.907 5.12288 45.907 5.44922V84.5508C45.907 84.8771 45.7774 85.1901 45.5466 85.4209C45.3159 85.6516 45.0029 85.7812 44.6766 85.7812ZM26.1914 83.3203H43.4496V6.67969H26.1914V83.3203Z" fill="url(#paint2_linear_539_2730)"/>
<path d="M38.7777 19.9565H30.857C30.5307 19.9565 30.2177 19.8269 29.987 19.5961C29.7562 19.3654 29.6266 19.0524 29.6266 18.7261V12.7495C29.6266 12.4232 29.7562 12.1102 29.987 11.8794C30.2177 11.6487 30.5307 11.519 30.857 11.519H38.7777C39.1041 11.519 39.417 11.6487 39.6478 11.8794C39.8786 12.1102 40.0082 12.4232 40.0082 12.7495V18.7261C40.0082 19.0524 39.8786 19.3654 39.6478 19.5961C39.417 19.8269 39.1041 19.9565 38.7777 19.9565ZM32.0875 17.4956H37.5473V13.98H32.0875V17.4956ZM38.7777 31.6618H30.857C30.5307 31.6618 30.2177 31.5322 29.987 31.3014C29.7562 31.0707 29.6266 30.7577 29.6266 30.4313V24.4548C29.6266 24.1284 29.7562 23.8155 29.987 23.5847C30.2177 23.354 30.5307 23.2243 30.857 23.2243H38.7777C39.1041 23.2243 39.417 23.354 39.6478 23.5847C39.8786 23.8155 40.0082 24.1284 40.0082 24.4548V30.4313C40.0082 30.7577 39.8786 31.0707 39.6478 31.3014C39.417 31.5322 39.1041 31.6618 38.7777 31.6618ZM32.0875 29.2009H37.5473V25.6853H32.0875V29.2009ZM38.7777 43.3653H30.857C30.5307 43.3653 30.2177 43.2357 29.987 43.0049C29.7562 42.7742 29.6266 42.4612 29.6266 42.1349V36.1583C29.6266 35.832 29.7562 35.519 29.987 35.2882C30.2177 35.0575 30.5307 34.9278 30.857 34.9278H38.7777C39.1041 34.9278 39.417 35.0575 39.6478 35.2882C39.8786 35.519 40.0082 35.832 40.0082 36.1583V42.1349C40.0082 42.4612 39.8786 42.7742 39.6478 43.0049C39.417 43.2357 39.1041 43.3653 38.7777 43.3653ZM32.0875 40.9044H37.5473V37.3888H32.0875V40.9044ZM38.7777 55.0688H30.857C30.5307 55.0688 30.2177 54.9392 29.987 54.7084C29.7562 54.4777 29.6266 54.1647 29.6266 53.8384V47.8618C29.6266 47.5355 29.7562 47.2225 29.987 46.9917C30.2177 46.761 30.5307 46.6313 30.857 46.6313H38.7777C39.1041 46.6313 39.417 46.761 39.6478 46.9917C39.8786 47.2225 40.0082 47.5355 40.0082 47.8618V53.8384C40.0082 54.1647 39.8786 54.4777 39.6478 54.7084C39.417 54.9392 39.1041 55.0688 38.7777 55.0688ZM32.0875 52.6079H37.5473V49.0923H32.0875V52.6079ZM38.7777 66.7741H30.857C30.5307 66.7741 30.2177 66.6445 29.987 66.4137C29.7562 66.183 29.6266 65.87 29.6266 65.5437V59.5671C29.6266 59.2407 29.7562 58.9278 29.987 58.697C30.2177 58.4663 30.5307 58.3366 30.857 58.3366H38.7777C39.1041 58.3366 39.417 58.4663 39.6478 58.697C39.8786 58.9278 40.0082 59.2407 40.0082 59.5671V65.5437C40.0082 65.87 39.8786 66.183 39.6478 66.4137C39.417 66.6445 39.1041 66.7741 38.7777 66.7741ZM32.0875 64.3132H37.5473V60.7976H32.0875V64.3132ZM38.7777 78.4776H30.857C30.5307 78.4776 30.2177 78.348 29.987 78.1172C29.7562 77.8865 29.6266 77.5735 29.6266 77.2472V71.2706C29.6266 70.9443 29.7562 70.6313 29.987 70.4005C30.2177 70.1698 30.5307 70.0401 30.857 70.0401H38.7777C39.1041 70.0401 39.417 70.1698 39.6478 70.4005C39.8786 70.6313 40.0082 70.9443 40.0082 71.2706V77.2472C40.0082 77.5735 39.8786 77.8865 39.6478 78.1172C39.417 78.348 39.1041 78.4776 38.7777 78.4776ZM32.0875 76.0167H37.5473V72.5011H32.0875V76.0167ZM24.9613 85.7813H6.44629C6.11995 85.7813 5.80697 85.6517 5.57622 85.421C5.34546 85.1902 5.21582 84.8772 5.21582 84.5509V21.8813C5.21601 21.6421 5.28595 21.4081 5.41707 21.208C5.5482 21.0078 5.73482 20.8503 5.9541 20.7546L24.4656 12.6687C24.6528 12.587 24.8574 12.5531 25.0609 12.5703C25.2644 12.5874 25.4604 12.6549 25.6314 12.7666C25.8023 12.8784 25.9427 13.031 26.0399 13.2106C26.1371 13.3902 26.1881 13.5912 26.1883 13.7954V84.5509C26.1883 84.8766 26.0591 85.1891 25.8291 85.4197C25.5991 85.6504 25.2871 85.7804 24.9613 85.7813ZM7.67676 83.3204H23.7309V15.6728L7.68027 22.6864L7.67676 83.3204Z" fill="url(#paint3_linear_539_2730)"/>
<path d="M18.974 27.0317H12.4297C12.1033 27.0317 11.7904 26.9021 11.5596 26.6713C11.3289 26.4406 11.1992 26.1276 11.1992 25.8013C11.1992 25.4749 11.3289 25.162 11.5596 24.9312C11.7904 24.7004 12.1033 24.5708 12.4297 24.5708H18.974C19.3004 24.5708 19.6133 24.7004 19.8441 24.9312C20.0749 25.162 20.2045 25.4749 20.2045 25.8013C20.2045 26.1276 20.0749 26.4406 19.8441 26.6713C19.6133 26.9021 19.3004 27.0317 18.974 27.0317ZM18.974 32.3579H12.4297C12.1033 32.3579 11.7904 32.2283 11.5596 31.9975C11.3289 31.7668 11.1992 31.4538 11.1992 31.1274C11.1992 30.8011 11.3289 30.4881 11.5596 30.2574C11.7904 30.0266 12.1033 29.897 12.4297 29.897H18.974C19.3004 29.897 19.6133 30.0266 19.8441 30.2574C20.0749 30.4881 20.2045 30.8011 20.2045 31.1274C20.2045 31.4538 20.0749 31.7668 19.8441 31.9975C19.6133 32.2283 19.3004 32.3579 18.974 32.3579ZM18.974 37.6858H12.4297C12.1033 37.6858 11.7904 37.5562 11.5596 37.3254C11.3289 37.0947 11.1992 36.7817 11.1992 36.4554C11.1992 36.129 11.3289 35.8161 11.5596 35.5853C11.7904 35.3545 12.1033 35.2249 12.4297 35.2249H18.974C19.3004 35.2249 19.6133 35.3545 19.8441 35.5853C20.0749 35.8161 20.2045 36.129 20.2045 36.4554C20.2045 36.7817 20.0749 37.0947 19.8441 37.3254C19.6133 37.5562 19.3004 37.6858 18.974 37.6858ZM18.974 43.0138H12.4297C12.1033 43.0138 11.7904 42.8841 11.5596 42.6534C11.3289 42.4226 11.1992 42.1096 11.1992 41.7833C11.1992 41.457 11.3289 41.144 11.5596 40.9132C11.7904 40.6825 12.1033 40.5528 12.4297 40.5528H18.974C19.3004 40.5528 19.6133 40.6825 19.8441 40.9132C20.0749 41.144 20.2045 41.457 20.2045 41.7833C20.2045 42.1096 20.0749 42.4226 19.8441 42.6534C19.6133 42.8841 19.3004 43.0138 18.974 43.0138ZM18.974 48.3399H12.4297C12.1033 48.3399 11.7904 48.2103 11.5596 47.9795C11.3289 47.7488 11.1992 47.4358 11.1992 47.1095C11.1992 46.7831 11.3289 46.4702 11.5596 46.2394C11.7904 46.0086 12.1033 45.879 12.4297 45.879H18.974C19.3004 45.879 19.6133 46.0086 19.8441 46.2394C20.0749 46.4702 20.2045 46.7831 20.2045 47.1095C20.2045 47.4358 20.0749 47.7488 19.8441 47.9795C19.6133 48.2103 19.3004 48.3399 18.974 48.3399ZM18.974 53.6679H12.4297C12.1033 53.6679 11.7904 53.5382 11.5596 53.3075C11.3289 53.0767 11.1992 52.7637 11.1992 52.4374C11.1992 52.1111 11.3289 51.7981 11.5596 51.5673C11.7904 51.3366 12.1033 51.2069 12.4297 51.2069H18.974C19.3004 51.2069 19.6133 51.3366 19.8441 51.5673C20.0749 51.7981 20.2045 52.1111 20.2045 52.4374C20.2045 52.7637 20.0749 53.0767 19.8441 53.3075C19.6133 53.5382 19.3004 53.6679 18.974 53.6679ZM18.974 58.994H12.4297C12.1033 58.994 11.7904 58.8644 11.5596 58.6336C11.3289 58.4029 11.1992 58.0899 11.1992 57.7636C11.1992 57.4372 11.3289 57.1243 11.5596 56.8935C11.7904 56.6627 12.1033 56.5331 12.4297 56.5331H18.974C19.3004 56.5331 19.6133 56.6627 19.8441 56.8935C20.0749 57.1243 20.2045 57.4372 20.2045 57.7636C20.2045 58.0899 20.0749 58.4029 19.8441 58.6336C19.6133 58.8644 19.3004 58.994 18.974 58.994ZM18.974 64.322H12.4297C12.1033 64.322 11.7904 64.1923 11.5596 63.9616C11.3289 63.7308 11.1992 63.4178 11.1992 63.0915C11.1992 62.7652 11.3289 62.4522 11.5596 62.2214C11.7904 61.9907 12.1033 61.861 12.4297 61.861H18.974C19.3004 61.861 19.6133 61.9907 19.8441 62.2214C20.0749 62.4522 20.2045 62.7652 20.2045 63.0915C20.2045 63.4178 20.0749 63.7308 19.8441 63.9616C19.6133 64.1923 19.3004 64.322 18.974 64.322ZM18.974 69.6499H12.4297C12.1033 69.6499 11.7904 69.5203 11.5596 69.2895C11.3289 69.0587 11.1992 68.7458 11.1992 68.4194C11.1992 68.0931 11.3289 67.7801 11.5596 67.5494C11.7904 67.3186 12.1033 67.189 12.4297 67.189H18.974C19.3004 67.189 19.6133 67.3186 19.8441 67.5494C20.0749 67.7801 20.2045 68.0931 20.2045 68.4194C20.2045 68.7458 20.0749 69.0587 19.8441 69.2895C19.6133 69.5203 19.3004 69.6499 18.974 69.6499ZM18.974 74.9761H12.4297C12.1033 74.9761 11.7904 74.8464 11.5596 74.6157C11.3289 74.3849 11.1992 74.0719 11.1992 73.7456C11.1992 73.4193 11.3289 73.1063 11.5596 72.8755C11.7904 72.6448 12.1033 72.5151 12.4297 72.5151H18.974C19.3004 72.5151 19.6133 72.6448 19.8441 72.8755C20.0749 73.1063 20.2045 73.4193 20.2045 73.7456C20.2045 74.0719 20.0749 74.3849 19.8441 74.6157C19.6133 74.8464 19.3004 74.9761 18.974 74.9761ZM18.974 80.304H12.4297C12.2681 80.304 12.1081 80.2722 11.9588 80.2103C11.8095 80.1485 11.6739 80.0579 11.5596 79.9436C11.4454 79.8293 11.3547 79.6937 11.2929 79.5444C11.231 79.3951 11.1992 79.2351 11.1992 79.0735C11.1992 78.9119 11.231 78.7519 11.2929 78.6027C11.3547 78.4534 11.4454 78.3177 11.5596 78.2035C11.6739 78.0892 11.8095 77.9986 11.9588 77.9367C12.1081 77.8749 12.2681 77.8431 12.4297 77.8431H18.974C19.3004 77.8431 19.6133 77.9727 19.8441 78.2035C20.0749 78.4342 20.2045 78.7472 20.2045 79.0735C20.2045 79.3999 20.0749 79.7128 19.8441 79.9436C19.6133 80.1744 19.3004 80.304 18.974 80.304ZM72.7965 25.1069H44.6715C44.3451 25.1069 44.0322 24.9773 43.8014 24.7465C43.5707 24.5158 43.441 24.2028 43.441 23.8765V11.2642C43.441 10.9378 43.5707 10.6248 43.8014 10.3941C44.0322 10.1633 44.3451 10.0337 44.6715 10.0337H72.7965C73.1228 10.0337 73.4358 10.1633 73.6666 10.3941C73.8973 10.6248 74.027 10.9378 74.027 11.2642V23.8765C74.027 24.2028 73.8973 24.5158 73.6666 24.7465C73.4358 24.9773 73.1228 25.1069 72.7965 25.1069ZM45.902 22.646H71.566V12.4946H45.902V22.646Z" fill="url(#paint4_linear_539_2730)"/>
<defs>
<linearGradient id="paint0_linear_539_2730" x1="64.1155" y1="22.646" x2="64.1155" y2="85.7813" gradientUnits="userSpaceOnUse">
<stop stop-color="#72C7D8"/>
<stop offset="0.489583" stop-color="#26519A"/>
<stop offset="1" stop-color="#41A575"/>
</linearGradient>
<linearGradient id="paint1_linear_539_2730" x1="64.1136" y1="67.0835" x2="64.1136" y2="85.7813" gradientUnits="userSpaceOnUse">
<stop stop-color="#72C7D8"/>
<stop offset="0.489583" stop-color="#26519A"/>
<stop offset="1" stop-color="#41A575"/>
</linearGradient>
<linearGradient id="paint2_linear_539_2730" x1="51.4485" y1="4.21875" x2="51.4485" y2="85.7812" gradientUnits="userSpaceOnUse">
<stop stop-color="#72C7D8"/>
<stop offset="0.489583" stop-color="#26519A"/>
<stop offset="1" stop-color="#41A575"/>
</linearGradient>
<linearGradient id="paint3_linear_539_2730" x1="22.612" y1="11.519" x2="22.612" y2="85.7813" gradientUnits="userSpaceOnUse">
<stop stop-color="#72C7D8"/>
<stop offset="0.489583" stop-color="#26519A"/>
<stop offset="1" stop-color="#41A575"/>
</linearGradient>
<linearGradient id="paint4_linear_539_2730" x1="42.6131" y1="10.0337" x2="42.6131" y2="80.304" gradientUnits="userSpaceOnUse">
<stop stop-color="#72C7D8"/>
<stop offset="0.489583" stop-color="#26519A"/>
<stop offset="1" stop-color="#41A575"/>
</linearGradient>
</defs>
</svg>
