<svg width="90" height="90" viewBox="0 0 90 90" fill="none" xmlns="http://www.w3.org/2000/svg">
<path d="M45 11.25C44.627 11.25 44.2694 11.3982 44.0056 11.6619C43.7419 11.9256 43.5938 12.2833 43.5938 12.6562V73.125C43.5938 73.498 43.7419 73.8556 44.0056 74.1194C44.2694 74.3831 44.627 74.5312 45 74.5312C45.373 74.5312 45.7306 74.3831 45.9944 74.1194C46.2581 73.8556 46.4062 73.498 46.4062 73.125V12.6562C46.4062 12.2833 46.2581 11.9256 45.9944 11.6619C45.7306 11.3982 45.373 11.25 45 11.25ZM37.9688 40.7812C37.5958 40.7812 37.2381 40.9294 36.9744 41.1931C36.7107 41.4569 36.5625 41.8145 36.5625 42.1875V43.5938C36.5625 43.9667 36.7107 44.3244 36.9744 44.5881C37.2381 44.8518 37.5958 45 37.9688 45C38.3417 45 38.6994 44.8518 38.9631 44.5881C39.2268 44.3244 39.375 43.9667 39.375 43.5938V42.1875C39.375 41.8145 39.2268 41.4569 38.9631 41.1931C38.6994 40.9294 38.3417 40.7812 37.9688 40.7812ZM49.2188 26.7188V28.125C49.2188 28.498 49.3669 28.8556 49.6306 29.1194C49.8944 29.3831 50.252 29.5312 50.625 29.5312C50.998 29.5312 51.3556 29.3831 51.6194 29.1194C51.8831 28.8556 52.0312 28.498 52.0312 28.125V26.7188C52.0312 26.3458 51.8831 25.9881 51.6194 25.7244C51.3556 25.4607 50.998 25.3125 50.625 25.3125C50.252 25.3125 49.8944 25.4607 49.6306 25.7244C49.3669 25.9881 49.2188 26.3458 49.2188 26.7188ZM21.0938 36.5625C19.6019 36.5625 18.1712 37.1551 17.1163 38.21C16.0614 39.2649 15.4688 40.6957 15.4688 42.1875C15.4688 42.5605 15.6169 42.9181 15.8806 43.1819C16.1444 43.4456 16.502 43.5938 16.875 43.5938C17.248 43.5938 17.6056 43.4456 17.8694 43.1819C18.1331 42.9181 18.2812 42.5605 18.2812 42.1875C18.2812 41.6312 18.4462 41.0875 18.7552 40.625C19.0643 40.1624 19.5035 39.802 20.0175 39.5891C20.5314 39.3762 21.0969 39.3205 21.6424 39.429C22.188 39.5376 22.6892 39.8054 23.0825 40.1988C23.4758 40.5921 23.7437 41.0932 23.8522 41.6388C23.9607 42.1844 23.905 42.7499 23.6922 43.2638C23.4793 43.7777 23.1188 44.217 22.6563 44.526C22.1938 44.835 21.65 45 21.0938 45C20.7208 45 20.3631 45.1482 20.0994 45.4119C19.8357 45.6756 19.6875 46.0333 19.6875 46.4062C19.6875 46.7792 19.8357 47.1369 20.0994 47.4006C20.3631 47.6643 20.7208 47.8125 21.0938 47.8125C22.5856 47.8125 24.0163 47.2199 25.0712 46.165C26.1261 45.1101 26.7188 43.6793 26.7188 42.1875C26.7188 40.6957 26.1261 39.2649 25.0712 38.21C24.0163 37.1551 22.5856 36.5625 21.0938 36.5625ZM64.6875 52.0312C65.0605 52.0312 65.4181 51.8831 65.6819 51.6194C65.9456 51.3556 66.0938 50.998 66.0938 50.625C66.0938 50.252 65.9456 49.8944 65.6819 49.6306C65.4181 49.3669 65.0605 49.2188 64.6875 49.2188C63.9416 49.2188 63.2262 48.9224 62.6988 48.395C62.1713 47.8675 61.875 47.1522 61.875 46.4062C61.875 45.6603 62.1713 44.945 62.6988 44.4175C63.2262 43.8901 63.9416 43.5938 64.6875 43.5938C65.0605 43.5938 65.4181 43.4456 65.6819 43.1819C65.9456 42.9181 66.0938 42.5605 66.0938 42.1875C66.0938 41.8145 65.9456 41.4569 65.6819 41.1931C65.4181 40.9294 65.0605 40.7812 64.6875 40.7812C63.1957 40.7812 61.7649 41.3739 60.71 42.4288C59.6551 43.4837 59.0625 44.9144 59.0625 46.4062C59.0625 47.8981 59.6551 49.3288 60.71 50.3837C61.7649 51.4386 63.1957 52.0312 64.6875 52.0312ZM52.0312 54.8438H50.625C50.252 54.8438 49.8944 54.9919 49.6306 55.2556C49.3669 55.5194 49.2188 55.877 49.2188 56.25C49.2188 56.623 49.3669 56.9806 49.6306 57.2444C49.8944 57.5081 50.252 57.6562 50.625 57.6562H52.0312C52.4042 57.6562 52.7619 57.5081 53.0256 57.2444C53.2893 56.9806 53.4375 56.623 53.4375 56.25C53.4375 55.877 53.2893 55.5194 53.0256 55.2556C52.7619 54.9919 52.4042 54.8438 52.0312 54.8438ZM57.0305 40.545C57.1841 40.4425 57.3161 40.3108 57.4188 40.1573C57.5215 40.0038 57.593 39.8316 57.6292 39.6504C57.6654 39.4693 57.6655 39.2829 57.6296 39.1017C57.5937 38.9205 57.5225 38.7482 57.42 38.5945C57.3175 38.4409 57.1858 38.3089 57.0323 38.2062C56.8788 38.1035 56.7066 38.032 56.5254 37.9958C56.3443 37.9596 56.1579 37.9595 55.9767 37.9954C55.7955 38.0313 55.6232 38.1025 55.4695 38.205L55.0083 38.513C53.6586 39.4104 52.552 40.6279 51.7872 42.057C51.0223 43.486 50.6231 45.0821 50.625 46.703V47.8125C50.625 48.1855 50.7732 48.5431 51.0369 48.8069C51.3006 49.0706 51.6583 49.2188 52.0312 49.2188C52.4042 49.2188 52.7619 49.0706 53.0256 48.8069C53.2893 48.5431 53.4375 48.1855 53.4375 47.8125V46.703C53.4361 45.5451 53.7214 44.405 54.2679 43.3842C54.8143 42.3635 55.6049 41.4939 56.5692 40.853L57.0305 40.545ZM52.0312 14.0625C52.0312 14.4355 52.1794 14.7931 52.4431 15.0569C52.7069 15.3206 53.0645 15.4688 53.4375 15.4688C53.8105 15.4688 54.1681 15.3206 54.4319 15.0569C54.6956 14.7931 54.8438 14.4355 54.8438 14.0625C54.8438 12.5707 54.2511 11.1399 53.1962 10.085C52.1413 9.03013 50.7106 8.4375 49.2188 8.4375C48.8458 8.4375 48.4881 8.58566 48.2244 8.84938C47.9607 9.1131 47.8125 9.47079 47.8125 9.84375C47.8125 10.2167 47.9607 10.5744 48.2244 10.8381C48.4881 11.1018 48.8458 11.25 49.2188 11.25C49.9647 11.25 50.68 11.5463 51.2075 12.0738C51.7349 12.6012 52.0312 13.3166 52.0312 14.0625ZM29.5312 63.2812C29.9042 63.2812 30.2619 63.1331 30.5256 62.8694C30.7893 62.6056 30.9375 62.248 30.9375 61.875C30.9375 61.502 30.7893 61.1444 30.5256 60.8806C30.2619 60.6169 29.9042 60.4688 29.5312 60.4688C28.4124 60.4688 27.3393 60.9132 26.5481 61.7044C25.757 62.4956 25.3125 63.5686 25.3125 64.6875C25.3125 65.8064 25.757 66.8794 26.5481 67.6706C27.3393 68.4618 28.4124 68.9062 29.5312 68.9062C29.9042 68.9062 30.2619 68.7581 30.5256 68.4944C30.7893 68.2306 30.9375 67.873 30.9375 67.5C30.9375 67.127 30.7893 66.7694 30.5256 66.5056C30.2619 66.2419 29.9042 66.0938 29.5312 66.0938C29.1583 66.0938 28.8006 65.9456 28.5369 65.6819C28.2732 65.4181 28.125 65.0605 28.125 64.6875C28.125 64.3145 28.2732 63.9569 28.5369 63.6931C28.8006 63.4294 29.1583 63.2812 29.5312 63.2812Z" fill="url(#paint0_linear_542_2804)"/>
<path d="M81.5621 75.9376C80.3187 75.9422 79.1118 76.3588 78.1302 77.1221C77.1486 77.8854 76.4476 78.9524 76.1368 80.1563H63.2808V74.1221C65.082 73.5858 66.6917 72.5446 67.9194 71.1218C69.1471 69.699 69.9413 67.9541 70.208 66.0938H70.3121C71.6208 66.0969 72.9122 65.7948 74.0838 65.2114C75.2553 64.6281 76.2747 63.7797 77.061 62.7335C77.8473 61.6873 78.3788 60.4721 78.6133 59.1846C78.8479 57.8971 78.779 56.5726 78.4121 55.3163C79.8513 54.0115 81.0006 52.419 81.7855 50.6419C82.5703 48.8648 82.9733 46.9428 82.9683 45.0001C82.9647 42.3824 82.2306 39.8177 80.8485 37.5946C79.4664 35.3716 77.4913 33.5784 75.1454 32.417C76.3022 30.7175 77.0272 28.7617 77.2576 26.7188H81.5621C81.9351 26.7188 82.2927 26.5707 82.5565 26.3069C82.8202 26.0432 82.9683 25.6855 82.9683 25.3126V13.8629C84.294 13.5206 85.4492 12.7066 86.2176 11.5735C86.986 10.4404 87.3148 9.06591 87.1423 7.70773C86.9697 6.34955 86.3078 5.10092 85.2805 4.19587C84.2533 3.29082 82.9312 2.7915 81.5621 2.7915C80.193 2.7915 78.8709 3.29082 77.8436 4.19587C76.8164 5.10092 76.1544 6.34955 75.9819 7.70773C75.8094 9.06591 76.1382 10.4404 76.9066 11.5735C77.6749 12.7066 78.8302 13.5206 80.1558 13.8629V23.9063H77.2604C77.0681 22.126 76.4987 20.407 75.5901 18.864C74.6815 17.3209 73.4545 15.9892 71.9909 14.9575C70.5273 13.9258 68.8607 13.2177 67.102 12.8806C65.3433 12.5435 63.533 12.5849 61.7916 13.0023C61.7747 12.8068 61.7846 12.6141 61.7565 12.4187C61.3849 9.9572 60.211 7.6873 58.417 5.96147C56.623 4.23563 54.3094 3.15045 51.8354 2.87445C49.4604 2.61238 47.0641 3.12013 44.9996 4.32289C42.9338 3.11943 40.5359 2.61166 38.1596 2.87445C35.638 3.15026 33.2832 4.26903 31.4766 6.04965C29.6699 7.83027 28.5171 10.1685 28.2047 12.6859C28.1921 12.7899 28.1907 12.8926 28.1808 12.9966C27.2409 12.773 26.2783 12.6588 25.3121 12.6563V8.43757C25.3121 8.06461 25.1639 7.70693 24.9002 7.44321C24.6365 7.17948 24.2788 7.03132 23.9058 7.03132H13.8624C13.5201 5.70571 12.7061 4.55043 11.573 3.78204C10.4399 3.01365 9.06542 2.6849 7.70724 2.85741C6.34907 3.02992 5.10043 3.69185 4.19538 4.71912C3.29034 5.7464 2.79102 7.06849 2.79102 8.43757C2.79102 9.80666 3.29034 11.1288 4.19538 12.156C5.10043 13.1833 6.34907 13.8452 7.70724 14.0177C9.06542 14.1903 10.4399 13.8615 11.573 13.0931C12.7061 12.3247 13.5201 11.1694 13.8624 9.84382H22.4996V12.9826C20.4909 13.4365 18.6237 14.3749 17.0608 15.7158C15.4979 17.0568 14.2867 18.7597 13.5327 20.6761C12.7788 22.5924 12.505 24.6641 12.7353 26.7105C12.9656 28.757 13.6929 30.716 14.8538 32.417C12.5079 33.5784 10.5328 35.3716 9.15068 37.5946C7.7686 39.8177 7.03444 42.3824 7.03084 45.0001C7.02637 46.9429 7.42958 48.865 8.21441 50.6423C8.99923 52.4195 10.1482 54.0123 11.5871 55.3177C11.365 56.0775 11.2514 56.8648 11.2496 57.6563H8.43709C8.06413 57.6563 7.70644 57.8045 7.44272 58.0682C7.17899 58.3319 7.03084 58.6896 7.03084 59.0626V76.1373C5.70522 76.4795 4.54994 77.2935 3.78155 78.4267C3.01316 79.5598 2.68441 80.9342 2.85692 82.2924C3.02943 83.6506 3.69136 84.8992 4.71863 85.8043C5.74591 86.7093 7.068 87.2086 8.43709 87.2086C9.80617 87.2086 11.1283 86.7093 12.1555 85.8043C13.1828 84.8992 13.8447 83.6506 14.0173 82.2924C14.1898 80.9342 13.861 79.5598 13.0926 78.4267C12.3242 77.2935 11.1689 76.4795 9.84334 76.1373V60.4688H11.7418C12.3228 62.1123 13.3987 63.5355 14.8214 64.5427C16.2441 65.55 17.9439 66.0918 19.6871 66.0938C19.7251 66.0938 19.756 66.084 19.794 66.084C19.9932 67.4868 20.4935 68.8299 21.2604 70.0213C22.0272 71.2127 23.0427 72.2242 24.237 72.9864C25.4314 73.7487 26.7764 74.2437 28.18 74.4376C29.5835 74.6314 31.0124 74.5195 32.3686 74.1095C32.3686 74.2501 32.3433 74.3907 32.3433 74.5313C32.3433 77.888 33.6768 81.1071 36.0503 83.4806C38.4238 85.8541 41.6429 87.1876 44.9996 87.1876C48.3562 87.1876 51.5754 85.8541 53.9489 83.4806C56.3224 81.1071 57.6558 77.888 57.6558 74.5313C57.6558 74.3907 57.6362 74.2501 57.6319 74.1095C58.5516 74.3884 59.5073 74.5305 60.4683 74.5313V81.5626C60.4683 81.9355 60.6165 82.2932 60.8802 82.5569C61.1439 82.8207 61.5016 82.9688 61.8746 82.9688H76.1368C76.4016 83.9849 76.946 84.9064 77.7082 85.6286C78.4704 86.3509 79.4198 86.8449 80.4487 87.0547C81.4776 87.2645 82.5447 87.1815 83.5288 86.8153C84.5129 86.4491 85.3746 85.8143 86.016 84.983C86.6575 84.1516 87.053 83.1571 87.1576 82.1123C87.2623 81.0675 87.0719 80.0142 86.608 79.0722C86.1441 78.1302 85.4254 77.3371 84.5335 76.783C83.6416 76.2289 82.6121 75.936 81.5621 75.9376ZM78.7496 8.43757C78.7496 7.88131 78.9145 7.33755 79.2236 6.87503C79.5326 6.41252 79.9719 6.05203 80.4858 5.83916C80.9997 5.62629 81.5652 5.57059 82.1108 5.67912C82.6563 5.78764 83.1575 6.0555 83.5508 6.44884C83.9442 6.84217 84.212 7.34331 84.3205 7.88888C84.4291 8.43445 84.3734 8.99995 84.1605 9.51387C83.9476 10.0278 83.5871 10.467 83.1246 10.7761C82.6621 11.0851 82.1183 11.2501 81.5621 11.2501C80.8162 11.2501 80.1008 10.9538 79.5733 10.4263C79.0459 9.89887 78.7496 9.1835 78.7496 8.43757ZM8.43709 11.2501C7.88083 11.2501 7.33706 11.0851 6.87454 10.7761C6.41203 10.467 6.05155 10.0278 5.83867 9.51387C5.6258 8.99995 5.57011 8.43445 5.67863 7.88888C5.78715 7.34331 6.05501 6.84217 6.44835 6.44884C6.84168 6.0555 7.34282 5.78764 7.88839 5.67912C8.43397 5.57059 8.99947 5.62629 9.51338 5.83916C10.0273 6.05203 10.4666 6.41252 10.7756 6.87503C11.0846 7.33755 11.2496 7.88131 11.2496 8.43757C11.2496 9.1835 10.9533 9.89887 10.4258 10.4263C9.89838 10.9538 9.18301 11.2501 8.43709 11.2501ZM11.2496 81.5626C11.2496 82.1188 11.0846 82.6626 10.7756 83.1251C10.4666 83.5876 10.0273 83.9481 9.51338 84.161C8.99947 84.3739 8.43397 84.4296 7.88839 84.321C7.34282 84.2125 6.84168 83.9446 6.44835 83.5513C6.05501 83.158 5.78715 82.6568 5.67863 82.1113C5.57011 81.5657 5.6258 81.0002 5.83867 80.4863C6.05155 79.9724 6.41203 79.5331 6.87454 79.2241C7.33706 78.915 7.88083 78.7501 8.43709 78.7501C9.18301 78.7501 9.89838 79.0464 10.4258 79.5738C10.9533 80.1013 11.2496 80.8167 11.2496 81.5626ZM56.8121 70.6909C56.7673 70.6543 56.7203 70.6205 56.6715 70.5896C55.8108 70.0435 55.0811 69.3144 54.5342 68.4542C53.9874 67.594 53.6368 66.6239 53.5074 65.6129C53.4612 65.3066 53.4377 64.9973 53.4371 64.6876C53.4371 64.3146 53.2889 63.9569 53.0252 63.6932C52.7615 63.4295 52.4038 63.2813 52.0308 63.2813C51.6579 63.2813 51.3002 63.4295 51.0365 63.6932C50.7727 63.9569 50.6246 64.3146 50.6246 64.6876C50.6234 65.129 50.6549 65.5699 50.7188 66.0066C50.891 67.3116 51.3268 68.5679 51.9999 69.699C52.6729 70.8302 53.5691 71.8126 54.6338 72.5865C54.7694 73.226 54.8396 73.8776 54.8433 74.5313C54.8433 77.1421 53.8062 79.6459 51.9602 81.4919C50.1141 83.338 47.6103 84.3751 44.9996 84.3751C42.3889 84.3751 39.8851 83.338 38.039 81.4919C36.1929 79.6459 35.1558 77.1421 35.1558 74.5313C35.1599 73.882 35.2292 73.2347 35.3626 72.5991C36.605 71.6876 37.6156 70.4964 38.3125 69.122C39.0095 67.7477 39.3733 66.2286 39.3746 64.6876C39.3746 64.3146 39.2264 63.9569 38.9627 63.6932C38.699 63.4295 38.3413 63.2813 37.9683 63.2813C37.5954 63.2813 37.2377 63.4295 36.974 63.6932C36.7102 63.9569 36.5621 64.3146 36.5621 64.6876C36.5478 65.6109 36.3517 66.5224 35.9852 67.37C35.6186 68.2176 35.0886 68.9847 34.4256 69.6275C33.7626 70.2703 32.9794 70.7762 32.1209 71.1163C31.2623 71.4565 30.3452 71.6242 29.4219 71.6098C28.4985 71.5955 27.587 71.3995 26.7394 71.0329C25.8918 70.6663 25.1247 70.1364 24.4819 69.4734C23.8391 68.8103 23.3332 68.0272 22.9931 67.1686C22.653 66.3101 22.4853 65.393 22.4996 64.4696C22.6173 62.602 23.4504 60.8516 24.8258 59.5826C26.2011 58.3136 28.0127 57.6237 29.8838 57.6563H32.3433C34.2075 57.6541 35.9946 56.9126 37.3127 55.5945C38.6308 54.2763 39.3724 52.4892 39.3746 50.6251V49.2188C39.3746 48.8459 39.2264 48.4882 38.9627 48.2245C38.699 47.9607 38.3413 47.8126 37.9683 47.8126C37.5954 47.8126 37.2377 47.9607 36.974 48.2245C36.7102 48.4882 36.5621 48.8459 36.5621 49.2188V50.6251C36.5621 51.744 36.1176 52.817 35.3264 53.6082C34.5353 54.3993 33.4622 54.8438 32.3433 54.8438H29.8838C27.4774 54.8271 25.1432 55.6648 23.2966 57.2078C21.4499 58.7508 20.2108 60.899 19.7996 63.2701C19.7588 63.2701 19.7279 63.2813 19.6871 63.2813C18.7041 63.2782 17.7392 63.0167 16.8892 62.5231C16.0392 62.0295 15.3338 61.321 14.844 60.4688H16.8746C17.2475 60.4688 17.6052 60.3207 17.869 60.0569C18.1327 59.7932 18.2808 59.4355 18.2808 59.0626C18.2808 58.6896 18.1327 58.3319 17.869 58.0682C17.6052 57.8045 17.2475 57.6563 16.8746 57.6563H14.0621C14.0621 56.1645 14.6547 54.7337 15.7096 53.6789C16.7645 52.624 18.1952 52.0313 19.6871 52.0313C20.06 52.0313 20.4177 51.8832 20.6815 51.6194C20.9452 51.3557 21.0933 50.998 21.0933 50.6251C21.0933 50.2521 20.9452 49.8944 20.6815 49.6307C20.4177 49.367 20.06 49.2188 19.6871 49.2188C18.363 49.2201 17.0578 49.5335 15.8774 50.1336C14.6971 50.7337 13.6748 51.6035 12.8935 52.6726C10.9289 50.6019 9.83663 47.8545 9.84334 45.0001C9.84694 42.6352 10.5949 40.3315 11.9811 38.4155C13.3673 36.4995 15.3214 35.0684 17.5665 34.3252L17.634 34.2999C19.5399 33.6803 21.5771 33.5823 23.5337 34.0164C25.4903 34.4504 27.295 35.4005 28.7602 36.7679C28.8944 36.8984 29.0533 37.0009 29.2276 37.0692C29.402 37.1375 29.5882 37.1703 29.7753 37.1657C29.9625 37.1611 30.1469 37.1192 30.3176 37.0424C30.4884 36.9656 30.6421 36.8555 30.7697 36.7185C30.8973 36.5815 30.9963 36.4204 31.0608 36.2447C31.1254 36.0689 31.1542 35.882 31.1455 35.695C31.1369 35.508 31.091 35.3246 31.0105 35.1555C30.9301 34.9865 30.8166 34.8352 30.6769 34.7105C28.953 33.0938 26.8465 31.9417 24.5552 31.3624C22.2638 30.7831 19.8629 30.7956 17.5777 31.3988C16.5851 30.138 15.9162 28.6534 15.6293 27.0746C15.3423 25.4958 15.4461 23.8707 15.9315 22.3413C16.4169 20.8118 17.2692 19.4243 18.4141 18.2999C19.559 17.1756 20.9616 16.3484 22.4996 15.8907V25.3126C22.4996 25.6855 22.6477 26.0432 22.9115 26.3069C23.1752 26.5707 23.5329 26.7188 23.9058 26.7188C24.2788 26.7188 24.6365 26.5707 24.9002 26.3069C25.1639 26.0432 25.3121 25.6855 25.3121 25.3126V15.4688C26.3267 15.468 27.3352 15.627 28.3004 15.9399C28.623 17.8354 29.4246 19.6171 30.6291 21.1159C31.8335 22.6147 33.4009 23.7809 35.1826 24.504C35.9794 24.7947 36.6707 25.3176 37.1673 26.0052C37.6639 26.6928 37.9429 27.5135 37.9683 28.3613V30.9376C37.9683 31.3105 38.1165 31.6682 38.3802 31.9319C38.6439 32.1957 39.0016 32.3438 39.3746 32.3438C39.7475 32.3438 40.1052 32.1957 40.369 31.9319C40.6327 31.6682 40.7808 31.3105 40.7808 30.9376V28.3613C40.7587 26.9512 40.3131 25.5803 39.5019 24.4268C38.6906 23.2732 37.5512 22.3902 36.2316 21.8926C34.4843 21.1933 33.021 19.9299 32.0743 18.3033C31.1276 16.6766 30.7519 14.7802 31.007 12.9155C31.2621 11.0508 32.1333 9.32496 33.4821 8.01236C34.8308 6.69976 36.5798 5.87579 38.4507 5.67148C40.4811 5.44448 42.5243 5.96818 44.1952 7.14382C44.4312 7.30837 44.7119 7.39659 44.9996 7.39659C45.2873 7.39659 45.568 7.30837 45.804 7.14382C46.7612 6.47352 47.8471 6.00936 48.9931 5.78074C50.1391 5.55212 51.3201 5.56404 52.4612 5.81573C53.6023 6.06742 54.6787 6.55341 55.6222 7.24289C56.5657 7.93237 57.3556 8.81031 57.942 9.82108C58.5285 10.8318 58.8985 11.9534 59.0288 13.1147C59.159 14.2759 59.0466 15.4516 58.6987 16.5672C58.3508 17.6827 57.775 18.7139 57.0077 19.5953C56.2405 20.4766 55.2985 21.189 54.2415 21.6873C53.9045 21.8476 53.645 22.1353 53.5202 22.487C53.3953 22.8386 53.4152 23.2255 53.5756 23.5625C53.736 23.8995 54.0236 24.1589 54.3753 24.2838C54.727 24.4087 55.1139 24.3887 55.4508 24.2284C57.086 23.4528 58.5092 22.2932 59.5991 20.8484C60.6891 19.4037 61.4133 17.7167 61.7101 15.9315C62.6721 15.6225 63.6767 15.4664 64.6871 15.4688C67.0522 15.4716 69.3372 16.3258 71.1242 17.8752C72.9111 19.4245 74.0805 21.5655 74.4183 23.9063H64.6871C64.3141 23.9063 63.9564 24.0545 63.6927 24.3182C63.429 24.5819 63.2808 24.9396 63.2808 25.3126C63.2808 25.6855 63.429 26.0432 63.6927 26.3069C63.9564 26.5707 64.3141 26.7188 64.6871 26.7188H74.4197C74.1749 28.4269 73.4858 30.0407 72.4215 31.3988C70.1367 30.7961 67.7363 30.7839 65.4455 31.3631C63.1547 31.9424 61.0487 33.0942 59.3251 34.7105C59.1853 34.8352 59.0719 34.9865 58.9915 35.1555C58.911 35.3246 58.8651 35.508 58.8565 35.695C58.8478 35.882 58.8766 36.0689 58.9412 36.2447C59.0057 36.4204 59.1047 36.5815 59.2323 36.7185C59.3599 36.8555 59.5136 36.9656 59.6844 37.0424C59.8551 37.1192 60.0395 37.1611 60.2267 37.1657C60.4138 37.1703 60.6 37.1375 60.7743 37.0692C60.9487 37.0009 61.1076 36.8984 61.2418 36.7679C62.707 35.4005 64.5117 34.4504 66.4683 34.0164C68.4249 33.5823 70.4621 33.6803 72.368 34.2999C72.3905 34.3098 72.413 34.3168 72.4369 34.3252C74.6811 35.0693 76.6342 36.5007 78.0196 38.4166C79.4049 40.3325 80.1523 42.6358 80.1558 45.0001C80.1622 47.8546 79.0694 50.6021 77.1043 52.6726C76.3233 51.6035 75.3013 50.7336 74.1212 50.1335C72.941 49.5334 71.636 49.22 70.3121 49.2188C69.9391 49.2188 69.5814 49.367 69.3177 49.6307C69.054 49.8944 68.9058 50.2521 68.9058 50.6251C68.9058 50.998 69.054 51.3557 69.3177 51.6194C69.5814 51.8832 69.9391 52.0313 70.3121 52.0313C71.8039 52.0313 73.2347 52.624 74.2896 53.6789C75.3445 54.7337 75.9371 56.1645 75.9371 57.6563C75.9371 59.1482 75.3445 60.5789 74.2896 61.6338C73.2347 62.6887 71.8039 63.2813 70.3121 63.2813C70.2727 63.2813 70.2432 63.2715 70.2038 63.2701C69.7912 60.8992 68.5513 58.7514 66.7044 57.2086C64.8574 55.6657 62.5233 54.8278 60.1168 54.8438H57.6558C57.2829 54.8438 56.9252 54.992 56.6615 55.2557C56.3977 55.5194 56.2496 55.8771 56.2496 56.2501C56.2496 56.623 56.3977 56.9807 56.6615 57.2444C56.9252 57.5082 57.2829 57.6563 57.6558 57.6563H60.1168C61.9883 57.6248 63.8 58.3159 65.175 59.5859C66.55 60.8559 67.3826 62.6071 67.4996 64.4752V64.554C67.5292 65.9451 67.1438 67.3136 66.3924 68.4847C65.641 69.6559 64.5577 70.5767 63.2808 71.1296V66.0938C63.2808 65.7209 63.1327 65.3632 62.869 65.0995C62.6052 64.8357 62.2475 64.6876 61.8746 64.6876C61.5016 64.6876 61.1439 64.8357 60.8802 65.0995C60.6165 65.3632 60.4683 65.7209 60.4683 66.0938V71.7188C59.178 71.7205 57.9125 71.3646 56.8121 70.6909ZM81.5621 84.3751C81.0058 84.3751 80.4621 84.2101 79.9995 83.9011C79.537 83.592 79.1765 83.1528 78.9637 82.6389C78.7508 82.125 78.6951 81.5595 78.8036 81.0139C78.9121 80.4683 79.18 79.9672 79.5733 79.5738C79.9667 79.1805 80.4678 78.9126 81.0134 78.8041C81.559 78.6956 82.1245 78.7513 82.6384 78.9642C83.1523 79.177 83.5916 79.5375 83.9006 80C84.2096 80.4625 84.3746 81.0063 84.3746 81.5626C84.3746 82.3085 84.0783 83.0239 83.5508 83.5513C83.0234 84.0788 82.308 84.3751 81.5621 84.3751Z" fill="url(#paint1_linear_542_2804)"/>
<path d="M39.375 16.875C38.6291 16.875 37.9137 16.5787 37.3863 16.0512C36.8588 15.5238 36.5625 14.8084 36.5625 14.0625C36.5625 13.6895 36.4143 13.3319 36.1506 13.0681C35.8869 12.8044 35.5292 12.6562 35.1562 12.6562C34.7833 12.6562 34.4256 12.8044 34.1619 13.0681C33.8982 13.3319 33.75 13.6895 33.75 14.0625C33.75 15.5543 34.3426 16.9851 35.3975 18.04C36.4524 19.0949 37.8832 19.6875 39.375 19.6875C39.748 19.6875 40.1056 19.5393 40.3694 19.2756C40.6331 19.0119 40.7812 18.6542 40.7812 18.2812C40.7812 17.9083 40.6331 17.5506 40.3694 17.2869C40.1056 17.0232 39.748 16.875 39.375 16.875ZM70.3125 40.7812C71.0584 40.7812 71.7738 41.0776 72.3012 41.605C72.8287 42.1325 73.125 42.8478 73.125 43.5938C73.125 43.9667 73.2732 44.3244 73.5369 44.5881C73.8006 44.8518 74.1583 45 74.5312 45C74.9042 45 75.2619 44.8518 75.5256 44.5881C75.7893 44.3244 75.9375 43.9667 75.9375 43.5938C75.9375 42.1019 75.3449 40.6712 74.29 39.6163C73.2351 38.5614 71.8043 37.9688 70.3125 37.9688C69.9395 37.9688 69.5819 38.1169 69.3181 38.3806C69.0544 38.6444 68.9062 39.002 68.9062 39.375C68.9062 39.748 69.0544 40.1056 69.3181 40.3694C69.5819 40.6331 69.9395 40.7812 70.3125 40.7812ZM45 77.3438C44.627 77.3438 44.2694 77.4919 44.0056 77.7556C43.7419 78.0194 43.5938 78.377 43.5938 78.75V80.1562C43.5938 80.5292 43.7419 80.8869 44.0056 81.1506C44.2694 81.4143 44.627 81.5625 45 81.5625C45.373 81.5625 45.7306 81.4143 45.9944 81.1506C46.2581 80.8869 46.4062 80.5292 46.4062 80.1562V78.75C46.4062 78.377 46.2581 78.0194 45.9944 77.7556C45.7306 77.4919 45.373 77.3438 45 77.3438Z" fill="url(#paint2_linear_542_2804)"/>
<defs>
<linearGradient id="paint0_linear_542_2804" x1="40.7812" y1="8.4375" x2="40.7813" y2="74.5312" gradientUnits="userSpaceOnUse">
<stop stop-color="#72C7D8"/>
<stop offset="0.489583" stop-color="#26519A"/>
<stop offset="1" stop-color="#41A575"/>
</linearGradient>
<linearGradient id="paint1_linear_542_2804" x1="44.9891" y1="2.7915" x2="44.9891" y2="87.2086" gradientUnits="userSpaceOnUse">
<stop stop-color="#72C7D8"/>
<stop offset="0.489583" stop-color="#26519A"/>
<stop offset="1" stop-color="#41A575"/>
</linearGradient>
<linearGradient id="paint2_linear_542_2804" x1="54.8438" y1="12.6562" x2="54.8438" y2="81.5625" gradientUnits="userSpaceOnUse">
<stop stop-color="#72C7D8"/>
<stop offset="0.489583" stop-color="#26519A"/>
<stop offset="1" stop-color="#41A575"/>
</linearGradient>
</defs>
</svg>
