<svg width="90" height="90" viewBox="0 0 90 90" fill="none" xmlns="http://www.w3.org/2000/svg">
<path d="M45 54.8438C50.4267 54.8438 54.8438 50.4267 54.8438 45C54.8438 39.5719 50.4267 35.1562 45 35.1562C39.5733 35.1562 35.1562 39.5719 35.1562 45C35.1562 50.4267 39.5733 54.8438 45 54.8438ZM45 37.9688C48.877 37.9688 52.0312 41.123 52.0312 45C52.0312 48.877 48.877 52.0312 45 52.0312C41.123 52.0312 37.9688 48.877 37.9688 45C37.9688 41.123 41.123 37.9688 45 37.9688ZM43.5938 23.9062H46.4062V26.7188H43.5938V23.9062ZM71.7188 52.0312H74.5312V54.8438H71.7188V52.0312ZM15.4688 52.0312H18.2812V54.8438H15.4688V52.0312Z" fill="url(#paint0_linear_542_3158)"/>
<path d="M58.1119 71.4516C63.1678 68.9418 67.3995 65.037 70.3069 60.1987C71.2223 60.3689 72.1617 60.4688 73.125 60.4688C81.6539 60.4688 88.5938 53.5289 88.5938 45C88.5938 36.4711 81.6539 29.5312 73.125 29.5312C72.1603 29.5312 71.2195 29.6311 70.3041 29.8012C67.8124 25.6573 64.3427 22.1876 60.1987 19.6959C60.3689 18.7805 60.4688 17.8397 60.4688 16.875C60.4688 8.34609 53.5289 1.40625 45 1.40625C36.4711 1.40625 29.5312 8.34609 29.5312 16.875C29.5312 17.8397 29.6311 18.7805 29.8012 19.6959C25.6573 22.1876 22.1876 25.6573 19.6959 29.8012C18.7659 29.6248 17.8216 29.5344 16.875 29.5312C8.34609 29.5312 1.40625 36.4711 1.40625 45C1.40625 53.5289 8.34609 60.4688 16.875 60.4688C17.8383 60.4688 18.7777 60.3689 19.6931 60.1987C22.6 65.0374 26.8319 68.9423 31.8881 71.4516L27.1125 85.7812H22.5V88.5938H67.5V85.7812H62.8875L58.1119 71.4516ZM59.9245 85.7812H57.2625L53.1281 73.3809C53.9395 73.1475 54.7355 72.8747 55.5216 72.5752L59.9245 85.7812ZM45 74.5312C46.8253 74.5312 48.6225 74.3498 50.3803 74.0236L51.487 77.3438H38.5144L39.6211 74.0236C41.3947 74.3574 43.1953 74.5273 45 74.5312ZM37.5764 80.1562H52.425L54.2995 85.7812H35.7005L37.5764 80.1562ZM65.1333 54.803C65.7355 53.1673 66.8242 51.7553 68.2529 50.7569C69.6817 49.7585 71.382 49.2218 73.125 49.2188C74.8679 49.2224 76.5679 49.7594 77.9965 50.7577C79.4252 51.7559 80.514 53.1676 81.1167 54.803C78.9356 56.5847 76.1541 57.6562 73.125 57.6562C70.0959 57.6562 67.313 56.5847 65.1333 54.803ZM32.3438 45C32.3438 40.4888 30.3905 36.4345 27.2995 33.6052C28.9293 31.0789 31.0789 28.9293 33.6052 27.2995C36.4345 30.3905 40.4888 32.3438 45 32.3438C49.5112 32.3438 53.5655 30.3905 56.3948 27.2995C58.9214 28.9289 61.0711 31.0786 62.7005 33.6052C59.6095 36.4345 57.6562 40.4888 57.6562 45C57.6562 49.5253 59.6222 53.5894 62.7286 56.4216C58.86 62.4136 52.1719 66.0938 45 66.0938C37.8281 66.0938 31.14 62.4136 27.2714 56.4216C30.3778 53.5894 32.3438 49.5253 32.3438 45ZM40.7812 14.0625C40.7812 11.7366 42.6741 9.84375 45 9.84375C47.3259 9.84375 49.2188 11.7366 49.2188 14.0625C49.2188 16.3884 47.3259 18.2812 45 18.2812C42.6741 18.2812 40.7812 16.3884 40.7812 14.0625ZM37.0083 26.678C37.6104 25.0423 38.6992 23.6303 40.1279 22.6319C41.5567 21.6335 43.257 21.0968 45 21.0938C46.7429 21.0973 48.4429 21.6344 49.8715 22.6327C51.3002 23.6309 52.389 25.0426 52.9917 26.678C50.8106 28.4597 48.0291 29.5312 45 29.5312C41.9709 29.5312 39.188 28.4597 37.0083 26.678ZM68.9062 42.1875C68.9062 39.8616 70.7991 37.9688 73.125 37.9688C75.4509 37.9688 77.3438 39.8616 77.3438 42.1875C77.3438 44.5134 75.4509 46.4062 73.125 46.4062C70.7991 46.4062 68.9062 44.5134 68.9062 42.1875ZM85.7812 45C85.7806 47.7391 84.8854 50.4031 83.2317 52.5867C82.0563 50.2941 80.1369 48.4689 77.7881 47.4103C79.2295 46.1222 80.1562 44.2687 80.1562 42.1875C80.1562 38.3105 77.002 35.1562 73.125 35.1562C69.248 35.1562 66.0938 38.3105 66.0938 42.1875C66.0938 44.2687 67.0205 46.1208 68.4619 47.4103C66.1133 48.4693 64.194 50.2944 63.0183 52.5867C61.3646 50.4031 60.4694 47.7391 60.4688 45C60.4688 38.0222 66.1458 32.3438 73.125 32.3438C80.1042 32.3438 85.7812 38.0222 85.7812 45ZM67.507 30.6028C66.6211 30.9502 65.7787 31.3763 64.98 31.8741C63.1853 29.147 60.853 26.8147 58.1259 25.02C58.6223 24.2227 59.0498 23.3789 59.3972 22.4944C62.6544 24.5797 65.4211 27.346 67.507 30.6028ZM45 4.21875C51.9792 4.21875 57.6562 9.89719 57.6562 16.875C57.6562 19.7227 56.7 22.3453 55.1053 24.4617C53.9299 22.1691 52.0105 20.3439 49.6617 19.2853C51.1045 17.9972 52.0312 16.1438 52.0312 14.0625C52.0312 10.1855 48.877 7.03125 45 7.03125C41.123 7.03125 37.9688 10.1855 37.9688 14.0625C37.9688 16.1438 38.8955 17.9958 40.3369 19.2853C37.9883 20.3443 36.069 22.1694 34.8933 24.4617C33.2399 22.2779 32.3447 19.6141 32.3438 16.875C32.3438 9.89719 38.0208 4.21875 45 4.21875ZM30.6028 22.4944C30.9502 23.3803 31.3763 24.2227 31.8741 25.02C29.147 26.8147 26.8147 29.147 25.02 31.8741C24.2183 31.3739 23.3724 30.9484 22.493 30.6028C24.5789 27.346 27.3456 24.5797 30.6028 22.4944ZM16.875 32.3438C23.8542 32.3438 29.5312 38.0222 29.5312 45C29.5306 47.7391 28.6354 50.4031 26.9817 52.5867C25.8063 50.2941 23.8869 48.4689 21.5381 47.4103C22.9795 46.1222 23.9062 44.2687 23.9062 42.1875C23.9062 38.3105 20.752 35.1562 16.875 35.1562C12.998 35.1562 9.84375 38.3105 9.84375 42.1875C9.84375 44.2687 10.7705 46.1208 12.2119 47.4103C9.86334 48.4693 7.94403 50.2944 6.76828 52.5867C5.11465 50.4031 4.21942 47.7391 4.21875 45C4.21875 38.0222 9.89578 32.3438 16.875 32.3438ZM12.6562 42.1875C12.6562 39.8616 14.5491 37.9688 16.875 37.9688C19.2009 37.9688 21.0938 39.8616 21.0938 42.1875C21.0938 44.5134 19.2009 46.4062 16.875 46.4062C14.5491 46.4062 12.6562 44.5134 12.6562 42.1875ZM8.88328 54.803C9.48545 53.1673 10.5742 51.7553 12.0029 50.7569C13.4317 49.7585 15.132 49.2218 16.875 49.2188C18.6179 49.2224 20.3179 49.7594 21.7465 50.7577C23.1752 51.7559 24.264 53.1676 24.8667 54.803C22.6856 56.5847 19.9041 57.6562 16.875 57.6562C13.8459 57.6562 11.063 56.5847 8.88328 54.803ZM22.4916 59.3972C23.3775 59.0498 24.2213 58.6223 25.02 58.1259C29.4216 64.8098 36.9436 68.9062 45 68.9062C53.0564 68.9062 60.5784 64.8098 64.98 58.1259C65.7787 58.6237 66.6225 59.0498 67.5084 59.3972C62.6133 67.0373 54.1406 71.7188 45 71.7188C35.8594 71.7188 27.3867 67.0373 22.4916 59.3972ZM34.4784 72.5738C35.2645 72.8733 36.0605 73.1475 36.8719 73.3795L32.7375 85.7812H30.0755L34.4784 72.5738Z" fill="url(#paint1_linear_542_3158)"/>
<path d="M9.84383 18.2813V21.0938H21.0938V9.84377H18.2813V16.2928L3.8068 1.8183L1.81836 3.80674L16.2929 18.2813H9.84383ZM9.84383 71.7188H16.2929L1.81836 86.1933L3.8068 88.1817L18.2813 73.7072V80.1563H21.0938V68.9063H9.84383V71.7188ZM80.1563 71.7188V68.9063H68.9063V80.1563H71.7188V73.7072L86.1934 88.1817L88.1818 86.1933L73.7073 71.7188H80.1563ZM80.1563 18.2813H73.7073L88.1818 3.80674L86.1934 1.8183L71.7188 16.2928V9.84377H68.9063V21.0938H80.1563V18.2813Z" fill="url(#paint2_linear_542_3158)"/>
<defs>
<linearGradient id="paint0_linear_542_3158" x1="45" y1="23.9062" x2="45" y2="54.8438" gradientUnits="userSpaceOnUse">
<stop stop-color="#72C7D8"/>
<stop offset="0.489583" stop-color="#26519A"/>
<stop offset="1" stop-color="#41A575"/>
</linearGradient>
<linearGradient id="paint1_linear_542_3158" x1="45" y1="1.40625" x2="45" y2="88.5938" gradientUnits="userSpaceOnUse">
<stop stop-color="#72C7D8"/>
<stop offset="0.489583" stop-color="#26519A"/>
<stop offset="1" stop-color="#41A575"/>
</linearGradient>
<linearGradient id="paint2_linear_542_3158" x1="45.0001" y1="1.8183" x2="45.0001" y2="88.1817" gradientUnits="userSpaceOnUse">
<stop stop-color="#72C7D8"/>
<stop offset="0.489583" stop-color="#26519A"/>
<stop offset="1" stop-color="#41A575"/>
</linearGradient>
</defs>
</svg>
