<svg width="90" height="90" viewBox="0 0 90 90" fill="none" xmlns="http://www.w3.org/2000/svg">
<g clip-path="url(#clip0_519_3259)">
<path d="M76.0781 46.4062V43.5938C76.8544 43.5938 77.4844 42.9642 77.4844 42.1875V33.75C77.4844 32.9733 76.8544 32.3438 76.0781 32.3438H68.4844L68.2118 31.2874C67.5903 28.8712 66.624 26.5572 65.3428 24.4164L64.7803 23.4757L70.1719 18.0747C70.7147 17.5309 70.7147 16.6497 70.1719 16.1059L64.1997 10.125C63.9343 9.87191 63.5817 9.73071 63.215 9.73071C62.8483 9.73071 62.4957 9.87191 62.2304 10.125L56.829 15.5264L55.8886 14.9639C53.7449 13.6823 51.4279 12.7157 49.0089 12.0938L47.9531 11.8191V4.21875C47.9531 3.44208 47.3235 2.8125 46.5469 2.8125H38.1094C37.3327 2.8125 36.7031 3.44208 36.7031 4.21875V11.8125L35.6468 12.0855C33.2306 12.707 30.9163 13.6725 28.7748 14.9524L27.8339 15.5154L22.4339 10.125C22.1683 9.86994 21.8143 9.72751 21.446 9.72751C21.0778 9.72751 20.7238 9.86994 20.4581 10.125L14.4844 16.0972C14.3543 16.2269 14.2511 16.381 14.1807 16.5507C14.1102 16.7204 14.074 16.9023 14.074 17.086C14.074 17.2697 14.1102 17.4516 14.1807 17.6213C14.2511 17.791 14.3543 17.9451 14.4844 18.0748L19.8858 23.4755L19.3233 24.4166C18.0423 26.5573 17.0762 28.8714 16.4548 31.2875L16.1789 32.3438H8.57812C7.80145 32.3438 7.17188 32.9733 7.17188 33.75V42.1875C7.17188 42.9642 7.80145 43.5938 8.57812 43.5938V46.4062C6.24853 46.4062 4.35938 44.5171 4.35938 42.1875V33.75C4.35938 31.4204 6.24853 29.5312 8.57812 29.5312H14.019C14.599 27.5869 15.3835 25.7095 16.3592 23.9304L12.492 20.0632C11.701 19.2739 11.2566 18.2028 11.2566 17.0859C11.2566 15.9691 11.701 14.898 12.492 14.1092L18.4686 8.13263C20.1336 6.53906 22.7587 6.53906 24.4237 8.13263L28.2898 11.9981C30.069 11.0234 31.9464 10.24 33.8906 9.66094V4.21875C33.8906 1.88916 35.7798 0 38.1094 0H46.5469C48.8765 0 50.7656 1.88916 50.7656 4.21875V9.66094C52.7099 10.2406 54.5873 11.0246 56.3664 11.9998L60.2336 8.13263C61.8992 6.53906 64.5238 6.53906 66.1894 8.13263L72.1648 14.1075C72.5562 14.4982 72.8666 14.9622 73.0784 15.473C73.2902 15.9837 73.3992 16.5313 73.3991 17.0842C73.3992 17.6373 73.2903 18.1849 73.0785 18.6958C72.8667 19.2067 72.5562 19.6708 72.1648 20.0616L68.2976 23.9288C69.2725 25.7087 70.0567 27.5866 70.6372 29.5312H76.0781C78.4077 29.5312 80.2969 31.4204 80.2969 33.75V42.1875C80.2969 44.5171 78.4077 46.4062 76.0781 46.4062Z" fill="url(#paint0_linear_519_3259)"/>
<path d="M62.0156 37.9688H59.2031C59.2031 28.6491 51.6478 21.0938 42.3281 21.0938C33.0085 21.0938 25.4531 28.6491 25.4531 37.9688H22.6406C22.6406 27.0956 31.455 18.2812 42.3281 18.2812C53.2007 18.2812 62.0156 27.0956 62.0156 37.9688Z" fill="url(#paint1_linear_519_3259)"/>
<path d="M42.3281 49.2188C37.6682 49.2188 33.8906 45.4406 33.8906 40.7812C33.8906 36.1214 37.6682 32.3438 42.3281 32.3438C46.9884 32.3438 50.7656 36.1214 50.7656 40.7812C50.7607 45.4395 46.9863 49.2138 42.3281 49.2188ZM42.3281 35.1562C39.2217 35.1562 36.7031 37.6748 36.7031 40.7812C36.7031 43.8877 39.2217 46.4062 42.3281 46.4062C45.4345 46.4062 47.9531 43.8877 47.9531 40.7812C47.9531 37.6748 45.4345 35.1562 42.3281 35.1562ZM66.2344 54.8438C61.5745 54.8438 57.7969 51.0656 57.7969 46.4062C57.7969 41.7464 61.5745 37.9688 66.2344 37.9688C70.8943 37.9688 74.6719 41.7464 74.6719 46.4062C74.667 51.0645 70.8926 54.8388 66.2344 54.8438ZM66.2344 40.7812C63.128 40.7812 60.6094 43.2998 60.6094 46.4062C60.6094 49.5127 63.128 52.0312 66.2344 52.0312C69.3408 52.0312 71.8594 49.5127 71.8594 46.4062C71.8594 43.2998 69.3408 40.7812 66.2344 40.7812ZM18.4219 54.8438C13.762 54.8438 9.98438 51.0656 9.98438 46.4062C9.98438 41.7464 13.762 37.9688 18.4219 37.9688C23.0822 37.9688 26.8594 41.7464 26.8594 46.4062C26.8545 51.0645 23.0801 54.8388 18.4219 54.8438ZM18.4219 40.7812C15.3155 40.7812 12.7969 43.2998 12.7969 46.4062C12.7969 49.5127 15.3155 52.0312 18.4219 52.0312C21.5283 52.0312 24.0469 49.5127 24.0469 46.4062C24.0469 43.2998 21.5283 40.7812 18.4219 40.7812Z" fill="url(#paint2_linear_519_3259)"/>
<path d="M78.9829 58.4516C76.8872 57.0111 74.4024 56.2431 71.8594 56.25H60.6094C59.9252 56.2561 59.2427 56.318 58.5686 56.4351C57.6686 55.0278 56.4981 53.8132 55.125 52.8618C54.9191 52.7062 54.7025 52.5654 54.4767 52.4405C52.5094 51.2494 50.2529 50.6214 47.9531 50.625H36.7031C34.5874 50.6176 32.5044 51.1466 30.6487 52.1627C28.7929 53.1787 27.2251 54.6486 26.0916 56.4351C25.4161 56.318 24.7323 56.2561 24.0469 56.25H12.7969C10.2554 56.2431 7.77208 57.0101 5.67717 58.449C3.9722 59.6091 2.57653 61.1682 1.6116 62.9908C0.64666 64.8133 0.141692 66.844 0.140625 68.9063V74.5313C0.145547 78.371 2.37966 81.8581 5.8673 83.4666C7.15465 84.0729 8.56141 84.3833 9.98438 84.375H24.0469V81.5625H11.3906V66.0938H8.57812V81.4213C8.04877 81.3151 7.53446 81.1442 7.04672 80.9127C5.82679 80.3502 4.79318 79.4506 4.06785 78.3199C3.34252 77.1892 2.95574 75.8746 2.95312 74.5313V68.9063C2.95482 67.3014 3.34849 65.7212 4.0999 64.3031C4.85131 62.885 5.93772 61.6719 7.26469 60.7693C8.89277 59.652 10.8223 59.0567 12.7969 59.0625H24.0469C24.2947 59.0625 24.5334 59.089 24.7753 59.1054C24.2995 60.4465 24.0532 61.8583 24.0469 63.2813V77.3438C24.0518 81.2253 27.1972 84.3701 31.0781 84.375H35.2969V61.875H32.4844V81.5625H31.0781C28.7485 81.5625 26.8594 79.6734 26.8594 77.3438V63.2813C26.8594 57.8441 31.2671 53.4375 36.7031 53.4375H47.9531C49.7624 53.4388 51.5361 53.9395 53.0789 54.8845C53.2215 54.9624 53.3586 55.0501 53.4891 55.147C54.8067 56.0492 55.8882 57.2549 56.6422 58.6626C57.4 60.0842 57.7966 61.6703 57.7969 63.2813V77.3438C57.7969 79.6734 55.9077 81.5625 53.5781 81.5625H52.1719V61.875H49.3594V84.375H53.5781C57.4597 84.3701 60.6045 81.2253 60.6094 77.3438V63.2813C60.6029 61.8584 60.357 60.4467 59.8821 59.1054C60.1244 59.0888 60.3633 59.0625 60.6094 59.0625H71.8594C73.8354 59.0572 75.7663 59.6534 77.3954 60.772C78.7211 61.6749 79.8065 62.8878 80.5572 64.3053C81.3079 65.7229 81.7012 67.3022 81.7031 68.9063V74.5313C81.7007 75.8791 81.3114 77.1978 80.5816 78.331C79.8518 79.4641 78.8121 80.3639 77.5861 80.9237C77.1058 81.1509 76.5993 81.3181 76.0781 81.4215V66.0938H73.2656V81.5625H60.6094V84.375H74.6719C76.0862 84.3839 77.4847 84.0773 78.7655 83.4774C82.2645 81.874 84.51 78.3803 84.5156 74.5313V68.9063C84.5146 66.8448 84.01 64.8149 83.0457 62.9928C82.0815 61.1708 80.6868 59.6119 78.9829 58.4516Z" fill="url(#paint3_linear_519_3259)"/>
<path d="M36.7031 81.5625H47.9531V84.375H36.7031V81.5625Z" fill="url(#paint4_linear_519_3259)"/>
</g>
<defs>
<linearGradient id="paint0_linear_519_3259" x1="42.3281" y1="0" x2="42.3281" y2="46.4062" gradientUnits="userSpaceOnUse">
<stop stop-color="#72C7D8"/>
<stop offset="0.489583" stop-color="#26519A"/>
<stop offset="1" stop-color="#41A575"/>
</linearGradient>
<linearGradient id="paint1_linear_519_3259" x1="42.3281" y1="18.2812" x2="42.3281" y2="37.9688" gradientUnits="userSpaceOnUse">
<stop stop-color="#72C7D8"/>
<stop offset="0.489583" stop-color="#26519A"/>
<stop offset="1" stop-color="#41A575"/>
</linearGradient>
<linearGradient id="paint2_linear_519_3259" x1="42.3281" y1="32.3438" x2="42.3281" y2="54.8438" gradientUnits="userSpaceOnUse">
<stop stop-color="#72C7D8"/>
<stop offset="0.489583" stop-color="#26519A"/>
<stop offset="1" stop-color="#41A575"/>
</linearGradient>
<linearGradient id="paint3_linear_519_3259" x1="42.3281" y1="50.6249" x2="42.3281" y2="84.3752" gradientUnits="userSpaceOnUse">
<stop stop-color="#72C7D8"/>
<stop offset="0.489583" stop-color="#26519A"/>
<stop offset="1" stop-color="#41A575"/>
</linearGradient>
<linearGradient id="paint4_linear_519_3259" x1="42.3281" y1="81.5625" x2="42.3281" y2="84.375" gradientUnits="userSpaceOnUse">
<stop stop-color="#72C7D8"/>
<stop offset="0.489583" stop-color="#26519A"/>
<stop offset="1" stop-color="#41A575"/>
</linearGradient>
<clipPath id="clip0_519_3259">
<rect width="90" height="90" fill="white"/>
</clipPath>
</defs>
</svg>
