<svg width="891" height="744" viewBox="0 0 891 744" fill="none" xmlns="http://www.w3.org/2000/svg">
<mask id="mask0_631_40528" style="mask-type:alpha" maskUnits="userSpaceOnUse" x="0" y="0" width="891" height="744">
<rect width="891" height="744" fill="#D9D9D9"/>
</mask>
<g mask="url(#mask0_631_40528)">
<g opacity="0.2">
<path d="M291.629 355.151L57.2663 287.227C17.4992 275.706 -9.91797 238.936 -9.91797 197.092V56.8364C-9.91797 5.05143 31.6194 -36.9172 82.8721 -36.9172H198.839C250.092 -36.9172 291.629 5.05143 291.629 56.8364V355.151V355.151Z" stroke="#333333" stroke-width="0.03" stroke-miterlimit="10"/>
<path d="M198.839 747.261H82.8721C31.6194 747.261 -9.91797 705.292 -9.91797 653.507V513.21C-9.91797 471.366 17.4992 434.597 57.3075 423.075L291.67 355.151V653.507C291.67 705.292 250.133 747.261 198.88 747.261H198.839Z" stroke="#333333" stroke-width="0.03" stroke-miterlimit="10"/>
<path d="M793.37 279.658L291.629 355.151L543.158 2.05713C560.613 -22.4003 588.648 -36.9167 618.494 -36.9167H779.703C830.956 -36.9167 872.493 5.05192 872.493 56.8368V186.944C872.493 233.405 838.819 272.836 793.37 279.699V279.658Z" stroke="#333333" stroke-width="0.03" stroke-miterlimit="10"/>
<path d="M291.466 355.318L65.6656 289.89C27.3393 278.784 0.910156 243.346 0.910156 203.041V67.8592C0.910156 17.9876 40.9655 -22.4836 90.3246 -22.4836H202.051C251.41 -22.4836 291.466 17.946 291.466 67.8592V355.318Z" stroke="#333333" stroke-width="0.06" stroke-miterlimit="10"/>
<path d="M202.051 733.077H90.3246C40.9655 733.077 0.910156 692.648 0.910156 642.734V507.594C0.910156 467.29 27.3393 431.851 65.6656 420.746L291.466 355.318V642.734C291.466 692.606 251.452 733.077 202.051 733.077V733.077Z" stroke="#333333" stroke-width="0.06" stroke-miterlimit="10"/>
<path d="M774.887 282.569L291.465 355.318L533.814 15.076C550.61 -8.50795 577.616 -22.4836 606.391 -22.4836H761.714C811.114 -22.4836 851.128 17.946 851.128 67.8592V193.183C851.128 237.938 818.689 275.956 774.887 282.528V282.569Z" stroke="#333333" stroke-width="0.06" stroke-miterlimit="10"/>
<path d="M291.3 355.442L74.0628 292.469C37.1773 281.779 11.7773 247.672 11.7773 208.906V78.8818C11.7773 30.8819 50.3095 -8.00879 97.8161 -8.00879H205.303C252.809 -8.00879 291.341 30.8819 291.341 78.9234V355.442H291.3Z" stroke="#333333" stroke-width="0.1" stroke-miterlimit="10"/>
<path d="M205.303 718.894H97.8161C50.3095 718.894 11.7773 680.003 11.7773 631.962V501.938C11.7773 463.172 37.1773 429.064 74.0628 418.375L291.3 355.401V631.92C291.3 679.92 252.768 718.852 205.262 718.852L205.303 718.894Z" stroke="#333333" stroke-width="0.1" stroke-miterlimit="10"/>
<path d="M756.404 285.439L291.301 355.442L524.47 28.1367C540.648 5.42618 566.625 -8.00879 594.289 -8.00879H743.724C791.231 -8.00879 829.763 30.9235 829.763 78.9234V199.505C829.763 242.555 798.559 279.117 756.404 285.481V285.439Z" stroke="#333333" stroke-width="0.1" stroke-miterlimit="10"/>
<path d="M291.135 355.567L82.4601 295.089C47.0155 284.815 22.6035 252.081 22.6035 214.854V89.9459C22.6035 43.8178 59.6125 6.46606 105.225 6.46606H208.472C254.085 6.46606 291.094 43.8594 291.094 89.9459V355.609L291.135 355.567Z" stroke="#333333" stroke-width="0.13" stroke-miterlimit="10"/>
<path d="M208.513 704.71H105.266C59.6124 704.71 22.6445 667.317 22.6445 621.23V496.322C22.6445 459.096 47.0565 426.319 82.5011 416.087L291.176 355.609V621.272C291.176 667.358 254.167 704.752 208.554 704.752L208.513 704.71Z" stroke="#333333" stroke-width="0.13" stroke-miterlimit="10"/>
<path d="M737.918 288.351L291.176 355.567L515.123 41.1558C530.643 19.3604 555.632 6.42456 582.184 6.42456H725.733C771.387 6.42456 808.355 43.8178 808.355 89.9043V205.745C808.355 247.089 778.385 282.236 737.918 288.309V288.351Z" stroke="#333333" stroke-width="0.13" stroke-miterlimit="10"/>
<path d="M291.012 355.734L90.9003 297.751C56.9376 287.893 33.5137 256.49 33.5137 220.802V101.01C33.5137 56.7952 68.9995 20.9409 112.76 20.9409H211.766C255.527 20.9409 291.012 56.7952 291.012 101.01V355.775V355.734Z" stroke="#333333" stroke-width="0.16" stroke-miterlimit="10"/>
<path d="M211.766 690.526H112.719C68.9585 690.526 33.4727 654.672 33.4727 610.457V490.666C33.4727 454.936 56.8966 423.574 90.8592 413.716L290.971 355.734V610.499C290.971 654.714 255.485 690.568 211.725 690.568L211.766 690.526Z" stroke="#333333" stroke-width="0.16" stroke-miterlimit="10"/>
<path d="M719.435 291.262L291.012 355.734L505.779 54.2165C520.682 33.2945 544.6 20.8994 570.082 20.8994H707.744C751.504 20.8994 786.99 56.7537 786.99 100.968V212.067C786.99 251.748 758.256 285.398 719.435 291.262Z" stroke="#333333" stroke-width="0.16" stroke-miterlimit="10"/>
<path d="M290.847 355.858L99.2974 300.33C66.7756 290.888 44.3809 260.857 44.3809 226.666V111.991C44.3809 69.6478 78.3435 35.3325 120.251 35.3325H215.017C256.925 35.3325 290.888 69.6478 290.888 111.991V355.858H290.847Z" stroke="#333333" stroke-width="0.2" stroke-miterlimit="10"/>
<path d="M214.976 676.343H120.21C78.3025 676.343 44.3398 642.027 44.3398 599.684V485.009C44.3398 450.818 66.7346 420.787 99.2976 411.345L290.847 355.817V599.684C290.847 642.027 256.884 676.343 214.976 676.343Z" stroke="#333333" stroke-width="0.2" stroke-miterlimit="10"/>
<path d="M700.952 294.132L290.848 355.858L496.435 67.2353C510.679 47.2284 533.609 35.374 558.02 35.374H689.796C731.703 35.374 765.666 69.6893 765.666 112.032V218.347C765.666 256.323 738.167 288.559 700.993 294.132H700.952Z" stroke="#333333" stroke-width="0.2" stroke-miterlimit="10"/>
<path d="M290.683 355.983L107.697 302.95C76.6157 293.924 55.209 265.224 55.209 232.573V123.055C55.209 82.6252 87.6485 49.8489 127.663 49.8489H218.189C258.203 49.8489 290.642 82.6252 290.642 123.055V356.025L290.683 355.983Z" stroke="#333333" stroke-width="0.23" stroke-miterlimit="10"/>
<path d="M218.23 662.159H127.663C87.6485 662.159 55.209 629.383 55.209 588.953V479.435C55.209 446.783 76.6157 418.083 107.697 409.057L290.683 356.025V588.994C290.683 629.424 258.244 662.201 218.23 662.201V662.159Z" stroke="#333333" stroke-width="0.23" stroke-miterlimit="10"/>
<path d="M682.469 297.044L290.684 355.983L487.091 80.2544C500.717 61.121 522.576 49.8074 545.918 49.8074H671.806C711.82 49.8074 744.26 82.5837 744.26 123.013V224.587C744.26 260.857 717.996 291.637 682.469 297.002V297.044Z" stroke="#333333" stroke-width="0.23" stroke-miterlimit="10"/>
<path d="M290.518 356.15L116.094 305.571C86.4538 297.002 66.0762 269.633 66.0762 238.479V134.078C66.0762 95.5196 96.9925 64.2822 135.154 64.2822H221.481C259.643 64.2822 290.559 95.5196 290.559 134.078V356.15H290.518Z" stroke="#333333" stroke-width="0.26" stroke-miterlimit="10"/>
<path d="M221.44 647.975H135.113C96.9515 647.975 66.0352 616.738 66.0352 578.18V473.778C66.0352 442.624 86.4539 415.255 116.053 406.687L290.477 356.149V578.222C290.477 616.779 259.561 648.017 221.399 648.017L221.44 647.975Z" stroke="#333333" stroke-width="0.26" stroke-miterlimit="10"/>
<path d="M663.983 299.956L290.518 356.15L477.744 93.3151C490.712 75.0967 511.584 64.2822 533.814 64.2822H653.815C691.977 64.2822 722.893 95.5196 722.893 134.078V230.909C722.893 265.474 697.822 294.84 663.983 299.956V299.956Z" stroke="#333333" stroke-width="0.26" stroke-miterlimit="10"/>
<path d="M290.352 356.274L124.491 308.191C96.3331 300.039 76.9023 274.001 76.9023 244.386V145.1C76.9023 108.455 106.295 78.7153 142.605 78.7153H224.691C260.959 78.7153 290.394 108.414 290.394 145.1V356.274H290.352Z" stroke="#333333" stroke-width="0.29" stroke-miterlimit="10"/>
<path d="M224.691 633.792H142.605C106.337 633.792 76.9023 604.093 76.9023 567.449V468.163C76.9023 438.548 96.2919 412.552 124.45 404.357L290.311 356.274V567.449C290.311 604.093 260.918 633.792 224.65 633.792H224.691Z" stroke="#333333" stroke-width="0.29" stroke-miterlimit="10"/>
<path d="M645.5 302.826L290.354 356.274L468.4 106.334C480.75 88.9891 500.593 78.7153 521.711 78.7153H635.826C672.094 78.7153 701.528 108.414 701.528 145.1V237.19C701.528 270.049 677.692 298.001 645.541 302.826H645.5Z" stroke="#333333" stroke-width="0.29" stroke-miterlimit="10"/>
<path d="M290.189 356.399L132.89 310.812C106.173 303.075 87.7715 278.368 87.7715 250.292V156.122C87.7715 121.35 115.683 93.1902 150.057 93.1902H227.903C262.319 93.1902 290.189 121.391 290.189 156.122V356.399V356.399Z" stroke="#333333" stroke-width="0.33" stroke-miterlimit="10"/>
<path d="M227.903 619.608H150.057C115.641 619.608 87.7715 591.449 87.7715 556.676V462.506C87.7715 434.43 106.173 409.765 132.89 402.028L290.189 356.441V556.717C290.189 591.49 262.319 619.65 227.903 619.65V619.608Z" stroke="#333333" stroke-width="0.33" stroke-miterlimit="10"/>
<path d="M627.016 305.737L290.23 356.441L459.097 119.395C470.788 102.965 489.602 93.2319 509.65 93.2319H617.877C652.293 93.2319 680.163 121.433 680.163 156.164V243.471C680.163 274.666 657.562 301.12 627.058 305.737H627.016Z" stroke="#333333" stroke-width="0.33" stroke-miterlimit="10"/>
<path d="M290.023 356.565L141.288 313.432C116.011 306.112 98.6387 282.777 98.6387 256.24V167.187C98.6387 134.327 125.027 107.665 157.548 107.665H231.155C263.677 107.665 290.065 134.327 290.065 167.187V356.565H290.023Z" stroke="#333333" stroke-width="0.36" stroke-miterlimit="10"/>
<path d="M231.114 605.424H157.507C124.986 605.424 98.5977 578.762 98.5977 545.903V456.849C98.5977 430.312 116.011 406.978 141.247 399.657L289.982 356.524V545.903C289.982 578.762 263.594 605.424 231.073 605.424H231.114Z" stroke="#333333" stroke-width="0.36" stroke-miterlimit="10"/>
<path d="M608.531 308.607L290.064 356.524L449.709 132.372C460.783 116.816 478.567 107.624 497.504 107.624H599.845C632.367 107.624 658.755 134.286 658.755 167.145V249.71C658.755 279.2 637.389 304.24 608.531 308.566V308.607Z" stroke="#333333" stroke-width="0.36" stroke-miterlimit="10"/>
<path d="M289.901 356.69L149.728 316.053C125.933 309.148 109.508 287.145 109.508 262.146V178.251C109.508 147.263 134.373 122.14 165.001 122.14H234.367C265.036 122.14 289.901 147.263 289.901 178.251V356.732V356.69Z" stroke="#333333" stroke-width="0.39" stroke-miterlimit="10"/>
<path d="M234.367 591.241H165.001C134.332 591.241 109.467 566.118 109.467 535.172V451.276C109.467 426.236 125.892 404.274 149.687 397.37L289.86 356.732V535.213C289.86 566.201 264.995 591.282 234.367 591.282V591.241Z" stroke="#333333" stroke-width="0.39" stroke-miterlimit="10"/>
<path d="M590.048 311.519L289.9 356.69L440.365 145.474C450.78 130.833 467.577 122.14 485.443 122.14H581.897C612.566 122.14 637.431 147.263 637.431 178.251V256.074C637.431 283.859 617.3 307.443 590.089 311.56L590.048 311.519Z" stroke="#333333" stroke-width="0.39" stroke-miterlimit="10"/>
<path d="M289.736 356.815L158.084 318.673C135.73 312.184 120.334 291.554 120.334 268.053V189.273C120.334 160.199 143.676 136.615 172.451 136.615H237.577C266.353 136.615 289.694 160.199 289.694 189.273V356.857L289.736 356.815Z" stroke="#333333" stroke-width="0.42" stroke-miterlimit="10"/>
<path d="M237.577 577.057H172.451C143.676 577.057 120.334 553.473 120.334 524.399V445.619C120.334 422.118 135.73 401.487 158.084 394.999L289.736 356.857V524.44C289.736 553.515 266.394 577.099 237.618 577.099L237.577 577.057Z" stroke="#333333" stroke-width="0.42" stroke-miterlimit="10"/>
<path d="M571.565 314.43L289.736 356.857L431.021 158.535C440.819 144.767 456.544 136.615 473.341 136.615H563.908C592.683 136.615 616.025 160.199 616.025 189.273V262.354C616.025 288.434 597.129 310.604 571.565 314.43Z" stroke="#333333" stroke-width="0.42" stroke-miterlimit="10"/>
<path d="M289.572 356.981L166.483 321.293C145.57 315.221 131.203 295.921 131.203 273.959V200.296C131.203 173.093 153.022 151.048 179.945 151.048H240.83C267.754 151.048 289.572 173.093 289.572 200.296V356.981V356.981Z" stroke="#333333" stroke-width="0.46" stroke-miterlimit="10"/>
<path d="M240.83 562.873H179.945C153.022 562.873 131.203 540.828 131.203 513.626V439.962C131.203 418 145.612 398.7 166.483 392.628L289.572 356.94V513.626C289.572 540.828 267.754 562.873 240.83 562.873V562.873Z" stroke="#333333" stroke-width="0.46" stroke-miterlimit="10"/>
<path d="M553.079 317.3L289.57 356.94L421.675 171.512C430.814 158.66 445.552 151.048 461.236 151.048H545.916C572.839 151.048 594.658 173.093 594.658 200.296V268.635C594.658 293.009 576.997 313.765 553.12 317.342L553.079 317.3Z" stroke="#333333" stroke-width="0.46" stroke-miterlimit="10"/>
<path d="M289.407 357.106L174.88 323.914C155.45 318.299 142.029 300.33 142.029 279.866V211.318C142.029 186.029 162.325 165.481 187.354 165.481H244C269.029 165.481 289.365 185.987 289.365 211.318V357.106H289.407Z" stroke="#333333" stroke-width="0.49" stroke-miterlimit="10"/>
<path d="M244.041 548.69H187.395C162.366 548.69 142.029 528.184 142.029 502.894V434.347C142.029 413.924 155.409 395.955 174.88 390.298L289.407 357.106V502.894C289.407 528.184 269.111 548.69 244.082 548.69H244.041Z" stroke="#333333" stroke-width="0.49" stroke-miterlimit="10"/>
<path d="M534.555 320.212L289.365 357.106L412.289 184.573C420.811 172.594 434.52 165.523 449.093 165.523H527.886C552.915 165.523 573.252 186.029 573.252 211.36V274.916C573.252 297.626 556.785 316.884 534.596 320.212H534.555Z" stroke="#333333" stroke-width="0.49" stroke-miterlimit="10"/>
<path d="M289.241 357.231L183.278 326.534C165.288 321.335 152.896 304.697 152.896 285.772V222.341C152.896 198.923 171.669 179.956 194.845 179.956H247.251C270.428 179.956 289.2 198.923 289.2 222.341V357.231H289.241Z" stroke="#333333" stroke-width="0.52" stroke-miterlimit="10"/>
<path d="M247.292 534.506H194.845C171.669 534.506 152.896 515.539 152.896 492.121V428.69C152.896 409.765 165.288 393.168 183.278 387.928L289.241 357.231V492.121C289.241 515.539 270.469 534.506 247.292 534.506Z" stroke="#333333" stroke-width="0.52" stroke-miterlimit="10"/>
<path d="M516.072 323.124L289.242 357.273L402.945 197.634C410.849 186.569 423.487 179.998 436.99 179.998H509.896C533.073 179.998 551.845 198.965 551.845 222.382V281.197C551.845 302.202 536.614 320.046 516.072 323.124V323.124Z" stroke="#333333" stroke-width="0.52" stroke-miterlimit="10"/>
<path d="M289.078 357.397L191.677 329.155C175.128 324.371 163.725 309.065 163.725 291.678V233.363C163.725 211.859 180.974 194.389 202.298 194.389H250.504C271.788 194.389 289.078 211.817 289.078 233.363V357.356V357.397Z" stroke="#333333" stroke-width="0.55" stroke-miterlimit="10"/>
<path d="M250.504 520.322H202.298C181.015 520.322 163.725 502.894 163.725 481.348V423.033C163.725 405.647 175.128 390.382 191.636 385.557L289.036 357.314V481.307C289.036 502.811 271.788 520.281 250.463 520.281L250.504 520.322Z" stroke="#333333" stroke-width="0.55" stroke-miterlimit="10"/>
<path d="M497.588 325.994L289.078 357.356L393.601 210.611C400.846 200.42 412.496 194.389 424.888 194.389H491.907C513.19 194.389 530.481 211.859 530.481 233.363V287.436C530.481 306.735 516.484 323.124 497.588 325.994Z" stroke="#333333" stroke-width="0.55" stroke-miterlimit="10"/>
<path d="M288.912 357.522L200.074 331.775C185.007 327.408 174.592 313.474 174.592 297.626V244.469C174.592 224.836 190.359 208.947 209.789 208.947H253.756C273.186 208.947 288.953 224.878 288.953 244.469V357.564L288.912 357.522Z" stroke="#333333" stroke-width="0.59" stroke-miterlimit="10"/>
<path d="M253.756 506.139H209.789C190.359 506.139 174.592 490.208 174.592 470.617V417.46C174.592 401.612 184.966 387.678 200.074 383.311L288.912 357.564V470.659C288.912 490.291 273.145 506.18 253.756 506.18V506.139Z" stroke="#333333" stroke-width="0.59" stroke-miterlimit="10"/>
<path d="M479.103 328.905L288.912 357.522L384.255 223.671C390.882 214.396 401.503 208.906 412.824 208.906H473.916C493.347 208.906 509.072 224.836 509.072 244.427V293.758C509.072 311.352 496.311 326.326 479.062 328.905H479.103Z" stroke="#333333" stroke-width="0.59" stroke-miterlimit="10"/>
<path d="M288.79 357.647L208.514 334.396C194.888 330.444 185.502 317.841 185.502 303.533V255.491C185.502 237.772 199.746 223.38 217.283 223.38H257.009C274.587 223.38 288.79 237.772 288.79 255.491V357.688V357.647Z" stroke="#333333" stroke-width="0.62" stroke-miterlimit="10"/>
<path d="M256.968 491.955H217.242C199.664 491.955 185.461 477.563 185.461 459.844V411.803C185.461 397.453 194.847 384.891 208.473 380.94L288.749 357.688V459.886C288.749 477.647 274.505 491.997 256.968 491.997V491.955Z" stroke="#333333" stroke-width="0.62" stroke-miterlimit="10"/>
<path d="M460.62 331.775L288.748 357.647L374.91 236.691C380.879 228.289 390.471 223.339 400.722 223.339H455.927C473.464 223.339 487.707 237.73 487.707 255.45V299.997C487.707 315.928 476.181 329.404 460.62 331.775V331.775Z" stroke="#333333" stroke-width="0.62" stroke-miterlimit="10"/>
<path d="M288.624 357.813L216.912 337.016C204.726 333.481 196.328 322.25 196.328 309.439V266.514C196.328 250.666 209.049 237.814 224.733 237.814H260.219C275.904 237.814 288.624 250.666 288.624 266.514V357.813Z" stroke="#333333" stroke-width="0.65" stroke-miterlimit="10"/>
<path d="M260.219 477.771H224.733C209.049 477.771 196.328 464.919 196.328 449.071V406.146C196.328 393.335 204.726 382.104 216.912 378.569L288.624 357.772V449.071C288.624 464.919 275.904 477.771 260.219 477.771Z" stroke="#333333" stroke-width="0.65" stroke-miterlimit="10"/>
<path d="M442.136 334.687L288.584 357.813L365.566 249.751C370.918 242.264 379.48 237.814 388.619 237.814H437.937C453.622 237.814 466.342 250.666 466.342 266.514V306.32C466.342 320.545 456.051 332.607 442.136 334.687V334.687Z" stroke="#333333" stroke-width="0.65" stroke-miterlimit="10"/>
<path d="M288.461 357.938L225.311 339.636C214.566 336.517 207.197 326.617 207.197 315.345V277.536C207.197 263.602 218.395 252.247 232.227 252.247H263.472C277.263 252.247 288.502 263.56 288.502 277.536V357.938H288.461Z" stroke="#333333" stroke-width="0.69" stroke-miterlimit="10"/>
<path d="M263.429 463.588H232.184C218.352 463.588 207.154 452.274 207.154 438.34V400.531C207.154 389.259 214.523 379.359 225.268 376.239L288.418 357.938V438.34C288.418 452.316 277.22 463.588 263.429 463.588V463.588Z" stroke="#333333" stroke-width="0.69" stroke-miterlimit="10"/>
<path d="M423.651 337.598L288.418 357.938L356.22 262.77C360.913 256.157 368.487 252.247 376.515 252.247H419.946C433.737 252.247 444.975 263.56 444.975 277.536V312.6C444.975 325.12 435.919 335.768 423.651 337.598V337.598Z" stroke="#333333" stroke-width="0.69" stroke-miterlimit="10"/>
<path d="M288.295 358.063L233.708 342.257C224.445 339.553 218.064 330.985 218.064 321.252V288.559C218.064 276.496 227.739 266.722 239.677 266.722H266.682C278.621 266.722 288.295 276.496 288.295 288.559V358.063V358.063Z" stroke="#333333" stroke-width="0.72" stroke-miterlimit="10"/>
<path d="M266.682 449.404H239.677C227.739 449.404 218.064 439.629 218.064 427.567V394.874C218.064 385.141 224.445 376.572 233.708 373.869L288.295 358.021V427.525C288.295 439.588 278.621 449.362 266.682 449.362V449.404Z" stroke="#333333" stroke-width="0.72" stroke-miterlimit="10"/>
<path d="M405.168 340.468L288.295 358.063L346.875 275.789C350.951 270.091 357.455 266.722 364.412 266.722H401.957C413.895 266.722 423.569 276.496 423.569 288.559V318.881C423.569 329.695 415.747 338.888 405.126 340.468H405.168Z" stroke="#333333" stroke-width="0.72" stroke-miterlimit="10"/>
<path d="M288.13 358.229L242.105 344.877C234.283 342.59 228.891 335.394 228.891 327.158V299.623C228.891 289.432 237.042 281.197 247.128 281.197H269.893C279.979 281.197 288.13 289.432 288.13 299.623V358.229V358.229Z" stroke="#333333" stroke-width="0.75" stroke-miterlimit="10"/>
<path d="M269.893 435.22H247.128C237.042 435.22 228.891 426.984 228.891 416.794V389.258C228.891 381.023 234.283 373.827 242.105 371.539L288.13 358.188V416.794C288.13 426.984 279.979 435.22 269.893 435.22V435.22Z" stroke="#333333" stroke-width="0.75" stroke-miterlimit="10"/>
<path d="M386.684 343.38L288.131 358.229L337.531 288.85C340.948 284.025 346.464 281.197 352.31 281.197H383.967C394.053 281.197 402.204 289.432 402.204 299.623V325.162C402.204 334.271 395.576 342.049 386.643 343.38H386.684Z" stroke="#333333" stroke-width="0.75" stroke-miterlimit="10"/>
<path d="M879.381 836H715.373C687.091 836 660.374 822.981 642.754 800.645L294.936 358.955L902.064 513.436C943.314 523.918 972.213 561.394 972.213 604.361V742.205C972.213 793.99 930.675 835.959 879.423 835.959L879.381 836Z" stroke="#1C1C1C" stroke-width="0.03" stroke-miterlimit="10"/>
<path d="M857.891 818.697H699.851C672.599 818.697 646.87 806.135 629.909 784.631L294.77 359.121L879.709 507.946C919.435 518.053 947.264 554.157 947.264 595.543V728.354C947.264 778.225 907.25 818.697 857.85 818.697H857.891Z" stroke="#1C1C1C" stroke-width="0.06" stroke-miterlimit="10"/>
<path d="M836.361 801.435H684.332C658.109 801.435 633.367 789.373 617.024 768.659L294.605 359.246L857.397 502.455C895.6 512.188 922.4 546.919 922.4 586.725V714.503C922.4 762.503 883.868 801.435 836.361 801.435Z" stroke="#1C1C1C" stroke-width="0.1" stroke-miterlimit="10"/>
<path d="M814.873 784.132H668.854C643.66 784.132 619.865 772.527 604.181 752.645L294.441 359.371L835.045 496.923C871.765 506.282 897.495 539.64 897.495 577.866V700.61C897.495 746.697 860.486 784.09 814.873 784.09V784.132Z" stroke="#1C1C1C" stroke-width="0.13" stroke-miterlimit="10"/>
<path d="M793.382 766.829H653.332C629.209 766.829 606.361 755.723 591.335 736.631L294.316 359.537L812.73 491.433C847.928 500.375 872.628 532.403 872.628 569.089V686.801C872.628 731.016 837.142 766.87 793.382 766.87V766.829Z" stroke="#1C1C1C" stroke-width="0.16" stroke-miterlimit="10"/>
<path d="M771.852 749.567H637.813C614.719 749.567 592.859 738.919 578.451 720.659L294.152 359.662L790.419 485.942C824.134 494.511 847.764 525.124 847.764 560.271V672.95C847.764 715.293 813.802 749.609 771.894 749.609L771.852 749.567Z" stroke="#1C1C1C" stroke-width="0.2" stroke-miterlimit="10"/>
<path d="M750.364 732.264H622.294C600.228 732.264 579.357 722.115 565.607 704.645L293.988 359.787L768.066 480.41C800.258 488.604 822.818 517.845 822.818 551.412V659.058C822.818 699.487 790.378 732.264 750.364 732.264Z" stroke="#1C1C1C" stroke-width="0.23" stroke-miterlimit="10"/>
<path d="M728.832 715.002H606.773C585.736 715.002 565.853 705.311 552.721 688.673L293.822 359.953L745.711 474.92C776.421 482.739 797.91 510.607 797.91 542.594V645.207C797.91 683.765 766.994 715.002 728.832 715.002V715.002Z" stroke="#1C1C1C" stroke-width="0.26" stroke-miterlimit="10"/>
<path d="M707.344 697.699H591.253C571.246 697.699 552.31 688.465 539.877 672.659L293.658 360.078L723.399 469.429C752.586 476.875 773.046 503.37 773.046 533.776V631.356C773.046 668.001 743.653 697.699 707.344 697.699V697.699Z" stroke="#1C1C1C" stroke-width="0.29" stroke-miterlimit="10"/>
<path d="M685.855 680.437H575.775C556.797 680.437 538.848 671.702 527.033 656.687L293.535 360.244L701.087 463.939C728.751 470.968 748.182 496.133 748.182 524.958V617.505C748.182 652.278 720.312 680.437 685.896 680.437H685.855Z" stroke="#1C1C1C" stroke-width="0.33" stroke-miterlimit="10"/>
<path d="M664.326 663.134H560.215C542.266 663.134 525.305 654.857 514.108 640.673L293.33 360.369L678.693 458.407C704.875 465.062 723.236 488.854 723.236 516.14V603.654C723.236 636.514 696.848 663.176 664.326 663.176V663.134Z" stroke="#1C1C1C" stroke-width="0.36" stroke-miterlimit="10"/>
<path d="M642.835 645.831H544.735C527.815 645.831 511.842 638.053 501.304 624.659L293.205 360.452L656.379 452.875C681.038 459.155 698.328 481.575 698.328 507.28V589.762C698.328 620.749 673.463 645.831 642.835 645.831V645.831Z" stroke="#1C1C1C" stroke-width="0.39" stroke-miterlimit="10"/>
<path d="M621.306 628.569H529.174C513.284 628.569 498.258 621.248 488.378 608.687L293 360.618L634.026 447.384C657.203 453.291 673.423 474.337 673.423 498.462V575.869C673.423 604.943 650.081 628.527 621.306 628.527V628.569Z" stroke="#1C1C1C" stroke-width="0.42" stroke-miterlimit="10"/>
<path d="M599.817 611.266H513.696C498.835 611.266 484.797 604.444 475.575 592.673L292.877 360.743L611.714 441.852C633.368 447.384 648.559 467.017 648.559 489.602V561.976C648.559 589.179 626.74 611.224 599.817 611.224V611.266Z" stroke="#1C1C1C" stroke-width="0.46" stroke-miterlimit="10"/>
<path d="M578.286 594.004H498.134C484.302 594.004 471.252 587.64 462.648 576.701L292.67 360.91L589.318 436.403C609.49 441.519 623.61 459.821 623.61 480.826V548.167C623.61 573.457 603.315 593.963 578.286 593.963V594.004Z" stroke="#1C1C1C" stroke-width="0.49" stroke-miterlimit="10"/>
<path d="M556.797 576.701H482.655C469.852 576.701 457.79 570.795 449.845 560.729L292.588 361.034L567.089 430.871C585.737 435.613 598.787 452.542 598.787 471.966V534.275C598.787 557.692 580.015 576.659 556.838 576.659L556.797 576.701Z" stroke="#1C1C1C" stroke-width="0.52" stroke-miterlimit="10"/>
<path d="M535.308 559.439H467.136C455.362 559.439 444.288 554.032 436.961 544.756L292.383 361.201L544.694 425.381C561.82 429.748 573.841 445.304 573.841 463.148V520.424C573.841 541.928 556.592 559.398 535.267 559.398L535.308 559.439Z" stroke="#1C1C1C" stroke-width="0.55" stroke-miterlimit="10"/>
<path d="M513.777 542.136H451.615C440.911 542.136 430.743 537.187 424.074 528.743L292.217 361.326L522.381 419.89C538.024 423.884 548.974 438.067 548.974 454.372V506.615C548.974 526.247 533.208 542.136 513.818 542.136H513.777Z" stroke="#1C1C1C" stroke-width="0.59" stroke-miterlimit="10"/>
<path d="M492.288 524.874H436.095C426.421 524.874 417.241 520.424 411.231 512.77L292.094 361.492L500.069 414.4C514.189 417.977 524.11 430.83 524.11 445.554V492.764C524.11 510.524 509.866 524.874 492.329 524.874H492.288Z" stroke="#1C1C1C" stroke-width="0.62" stroke-miterlimit="10"/>
<path d="M470.759 507.571H420.576C411.931 507.571 403.739 503.578 398.346 496.757L291.889 361.617L477.675 408.909C490.313 412.112 499.123 423.592 499.123 436.736V478.913C499.123 494.76 486.402 507.613 470.717 507.613L470.759 507.571Z" stroke="#1C1C1C" stroke-width="0.65" stroke-miterlimit="10"/>
<path d="M449.27 490.268H405.057C397.441 490.268 390.237 486.774 385.503 480.743L291.766 361.741L455.363 403.377C466.478 406.206 474.258 416.313 474.258 427.876V465.02C474.258 478.996 463.061 490.268 449.27 490.268V490.268Z" stroke="#1C1C1C" stroke-width="0.69" stroke-miterlimit="10"/>
<path d="M427.738 473.006H389.536C382.949 473.006 376.733 469.97 372.616 464.771L291.6 361.866L433.049 397.845C442.641 400.299 449.392 409.034 449.392 419.017V451.128C449.392 463.19 439.718 472.965 427.78 472.965L427.738 473.006Z" stroke="#1C1C1C" stroke-width="0.72" stroke-miterlimit="10"/>
<path d="M406.25 455.703H374.016C368.459 455.703 363.231 453.166 359.773 448.757L291.436 361.991L410.696 392.355C418.806 394.393 424.487 401.797 424.487 410.199V437.277C424.487 447.467 416.336 455.703 406.25 455.703V455.703Z" stroke="#1C1C1C" stroke-width="0.75" stroke-miterlimit="10"/>
</g>
</g>
<path d="M289.674 358.138L204.455 333.683C189.985 329.536 180 316.306 180 301.25V250.763C180 232.101 195.124 217 213.763 217H255.933C274.573 217 289.674 232.101 289.674 250.741V358.138Z" fill="#72C7D8"/>
<mask id="mask1_631_40528" style="mask-type:luminance" maskUnits="userSpaceOnUse" x="180" y="358" width="110" height="142">
<path d="M204.455 382.592C189.986 386.74 180.023 399.97 180.023 415.026V465.513C180.023 484.152 195.124 499.253 213.764 499.253H255.934C274.574 499.253 289.674 484.152 289.674 465.513V358.138L204.455 382.592Z" fill="white"/>
</mask>
<g mask="url(#mask1_631_40528)">
<path d="M289.697 358.138H180.023V499.276H289.697V358.138Z" fill="url(#paint0_linear_631_40528)"/>
</g>
<mask id="mask2_631_40528" style="mask-type:luminance" maskUnits="userSpaceOnUse" x="289" y="217" width="212" height="142">
<path d="M408.543 217C397.68 217 387.492 222.229 381.159 231.042L289.674 358.138L472.148 330.956C488.691 328.499 500.93 314.3 500.93 297.576V250.741C500.93 232.101 485.829 217 467.189 217H408.543Z" fill="white"/>
</mask>
<g mask="url(#mask2_631_40528)">
<path d="M500.93 217H289.674V358.138H500.93V217Z" fill="url(#paint1_linear_631_40528)"/>
</g>
<path d="M502.237 529.838H442.599C432.322 529.838 422.585 525.15 416.184 517.104L289.674 358.138L510.486 413.741C525.474 417.528 536 431.006 536 446.467V496.075C536 514.715 520.876 529.838 502.237 529.838Z" fill="#41A575"/>
<path d="M256.608 244H246.319C245.53 244 244.781 244.351 244.27 244.953L230.513 261.309L222.919 270.334L222.501 270.836V246.679C222.501 245.2 221.301 244 219.822 244H213.679C212.2 244 211 245.2 211 246.679V296.341C211 297.82 212.2 299.02 213.679 299.02H219.822C221.301 299.02 222.501 297.82 222.501 296.341V289.927C222.501 289.134 222.78 288.364 223.29 287.758L230.031 279.742L237.625 270.717L257.852 246.671C258.737 245.61 257.987 244 256.608 244Z" fill="white"/>
<path d="M240.702 274.783C240.519 274.544 240.164 274.536 239.968 274.763L233.008 283.075C232.869 283.242 232.861 283.485 232.992 283.657L243.803 297.948C244.31 298.617 245.099 299.008 245.94 299.008H255.862C257.162 299.008 257.903 297.521 257.118 296.485L240.702 274.783Z" fill="white"/>
<path d="M452.393 244.781C452.014 243.713 451.002 243 449.87 243H440.309C439.178 243 438.165 243.713 437.787 244.781L420.156 294.429C419.538 296.171 420.83 298 422.679 298H429.203C430.334 298 431.347 297.287 431.725 296.219L444.888 259.116C444.952 258.933 445.211 258.933 445.275 259.116L458.454 296.219C458.833 297.287 459.845 298 460.977 298H467.497C469.346 298 470.637 296.171 470.019 294.429L452.393 244.781Z" fill="white"/>
<path d="M256.28 433.164C256.936 431.375 257.286 429.438 257.286 427.418C257.286 425.7 257.031 424.051 256.551 422.493C254.52 415.826 248.473 411 241.328 411H220.67C219.196 411 218 412.199 218 413.678V463.322C218 464.801 219.196 466 220.67 466H241.368C248.107 466 254.294 461.82 256.4 455.404C256.495 455.109 256.586 454.81 256.666 454.507C257.067 453.069 257.27 451.559 257.27 449.993C257.27 448.128 256.976 446.33 256.427 444.657C255.76 442.604 254.719 440.732 253.392 439.114C253.161 438.831 253.165 438.436 253.4 438.157C254.627 436.695 255.609 435.005 256.28 433.164ZM240.506 455.328H229.456V444.657H240.506C243.442 444.657 245.826 447.044 245.826 449.993C245.826 452.937 243.446 455.328 240.506 455.328ZM240.506 433.164H229.456V422.493H240.506C243.442 422.493 245.826 424.88 245.826 427.828C245.826 430.777 243.446 433.164 240.506 433.164Z" fill="white"/>
<path d="M472.819 444H466.678C465.2 444 464 445.2 464 446.678V458.964C464 459.2 464.267 459.331 464.454 459.192L475.378 451.022C475.45 450.966 475.493 450.882 475.493 450.795V446.674C475.497 445.196 474.298 444 472.819 444Z" fill="white"/>
<path d="M475.043 456.406L464.119 464.576C464.048 464.631 464.004 464.715 464.004 464.803V496.322C464.004 497.8 465.203 499 466.682 499H472.819C474.298 499 475.497 497.8 475.497 496.322V456.633C475.501 456.398 475.234 456.266 475.043 456.406Z" fill="white"/>
<defs>
<linearGradient id="paint0_linear_631_40528" x1="289.698" y1="428.693" x2="180.028" y2="428.693" gradientUnits="userSpaceOnUse">
<stop stop-color="#4173B9"/>
<stop offset="1" stop-color="#234D97"/>
</linearGradient>
<linearGradient id="paint1_linear_631_40528" x1="289.697" y1="287.566" x2="500.947" y2="287.566" gradientUnits="userSpaceOnUse">
<stop stop-color="#4173B9"/>
<stop offset="1" stop-color="#234D97"/>
</linearGradient>
</defs>
</svg>
