<svg width="503" height="417" viewBox="0 0 503 417" fill="none" xmlns="http://www.w3.org/2000/svg">
<rect width="103" height="90" rx="10" fill="#6DBFD3"/>
<rect opacity="0.2" width="503" height="90" rx="10" fill="#6DBFD3"/>
<rect y="109" width="103" height="90" rx="10" fill="#2B57A0"/>
<rect opacity="0.1" y="109" width="503" height="90" rx="10" fill="#2B57A0"/>
<rect y="218" width="103" height="90" rx="10" fill="#3B6CB2"/>
<rect opacity="0.1" y="218" width="503" height="90" rx="10" fill="#3B6CB2"/>
<rect y="327" width="103" height="90" rx="10" fill="#41A575"/>
<rect opacity="0.1" y="327" width="503" height="90" rx="10" fill="#41A575"/>
<path d="M151.874 47.408L157.946 55.16C157.994 55.224 158.034 55.296 158.066 55.376C158.114 55.44 158.138 55.512 158.138 55.592C158.138 55.704 158.098 55.8 158.018 55.88C157.954 55.96 157.81 56 157.586 56H154.682C154.346 56 154.082 55.944 153.89 55.832C153.698 55.72 153.514 55.544 153.338 55.304L148.826 49.088H148.754V55.304C148.754 55.768 148.522 56 148.058 56H145.682C145.426 56 145.234 55.952 145.106 55.856C144.994 55.76 144.938 55.576 144.938 55.304V39.968C144.938 39.728 145.002 39.568 145.13 39.488C145.274 39.392 145.458 39.344 145.682 39.344H148.058C148.282 39.344 148.45 39.384 148.562 39.464C148.69 39.544 148.754 39.712 148.754 39.968V46.64H148.826L153.098 39.848C153.226 39.64 153.37 39.504 153.53 39.44C153.69 39.376 153.89 39.344 154.13 39.344H156.41C156.634 39.344 156.778 39.384 156.842 39.464C156.922 39.544 156.962 39.632 156.962 39.728C156.962 39.808 156.938 39.888 156.89 39.968C156.858 40.032 156.818 40.104 156.77 40.184L151.874 47.408ZM163.532 55.304C163.532 55.768 163.308 56 162.86 56H160.604C160.156 56 159.932 55.784 159.932 55.352V45.008C159.932 44.784 159.98 44.616 160.076 44.504C160.172 44.376 160.356 44.312 160.628 44.312H162.596C162.772 44.312 162.916 44.344 163.028 44.408C163.156 44.472 163.236 44.608 163.268 44.816L163.316 45.32C163.876 44.888 164.476 44.56 165.116 44.336C165.756 44.096 166.436 43.976 167.156 43.976C168.484 43.976 169.444 44.36 170.036 45.128C170.644 45.896 170.948 46.936 170.948 48.248V55.28C170.948 55.52 170.9 55.704 170.804 55.832C170.708 55.944 170.524 56 170.252 56H168.044C167.58 56 167.348 55.76 167.348 55.28V48.896C167.348 48.384 167.26 47.976 167.084 47.672C166.908 47.368 166.54 47.216 165.98 47.216C165.58 47.216 165.156 47.304 164.708 47.48C164.26 47.64 163.868 47.864 163.532 48.152V55.304ZM185.183 50.168C185.183 51.048 185.047 51.864 184.775 52.616C184.503 53.368 184.103 54.016 183.575 54.56C183.063 55.104 182.423 55.536 181.655 55.856C180.903 56.16 180.039 56.312 179.063 56.312C178.055 56.312 177.175 56.16 176.423 55.856C175.671 55.536 175.047 55.104 174.551 54.56C174.071 54 173.711 53.344 173.471 52.592C173.231 51.84 173.111 51.016 173.111 50.12C173.111 49.24 173.247 48.424 173.519 47.672C173.791 46.92 174.183 46.272 174.695 45.728C175.223 45.184 175.863 44.76 176.615 44.456C177.383 44.136 178.255 43.976 179.231 43.976C180.239 43.976 181.119 44.136 181.871 44.456C182.623 44.76 183.239 45.192 183.719 45.752C184.215 46.296 184.583 46.944 184.823 47.696C185.063 48.448 185.183 49.272 185.183 50.168ZM181.463 50.144C181.463 49.696 181.423 49.272 181.343 48.872C181.279 48.472 181.159 48.12 180.983 47.816C180.807 47.512 180.575 47.272 180.287 47.096C179.999 46.904 179.631 46.808 179.183 46.808C178.735 46.808 178.359 46.896 178.055 47.072C177.767 47.248 177.527 47.488 177.335 47.792C177.159 48.096 177.031 48.448 176.951 48.848C176.871 49.248 176.831 49.664 176.831 50.096C176.831 50.544 176.863 50.976 176.927 51.392C177.007 51.792 177.135 52.152 177.311 52.472C177.487 52.776 177.719 53.024 178.007 53.216C178.295 53.392 178.663 53.48 179.111 53.48C179.559 53.48 179.927 53.392 180.215 53.216C180.519 53.024 180.759 52.776 180.935 52.472C181.127 52.168 181.263 51.816 181.343 51.416C181.423 51 181.463 50.576 181.463 50.144ZM185.944 45.032C185.88 44.824 185.88 44.656 185.944 44.528C186.008 44.384 186.152 44.312 186.376 44.312H188.992C189.248 44.312 189.432 44.368 189.544 44.48C189.656 44.576 189.728 44.712 189.76 44.888L191.032 51.488H191.056L193.048 44.888C193.16 44.504 193.416 44.312 193.816 44.312H195.544C195.944 44.312 196.2 44.504 196.312 44.888L198.184 51.56H198.208L199.624 44.936C199.656 44.744 199.728 44.592 199.84 44.48C199.968 44.368 200.16 44.312 200.416 44.312H202.672C203.152 44.312 203.312 44.568 203.152 45.08L200.032 55.328C199.968 55.552 199.872 55.72 199.744 55.832C199.616 55.944 199.416 56 199.144 56H197.152C196.896 56 196.704 55.944 196.576 55.832C196.464 55.704 196.368 55.52 196.288 55.28L194.536 49.376H194.488L192.736 55.352C192.656 55.576 192.552 55.744 192.424 55.856C192.296 55.952 192.096 56 191.824 56H189.88C189.64 56 189.456 55.936 189.328 55.808C189.2 55.68 189.104 55.512 189.04 55.304L185.944 45.032ZM208.509 55.328C208.509 55.776 208.301 56 207.885 56H205.557C205.381 56 205.229 55.952 205.101 55.856C204.973 55.744 204.909 55.576 204.909 55.352V39.848C204.909 39.624 204.949 39.456 205.029 39.344C205.109 39.216 205.261 39.136 205.485 39.104L207.837 38.792C208.285 38.728 208.509 38.896 208.509 39.296V55.328ZM222.034 50.408C222.034 50.696 221.962 50.888 221.818 50.984C221.69 51.064 221.474 51.104 221.17 51.104H214.45C214.594 51.872 214.962 52.456 215.554 52.856C216.146 53.256 216.81 53.456 217.546 53.456C218.074 53.456 218.578 53.408 219.058 53.312C219.554 53.2 220.042 53.048 220.522 52.856C220.698 52.776 220.85 52.752 220.978 52.784C221.106 52.816 221.202 52.944 221.266 53.168L221.65 54.68C221.714 54.904 221.706 55.08 221.626 55.208C221.546 55.32 221.418 55.416 221.242 55.496C220.602 55.8 219.89 56.008 219.106 56.12C218.338 56.248 217.602 56.312 216.898 56.312C215.938 56.312 215.074 56.168 214.306 55.88C213.538 55.592 212.882 55.184 212.338 54.656C211.81 54.128 211.394 53.48 211.09 52.712C210.802 51.944 210.658 51.08 210.658 50.12C210.658 49.192 210.81 48.352 211.114 47.6C211.418 46.832 211.842 46.184 212.386 45.656C212.93 45.112 213.578 44.696 214.33 44.408C215.098 44.12 215.946 43.976 216.874 43.976C217.642 43.976 218.338 44.112 218.962 44.384C219.602 44.656 220.146 45.032 220.594 45.512C221.202 46.152 221.594 46.864 221.77 47.648C221.946 48.432 222.034 49.248 222.034 50.096V50.408ZM218.506 48.824C218.506 48.568 218.466 48.32 218.386 48.08C218.322 47.824 218.21 47.6 218.05 47.408C217.89 47.216 217.69 47.064 217.45 46.952C217.226 46.824 216.962 46.76 216.658 46.76C216.05 46.76 215.554 46.968 215.17 47.384C214.802 47.784 214.578 48.264 214.498 48.824H218.506ZM231.281 39.848C231.281 39.624 231.321 39.456 231.401 39.344C231.481 39.216 231.633 39.136 231.857 39.104L234.209 38.792C234.657 38.728 234.881 38.896 234.881 39.296V55.328C234.881 55.568 234.817 55.744 234.689 55.856C234.561 55.952 234.409 56 234.233 56H232.217C232.009 56 231.857 55.952 231.761 55.856C231.665 55.76 231.609 55.648 231.593 55.52L231.545 55.016C231.209 55.384 230.753 55.696 230.177 55.952C229.617 56.192 229.017 56.312 228.377 56.312C227.529 56.312 226.793 56.16 226.169 55.856C225.545 55.536 225.017 55.104 224.585 54.56C224.169 54.016 223.857 53.384 223.649 52.664C223.441 51.944 223.337 51.176 223.337 50.36C223.337 49.56 223.441 48.784 223.649 48.032C223.873 47.264 224.201 46.584 224.633 45.992C225.065 45.384 225.609 44.896 226.265 44.528C226.921 44.16 227.697 43.976 228.593 43.976C229.121 43.976 229.617 44.064 230.081 44.24C230.561 44.4 230.961 44.632 231.281 44.936V39.848ZM231.281 47.648C231.057 47.44 230.769 47.264 230.417 47.12C230.081 46.96 229.737 46.88 229.385 46.88C228.953 46.88 228.585 46.984 228.281 47.192C227.993 47.4 227.753 47.664 227.561 47.984C227.385 48.288 227.257 48.64 227.177 49.04C227.113 49.424 227.081 49.792 227.081 50.144C227.081 50.512 227.113 50.888 227.177 51.272C227.241 51.656 227.353 52.008 227.513 52.328C227.673 52.632 227.897 52.888 228.185 53.096C228.473 53.288 228.849 53.384 229.313 53.384C229.665 53.384 230.033 53.296 230.417 53.12C230.801 52.928 231.089 52.728 231.281 52.52V47.648ZM248.616 55.064C248.616 57.08 248.152 58.616 247.224 59.672C246.296 60.728 244.792 61.256 242.712 61.256C242.088 61.256 241.472 61.2 240.864 61.088C240.272 60.976 239.656 60.792 239.016 60.536C238.744 60.44 238.6 60.312 238.584 60.152C238.568 60.008 238.592 59.824 238.656 59.6L239.064 58.256C239.144 57.984 239.24 57.832 239.352 57.8C239.48 57.768 239.656 57.792 239.88 57.872C240.792 58.24 241.672 58.424 242.52 58.424C243.064 58.424 243.496 58.352 243.816 58.208C244.152 58.08 244.408 57.896 244.584 57.656C244.76 57.432 244.872 57.16 244.92 56.84C244.984 56.536 245.016 56.2 245.016 55.832V54.968C244.68 55.24 244.232 55.488 243.672 55.712C243.128 55.936 242.616 56.048 242.136 56.048C240.664 56.048 239.48 55.6 238.584 54.704C238.072 54.192 237.688 53.568 237.432 52.832C237.176 52.08 237.048 51.264 237.048 50.384C237.048 49.568 237.16 48.776 237.384 48.008C237.624 47.224 237.968 46.536 238.416 45.944C238.88 45.352 239.448 44.88 240.12 44.528C240.792 44.16 241.568 43.976 242.448 43.976C243.008 43.976 243.552 44.096 244.08 44.336C244.272 44.416 244.48 44.552 244.704 44.744C244.928 44.936 245.104 45.128 245.232 45.32L245.28 44.792C245.312 44.472 245.52 44.312 245.904 44.312H247.944C248.2 44.312 248.376 44.368 248.472 44.48C248.568 44.576 248.616 44.744 248.616 44.984V55.064ZM245.016 47.648C244.792 47.424 244.512 47.24 244.176 47.096C243.84 46.952 243.496 46.88 243.144 46.88C242.824 46.88 242.536 46.944 242.28 47.072C242.024 47.184 241.808 47.328 241.632 47.504C241.312 47.824 241.088 48.24 240.96 48.752C240.848 49.264 240.792 49.736 240.792 50.168C240.792 50.6 240.848 51.04 240.96 51.488C241.072 51.92 241.288 52.288 241.608 52.592C241.8 52.784 242.024 52.92 242.28 53C242.552 53.08 242.808 53.12 243.048 53.12C243.416 53.12 243.784 53.032 244.152 52.856C244.536 52.664 244.824 52.464 245.016 52.256V47.648ZM262.159 50.408C262.159 50.696 262.087 50.888 261.943 50.984C261.815 51.064 261.599 51.104 261.295 51.104H254.575C254.719 51.872 255.087 52.456 255.679 52.856C256.271 53.256 256.935 53.456 257.671 53.456C258.199 53.456 258.703 53.408 259.183 53.312C259.679 53.2 260.167 53.048 260.647 52.856C260.823 52.776 260.975 52.752 261.103 52.784C261.231 52.816 261.327 52.944 261.391 53.168L261.775 54.68C261.839 54.904 261.831 55.08 261.751 55.208C261.671 55.32 261.543 55.416 261.367 55.496C260.727 55.8 260.015 56.008 259.231 56.12C258.463 56.248 257.727 56.312 257.023 56.312C256.063 56.312 255.199 56.168 254.431 55.88C253.663 55.592 253.007 55.184 252.463 54.656C251.935 54.128 251.519 53.48 251.215 52.712C250.927 51.944 250.783 51.08 250.783 50.12C250.783 49.192 250.935 48.352 251.239 47.6C251.543 46.832 251.967 46.184 252.511 45.656C253.055 45.112 253.703 44.696 254.455 44.408C255.223 44.12 256.071 43.976 256.999 43.976C257.767 43.976 258.463 44.112 259.087 44.384C259.727 44.656 260.271 45.032 260.719 45.512C261.327 46.152 261.719 46.864 261.895 47.648C262.071 48.432 262.159 49.248 262.159 50.096V50.408ZM258.631 48.824C258.631 48.568 258.591 48.32 258.511 48.08C258.447 47.824 258.335 47.6 258.175 47.408C258.015 47.216 257.815 47.064 257.575 46.952C257.351 46.824 257.087 46.76 256.783 46.76C256.175 46.76 255.679 46.968 255.295 47.384C254.927 47.784 254.703 48.264 254.623 48.824H258.631Z" fill="black"/>
<path d="M157.098 263.08C157.098 264.072 156.906 264.888 156.522 265.528C156.138 266.168 155.626 266.672 154.986 267.04C154.346 267.408 153.618 267.664 152.802 267.808C151.986 267.936 151.146 268 150.282 268H145.482C145.194 268 145.002 267.936 144.906 267.808C144.81 267.68 144.762 267.464 144.762 267.16V252.04C144.762 251.752 144.826 251.568 144.954 251.488C145.082 251.392 145.282 251.344 145.554 251.344H149.442C151.586 251.344 153.178 251.672 154.218 252.328C155.274 252.968 155.802 254 155.802 255.424C155.802 256.24 155.578 256.976 155.13 257.632C154.682 258.288 154.042 258.704 153.21 258.88V258.904C153.77 258.968 154.29 259.112 154.77 259.336C155.25 259.544 155.658 259.832 155.994 260.2C156.346 260.552 156.618 260.976 156.81 261.472C157.002 261.952 157.098 262.488 157.098 263.08ZM152.058 255.952C152.058 255.376 151.85 254.944 151.434 254.656C151.018 254.368 150.442 254.224 149.706 254.224H148.53V257.968H149.442C150.354 257.968 151.018 257.824 151.434 257.536C151.85 257.248 152.058 256.72 152.058 255.952ZM153.234 262.912C153.234 262.4 153.122 261.984 152.898 261.664C152.69 261.328 152.41 261.08 152.058 260.92C151.706 260.76 151.346 260.664 150.978 260.632C150.61 260.6 150.194 260.584 149.73 260.584H148.53V265.096H150.018C150.386 265.096 150.738 265.08 151.074 265.048C151.41 265.016 151.714 264.952 151.986 264.856C152.354 264.712 152.65 264.472 152.874 264.136C153.114 263.8 153.234 263.392 153.234 262.912ZM170.42 267.208C170.42 267.512 170.364 267.72 170.252 267.832C170.156 267.944 169.964 268 169.676 268H167.732C167.556 268 167.404 267.968 167.276 267.904C167.164 267.824 167.1 267.696 167.084 267.52L167.036 266.992C165.916 267.872 164.636 268.312 163.196 268.312C161.884 268.312 160.924 267.928 160.316 267.16C159.708 266.376 159.404 265.336 159.404 264.04V256.936C159.404 256.696 159.468 256.536 159.596 256.456C159.74 256.36 159.924 256.312 160.148 256.312H162.308C162.532 256.312 162.7 256.352 162.812 256.432C162.94 256.512 163.004 256.68 163.004 256.936V263.392C163.004 263.888 163.092 264.296 163.268 264.616C163.46 264.92 163.828 265.072 164.372 265.072C164.772 265.072 165.196 264.992 165.644 264.832C166.092 264.656 166.484 264.424 166.82 264.136V256.936C166.82 256.696 166.884 256.536 167.012 256.456C167.156 256.36 167.34 256.312 167.564 256.312H169.724C169.948 256.312 170.116 256.352 170.228 256.432C170.356 256.512 170.42 256.68 170.42 256.936V267.208ZM181.583 264.448C181.583 265.136 181.447 265.728 181.175 266.224C180.919 266.704 180.567 267.104 180.119 267.424C179.671 267.728 179.151 267.952 178.559 268.096C177.983 268.24 177.383 268.312 176.759 268.312C176.119 268.312 175.431 268.224 174.695 268.048C173.975 267.888 173.327 267.68 172.751 267.424C172.447 267.296 172.351 267.056 172.463 266.704L172.943 265.144C172.991 264.968 173.071 264.848 173.183 264.784C173.295 264.704 173.463 264.712 173.687 264.808C174.903 265.304 175.951 265.552 176.831 265.552C177.695 265.552 178.127 265.272 178.127 264.712C178.127 264.488 178.047 264.304 177.887 264.16C177.743 264.016 177.447 263.856 176.999 263.68L175.199 263.008C174.383 262.704 173.727 262.264 173.231 261.688C172.735 261.112 172.487 260.392 172.487 259.528C172.487 258.936 172.623 258.416 172.895 257.968C173.183 257.52 173.543 257.152 173.975 256.864C174.423 256.56 174.919 256.336 175.463 256.192C176.007 256.048 176.543 255.976 177.071 255.976C177.695 255.976 178.311 256.032 178.919 256.144C179.527 256.256 180.151 256.456 180.791 256.744C181.079 256.872 181.175 257.096 181.079 257.416L180.575 259.048C180.527 259.208 180.431 259.304 180.287 259.336C180.159 259.352 180.031 259.336 179.903 259.288C179.391 259.112 178.919 258.968 178.487 258.856C178.071 258.728 177.615 258.664 177.119 258.664C176.719 258.664 176.423 258.744 176.231 258.904C176.055 259.064 175.967 259.24 175.967 259.432C175.967 259.576 176.015 259.728 176.111 259.888C176.207 260.032 176.463 260.184 176.879 260.344L178.919 261.16C179.783 261.496 180.439 261.928 180.887 262.456C181.351 262.968 181.583 263.632 181.583 264.448ZM187.409 253.096C187.409 253.384 187.353 253.64 187.241 253.864C187.129 254.088 186.977 254.28 186.785 254.44C186.609 254.6 186.401 254.72 186.161 254.8C185.937 254.88 185.713 254.92 185.489 254.92C185.265 254.92 185.033 254.88 184.793 254.8C184.569 254.72 184.361 254.608 184.169 254.464C183.993 254.304 183.841 254.112 183.713 253.888C183.601 253.664 183.545 253.408 183.545 253.12C183.545 252.528 183.745 252.072 184.145 251.752C184.545 251.432 184.993 251.272 185.489 251.272C185.969 251.272 186.409 251.432 186.809 251.752C187.209 252.072 187.409 252.52 187.409 253.096ZM187.313 267.304C187.313 267.768 187.081 268 186.617 268H184.457C184.201 268 184.009 267.952 183.881 267.856C183.769 267.76 183.713 267.576 183.713 267.304V256.936C183.713 256.696 183.777 256.536 183.905 256.456C184.049 256.36 184.233 256.312 184.457 256.312H186.617C186.841 256.312 187.009 256.352 187.121 256.432C187.249 256.512 187.313 256.68 187.313 256.936V267.304ZM193.895 267.304C193.895 267.768 193.671 268 193.223 268H190.967C190.519 268 190.295 267.784 190.295 267.352V257.008C190.295 256.784 190.343 256.616 190.439 256.504C190.535 256.376 190.719 256.312 190.991 256.312H192.959C193.135 256.312 193.279 256.344 193.391 256.408C193.519 256.472 193.599 256.608 193.631 256.816L193.679 257.32C194.239 256.888 194.839 256.56 195.479 256.336C196.119 256.096 196.799 255.976 197.519 255.976C198.847 255.976 199.807 256.36 200.399 257.128C201.007 257.896 201.311 258.936 201.311 260.248V267.28C201.311 267.52 201.263 267.704 201.167 267.832C201.071 267.944 200.887 268 200.615 268H198.407C197.943 268 197.711 267.76 197.711 267.28V260.896C197.711 260.384 197.623 259.976 197.447 259.672C197.271 259.368 196.903 259.216 196.343 259.216C195.943 259.216 195.519 259.304 195.071 259.48C194.623 259.64 194.231 259.864 193.895 260.152V267.304ZM214.85 262.408C214.85 262.696 214.778 262.888 214.634 262.984C214.506 263.064 214.29 263.104 213.986 263.104H207.266C207.41 263.872 207.778 264.456 208.37 264.856C208.962 265.256 209.626 265.456 210.362 265.456C210.89 265.456 211.394 265.408 211.874 265.312C212.37 265.2 212.858 265.048 213.338 264.856C213.514 264.776 213.666 264.752 213.794 264.784C213.922 264.816 214.018 264.944 214.082 265.168L214.466 266.68C214.53 266.904 214.522 267.08 214.442 267.208C214.362 267.32 214.234 267.416 214.058 267.496C213.418 267.8 212.706 268.008 211.922 268.12C211.154 268.248 210.418 268.312 209.714 268.312C208.754 268.312 207.89 268.168 207.122 267.88C206.354 267.592 205.698 267.184 205.154 266.656C204.626 266.128 204.21 265.48 203.906 264.712C203.618 263.944 203.474 263.08 203.474 262.12C203.474 261.192 203.626 260.352 203.93 259.6C204.234 258.832 204.658 258.184 205.202 257.656C205.746 257.112 206.394 256.696 207.146 256.408C207.914 256.12 208.762 255.976 209.69 255.976C210.458 255.976 211.154 256.112 211.778 256.384C212.418 256.656 212.962 257.032 213.41 257.512C214.018 258.152 214.41 258.864 214.586 259.648C214.762 260.432 214.85 261.248 214.85 262.096V262.408ZM211.322 260.824C211.322 260.568 211.282 260.32 211.202 260.08C211.138 259.824 211.026 259.6 210.866 259.408C210.706 259.216 210.506 259.064 210.266 258.952C210.042 258.824 209.778 258.76 209.474 258.76C208.866 258.76 208.37 258.968 207.986 259.384C207.618 259.784 207.394 260.264 207.314 260.824H211.322ZM225.154 264.448C225.154 265.136 225.018 265.728 224.746 266.224C224.49 266.704 224.138 267.104 223.69 267.424C223.242 267.728 222.722 267.952 222.13 268.096C221.554 268.24 220.954 268.312 220.33 268.312C219.69 268.312 219.002 268.224 218.266 268.048C217.546 267.888 216.898 267.68 216.322 267.424C216.018 267.296 215.922 267.056 216.034 266.704L216.514 265.144C216.562 264.968 216.642 264.848 216.754 264.784C216.866 264.704 217.034 264.712 217.258 264.808C218.474 265.304 219.522 265.552 220.402 265.552C221.266 265.552 221.698 265.272 221.698 264.712C221.698 264.488 221.618 264.304 221.458 264.16C221.314 264.016 221.018 263.856 220.57 263.68L218.77 263.008C217.954 262.704 217.298 262.264 216.802 261.688C216.306 261.112 216.058 260.392 216.058 259.528C216.058 258.936 216.194 258.416 216.466 257.968C216.754 257.52 217.114 257.152 217.546 256.864C217.994 256.56 218.49 256.336 219.034 256.192C219.578 256.048 220.114 255.976 220.642 255.976C221.266 255.976 221.882 256.032 222.49 256.144C223.098 256.256 223.722 256.456 224.362 256.744C224.65 256.872 224.746 257.096 224.65 257.416L224.146 259.048C224.098 259.208 224.002 259.304 223.858 259.336C223.73 259.352 223.602 259.336 223.474 259.288C222.962 259.112 222.49 258.968 222.058 258.856C221.642 258.728 221.186 258.664 220.69 258.664C220.29 258.664 219.994 258.744 219.802 258.904C219.626 259.064 219.538 259.24 219.538 259.432C219.538 259.576 219.586 259.728 219.682 259.888C219.778 260.032 220.034 260.184 220.45 260.344L222.49 261.16C223.354 261.496 224.01 261.928 224.458 262.456C224.922 262.968 225.154 263.632 225.154 264.448ZM235.396 264.448C235.396 265.136 235.26 265.728 234.988 266.224C234.732 266.704 234.38 267.104 233.932 267.424C233.484 267.728 232.964 267.952 232.372 268.096C231.796 268.24 231.196 268.312 230.572 268.312C229.932 268.312 229.244 268.224 228.508 268.048C227.788 267.888 227.14 267.68 226.564 267.424C226.26 267.296 226.164 267.056 226.276 266.704L226.756 265.144C226.804 264.968 226.884 264.848 226.996 264.784C227.108 264.704 227.276 264.712 227.5 264.808C228.716 265.304 229.764 265.552 230.644 265.552C231.508 265.552 231.94 265.272 231.94 264.712C231.94 264.488 231.86 264.304 231.7 264.16C231.556 264.016 231.26 263.856 230.812 263.68L229.012 263.008C228.196 262.704 227.54 262.264 227.044 261.688C226.548 261.112 226.3 260.392 226.3 259.528C226.3 258.936 226.436 258.416 226.708 257.968C226.996 257.52 227.356 257.152 227.788 256.864C228.236 256.56 228.732 256.336 229.276 256.192C229.82 256.048 230.356 255.976 230.884 255.976C231.508 255.976 232.124 256.032 232.732 256.144C233.34 256.256 233.964 256.456 234.604 256.744C234.892 256.872 234.988 257.096 234.892 257.416L234.388 259.048C234.34 259.208 234.244 259.304 234.1 259.336C233.972 259.352 233.844 259.336 233.716 259.288C233.204 259.112 232.732 258.968 232.3 258.856C231.884 258.728 231.428 258.664 230.932 258.664C230.532 258.664 230.236 258.744 230.044 258.904C229.868 259.064 229.78 259.24 229.78 259.432C229.78 259.576 229.828 259.728 229.924 259.888C230.02 260.032 230.276 260.184 230.692 260.344L232.732 261.16C233.596 261.496 234.252 261.928 234.7 262.456C235.164 262.968 235.396 263.632 235.396 264.448Z" fill="black"/>
<path d="M150.15 142.944C150.23 142.768 150.326 142.624 150.438 142.512C150.566 142.4 150.742 142.344 150.966 142.344H153.51C153.734 142.344 153.902 142.4 154.014 142.512C154.142 142.624 154.246 142.768 154.326 142.944L160.134 158.16C160.214 158.384 160.222 158.584 160.158 158.76C160.11 158.92 159.958 159 159.702 159H157.014C156.726 159 156.518 158.944 156.39 158.832C156.262 158.704 156.158 158.536 156.078 158.328L155.118 155.544H149.19L148.23 158.424C148.182 158.584 148.102 158.72 147.99 158.832C147.894 158.944 147.734 159 147.51 159H144.942C144.686 159 144.526 158.92 144.462 158.76C144.414 158.584 144.43 158.384 144.51 158.16L150.15 142.944ZM154.086 152.664L152.574 147.936L152.142 146.544H152.094L151.662 147.96L150.15 152.664H154.086ZM167.596 150.24C167.196 150.24 166.804 150.32 166.42 150.48C166.036 150.624 165.692 150.848 165.388 151.152V158.328C165.388 158.776 165.164 159 164.716 159H162.46C162.012 159 161.788 158.776 161.788 158.328V148.008C161.788 147.72 161.852 147.536 161.98 147.456C162.108 147.36 162.276 147.312 162.484 147.312H164.428C164.876 147.312 165.108 147.472 165.124 147.792L165.172 148.512C165.604 148 166.044 147.616 166.492 147.36C166.956 147.104 167.524 146.976 168.196 146.976C168.564 146.976 168.812 147.024 168.94 147.12C169.084 147.2 169.14 147.368 169.108 147.624L168.748 149.904C168.7 150.16 168.572 150.288 168.364 150.288C168.236 150.288 168.124 150.28 168.028 150.264C167.948 150.248 167.804 150.24 167.596 150.24ZM174.87 147.312H177.462C177.638 147.312 177.774 147.352 177.87 147.432C177.982 147.512 178.038 147.64 178.038 147.816V149.208C178.038 149.384 177.982 149.52 177.87 149.616C177.774 149.712 177.638 149.76 177.462 149.76H174.87V154.44C174.87 155.064 174.934 155.56 175.062 155.928C175.206 156.28 175.542 156.456 176.07 156.456C176.374 156.456 176.646 156.432 176.886 156.384C177.126 156.32 177.366 156.248 177.606 156.168C177.75 156.12 177.886 156.104 178.014 156.12C178.158 156.136 178.246 156.24 178.278 156.432L178.566 157.968C178.598 158.144 178.59 158.288 178.542 158.4C178.51 158.512 178.382 158.616 178.158 158.712C177.742 158.888 177.27 159.032 176.742 159.144C176.23 159.256 175.694 159.312 175.134 159.312C174.462 159.312 173.862 159.224 173.334 159.048C172.806 158.888 172.382 158.616 172.062 158.232C171.87 158.008 171.718 157.776 171.606 157.536C171.494 157.28 171.414 157 171.366 156.696C171.318 156.392 171.286 156.056 171.27 155.688C171.254 155.304 171.246 154.864 171.246 154.368V149.76H170.286C169.998 149.76 169.814 149.712 169.734 149.616C169.654 149.504 169.614 149.288 169.614 148.968V147.936C169.614 147.76 169.662 147.616 169.758 147.504C169.854 147.376 169.99 147.312 170.166 147.312H171.27V144.936C171.27 144.712 171.31 144.544 171.39 144.432C171.47 144.304 171.622 144.224 171.846 144.192L174.198 143.88C174.646 143.816 174.87 143.984 174.87 144.384V147.312ZM184.261 144.096C184.261 144.384 184.205 144.64 184.093 144.864C183.981 145.088 183.829 145.28 183.637 145.44C183.461 145.6 183.253 145.72 183.013 145.8C182.789 145.88 182.565 145.92 182.341 145.92C182.117 145.92 181.885 145.88 181.645 145.8C181.421 145.72 181.213 145.608 181.021 145.464C180.845 145.304 180.693 145.112 180.565 144.888C180.453 144.664 180.397 144.408 180.397 144.12C180.397 143.528 180.597 143.072 180.997 142.752C181.397 142.432 181.845 142.272 182.341 142.272C182.821 142.272 183.261 142.432 183.661 142.752C184.061 143.072 184.261 143.52 184.261 144.096ZM184.165 158.304C184.165 158.768 183.933 159 183.469 159H181.309C181.053 159 180.861 158.952 180.733 158.856C180.621 158.76 180.565 158.576 180.565 158.304V147.936C180.565 147.696 180.629 147.536 180.757 147.456C180.901 147.36 181.085 147.312 181.309 147.312H183.469C183.693 147.312 183.861 147.352 183.973 147.432C184.101 147.512 184.165 147.68 184.165 147.936V158.304ZM191.563 158.232C191.563 158.488 191.515 158.68 191.419 158.808C191.323 158.936 191.139 159 190.867 159H188.635C188.187 159 187.963 158.76 187.963 158.28V149.76H186.763C186.475 149.76 186.291 149.712 186.211 149.616C186.131 149.504 186.091 149.288 186.091 148.968V147.936C186.091 147.76 186.139 147.616 186.235 147.504C186.331 147.376 186.467 147.312 186.643 147.312H187.963V146.52C187.963 144.824 188.451 143.544 189.427 142.68C190.403 141.816 191.779 141.384 193.555 141.384C193.907 141.384 194.259 141.4 194.611 141.432C194.979 141.448 195.331 141.48 195.667 141.528C196.003 141.576 196.315 141.632 196.603 141.696C196.891 141.76 197.131 141.824 197.323 141.888C197.627 142 197.795 142.128 197.827 142.272C197.859 142.416 197.859 142.6 197.827 142.824L197.587 144.288C197.507 144.704 197.267 144.864 196.867 144.768C196.739 144.736 196.563 144.704 196.339 144.672C196.115 144.624 195.867 144.584 195.595 144.552C195.339 144.504 195.075 144.464 194.803 144.432C194.547 144.4 194.315 144.384 194.107 144.384C193.323 144.384 192.699 144.544 192.235 144.864C191.787 145.184 191.563 145.768 191.563 146.616V147.312H198.547C198.771 147.312 198.939 147.352 199.051 147.432C199.179 147.512 199.243 147.68 199.243 147.936V158.304C199.243 158.768 199.011 159 198.547 159H196.387C196.131 159 195.939 158.952 195.811 158.856C195.699 158.76 195.643 158.576 195.643 158.304V149.76H191.563V158.232ZM211.124 157.872C211.204 158.112 211.212 158.28 211.148 158.376C211.084 158.456 210.972 158.536 210.812 158.616C210.268 158.856 209.684 159.032 209.06 159.144C208.436 159.256 207.804 159.312 207.164 159.312C206.3 159.312 205.5 159.192 204.764 158.952C204.044 158.696 203.42 158.32 202.892 157.824C202.364 157.312 201.956 156.688 201.668 155.952C201.38 155.2 201.236 154.328 201.236 153.336C201.236 152.36 201.372 151.48 201.644 150.696C201.932 149.912 202.34 149.248 202.868 148.704C203.396 148.144 204.036 147.72 204.788 147.432C205.556 147.128 206.42 146.976 207.38 146.976C207.94 146.976 208.492 147.024 209.036 147.12C209.596 147.216 210.156 147.384 210.716 147.624C210.892 147.704 210.988 147.8 211.004 147.912C211.02 148.008 211.012 148.144 210.98 148.32L210.596 150.048C210.548 150.24 210.468 150.344 210.356 150.36C210.244 150.376 210.108 150.352 209.948 150.288C209.612 150.16 209.268 150.056 208.916 149.976C208.564 149.88 208.204 149.832 207.836 149.832C206.892 149.832 206.172 150.128 205.676 150.72C205.196 151.296 204.956 152.104 204.956 153.144C204.956 154.312 205.212 155.16 205.724 155.688C206.236 156.216 206.98 156.48 207.956 156.48C208.324 156.48 208.66 156.448 208.964 156.384C209.284 156.32 209.652 156.208 210.068 156.048C210.196 156 210.316 155.984 210.428 156C210.54 156 210.62 156.088 210.668 156.264L211.124 157.872ZM216.98 144.096C216.98 144.384 216.924 144.64 216.812 144.864C216.7 145.088 216.548 145.28 216.356 145.44C216.18 145.6 215.972 145.72 215.732 145.8C215.508 145.88 215.284 145.92 215.06 145.92C214.836 145.92 214.604 145.88 214.364 145.8C214.14 145.72 213.932 145.608 213.74 145.464C213.564 145.304 213.412 145.112 213.284 144.888C213.172 144.664 213.116 144.408 213.116 144.12C213.116 143.528 213.316 143.072 213.716 142.752C214.116 142.432 214.564 142.272 215.06 142.272C215.54 142.272 215.98 142.432 216.38 142.752C216.78 143.072 216.98 143.52 216.98 144.096ZM216.884 158.304C216.884 158.768 216.652 159 216.188 159H214.028C213.772 159 213.58 158.952 213.452 158.856C213.34 158.76 213.284 158.576 213.284 158.304V147.936C213.284 147.696 213.348 147.536 213.476 147.456C213.62 147.36 213.804 147.312 214.028 147.312H216.188C216.412 147.312 216.58 147.352 216.692 147.432C216.82 147.512 216.884 147.68 216.884 147.936V158.304ZM231.722 158.448C231.722 158.624 231.666 158.76 231.554 158.856C231.458 158.952 231.322 159 231.146 159H229.874C229.154 159 228.626 158.904 228.29 158.712C227.97 158.52 227.73 158.248 227.57 157.896H227.522C227.362 158.088 227.146 158.272 226.874 158.448C226.618 158.608 226.338 158.752 226.034 158.88C225.73 159.008 225.41 159.112 225.074 159.192C224.754 159.272 224.45 159.312 224.162 159.312C223.298 159.312 222.546 159.152 221.906 158.832C221.282 158.512 220.754 158.088 220.322 157.56C219.906 157.016 219.594 156.384 219.386 155.664C219.194 154.944 219.098 154.184 219.098 153.384C219.098 152.328 219.25 151.4 219.554 150.6C219.858 149.8 220.258 149.136 220.754 148.608C221.25 148.064 221.81 147.656 222.434 147.384C223.074 147.112 223.722 146.976 224.378 146.976C225.05 146.976 225.642 147.112 226.154 147.384C226.666 147.64 227.05 147.952 227.306 148.32L227.378 147.792C227.426 147.472 227.61 147.312 227.93 147.312H230.09C230.266 147.312 230.402 147.36 230.498 147.456C230.61 147.552 230.666 147.696 230.666 147.888V156.168C230.666 156.44 230.786 156.576 231.026 156.576H231.218C231.554 156.576 231.722 156.736 231.722 157.056V158.448ZM227.066 150.768C226.842 150.576 226.554 150.392 226.202 150.216C225.85 150.04 225.49 149.952 225.122 149.952C224.834 149.952 224.546 150.016 224.258 150.144C223.986 150.256 223.746 150.448 223.538 150.72C223.33 150.976 223.162 151.304 223.034 151.704C222.906 152.104 222.842 152.584 222.842 153.144C222.842 153.512 222.866 153.896 222.914 154.296C222.978 154.68 223.09 155.032 223.25 155.352C223.426 155.656 223.65 155.912 223.922 156.12C224.21 156.312 224.586 156.408 225.05 156.408C225.258 156.408 225.466 156.376 225.674 156.312C225.898 156.232 226.098 156.144 226.274 156.048C226.45 155.936 226.602 155.824 226.73 155.712C226.874 155.6 226.986 155.496 227.066 155.4V150.768ZM237.247 158.328C237.247 158.776 237.039 159 236.623 159H234.295C234.119 159 233.967 158.952 233.839 158.856C233.711 158.744 233.647 158.576 233.647 158.352V142.848C233.647 142.624 233.687 142.456 233.767 142.344C233.847 142.216 233.999 142.136 234.223 142.104L236.575 141.792C237.023 141.728 237.247 141.896 237.247 142.296V158.328ZM252.862 156.552C253.262 156.552 253.462 156.76 253.462 157.176V158.472C253.462 158.824 253.262 159 252.862 159H246.502C246.102 159 245.902 158.824 245.902 158.472V157.176C245.902 156.76 246.102 156.552 246.502 156.552H247.774V144.792H246.502C246.102 144.792 245.902 144.584 245.902 144.168V142.872C245.902 142.52 246.102 142.344 246.502 142.344H252.862C253.262 142.344 253.462 142.52 253.462 142.872V144.168C253.462 144.584 253.262 144.792 252.862 144.792H251.59V156.552H252.862ZM259.864 158.304C259.864 158.768 259.64 159 259.192 159H256.936C256.488 159 256.264 158.784 256.264 158.352V148.008C256.264 147.784 256.312 147.616 256.408 147.504C256.504 147.376 256.688 147.312 256.96 147.312H258.928C259.104 147.312 259.248 147.344 259.36 147.408C259.488 147.472 259.568 147.608 259.6 147.816L259.648 148.32C260.208 147.888 260.808 147.56 261.448 147.336C262.088 147.096 262.768 146.976 263.488 146.976C264.816 146.976 265.776 147.36 266.368 148.128C266.976 148.896 267.28 149.936 267.28 151.248V158.28C267.28 158.52 267.232 158.704 267.136 158.832C267.04 158.944 266.856 159 266.584 159H264.376C263.912 159 263.68 158.76 263.68 158.28V151.896C263.68 151.384 263.592 150.976 263.416 150.672C263.24 150.368 262.872 150.216 262.312 150.216C261.912 150.216 261.488 150.304 261.04 150.48C260.592 150.64 260.2 150.864 259.864 151.152V158.304ZM274.363 147.312H276.955C277.131 147.312 277.267 147.352 277.363 147.432C277.475 147.512 277.531 147.64 277.531 147.816V149.208C277.531 149.384 277.475 149.52 277.363 149.616C277.267 149.712 277.131 149.76 276.955 149.76H274.363V154.44C274.363 155.064 274.427 155.56 274.555 155.928C274.699 156.28 275.035 156.456 275.563 156.456C275.867 156.456 276.139 156.432 276.379 156.384C276.619 156.32 276.859 156.248 277.099 156.168C277.243 156.12 277.379 156.104 277.507 156.12C277.651 156.136 277.739 156.24 277.771 156.432L278.059 157.968C278.091 158.144 278.083 158.288 278.035 158.4C278.003 158.512 277.875 158.616 277.651 158.712C277.235 158.888 276.763 159.032 276.235 159.144C275.723 159.256 275.187 159.312 274.627 159.312C273.955 159.312 273.355 159.224 272.827 159.048C272.299 158.888 271.875 158.616 271.555 158.232C271.363 158.008 271.211 157.776 271.099 157.536C270.987 157.28 270.907 157 270.859 156.696C270.811 156.392 270.779 156.056 270.763 155.688C270.747 155.304 270.739 154.864 270.739 154.368V149.76H269.779C269.491 149.76 269.307 149.712 269.227 149.616C269.147 149.504 269.107 149.288 269.107 148.968V147.936C269.107 147.76 269.155 147.616 269.251 147.504C269.347 147.376 269.483 147.312 269.659 147.312H270.763V144.936C270.763 144.712 270.803 144.544 270.883 144.432C270.963 144.304 271.115 144.224 271.339 144.192L273.691 143.88C274.139 143.816 274.363 143.984 274.363 144.384V147.312ZM290.545 153.408C290.545 153.696 290.473 153.888 290.329 153.984C290.201 154.064 289.985 154.104 289.681 154.104H282.961C283.105 154.872 283.473 155.456 284.065 155.856C284.657 156.256 285.321 156.456 286.057 156.456C286.585 156.456 287.089 156.408 287.569 156.312C288.065 156.2 288.553 156.048 289.033 155.856C289.209 155.776 289.361 155.752 289.489 155.784C289.617 155.816 289.713 155.944 289.777 156.168L290.161 157.68C290.225 157.904 290.217 158.08 290.137 158.208C290.057 158.32 289.929 158.416 289.753 158.496C289.113 158.8 288.401 159.008 287.617 159.12C286.849 159.248 286.113 159.312 285.409 159.312C284.449 159.312 283.585 159.168 282.817 158.88C282.049 158.592 281.393 158.184 280.849 157.656C280.321 157.128 279.905 156.48 279.601 155.712C279.313 154.944 279.169 154.08 279.169 153.12C279.169 152.192 279.321 151.352 279.625 150.6C279.929 149.832 280.353 149.184 280.897 148.656C281.441 148.112 282.089 147.696 282.841 147.408C283.609 147.12 284.457 146.976 285.385 146.976C286.153 146.976 286.849 147.112 287.473 147.384C288.113 147.656 288.657 148.032 289.105 148.512C289.713 149.152 290.105 149.864 290.281 150.648C290.457 151.432 290.545 152.248 290.545 153.096V153.408ZM287.017 151.824C287.017 151.568 286.977 151.32 286.897 151.08C286.833 150.824 286.721 150.6 286.561 150.408C286.401 150.216 286.201 150.064 285.961 149.952C285.737 149.824 285.473 149.76 285.169 149.76C284.561 149.76 284.065 149.968 283.681 150.384C283.313 150.784 283.089 151.264 283.009 151.824H287.017ZM296.169 158.328C296.169 158.776 295.961 159 295.545 159H293.217C293.041 159 292.889 158.952 292.761 158.856C292.633 158.744 292.569 158.576 292.569 158.352V142.848C292.569 142.624 292.609 142.456 292.689 142.344C292.769 142.216 292.921 142.136 293.145 142.104L295.497 141.792C295.945 141.728 296.169 141.896 296.169 142.296V158.328ZM302.638 158.328C302.638 158.776 302.43 159 302.014 159H299.686C299.51 159 299.358 158.952 299.23 158.856C299.102 158.744 299.038 158.576 299.038 158.352V142.848C299.038 142.624 299.078 142.456 299.158 142.344C299.238 142.216 299.39 142.136 299.614 142.104L301.966 141.792C302.414 141.728 302.638 141.896 302.638 142.296V158.328ZM309.37 144.096C309.37 144.384 309.314 144.64 309.202 144.864C309.09 145.088 308.938 145.28 308.746 145.44C308.57 145.6 308.362 145.72 308.122 145.8C307.898 145.88 307.674 145.92 307.45 145.92C307.226 145.92 306.994 145.88 306.754 145.8C306.53 145.72 306.322 145.608 306.13 145.464C305.954 145.304 305.802 145.112 305.674 144.888C305.562 144.664 305.506 144.408 305.506 144.12C305.506 143.528 305.706 143.072 306.106 142.752C306.506 142.432 306.954 142.272 307.45 142.272C307.93 142.272 308.37 142.432 308.77 142.752C309.17 143.072 309.37 143.52 309.37 144.096ZM309.274 158.304C309.274 158.768 309.042 159 308.578 159H306.418C306.162 159 305.97 158.952 305.842 158.856C305.73 158.76 305.674 158.576 305.674 158.304V147.936C305.674 147.696 305.738 147.536 305.866 147.456C306.01 147.36 306.194 147.312 306.418 147.312H308.578C308.802 147.312 308.97 147.352 309.082 147.432C309.21 147.512 309.274 147.68 309.274 147.936V158.304ZM323.104 158.064C323.104 160.08 322.64 161.616 321.712 162.672C320.784 163.728 319.28 164.256 317.2 164.256C316.576 164.256 315.96 164.2 315.352 164.088C314.76 163.976 314.144 163.792 313.504 163.536C313.232 163.44 313.088 163.312 313.072 163.152C313.056 163.008 313.08 162.824 313.144 162.6L313.552 161.256C313.632 160.984 313.728 160.832 313.84 160.8C313.968 160.768 314.144 160.792 314.368 160.872C315.28 161.24 316.16 161.424 317.008 161.424C317.552 161.424 317.984 161.352 318.304 161.208C318.64 161.08 318.896 160.896 319.072 160.656C319.248 160.432 319.36 160.16 319.408 159.84C319.472 159.536 319.504 159.2 319.504 158.832V157.968C319.168 158.24 318.72 158.488 318.16 158.712C317.616 158.936 317.104 159.048 316.624 159.048C315.152 159.048 313.968 158.6 313.072 157.704C312.56 157.192 312.176 156.568 311.92 155.832C311.664 155.08 311.536 154.264 311.536 153.384C311.536 152.568 311.648 151.776 311.872 151.008C312.112 150.224 312.456 149.536 312.904 148.944C313.368 148.352 313.936 147.88 314.608 147.528C315.28 147.16 316.056 146.976 316.936 146.976C317.496 146.976 318.04 147.096 318.568 147.336C318.76 147.416 318.968 147.552 319.192 147.744C319.416 147.936 319.592 148.128 319.72 148.32L319.768 147.792C319.8 147.472 320.008 147.312 320.392 147.312H322.432C322.688 147.312 322.864 147.368 322.96 147.48C323.056 147.576 323.104 147.744 323.104 147.984V158.064ZM319.504 150.648C319.28 150.424 319 150.24 318.664 150.096C318.328 149.952 317.984 149.88 317.632 149.88C317.312 149.88 317.024 149.944 316.768 150.072C316.512 150.184 316.296 150.328 316.12 150.504C315.8 150.824 315.576 151.24 315.448 151.752C315.336 152.264 315.28 152.736 315.28 153.168C315.28 153.6 315.336 154.04 315.448 154.488C315.56 154.92 315.776 155.288 316.096 155.592C316.288 155.784 316.512 155.92 316.768 156C317.04 156.08 317.296 156.12 317.536 156.12C317.904 156.12 318.272 156.032 318.64 155.856C319.024 155.664 319.312 155.464 319.504 155.256V150.648ZM336.647 153.408C336.647 153.696 336.575 153.888 336.431 153.984C336.303 154.064 336.087 154.104 335.783 154.104H329.063C329.207 154.872 329.575 155.456 330.167 155.856C330.759 156.256 331.423 156.456 332.159 156.456C332.687 156.456 333.191 156.408 333.671 156.312C334.167 156.2 334.655 156.048 335.135 155.856C335.311 155.776 335.463 155.752 335.591 155.784C335.719 155.816 335.815 155.944 335.879 156.168L336.263 157.68C336.327 157.904 336.319 158.08 336.239 158.208C336.159 158.32 336.031 158.416 335.855 158.496C335.215 158.8 334.503 159.008 333.719 159.12C332.951 159.248 332.215 159.312 331.511 159.312C330.551 159.312 329.687 159.168 328.919 158.88C328.151 158.592 327.495 158.184 326.951 157.656C326.423 157.128 326.007 156.48 325.703 155.712C325.415 154.944 325.271 154.08 325.271 153.12C325.271 152.192 325.423 151.352 325.727 150.6C326.031 149.832 326.455 149.184 326.999 148.656C327.543 148.112 328.191 147.696 328.943 147.408C329.711 147.12 330.559 146.976 331.487 146.976C332.255 146.976 332.951 147.112 333.575 147.384C334.215 147.656 334.759 148.032 335.207 148.512C335.815 149.152 336.207 149.864 336.383 150.648C336.559 151.432 336.647 152.248 336.647 153.096V153.408ZM333.119 151.824C333.119 151.568 333.079 151.32 332.999 151.08C332.935 150.824 332.823 150.6 332.663 150.408C332.503 150.216 332.303 150.064 332.063 149.952C331.839 149.824 331.575 149.76 331.271 149.76C330.663 149.76 330.167 149.968 329.783 150.384C329.415 150.784 329.191 151.264 329.111 151.824H333.119ZM342.27 158.304C342.27 158.768 342.046 159 341.598 159H339.342C338.894 159 338.67 158.784 338.67 158.352V148.008C338.67 147.784 338.718 147.616 338.814 147.504C338.91 147.376 339.094 147.312 339.366 147.312H341.334C341.51 147.312 341.654 147.344 341.766 147.408C341.894 147.472 341.974 147.608 342.006 147.816L342.054 148.32C342.614 147.888 343.214 147.56 343.854 147.336C344.494 147.096 345.174 146.976 345.894 146.976C347.222 146.976 348.182 147.36 348.774 148.128C349.382 148.896 349.686 149.936 349.686 151.248V158.28C349.686 158.52 349.638 158.704 349.542 158.832C349.446 158.944 349.262 159 348.99 159H346.782C346.318 159 346.086 158.76 346.086 158.28V151.896C346.086 151.384 345.998 150.976 345.822 150.672C345.646 150.368 345.278 150.216 344.718 150.216C344.318 150.216 343.894 150.304 343.446 150.48C342.998 150.64 342.606 150.864 342.27 151.152V158.304ZM361.569 157.872C361.649 158.112 361.657 158.28 361.593 158.376C361.529 158.456 361.417 158.536 361.257 158.616C360.713 158.856 360.129 159.032 359.505 159.144C358.881 159.256 358.249 159.312 357.609 159.312C356.745 159.312 355.945 159.192 355.209 158.952C354.489 158.696 353.865 158.32 353.337 157.824C352.809 157.312 352.401 156.688 352.113 155.952C351.825 155.2 351.681 154.328 351.681 153.336C351.681 152.36 351.817 151.48 352.089 150.696C352.377 149.912 352.785 149.248 353.313 148.704C353.841 148.144 354.481 147.72 355.233 147.432C356.001 147.128 356.865 146.976 357.825 146.976C358.385 146.976 358.937 147.024 359.481 147.12C360.041 147.216 360.601 147.384 361.161 147.624C361.337 147.704 361.433 147.8 361.449 147.912C361.465 148.008 361.457 148.144 361.425 148.32L361.041 150.048C360.993 150.24 360.913 150.344 360.801 150.36C360.689 150.376 360.553 150.352 360.393 150.288C360.057 150.16 359.713 150.056 359.361 149.976C359.009 149.88 358.649 149.832 358.281 149.832C357.337 149.832 356.617 150.128 356.121 150.72C355.641 151.296 355.401 152.104 355.401 153.144C355.401 154.312 355.657 155.16 356.169 155.688C356.681 156.216 357.425 156.48 358.401 156.48C358.769 156.48 359.105 156.448 359.409 156.384C359.729 156.32 360.097 156.208 360.513 156.048C360.641 156 360.761 155.984 360.873 156C360.985 156 361.065 156.088 361.113 156.264L361.569 157.872ZM374.17 153.408C374.17 153.696 374.098 153.888 373.954 153.984C373.826 154.064 373.61 154.104 373.306 154.104H366.586C366.73 154.872 367.098 155.456 367.69 155.856C368.282 156.256 368.946 156.456 369.682 156.456C370.21 156.456 370.714 156.408 371.194 156.312C371.69 156.2 372.178 156.048 372.658 155.856C372.834 155.776 372.986 155.752 373.114 155.784C373.242 155.816 373.338 155.944 373.402 156.168L373.786 157.68C373.85 157.904 373.842 158.08 373.762 158.208C373.682 158.32 373.554 158.416 373.378 158.496C372.738 158.8 372.026 159.008 371.242 159.12C370.474 159.248 369.738 159.312 369.034 159.312C368.074 159.312 367.21 159.168 366.442 158.88C365.674 158.592 365.018 158.184 364.474 157.656C363.946 157.128 363.53 156.48 363.226 155.712C362.938 154.944 362.794 154.08 362.794 153.12C362.794 152.192 362.946 151.352 363.25 150.6C363.554 149.832 363.978 149.184 364.522 148.656C365.066 148.112 365.714 147.696 366.466 147.408C367.234 147.12 368.082 146.976 369.01 146.976C369.778 146.976 370.474 147.112 371.098 147.384C371.738 147.656 372.282 148.032 372.73 148.512C373.338 149.152 373.73 149.864 373.906 150.648C374.082 151.432 374.17 152.248 374.17 153.096V153.408ZM370.642 151.824C370.642 151.568 370.602 151.32 370.522 151.08C370.458 150.824 370.346 150.6 370.186 150.408C370.026 150.216 369.826 150.064 369.586 149.952C369.362 149.824 369.098 149.76 368.794 149.76C368.186 149.76 367.69 149.968 367.306 150.384C366.938 150.784 366.714 151.264 366.634 151.824H370.642Z" fill="black"/>
<path d="M152.382 374.552C152.782 374.552 152.982 374.76 152.982 375.176V376.472C152.982 376.824 152.782 377 152.382 377H146.022C145.622 377 145.422 376.824 145.422 376.472V375.176C145.422 374.76 145.622 374.552 146.022 374.552H147.294V362.792H146.022C145.622 362.792 145.422 362.584 145.422 362.168V360.872C145.422 360.52 145.622 360.344 146.022 360.344H152.382C152.782 360.344 152.982 360.52 152.982 360.872V362.168C152.982 362.584 152.782 362.792 152.382 362.792H151.11V374.552H152.382ZM159.384 376.304C159.384 376.768 159.16 377 158.712 377H156.456C156.008 377 155.784 376.784 155.784 376.352V366.008C155.784 365.784 155.832 365.616 155.928 365.504C156.024 365.376 156.208 365.312 156.48 365.312H158.448C158.624 365.312 158.768 365.344 158.88 365.408C159.008 365.472 159.088 365.608 159.12 365.816L159.168 366.32C159.728 365.888 160.328 365.56 160.968 365.336C161.608 365.096 162.288 364.976 163.008 364.976C164.336 364.976 165.296 365.36 165.888 366.128C166.496 366.896 166.8 367.936 166.8 369.248V376.28C166.8 376.52 166.752 376.704 166.656 376.832C166.56 376.944 166.376 377 166.104 377H163.896C163.432 377 163.2 376.76 163.2 376.28V369.896C163.2 369.384 163.112 368.976 162.936 368.672C162.76 368.368 162.392 368.216 161.832 368.216C161.432 368.216 161.008 368.304 160.56 368.48C160.112 368.64 159.72 368.864 159.384 369.152V376.304ZM173.282 376.304C173.282 376.768 173.058 377 172.61 377H170.354C169.906 377 169.682 376.784 169.682 376.352V366.008C169.682 365.784 169.73 365.616 169.826 365.504C169.922 365.376 170.106 365.312 170.378 365.312H172.346C172.522 365.312 172.666 365.344 172.778 365.408C172.906 365.472 172.986 365.608 173.018 365.816L173.066 366.32C173.626 365.888 174.226 365.56 174.866 365.336C175.506 365.096 176.186 364.976 176.906 364.976C178.234 364.976 179.194 365.36 179.786 366.128C180.394 366.896 180.698 367.936 180.698 369.248V376.28C180.698 376.52 180.65 376.704 180.554 376.832C180.458 376.944 180.274 377 180.002 377H177.794C177.33 377 177.098 376.76 177.098 376.28V369.896C177.098 369.384 177.01 368.976 176.834 368.672C176.658 368.368 176.29 368.216 175.73 368.216C175.33 368.216 174.906 368.304 174.458 368.48C174.01 368.64 173.618 368.864 173.282 369.152V376.304ZM194.933 371.168C194.933 372.048 194.797 372.864 194.525 373.616C194.253 374.368 193.853 375.016 193.325 375.56C192.813 376.104 192.173 376.536 191.405 376.856C190.653 377.16 189.789 377.312 188.813 377.312C187.805 377.312 186.925 377.16 186.173 376.856C185.421 376.536 184.797 376.104 184.301 375.56C183.821 375 183.461 374.344 183.221 373.592C182.981 372.84 182.861 372.016 182.861 371.12C182.861 370.24 182.997 369.424 183.269 368.672C183.541 367.92 183.933 367.272 184.445 366.728C184.973 366.184 185.613 365.76 186.365 365.456C187.133 365.136 188.005 364.976 188.981 364.976C189.989 364.976 190.869 365.136 191.621 365.456C192.373 365.76 192.989 366.192 193.469 366.752C193.965 367.296 194.333 367.944 194.573 368.696C194.813 369.448 194.933 370.272 194.933 371.168ZM191.213 371.144C191.213 370.696 191.173 370.272 191.093 369.872C191.029 369.472 190.909 369.12 190.733 368.816C190.557 368.512 190.325 368.272 190.037 368.096C189.749 367.904 189.381 367.808 188.933 367.808C188.485 367.808 188.109 367.896 187.805 368.072C187.517 368.248 187.277 368.488 187.085 368.792C186.909 369.096 186.781 369.448 186.701 369.848C186.621 370.248 186.581 370.664 186.581 371.096C186.581 371.544 186.613 371.976 186.677 372.392C186.757 372.792 186.885 373.152 187.061 373.472C187.237 373.776 187.469 374.024 187.757 374.216C188.045 374.392 188.413 374.48 188.861 374.48C189.309 374.48 189.677 374.392 189.965 374.216C190.269 374.024 190.509 373.776 190.685 373.472C190.877 373.168 191.013 372.816 191.093 372.416C191.173 372 191.213 371.576 191.213 371.144ZM206.784 365.312C207.024 365.312 207.184 365.384 207.264 365.528C207.36 365.672 207.36 365.856 207.264 366.08L202.944 376.496C202.864 376.72 202.76 376.864 202.632 376.928C202.52 376.976 202.352 377 202.128 377H200.712C200.504 377 200.328 376.976 200.184 376.928C200.056 376.864 199.952 376.728 199.872 376.52L195.648 366.056C195.568 365.864 195.56 365.696 195.624 365.552C195.704 365.392 195.856 365.312 196.08 365.312H198.792C199.016 365.312 199.184 365.368 199.296 365.48C199.424 365.576 199.52 365.72 199.584 365.912L201.096 370.784C201.176 371.04 201.256 371.328 201.336 371.648C201.432 371.968 201.512 372.256 201.576 372.512H201.6C201.664 372.288 201.736 372.024 201.816 371.72C201.912 371.4 202 371.104 202.08 370.832L203.688 365.912C203.768 365.672 203.864 365.512 203.976 365.432C204.104 365.352 204.304 365.312 204.576 365.312H206.784ZM220.515 376.448C220.515 376.624 220.459 376.76 220.347 376.856C220.251 376.952 220.115 377 219.939 377H218.667C217.947 377 217.419 376.904 217.083 376.712C216.763 376.52 216.523 376.248 216.363 375.896H216.315C216.155 376.088 215.939 376.272 215.667 376.448C215.411 376.608 215.131 376.752 214.827 376.88C214.523 377.008 214.203 377.112 213.867 377.192C213.547 377.272 213.243 377.312 212.955 377.312C212.091 377.312 211.339 377.152 210.699 376.832C210.075 376.512 209.547 376.088 209.115 375.56C208.699 375.016 208.387 374.384 208.179 373.664C207.987 372.944 207.891 372.184 207.891 371.384C207.891 370.328 208.043 369.4 208.347 368.6C208.651 367.8 209.051 367.136 209.547 366.608C210.043 366.064 210.603 365.656 211.227 365.384C211.867 365.112 212.515 364.976 213.171 364.976C213.843 364.976 214.435 365.112 214.947 365.384C215.459 365.64 215.843 365.952 216.099 366.32L216.171 365.792C216.219 365.472 216.403 365.312 216.723 365.312H218.883C219.059 365.312 219.195 365.36 219.291 365.456C219.403 365.552 219.459 365.696 219.459 365.888V374.168C219.459 374.44 219.579 374.576 219.819 374.576H220.011C220.347 374.576 220.515 374.736 220.515 375.056V376.448ZM215.859 368.768C215.635 368.576 215.347 368.392 214.995 368.216C214.643 368.04 214.283 367.952 213.915 367.952C213.627 367.952 213.339 368.016 213.051 368.144C212.779 368.256 212.539 368.448 212.331 368.72C212.123 368.976 211.955 369.304 211.827 369.704C211.699 370.104 211.635 370.584 211.635 371.144C211.635 371.512 211.659 371.896 211.707 372.296C211.771 372.68 211.883 373.032 212.043 373.352C212.219 373.656 212.443 373.912 212.715 374.12C213.003 374.312 213.379 374.408 213.843 374.408C214.051 374.408 214.259 374.376 214.467 374.312C214.691 374.232 214.891 374.144 215.067 374.048C215.243 373.936 215.395 373.824 215.523 373.712C215.667 373.6 215.779 373.496 215.859 373.4V368.768ZM226.64 365.312H229.232C229.408 365.312 229.544 365.352 229.64 365.432C229.752 365.512 229.808 365.64 229.808 365.816V367.208C229.808 367.384 229.752 367.52 229.64 367.616C229.544 367.712 229.408 367.76 229.232 367.76H226.64V372.44C226.64 373.064 226.704 373.56 226.832 373.928C226.976 374.28 227.312 374.456 227.84 374.456C228.144 374.456 228.416 374.432 228.656 374.384C228.896 374.32 229.136 374.248 229.376 374.168C229.52 374.12 229.656 374.104 229.784 374.12C229.928 374.136 230.016 374.24 230.048 374.432L230.336 375.968C230.368 376.144 230.36 376.288 230.312 376.4C230.28 376.512 230.152 376.616 229.928 376.712C229.512 376.888 229.04 377.032 228.512 377.144C228 377.256 227.464 377.312 226.904 377.312C226.232 377.312 225.632 377.224 225.104 377.048C224.576 376.888 224.152 376.616 223.832 376.232C223.64 376.008 223.488 375.776 223.376 375.536C223.264 375.28 223.184 375 223.136 374.696C223.088 374.392 223.056 374.056 223.04 373.688C223.024 373.304 223.016 372.864 223.016 372.368V367.76H222.056C221.768 367.76 221.584 367.712 221.504 367.616C221.424 367.504 221.384 367.288 221.384 366.968V365.936C221.384 365.76 221.432 365.616 221.528 365.504C221.624 365.376 221.76 365.312 221.936 365.312H223.04V362.936C223.04 362.712 223.08 362.544 223.16 362.432C223.24 362.304 223.392 362.224 223.616 362.192L225.968 361.88C226.416 361.816 226.64 361.984 226.64 362.384V365.312ZM236.031 362.096C236.031 362.384 235.975 362.64 235.863 362.864C235.751 363.088 235.599 363.28 235.407 363.44C235.231 363.6 235.023 363.72 234.783 363.8C234.559 363.88 234.335 363.92 234.111 363.92C233.887 363.92 233.655 363.88 233.415 363.8C233.191 363.72 232.983 363.608 232.791 363.464C232.615 363.304 232.463 363.112 232.335 362.888C232.223 362.664 232.167 362.408 232.167 362.12C232.167 361.528 232.367 361.072 232.767 360.752C233.167 360.432 233.615 360.272 234.111 360.272C234.591 360.272 235.031 360.432 235.431 360.752C235.831 361.072 236.031 361.52 236.031 362.096ZM235.935 376.304C235.935 376.768 235.703 377 235.239 377H233.079C232.823 377 232.631 376.952 232.503 376.856C232.391 376.76 232.335 376.576 232.335 376.304V365.936C232.335 365.696 232.399 365.536 232.527 365.456C232.671 365.36 232.855 365.312 233.079 365.312H235.239C235.463 365.312 235.631 365.352 235.743 365.432C235.871 365.512 235.935 365.68 235.935 365.936V376.304ZM250.269 371.168C250.269 372.048 250.133 372.864 249.861 373.616C249.589 374.368 249.189 375.016 248.661 375.56C248.149 376.104 247.509 376.536 246.741 376.856C245.989 377.16 245.125 377.312 244.149 377.312C243.141 377.312 242.261 377.16 241.509 376.856C240.757 376.536 240.133 376.104 239.637 375.56C239.157 375 238.797 374.344 238.557 373.592C238.317 372.84 238.197 372.016 238.197 371.12C238.197 370.24 238.333 369.424 238.605 368.672C238.877 367.92 239.269 367.272 239.781 366.728C240.309 366.184 240.949 365.76 241.701 365.456C242.469 365.136 243.341 364.976 244.317 364.976C245.325 364.976 246.205 365.136 246.957 365.456C247.709 365.76 248.325 366.192 248.805 366.752C249.301 367.296 249.669 367.944 249.909 368.696C250.149 369.448 250.269 370.272 250.269 371.168ZM246.549 371.144C246.549 370.696 246.509 370.272 246.429 369.872C246.365 369.472 246.245 369.12 246.069 368.816C245.893 368.512 245.661 368.272 245.373 368.096C245.085 367.904 244.717 367.808 244.269 367.808C243.821 367.808 243.445 367.896 243.141 368.072C242.853 368.248 242.613 368.488 242.421 368.792C242.245 369.096 242.117 369.448 242.037 369.848C241.957 370.248 241.917 370.664 241.917 371.096C241.917 371.544 241.949 371.976 242.013 372.392C242.093 372.792 242.221 373.152 242.397 373.472C242.573 373.776 242.805 374.024 243.093 374.216C243.381 374.392 243.749 374.48 244.197 374.48C244.645 374.48 245.013 374.392 245.301 374.216C245.605 374.024 245.845 373.776 246.021 373.472C246.213 373.168 246.349 372.816 246.429 372.416C246.509 372 246.549 371.576 246.549 371.144ZM256.04 376.304C256.04 376.768 255.816 377 255.368 377H253.112C252.664 377 252.44 376.784 252.44 376.352V366.008C252.44 365.784 252.488 365.616 252.584 365.504C252.68 365.376 252.864 365.312 253.136 365.312H255.104C255.28 365.312 255.424 365.344 255.536 365.408C255.664 365.472 255.744 365.608 255.776 365.816L255.824 366.32C256.384 365.888 256.984 365.56 257.624 365.336C258.264 365.096 258.944 364.976 259.664 364.976C260.992 364.976 261.952 365.36 262.544 366.128C263.152 366.896 263.456 367.936 263.456 369.248V376.28C263.456 376.52 263.408 376.704 263.312 376.832C263.216 376.944 263.032 377 262.76 377H260.552C260.088 377 259.856 376.76 259.856 376.28V369.896C259.856 369.384 259.768 368.976 259.592 368.672C259.416 368.368 259.048 368.216 258.488 368.216C258.088 368.216 257.664 368.304 257.216 368.48C256.768 368.64 256.376 368.864 256.04 369.152V376.304Z" fill="black"/>
<path d="M67.1575 25H59.6774C59.1036 25 58.5588 25.255 58.1878 25.6927L48.1864 37.5837L42.6654 44.1451L42.3611 44.5102V26.9475C42.3611 25.8723 41.4888 25 40.4136 25H35.9475C34.8723 25 34 25.8723 34 26.9475V63.0525C34 64.1277 34.8723 65 35.9475 65H40.4136C41.4888 65 42.3611 64.1277 42.3611 63.0525V58.3894C42.3611 57.8126 42.564 57.2533 42.9349 56.8128L47.8357 50.9846L53.3566 44.4233L68.0617 26.9417C68.7051 26.1708 68.1603 25 67.1575 25Z" fill="white"/>
<path d="M55.5941 47.3796C55.4608 47.2057 55.2029 47.1999 55.0609 47.3651L50.0007 53.4077C49.8993 53.5295 49.8935 53.7063 49.9891 53.8309L57.8489 64.2207C58.2169 64.7076 58.7908 64.9916 59.4023 64.9916H66.6157C67.5605 64.9916 68.0996 63.9106 67.5286 63.1571L55.5941 47.3796Z" fill="white"/>
<path d="M56.5583 135.296C56.2829 134.519 55.5468 134 54.7236 134H47.7705C46.9474 134 46.2112 134.519 45.9359 135.296L33.1136 171.403C32.6644 172.67 33.6034 174 34.9482 174H39.6928C40.516 174 41.2521 173.481 41.5275 172.704L51.1007 145.721C51.1471 145.588 51.3355 145.588 51.3818 145.721L60.9667 172.704C61.242 173.481 61.9782 174 62.8013 174H67.543C68.8878 174 69.8269 172.67 69.3776 171.403L56.5583 135.296Z" fill="white"/>
<path d="M64.8403 259.119C65.3171 257.818 65.5714 256.41 65.5714 254.94C65.5714 253.691 65.3865 252.491 65.0368 251.358C63.5601 246.51 59.1619 243 53.966 243H38.942C37.8698 243 37 243.872 37 244.948V281.052C37 282.128 37.8698 283 38.942 283H53.9949C58.896 283 63.3954 279.96 64.927 275.294C64.9964 275.079 65.0628 274.862 65.1206 274.642C65.4125 273.596 65.5599 272.497 65.5599 271.358C65.5599 270.002 65.346 268.695 64.9472 267.478C64.4618 265.985 63.7046 264.623 62.7394 263.446C62.5718 263.241 62.5747 262.954 62.7452 262.751C63.6382 261.687 64.3519 260.458 64.8403 259.119ZM53.3678 275.239H45.3313V267.478H53.3678C55.5034 267.478 57.2373 269.214 57.2373 271.358C57.2373 273.5 55.5063 275.239 53.3678 275.239ZM53.3678 259.119H45.3313V251.358H53.3678C55.5034 251.358 57.2373 253.094 57.2373 255.239C57.2373 257.383 55.5063 259.119 53.3678 259.119Z" fill="white"/>
<path d="M53.414 352H48.9477C47.8724 352 47 352.872 47 353.948V362.883C47 363.054 47.1942 363.15 47.3304 363.048L55.2748 357.107C55.3269 357.066 55.3588 357.005 55.3588 356.942V353.945C55.3617 352.87 54.4893 352 53.414 352Z" fill="white"/>
<path d="M55.0313 361.022L47.087 366.964C47.0348 367.005 47.0029 367.066 47.0029 367.129V390.052C47.0029 391.128 47.8753 392 48.9506 392H53.4141C54.4893 392 55.3617 391.128 55.3617 390.052V361.188C55.3646 361.017 55.1705 360.921 55.0313 361.022Z" fill="white"/>
</svg>
