<svg width="103" height="90" viewBox="0 0 103 90" fill="none" xmlns="http://www.w3.org/2000/svg">
<rect width="103" height="90" rx="10" fill="#6DBFD3"/>
<path d="M67.1575 25H59.6774C59.1036 25 58.5588 25.255 58.1878 25.6927L48.1864 37.5837L42.6654 44.1451L42.3611 44.5102V26.9475C42.3611 25.8723 41.4888 25 40.4136 25H35.9475C34.8723 25 34 25.8723 34 26.9475V63.0525C34 64.1277 34.8723 65 35.9475 65H40.4136C41.4888 65 42.3611 64.1277 42.3611 63.0525V58.3894C42.3611 57.8126 42.564 57.2533 42.9349 56.8128L47.8357 50.9846L53.3566 44.4233L68.0617 26.9417C68.7051 26.1708 68.1603 25 67.1575 25Z" fill="white"/>
<path d="M55.5932 47.3795C55.4598 47.2056 55.2019 47.1998 55.0599 47.365L49.9998 53.4076C49.8983 53.5293 49.8925 53.7061 49.9882 53.8307L57.8479 64.2205C58.216 64.7074 58.7898 64.9915 59.4013 64.9915H66.6147C67.5595 64.9915 68.0986 63.9104 67.5277 63.1569L55.5932 47.3795Z" fill="white"/>
</svg>
