<svg width="103" height="90" viewBox="0 0 103 90" fill="none" xmlns="http://www.w3.org/2000/svg">
<rect width="103" height="90" rx="10" fill="#2B57A0"/>
<path d="M56.5583 26.2956C56.2829 25.5188 55.5468 25 54.7236 25H47.7705C46.9474 25 46.2112 25.5188 45.9359 26.2956L33.1136 62.4031C32.6644 63.6697 33.6034 65 34.9482 65H39.6928C40.516 65 41.2521 64.4812 41.5275 63.7044L51.1007 36.7209C51.1471 36.5876 51.3355 36.5876 51.3818 36.7209L60.9667 63.7044C61.242 64.4812 61.9782 65 62.8013 65H67.543C68.8878 65 69.8269 63.6697 69.3776 62.4031L56.5583 26.2956Z" fill="white"/>
</svg>
