<svg width="103" height="90" viewBox="0 0 103 90" fill="none" xmlns="http://www.w3.org/2000/svg">
<rect width="103" height="90" rx="10" fill="#41A575"/>
<path d="M53.414 25H48.9477C47.8724 25 47 25.8724 47 26.9477V35.8833C47 36.0543 47.1942 36.1499 47.3304 36.0485L55.2748 30.1069C55.3269 30.0663 55.3588 30.0054 55.3588 29.9417V26.9448C55.3617 25.8695 54.4893 25 53.414 25Z" fill="white"/>
<path d="M55.0304 34.0225L47.086 39.9641C47.0338 40.0047 47.002 40.0656 47.002 40.1293V63.0523C47.002 64.1276 47.8744 65 48.9496 65H53.4131C54.4884 65 55.3608 64.1276 55.3608 63.0523V34.1878C55.3637 34.0168 55.1695 33.9211 55.0304 34.0225Z" fill="white"/>
</svg>
