<svg width="103" height="90" viewBox="0 0 103 90" fill="none" xmlns="http://www.w3.org/2000/svg">
<rect width="103" height="90" rx="10" fill="#3B6CB2"/>
<path d="M64.8403 41.1194C65.3171 39.8181 65.5714 38.4097 65.5714 36.9403C65.5714 35.6912 65.3865 34.4914 65.0368 33.3582C63.5601 28.5096 59.1619 25 53.966 25H38.942C37.8698 25 37 25.8723 37 26.9475V63.0525C37 64.1277 37.8698 65 38.942 65H53.9949C58.896 65 63.3954 61.9599 64.927 57.2939C64.9964 57.0794 65.0628 56.862 65.1206 56.6418C65.4125 55.5956 65.5599 54.4972 65.5599 53.3582C65.5599 52.0019 65.346 50.6948 64.9472 49.4776C64.4618 47.9851 63.7046 46.623 62.7394 45.4463C62.5718 45.2405 62.5747 44.9536 62.7452 44.7508C63.6382 43.6871 64.3519 42.4583 64.8403 41.1194ZM53.3678 57.2388H45.3313V49.4776H53.3678C55.5034 49.4776 57.2373 51.2136 57.2373 53.3582C57.2373 55.4999 55.5063 57.2388 53.3678 57.2388ZM53.3678 41.1194H45.3313V33.3582H53.3678C55.5034 33.3582 57.2373 35.0942 57.2373 37.2388C57.2373 39.3834 55.5063 41.1194 53.3678 41.1194Z" fill="white"/>
</svg>
