<svg width="41" height="41" viewBox="0 0 41 41" fill="none" xmlns="http://www.w3.org/2000/svg">
<path d="M9.18657 21.3956H7.46385C6.36486 21.3956 5.4707 20.5071 5.4707 19.4151C5.4707 19.0834 5.20188 18.8145 4.87012 18.8145C4.79124 18.8145 4.71314 18.83 4.64027 18.8602C4.5674 18.8904 4.50119 18.9346 4.44542 18.9904C4.38964 19.0462 4.34541 19.1124 4.31523 19.1853C4.28505 19.2581 4.26952 19.3362 4.26953 19.4151C4.26953 21.1695 5.70253 22.5968 7.46393 22.5968H9.18657C9.51833 22.5968 9.78715 22.328 9.78715 21.9962C9.78715 21.6644 9.51833 21.3956 9.18657 21.3956ZM14.8301 25.8406H9.69931C8.0047 25.8406 6.62599 27.2137 6.62599 28.9016C6.62599 29.2334 6.89481 29.5022 7.22658 29.5022C7.55834 29.5022 7.82716 29.2333 7.82716 28.9016C7.82716 27.8761 8.66694 27.0418 9.69931 27.0418H14.8301C15.1618 27.0418 15.4307 26.7729 15.4307 26.4412C15.4307 26.1094 15.1618 25.8406 14.8301 25.8406ZM19.7236 25.8406H17.2325C16.9007 25.8406 16.6319 26.1094 16.6319 26.4412C16.6319 26.7729 16.9007 27.0418 17.2325 27.0418H19.7236C20.0554 27.0418 20.3242 26.7729 20.3242 26.4412C20.3242 26.1094 20.0553 25.8406 19.7236 25.8406ZM15.5007 14.1707C15.3414 14.1707 15.1887 14.234 15.0761 14.3466C14.9634 14.4593 14.9001 14.612 14.9001 14.7713C14.9001 16.4887 13.4948 17.8858 11.7673 17.8858C11.4356 17.8858 11.1667 18.1546 11.1667 18.4864C11.1667 18.8181 11.4356 19.087 11.7673 19.087C14.1571 19.087 16.1013 17.151 16.1013 14.7713C16.1013 14.612 16.038 14.4593 15.9254 14.3466C15.8128 14.234 15.66 14.1707 15.5007 14.1707ZM14.3936 5.09138C12.959 4.99929 11.715 6.08699 11.622 7.51687C11.6138 7.6746 11.668 7.82922 11.773 7.94724C11.878 8.06527 12.0252 8.1372 12.1828 8.14747C12.3404 8.15773 12.4957 8.10551 12.6151 8.00209C12.7345 7.89868 12.8083 7.75241 12.8207 7.59494C12.8706 6.82555 13.5417 6.24122 14.3165 6.29007C14.6477 6.31225 14.9331 6.06041 14.9544 5.72936C14.9594 5.65066 14.949 5.57172 14.9235 5.49706C14.8981 5.4224 14.8582 5.35349 14.8061 5.29424C14.7541 5.235 14.6908 5.18659 14.6201 5.15179C14.5493 5.11698 14.4724 5.09645 14.3936 5.09138ZM12.3738 28.5149C12.0421 28.5149 11.7733 28.7837 11.7733 29.1155C11.7733 29.4472 12.0421 29.716 12.3738 29.716C13.3656 29.716 14.1725 30.5175 14.1725 31.5027C14.1725 32.488 13.3656 33.2895 12.3738 33.2895C12.0421 33.2895 11.7733 33.5584 11.7733 33.8901C11.7733 34.2219 12.0421 34.4907 12.3738 34.4907C14.0279 34.4907 15.3736 33.1504 15.3736 31.5027C15.3736 29.8552 14.0279 28.5149 12.3738 28.5149ZM18.5203 14.3722C18.1886 14.3722 17.9197 14.641 17.9197 14.9728C17.9197 15.3045 18.1886 15.5734 18.5203 15.5734C19.317 15.5734 19.9652 16.217 19.9652 17.0081C19.9652 17.7994 19.317 18.443 18.5203 18.443C18.1886 18.443 17.9197 18.7119 17.9197 19.0436C17.9197 19.3754 18.1886 19.6442 18.5203 19.6442C19.9794 19.6442 21.1664 18.4616 21.1664 17.0081C21.1664 15.5547 19.9794 14.3722 18.5203 14.3722ZM7.94047 10.5536C7.60871 10.5536 7.33989 10.8224 7.33989 11.1542C7.33989 11.4859 7.60871 11.7548 7.94047 11.7548C9.30933 11.7548 10.4229 12.8614 10.4229 14.2218C10.4229 15.5823 9.30933 16.689 7.94047 16.689C7.60871 16.689 7.33989 16.9578 7.33989 17.2896C7.33989 17.6214 7.60871 17.8902 7.94047 17.8902C9.97157 17.8902 11.6241 16.2446 11.6241 14.2218C11.6241 12.1991 9.97157 10.5536 7.94047 10.5536ZM36.1745 10.5264C35.0456 10.5264 34.1272 11.4416 34.1272 12.5665C34.1272 13.6915 35.0456 14.6067 36.1745 14.6067C37.3034 14.6067 38.2218 13.6915 38.2218 12.5665C38.2218 11.4416 37.3034 10.5264 36.1745 10.5264ZM36.1746 13.4057C35.708 13.4057 35.3285 13.0293 35.3285 12.5666C35.3284 12.104 35.708 11.7276 36.1746 11.7276C36.6411 11.7276 37.0207 12.104 37.0207 12.5666C37.0207 13.0292 36.6411 13.4057 36.1746 13.4057ZM38.1813 25.8974C37.0523 25.8974 36.134 26.8127 36.134 27.9377C36.134 29.0627 37.0524 29.9778 38.1813 29.9778C39.3101 29.9778 40.2285 29.0626 40.2285 27.9377C40.2285 26.8127 39.3101 25.8974 38.1813 25.8974ZM38.1813 28.7766C37.7147 28.7766 37.3351 28.4003 37.3351 27.9377C37.3351 27.4751 37.7147 27.0986 38.1813 27.0986C38.6478 27.0986 39.0273 27.475 39.0273 27.9377C39.0274 28.4003 38.6478 28.7766 38.1813 28.7766ZM36.9211 18.6995C36.5867 18.6992 36.2573 18.7811 35.962 18.9381L34.7912 17.7731C34.6779 17.6627 34.5256 17.6014 34.3674 17.6026C34.2092 17.6038 34.0579 17.6674 33.9463 17.7796C33.8347 17.8917 33.7719 18.0434 33.7714 18.2016C33.771 18.3598 33.833 18.5118 33.944 18.6245L35.1118 19.7865C34.9553 20.0798 34.8736 20.4072 34.8739 20.7396C34.8739 21.8646 35.7923 22.7798 36.9211 22.7798C38.0501 22.7798 38.9684 21.8646 38.9684 20.7396C38.9684 19.6147 38.05 18.6995 36.9211 18.6995ZM36.9212 21.5787C36.4547 21.5787 36.0751 21.2024 36.0751 20.7397C36.0751 20.2772 36.4547 19.9007 36.9212 19.9007C37.3878 19.9007 37.7673 20.2771 37.7673 20.7397C37.7673 21.2023 37.3878 21.5787 36.9212 21.5787ZM35.5678 32.1666C34.4389 32.1666 33.5205 33.0818 33.5205 34.2068C33.5205 35.3318 34.439 36.2471 35.5678 36.2471C36.6968 36.2471 37.6151 35.3318 37.6151 34.2068C37.6151 33.0818 36.6968 32.1666 35.5678 32.1666ZM35.5678 35.0458C35.1013 35.0458 34.7217 34.6694 34.7217 34.2067C34.7217 33.7441 35.1013 33.3677 35.5678 33.3677C36.0344 33.3677 36.4139 33.7441 36.4139 34.2067C36.414 34.6694 36.0344 35.0458 35.5678 35.0458Z" fill="url(#paint0_linear_178_2341)"/>
<path d="M28.5413 11.2866C28.923 11.2866 29.3785 11.0986 29.6491 10.8294L31.9693 8.52055C32.2088 8.61539 32.4641 8.66405 32.7218 8.66397C33.8507 8.66397 34.769 7.74876 34.769 6.62374C34.769 5.4988 33.8506 4.58367 32.7218 4.58367C31.5929 4.58367 30.6746 5.49889 30.6746 6.62374C30.6741 7.03083 30.7965 7.42859 31.0257 7.76502L28.802 9.97773C28.755 10.0228 28.6062 10.0843 28.5413 10.0854H23.584V6.1098H24.9784C25.2363 6.94253 26.0158 7.54945 26.935 7.54945C28.0639 7.54945 28.9823 6.63423 28.9823 5.50921C28.9823 4.38428 28.0639 3.46906 26.935 3.46906C26.0158 3.46906 25.2363 4.0759 24.9784 4.90863H23.584V4.81766C23.584 2.16115 21.4135 0 18.7454 0C16.8381 0 15.1272 1.11164 14.3464 2.81138C14.2271 2.8029 14.1075 2.79862 13.9879 2.79857C11.2149 2.79857 8.95153 5.01241 8.88723 7.75829C8.64715 7.7241 8.40495 7.70694 8.16244 7.70696C5.34914 7.70696 3.06043 9.98582 3.06043 12.7869C3.06043 13.4017 3.16829 13.9966 3.38162 14.5625C1.28165 15.8085 0 18.0344 0 20.5C0 21.8239 0.377088 23.1107 1.09042 24.2213C1.67642 25.1337 2.46762 25.8965 3.40084 26.4487C3.17629 27.0307 3.06089 27.6491 3.06043 28.2729C3.06028 29.5091 3.51245 30.7026 4.33167 31.6284C4.38391 31.6875 4.44728 31.7357 4.51816 31.7703C4.58904 31.8049 4.66604 31.8252 4.74476 31.83C4.82349 31.8349 4.90239 31.8242 4.97698 31.7985C5.05156 31.7728 5.12036 31.7328 5.17945 31.6805C5.23854 31.6283 5.28676 31.5649 5.32136 31.494C5.35596 31.4231 5.37626 31.3461 5.3811 31.2674C5.38594 31.1887 5.37523 31.1098 5.34957 31.0352C5.32392 30.9606 5.28383 30.8918 5.23158 30.8327C4.60653 30.1265 4.26151 29.216 4.2616 28.2729C4.2616 27.6383 4.41158 27.0331 4.70691 26.4738C5.06655 25.7911 5.621 25.2307 6.29983 24.8639C6.36919 24.8263 6.43047 24.7755 6.48017 24.7142C6.52988 24.653 6.56703 24.5826 6.58951 24.507C6.61199 24.4314 6.61936 24.3521 6.61119 24.2736C6.60302 24.1952 6.57948 24.1191 6.5419 24.0498C6.50438 23.9804 6.45355 23.9191 6.39232 23.8694C6.33108 23.8196 6.26065 23.7825 6.18504 23.76C6.10944 23.7375 6.03014 23.7302 5.95169 23.7383C5.87323 23.7465 5.79717 23.7701 5.72783 23.8077C5.02451 24.1883 4.42064 24.7291 3.96507 25.3864C2.24771 24.3533 1.20117 22.5266 1.20117 20.5C1.20117 18.3331 2.40138 16.3906 4.33911 15.4074C4.33911 15.4074 5.46037 14.7835 6.94886 14.7835C7.28062 14.7835 7.54944 14.5147 7.54944 14.183C7.54944 13.8512 7.28062 13.5824 6.94886 13.5824C6.10209 13.5816 5.26233 13.7358 4.47108 14.0374C4.3321 13.6351 4.26135 13.2125 4.26176 12.787C4.26176 10.6481 6.01162 8.90821 8.1626 8.90821C8.56692 8.90821 8.96691 8.97011 9.35144 9.09223C9.44838 9.12304 9.55155 9.12872 9.65128 9.10873C9.75102 9.08874 9.84404 9.04375 9.92162 8.97797C9.9992 8.91219 10.0588 8.82777 10.0948 8.73265C10.1308 8.63753 10.1421 8.53482 10.1276 8.43415C10.1009 8.25015 10.0874 8.06449 10.0871 7.87857C10.0871 5.73984 11.8371 3.99982 13.988 3.99982C14.1993 3.99982 14.4152 4.01792 14.63 4.05323C16.4765 4.35865 17.8889 5.95725 17.8889 7.87857C17.8889 8.21033 18.1577 8.47915 18.4895 8.47915C18.8212 8.47915 19.0901 8.21033 19.0901 7.87857C19.0901 5.62821 17.6122 3.71619 15.5723 3.05106C16.2065 1.9234 17.4116 1.20117 18.7454 1.20117C20.751 1.20117 22.3828 2.82355 22.3828 4.81766V4.88437H21.2277C20.8959 4.88437 20.6271 5.15319 20.6271 5.48495C20.6271 5.81672 20.8959 6.08554 21.2277 6.08554H22.3828V10.0854H17.5253C16.4262 10.0854 15.532 9.19697 15.532 8.10503C15.532 7.77326 15.2632 7.50444 14.9314 7.50444C14.5997 7.50444 14.3309 7.77326 14.3309 8.10503C14.3309 9.8593 15.7639 11.2865 17.5253 11.2865H22.3828V21.3969H12.6407C12.3089 21.3969 12.0401 21.6657 12.0401 21.9975C12.0401 22.3292 12.3089 22.598 12.6407 22.598H22.3828V30.8442H20.5269C18.8323 30.8442 17.4537 32.2173 17.4537 33.9052C17.4537 34.2369 17.7225 34.5057 18.0543 34.5057C18.386 34.5057 18.6548 34.2369 18.6548 33.9052C18.6548 32.8797 19.4946 32.0453 20.5269 32.0453H22.3828V36.1823C22.3828 36.2767 22.378 36.3699 22.3709 36.4624H21.2277C20.8959 36.4624 20.6271 36.7312 20.6271 37.063C20.6271 37.3947 20.8959 37.6635 21.2277 37.6635H22.0624C21.4922 38.9209 20.2204 39.7988 18.7454 39.7988C17.4206 39.7988 16.2198 39.0841 15.5825 37.9672C16.3151 37.7278 16.9838 37.325 17.538 36.7893C17.5947 36.7346 17.6402 36.6692 17.6716 36.5969C17.7031 36.5246 17.7201 36.4468 17.7215 36.3679C17.7229 36.2891 17.7088 36.2107 17.6799 36.1373C17.651 36.0639 17.608 35.9969 17.5532 35.9402C17.4985 35.8834 17.4331 35.838 17.3608 35.8065C17.2885 35.775 17.2107 35.758 17.1318 35.7566C17.0529 35.7552 16.9746 35.7693 16.9012 35.7982C16.8278 35.8271 16.7608 35.8701 16.7041 35.9249C16.1373 36.4729 15.4172 36.8355 14.6394 36.9645C14.4241 37.0008 14.2062 37.0193 13.9879 37.0196C11.8369 37.0196 10.087 35.2796 10.087 33.1408C10.087 33.0861 10.0902 33.0293 10.0929 32.9731C10.5777 32.7758 11.0331 32.5058 11.4392 32.1667C11.4998 32.1162 11.5498 32.0542 11.5864 31.9843C11.6229 31.9145 11.6454 31.8381 11.6525 31.7595C11.6595 31.681 11.6511 31.6018 11.6275 31.5265C11.604 31.4512 11.5659 31.3813 11.5153 31.3208C11.3027 31.0661 10.9302 31.0398 10.6694 31.2447C9.46419 32.1914 8.29858 32.1767 7.83228 32.138C7.50076 32.1099 7.21152 32.3563 7.18397 32.6868C7.17081 32.8455 7.22123 33.003 7.32416 33.1246C7.42708 33.2461 7.57408 33.3219 7.73282 33.3351C8.11805 33.3669 8.50563 33.3556 8.88835 33.3014C8.97371 36.0286 11.2286 38.2208 13.988 38.2208C14.1095 38.2208 14.2321 38.2162 14.3551 38.2073C15.1401 39.8958 16.8476 41 18.7454 41C21.4134 41 23.584 38.8389 23.584 36.1823V34.8551H26.7677C26.8329 34.8562 26.9817 34.9177 27.0285 34.9627L28.4604 36.3875C28.2602 36.7089 28.1542 37.0801 28.1545 37.4588C28.1545 38.5838 29.0729 39.499 30.2018 39.499C31.3307 39.499 32.2491 38.5838 32.2491 37.4588C32.2491 36.3338 31.3306 35.4186 30.2018 35.4186C29.9049 35.4186 29.623 35.4824 29.368 35.5961L27.8758 34.1112C27.6052 33.842 27.1497 33.654 26.768 33.654H23.584V30.4435H28.8051C29.063 31.2762 29.8425 31.8831 30.7618 31.8831C31.8907 31.8831 32.809 30.9679 32.809 29.8429C32.809 28.7179 31.8906 27.8026 30.7618 27.8026C29.8426 27.8026 29.063 28.4095 28.8051 29.2423H23.584V25.2192H29.8318C30.0898 26.0519 30.8692 26.6588 31.7885 26.6588C32.9175 26.6588 33.8358 25.7436 33.8358 24.6186C33.8358 23.4936 32.9174 22.5783 31.7885 22.5783C30.8692 22.5783 30.0898 23.1852 29.8318 24.018H23.584V19.6466H25.0717C25.3297 20.4793 26.1092 21.0862 27.0284 21.0862C28.1573 21.0862 29.0756 20.171 29.0756 19.046C29.0756 17.921 28.1572 17.0058 27.0284 17.0058C26.1092 17.0058 25.3296 17.6126 25.0717 18.4454H23.584V14.9796H30.1278C30.1929 14.9808 30.3418 15.0421 30.3886 15.0871L31.6223 16.3149C31.678 16.3704 31.744 16.4145 31.8167 16.4445C31.8894 16.4745 31.9673 16.4899 32.0459 16.4898C32.1648 16.4898 32.2811 16.4545 32.3799 16.3883C32.4787 16.3222 32.5557 16.2282 32.6011 16.1183C32.6465 16.0084 32.6582 15.8875 32.6348 15.7709C32.6113 15.6543 32.5538 15.5473 32.4695 15.4634L31.2358 14.2356C30.9653 13.9664 30.5098 13.7784 30.128 13.7784H23.584V11.2866H28.5413ZM32.7218 5.78476C33.1883 5.78476 33.5679 6.16113 33.5679 6.62366C33.5679 7.08627 33.1883 7.46272 32.7218 7.46272C32.2552 7.46272 31.8757 7.08635 31.8757 6.62366C31.8757 6.16113 32.2552 5.78476 32.7218 5.78476ZM26.935 4.67024C27.4015 4.67024 27.7811 5.0466 27.7811 5.50921C27.7811 5.97183 27.4015 6.34827 26.935 6.34827C26.4685 6.34827 26.089 5.97191 26.089 5.50921C26.0889 5.0466 26.4685 4.67024 26.935 4.67024ZM30.2018 36.6196C30.6683 36.6196 31.0479 36.9961 31.0479 37.4587C31.0479 37.9213 30.6683 38.2978 30.2018 38.2978C29.7353 38.2978 29.3557 37.9214 29.3557 37.4587C29.3557 36.9961 29.7353 36.6196 30.2018 36.6196ZM30.7618 29.0038C31.2283 29.0038 31.6079 29.3802 31.6079 29.8429C31.6079 30.3055 31.2283 30.6819 30.7618 30.6819C30.2952 30.6819 29.9157 30.3056 29.9157 29.8429C29.9157 29.3803 30.2952 29.0038 30.7618 29.0038ZM31.7885 23.7795C32.255 23.7795 32.6346 24.1559 32.6346 24.6186C32.6346 25.0812 32.255 25.4576 31.7885 25.4576C31.3219 25.4576 30.9423 25.0813 30.9423 24.6186C30.9423 24.1559 31.3219 23.7795 31.7885 23.7795ZM27.0284 18.207C27.4949 18.207 27.8745 18.5833 27.8745 19.046C27.8745 19.5086 27.4949 19.885 27.0284 19.885C26.5618 19.885 26.1823 19.5086 26.1823 19.046C26.1823 18.5833 26.5618 18.207 27.0284 18.207Z" fill="url(#paint1_linear_178_2341)"/>
<defs>
<linearGradient id="paint0_linear_178_2341" x1="4.87538" y1="20.7526" x2="37.3749" y2="22.6873" gradientUnits="userSpaceOnUse">
<stop stop-color="#41A575"/>
<stop offset="1" stop-color="#3361A9"/>
</linearGradient>
<linearGradient id="paint1_linear_178_2341" x1="0.585798" y1="20.6133" x2="32.061" y2="21.9903" gradientUnits="userSpaceOnUse">
<stop stop-color="#41A575"/>
<stop offset="1" stop-color="#3361A9"/>
</linearGradient>
</defs>
</svg>
