<svg width="64" height="65" viewBox="0 0 64 65" fill="none" xmlns="http://www.w3.org/2000/svg">
<rect y="0.5" width="64" height="64" rx="16" fill="white" fill-opacity="0.2"/>
<rect y="0.5" width="64" height="64" rx="16" fill="url(#paint0_radial_254_6547)"/>
<path d="M29 33.8333C34.6667 33.8333 34.6667 26.8333 34.6667 26.8333C34.6667 26.8333 34.6667 33.8333 40.3333 33.8333C34.6667 33.8333 34.6667 40.8333 34.6667 40.8333C34.6667 40.8333 34.6667 33.8333 29 33.8333Z" fill="white"/>
<path d="M23.667 27.1667C26.667 27.1667 26.667 24.1667 26.667 24.1667C26.667 24.1667 26.667 27.1667 29.667 27.1667C26.667 27.1667 26.667 30.1667 26.667 30.1667C26.667 30.1667 26.667 27.1667 23.667 27.1667Z" fill="white"/>
<path d="M26.3337 38.1667H26.347M40.3337 24.1667H40.347M40.3337 40.8334H40.347M34.667 26.8334C34.667 26.8334 34.667 33.8334 29.0003 33.8334C34.667 33.8334 34.667 40.8334 34.667 40.8334C34.667 40.8334 34.667 33.8334 40.3337 33.8334C34.667 33.8334 34.667 26.8334 34.667 26.8334ZM26.667 24.1667C26.667 24.1667 26.667 27.1667 23.667 27.1667C26.667 27.1667 26.667 30.1667 26.667 30.1667C26.667 30.1667 26.667 27.1667 29.667 27.1667C26.667 27.1667 26.667 24.1667 26.667 24.1667Z" stroke="white" stroke-width="1.5" stroke-linecap="round" stroke-linejoin="round"/>
<defs>
<radialGradient id="paint0_radial_254_6547" cx="0" cy="0" r="1" gradientUnits="userSpaceOnUse" gradientTransform="translate(32 32.5) rotate(45) scale(45.2548)">
<stop stop-color="white" stop-opacity="0.3"/>
<stop offset="1" stop-color="white" stop-opacity="0"/>
</radialGradient>
</defs>
</svg>
