<svg width="808" height="808" viewBox="0 0 808 808" fill="none" xmlns="http://www.w3.org/2000/svg">
<mask id="mask0_306_5117" style="mask-type:alpha" maskUnits="userSpaceOnUse" x="0" y="0" width="808" height="808">
<rect width="808" height="808" fill="url(#paint0_linear_306_5117)"/>
</mask>
<g mask="url(#mask0_306_5117)">
<rect x="0.5" y="4.5" width="807" height="807" rx="403.5" fill="#41A575" fill-opacity="0.04" stroke="#41A575"/>
<rect x="-3.5" y="404.5" width="7" height="7" rx="3.5" fill="#41A575" stroke="#41A575"/>
<rect x="115.23" y="119.23" width="7" height="7" rx="3.5" fill="#41A575" stroke="#41A575"/>
<rect x="115.23" y="689.77" width="7" height="7" rx="3.5" fill="#41A575" stroke="#41A575"/>
<rect x="400.5" y="0.5" width="7" height="7" rx="3.5" fill="#41A575" stroke="#41A575"/>
<rect x="685.77" y="119.23" width="7" height="7" rx="3.5" fill="#41A575" stroke="#41A575"/>
<rect x="685.77" y="689.77" width="7" height="7" rx="3.5" fill="#41A575" stroke="#41A575"/>
<rect x="804.5" y="404.5" width="7" height="7" rx="3.5" fill="#41A575" stroke="#41A575"/>
</g>
<mask id="mask1_306_5117" style="mask-type:alpha" maskUnits="userSpaceOnUse" x="100" y="100" width="608" height="608">
<rect x="100" y="100" width="608" height="608" fill="url(#paint1_linear_306_5117)"/>
</mask>
<g mask="url(#mask1_306_5117)">
<g opacity="0.6">
<rect x="100.5" y="104.5" width="607" height="607" rx="303.5" fill="#41A575" fill-opacity="0.04" stroke="#41A575"/>
<rect x="96.5" y="404.5" width="7" height="7" rx="3.5" fill="#41A575" stroke="#41A575"/>
<rect x="186.22" y="190.22" width="7" height="7" rx="3.5" fill="#41A575" stroke="#41A575"/>
<rect x="186.22" y="618.78" width="7" height="7" rx="3.5" fill="#41A575" stroke="#41A575"/>
<rect x="400.5" y="100.5" width="7" height="7" rx="3.5" fill="#41A575" stroke="#41A575"/>
<rect x="614.78" y="190.22" width="7" height="7" rx="3.5" fill="#41A575" stroke="#41A575"/>
<rect x="614.78" y="618.78" width="7" height="7" rx="3.5" fill="#41A575" stroke="#41A575"/>
<rect x="704.5" y="404.5" width="7" height="7" rx="3.5" fill="#41A575" stroke="#41A575"/>
</g>
</g>
<mask id="mask2_306_5117" style="mask-type:alpha" maskUnits="userSpaceOnUse" x="196" y="196" width="416" height="416">
<rect x="196" y="196" width="416" height="416" fill="url(#paint2_linear_306_5117)"/>
</mask>
<g mask="url(#mask2_306_5117)">
<rect x="196.5" y="200.5" width="415" height="415" rx="207.5" fill="#41A575" fill-opacity="0.04" stroke="#41A575"/>
<rect x="192.5" y="404.5" width="7" height="7" rx="3.5" fill="#41A575" stroke="#41A575"/>
<rect x="253.91" y="257.91" width="7" height="7" rx="3.5" fill="#41A575" stroke="#41A575"/>
<rect x="253.91" y="551.09" width="7" height="7" rx="3.5" fill="#41A575" stroke="#41A575"/>
<rect x="400.5" y="196.5" width="7" height="7" rx="3.5" fill="#41A575" stroke="#41A575"/>
<rect x="547.09" y="257.91" width="7" height="7" rx="3.5" fill="#41A575" stroke="#41A575"/>
<rect x="547.09" y="551.09" width="7" height="7" rx="3.5" fill="#41A575" stroke="#41A575"/>
<rect x="608.5" y="404.5" width="7" height="7" rx="3.5" fill="#41A575" stroke="#41A575"/>
</g>
<defs>
<linearGradient id="paint0_linear_306_5117" x1="404" y1="0" x2="404" y2="808" gradientUnits="userSpaceOnUse">
<stop offset="0.0941" stop-color="#BA9CFF" stop-opacity="0.6"/>
<stop offset="0.2979" stop-color="#BA9CFF" stop-opacity="0"/>
</linearGradient>
<linearGradient id="paint1_linear_306_5117" x1="404" y1="100" x2="404" y2="708" gradientUnits="userSpaceOnUse">
<stop offset="0.0941" stop-color="#BA9CFF" stop-opacity="0.6"/>
<stop offset="0.2979" stop-color="#BA9CFF" stop-opacity="0"/>
</linearGradient>
<linearGradient id="paint2_linear_306_5117" x1="404" y1="196" x2="404" y2="612" gradientUnits="userSpaceOnUse">
<stop offset="0.0941" stop-color="#BA9CFF" stop-opacity="0.6"/>
<stop offset="0.2979" stop-color="#BA9CFF" stop-opacity="0"/>
</linearGradient>
</defs>
</svg>
