<svg width="39" height="44" viewBox="0 0 39 44" fill="none" xmlns="http://www.w3.org/2000/svg">
<path d="M30.9136 30.8323L26.8839 29.4893L25.4372 26.596C26.7405 25.2695 27.6454 23.5143 27.9505 21.6836L28.131 20.6022H29.6739C31.0764 20.6022 32.2174 19.4612 32.2174 18.0587V12.7174C32.2174 5.70502 26.5124 0 19.5 0C12.4697 0 6.78261 5.68866 6.78261 12.7174V18.0587C6.78261 19.1639 7.49148 20.1064 8.47826 20.4563V21.45C8.47826 22.8525 9.61927 23.9935 11.0217 23.9935H11.7663C12.1328 24.7917 12.6117 25.5332 13.1884 26.1956C13.3088 26.3335 13.4333 26.4675 13.562 26.5976L12.1161 29.4893L8.08631 30.8324C3.4008 32.3948 0 37.3273 0 42.5609C0 43.0291 0.379572 43.4087 0.847826 43.4087H38.1522C38.6203 43.4087 39 43.0291 39 42.5609C39 37.3273 35.5993 32.3948 30.9136 30.8323ZM30.5217 18.0587C30.5217 18.5262 30.1414 18.9065 29.6739 18.9065H28.38C28.5955 17.2372 28.7391 15.4607 28.7968 13.711C28.7985 13.6617 28.7999 13.6137 28.8014 13.5652H30.5217V18.0587ZM9.32609 18.9065C8.8586 18.9065 8.47826 18.5262 8.47826 18.0587V13.5652H10.1992C10.202 13.6536 10.2049 13.7425 10.2082 13.8319L10.2086 13.841V13.8418C10.2679 15.5435 10.4097 17.2739 10.6203 18.9064H9.32609V18.9065ZM11.0217 22.2978C10.5542 22.2978 10.1739 21.9175 10.1739 21.45V20.6022H10.869L11.0494 21.6839C11.0841 21.89 11.126 22.0947 11.175 22.2978H11.0217ZM10.1754 11.8696H8.51048C8.9399 6.18735 13.682 1.69565 19.5 1.69565C25.2922 1.69565 30.0551 6.18676 30.4894 11.8696H28.8247C28.7637 7.18728 24.9508 3.3913 20.2589 3.3913H18.7413C14.0495 3.3913 10.2363 7.18728 10.1754 11.8696ZM18.7412 5.08696H20.2588C24.0578 5.08696 27.1326 8.19432 27.1304 11.9891C27.1304 12.2559 27.1283 12.4882 27.1238 12.6996L27.1237 12.7079L26.0633 12.5564C23.1824 12.145 20.4622 10.7849 18.4038 8.72659C18.2448 8.56761 18.0292 8.47829 17.8043 8.47826C15.5274 8.47826 13.3478 9.51566 11.907 11.2683C12.2621 7.81602 15.1806 5.08696 18.7412 5.08696ZM12.9327 22.2978C12.5083 20.8859 12.0227 16.7316 11.9153 14.0694L13.0564 12.5479C14.1044 11.151 15.7349 10.2831 17.4693 10.1835C19.7514 12.3553 22.7037 13.7895 25.8235 14.2349L27.0717 14.4133C26.9883 16.184 26.8178 17.9609 26.5735 19.595L26.5732 19.5967C26.4956 20.1221 26.4344 20.4602 26.278 21.4046C25.829 24.0978 23.8195 26.5331 21.1667 27.1964C20.0724 27.4689 18.928 27.4689 17.8337 27.1964C16.1773 26.7823 14.6585 25.6362 13.6783 23.9935H15.4067C15.7567 24.9803 16.699 25.6891 17.8043 25.6891H19.5C20.9053 25.6891 22.0435 24.551 22.0435 23.1457C22.0435 21.7432 20.9025 20.6022 19.5 20.6022H17.8043C16.6744 20.6022 15.746 21.332 15.4053 22.2978H12.9327ZM17.733 28.9122C18.314 29.0349 18.9062 29.097 19.5 29.0974C19.9638 29.0974 20.4278 29.0586 20.8864 28.9833L19.3883 30.5676L17.733 28.9122ZM18.2227 31.8002L15.5336 34.644C14.7927 33.2258 14.1583 31.7545 13.6354 30.2423L14.6453 28.2226L18.2227 31.8002ZM24.211 27.9354L25.3644 30.2422C24.8416 31.7549 24.207 33.2266 23.466 34.6452L20.5878 31.767L24.211 27.9354ZM16.9565 23.1457C16.9565 22.6776 17.3362 22.2978 17.8043 22.2978H19.5C19.9675 22.2978 20.3478 22.6782 20.3478 23.1457C20.3478 23.6138 19.9681 23.9935 19.5 23.9935H17.8043C17.3369 23.9935 16.9565 23.6131 16.9565 23.1457ZM1.72957 41.713C2.06556 37.513 4.86076 33.6954 8.62256 32.441L12.1914 31.2516C12.8461 33.0616 13.6534 34.8128 14.6046 36.4861L14.6093 36.4947L14.6094 36.4948C15.3085 37.7232 16.0836 38.9068 16.9301 40.0387L17.9731 41.713H1.72957ZM19.5 40.9573L18.3502 39.1113C18.3373 39.0906 18.3236 39.0705 18.309 39.051C17.6221 38.1342 16.9844 37.1816 16.3987 36.1971L19.4223 32.9996L22.6082 36.1856C22.0207 37.1741 21.3808 38.1306 20.6912 39.0509C20.6497 39.1062 20.7086 39.019 19.5 40.9573ZM21.0269 41.713L22.0698 40.0388C22.9229 38.8982 23.7034 37.7052 24.4068 36.4667C24.411 36.4592 24.415 36.4516 24.4193 36.4441L24.4208 36.4414C25.3611 34.7816 26.1598 33.0456 26.8086 31.2516L30.3774 32.441C34.1392 33.6954 36.9344 37.513 37.2704 41.713H21.0269Z" fill="url(#paint0_linear_178_2309)"/>
<defs>
<linearGradient id="paint0_linear_178_2309" x1="6.97477" y1="21.7043" x2="15.3984" y2="21.7043" gradientUnits="userSpaceOnUse">
<stop stop-color="#41A575"/>
<stop offset="1" stop-color="#3361A9"/>
</linearGradient>
</defs>
</svg>
