<svg width="36" height="36" viewBox="0 0 36 36" fill="none" xmlns="http://www.w3.org/2000/svg">
<path d="M3.48387 36C4.09942 35.9993 4.7038 35.8356 5.23549 35.5254C5.76718 35.2152 6.20721 34.7697 6.51077 34.2343C8.37174 34.1181 10.6891 33.3325 13.2573 31.9355H13.3949C13.6823 34.2232 15.6356 36 18 36C20.3644 36 22.3177 34.2232 22.6051 31.9355H22.7427C25.5594 33.4672 28.0335 34.2488 29.9636 34.2488C31.2985 34.2488 32.3745 33.8766 33.1258 33.1252C34.855 31.3961 34.6006 28.0533 32.4285 23.6903C32.8567 23.2576 33.0969 22.6733 33.0968 22.0645C33.0968 20.7836 32.0551 19.7419 30.7742 19.7419C30.5605 19.7419 30.3573 19.7803 30.1605 19.8348C29.7422 19.2131 29.3083 18.6021 28.8592 18.0023C32.1213 13.6469 34.0514 9.52316 34.2372 6.50903C34.7719 6.20529 35.2167 5.76539 35.5263 5.23404C35.8359 4.7027 35.9994 4.09885 36 3.48387C36 1.56252 34.4375 1.6403e-06 32.5161 1.6403e-06C31.9001 0.000528206 31.2953 0.16446 30.7633 0.475072C30.2313 0.785684 29.7913 1.23186 29.4881 1.76807C28.339 1.83832 27.0406 2.15884 25.6378 2.70291C23.477 0.952996 20.7805 -0.00125384 18 1.6403e-06C15.2157 -0.00144589 12.5157 0.955203 10.3535 2.70929C7.05252 1.43768 4.35135 1.39761 2.87419 2.8742C1.14503 4.60336 1.39935 7.94613 3.57155 12.3091C3.14339 12.7421 2.90325 13.3265 2.90323 13.9355C2.90323 15.2164 3.9449 16.2581 5.22581 16.2581C5.64619 16.2581 6.04684 16.1443 6.39581 15.9405C6.61139 16.6152 6.88573 17.2698 7.21568 17.8966C3.96058 22.2137 1.95735 26.3961 1.76806 29.4881C1.23185 29.7913 0.785682 30.2313 0.47507 30.7633C0.164459 31.2953 0.000526566 31.9001 0 32.5161C0 34.4375 1.56252 36 3.48387 36ZM13.0361 22.0488C11.2146 21.1343 9.68228 19.7328 8.60923 18C9.9733 16.2486 11.4448 14.5836 13.0152 13.0146C14.5878 11.4408 16.2567 9.96618 18.0122 8.59936C19.7587 9.96798 21.4196 11.4425 22.9854 13.0146C24.556 14.5826 26.0286 16.2458 27.3948 17.9948C27.3757 18.0261 27.3536 18.0557 27.3339 18.0865L27.3205 18.1039L27.3217 18.1051C26.2527 19.7892 24.7471 21.1519 22.9651 22.0483C22.869 22.0966 22.7881 22.1706 22.7317 22.2622C22.6752 22.3537 22.6452 22.4592 22.6452 22.5668V24.3871H20.3226V15.9178L21.8944 14.346L21.0734 13.525L19.3314 15.2669C19.2774 15.3208 19.2346 15.3847 19.2054 15.4552C19.1762 15.5256 19.1612 15.6012 19.1613 15.6774V24.3871H16.8387V15.6774C16.8388 15.6012 16.8238 15.5256 16.7946 15.4552C16.7654 15.3847 16.7226 15.3208 16.6686 15.2669L14.9266 13.525L14.1056 14.346L15.6774 15.9178V24.3871H13.3548V22.5668C13.3548 22.4594 13.3251 22.3541 13.2688 22.2627C13.2125 22.1712 13.1319 22.0972 13.0361 22.0488ZM29.0323 12.1936C29.0323 13.8513 28.663 15.4417 27.9912 16.8788C26.6857 15.2394 25.2885 13.6752 23.8065 12.1936C22.2785 10.6611 20.6624 9.21919 18.9662 7.87529C21.2179 6.21581 23.4238 4.90355 25.4137 4.04652C27.63 6.066 29.0323 8.96574 29.0323 12.1936ZM23.8065 25.5484L23.807 26.7097H12.1935V25.5484H23.8065ZM22.6452 27.871V28.4516H13.3548V27.871H22.6452ZM23.8065 29.6129L23.807 30.7742H12.1935V29.6129H23.8065ZM18 34.8387C16.2772 34.8387 14.8465 33.5805 14.5684 31.9355H21.4316C21.1535 33.5805 19.7228 34.8387 18 34.8387ZM31.9355 22.0645C31.9355 22.705 31.4146 23.2258 30.7742 23.2258C30.1337 23.2258 29.6129 22.705 29.6129 22.0645C29.6129 21.4241 30.1337 20.9032 30.7742 20.9032C31.4146 20.9032 31.9355 21.4241 31.9355 22.0645ZM30.7742 24.3871C31.0018 24.3871 31.2178 24.3441 31.4263 24.2826C33.2704 28.0237 33.606 31.003 32.3048 32.3048C31.0308 33.5781 28.2159 33.3 24.6275 31.5952C24.8377 31.3845 24.9677 31.0941 24.9677 30.7742V29.6129C24.9677 28.9725 24.4469 28.4516 23.8065 28.4516V27.871C24.4469 27.871 24.9677 27.3501 24.9677 26.7097V25.5484C24.9677 24.9079 24.4469 24.3871 23.8065 24.3871V22.9186C25.5498 21.977 27.037 20.6243 28.1392 18.9778C28.4852 19.4483 28.8215 19.9259 29.1478 20.4103C28.9275 20.6258 28.7524 20.8831 28.6329 21.1672C28.5133 21.4512 28.4517 21.7563 28.4516 22.0645C28.4516 23.3454 29.4933 24.3871 30.7742 24.3871ZM32.5161 1.16129C33.797 1.16129 34.8387 2.20297 34.8387 3.48387C34.8387 4.76478 33.797 5.80645 32.5161 5.80645C31.2352 5.80645 30.1935 4.76478 30.1935 3.48387C30.1935 2.20297 31.2352 1.16129 32.5161 1.16129ZM32.5161 6.96774C32.6921 6.96774 32.8634 6.95032 33.0323 6.92536C32.7786 8.92626 31.7154 11.4852 30.0159 14.2456C30.132 13.5677 30.1915 12.8813 30.1935 12.1936C30.1935 8.83278 28.8267 5.78555 26.6203 3.57794C27.497 3.2702 28.3239 3.05594 29.0752 2.96187C29.0479 3.13456 29.0336 3.30905 29.0323 3.48387C29.0323 5.40523 30.5948 6.96774 32.5161 6.96774ZM18 1.16129C20.3882 1.16129 22.5946 1.93181 24.4022 3.22665C22.3903 4.15045 20.2152 5.47549 18.0006 7.13613C15.7674 5.46387 13.5912 4.14465 11.5914 3.23129C13.4573 1.88554 15.6995 1.16132 18 1.16129ZM3.69523 3.69523C4.698 2.69245 6.73026 2.66168 9.37684 3.58084C7.21455 5.74523 5.94844 8.64572 5.83142 11.7029C5.63444 11.6461 5.43078 11.6159 5.22581 11.6129C4.99819 11.6129 4.78219 11.6559 4.57374 11.7174C2.72961 7.97632 2.39342 4.99703 3.69523 3.69523ZM5.22581 15.0968C4.58535 15.0968 4.06452 14.5759 4.06452 13.9355C4.06487 13.7293 4.12009 13.5268 4.22449 13.349C4.3289 13.1711 4.47874 13.0243 4.65864 12.9234C4.83855 12.8226 5.04203 12.7715 5.24823 12.7752C5.45442 12.779 5.65591 12.8376 5.832 12.9449C5.86858 13.5488 5.94755 14.1428 6.06948 14.7234C5.96222 14.8405 5.83189 14.9341 5.6867 14.9983C5.5415 15.0626 5.38458 15.0961 5.22581 15.0968ZM6.96774 12.1936C6.96774 8.9669 8.36884 6.06832 10.5846 4.04942C12.521 4.87394 14.7194 6.14903 17.0472 7.86774C15.3463 9.21377 13.7256 10.6582 12.1935 12.1936C10.7109 13.6734 9.31278 15.2357 8.00594 16.873C7.32142 15.408 6.96701 13.8106 6.96774 12.1936ZM7.86368 18.9825C8.96578 20.6268 10.4519 21.9778 12.1935 22.9186V24.3871C11.5531 24.3871 11.0323 24.9079 11.0323 25.5484V26.7097C11.0323 27.3501 11.5531 27.871 12.1935 27.871V28.4516C11.5531 28.4516 11.0323 28.9725 11.0323 29.6129V30.7742C11.0323 31.093 11.1617 31.3821 11.3702 31.5923C9.70723 32.3826 8.19987 32.8738 6.92477 33.0341C6.95032 32.8645 6.96774 32.6926 6.96774 32.5161C6.96774 30.5948 5.40523 29.0323 3.48387 29.0323C3.30619 29.0323 3.13258 29.0497 2.96187 29.0758C3.30039 26.37 5.0969 22.7392 7.86368 18.9825ZM3.48387 30.1936C4.76477 30.1936 5.80645 31.2352 5.80645 32.5161C5.80645 33.797 4.76477 34.8387 3.48387 34.8387C2.20297 34.8387 1.16129 33.797 1.16129 32.5161C1.16129 31.2352 2.20297 30.1936 3.48387 30.1936Z" fill="url(#paint0_linear_178_2330)"/>
<defs>
<linearGradient id="paint0_linear_178_2330" x1="0.606537" y1="18.0994" x2="33.1718" y2="19.7795" gradientUnits="userSpaceOnUse">
<stop stop-color="#41A575"/>
<stop offset="1" stop-color="#3361A9"/>
</linearGradient>
</defs>
</svg>
