<svg width="22" height="19" viewBox="0 0 22 19" fill="none" xmlns="http://www.w3.org/2000/svg">
<path d="M6.77726 8.5723L1.5101 7.08685C0.615108 6.83514 0 6.03026 0 5.11662V2.05094C0 0.918215 0.934522 0.00146484 2.08568 0.00146484H4.69159C5.84432 0.00146484 6.77726 0.919769 6.77726 2.05094V8.5723Z" fill="#369B71"/>
<path d="M4.69159 17.1431H2.08568C0.932941 17.1431 0 16.2248 0 15.0936V12.0279C0 11.1143 0.61669 10.3094 1.5101 10.0577L6.77726 8.57227V15.0936C6.77726 16.2264 5.84274 17.1431 4.69159 17.1431Z" fill="#369B71"/>
<path d="M18.0549 6.92224L6.77734 8.57239L12.4303 0.853044C12.8225 0.318532 13.4518 0 14.1239 0H17.7481C18.9008 0 19.8338 0.918304 19.8338 2.04948V4.89296C19.8338 5.9076 19.0779 6.76997 18.0549 6.92069V6.92224Z" fill="#369B71"/>
<path d="M19.9128 18.9999H16.2269C15.5913 18.9999 14.9904 18.7156 14.5951 18.2261L6.77734 8.57227L20.4236 11.9487C21.3502 12.1787 22.0001 12.9975 22.0001 13.936V16.9489C22.0001 18.0816 21.0656 18.9984 19.9144 18.9984L19.9128 18.9999Z" fill="#96CEB5"/>
</svg>
