<svg width="64" height="64" viewBox="0 0 64 64" fill="none" xmlns="http://www.w3.org/2000/svg">
<rect width="64" height="64" rx="16" fill="white" fill-opacity="0.2"/>
<rect width="64" height="64" rx="16" fill="url(#paint0_radial_253_6212)"/>
<g clip-path="url(#clip0_253_6212)">
<path d="M42.1328 16C45.2688 16 47.8288 18.4592 47.992 21.5552L48 21.8672V42.1328C48 45.2688 45.5408 47.8288 42.4448 47.992L42.1328 48H21.8672C20.3651 48.0001 18.9201 47.424 17.8301 46.3905C16.74 45.357 16.0879 43.9448 16.008 42.4448L16 42.1328V21.8672C16 18.7312 18.4592 16.1712 21.5552 16.008L21.8672 16H42.1328ZM27.2 36.8C26.7757 36.8 26.3687 36.9686 26.0686 37.2686C25.7686 37.5687 25.6 37.9757 25.6 38.4V41.6L25.6112 41.7872C25.6594 42.1922 25.8603 42.5634 26.1731 42.8252C26.4858 43.0869 26.8867 43.2194 27.2938 43.1955C27.7009 43.1716 28.0835 42.9931 28.3634 42.6966C28.6434 42.4001 28.7995 42.0078 28.8 41.6V38.4L28.7888 38.2128C28.7429 37.8236 28.5559 37.4648 28.263 37.2043C27.9701 36.9439 27.5919 36.8001 27.2 36.8ZM32 30.4C31.5757 30.4 31.1687 30.5686 30.8686 30.8686C30.5686 31.1687 30.4 31.5757 30.4 32V41.6L30.4112 41.7872C30.4594 42.1922 30.6603 42.5634 30.9731 42.8252C31.2858 43.0869 31.6867 43.2194 32.0938 43.1955C32.5009 43.1716 32.8835 42.9931 33.1634 42.6966C33.4434 42.4001 33.5995 42.0078 33.6 41.6V32L33.5888 31.8128C33.5429 31.4236 33.3559 31.0648 33.063 30.8043C32.7701 30.5439 32.3919 30.4001 32 30.4ZM36.8 33.6C36.3757 33.6 35.9687 33.7686 35.6686 34.0686C35.3686 34.3687 35.2 34.7757 35.2 35.2V41.6L35.2112 41.7872C35.2594 42.1922 35.4603 42.5634 35.7731 42.8252C36.0858 43.0869 36.4867 43.2194 36.8938 43.1955C37.3009 43.1716 37.6835 42.9931 37.9634 42.6966C38.2434 42.4001 38.3995 42.0078 38.4 41.6V35.2L38.3888 35.0128C38.3429 34.6236 38.1559 34.2648 37.863 34.0043C37.5701 33.7439 37.1919 33.6001 36.8 33.6Z" fill="white"/>
</g>
<defs>
<radialGradient id="paint0_radial_253_6212" cx="0" cy="0" r="1" gradientUnits="userSpaceOnUse" gradientTransform="translate(32 32) rotate(45) scale(45.2548)">
<stop stop-color="white" stop-opacity="0.3"/>
<stop offset="1" stop-color="white" stop-opacity="0"/>
</radialGradient>
<clipPath id="clip0_253_6212">
<rect width="32" height="32" fill="white" transform="translate(16 16)"/>
</clipPath>
</defs>
</svg>
