<svg width="45" height="44" viewBox="0 0 45 44" fill="none" xmlns="http://www.w3.org/2000/svg">
<circle cx="22.5" cy="22" r="21" stroke="#41A575" stroke-width="2"/>
<g clip-path="url(#clip0_306_5164)">
<path d="M18.5 16.6669V27.3335C18.5 27.4521 18.5316 27.5686 18.5916 27.6709C18.6516 27.7733 18.7378 27.8577 18.8413 27.9156C18.9449 27.9735 19.062 28.0027 19.1806 28.0002C19.2992 27.9978 19.415 27.9637 19.516 27.9015L28.1827 22.5682C28.2797 22.5085 28.3599 22.425 28.4155 22.3256C28.4711 22.2261 28.5003 22.1141 28.5003 22.0002C28.5003 21.8863 28.4711 21.7742 28.4155 21.6748C28.3599 21.5754 28.2797 21.4918 28.1827 21.4322L19.516 16.0989C19.415 16.0367 19.2992 16.0026 19.1806 16.0001C19.062 15.9977 18.9449 16.0269 18.8413 16.0848C18.7378 16.1426 18.6516 16.2271 18.5916 16.3294C18.5316 16.4318 18.5 16.5482 18.5 16.6669Z" fill="white"/>
</g>
<defs>
<clipPath id="clip0_306_5164">
<rect width="16" height="16" fill="white" transform="translate(14.5 14)"/>
</clipPath>
</defs>
</svg>
