<svg width="39" height="39" viewBox="0 0 39 39" fill="none" xmlns="http://www.w3.org/2000/svg">
<path fill-rule="evenodd" clip-rule="evenodd" d="M32.739 31.2256L37.4806 36.0081C37.8645 36.3953 37.8645 37.0226 37.4806 37.4097L37.4231 37.4677C37.2389 37.6534 36.989 37.7577 36.7285 37.7577C36.468 37.7577 36.2182 37.6534 36.0339 37.4677L32.1134 33.5133C32.0566 33.454 31.9886 33.4067 31.9135 33.3742C31.8384 33.3416 31.7576 33.3245 31.6758 33.3238C31.5941 33.323 31.513 33.3388 31.4373 33.37C31.3616 33.4012 31.2929 33.4473 31.235 33.5056C31.1772 33.564 31.1315 33.6333 31.1005 33.7096C31.0696 33.786 31.054 33.8678 31.0547 33.9502C31.0554 34.0327 31.0724 34.1142 31.1047 34.19C31.1369 34.2658 31.1839 34.3343 31.2427 34.3916L35.1632 38.3459C35.3688 38.5533 35.6129 38.7178 35.8815 38.83C36.1501 38.9422 36.438 39 36.7287 39C37.0195 39 37.3074 38.9422 37.576 38.83C37.8446 38.7178 38.0887 38.5533 38.2943 38.3459L38.3513 38.288C38.557 38.0806 38.7201 37.8345 38.8314 37.5635C38.9427 37.2926 39 37.0022 39 36.7089C39 36.4156 38.9427 36.1252 38.8314 35.8543C38.7201 35.5834 38.557 35.3372 38.3513 35.1299L33.4472 30.1834C34.2711 28.7723 34.7045 27.164 34.7022 25.5264C34.7022 20.4495 30.6158 16.3279 25.5828 16.3279C20.5497 16.3279 16.4633 20.4495 16.4633 25.5264C16.4633 30.6029 20.5497 34.7245 25.5828 34.7245C28.4823 34.7245 31.0678 33.3568 32.739 31.2256ZM25.5828 17.5701C29.9364 17.5701 33.4706 21.1352 33.4706 25.5264C33.4706 29.9172 29.9364 33.4823 25.5828 33.4823C21.2291 33.4823 17.6949 29.9172 17.6949 25.5264C17.6949 21.1352 21.2291 17.5701 25.5828 17.5701ZM5.30646 20.329C5.30646 19.9447 5.15508 19.5761 4.88562 19.3043C4.61616 19.0325 4.25069 18.8798 3.86962 18.8798H1.43684C1.05587 18.8801 0.690591 19.0329 0.421201 19.3046C0.151812 19.5763 0.00032613 19.9448 0 20.329V31.7382C0 31.903 0.0648776 32.0609 0.18036 32.1774C0.295843 32.2939 0.452472 32.3593 0.615789 32.3593H4.69067C4.85399 32.3593 5.01062 32.2939 5.1261 32.1774C5.24158 32.0609 5.30646 31.903 5.30646 31.7382V20.329ZM12.3577 18.2641C12.3577 18.0738 12.3205 17.8853 12.2483 17.7095C12.1761 17.5337 12.0702 17.3739 11.9368 17.2393C11.8034 17.1047 11.645 16.998 11.4707 16.9252C11.2963 16.8523 11.1095 16.8148 10.9208 16.8148H8.48804C8.10696 16.8148 7.7415 16.9675 7.47204 17.2393C7.20258 17.5111 7.0512 17.8797 7.0512 18.2641V31.7382C7.0512 31.903 7.11607 32.0609 7.23156 32.1774C7.34704 32.2939 7.50367 32.3593 7.66698 32.3593H11.7419C11.9052 32.3593 12.0618 32.2939 12.1773 32.1774C12.2928 32.0609 12.3577 31.903 12.3577 31.7382V18.2641ZM17.151 31.1171H15.3344V15.3797C15.3344 15.3248 15.356 15.2721 15.3945 15.2333C15.433 15.1945 15.4852 15.1727 15.5396 15.1727H17.972C18.0264 15.1727 18.0787 15.1945 18.1172 15.2333C18.1556 15.2721 18.1773 15.3248 18.1773 15.3797V17.6956C18.1773 17.8603 18.2421 18.0183 18.3576 18.1348C18.4731 18.2512 18.6297 18.3167 18.7931 18.3167C18.9564 18.3167 19.113 18.2512 19.2285 18.1348C19.344 18.0183 19.4088 17.8603 19.4088 17.6956V15.3797C19.409 15.1893 19.372 15.0008 19.2998 14.8249C19.2277 14.649 19.1218 14.4892 18.9884 14.3546C18.8549 14.22 18.6965 14.1132 18.5221 14.0404C18.3477 13.9677 18.1607 13.9303 17.972 13.9305H15.5396C15.1586 13.9307 14.7933 14.0834 14.5239 14.3552C14.2545 14.6269 14.103 14.9954 14.1028 15.3797V31.7382C14.1028 31.903 14.1677 32.0609 14.2832 32.1774C14.3986 32.2939 14.5553 32.3593 14.7186 32.3593H17.151C17.3143 32.3593 17.4709 32.2939 17.5864 32.1774C17.7019 32.0609 17.7667 31.903 17.7667 31.7382C17.7667 31.5735 17.7019 31.4155 17.5864 31.2991C17.4709 31.1826 17.3143 31.1171 17.151 31.1171ZM22.1774 21.9509C23.0918 21.0619 24.3127 20.5658 25.5828 20.5671C28.2963 20.5671 30.4992 22.7894 30.4992 25.5264C30.4992 28.2634 28.2963 30.4853 25.5828 30.4853C22.8692 30.4853 20.6663 28.2634 20.6663 25.5264C20.6663 24.8573 20.7977 24.2192 21.0362 23.637C21.0986 23.4848 21.0984 23.3137 21.0358 23.1616C20.9732 23.0094 20.8532 22.8886 20.7022 22.8257C20.5513 22.7627 20.3817 22.7629 20.2308 22.826C20.08 22.8892 19.9602 23.0102 19.8978 23.1625C19.5911 23.9122 19.4337 24.7154 19.4347 25.5264C19.4347 28.9491 22.1893 31.7275 25.5828 31.7275C28.9762 31.7275 31.7308 28.9491 31.7308 25.5264C31.7308 22.1037 28.9762 19.3249 25.5828 19.3249C23.9944 19.3231 22.4675 19.9435 21.324 21.0553C21.2656 21.1118 21.219 21.1794 21.1865 21.2541C21.1541 21.3288 21.1366 21.4093 21.135 21.4908C21.1334 21.5724 21.1477 21.6534 21.1772 21.7294C21.2067 21.8054 21.2507 21.8747 21.3067 21.9335C21.3628 21.9924 21.4297 22.0395 21.5038 22.0722C21.5779 22.1049 21.6576 22.1225 21.7385 22.1241C21.8194 22.1257 21.8997 22.1113 21.975 22.0816C22.0504 22.0518 22.1191 22.0075 22.1774 21.9509ZM11.1261 18.2641V31.1171H8.28277V18.2641C8.28277 18.2092 8.3044 18.1565 8.34289 18.1177C8.38139 18.0789 8.4336 18.0571 8.48804 18.0571H10.9208C10.9753 18.0571 11.0275 18.0789 11.066 18.1177C11.1045 18.1565 11.1261 18.2092 11.1261 18.2641ZM4.07488 20.329V31.1171H1.23158V20.329C1.2319 20.2742 1.25363 20.2218 1.29206 20.183C1.33048 20.1442 1.3825 20.1223 1.43684 20.122H3.86962C3.92406 20.122 3.97627 20.1438 4.01476 20.1826C4.05326 20.2215 4.07488 20.2741 4.07488 20.329ZM22.3856 15.6936V9.69248C22.3856 9.63757 22.4072 9.58491 22.4457 9.54609C22.4842 9.50726 22.5364 9.48545 22.5908 9.48545H25.0236C25.0506 9.48534 25.0773 9.49062 25.1023 9.50098C25.1272 9.51135 25.1499 9.5266 25.169 9.54584C25.1881 9.56509 25.2032 9.58796 25.2135 9.61312C25.2238 9.63829 25.229 9.66526 25.2289 9.69248V14.8654C25.2289 15.0301 25.2938 15.1881 25.4092 15.3046C25.5247 15.4211 25.6814 15.4865 25.8447 15.4865C26.008 15.4865 26.1646 15.4211 26.2801 15.3046C26.3956 15.1881 26.4605 15.0301 26.4605 14.8654V9.69248C26.4605 9.30812 26.3091 8.9395 26.0396 8.66772C25.7702 8.39593 25.4047 8.24325 25.0236 8.24325H22.5908C22.2098 8.24325 21.8443 8.39593 21.5748 8.66772C21.3054 8.9395 21.154 9.30812 21.154 9.69248V15.6936C21.154 15.8583 21.2189 16.0163 21.3344 16.1327C21.4498 16.2492 21.6065 16.3147 21.7698 16.3147C21.9331 16.3147 22.0897 16.2492 22.2052 16.1327C22.3207 16.0163 22.3856 15.8583 22.3856 15.6936ZM20.0616 3.8943L15.0597 7.43664C14.5459 6.96495 13.8759 6.70386 13.1812 6.70457C12.4431 6.70499 11.7351 6.99944 11.2113 7.52384C10.6875 8.04823 10.3902 8.76011 10.3843 9.5045L5.3315 10.615C5.10629 10.1286 4.74821 9.71706 4.29927 9.42868C3.85034 9.1403 3.32917 8.98705 2.79691 8.98691C2.05523 8.98724 1.34401 9.28456 0.819558 9.81354C0.295105 10.3425 0.000326375 11.0599 0 11.808C0.000435149 12.556 0.295262 13.2732 0.819703 13.8021C1.34414 14.331 2.0553 14.6282 2.79691 14.6286C3.53495 14.6283 4.24297 14.3338 4.76676 13.8094C5.29055 13.285 5.58768 12.573 5.59342 11.8287L10.6462 10.7185C10.8715 11.2049 11.2297 11.6164 11.6787 11.9048C12.1277 12.1932 12.6489 12.3464 13.1812 12.3467C13.6405 12.3464 14.0927 12.2322 14.4979 12.014C14.903 11.7957 15.2487 11.4803 15.5044 11.0954C15.7601 10.7105 15.9179 10.2681 15.9639 9.80715C16.01 9.3462 15.9428 8.88091 15.7683 8.45235L20.7702 4.91042C21.2841 5.38183 21.954 5.64274 22.6487 5.64208C24.1923 5.64208 25.4456 4.37793 25.4456 2.82104C25.4456 1.26415 24.1923 0 22.6487 0C22.1894 0.000214184 21.7372 0.114473 21.332 0.33269C20.9268 0.550908 20.5812 0.866374 20.3255 1.25124C20.0698 1.63611 19.912 2.07855 19.866 2.5395C19.8199 3.00045 19.8871 3.46574 20.0616 3.8943ZM2.79691 13.3864C2.38187 13.3863 1.98384 13.2199 1.69032 12.924C1.3968 12.628 1.2318 12.2266 1.23158 11.808C1.23169 11.3893 1.39664 10.9877 1.69017 10.6917C1.98371 10.3956 2.38179 10.2292 2.79691 10.2291C3.20441 10.2406 3.59138 10.412 3.87557 10.7068C4.15976 11.0016 4.31875 11.3966 4.31875 11.8077C4.31875 12.2189 4.15976 12.6139 3.87557 12.9087C3.59138 13.2035 3.20441 13.3748 2.79691 13.3864ZM14.4595 8.61508L14.4649 8.62253C14.6282 8.85929 14.7242 9.13663 14.7423 9.42448C14.7605 9.71233 14.7002 9.9997 14.5679 10.2554C14.4356 10.5112 14.2365 10.7255 13.992 10.8751C13.7476 11.0248 13.4671 11.1041 13.1812 11.1045C12.3174 11.1045 11.6158 10.3968 11.6158 9.52561C11.6158 8.65442 12.3174 7.94677 13.1812 7.94677C13.4317 7.94674 13.6787 8.00743 13.9011 8.12373C14.1236 8.24003 14.3151 8.40854 14.4595 8.61508ZM21.3703 3.73199L21.365 3.72412C21.2017 3.48736 21.1057 3.21002 21.0876 2.92217C21.0694 2.63432 21.1297 2.34695 21.262 2.09122C21.3943 1.8355 21.5934 1.62118 21.8379 1.47151C22.0823 1.32184 22.3628 1.24254 22.6487 1.2422C23.5125 1.2422 24.2141 1.94984 24.2141 2.82104C24.2141 3.69224 23.5125 4.39988 22.6487 4.39988C22.3982 4.39989 22.1513 4.33924 21.9289 4.22301C21.7064 4.10679 21.5149 3.93839 21.3703 3.73199Z" fill="url(#paint0_linear_178_2321)"/>
<defs>
<linearGradient id="paint0_linear_178_2321" x1="0.657082" y1="19.6077" x2="35.9361" y2="21.4277" gradientUnits="userSpaceOnUse">
<stop stop-color="#41A575"/>
<stop offset="1" stop-color="#3361A9"/>
</linearGradient>
</defs>
</svg>
