<?xml version="1.0" encoding="UTF-8"?>
<svg xmlns="http://www.w3.org/2000/svg" width="162" height="60" viewBox="0 0 162 60" fill="none">
  <rect x="0.5" y="0.499023" width="160.37" height="59" rx="9.25472" fill="#090909" stroke="white"></rect>
  <path d="M34.3963 14.6572H34.6146C34.7897 16.8211 33.9638 18.438 32.96 19.6088C31.975 20.7716 30.6263 21.8994 28.4449 21.7283C28.2994 19.5954 29.1267 18.0984 30.1291 16.9303C31.0588 15.8416 32.7633 14.8728 34.3963 14.6572ZM40.9998 37.18V37.2406C40.3867 39.0973 39.5123 40.6886 38.4452 42.1653C37.471 43.5059 36.2772 45.3101 34.1457 45.3101C32.3038 45.3101 31.0804 44.1257 29.1927 44.0934C27.1959 44.061 26.0978 45.0837 24.2721 45.3411H23.6496C22.309 45.147 21.227 44.0853 20.4388 43.1287C18.1146 40.3019 16.3185 36.6505 15.9844 31.9778V30.6048C16.1258 27.2606 17.7508 24.5416 19.9106 23.2239C21.0505 22.5232 22.6175 21.9263 24.3624 22.1931C25.1102 22.309 25.8741 22.565 26.5438 22.8183C27.1784 23.0622 27.972 23.4947 28.7238 23.4718C29.2331 23.4569 29.7398 23.1915 30.2531 23.0042C31.7568 22.4612 33.2308 21.8387 35.1737 22.1311C37.5087 22.4841 39.166 23.5216 40.19 25.1223C38.2148 26.3794 36.6531 28.2738 36.9199 31.5089C37.1571 34.4475 38.8655 36.1668 40.9998 37.18Z" fill="white"></path>
  <path d="M109.37 28.3475V31.317H107.516V33.2643H109.37V39.8811C109.37 42.1404 110.388 43.0442 112.949 43.0442C113.4 43.0442 113.828 42.9904 114.203 42.9258V41C113.882 41.0323 113.678 41.0538 113.325 41.0538C112.178 41.0538 111.674 40.5158 111.674 39.2893V33.2643H114.203V31.317H111.674V28.3475H109.37Z" fill="white"></path>
  <path d="M120.728 43.2056C124.136 43.2056 126.226 40.9139 126.226 37.116C126.226 33.3397 124.126 31.0373 120.728 31.0373C117.32 31.0373 115.22 33.3397 115.22 37.116C115.22 40.9139 117.31 43.2056 120.728 43.2056ZM120.728 41.1506C118.724 41.1506 117.599 39.6766 117.599 37.116C117.599 34.5769 118.724 33.0922 120.728 33.0922C122.722 33.0922 123.858 34.5769 123.858 37.116C123.858 39.6659 122.722 41.1506 120.728 41.1506Z" fill="white"></path>
  <path d="M128.014 42.9796H130.318V36.0617C130.318 34.4156 131.551 33.3074 133.298 33.3074C133.705 33.3074 134.391 33.3827 134.584 33.4473V31.1664C134.337 31.1018 133.898 31.0695 133.555 31.0695C132.033 31.0695 130.736 31.9087 130.404 33.0599H130.233V31.2632H128.014V42.9796Z" fill="white"></path>
  <path d="M140.305 33.0061C142.009 33.0061 143.124 34.2004 143.177 36.0401H137.283C137.411 34.2111 138.601 33.0061 140.305 33.0061ZM143.166 39.8165C142.738 40.731 141.784 41.2367 140.391 41.2367C138.547 41.2367 137.358 39.9349 137.283 37.8799V37.7508H145.524V36.9439C145.524 33.2643 143.563 31.0373 140.316 31.0373C137.026 31.0373 134.936 33.415 134.936 37.1591C134.936 40.9032 136.983 43.2056 140.326 43.2056C142.995 43.2056 144.86 41.9145 145.385 39.8165H143.166Z" fill="white"></path>
  <path d="M94.2595 38.6529C94.4373 41.53 96.8255 43.3699 100.38 43.3699C104.179 43.3699 106.556 41.4407 106.556 38.363C106.556 35.9432 105.201 34.605 101.913 33.8356L100.147 33.4007C98.0584 32.91 97.2142 32.2521 97.2142 31.1035C97.2142 29.6539 98.525 28.706 100.491 28.706C102.357 28.706 103.646 29.6316 103.879 31.1147H106.301C106.156 28.4049 103.779 26.498 100.524 26.498C97.0254 26.498 94.6928 28.4049 94.6928 31.2708C94.6928 33.6349 96.0146 35.0399 98.9138 35.7201L100.98 36.222C103.101 36.7238 104.035 37.4597 104.035 38.6864C104.035 40.1137 102.568 41.1508 100.569 41.1508C98.425 41.1508 96.9366 40.1807 96.7255 38.6529H94.2595Z" fill="white"></path>
  <path d="M70.3907 31.0695C68.8046 31.0695 67.4328 31.8657 66.7255 33.1998H66.554V31.2632H64.3356V46.8743H66.6398V41.2044H66.822C67.4328 42.4417 68.751 43.1733 70.4122 43.1733C73.3594 43.1733 75.2348 40.8386 75.2348 37.116C75.2348 33.3935 73.3594 31.0695 70.3907 31.0695ZM69.737 41.0968C67.8079 41.0968 66.5969 39.5691 66.5969 37.1268C66.5969 34.6738 67.8079 33.146 69.7477 33.146C71.6982 33.146 72.8664 34.6415 72.8664 37.116C72.8664 39.6013 71.6982 41.0968 69.737 41.0968Z" fill="white"></path>
  <path d="M83.2975 31.0695C81.7114 31.0695 80.3396 31.8657 79.6323 33.1998H79.4608V31.2632H77.2424V46.8743H79.5465V41.2044H79.7287C80.3396 42.4417 81.6578 43.1733 83.3189 43.1733C86.2661 43.1733 88.1416 40.8386 88.1416 37.116C88.1416 33.3935 86.2661 31.0695 83.2975 31.0695ZM82.6438 41.0968C80.7147 41.0968 79.5037 39.5691 79.5037 37.1268C79.5037 34.6738 80.7147 33.146 82.6545 33.146C84.605 33.146 85.7731 34.6415 85.7731 37.116C85.7731 39.6013 84.605 41.0968 82.6438 41.0968Z" fill="white"></path>
  <path d="M60.2015 42.9796H62.8452L57.058 26.8883H54.381L48.5938 42.9796H51.1486L52.6259 38.7087H58.7353L60.2015 42.9796ZM55.5917 29.81H55.7806L58.1021 36.6122H53.2591L55.5917 29.81Z" fill="white"></path>
  <path d="M48.5293 15.5385V21.899H50.8168C52.7048 21.899 53.7981 20.7309 53.7981 18.6989C53.7981 16.6978 52.696 15.5385 50.8168 15.5385H48.5293ZM49.5128 16.4377H50.7071C52.0199 16.4377 52.797 17.2752 52.797 18.7122C52.797 20.1711 52.0331 20.9998 50.7071 20.9998H49.5128V16.4377Z" fill="white"></path>
  <path d="M57.1464 21.9916C58.5427 21.9916 59.3988 21.0527 59.3988 19.4968C59.3988 17.9496 58.5383 17.0063 57.1464 17.0063C55.7502 17.0063 54.8896 17.9496 54.8896 19.4968C54.8896 21.0527 55.7458 21.9916 57.1464 21.9916ZM57.1464 21.1497C56.3254 21.1497 55.8644 20.5458 55.8644 19.4968C55.8644 18.4565 56.3254 17.8482 57.1464 17.8482C57.9631 17.8482 58.4285 18.4565 58.4285 19.4968C58.4285 20.5414 57.9631 21.1497 57.1464 21.1497Z" fill="white"></path>
  <path d="M66.69 17.0989H65.746L64.8942 20.7618H64.8196L63.8361 17.0989H62.9316L61.9481 20.7618H61.8778L61.0216 17.0989H60.0645L61.3817 21.899H62.352L63.3355 18.3639H63.4102L64.3981 21.899H65.3772L66.69 17.0989Z" fill="white"></path>
  <path d="M67.7771 21.899H68.7211V19.0912C68.7211 18.3419 69.1646 17.8747 69.8627 17.8747C70.5608 17.8747 70.8945 18.2582 70.8945 19.0295V21.899H71.8385V18.7915C71.8385 17.6499 71.2502 17.0063 70.1832 17.0063C69.4631 17.0063 68.989 17.3281 68.7562 17.8615H68.686V17.0989H67.7771V21.899Z" fill="white"></path>
  <path d="M73.3252 21.899H74.2692V15.2256H73.3252V21.899Z" fill="white"></path>
  <path d="M77.8195 21.9916C79.2157 21.9916 80.0719 21.0527 80.0719 19.4968C80.0719 17.9496 79.2113 17.0063 77.8195 17.0063C76.4232 17.0063 75.5627 17.9496 75.5627 19.4968C75.5627 21.0527 76.4189 21.9916 77.8195 21.9916ZM77.8195 21.1497C76.9984 21.1497 76.5374 20.5458 76.5374 19.4968C76.5374 18.4565 76.9984 17.8482 77.8195 17.8482C78.6361 17.8482 79.1016 18.4565 79.1016 19.4968C79.1016 20.5414 78.6361 21.1497 77.8195 21.1497Z" fill="white"></path>
  <path d="M82.8846 21.1805C82.3708 21.1805 81.9976 20.9293 81.9976 20.4973C81.9976 20.0742 82.2962 19.8494 82.9548 19.8053L84.1227 19.7304V20.1315C84.1227 20.7265 83.5958 21.1805 82.8846 21.1805ZM82.6431 21.9784C83.2709 21.9784 83.7934 21.7051 84.0788 21.2246H84.1535V21.899H85.0623V18.6196C85.0623 17.6058 84.3862 17.0063 83.1875 17.0063C82.103 17.0063 81.3303 17.5353 81.2337 18.3595H82.1469C82.2523 18.0201 82.6167 17.8262 83.1436 17.8262C83.789 17.8262 84.1227 18.1127 84.1227 18.6196V19.0339L82.8275 19.1089C81.6903 19.1794 81.0493 19.6775 81.0493 20.5414C81.0493 21.4186 81.721 21.9784 82.6431 21.9784Z" fill="white"></path>
  <path d="M88.2658 21.9784C88.9244 21.9784 89.482 21.6654 89.7674 21.1409H89.842V21.899H90.7465V15.2256H89.8025V17.8615H89.7323C89.4732 17.3325 88.92 17.0196 88.2658 17.0196C87.0583 17.0196 86.2812 17.9805 86.2812 19.4968C86.2812 21.0174 87.0495 21.9784 88.2658 21.9784ZM88.5336 17.8703C89.3239 17.8703 89.8201 18.5006 89.8201 19.5012C89.8201 20.5061 89.3283 21.1276 88.5336 21.1276C87.7345 21.1276 87.2559 20.515 87.2559 19.4968C87.2559 18.4874 87.7389 17.8703 88.5336 17.8703Z" fill="white"></path>
  <path d="M96.868 21.9916C98.2642 21.9916 99.1204 21.0527 99.1204 19.4968C99.1204 17.9496 98.2598 17.0063 96.868 17.0063C95.4717 17.0063 94.6112 17.9496 94.6112 19.4968C94.6112 21.0527 95.4674 21.9916 96.868 21.9916ZM96.868 21.1497C96.0469 21.1497 95.5859 20.5458 95.5859 19.4968C95.5859 18.4565 96.0469 17.8482 96.868 17.8482C97.6846 17.8482 98.1501 18.4565 98.1501 19.4968C98.1501 20.5414 97.6846 21.1497 96.868 21.1497Z" fill="white"></path>
  <path d="M100.37 21.899H101.314V19.0912C101.314 18.3419 101.757 17.8747 102.456 17.8747C103.154 17.8747 103.487 18.2582 103.487 19.0295V21.899H104.431V18.7915C104.431 17.6499 103.843 17.0063 102.776 17.0063C102.056 17.0063 101.582 17.3281 101.349 17.8615H101.279V17.0989H100.37V21.899Z" fill="white"></path>
  <path d="M108.779 15.9044V17.1209H108.019V17.9188H108.779V20.6296C108.779 21.5552 109.196 21.9255 110.245 21.9255C110.43 21.9255 110.606 21.9034 110.759 21.877V21.088C110.627 21.1012 110.544 21.11 110.399 21.11C109.929 21.11 109.723 20.8896 109.723 20.3871V17.9188H110.759V17.1209H109.723V15.9044H108.779Z" fill="white"></path>
  <path d="M112.026 21.899H112.97V19.0956C112.97 18.3684 113.401 17.8791 114.173 17.8791C114.841 17.8791 115.196 18.267 115.196 19.0339V21.899H116.14V18.8003C116.14 17.6587 115.513 17.0107 114.494 17.0107C113.774 17.0107 113.269 17.3325 113.036 17.8703H112.962V15.2256H112.026V21.899Z" fill="white"></path>
  <path d="M119.546 17.813C120.244 17.813 120.701 18.3022 120.722 19.056H118.308C118.36 18.3066 118.848 17.813 119.546 17.813ZM120.718 20.6031C120.542 20.9778 120.152 21.1849 119.581 21.1849C118.826 21.1849 118.338 20.6516 118.308 19.8097V19.7568H121.684V19.4262C121.684 17.9188 120.881 17.0063 119.55 17.0063C118.202 17.0063 117.346 17.9805 117.346 19.5144C117.346 21.0483 118.185 21.9916 119.555 21.9916C120.648 21.9916 121.412 21.4626 121.627 20.6031H120.718Z" fill="white"></path>
  <path d="M109.37 28.3475V31.317H107.516V33.2643H109.37V39.8811C109.37 42.1404 110.388 43.0442 112.949 43.0442C113.4 43.0442 113.828 42.9904 114.203 42.9258V41C113.882 41.0323 113.678 41.0538 113.325 41.0538C112.178 41.0538 111.674 40.5158 111.674 39.2893V33.2643H114.203V31.317H111.674V28.3475H109.37Z" fill="white"></path>
  <path d="M120.728 43.2056C124.136 43.2056 126.226 40.9139 126.226 37.116C126.226 33.3397 124.126 31.0373 120.728 31.0373C117.32 31.0373 115.22 33.3397 115.22 37.116C115.22 40.9139 117.31 43.2056 120.728 43.2056ZM120.728 41.1506C118.724 41.1506 117.599 39.6766 117.599 37.116C117.599 34.5769 118.724 33.0922 120.728 33.0922C122.722 33.0922 123.858 34.5769 123.858 37.116C123.858 39.6659 122.722 41.1506 120.728 41.1506Z" fill="white"></path>
  <path d="M128.014 42.9796H130.318V36.0617C130.318 34.4156 131.551 33.3074 133.298 33.3074C133.705 33.3074 134.391 33.3827 134.584 33.4473V31.1664C134.337 31.1018 133.898 31.0695 133.555 31.0695C132.033 31.0695 130.736 31.9087 130.404 33.0599H130.233V31.2632H128.014V42.9796Z" fill="white"></path>
  <path d="M140.305 33.0061C142.009 33.0061 143.124 34.2004 143.177 36.0401H137.283C137.411 34.2111 138.601 33.0061 140.305 33.0061ZM143.166 39.8165C142.738 40.731 141.784 41.2367 140.391 41.2367C138.547 41.2367 137.358 39.9349 137.283 37.8799V37.7508H145.524V36.9439C145.524 33.2643 143.563 31.0373 140.316 31.0373C137.026 31.0373 134.936 33.415 134.936 37.1591C134.936 40.9032 136.983 43.2056 140.326 43.2056C142.995 43.2056 144.86 41.9145 145.385 39.8165H143.166Z" fill="white"></path>
  <path d="M94.2595 38.6529C94.4373 41.53 96.8255 43.3699 100.38 43.3699C104.179 43.3699 106.556 41.4407 106.556 38.363C106.556 35.9432 105.201 34.605 101.913 33.8356L100.147 33.4007C98.0584 32.91 97.2142 32.2521 97.2142 31.1035C97.2142 29.6539 98.525 28.706 100.491 28.706C102.357 28.706 103.646 29.6316 103.879 31.1147H106.301C106.156 28.4049 103.779 26.498 100.524 26.498C97.0254 26.498 94.6928 28.4049 94.6928 31.2708C94.6928 33.6349 96.0146 35.0399 98.9138 35.7201L100.98 36.222C103.101 36.7238 104.035 37.4597 104.035 38.6864C104.035 40.1137 102.568 41.1508 100.569 41.1508C98.425 41.1508 96.9366 40.1807 96.7255 38.6529H94.2595Z" fill="white"></path>
  <path d="M70.3907 31.0695C68.8046 31.0695 67.4328 31.8657 66.7255 33.1998H66.554V31.2632H64.3356V46.8743H66.6398V41.2044H66.822C67.4328 42.4417 68.751 43.1733 70.4122 43.1733C73.3594 43.1733 75.2348 40.8386 75.2348 37.116C75.2348 33.3935 73.3594 31.0695 70.3907 31.0695ZM69.737 41.0968C67.8079 41.0968 66.5969 39.5691 66.5969 37.1268C66.5969 34.6738 67.8079 33.146 69.7477 33.146C71.6982 33.146 72.8664 34.6415 72.8664 37.116C72.8664 39.6013 71.6982 41.0968 69.737 41.0968Z" fill="white"></path>
  <path d="M83.2975 31.0695C81.7114 31.0695 80.3396 31.8657 79.6323 33.1998H79.4608V31.2632H77.2424V46.8743H79.5465V41.2044H79.7287C80.3396 42.4417 81.6578 43.1733 83.3189 43.1733C86.2661 43.1733 88.1416 40.8386 88.1416 37.116C88.1416 33.3935 86.2661 31.0695 83.2975 31.0695ZM82.6438 41.0968C80.7147 41.0968 79.5037 39.5691 79.5037 37.1268C79.5037 34.6738 80.7147 33.146 82.6545 33.146C84.605 33.146 85.7731 34.6415 85.7731 37.116C85.7731 39.6013 84.605 41.0968 82.6438 41.0968Z" fill="white"></path>
  <path d="M60.2015 42.9796H62.8452L57.058 26.8883H54.381L48.5938 42.9796H51.1486L52.6259 38.7087H58.7353L60.2015 42.9796ZM55.5917 29.81H55.7806L58.1021 36.6122H53.2591L55.5917 29.81Z" fill="white"></path>
  <path d="M48.5293 15.5385V21.899H50.8168C52.7048 21.899 53.7981 20.7309 53.7981 18.6989C53.7981 16.6978 52.696 15.5385 50.8168 15.5385H48.5293ZM49.5128 16.4377H50.7071C52.0199 16.4377 52.797 17.2752 52.797 18.7122C52.797 20.1711 52.0331 20.9998 50.7071 20.9998H49.5128V16.4377Z" fill="white"></path>
  <path d="M57.1464 21.9916C58.5427 21.9916 59.3988 21.0527 59.3988 19.4968C59.3988 17.9496 58.5383 17.0063 57.1464 17.0063C55.7502 17.0063 54.8896 17.9496 54.8896 19.4968C54.8896 21.0527 55.7458 21.9916 57.1464 21.9916ZM57.1464 21.1497C56.3254 21.1497 55.8644 20.5458 55.8644 19.4968C55.8644 18.4565 56.3254 17.8482 57.1464 17.8482C57.9631 17.8482 58.4285 18.4565 58.4285 19.4968C58.4285 20.5414 57.9631 21.1497 57.1464 21.1497Z" fill="white"></path>
  <path d="M66.69 17.0989H65.746L64.8942 20.7618H64.8196L63.8361 17.0989H62.9316L61.9481 20.7618H61.8778L61.0216 17.0989H60.0645L61.3817 21.899H62.352L63.3355 18.3639H63.4102L64.3981 21.899H65.3772L66.69 17.0989Z" fill="white"></path>
  <path d="M67.7771 21.899H68.7211V19.0912C68.7211 18.3419 69.1646 17.8747 69.8627 17.8747C70.5608 17.8747 70.8945 18.2582 70.8945 19.0295V21.899H71.8385V18.7915C71.8385 17.6499 71.2502 17.0063 70.1832 17.0063C69.4631 17.0063 68.989 17.3281 68.7562 17.8615H68.686V17.0989H67.7771V21.899Z" fill="white"></path>
  <path d="M73.3252 21.899H74.2692V15.2256H73.3252V21.899Z" fill="white"></path>
  <path d="M77.8195 21.9916C79.2157 21.9916 80.0719 21.0527 80.0719 19.4968C80.0719 17.9496 79.2113 17.0063 77.8195 17.0063C76.4232 17.0063 75.5627 17.9496 75.5627 19.4968C75.5627 21.0527 76.4189 21.9916 77.8195 21.9916ZM77.8195 21.1497C76.9984 21.1497 76.5374 20.5458 76.5374 19.4968C76.5374 18.4565 76.9984 17.8482 77.8195 17.8482C78.6361 17.8482 79.1016 18.4565 79.1016 19.4968C79.1016 20.5414 78.6361 21.1497 77.8195 21.1497Z" fill="white"></path>
  <path d="M82.8846 21.1805C82.3708 21.1805 81.9976 20.9293 81.9976 20.4973C81.9976 20.0742 82.2962 19.8494 82.9548 19.8053L84.1227 19.7304V20.1315C84.1227 20.7265 83.5958 21.1805 82.8846 21.1805ZM82.6431 21.9784C83.2709 21.9784 83.7934 21.7051 84.0788 21.2246H84.1535V21.899H85.0623V18.6196C85.0623 17.6058 84.3862 17.0063 83.1875 17.0063C82.103 17.0063 81.3303 17.5353 81.2337 18.3595H82.1469C82.2523 18.0201 82.6167 17.8262 83.1436 17.8262C83.789 17.8262 84.1227 18.1127 84.1227 18.6196V19.0339L82.8275 19.1089C81.6903 19.1794 81.0493 19.6775 81.0493 20.5414C81.0493 21.4186 81.721 21.9784 82.6431 21.9784Z" fill="white"></path>
  <path d="M88.2658 21.9784C88.9244 21.9784 89.482 21.6654 89.7674 21.1409H89.842V21.899H90.7465V15.2256H89.8025V17.8615H89.7323C89.4732 17.3325 88.92 17.0196 88.2658 17.0196C87.0583 17.0196 86.2812 17.9805 86.2812 19.4968C86.2812 21.0174 87.0495 21.9784 88.2658 21.9784ZM88.5336 17.8703C89.3239 17.8703 89.8201 18.5006 89.8201 19.5012C89.8201 20.5061 89.3283 21.1276 88.5336 21.1276C87.7345 21.1276 87.2559 20.515 87.2559 19.4968C87.2559 18.4874 87.7389 17.8703 88.5336 17.8703Z" fill="white"></path>
  <path d="M96.868 21.9916C98.2642 21.9916 99.1204 21.0527 99.1204 19.4968C99.1204 17.9496 98.2598 17.0063 96.868 17.0063C95.4717 17.0063 94.6112 17.9496 94.6112 19.4968C94.6112 21.0527 95.4674 21.9916 96.868 21.9916ZM96.868 21.1497C96.0469 21.1497 95.5859 20.5458 95.5859 19.4968C95.5859 18.4565 96.0469 17.8482 96.868 17.8482C97.6846 17.8482 98.1501 18.4565 98.1501 19.4968C98.1501 20.5414 97.6846 21.1497 96.868 21.1497Z" fill="white"></path>
  <path d="M100.37 21.899H101.314V19.0912C101.314 18.3419 101.757 17.8747 102.456 17.8747C103.154 17.8747 103.487 18.2582 103.487 19.0295V21.899H104.431V18.7915C104.431 17.6499 103.843 17.0063 102.776 17.0063C102.056 17.0063 101.582 17.3281 101.349 17.8615H101.279V17.0989H100.37V21.899Z" fill="white"></path>
  <path d="M108.779 15.9044V17.1209H108.019V17.9188H108.779V20.6296C108.779 21.5552 109.196 21.9255 110.245 21.9255C110.43 21.9255 110.606 21.9034 110.759 21.877V21.088C110.627 21.1012 110.544 21.11 110.399 21.11C109.929 21.11 109.723 20.8896 109.723 20.3871V17.9188H110.759V17.1209H109.723V15.9044H108.779Z" fill="white"></path>
  <path d="M112.026 21.899H112.97V19.0956C112.97 18.3684 113.401 17.8791 114.173 17.8791C114.841 17.8791 115.196 18.267 115.196 19.0339V21.899H116.14V18.8003C116.14 17.6587 115.513 17.0107 114.494 17.0107C113.774 17.0107 113.269 17.3325 113.036 17.8703H112.962V15.2256H112.026V21.899Z" fill="white"></path>
  <path d="M119.546 17.813C120.244 17.813 120.701 18.3022 120.722 19.056H118.308C118.36 18.3066 118.848 17.813 119.546 17.813ZM120.718 20.6031C120.542 20.9778 120.152 21.1849 119.581 21.1849C118.826 21.1849 118.338 20.6516 118.308 19.8097V19.7568H121.684V19.4262C121.684 17.9188 120.881 17.0063 119.55 17.0063C118.202 17.0063 117.346 17.9805 117.346 19.5144C117.346 21.0483 118.185 21.9916 119.555 21.9916C120.648 21.9916 121.412 21.4626 121.627 20.6031H120.718Z" fill="white"></path>
</svg>
