<?xml version="1.0" encoding="UTF-8"?>
<svg xmlns="http://www.w3.org/2000/svg" width="1080" height="463" viewBox="0 0 1080 463" fill="none">
  <mask id="mask0_257_7569" style="mask-type:alpha" maskUnits="userSpaceOnUse" x="0" y="0" width="1080" height="463">
    <rect width="1080" height="463" fill="#D9D9D9"></rect>
  </mask>
  <g mask="url(#mask0_257_7569)">
    <g filter="url(#filter0_d_257_7569)">
      <rect x="199.723" y="990.344" width="871.846" height="871.846" rx="435.923" transform="rotate(-102.054 199.723 990.344)" fill="#41A575" fill-opacity="0.02" shape-rendering="crispEdges"></rect>
      <path d="M366.492 192.42L354.291 188.918C352.218 188.325 350.793 186.427 350.793 184.274V177.047C350.793 174.377 352.958 172.216 355.624 172.216H361.66C364.331 172.216 366.492 174.38 366.492 177.047V192.42Z" fill="#369B71"></path>
      <path d="M361.66 212.623H355.624C352.954 212.623 350.793 210.458 350.793 207.792V200.565C350.793 198.411 352.221 196.514 354.291 195.921L366.492 192.419V207.792C366.492 210.462 364.327 212.623 361.66 212.623Z" fill="#369B71"></path>
      <path d="M392.611 188.529L366.488 192.418L379.583 174.222C380.491 172.962 381.949 172.211 383.506 172.211H391.901C394.571 172.211 396.732 174.376 396.732 177.042V183.745C396.732 186.137 394.981 188.17 392.611 188.525V188.529Z" fill="#369B71"></path>
      <path d="M396.915 217H388.377C386.905 217 385.513 216.33 384.597 215.176L366.488 192.419L398.098 200.378C400.245 200.92 401.75 202.851 401.75 205.063V212.165C401.75 214.835 399.585 216.996 396.919 216.996L396.915 217Z" fill="#96CEB5"></path>
    </g>
  </g>
  <defs>
    <filter id="filter0_d_257_7569" x="-66.3398" y="-108.344" width="1202.69" height="1202.69" filterUnits="userSpaceOnUse" color-interpolation-filters="sRGB">
      <feFlood flood-opacity="0" result="BackgroundImageFix"></feFlood>
      <feColorMatrix in="SourceAlpha" type="matrix" values="0 0 0 0 0 0 0 0 0 0 0 0 0 0 0 0 0 0 127 0" result="hardAlpha"></feColorMatrix>
      <feOffset dy="20"></feOffset>
      <feGaussianBlur stdDeviation="42"></feGaussianBlur>
      <feComposite in2="hardAlpha" operator="out"></feComposite>
      <feColorMatrix type="matrix" values="0 0 0 0 0.254902 0 0 0 0 0.647059 0 0 0 0 0.458824 0 0 0 0.41 0"></feColorMatrix>
      <feBlend mode="normal" in2="BackgroundImageFix" result="effect1_dropShadow_257_7569"></feBlend>
      <feBlend mode="normal" in="SourceGraphic" in2="effect1_dropShadow_257_7569" result="shape"></feBlend>
    </filter>
  </defs>
</svg>
