<?xml version="1.0" encoding="UTF-8"?>
<svg xmlns="http://www.w3.org/2000/svg" width="38" height="38" viewBox="0 0 38 38" fill="none">
  <path d="M33.2871 6.49828C33.251 6.4427 33.2058 6.39355 33.1535 6.35287C31.3744 4.3549 29.1924 2.7559 26.751 1.66098C24.3096 0.566062 21.664 0 18.9881 0C16.3123 0 13.6667 0.566062 11.2253 1.66098C8.78386 2.7559 6.60188 4.3549 4.82274 6.35287C4.77301 6.39225 4.72991 6.43934 4.69509 6.49235V6.50719C2.29324 9.25376 0.733497 12.6337 0.202336 16.2429C-0.328826 19.8521 0.191066 23.5378 1.69986 26.8595C3.20865 30.1811 5.6425 32.9982 8.71044 34.9738C11.7784 36.9494 15.3506 38 19 38C22.6494 38 26.2216 36.9494 29.2896 34.9738C32.3575 32.9982 34.7914 30.1811 36.3001 26.8595C37.8089 23.5378 38.3288 19.8521 37.7977 16.2429C37.2665 12.6337 35.7068 9.25376 33.3049 6.50719L33.2871 6.49828ZM32.6934 30.3609C31.3444 29.5739 29.9127 28.9379 28.4243 28.4646C29.3473 25.5958 29.8347 22.6048 29.8701 19.5914H36.7902C36.6635 23.5383 35.2216 27.3297 32.6934 30.3639V30.3609ZM1.19493 19.5914H8.11508C8.15019 22.6058 8.63754 25.5978 9.56086 28.4676C8.07243 28.9409 6.64075 29.5768 5.29181 30.3639C2.76354 27.3297 1.32162 23.5383 1.19493 19.5914ZM5.33634 7.5874C6.67863 8.36732 8.10218 8.99823 9.58165 9.46887C8.64485 12.3564 8.15041 15.369 8.11508 18.4044H1.19493C1.32432 14.4368 2.78273 10.6276 5.33634 7.5874ZM19.5863 10.8785C22.1942 10.8416 24.7873 10.4787 27.3051 9.79828C28.1938 12.582 28.662 15.4826 28.6944 18.4044H19.5863V10.8785ZM19.5863 9.69145V1.22778C22.5966 1.56313 25.2269 4.42985 26.8894 8.67949C24.5057 9.31449 22.053 9.65435 19.5863 9.69145ZM18.3988 9.69145C15.9322 9.65438 13.4794 9.31451 11.0957 8.67949C12.7582 4.42985 15.3885 1.56313 18.3988 1.22778V9.69145ZM18.3988 10.8785V18.4044H9.30258C9.33116 15.4832 9.79543 12.5826 10.6801 9.79828C13.1979 10.4786 15.7909 10.8415 18.3988 10.8785ZM9.30258 19.5914H18.3988V27.052C15.7907 27.0908 13.1976 27.4557 10.6801 28.1382C9.80192 25.3727 9.33773 22.4927 9.30258 19.5914ZM18.3988 28.2391V36.768C15.3766 36.4297 12.7226 33.5393 11.072 29.257C13.4631 28.6179 15.924 28.276 18.3988 28.2391ZM19.5863 28.2391C22.0612 28.2761 24.522 28.6179 26.9132 29.257C25.2626 33.5393 22.6085 36.4297 19.5863 36.768V28.2391ZM19.5863 27.052V19.5914H28.6826C28.6471 22.4917 28.1829 25.3707 27.3051 28.1352C24.7874 27.4537 22.1944 27.0899 19.5863 27.052ZM29.8701 18.4044C29.8347 15.369 29.3403 12.3564 28.4035 9.46887C29.883 8.99823 31.3065 8.36732 32.6488 7.5874C35.2024 10.6276 36.6608 14.4368 36.7902 18.4044H29.8701ZM31.8443 6.68821C30.6242 7.37239 29.3369 7.92927 28.0027 8.35008C26.9073 5.53677 25.3873 3.26951 23.606 1.80054C26.7471 2.64716 29.5962 4.33753 31.8443 6.68821ZM14.3791 1.80054C12.5979 3.26061 11.0809 5.53381 9.9854 8.35008C8.65125 7.92927 7.36396 7.37239 6.14384 6.68821C8.39107 4.33799 11.2391 2.64766 14.3791 1.80054ZM6.0993 31.2661C7.32413 30.5741 8.61752 30.0112 9.95868 29.5864C11.0571 32.4294 12.5831 34.7263 14.3762 36.1953C11.2166 35.3434 8.35292 33.638 6.0993 31.2661ZM23.6149 36.1953C25.3962 34.7115 26.934 32.4294 28.0324 29.5864C29.3736 30.0112 30.667 30.5742 31.8918 31.2661C29.6357 33.6393 26.7688 35.3449 23.606 36.1953H23.6149Z" fill="url(#paint0_linear_178_2304)"></path>
  <defs>
    <linearGradient id="paint0_linear_178_2304" x1="6.79593" y1="19" x2="15.0036" y2="19" gradientUnits="userSpaceOnUse">
      <stop stop-color="#41A575"></stop>
      <stop offset="1" stop-color="#3361A9"></stop>
    </linearGradient>
  </defs>
</svg>
