<?xml version="1.0" encoding="UTF-8"?>
<svg xmlns="http://www.w3.org/2000/svg" width="41" height="39" viewBox="0 0 41 39" fill="none">
  <path d="M29.3137 18.4167C29.6324 18.4167 29.951 18.1618 29.951 17.7794V15.9314H38.4902C38.8088 15.9314 39.1275 15.6765 39.1275 15.2941V10.7696C40.0833 10.5147 40.848 9.55882 40.848 8.53922C40.848 7.26471 39.7647 6.18137 38.4902 6.18137C37.2157 6.18137 36.1324 7.26471 36.1324 8.53922C36.1324 9.62255 36.8971 10.5784 37.9167 10.8333V14.7206H29.8873V12.5539C29.8873 12.2353 29.6324 11.9167 29.25 11.9167H23.2598V2.93137H27.1471C27.402 3.95098 28.2941 4.71569 29.4412 4.71569C30.7157 4.71569 31.799 3.63235 31.799 2.35784C31.799 1.08333 30.7157 0 29.4412 0C28.3578 0 27.4657 0.70098 27.2108 1.72059H22.6863C22.3676 1.72059 22.049 1.97549 22.049 2.35784V11.9804H18.4804V2.35784C18.4804 2.03922 18.2255 1.72059 17.8431 1.72059H13.3824C13.1275 0.764706 12.1716 0 11.152 0C9.87745 0 8.79412 1.08333 8.79412 2.35784C8.79412 3.63235 9.87745 4.71569 11.152 4.71569C12.2353 4.71569 13.1912 3.95098 13.4461 2.93137H17.2696V11.9167H11.2794C10.9608 11.9167 10.6422 12.1716 10.6422 12.5539V14.7206H2.93137V10.8333C3.95098 10.5784 4.71569 9.68628 4.71569 8.53922C4.71569 7.26471 3.63235 6.18137 2.35784 6.18137C1.08333 6.18137 0 7.26471 0 8.60294C0 9.68628 0.70098 10.5784 1.72059 10.8333V15.3578C1.72059 15.6765 1.97549 15.9951 2.35784 15.9951H10.7059V17.8431C10.7059 18.1618 10.9608 18.4804 11.3431 18.4804H12.299V20.6471H11.3431C11.0245 20.6471 10.7059 20.902 10.7059 21.2843V23.1324H2.29412C1.97549 23.1324 1.65686 23.3873 1.65686 23.7696V28.2304C0.70098 28.4216 0 29.3775 0 30.3971C0 31.6716 1.08333 32.7549 2.35784 32.7549C3.63235 32.7549 4.71569 31.6716 4.71569 30.3971C4.71569 29.3137 3.95098 28.3578 2.93137 28.1029V24.2794H10.7059V26.3824C10.7059 26.701 10.9608 27.0196 11.3431 27.0196H17.3333V36.0686H13.5098C13.2549 35.049 12.3627 34.2843 11.2157 34.2843C9.94118 34.2843 8.85784 35.3676 8.85784 36.6422C8.85784 37.9167 9.94118 39 11.2157 39C12.299 39 13.1912 38.299 13.4461 37.2794H17.9069C18.2255 37.2794 18.5441 37.0245 18.5441 36.6422V27.0196H22.1127V36.6422C22.1127 36.9608 22.3676 37.2794 22.75 37.2794H27.2745C27.5294 38.2353 28.4853 39 29.5049 39C30.7794 39 31.8627 37.9167 31.8627 36.6422C31.8627 35.3676 30.7794 34.2843 29.5049 34.2843C28.4216 34.2843 27.4657 35.049 27.2108 36.0686H23.3235V27.0196H29.3137C29.6324 27.0196 29.951 26.7647 29.951 26.3824V24.2794H37.9167V28.1029C36.8971 28.3578 36.1324 29.25 36.1324 30.3971C36.1324 31.6716 37.2157 32.7549 38.4902 32.7549C39.7647 32.7549 40.848 31.6716 40.848 30.3971C40.848 29.3137 40.1471 28.4216 39.1275 28.1667V23.7059C39.1275 23.3873 38.8726 23.0686 38.4902 23.0686H29.8873V21.2206C29.8873 20.902 29.6324 20.5833 29.25 20.5833H28.2941V18.4167H29.3137ZM37.2794 8.60294C37.2794 7.96569 37.7892 7.45588 38.4265 7.45588C39.0637 7.45588 39.5735 7.96569 39.5735 8.60294C39.5735 9.2402 39.0637 9.75 38.4265 9.75C37.7892 9.68628 37.2794 9.17647 37.2794 8.60294ZM29.4412 1.27451C30.0784 1.27451 30.5882 1.78431 30.5882 2.42157C30.5882 3.05882 30.0784 3.56863 29.4412 3.56863C28.8039 3.56863 28.2941 3.05882 28.2941 2.42157C28.3578 1.78431 28.8676 1.27451 29.4412 1.27451ZM11.152 3.5049C10.5147 3.5049 10.0049 2.9951 10.0049 2.35784C10.0049 1.72059 10.5147 1.21078 11.152 1.21078C11.7892 1.21078 12.299 1.72059 12.299 2.35784C12.299 2.9951 11.7892 3.5049 11.152 3.5049ZM1.21078 8.60294C1.21078 7.96569 1.72059 7.45588 2.35784 7.45588C2.9951 7.45588 3.5049 7.96569 3.5049 8.60294C3.5049 9.2402 2.9951 9.75 2.35784 9.75C1.72059 9.68628 1.21078 9.17647 1.21078 8.60294ZM3.5049 30.3971C3.5049 31.0343 2.9951 31.5441 2.35784 31.5441C1.72059 31.5441 1.21078 31.0343 1.21078 30.3971C1.21078 29.7598 1.72059 29.25 2.35784 29.25C2.9951 29.3137 3.5049 29.8235 3.5049 30.3971ZM11.152 37.7255C10.5147 37.7255 10.0049 37.2157 10.0049 36.5784C10.0049 35.9412 10.5147 35.4314 11.152 35.4314C11.7892 35.4314 12.299 35.9412 12.299 36.5784C12.299 37.2157 11.7892 37.7255 11.152 37.7255ZM29.4412 35.4951C30.0784 35.4951 30.5882 36.0049 30.5882 36.6422C30.5882 37.2794 30.0784 37.7892 29.4412 37.7892C28.8039 37.7892 28.2941 37.2794 28.2941 36.6422C28.3578 36.0049 28.8676 35.4951 29.4412 35.4951ZM39.5735 30.3971C39.5735 31.0343 39.0637 31.5441 38.4265 31.5441C37.7892 31.5441 37.2794 31.0343 37.2794 30.3971C37.2794 29.7598 37.7892 29.25 38.4265 29.25C39.0637 29.3137 39.5735 29.8235 39.5735 30.3971ZM11.9167 13.1912H28.6765V17.1422H11.9167V13.1912ZM28.6765 25.8088H11.9167V21.8578H28.6765V25.8088ZM27.0833 20.5833H13.5098V18.4167H27.1471V20.5833H27.0833Z" fill="url(#paint0_linear_178_2342)"></path>
  <path d="M23.7678 15.8058C24.0865 15.8058 24.4051 15.5509 24.4051 15.1685C24.4051 14.8499 24.1502 14.5312 23.7678 14.5312H23.7041C23.3855 14.5312 23.1306 14.7862 23.1306 15.1685C23.1306 15.5509 23.4492 15.8058 23.7678 15.8058ZM25.4247 15.8058C25.7433 15.8058 26.062 15.5509 26.062 15.1685C26.062 14.8499 25.8071 14.5312 25.4247 14.5312H25.361C25.0424 14.5312 24.7875 14.7862 24.7875 15.1685C24.7875 15.5509 25.1061 15.8058 25.4247 15.8058ZM27.0816 15.8058C27.4002 15.8058 27.7188 15.5509 27.7188 15.1685C27.7188 14.8499 27.4639 14.5312 27.0816 14.5312H27.0178C26.6992 14.5312 26.4443 14.7862 26.4443 15.1685C26.4443 15.5509 26.7629 15.8058 27.0816 15.8058ZM19.4982 23.1979H14.3365C14.0178 23.1979 13.6992 23.4528 13.6992 23.8352C13.6992 24.1538 13.9541 24.4724 14.3365 24.4724H19.4982C19.8169 24.4724 20.1355 24.2175 20.1355 23.8352C20.1355 23.4528 19.8806 23.1979 19.4982 23.1979ZM14.4002 15.8058H19.562C19.8806 15.8058 20.1992 15.5509 20.1992 15.1685C20.1992 14.8499 19.9443 14.5312 19.562 14.5312H14.4002C14.0816 14.5312 13.7629 14.7862 13.7629 15.1685C13.7629 15.5509 14.0178 15.8058 14.4002 15.8058ZM23.7678 23.1979C23.3855 23.1979 23.1306 23.4528 23.1306 23.8352C23.1306 24.1538 23.4492 24.4724 23.7678 24.4724C24.0865 24.4724 24.4051 24.2175 24.4051 23.8352C24.4051 23.4528 24.0865 23.1979 23.7678 23.1979ZM25.4247 23.1979C25.0424 23.1979 24.7875 23.4528 24.7875 23.8352C24.7875 24.1538 25.1061 24.4724 25.4247 24.4724C25.7433 24.4724 26.062 24.2175 26.062 23.8352C26.062 23.4528 25.7433 23.1979 25.4247 23.1979ZM27.0816 23.1979C26.6992 23.1979 26.4443 23.4528 26.4443 23.8352C26.4443 24.1538 26.7629 24.4724 27.0816 24.4724C27.4002 24.4724 27.7188 24.2175 27.7188 23.8352C27.7188 23.4528 27.4002 23.1979 27.0816 23.1979Z" fill="url(#paint1_linear_178_2342)"></path>
  <defs>
    <linearGradient id="paint0_linear_178_2342" x1="7.30527" y1="19.5" x2="16.1281" y2="19.5" gradientUnits="userSpaceOnUse">
      <stop stop-color="#41A575"></stop>
      <stop offset="1" stop-color="#3361A9"></stop>
    </linearGradient>
    <linearGradient id="paint1_linear_178_2342" x1="16.2065" y1="19.5018" x2="19.2346" y2="19.5018" gradientUnits="userSpaceOnUse">
      <stop stop-color="#41A575"></stop>
      <stop offset="1" stop-color="#3361A9"></stop>
    </linearGradient>
  </defs>
</svg>
