<?xml version="1.0" encoding="UTF-8"?>
<svg xmlns="http://www.w3.org/2000/svg" width="158" height="60" viewBox="0 0 158 60" fill="none">
  <rect x="0.871094" y="0.499023" width="156.615" height="59" rx="9.25472" fill="#090909" stroke="white"></rect>
  <path d="M34.4212 25.2489L17.3633 13.999V45.9986L35.0191 34.3542L41.624 29.9988L34.4212 25.2489Z" fill="#00D7DF"></path>
  <path d="M41.6246 29.999L34.6118 34.6185L29.959 30.0011L34.4219 25.249L41.6246 29.999Z" fill="#FDBF00"></path>
  <path d="M34.6111 34.6184L17.3633 45.9986V43.3892L29.9539 30.001L34.6111 34.6184Z" fill="#FF0059"></path>
  <path d="M17.3633 13.999L34.4212 25.2489L29.9554 30.0003L17.3633 16.7784V13.999Z" fill="#9BDD39"></path>
  <path d="M17.3633 16.7783L29.9554 30.0003L17.3633 43.3893V16.7783Z" fill="#00D7DF"></path>
  <path d="M34.6111 34.6184L17.3633 45.9986V43.3892L29.9539 30.001L34.6111 34.6184Z" fill="#D20041"></path>
  <path d="M41.6012 30.0146H29.9727L34.612 34.6186L41.6012 30.0146Z" fill="#FF9100"></path>
  <path d="M17.3633 43.3895L29.9422 30.0146H17.3633V43.3895Z" fill="#00AADF"></path>
  <path d="M79.3554 31.547C76.7886 31.547 74.6965 33.4984 74.6965 36.186C74.6965 38.8573 76.7886 40.8251 79.3554 40.8251C81.9233 40.8251 84.0153 38.8573 84.0153 36.186C84.0142 33.4984 81.9222 31.547 79.3554 31.547ZM79.3554 38.9991C77.9487 38.9991 76.7362 37.8397 76.7362 36.1871C76.7362 34.5172 77.9498 33.3751 79.3554 33.3751C80.7621 33.3751 81.9746 34.5172 81.9746 36.1871C81.9746 37.8386 80.7621 38.9991 79.3554 38.9991ZM69.1908 31.547C66.624 31.547 64.532 33.4984 64.532 36.186C64.532 38.8573 66.624 40.8251 69.1908 40.8251C71.7587 40.8251 73.8508 38.8573 73.8508 36.186C73.8508 33.4984 71.7587 31.547 69.1908 31.547ZM69.1908 38.9991C67.7841 38.9991 66.5716 37.8397 66.5716 36.1871C66.5716 34.5172 67.7852 33.3751 69.1908 33.3751C70.5975 33.3751 71.81 34.5172 71.81 36.1871C71.8111 37.8386 70.5975 38.9991 69.1908 38.9991ZM57.1012 32.9715V34.9393H61.8135C61.6727 36.0464 61.3038 36.8547 60.7407 37.4164C60.0554 38.1014 58.9826 38.8573 57.1012 38.8573C54.2004 38.8573 51.9326 36.5198 51.9326 33.6206C51.9326 30.7213 54.2004 28.3838 57.1012 28.3838C58.6661 28.3838 59.8087 28.999 60.6523 29.7898L62.0416 28.4012C60.8629 27.2766 59.2991 26.416 57.1012 26.416C53.1276 26.416 49.7871 29.6491 49.7871 33.6206C49.7871 37.592 53.1276 40.8251 57.1012 40.8251C59.2456 40.8251 60.864 40.1215 62.1289 38.8039C63.4297 37.5037 63.8346 35.6756 63.8346 34.1997C63.8346 33.7438 63.7997 33.3217 63.7288 32.9705L57.1012 32.9715ZM106.547 34.4997C106.16 33.4635 104.982 31.547 102.573 31.547C100.182 31.547 98.1949 33.4275 98.1949 36.186C98.1949 38.7864 100.165 40.8251 102.801 40.8251C104.928 40.8251 106.159 39.5249 106.67 38.769L105.088 37.7142C104.561 38.4876 103.839 38.997 102.801 38.997C101.765 38.997 101.026 38.5225 100.551 37.591L106.757 35.0255L106.547 34.4997ZM100.217 36.0464C100.165 34.2532 101.606 33.3402 102.644 33.3402C103.453 33.3402 104.138 33.7449 104.367 34.3241L100.217 36.0464ZM95.1719 40.5448H97.2105V26.909H95.1719V40.5448ZM91.8303 32.5843H91.7605C91.3032 32.0389 90.4236 31.547 89.317 31.547C86.9957 31.547 84.8688 33.5856 84.8688 36.2046C84.8688 38.805 86.9957 40.8262 89.317 40.8262C90.4247 40.8262 91.3032 40.3342 91.7605 39.7725H91.8303V40.44C91.8303 42.2147 90.8808 43.1637 89.3519 43.1637C88.1034 43.1637 87.3297 42.2682 87.0132 41.5123L85.2376 42.2507C85.7473 43.48 87.1005 44.9918 89.3519 44.9918C91.743 44.9918 93.7652 43.5858 93.7652 40.1586V31.8295H91.8314L91.8303 32.5843ZM89.4927 38.9991C88.086 38.9991 86.9084 37.8211 86.9084 36.2046C86.9084 34.5695 88.086 33.3751 89.4927 33.3751C90.8809 33.3751 91.9711 34.5695 91.9711 36.2046C91.9711 37.8211 90.8809 38.9991 89.4927 38.9991ZM116.1 26.909H111.221V40.5448H113.256V35.3789H116.099C118.356 35.3789 120.576 33.746 120.576 31.1445C120.576 28.543 118.357 26.909 116.1 26.909ZM116.153 33.4809H113.256V28.807H116.153C117.675 28.807 118.539 30.0668 118.539 31.1445C118.539 32.2004 117.675 33.4809 116.153 33.4809ZM128.738 31.523C127.263 31.523 125.737 32.172 125.105 33.6107L126.912 34.3645C127.298 33.6107 128.019 33.3642 128.773 33.3642C129.826 33.3642 130.896 33.9958 130.914 35.1182V35.2589C130.545 35.0484 129.755 34.7331 128.79 34.7331C126.842 34.7331 124.858 35.8032 124.858 37.8026C124.858 39.6274 126.456 40.8022 128.246 40.8022C129.614 40.8022 130.369 40.1881 130.843 39.4682H130.913V40.5208H132.879V35.2927C132.88 32.8734 131.071 31.523 128.738 31.523ZM128.491 38.9959C127.825 38.9959 126.894 38.6621 126.894 37.8375C126.894 36.7849 128.053 36.3813 129.054 36.3813C129.948 36.3813 130.37 36.5744 130.914 36.8372C130.756 38.1014 129.668 38.9959 128.491 38.9959ZM140.041 31.8208L137.706 37.7328H137.636L135.214 31.8208H133.02L136.653 40.0834L134.582 44.6799H136.705L142.305 31.8208H140.041ZM121.7 40.5448H123.735V26.909H121.7V40.5448Z" fill="white"></path>
  <path d="M56.8465 18.8434C56.8465 19.7409 56.576 20.4553 56.0341 20.9886C55.4192 21.6227 54.6167 21.9397 53.631 21.9397C52.6868 21.9397 51.8832 21.6184 51.2235 20.9758C50.5628 20.3321 50.2324 19.5353 50.2324 18.5842C50.2324 17.6321 50.5628 16.8353 51.2235 16.1927C51.8832 15.549 52.6868 15.2277 53.631 15.2277C54.0999 15.2277 54.548 15.3176 54.9732 15.4965C55.3996 15.6764 55.7408 15.9153 55.996 16.2141L55.4214 16.7796C54.9885 16.2708 54.3921 16.017 53.6299 16.017C52.9408 16.017 52.3455 16.2548 51.8429 16.7303C51.3402 17.2058 51.0894 17.8238 51.0894 18.5831C51.0894 19.3425 51.3402 19.9605 51.8429 20.436C52.3455 20.9115 52.9408 21.1493 53.6299 21.1493C54.3605 21.1493 54.97 20.9104 55.4574 20.4317C55.7736 20.12 55.9567 19.6863 56.0058 19.1304H53.6299V18.3582H56.7996C56.8323 18.5264 56.8465 18.6881 56.8465 18.8434Z" fill="white"></path>
  <path d="M61.873 16.1595H58.8942V18.1966H61.5808V18.9688H58.8942V21.0058H61.873V21.7962H58.0536V15.3702H61.873V16.1595Z" fill="white"></path>
  <path d="M65.4176 21.7962H64.577V16.1595H62.7496V15.3702H67.2451V16.1595H65.4176V21.7962Z" fill="white"></path>
  <path d="M70.4975 21.7962V15.3702H71.3382V21.7962H70.4975Z" fill="white"></path>
  <path d="M75.0662 21.7962H74.2256V16.1595H72.3982V15.3702H76.8936V16.1595H75.0662V21.7962Z" fill="white"></path>
  <path d="M85.4035 20.9662C84.7602 21.6152 83.961 21.9397 83.0048 21.9397C82.0486 21.9397 81.2493 21.6152 80.6071 20.9662C79.9638 20.3172 79.6432 19.5225 79.6432 18.5832C79.6432 17.6439 79.9638 16.8492 80.6071 16.2002C81.2493 15.5512 82.0486 15.2256 83.0048 15.2256C83.9556 15.2256 84.7537 15.5522 85.3992 16.2045C86.0447 16.8567 86.3674 17.6493 86.3674 18.5832C86.3674 19.5225 86.0458 20.3172 85.4035 20.9662ZM81.2275 20.4275C81.7116 20.9094 82.3037 21.1493 83.0048 21.1493C83.7059 21.1493 84.299 20.9084 84.7821 20.4275C85.2662 19.9455 85.5093 19.3308 85.5093 18.5832C85.5093 17.8356 85.2662 17.2209 84.7821 16.7389C84.299 16.257 83.7059 16.0171 83.0048 16.0171C82.3037 16.0171 81.7116 16.258 81.2275 16.7389C80.7445 17.2209 80.5014 17.8356 80.5014 18.5832C80.5014 19.3308 80.7445 19.9455 81.2275 20.4275Z" fill="white"></path>
  <path d="M87.5472 21.7962V15.3702H88.5699L91.7494 20.3686H91.7854L91.7494 19.1305V15.3702H92.59V21.7962H91.7123L88.3857 16.5547H88.3497L88.3857 17.7928V21.7962H87.5472Z" fill="white"></path>
  <path d="M56.8465 18.8434C56.8465 19.7409 56.576 20.4553 56.0341 20.9886C55.4192 21.6227 54.6167 21.9397 53.631 21.9397C52.6868 21.9397 51.8832 21.6184 51.2235 20.9758C50.5628 20.3321 50.2324 19.5353 50.2324 18.5842C50.2324 17.6321 50.5628 16.8353 51.2235 16.1927C51.8832 15.549 52.6868 15.2277 53.631 15.2277C54.0999 15.2277 54.548 15.3176 54.9732 15.4965C55.3996 15.6764 55.7408 15.9153 55.996 16.2141L55.4214 16.7796C54.9885 16.2708 54.3921 16.017 53.6299 16.017C52.9408 16.017 52.3455 16.2548 51.8429 16.7303C51.3402 17.2058 51.0894 17.8238 51.0894 18.5831C51.0894 19.3425 51.3402 19.9605 51.8429 20.436C52.3455 20.9115 52.9408 21.1493 53.6299 21.1493C54.3605 21.1493 54.97 20.9104 55.4574 20.4317C55.7736 20.12 55.9567 19.6863 56.0058 19.1304H53.6299V18.3582H56.7996C56.8323 18.5264 56.8465 18.6881 56.8465 18.8434Z" stroke="white" stroke-miterlimit="10"></path>
  <path d="M61.873 16.1595H58.8942V18.1966H61.5808V18.9688H58.8942V21.0058H61.873V21.7962H58.0536V15.3702H61.873V16.1595Z" stroke="white" stroke-miterlimit="10"></path>
  <path d="M65.4176 21.7962H64.577V16.1595H62.7496V15.3702H67.2451V16.1595H65.4176V21.7962Z" stroke="white" stroke-miterlimit="10"></path>
  <path d="M70.4975 21.7962V15.3702H71.3382V21.7962H70.4975Z" stroke="white" stroke-miterlimit="10"></path>
  <path d="M75.0662 21.7962H74.2256V16.1595H72.3982V15.3702H76.8936V16.1595H75.0662V21.7962Z" stroke="white" stroke-miterlimit="10"></path>
  <path d="M85.4035 20.9662C84.7602 21.6152 83.961 21.9397 83.0048 21.9397C82.0486 21.9397 81.2493 21.6152 80.6071 20.9662C79.9638 20.3172 79.6432 19.5225 79.6432 18.5832C79.6432 17.6439 79.9638 16.8492 80.6071 16.2002C81.2493 15.5512 82.0486 15.2256 83.0048 15.2256C83.9556 15.2256 84.7537 15.5522 85.3992 16.2045C86.0447 16.8567 86.3674 17.6493 86.3674 18.5832C86.3674 19.5225 86.0458 20.3172 85.4035 20.9662ZM81.2275 20.4275C81.7116 20.9094 82.3037 21.1493 83.0048 21.1493C83.7059 21.1493 84.299 20.9084 84.7821 20.4275C85.2662 19.9455 85.5093 19.3308 85.5093 18.5832C85.5093 17.8356 85.2662 17.2209 84.7821 16.7389C84.299 16.257 83.7059 16.0171 83.0048 16.0171C82.3037 16.0171 81.7116 16.258 81.2275 16.7389C80.7445 17.2209 80.5014 17.8356 80.5014 18.5832C80.5014 19.3308 80.7445 19.9455 81.2275 20.4275Z" stroke="white" stroke-miterlimit="10"></path>
  <path d="M87.5472 21.7962V15.3702H88.5699L91.7494 20.3686H91.7854L91.7494 19.1305V15.3702H92.59V21.7962H91.7123L88.3857 16.5547H88.3497L88.3857 17.7928V21.7962H87.5472Z" stroke="white" stroke-miterlimit="10"></path>
</svg>
