<?xml version="1.0" encoding="UTF-8"?>
<svg xmlns="http://www.w3.org/2000/svg" width="15" height="25" viewBox="0 0 15 25" fill="none">
  <mask id="mask0_87_2050" style="mask-type:luminance" maskUnits="userSpaceOnUse" x="0" y="0" width="15" height="25">
    <path d="M14.9443 0H0V25H14.9443V0Z" fill="white"></path>
  </mask>
  <g mask="url(#mask0_87_2050)">
    <path d="M14.9444 7.4707V17.026C14.9444 17.1254 14.9423 17.2248 14.9381 17.3241C14.8101 20.3983 12.7235 23.0251 9.75598 24.2546C9.69306 24.2817 9.62807 24.3065 9.56305 24.3312C8.46204 24.7619 7.24569 24.9999 5.96433 24.9999H5.75672C4.97238 24.9999 4.20901 24.9109 3.4834 24.7412C6.88078 23.847 9.38269 20.7874 9.38269 17.1523C9.38269 16.7942 9.35753 16.4423 9.3093 16.0966C9.32396 15.9269 9.33027 15.7571 9.33027 15.5832V10.9567C9.33027 9.83264 9.86923 8.83073 10.7081 8.19523C11.3037 7.74188 12.0524 7.4707 12.864 7.4707H14.9444Z" fill="url(#paint0_linear_87_2050)"></path>
    <path d="M14.1284 0H10.2193C9.76843 0 9.40144 0.360189 9.40144 0.80732V4.02831C9.40144 4.02831 9.05331 5.14615 7.88518 6.29917C6.63739 7.53084 5.26164 7.66746 5.26164 7.66746L5.27004 7.67575H2.39065C1.93976 7.67575 1.57275 8.03593 1.57275 8.48307V12.5321C1.57275 12.9771 1.93766 13.3394 2.39065 13.3394H6.29974C6.75062 13.3394 7.11763 12.9792 7.11763 12.5321V9.40424C7.15538 9.07717 7.363 7.86413 8.40739 6.83323C9.24834 6.00314 10.2697 5.74232 10.7478 5.66365H14.1284C14.5793 5.66365 14.9463 5.30347 14.9463 4.85633V0.80732C14.9463 0.362259 14.5814 0 14.1284 0Z" fill="url(#paint1_linear_87_2050)"></path>
    <path d="M9.38272 17.1524C9.38272 20.7875 6.88081 23.8469 3.48341 24.7413C2.47887 24.5094 1.54355 24.1265 0.708878 23.6213C-0.119499 23.1225 -0.245328 21.984 0.453025 21.3173L2.03847 19.8084C2.55858 19.3136 3.36597 19.2556 3.94269 19.6799C4.45649 20.0588 5.04999 20.274 5.67913 20.274H5.76303C6.30199 20.274 6.8116 20.1168 7.26879 19.8352C8.37398 19.1562 9.17089 17.7569 9.3093 16.0967C9.35755 16.4424 9.38272 16.7943 9.38272 17.1524Z" fill="black"></path>
    <path d="M9.38272 17.1524C9.38272 20.7875 6.88081 23.8469 3.48341 24.7413C2.47887 24.5094 1.54355 24.1265 0.708878 23.6213C-0.119499 23.1225 -0.245328 21.984 0.453025 21.3173L2.03847 19.8084C2.55858 19.3136 3.36597 19.2556 3.94269 19.6799C4.45649 20.0588 5.04999 20.274 5.67913 20.274H5.76303C6.30199 20.274 6.8116 20.1168 7.26879 19.8352C8.37398 19.1562 9.17089 17.7569 9.3093 16.0967C9.35755 16.4424 9.38272 16.7943 9.38272 17.1524Z" fill="url(#paint2_linear_87_2050)"></path>
  </g>
  <defs>
    <linearGradient id="paint0_linear_87_2050" x1="13.4006" y1="11.0826" x2="5.48091" y2="22.7582" gradientUnits="userSpaceOnUse">
      <stop stop-color="#796FF0"></stop>
      <stop offset="1" stop-color="#5F53F5"></stop>
    </linearGradient>
    <linearGradient id="paint1_linear_87_2050" x1="3.24602" y1="11.8181" x2="10.3577" y2="1.53173" gradientUnits="userSpaceOnUse">
      <stop stop-color="#9C98FC"></stop>
      <stop offset="1" stop-color="#473DFF"></stop>
    </linearGradient>
    <linearGradient id="paint2_linear_87_2050" x1="6.39715" y1="23.675" x2="0.148239" y2="22.2347" gradientUnits="userSpaceOnUse">
      <stop stop-color="#3931A9"></stop>
      <stop offset="1" stop-color="#7A55C6"></stop>
    </linearGradient>
  </defs>
</svg>
