<?xml version="1.0" encoding="UTF-8"?>
<svg xmlns="http://www.w3.org/2000/svg" width="23" height="20" viewBox="0 0 23 20" fill="none">
  <path d="M6.7959 8.74523L1.51463 7.23006C0.617664 6.97257 0 6.15274 0 5.2196V2.09084C0 0.93585 0.936338 -0.000488281 2.09133 -0.000488281H4.70457C5.85956 -0.000488281 6.7959 0.93585 6.7959 2.09084V8.7447V8.74523Z" fill="#236D9B"></path>
  <path d="M4.70457 17.4908H2.09133C0.936338 17.4908 0 16.5545 0 15.3995V12.2707C0 11.3376 0.617664 10.5178 1.51463 10.2603L6.7959 8.74512V15.399C6.7959 16.554 5.85956 17.4903 4.70457 17.4903V17.4908Z" fill="#236D9B"></path>
  <path d="M18.1027 7.06142L6.7959 8.74523L12.4645 0.869349C12.8576 0.323506 13.4891 -0.000488281 14.1616 -0.000488281H17.7947C18.9497 -0.000488281 19.886 0.93585 19.886 2.09084V4.99243C19.886 6.02825 19.1274 6.9082 18.1027 7.06088V7.06142Z" fill="#236D9B"></path>
  <path d="M19.9669 19.3847H16.271C15.6337 19.3847 15.0315 19.0943 14.6346 18.5958L6.79541 8.74561L20.4777 12.1909C21.4071 12.425 22.0583 13.2608 22.0583 14.2189V17.2934C22.0583 18.4484 21.1219 19.3847 19.9669 19.3847Z" fill="#65B6D6"></path>
</svg>
