<?xml version="1.0" encoding="UTF-8"?>
<svg xmlns="http://www.w3.org/2000/svg" width="313" height="46" viewBox="0 0 313 46" fill="none">
  <path d="M75.3418 41.218C75.3418 42.2927 74.9491 43.202 74.1638 43.946C73.3785 44.6487 72.4691 45 71.4358 45C70.2785 45 69.3485 44.6487 68.6458 43.946C67.9431 43.202 67.5918 42.2927 67.5918 41.218V5.38198C67.5918 4.30731 67.9638 3.41865 68.7078 2.71598C69.4518 1.97198 70.4025 1.59998 71.5598 1.59998C72.5518 1.59998 73.4198 1.97198 74.1638 2.71598C74.9491 3.41865 75.3418 4.30731 75.3418 5.38198V41.218Z" fill="url(#paint0_linear_437_5124)"></path>
  <path d="M117.588 1.59998C118.58 1.59998 119.386 1.93065 120.006 2.59198C120.626 3.25331 120.936 4.07998 120.936 5.07198V41.218C120.936 42.2927 120.564 43.202 119.82 43.946C119.117 44.6487 118.229 45 117.154 45C116.617 45 116.059 44.9173 115.48 44.752C114.943 44.5453 114.529 44.2767 114.24 43.946L89.874 13.008L91.486 12.016V41.528C91.486 42.52 91.1553 43.3467 90.494 44.008C89.874 44.6693 89.0473 45 88.014 45C87.022 45 86.216 44.6693 85.596 44.008C84.976 43.3467 84.666 42.52 84.666 41.528V5.38198C84.666 4.30731 85.0173 3.41865 85.72 2.71598C86.464 1.97198 87.3733 1.59998 88.448 1.59998C89.0267 1.59998 89.626 1.72398 90.246 1.97198C90.866 2.17865 91.3207 2.50932 91.61 2.96398L115.232 33.096L114.178 33.84V5.07198C114.178 4.07998 114.488 3.25331 115.108 2.59198C115.728 1.93065 116.555 1.59998 117.588 1.59998Z" fill="url(#paint1_linear_437_5124)"></path>
  <path d="M161.94 1.47598C162.973 1.47598 163.862 1.82731 164.606 2.52998C165.391 3.19131 165.784 4.03865 165.784 5.07198C165.784 5.60931 165.66 6.16731 165.412 6.74598L150.098 42.582C149.726 43.4086 149.188 44.0286 148.486 44.442C147.824 44.814 147.142 45 146.44 45C145.778 44.9587 145.138 44.752 144.518 44.38C143.898 43.9666 143.422 43.388 143.092 42.644L127.778 6.68398C127.654 6.43598 127.571 6.18798 127.53 5.93998C127.488 5.65065 127.468 5.38198 127.468 5.13398C127.468 3.93531 127.902 3.02598 128.77 2.40598C129.638 1.74465 130.464 1.41398 131.25 1.41398C132.82 1.41398 133.957 2.21998 134.66 3.83198L148.238 35.762L146.068 35.824L158.53 3.83198C159.232 2.26131 160.369 1.47598 161.94 1.47598Z" fill="url(#paint2_linear_437_5124)"></path>
  <path d="M180.027 41.218C180.027 42.2927 179.635 43.202 178.849 43.946C178.064 44.6487 177.155 45 176.121 45C174.964 45 174.034 44.6487 173.331 43.946C172.629 43.202 172.277 42.2927 172.277 41.218V5.38198C172.277 4.30731 172.649 3.41865 173.393 2.71598C174.137 1.97198 175.088 1.59998 176.245 1.59998C177.237 1.59998 178.105 1.97198 178.849 2.71598C179.635 3.41865 180.027 4.30731 180.027 5.38198V41.218Z" fill="url(#paint3_linear_437_5124)"></path>
  <path d="M193.134 1.59998H213.904C214.978 1.59998 215.867 1.95131 216.57 2.65398C217.314 3.31531 217.686 4.18331 217.686 5.25798C217.686 6.29131 217.314 7.13865 216.57 7.79998C215.867 8.41998 214.978 8.72998 213.904 8.72998H196.544L197.102 7.67598V19.766L196.606 19.27H211.114C212.188 19.27 213.077 19.6213 213.78 20.324C214.524 20.9853 214.896 21.8533 214.896 22.928C214.896 23.9613 214.524 24.8086 213.78 25.47C213.077 26.09 212.188 26.4 211.114 26.4H196.792L197.102 25.904V38.428L196.606 37.87H213.904C214.978 37.87 215.867 38.242 216.57 38.986C217.314 39.6886 217.686 40.5153 217.686 41.466C217.686 42.4993 217.314 43.3467 216.57 44.008C215.867 44.6693 214.978 45 213.904 45H193.134C192.059 45 191.15 44.6487 190.406 43.946C189.703 43.202 189.352 42.2927 189.352 41.218V5.38198C189.352 4.30731 189.703 3.41865 190.406 2.71598C191.15 1.97198 192.059 1.59998 193.134 1.59998Z" fill="url(#paint4_linear_437_5124)"></path>
  <path d="M273.626 1.41398C274.577 1.41398 275.486 1.78598 276.354 2.52998C277.222 3.23265 277.656 4.20398 277.656 5.44398C277.656 5.81598 277.594 6.22932 277.47 6.68398L265.256 42.644C265.008 43.388 264.553 43.9666 263.892 44.38C263.272 44.752 262.611 44.9587 261.908 45C261.205 45 260.503 44.7933 259.8 44.38C259.139 43.9666 258.622 43.3673 258.25 42.582L249.074 21.75L249.632 22.122L240.58 42.582C240.208 43.3673 239.671 43.9666 238.968 44.38C238.307 44.7933 237.625 45 236.922 45C236.261 44.9587 235.599 44.752 234.938 44.38C234.277 43.9666 233.822 43.388 233.574 42.644L221.36 6.68398C221.236 6.22932 221.174 5.81598 221.174 5.44398C221.174 4.20398 221.608 3.23265 222.476 2.52998C223.385 1.78598 224.315 1.41398 225.266 1.41398C226.051 1.41398 226.775 1.62065 227.436 2.03398C228.139 2.44731 228.614 3.04665 228.862 3.83198L238.72 33.716L237.356 33.654L246.16 12.512C246.491 11.768 246.966 11.1893 247.586 10.776C248.206 10.3213 248.909 10.1146 249.694 10.156C250.479 10.1146 251.182 10.3213 251.802 10.776C252.422 11.1893 252.877 11.768 253.166 12.512L261.226 32.724L260.234 33.344L269.968 3.83198C270.216 3.04665 270.691 2.44731 271.394 2.03398C272.097 1.62065 272.841 1.41398 273.626 1.41398Z" fill="url(#paint5_linear_437_5124)"></path>
  <path d="M296.665 45.62C293.772 45.62 291.168 45.2686 288.853 44.566C286.538 43.822 284.327 42.5406 282.219 40.722C281.682 40.2673 281.268 39.7506 280.979 39.172C280.69 38.5933 280.545 38.0146 280.545 37.436C280.545 36.4853 280.876 35.6586 281.537 34.956C282.24 34.212 283.108 33.84 284.141 33.84C284.926 33.84 285.629 34.088 286.249 34.584C287.82 35.8653 289.37 36.8366 290.899 37.498C292.47 38.1593 294.392 38.49 296.665 38.49C298.194 38.49 299.6 38.2627 300.881 37.808C302.162 37.312 303.196 36.6713 303.981 35.886C304.766 35.0593 305.159 34.1293 305.159 33.096C305.159 31.856 304.787 30.802 304.043 29.934C303.299 29.066 302.162 28.3426 300.633 27.764C299.104 27.144 297.161 26.6686 294.805 26.338C292.573 26.0073 290.61 25.5113 288.915 24.85C287.22 24.1473 285.794 23.2793 284.637 22.246C283.521 21.1713 282.674 19.9313 282.095 18.526C281.516 17.0793 281.227 15.4673 281.227 13.69C281.227 11.0033 281.909 8.70931 283.273 6.80798C284.678 4.90665 286.559 3.45998 288.915 2.46798C291.271 1.47598 293.875 0.97998 296.727 0.97998C299.414 0.97998 301.894 1.39331 304.167 2.21998C306.482 3.00531 308.362 4.01798 309.809 5.25798C311.008 6.20865 311.607 7.30398 311.607 8.54398C311.607 9.45331 311.256 10.28 310.553 11.024C309.85 11.768 309.024 12.14 308.073 12.14C307.453 12.14 306.895 11.954 306.399 11.582C305.738 11.0033 304.849 10.466 303.733 9.96998C302.617 9.43265 301.439 8.99865 300.199 8.66798C298.959 8.29598 297.802 8.10998 296.727 8.10998C294.95 8.10998 293.441 8.33731 292.201 8.79198C291.002 9.24665 290.093 9.86665 289.473 10.652C288.853 11.4373 288.543 12.3466 288.543 13.38C288.543 14.62 288.894 15.6533 289.597 16.48C290.341 17.2653 291.395 17.906 292.759 18.402C294.123 18.8566 295.756 19.27 297.657 19.642C300.137 20.0966 302.307 20.634 304.167 21.254C306.068 21.874 307.639 22.68 308.879 23.672C310.119 24.6226 311.049 25.842 311.669 27.33C312.289 28.7766 312.599 30.554 312.599 32.662C312.599 35.3486 311.855 37.6633 310.367 39.606C308.879 41.5487 306.916 43.0367 304.477 44.07C302.08 45.1033 299.476 45.62 296.665 45.62Z" fill="url(#paint6_linear_437_5124)"></path>
  <path d="M15.6987 21.2088L3.49796 17.7071C1.42482 17.1138 0 15.2164 0 13.0627V5.83604C0 3.16587 2.16471 1.00482 4.83122 1.00482H10.8675C13.5377 1.00482 15.6987 3.16953 15.6987 5.83604V21.2088Z" fill="#369B71"></path>
  <path d="M10.8675 41.4119H4.83122C2.16104 41.4119 0 39.2472 0 36.5807V29.354C0 27.2003 1.42849 25.303 3.49796 24.7096L15.6987 21.208V36.5807C15.6987 39.2509 13.534 41.4119 10.8675 41.4119Z" fill="#369B71"></path>
  <path d="M41.8183 17.3177L15.6953 21.2075L28.7898 3.01081C29.6981 1.75081 31.1559 0.999939 32.7126 0.999939H41.1077C43.7779 0.999939 45.939 3.16465 45.939 5.83116V12.5341C45.939 14.9259 44.1881 16.9587 41.8183 17.314V17.3177Z" fill="#369B71"></path>
  <path d="M46.1221 45.789H37.5841C36.1117 45.789 34.7198 45.1187 33.8041 43.9649L15.6953 21.208L47.3052 29.1672C49.4516 29.7093 50.957 31.6396 50.957 33.852V40.9541C50.957 43.6243 48.7923 45.7853 46.1257 45.7853L46.1221 45.789Z" fill="#96CEB5"></path>
  <defs>
    <linearGradient id="paint0_linear_437_5124" x1="75" y1="23.5" x2="303" y2="26" gradientUnits="userSpaceOnUse">
      <stop stop-color="#369B71"></stop>
      <stop offset="1" stop-color="#96CEB5"></stop>
    </linearGradient>
    <linearGradient id="paint1_linear_437_5124" x1="75" y1="23.5" x2="303" y2="26" gradientUnits="userSpaceOnUse">
      <stop stop-color="#369B71"></stop>
      <stop offset="1" stop-color="#96CEB5"></stop>
    </linearGradient>
    <linearGradient id="paint2_linear_437_5124" x1="75" y1="23.5" x2="303" y2="26" gradientUnits="userSpaceOnUse">
      <stop stop-color="#369B71"></stop>
      <stop offset="1" stop-color="#96CEB5"></stop>
    </linearGradient>
    <linearGradient id="paint3_linear_437_5124" x1="75" y1="23.5" x2="303" y2="26" gradientUnits="userSpaceOnUse">
      <stop stop-color="#369B71"></stop>
      <stop offset="1" stop-color="#96CEB5"></stop>
    </linearGradient>
    <linearGradient id="paint4_linear_437_5124" x1="75" y1="23.5" x2="303" y2="26" gradientUnits="userSpaceOnUse">
      <stop stop-color="#369B71"></stop>
      <stop offset="1" stop-color="#96CEB5"></stop>
    </linearGradient>
    <linearGradient id="paint5_linear_437_5124" x1="75" y1="23.5" x2="303" y2="26" gradientUnits="userSpaceOnUse">
      <stop stop-color="#369B71"></stop>
      <stop offset="1" stop-color="#96CEB5"></stop>
    </linearGradient>
    <linearGradient id="paint6_linear_437_5124" x1="75" y1="23.5" x2="303" y2="26" gradientUnits="userSpaceOnUse">
      <stop stop-color="#369B71"></stop>
      <stop offset="1" stop-color="#96CEB5"></stop>
    </linearGradient>
  </defs>
</svg>
