<?xml version="1.0" encoding="UTF-8"?>
<svg xmlns="http://www.w3.org/2000/svg" width="46" height="46" viewBox="0 0 46 46" fill="none">
  <g filter="url(#filter0_d_251_5764)">
    <rect x="1" y="1" width="44" height="44" rx="12" fill="white" fill-opacity="0.07" shape-rendering="crispEdges"></rect>
    <path opacity="0.4" d="M22.5 9C17.2618 9 13 13.3366 13 18.6667C13 20.2668 13.3932 21.8533 14.1406 23.2605L21.9805 37.6885C22.0849 37.8808 22.2837 38 22.5 38C22.7163 38 22.9151 37.8808 23.0195 37.6885L30.8623 23.2557C31.6068 21.8533 32 20.2667 32 18.6666C32 13.3366 27.7382 9 22.5 9ZM22.5 23.5C19.8809 23.5 17.75 21.3317 17.75 18.6667C17.75 16.0016 19.8809 13.8334 22.5 13.8334C25.1191 13.8334 27.25 16.0016 27.25 18.6667C27.25 21.3317 25.1191 23.5 22.5 23.5Z" fill="#F9A876"></path>
  </g>
  <defs>
    <filter id="filter0_d_251_5764" x="0" y="0" width="46" height="46" filterUnits="userSpaceOnUse" color-interpolation-filters="sRGB">
      <feFlood flood-opacity="0" result="BackgroundImageFix"></feFlood>
      <feColorMatrix in="SourceAlpha" type="matrix" values="0 0 0 0 0 0 0 0 0 0 0 0 0 0 0 0 0 0 127 0" result="hardAlpha"></feColorMatrix>
      <feMorphology radius="1" operator="dilate" in="SourceAlpha" result="effect1_dropShadow_251_5764"></feMorphology>
      <feOffset></feOffset>
      <feComposite in2="hardAlpha" operator="out"></feComposite>
      <feColorMatrix type="matrix" values="0 0 0 0 0.176471 0 0 0 0 0.180392 0 0 0 0 0.282353 0 0 0 1 0"></feColorMatrix>
      <feBlend mode="normal" in2="BackgroundImageFix" result="effect1_dropShadow_251_5764"></feBlend>
      <feBlend mode="normal" in="SourceGraphic" in2="effect1_dropShadow_251_5764" result="shape"></feBlend>
    </filter>
  </defs>
</svg>
