<?xml version="1.0" encoding="UTF-8"?>
<svg xmlns="http://www.w3.org/2000/svg" width="248" height="186" viewBox="0 0 248 186" fill="none">
  <g filter="url(#filter0_d_676_5936)">
    <rect width="40" height="40" rx="12" transform="matrix(-1 0 0 1 247 145)" fill="white" fill-opacity="0.07" shape-rendering="crispEdges"></rect>
    <path opacity="0.4" d="M227.049 156.063C229.169 156.062 230.823 156.062 232.112 156.218C233.424 156.377 234.463 156.707 235.285 157.447C236.117 158.196 236.498 159.159 236.679 160.372C236.855 161.546 236.855 163.161 236.855 165.057C236.855 166.953 236.855 168.454 236.679 169.628C236.498 170.841 236.117 171.804 235.285 172.553C234.463 173.293 233.424 173.623 232.112 173.781C230.823 173.938 229.169 173.938 227.049 173.938C224.928 173.938 223.178 173.938 221.889 173.781C220.577 173.623 219.538 173.293 218.716 172.553C217.884 171.804 217.503 170.841 217.322 169.628C217.146 168.454 217.146 166.953 217.146 165.057C217.146 163.161 217.146 161.546 217.322 160.372C217.503 159.159 217.884 158.196 218.716 157.447C219.538 156.707 220.577 156.377 221.889 156.218C223.178 156.062 224.928 156.062 227.049 156.063Z" fill="#F9A876"></path>
    <path d="M230.262 160.646C229.949 160.645 229.65 160.645 229.404 160.679C229.128 160.716 228.818 160.805 228.562 161.062C228.306 161.318 228.216 161.627 228.179 161.903C228.146 162.15 228.146 162.449 228.146 162.761V163.571C228.146 163.884 228.146 164.183 228.179 164.429C228.216 164.705 228.306 165.015 228.562 165.271C228.818 165.527 229.128 165.617 229.404 165.654C229.65 165.687 229.949 165.687 230.262 165.687H231.072C231.384 165.687 231.683 165.687 231.93 165.654C232.206 165.617 232.515 165.527 232.771 165.271C233.028 165.015 233.117 164.705 233.155 164.429C233.188 164.183 233.188 163.884 233.187 163.571V162.761C233.188 162.449 233.188 162.15 233.155 161.903C233.117 161.627 233.028 161.318 232.771 161.062C232.515 160.805 232.206 160.716 231.93 160.679C231.683 160.645 231.384 160.645 231.072 160.646H230.262Z" fill="#F9A876"></path>
    <path fill-rule="evenodd" clip-rule="evenodd" d="M233.188 168.667C233.188 168.287 232.88 167.979 232.5 167.979H228.833C228.454 167.979 228.146 168.287 228.146 168.667C228.146 169.047 228.454 169.354 228.833 169.354H232.5C232.88 169.354 233.188 169.047 233.188 168.667Z" fill="#F9A876"></path>
    <path fill-rule="evenodd" clip-rule="evenodd" d="M225.854 161.333C225.854 160.953 225.547 160.646 225.167 160.646H221.5C221.121 160.646 220.813 160.953 220.813 161.333C220.813 161.713 221.121 162.021 221.5 162.021H225.167C225.547 162.021 225.854 161.713 225.854 161.333Z" fill="#F9A876"></path>
    <path fill-rule="evenodd" clip-rule="evenodd" d="M225.854 165C225.854 164.62 225.547 164.312 225.167 164.312H221.5C221.121 164.312 220.813 164.62 220.813 165C220.813 165.38 221.121 165.688 221.5 165.688H225.167C225.547 165.688 225.854 165.38 225.854 165Z" fill="#F9A876"></path>
    <path fill-rule="evenodd" clip-rule="evenodd" d="M225.854 168.667C225.854 168.287 225.547 167.979 225.167 167.979H221.5C221.121 167.979 220.813 168.287 220.813 168.667C220.813 169.047 221.121 169.354 221.5 169.354H225.167C225.547 169.354 225.854 169.047 225.854 168.667Z" fill="#F9A876"></path>
  </g>
  <path d="M49.4886 170.07C48.938 170.07 48.4526 169.995 48.0326 169.846C47.622 169.687 47.2953 169.431 47.0526 169.076C46.8193 168.712 46.684 168.213 46.6466 167.578L46.4226 162.482H47.7946L48.0326 167.2C48.0513 167.62 48.1213 167.937 48.2426 168.152C48.3733 168.367 48.5506 168.511 48.7746 168.586C49.008 168.651 49.2926 168.684 49.6286 168.684C49.8713 168.684 50.044 168.749 50.1466 168.88C50.2586 169.011 50.3146 169.165 50.3146 169.342C50.3146 169.538 50.24 169.711 50.0906 169.86C49.9413 170 49.7406 170.07 49.4886 170.07ZM47.2346 168.6C46.6746 168.759 46.1333 168.838 45.6106 168.838C45.088 168.829 44.612 168.745 44.1826 168.586C43.7626 168.427 43.4266 168.194 43.1746 167.886C42.9226 167.578 42.7966 167.2 42.7966 166.752C42.7966 166.323 42.8993 165.926 43.1046 165.562C43.31 165.198 43.5946 164.876 43.9586 164.596C44.3226 164.316 44.7473 164.083 45.2326 163.896C45.718 163.7 46.236 163.565 46.7866 163.49L46.9826 164.904C46.5346 164.923 46.1333 164.983 45.7786 165.086C45.4333 165.189 45.1393 165.319 44.8966 165.478C44.6633 165.637 44.4813 165.809 44.3506 165.996C44.22 166.183 44.1546 166.374 44.1546 166.57C44.1546 166.757 44.2246 166.911 44.3646 167.032C44.5046 167.153 44.682 167.251 44.8966 167.326C45.1206 167.391 45.3633 167.429 45.6246 167.438C45.8953 167.447 46.1613 167.438 46.4226 167.41C46.684 167.373 46.9173 167.321 47.1226 167.256L47.2346 168.6ZM47.0386 160.914C46.824 160.914 46.6373 160.839 46.4786 160.69C46.3293 160.541 46.2546 160.359 46.2546 160.144C46.2546 159.939 46.3293 159.757 46.4786 159.598C46.6373 159.439 46.824 159.36 47.0386 159.36C47.244 159.36 47.4213 159.439 47.5706 159.598C47.7293 159.757 47.8086 159.939 47.8086 160.144C47.8086 160.359 47.7293 160.541 47.5706 160.69C47.4213 160.839 47.244 160.914 47.0386 160.914ZM44.9806 160.914C44.7566 160.914 44.57 160.839 44.4206 160.69C44.2713 160.531 44.1966 160.349 44.1966 160.144C44.1966 159.929 44.2713 159.747 44.4206 159.598C44.57 159.439 44.752 159.36 44.9666 159.36C45.1813 159.36 45.3633 159.439 45.5126 159.598C45.662 159.747 45.7366 159.929 45.7366 160.144C45.7366 160.349 45.662 160.531 45.5126 160.69C45.3633 160.839 45.186 160.914 44.9806 160.914ZM49.4863 170.07L49.6263 168.684C50.0557 168.684 50.3963 168.651 50.6483 168.586C50.9097 168.511 51.1103 168.376 51.2503 168.18C51.3997 167.975 51.521 167.681 51.6143 167.298C51.7077 166.915 51.8103 166.407 51.9223 165.772L53.2383 166.01C53.201 166.178 53.159 166.36 53.1123 166.556C53.075 166.752 53.0423 166.953 53.0143 167.158C52.9863 167.354 52.9723 167.527 52.9723 167.676C52.9723 167.825 52.9863 167.965 53.0143 168.096C53.0517 168.217 53.131 168.32 53.2523 168.404C53.383 168.488 53.5837 168.558 53.8543 168.614C54.1343 168.661 54.517 168.684 55.0023 168.684C55.245 168.684 55.4177 168.749 55.5203 168.88C55.623 169.011 55.6743 169.165 55.6743 169.342C55.6743 169.538 55.5997 169.711 55.4503 169.86C55.3103 170 55.1143 170.07 54.8623 170.07C54.3303 170.07 53.8963 170.042 53.5603 169.986C53.2243 169.921 52.9583 169.823 52.7623 169.692C52.5663 169.561 52.4217 169.393 52.3283 169.188C52.235 168.983 52.1697 168.74 52.1323 168.46L52.6223 168.474C52.473 168.819 52.2957 169.099 52.0903 169.314C51.8943 169.519 51.6703 169.678 51.4183 169.79C51.1757 169.902 50.891 169.977 50.5643 170.014C50.247 170.051 49.8877 170.07 49.4863 170.07ZM53.1263 172.898C52.9117 172.898 52.725 172.819 52.5663 172.66C52.417 172.511 52.3423 172.333 52.3423 172.128C52.3423 171.913 52.417 171.727 52.5663 171.568C52.725 171.419 52.9117 171.344 53.1263 171.344C53.3317 171.344 53.509 171.419 53.6583 171.568C53.817 171.727 53.8963 171.913 53.8963 172.128C53.8963 172.333 53.817 172.511 53.6583 172.66C53.509 172.819 53.3317 172.898 53.1263 172.898ZM51.0543 172.898C50.8397 172.898 50.653 172.819 50.4943 172.66C50.345 172.511 50.2703 172.333 50.2703 172.128C50.2703 171.913 50.345 171.727 50.4943 171.568C50.653 171.419 50.8397 171.344 51.0543 171.344C51.269 171.344 51.451 171.419 51.6003 171.568C51.7497 171.727 51.8243 171.913 51.8243 172.128C51.8243 172.333 51.7497 172.511 51.6003 172.66C51.451 172.819 51.269 172.898 51.0543 172.898ZM54.8594 170.07L54.9994 168.684C55.382 168.684 55.6807 168.651 55.8954 168.586C56.1194 168.511 56.292 168.376 56.4134 168.18C56.5347 167.975 56.6374 167.681 56.7214 167.298C56.8054 166.915 56.9034 166.407 57.0154 165.772L58.3314 166.01C58.294 166.178 58.252 166.36 58.2054 166.556C58.168 166.752 58.1354 166.953 58.1074 167.158C58.0794 167.354 58.0654 167.527 58.0654 167.676C58.0654 167.881 58.1074 168.059 58.1914 168.208C58.2847 168.357 58.4667 168.474 58.7374 168.558C59.008 168.642 59.4187 168.684 59.9694 168.684C60.212 168.684 60.3847 168.749 60.4874 168.88C60.5994 169.011 60.6554 169.165 60.6554 169.342C60.6554 169.538 60.5807 169.711 60.4314 169.86C60.282 170 60.0814 170.07 59.8294 170.07C59.2134 170.07 58.7234 170.014 58.3594 169.902C57.9954 169.79 57.7294 169.617 57.5614 169.384C57.3934 169.141 57.2814 168.833 57.2254 168.46L57.7154 168.474C57.566 168.819 57.3934 169.099 57.1974 169.314C57.0107 169.519 56.8054 169.678 56.5814 169.79C56.3574 169.902 56.1007 169.977 55.8114 170.014C55.5314 170.051 55.214 170.07 54.8594 170.07ZM57.2674 172.856C57.0434 172.856 56.8567 172.781 56.7074 172.632C56.558 172.483 56.4834 172.301 56.4834 172.086C56.4834 171.881 56.558 171.699 56.7074 171.54C56.8567 171.381 57.0434 171.302 57.2674 171.302C57.4727 171.302 57.65 171.381 57.7994 171.54C57.958 171.699 58.0374 171.881 58.0374 172.086C58.0374 172.301 57.958 172.483 57.7994 172.632C57.65 172.781 57.4727 172.856 57.2674 172.856ZM59.8359 170.07L59.9759 168.684C60.5266 168.684 60.9559 168.661 61.2639 168.614C61.5719 168.567 61.7866 168.46 61.9079 168.292C62.0386 168.124 62.1039 167.867 62.1039 167.522C62.1039 167.279 62.0666 166.99 61.9919 166.654C61.9173 166.318 61.8193 165.968 61.6979 165.604C61.5859 165.231 61.4646 164.867 61.3339 164.512L62.6919 164.064C62.8133 164.372 62.9299 164.722 63.0419 165.114C63.1539 165.506 63.2473 165.898 63.3219 166.29C63.3966 166.682 63.4339 167.041 63.4339 167.368C63.4339 167.881 63.3593 168.311 63.2099 168.656C63.0606 169.001 62.8319 169.281 62.5239 169.496C62.2253 169.701 61.8519 169.851 61.4039 169.944C60.9559 170.028 60.4333 170.07 59.8359 170.07ZM62.6779 172.898C62.4633 172.898 62.2766 172.819 62.1179 172.66C61.9686 172.511 61.8939 172.333 61.8939 172.128C61.8939 171.913 61.9686 171.727 62.1179 171.568C62.2766 171.419 62.4633 171.344 62.6779 171.344C62.8926 171.344 63.0746 171.419 63.2239 171.568C63.3733 171.727 63.4479 171.913 63.4479 172.128C63.4479 172.333 63.3733 172.511 63.2239 172.66C63.0746 172.819 62.8926 172.898 62.6779 172.898ZM60.6199 172.898C60.3959 172.898 60.2093 172.819 60.0599 172.66C59.9106 172.511 59.8359 172.333 59.8359 172.128C59.8359 171.913 59.9106 171.727 60.0599 171.568C60.2093 171.419 60.3959 171.344 60.6199 171.344C60.8253 171.344 61.0026 171.419 61.1519 171.568C61.3013 171.727 61.3759 171.913 61.3759 172.128C61.3759 172.333 61.3013 172.511 61.1519 172.66C61.0026 172.819 60.8253 172.898 60.6199 172.898ZM64.3913 173.22L63.8873 171.946C64.7926 171.647 65.4973 171.302 66.0013 170.91C66.5053 170.518 66.86 170.107 67.0653 169.678C67.2706 169.249 67.3733 168.829 67.3733 168.418C67.3733 168.157 67.3406 167.9 67.2753 167.648C67.2193 167.396 67.1213 167.116 66.9813 166.808C66.8413 166.491 66.6546 166.122 66.4213 165.702L67.6813 165.072C68.0266 165.688 68.2786 166.271 68.4373 166.822C68.6053 167.363 68.6893 167.853 68.6893 168.292C68.6893 168.843 68.6053 169.347 68.4373 169.804C68.2693 170.261 68.0406 170.672 67.7513 171.036C67.462 171.409 67.1306 171.736 66.7573 172.016C66.384 172.296 65.992 172.534 65.5813 172.73C65.18 172.935 64.7833 173.099 64.3913 173.22ZM72.608 168.684C73.056 168.684 73.4107 168.642 73.672 168.558C73.9333 168.465 74.12 168.339 74.232 168.18C74.3533 168.012 74.414 167.821 74.414 167.606C74.414 167.41 74.358 167.177 74.246 166.906C74.1433 166.635 74.0033 166.337 73.826 166.01C73.658 165.683 73.4667 165.352 73.252 165.016C73.0373 164.671 72.818 164.335 72.594 164.008L73.756 163.238C74.1387 163.789 74.4653 164.316 74.736 164.82C75.016 165.315 75.2493 165.777 75.436 166.206C75.6227 166.635 75.7627 167.032 75.856 167.396C75.9773 167.769 76.1173 168.049 76.276 168.236C76.4347 168.423 76.6073 168.544 76.794 168.6C76.9807 168.656 77.158 168.684 77.326 168.684C77.5687 168.684 77.7413 168.749 77.844 168.88C77.956 169.011 78.012 169.165 78.012 169.342C78.012 169.538 77.9373 169.711 77.788 169.86C77.648 170 77.4473 170.07 77.186 170.07C76.85 170.07 76.5327 170.014 76.234 169.902C75.9353 169.781 75.6787 169.594 75.464 169.342C75.2493 169.081 75.0907 168.735 74.988 168.306L75.632 168.04C75.6133 168.385 75.506 168.717 75.31 169.034C75.1233 169.342 74.82 169.594 74.4 169.79C73.98 169.986 73.4107 170.084 72.692 170.084C72.3747 170.084 72.0527 170.056 71.726 170C71.4087 169.953 71.1053 169.879 70.816 169.776C70.536 169.664 70.2887 169.533 70.074 169.384L70.676 168.18C70.9093 168.311 71.1893 168.427 71.516 168.53C71.852 168.633 72.216 168.684 72.608 168.684ZM77.1992 170.07L77.3392 168.684C77.7686 168.684 78.1092 168.651 78.3612 168.586C78.6226 168.511 78.8232 168.376 78.9632 168.18C79.1126 167.975 79.2339 167.681 79.3272 167.298C79.4206 166.915 79.5232 166.407 79.6352 165.772L80.9512 166.01C80.9139 166.178 80.8719 166.36 80.8252 166.556C80.7879 166.752 80.7552 166.953 80.7272 167.158C80.6992 167.354 80.6852 167.527 80.6852 167.676C80.6852 167.825 80.6992 167.965 80.7272 168.096C80.7646 168.217 80.8439 168.32 80.9652 168.404C81.0959 168.488 81.2966 168.558 81.5672 168.614C81.8472 168.661 82.2299 168.684 82.7152 168.684C82.9579 168.684 83.1306 168.749 83.2332 168.88C83.3359 169.011 83.3872 169.165 83.3872 169.342C83.3872 169.538 83.3126 169.711 83.1632 169.86C83.0232 170 82.8272 170.07 82.5752 170.07C82.0432 170.07 81.6092 170.042 81.2732 169.986C80.9372 169.921 80.6712 169.823 80.4752 169.692C80.2792 169.561 80.1346 169.393 80.0412 169.188C79.9479 168.983 79.8826 168.74 79.8452 168.46L80.3352 168.474C80.1859 168.819 80.0086 169.099 79.8032 169.314C79.6072 169.519 79.3832 169.678 79.1312 169.79C78.8886 169.902 78.6039 169.977 78.2772 170.014C77.9599 170.051 77.6006 170.07 77.1992 170.07ZM81.1612 164.386C80.9466 164.386 80.7599 164.311 80.6012 164.162C80.4519 164.013 80.3772 163.831 80.3772 163.616C80.3772 163.411 80.4519 163.229 80.6012 163.07C80.7599 162.911 80.9466 162.832 81.1612 162.832C81.3666 162.832 81.5439 162.911 81.6932 163.07C81.8519 163.229 81.9312 163.411 81.9312 163.616C81.9312 163.831 81.8519 164.013 81.6932 164.162C81.5439 164.311 81.3666 164.386 81.1612 164.386ZM79.0892 164.386C78.8746 164.386 78.6879 164.311 78.5292 164.162C78.3799 164.003 78.3052 163.821 78.3052 163.616C78.3052 163.401 78.3799 163.219 78.5292 163.07C78.6879 162.911 78.8746 162.832 79.0892 162.832C79.3039 162.832 79.4859 162.911 79.6352 163.07C79.7846 163.219 79.8592 163.401 79.8592 163.616C79.8592 163.821 79.7846 164.003 79.6352 164.162C79.4859 164.311 79.3039 164.386 79.0892 164.386ZM82.5723 170.07L82.6983 168.684C83.2023 168.684 83.5569 168.637 83.7623 168.544C83.9676 168.441 84.0889 168.264 84.1263 168.012C84.1636 167.751 84.1729 167.382 84.1543 166.906L83.8883 159.934H85.2743L85.5543 166.864C85.5729 167.368 85.5543 167.821 85.4983 168.222C85.4423 168.623 85.3116 168.964 85.1063 169.244C84.9103 169.515 84.6069 169.72 84.1963 169.86C83.7949 170 83.2536 170.07 82.5723 170.07ZM87.605 170L87.325 159.934H88.711L88.991 170H87.605ZM99.3012 170.294L99.6652 168.908C100.701 168.908 101.597 168.88 102.353 168.824C103.109 168.768 103.73 168.679 104.215 168.558C104.71 168.437 105.074 168.273 105.307 168.068C105.55 167.863 105.671 167.611 105.671 167.312C105.671 166.967 105.606 166.561 105.475 166.094C105.354 165.618 105.195 165.123 104.999 164.61L106.301 164.19C106.423 164.489 106.535 164.815 106.637 165.17C106.749 165.525 106.843 165.875 106.917 166.22C106.992 166.565 107.029 166.883 107.029 167.172C107.029 167.732 106.903 168.213 106.651 168.614C106.399 169.006 105.979 169.328 105.391 169.58C104.803 169.823 104.015 170 103.025 170.112C102.036 170.233 100.795 170.294 99.3012 170.294ZM99.3012 170.294C98.4145 170.294 97.6445 170.233 96.9912 170.112C96.3472 169.991 95.8105 169.809 95.3812 169.566C94.9612 169.323 94.6485 169.02 94.4432 168.656C94.2378 168.292 94.1352 167.863 94.1352 167.368C94.1352 167.107 94.1538 166.845 94.1912 166.584C94.2285 166.323 94.2798 166.061 94.3452 165.8C94.4198 165.539 94.4898 165.291 94.5552 165.058L95.8012 165.352C95.7638 165.501 95.7218 165.674 95.6752 165.87C95.6285 166.066 95.5912 166.262 95.5632 166.458C95.5352 166.645 95.5212 166.813 95.5212 166.962C95.5212 167.41 95.6425 167.779 95.8852 168.068C96.1372 168.348 96.5618 168.558 97.1592 168.698C97.7658 168.838 98.6012 168.908 99.6652 168.908L99.9452 169.846L99.3012 170.294ZM101.625 164.246C101.411 164.246 101.224 164.171 101.065 164.022C100.916 163.873 100.841 163.691 100.841 163.476C100.841 163.271 100.916 163.089 101.065 162.93C101.224 162.771 101.411 162.692 101.625 162.692C101.831 162.692 102.008 162.771 102.157 162.93C102.316 163.089 102.395 163.271 102.395 163.476C102.395 163.691 102.316 163.873 102.157 164.022C102.008 164.171 101.831 164.246 101.625 164.246ZM99.5672 164.246C99.3432 164.246 99.1565 164.171 99.0072 164.022C98.8578 163.863 98.7832 163.681 98.7832 163.476C98.7832 163.261 98.8578 163.079 99.0072 162.93C99.1565 162.771 99.3385 162.692 99.5532 162.692C99.7678 162.692 99.9498 162.771 100.099 162.93C100.249 163.079 100.323 163.261 100.323 163.476C100.323 163.681 100.249 163.863 100.099 164.022C99.9498 164.171 99.7725 164.246 99.5672 164.246ZM111.915 170.07C111.131 170.07 110.529 169.986 110.109 169.818C109.689 169.641 109.399 169.375 109.241 169.02C109.082 168.656 108.989 168.189 108.961 167.62L108.681 159.934H110.067L110.361 167.032C110.379 167.48 110.421 167.825 110.487 168.068C110.561 168.301 110.715 168.465 110.949 168.558C111.191 168.642 111.56 168.684 112.055 168.684C112.297 168.684 112.47 168.749 112.573 168.88C112.685 169.011 112.741 169.165 112.741 169.342C112.741 169.538 112.666 169.711 112.517 169.86C112.367 170 112.167 170.07 111.915 170.07ZM111.912 170.07L112.038 168.684C112.533 168.684 113.018 168.651 113.494 168.586C113.97 168.511 114.432 168.409 114.88 168.278C115.337 168.147 115.771 167.984 116.182 167.788C116.602 167.592 116.999 167.368 117.372 167.116C117.12 166.911 116.835 166.733 116.518 166.584C116.201 166.435 115.851 166.323 115.468 166.248C115.095 166.164 114.703 166.122 114.292 166.122C114.143 166.122 113.993 166.127 113.844 166.136C113.704 166.145 113.564 166.164 113.424 166.192C113.284 166.211 113.13 166.239 112.962 166.276L112.724 164.96C112.985 164.885 113.247 164.829 113.508 164.792C113.779 164.755 114.031 164.736 114.264 164.736C114.749 164.736 115.193 164.797 115.594 164.918C115.995 165.03 116.364 165.17 116.7 165.338C117.036 165.506 117.349 165.674 117.638 165.842C117.937 166.01 118.221 166.15 118.492 166.262C118.763 166.374 119.043 166.43 119.332 166.43H119.696L119.822 167.69C119.421 167.699 119.047 167.765 118.702 167.886C118.366 167.998 118.035 168.147 117.708 168.334C117.381 168.511 117.036 168.703 116.672 168.908C116.308 169.104 115.902 169.291 115.454 169.468C115.015 169.636 114.507 169.781 113.928 169.902C113.349 170.014 112.677 170.07 111.912 170.07ZM115.902 172.8C115.678 172.8 115.491 172.725 115.342 172.576C115.193 172.427 115.118 172.245 115.118 172.03C115.118 171.825 115.193 171.643 115.342 171.484C115.491 171.325 115.678 171.246 115.902 171.246C116.107 171.246 116.285 171.325 116.434 171.484C116.593 171.643 116.672 171.825 116.672 172.03C116.672 172.245 116.593 172.427 116.434 172.576C116.285 172.725 116.107 172.8 115.902 172.8ZM124.506 170.07C123.722 170.07 123.12 169.986 122.7 169.818C122.28 169.641 121.991 169.375 121.832 169.02C121.674 168.656 121.58 168.189 121.552 167.62L121.272 159.934H122.658L122.952 167.032C122.971 167.48 123.013 167.825 123.078 168.068C123.153 168.301 123.307 168.465 123.54 168.558C123.783 168.642 124.152 168.684 124.646 168.684C124.889 168.684 125.062 168.749 125.164 168.88C125.276 169.011 125.332 169.165 125.332 169.342C125.332 169.538 125.258 169.711 125.108 169.86C124.959 170 124.758 170.07 124.506 170.07ZM124.504 170.07L124.644 168.684C125.073 168.684 125.414 168.651 125.666 168.586C125.927 168.511 126.128 168.376 126.268 168.18C126.417 167.975 126.539 167.681 126.632 167.298C126.725 166.915 126.828 166.407 126.94 165.772L128.256 166.01C128.219 166.178 128.177 166.36 128.13 166.556C128.093 166.752 128.06 166.953 128.032 167.158C128.004 167.354 127.99 167.527 127.99 167.676C127.99 167.825 128.004 167.965 128.032 168.096C128.069 168.217 128.149 168.32 128.27 168.404C128.401 168.488 128.601 168.558 128.872 168.614C129.152 168.661 129.535 168.684 130.02 168.684C130.263 168.684 130.435 168.749 130.538 168.88C130.641 169.011 130.692 169.165 130.692 169.342C130.692 169.538 130.617 169.711 130.468 169.86C130.328 170 130.132 170.07 129.88 170.07C129.348 170.07 128.914 170.042 128.578 169.986C128.242 169.921 127.976 169.823 127.78 169.692C127.584 169.561 127.439 169.393 127.346 169.188C127.253 168.983 127.187 168.74 127.15 168.46L127.64 168.474C127.491 168.819 127.313 169.099 127.108 169.314C126.912 169.519 126.688 169.678 126.436 169.79C126.193 169.902 125.909 169.977 125.582 170.014C125.265 170.051 124.905 170.07 124.504 170.07ZM128.144 172.898C127.929 172.898 127.743 172.819 127.584 172.66C127.435 172.511 127.36 172.333 127.36 172.128C127.36 171.913 127.435 171.727 127.584 171.568C127.743 171.419 127.929 171.344 128.144 171.344C128.349 171.344 128.527 171.419 128.676 171.568C128.835 171.727 128.914 171.913 128.914 172.128C128.914 172.333 128.835 172.511 128.676 172.66C128.527 172.819 128.349 172.898 128.144 172.898ZM126.072 172.898C125.857 172.898 125.671 172.819 125.512 172.66C125.363 172.511 125.288 172.333 125.288 172.128C125.288 171.913 125.363 171.727 125.512 171.568C125.671 171.419 125.857 171.344 126.072 171.344C126.287 171.344 126.469 171.419 126.618 171.568C126.767 171.727 126.842 171.913 126.842 172.128C126.842 172.333 126.767 172.511 126.618 172.66C126.469 172.819 126.287 172.898 126.072 172.898ZM129.877 170.07L130.017 168.684C130.446 168.684 130.787 168.651 131.039 168.586C131.3 168.511 131.501 168.376 131.641 168.18C131.79 167.975 131.912 167.681 132.005 167.298C132.098 166.915 132.201 166.407 132.313 165.772L133.629 166.01C133.592 166.178 133.55 166.36 133.503 166.556C133.466 166.752 133.433 166.953 133.405 167.158C133.377 167.354 133.363 167.527 133.363 167.676C133.363 167.825 133.377 167.965 133.405 168.096C133.442 168.217 133.522 168.32 133.643 168.404C133.774 168.488 133.974 168.558 134.245 168.614C134.525 168.661 134.908 168.684 135.393 168.684C135.636 168.684 135.808 168.749 135.911 168.88C136.014 169.011 136.065 169.165 136.065 169.342C136.065 169.538 135.99 169.711 135.841 169.86C135.701 170 135.505 170.07 135.253 170.07C134.721 170.07 134.287 170.042 133.951 169.986C133.615 169.921 133.349 169.823 133.153 169.692C132.957 169.561 132.812 169.393 132.719 169.188C132.626 168.983 132.56 168.74 132.523 168.46L133.013 168.474C132.864 168.819 132.686 169.099 132.481 169.314C132.285 169.519 132.061 169.678 131.809 169.79C131.566 169.902 131.282 169.977 130.955 170.014C130.638 170.051 130.278 170.07 129.877 170.07ZM133.839 164.386C133.624 164.386 133.438 164.311 133.279 164.162C133.13 164.013 133.055 163.831 133.055 163.616C133.055 163.411 133.13 163.229 133.279 163.07C133.438 162.911 133.624 162.832 133.839 162.832C134.044 162.832 134.222 162.911 134.371 163.07C134.53 163.229 134.609 163.411 134.609 163.616C134.609 163.831 134.53 164.013 134.371 164.162C134.222 164.311 134.044 164.386 133.839 164.386ZM131.767 164.386C131.552 164.386 131.366 164.311 131.207 164.162C131.058 164.003 130.983 163.821 130.983 163.616C130.983 163.401 131.058 163.219 131.207 163.07C131.366 162.911 131.552 162.832 131.767 162.832C131.982 162.832 132.164 162.911 132.313 163.07C132.462 163.219 132.537 163.401 132.537 163.616C132.537 163.821 132.462 164.003 132.313 164.162C132.164 164.311 131.982 164.386 131.767 164.386ZM135.25 170.07L135.376 168.684C135.871 168.684 136.356 168.651 136.832 168.586C137.308 168.511 137.77 168.409 138.218 168.278C138.675 168.147 139.109 167.984 139.52 167.788C139.94 167.592 140.337 167.368 140.71 167.116C140.458 166.911 140.173 166.733 139.856 166.584C139.539 166.435 139.189 166.323 138.806 166.248C138.433 166.164 138.041 166.122 137.63 166.122C137.481 166.122 137.331 166.127 137.182 166.136C137.042 166.145 136.902 166.164 136.762 166.192C136.622 166.211 136.468 166.239 136.3 166.276L136.062 164.96C136.323 164.885 136.585 164.829 136.846 164.792C137.117 164.755 137.369 164.736 137.602 164.736C138.087 164.736 138.531 164.797 138.932 164.918C139.333 165.03 139.702 165.17 140.038 165.338C140.374 165.506 140.687 165.674 140.976 165.842C141.275 166.01 141.559 166.15 141.83 166.262C142.101 166.374 142.381 166.43 142.67 166.43H143.034L143.16 167.69C142.759 167.699 142.385 167.765 142.04 167.886C141.704 167.998 141.373 168.147 141.046 168.334C140.719 168.511 140.374 168.703 140.01 168.908C139.646 169.104 139.24 169.291 138.792 169.468C138.353 169.636 137.845 169.781 137.266 169.902C136.687 170.014 136.015 170.07 135.25 170.07ZM149.16 162.496C149.16 162.263 149.146 162.001 149.118 161.712C149.09 161.413 149.053 161.119 149.006 160.83C148.969 160.541 148.932 160.293 148.894 160.088L150.322 159.92C150.36 160.107 150.392 160.354 150.42 160.662C150.458 160.961 150.486 161.264 150.504 161.572C150.532 161.88 150.546 162.151 150.546 162.384C150.546 162.841 150.509 163.285 150.434 163.714C150.369 164.134 150.266 164.545 150.126 164.946C149.986 165.347 149.804 165.735 149.58 166.108L149.384 166.416C149.123 166.817 148.81 167.205 148.446 167.578C148.082 167.942 147.662 168.292 147.186 168.628H148.698C149.016 168.628 149.258 168.595 149.426 168.53C149.594 168.465 149.706 168.376 149.762 168.264C149.828 168.152 149.86 168.031 149.86 167.9C149.86 167.667 149.711 167.368 149.412 167.004C149.114 166.64 148.698 166.234 148.166 165.786C147.644 165.329 147.042 164.848 146.36 164.344C145.688 163.831 144.974 163.317 144.218 162.804L144.988 161.712C145.912 162.356 146.72 162.944 147.41 163.476C148.101 164.008 148.684 164.493 149.16 164.932C149.636 165.361 150.019 165.763 150.308 166.136C150.607 166.5 150.822 166.841 150.952 167.158C151.083 167.475 151.148 167.774 151.148 168.054C151.148 168.287 151.111 168.516 151.036 168.74C150.962 168.964 150.836 169.174 150.658 169.37C150.49 169.557 150.248 169.711 149.93 169.832C149.622 169.944 149.23 170 148.754 170H145.268V168.642C146.23 167.951 146.99 167.289 147.55 166.654C148.12 166.01 148.53 165.352 148.782 164.68C149.034 163.999 149.16 163.271 149.16 162.496ZM153.244 170L152.964 159.934H154.35L154.63 170H153.244ZM159.746 169.888C159.746 169.673 159.765 169.435 159.802 169.174C159.849 168.903 159.914 168.609 159.998 168.292C160.091 167.975 160.217 167.634 160.376 167.27L161.594 167.718C161.501 167.989 161.417 168.241 161.342 168.474C161.267 168.707 161.211 168.927 161.174 169.132C161.146 169.337 161.132 169.533 161.132 169.72C161.132 170.187 161.249 170.579 161.482 170.896C161.725 171.223 162.042 171.465 162.434 171.624C162.835 171.792 163.274 171.876 163.75 171.876C164.627 171.876 165.309 171.722 165.794 171.414C166.279 171.115 166.615 170.7 166.802 170.168C166.998 169.636 167.082 169.015 167.054 168.306L166.746 159.934H168.146L168.37 166.892C168.389 167.359 168.459 167.723 168.58 167.984C168.711 168.245 168.893 168.427 169.126 168.53C169.369 168.633 169.644 168.684 169.952 168.684C170.195 168.684 170.367 168.749 170.47 168.88C170.582 169.011 170.638 169.165 170.638 169.342C170.638 169.538 170.563 169.711 170.414 169.86C170.265 170 170.064 170.07 169.812 170.07C169.551 170.07 169.313 170.033 169.098 169.958C168.883 169.883 168.697 169.785 168.538 169.664C168.389 169.543 168.263 169.393 168.16 169.216C168.057 169.039 167.987 168.847 167.95 168.642L168.44 168.81C168.421 169.435 168.319 170.019 168.132 170.56C167.945 171.101 167.665 171.573 167.292 171.974C166.919 172.375 166.433 172.688 165.836 172.912C165.239 173.136 164.52 173.248 163.68 173.248C163.157 173.248 162.658 173.173 162.182 173.024C161.715 172.875 161.295 172.655 160.922 172.366C160.558 172.086 160.269 171.741 160.054 171.33C159.849 170.919 159.746 170.439 159.746 169.888ZM169.812 170.07L169.953 168.684C170.382 168.684 170.723 168.651 170.975 168.586C171.236 168.511 171.437 168.376 171.577 168.18C171.726 167.975 171.847 167.681 171.941 167.298C172.034 166.915 172.137 166.407 172.249 165.772L173.565 166.01C173.527 166.178 173.485 166.36 173.439 166.556C173.401 166.752 173.369 166.953 173.341 167.158C173.313 167.354 173.299 167.527 173.299 167.676C173.299 167.825 173.313 167.965 173.341 168.096C173.378 168.217 173.457 168.32 173.579 168.404C173.709 168.488 173.91 168.558 174.181 168.614C174.461 168.661 174.843 168.684 175.329 168.684C175.571 168.684 175.744 168.749 175.847 168.88C175.949 169.011 176.001 169.165 176.001 169.342C176.001 169.538 175.926 169.711 175.777 169.86C175.637 170 175.441 170.07 175.189 170.07C174.657 170.07 174.223 170.042 173.887 169.986C173.551 169.921 173.285 169.823 173.089 169.692C172.893 169.561 172.748 169.393 172.655 169.188C172.561 168.983 172.496 168.74 172.459 168.46L172.949 168.474C172.799 168.819 172.622 169.099 172.417 169.314C172.221 169.519 171.997 169.678 171.745 169.79C171.502 169.902 171.217 169.977 170.891 170.014C170.573 170.051 170.214 170.07 169.812 170.07ZM173.453 172.898C173.238 172.898 173.051 172.819 172.893 172.66C172.743 172.511 172.669 172.333 172.669 172.128C172.669 171.913 172.743 171.727 172.893 171.568C173.051 171.419 173.238 171.344 173.453 171.344C173.658 171.344 173.835 171.419 173.985 171.568C174.143 171.727 174.223 171.913 174.223 172.128C174.223 172.333 174.143 172.511 173.985 172.66C173.835 172.819 173.658 172.898 173.453 172.898ZM171.381 172.898C171.166 172.898 170.979 172.819 170.821 172.66C170.671 172.511 170.597 172.333 170.597 172.128C170.597 171.913 170.671 171.727 170.821 171.568C170.979 171.419 171.166 171.344 171.381 171.344C171.595 171.344 171.777 171.419 171.927 171.568C172.076 171.727 172.151 171.913 172.151 172.128C172.151 172.333 172.076 172.511 171.927 172.66C171.777 172.819 171.595 172.898 171.381 172.898ZM175.186 170.07L175.312 168.684C175.816 168.684 176.17 168.637 176.376 168.544C176.581 168.441 176.702 168.264 176.74 168.012C176.777 167.751 176.786 167.382 176.768 166.906L176.53 159.934H177.93L178.168 166.892C178.186 167.359 178.256 167.723 178.378 167.984C178.499 168.245 178.672 168.427 178.896 168.53C179.129 168.633 179.4 168.684 179.708 168.684C179.95 168.684 180.123 168.749 180.226 168.88C180.338 169.011 180.394 169.165 180.394 169.342C180.394 169.538 180.319 169.711 180.17 169.86C180.02 170 179.82 170.07 179.568 170.07C179.166 170.07 178.821 170.014 178.532 169.902C178.252 169.781 178.028 169.613 177.86 169.398C177.692 169.174 177.58 168.913 177.524 168.614L177.902 168.628C177.79 168.973 177.622 169.253 177.398 169.468C177.183 169.673 176.894 169.827 176.53 169.93C176.166 170.023 175.718 170.07 175.186 170.07ZM188.562 170.07C188.161 170.07 187.788 170.042 187.442 169.986C187.106 169.93 186.798 169.832 186.518 169.692C186.248 169.543 186.014 169.333 185.818 169.062C185.622 168.782 185.468 168.423 185.356 167.984L186.266 167.382C186.406 167.737 186.574 168.007 186.77 168.194C186.966 168.371 187.218 168.497 187.526 168.572C187.844 168.647 188.236 168.684 188.702 168.684C188.945 168.684 189.118 168.749 189.22 168.88C189.332 169.011 189.388 169.165 189.388 169.342C189.388 169.538 189.314 169.711 189.164 169.86C189.015 170 188.814 170.07 188.562 170.07ZM179.574 170.07L179.7 168.684C180.195 168.684 180.68 168.651 181.156 168.586C181.632 168.511 182.094 168.409 182.542 168.278C183 168.147 183.434 167.984 183.844 167.788C184.264 167.592 184.661 167.368 185.034 167.116C184.782 166.911 184.498 166.733 184.18 166.584C183.863 166.435 183.513 166.323 183.13 166.248C182.757 166.164 182.365 166.122 181.954 166.122C181.805 166.122 181.656 166.127 181.506 166.136C181.366 166.145 181.226 166.164 181.086 166.192C180.946 166.211 180.792 166.239 180.624 166.276L180.386 164.96C180.648 164.885 180.909 164.829 181.17 164.792C181.441 164.755 181.693 164.736 181.926 164.736C182.412 164.736 182.855 164.797 183.256 164.918C183.658 165.03 184.026 165.17 184.362 165.338C184.698 165.506 185.011 165.674 185.3 165.842C185.599 166.01 185.884 166.15 186.154 166.262C186.425 166.374 186.705 166.43 186.994 166.43H187.358L187.484 167.69C187.083 167.699 186.71 167.765 186.364 167.886C186.028 167.998 185.697 168.147 185.37 168.334C185.044 168.511 184.698 168.703 184.334 168.908C183.97 169.104 183.564 169.291 183.116 169.468C182.678 169.636 182.169 169.781 181.59 169.902C181.012 170.014 180.34 170.07 179.574 170.07ZM188.557 170.07L188.697 168.684C189.247 168.684 189.677 168.661 189.985 168.614C190.293 168.567 190.507 168.46 190.629 168.292C190.759 168.124 190.825 167.867 190.825 167.522C190.825 167.279 190.787 166.99 190.713 166.654C190.638 166.318 190.54 165.968 190.419 165.604C190.307 165.231 190.185 164.867 190.055 164.512L191.413 164.064C191.534 164.372 191.651 164.722 191.763 165.114C191.875 165.506 191.968 165.898 192.043 166.29C192.117 166.682 192.155 167.041 192.155 167.368C192.155 167.881 192.08 168.311 191.931 168.656C191.781 169.001 191.553 169.281 191.245 169.496C190.946 169.701 190.573 169.851 190.125 169.944C189.677 170.028 189.154 170.07 188.557 170.07ZM191.833 162.706C191.609 162.706 191.422 162.631 191.273 162.482C191.123 162.323 191.049 162.141 191.049 161.936C191.049 161.721 191.123 161.539 191.273 161.39C191.422 161.231 191.609 161.152 191.833 161.152C192.038 161.152 192.215 161.231 192.365 161.39C192.514 161.539 192.589 161.721 192.589 161.936C192.589 162.141 192.514 162.323 192.365 162.482C192.215 162.631 192.038 162.706 191.833 162.706ZM189.761 162.706C189.546 162.706 189.359 162.631 189.201 162.482C189.051 162.323 188.977 162.141 188.977 161.936C188.977 161.721 189.051 161.535 189.201 161.376C189.359 161.217 189.546 161.138 189.761 161.138C189.966 161.138 190.143 161.217 190.293 161.376C190.451 161.535 190.531 161.721 190.531 161.936C190.531 162.141 190.451 162.323 190.293 162.482C190.143 162.631 189.966 162.706 189.761 162.706Z" fill="white"></path>
  <path d="M102.098 98.07C101.547 98.07 101.062 97.9953 100.642 97.846C100.231 97.6873 99.9047 97.4307 99.662 97.076C99.4287 96.712 99.2933 96.2127 99.256 95.578L99.032 90.482H100.404L100.642 95.2C100.661 95.62 100.731 95.9373 100.852 96.152C100.983 96.3667 101.16 96.5113 101.384 96.586C101.617 96.6513 101.902 96.684 102.238 96.684C102.481 96.684 102.653 96.7493 102.756 96.88C102.868 97.0107 102.924 97.1647 102.924 97.342C102.924 97.538 102.849 97.7107 102.7 97.86C102.551 98 102.35 98.07 102.098 98.07ZM99.844 96.6C99.284 96.7587 98.7427 96.838 98.22 96.838C97.6973 96.8287 97.2213 96.7447 96.792 96.586C96.372 96.4273 96.036 96.194 95.784 95.886C95.532 95.578 95.406 95.2 95.406 94.752C95.406 94.3227 95.5087 93.926 95.714 93.562C95.9193 93.198 96.204 92.876 96.568 92.596C96.932 92.316 97.3567 92.0827 97.842 91.896C98.3273 91.7 98.8453 91.5647 99.396 91.49L99.592 92.904C99.144 92.9227 98.7427 92.9833 98.388 93.086C98.0427 93.1887 97.7487 93.3193 97.506 93.478C97.2727 93.6367 97.0907 93.8093 96.96 93.996C96.8293 94.1827 96.764 94.374 96.764 94.57C96.764 94.7567 96.834 94.9107 96.974 95.032C97.114 95.1533 97.2913 95.2513 97.506 95.326C97.73 95.3913 97.9727 95.4287 98.234 95.438C98.5047 95.4473 98.7707 95.438 99.032 95.41C99.2933 95.3727 99.5267 95.3213 99.732 95.256L99.844 96.6ZM99.648 88.914C99.4333 88.914 99.2467 88.8393 99.088 88.69C98.9387 88.5407 98.864 88.3587 98.864 88.144C98.864 87.9387 98.9387 87.7567 99.088 87.598C99.2467 87.4393 99.4333 87.36 99.648 87.36C99.8533 87.36 100.031 87.4393 100.18 87.598C100.339 87.7567 100.418 87.9387 100.418 88.144C100.418 88.3587 100.339 88.5407 100.18 88.69C100.031 88.8393 99.8533 88.914 99.648 88.914ZM97.59 88.914C97.366 88.914 97.1793 88.8393 97.03 88.69C96.8807 88.5313 96.806 88.3493 96.806 88.144C96.806 87.9293 96.8807 87.7473 97.03 87.598C97.1793 87.4393 97.3613 87.36 97.576 87.36C97.7907 87.36 97.9727 87.4393 98.122 87.598C98.2713 87.7473 98.346 87.9293 98.346 88.144C98.346 88.3493 98.2713 88.5313 98.122 88.69C97.9727 88.8393 97.7953 88.914 97.59 88.914ZM102.096 98.07L102.236 96.684C102.665 96.684 103.006 96.6513 103.258 96.586C103.519 96.5113 103.72 96.376 103.86 96.18C104.009 95.9747 104.13 95.6807 104.224 95.298C104.317 94.9153 104.42 94.4067 104.532 93.772L105.848 94.01C105.81 94.178 105.768 94.36 105.722 94.556C105.684 94.752 105.652 94.9527 105.624 95.158C105.596 95.354 105.582 95.5267 105.582 95.676C105.582 95.8253 105.596 95.9653 105.624 96.096C105.661 96.2173 105.74 96.32 105.862 96.404C105.992 96.488 106.193 96.558 106.464 96.614C106.744 96.6607 107.126 96.684 107.612 96.684C107.854 96.684 108.027 96.7493 108.13 96.88C108.232 97.0107 108.284 97.1647 108.284 97.342C108.284 97.538 108.209 97.7107 108.06 97.86C107.92 98 107.724 98.07 107.472 98.07C106.94 98.07 106.506 98.042 106.17 97.986C105.834 97.9207 105.568 97.8227 105.372 97.692C105.176 97.5613 105.031 97.3933 104.938 97.188C104.844 96.9827 104.779 96.74 104.742 96.46L105.232 96.474C105.082 96.8193 104.905 97.0993 104.7 97.314C104.504 97.5193 104.28 97.678 104.028 97.79C103.785 97.902 103.5 97.9767 103.174 98.014C102.856 98.0513 102.497 98.07 102.096 98.07ZM105.736 100.898C105.521 100.898 105.334 100.819 105.176 100.66C105.026 100.511 104.952 100.333 104.952 100.128C104.952 99.9133 105.026 99.7267 105.176 99.568C105.334 99.4187 105.521 99.344 105.736 99.344C105.941 99.344 106.118 99.4187 106.268 99.568C106.426 99.7267 106.506 99.9133 106.506 100.128C106.506 100.333 106.426 100.511 106.268 100.66C106.118 100.819 105.941 100.898 105.736 100.898ZM103.664 100.898C103.449 100.898 103.262 100.819 103.104 100.66C102.954 100.511 102.88 100.333 102.88 100.128C102.88 99.9133 102.954 99.7267 103.104 99.568C103.262 99.4187 103.449 99.344 103.664 99.344C103.878 99.344 104.06 99.4187 104.21 99.568C104.359 99.7267 104.434 99.9133 104.434 100.128C104.434 100.333 104.359 100.511 104.21 100.66C104.06 100.819 103.878 100.898 103.664 100.898ZM107.469 98.07L107.609 96.684C107.991 96.684 108.29 96.6513 108.505 96.586C108.729 96.5113 108.901 96.376 109.023 96.18C109.144 95.9747 109.247 95.6807 109.331 95.298C109.415 94.9153 109.513 94.4067 109.625 93.772L110.941 94.01C110.903 94.178 110.861 94.36 110.815 94.556C110.777 94.752 110.745 94.9527 110.717 95.158C110.689 95.354 110.675 95.5267 110.675 95.676C110.675 95.8813 110.717 96.0587 110.801 96.208C110.894 96.3573 111.076 96.474 111.347 96.558C111.617 96.642 112.028 96.684 112.579 96.684C112.821 96.684 112.994 96.7493 113.097 96.88C113.209 97.0107 113.265 97.1647 113.265 97.342C113.265 97.538 113.19 97.7107 113.041 97.86C112.891 98 112.691 98.07 112.439 98.07C111.823 98.07 111.333 98.014 110.969 97.902C110.605 97.79 110.339 97.6173 110.171 97.384C110.003 97.1413 109.891 96.8333 109.835 96.46L110.325 96.474C110.175 96.8193 110.003 97.0993 109.807 97.314C109.62 97.5193 109.415 97.678 109.191 97.79C108.967 97.902 108.71 97.9767 108.421 98.014C108.141 98.0513 107.823 98.07 107.469 98.07ZM109.849 92.33C109.625 92.33 109.433 92.2553 109.275 92.106C109.125 91.9567 109.051 91.77 109.051 91.546C109.051 91.3313 109.125 91.1447 109.275 90.986C109.433 90.8273 109.625 90.748 109.849 90.748C110.063 90.748 110.245 90.8273 110.395 90.986C110.553 91.1447 110.633 91.3313 110.633 91.546C110.633 91.77 110.553 91.9567 110.395 92.106C110.245 92.2553 110.063 92.33 109.849 92.33ZM112.445 98.07L112.585 96.684C112.856 96.684 113.122 96.684 113.383 96.684C113.654 96.6747 113.911 96.656 114.153 96.628C114.396 96.6 114.625 96.572 114.839 96.544C115.054 96.5067 115.245 96.4647 115.413 96.418C115.731 96.3153 116.02 96.1847 116.281 96.026C116.543 95.858 116.753 95.662 116.911 95.438C117.07 95.214 117.149 94.9573 117.149 94.668C117.149 94.472 117.103 94.2667 117.009 94.052C116.916 93.8373 116.785 93.66 116.617 93.52C116.459 93.3707 116.272 93.296 116.057 93.296C115.843 93.296 115.647 93.366 115.469 93.506C115.301 93.6367 115.161 93.814 115.049 94.038C114.947 94.2527 114.895 94.4813 114.895 94.724C114.895 94.9947 114.961 95.242 115.091 95.466C115.231 95.6807 115.404 95.872 115.609 96.04C115.815 96.1987 116.034 96.334 116.267 96.446L114.783 96.936C114.615 96.796 114.433 96.6233 114.237 96.418C114.041 96.2127 113.869 95.9653 113.719 95.676C113.579 95.3773 113.509 95.0413 113.509 94.668C113.509 94.276 113.579 93.9167 113.719 93.59C113.869 93.254 114.065 92.9647 114.307 92.722C114.559 92.47 114.839 92.2787 115.147 92.148C115.455 92.008 115.773 91.938 116.099 91.938C116.585 91.938 117.009 92.064 117.373 92.316C117.737 92.568 118.017 92.8947 118.213 93.296C118.419 93.688 118.521 94.108 118.521 94.556C118.521 94.9667 118.442 95.34 118.283 95.676C118.134 96.012 117.929 96.3107 117.667 96.572C117.406 96.824 117.103 97.0433 116.757 97.23C116.421 97.4167 116.067 97.5707 115.693 97.692C115.488 97.7573 115.259 97.8133 115.007 97.86C114.765 97.9067 114.499 97.9487 114.209 97.986C113.929 98.014 113.64 98.0327 113.341 98.042C113.043 98.0607 112.744 98.07 112.445 98.07ZM119.515 98.07C119.021 98.07 118.521 98.042 118.017 97.986C117.513 97.9207 117.037 97.8367 116.589 97.734C116.151 97.6313 115.782 97.5147 115.483 97.384L116.449 96.446C116.729 96.4927 117.056 96.5347 117.429 96.572C117.812 96.6093 118.199 96.6373 118.591 96.656C118.983 96.6747 119.338 96.684 119.655 96.684C119.898 96.684 120.071 96.7493 120.173 96.88C120.285 97.0107 120.341 97.1647 120.341 97.342C120.341 97.538 120.267 97.7107 120.117 97.86C119.968 98 119.767 98.07 119.515 98.07ZM117.065 90.538C116.851 90.538 116.664 90.4633 116.505 90.314C116.356 90.1647 116.281 89.9827 116.281 89.768C116.281 89.5627 116.356 89.3807 116.505 89.222C116.664 89.0633 116.851 88.984 117.065 88.984C117.271 88.984 117.448 89.0633 117.597 89.222C117.756 89.3807 117.835 89.5627 117.835 89.768C117.835 89.9827 117.756 90.1647 117.597 90.314C117.448 90.4633 117.271 90.538 117.065 90.538ZM115.007 90.538C114.783 90.538 114.597 90.4633 114.447 90.314C114.298 90.1553 114.223 89.9733 114.223 89.768C114.223 89.5533 114.298 89.3713 114.447 89.222C114.597 89.0633 114.779 88.984 114.993 88.984C115.208 88.984 115.39 89.0633 115.539 89.222C115.689 89.3713 115.763 89.5533 115.763 89.768C115.763 89.9733 115.689 90.1553 115.539 90.314C115.39 90.4633 115.213 90.538 115.007 90.538ZM119.514 98.07L119.654 96.684C120.083 96.684 120.424 96.6513 120.676 96.586C120.937 96.5113 121.138 96.376 121.278 96.18C121.427 95.9747 121.548 95.6807 121.642 95.298C121.735 94.9153 121.838 94.4067 121.95 93.772L123.266 94.01C123.228 94.178 123.186 94.36 123.14 94.556C123.102 94.752 123.07 94.9527 123.042 95.158C123.014 95.354 123 95.5267 123 95.676C123 95.8253 123.014 95.9653 123.042 96.096C123.079 96.2173 123.158 96.32 123.28 96.404C123.41 96.488 123.611 96.558 123.882 96.614C124.162 96.6607 124.544 96.684 125.03 96.684C125.272 96.684 125.445 96.7493 125.548 96.88C125.65 97.0107 125.702 97.1647 125.702 97.342C125.702 97.538 125.627 97.7107 125.478 97.86C125.338 98 125.142 98.07 124.89 98.07C124.358 98.07 123.924 98.042 123.588 97.986C123.252 97.9207 122.986 97.8227 122.79 97.692C122.594 97.5613 122.449 97.3933 122.356 97.188C122.262 96.9827 122.197 96.74 122.16 96.46L122.65 96.474C122.5 96.8193 122.323 97.0993 122.118 97.314C121.922 97.5193 121.698 97.678 121.446 97.79C121.203 97.902 120.918 97.9767 120.592 98.014C120.274 98.0513 119.915 98.07 119.514 98.07ZM123.476 92.386C123.261 92.386 123.074 92.3113 122.916 92.162C122.766 92.0127 122.692 91.8307 122.692 91.616C122.692 91.4107 122.766 91.2287 122.916 91.07C123.074 90.9113 123.261 90.832 123.476 90.832C123.681 90.832 123.858 90.9113 124.008 91.07C124.166 91.2287 124.246 91.4107 124.246 91.616C124.246 91.8307 124.166 92.0127 124.008 92.162C123.858 92.3113 123.681 92.386 123.476 92.386ZM121.404 92.386C121.189 92.386 121.002 92.3113 120.844 92.162C120.694 92.0033 120.62 91.8213 120.62 91.616C120.62 91.4013 120.694 91.2193 120.844 91.07C121.002 90.9113 121.189 90.832 121.404 90.832C121.618 90.832 121.8 90.9113 121.95 91.07C122.099 91.2193 122.174 91.4013 122.174 91.616C122.174 91.8213 122.099 92.0033 121.95 92.162C121.8 92.3113 121.618 92.386 121.404 92.386ZM124.887 98.07L125.013 96.684C125.517 96.684 125.871 96.6373 126.077 96.544C126.282 96.4413 126.403 96.264 126.441 96.012C126.478 95.7507 126.487 95.382 126.469 94.906L126.203 87.934H127.589L127.869 94.864C127.887 95.368 127.869 95.8207 127.813 96.222C127.757 96.6233 127.626 96.964 127.421 97.244C127.225 97.5147 126.921 97.72 126.511 97.86C126.109 98 125.568 98.07 124.887 98.07ZM129.92 98L129.64 87.934H131.026L131.306 98H129.92ZM141.616 98.294L141.98 96.908C143.016 96.908 143.912 96.88 144.668 96.824C145.424 96.768 146.044 96.6793 146.53 96.558C147.024 96.4367 147.388 96.2733 147.622 96.068C147.864 95.8627 147.986 95.6107 147.986 95.312C147.986 94.9667 147.92 94.5607 147.79 94.094C147.668 93.618 147.51 93.1233 147.314 92.61L148.616 92.19C148.737 92.4887 148.849 92.8153 148.952 93.17C149.064 93.5247 149.157 93.8747 149.232 94.22C149.306 94.5653 149.344 94.8827 149.344 95.172C149.344 95.732 149.218 96.2127 148.966 96.614C148.714 97.006 148.294 97.328 147.706 97.58C147.118 97.8227 146.329 98 145.34 98.112C144.35 98.2333 143.109 98.294 141.616 98.294ZM141.616 98.294C140.729 98.294 139.959 98.2333 139.306 98.112C138.662 97.9907 138.125 97.8087 137.696 97.566C137.276 97.3233 136.963 97.02 136.758 96.656C136.552 96.292 136.45 95.8627 136.45 95.368C136.45 95.1067 136.468 94.8453 136.506 94.584C136.543 94.3227 136.594 94.0613 136.66 93.8C136.734 93.5387 136.804 93.2913 136.87 93.058L138.116 93.352C138.078 93.5013 138.036 93.674 137.99 93.87C137.943 94.066 137.906 94.262 137.878 94.458C137.85 94.6447 137.836 94.8127 137.836 94.962C137.836 95.41 137.957 95.7787 138.2 96.068C138.452 96.348 138.876 96.558 139.474 96.698C140.08 96.838 140.916 96.908 141.98 96.908L142.26 97.846L141.616 98.294ZM143.94 92.246C143.725 92.246 143.538 92.1713 143.38 92.022C143.23 91.8727 143.156 91.6907 143.156 91.476C143.156 91.2707 143.23 91.0887 143.38 90.93C143.538 90.7713 143.725 90.692 143.94 90.692C144.145 90.692 144.322 90.7713 144.472 90.93C144.63 91.0887 144.71 91.2707 144.71 91.476C144.71 91.6907 144.63 91.8727 144.472 92.022C144.322 92.1713 144.145 92.246 143.94 92.246ZM141.882 92.246C141.658 92.246 141.471 92.1713 141.322 92.022C141.172 91.8633 141.098 91.6813 141.098 91.476C141.098 91.2613 141.172 91.0793 141.322 90.93C141.471 90.7713 141.653 90.692 141.868 90.692C142.082 90.692 142.264 90.7713 142.414 90.93C142.563 91.0793 142.638 91.2613 142.638 91.476C142.638 91.6813 142.563 91.8633 142.414 92.022C142.264 92.1713 142.087 92.246 141.882 92.246ZM154.229 98.07C153.445 98.07 152.843 97.986 152.423 97.818C152.003 97.6407 151.714 97.3747 151.555 97.02C151.396 96.656 151.303 96.1893 151.275 95.62L150.995 87.934H152.381L152.675 95.032C152.694 95.48 152.736 95.8253 152.801 96.068C152.876 96.3013 153.03 96.4647 153.263 96.558C153.506 96.642 153.874 96.684 154.369 96.684C154.612 96.684 154.784 96.7493 154.887 96.88C154.999 97.0107 155.055 97.1647 155.055 97.342C155.055 97.538 154.98 97.7107 154.831 97.86C154.682 98 154.481 98.07 154.229 98.07ZM154.227 98.07L154.367 96.684C154.619 96.684 154.815 96.6327 154.955 96.53C155.104 96.418 155.249 96.236 155.389 95.984C155.529 95.732 155.706 95.3913 155.921 94.962C156.154 94.514 156.387 94.1453 156.621 93.856C156.854 93.5667 157.083 93.338 157.307 93.17C157.54 93.002 157.764 92.8853 157.979 92.82C158.193 92.7453 158.399 92.708 158.595 92.708C158.912 92.708 159.201 92.778 159.463 92.918C159.724 93.0487 159.971 93.282 160.205 93.618C160.438 93.9447 160.671 94.3973 160.905 94.976C161.11 95.4613 161.297 95.83 161.465 96.082C161.642 96.3247 161.824 96.488 162.011 96.572C162.207 96.6467 162.421 96.684 162.655 96.684C162.897 96.684 163.07 96.7493 163.173 96.88C163.275 97.0107 163.327 97.1647 163.327 97.342C163.327 97.538 163.252 97.7107 163.103 97.86C162.953 98 162.757 98.07 162.515 98.07C162.123 98.07 161.763 98.0047 161.437 97.874C161.11 97.7433 160.844 97.5427 160.639 97.272L160.891 96.978C160.797 97.2393 160.667 97.468 160.499 97.664C160.331 97.8507 160.13 97.9953 159.897 98.098C159.673 98.21 159.421 98.266 159.141 98.266C158.861 98.266 158.557 98.2053 158.231 98.084C157.913 97.9627 157.601 97.7853 157.293 97.552C156.985 97.3187 156.709 97.034 156.467 96.698C156.243 97.0993 156.023 97.398 155.809 97.594C155.594 97.79 155.361 97.9207 155.109 97.986C154.857 98.042 154.563 98.07 154.227 98.07ZM157.083 95.466C157.223 95.69 157.377 95.8907 157.545 96.068C157.713 96.2453 157.885 96.3947 158.063 96.516C158.24 96.6373 158.417 96.7307 158.595 96.796C158.781 96.8613 158.954 96.894 159.113 96.894C159.402 96.894 159.617 96.7913 159.757 96.586C159.906 96.3713 159.901 96.0727 159.743 95.69C159.677 95.5033 159.598 95.3167 159.505 95.13C159.421 94.9433 159.327 94.7707 159.225 94.612C159.122 94.444 159.005 94.3133 158.875 94.22C158.753 94.1173 158.623 94.066 158.483 94.066C158.343 94.066 158.198 94.1127 158.049 94.206C157.909 94.29 157.755 94.4347 157.587 94.64C157.428 94.836 157.26 95.1113 157.083 95.466ZM162.512 98.07L162.652 96.684C163.081 96.684 163.422 96.6513 163.674 96.586C163.935 96.5113 164.136 96.376 164.276 96.18C164.425 95.9747 164.546 95.6807 164.64 95.298C164.733 94.9153 164.836 94.4067 164.948 93.772L166.264 94.01C166.226 94.178 166.184 94.36 166.138 94.556C166.1 94.752 166.068 94.9527 166.04 95.158C166.012 95.354 165.998 95.5267 165.998 95.676C165.998 95.8253 166.012 95.9653 166.04 96.096C166.077 96.2173 166.156 96.32 166.278 96.404C166.408 96.488 166.609 96.558 166.88 96.614C167.16 96.6607 167.542 96.684 168.028 96.684C168.27 96.684 168.443 96.7493 168.546 96.88C168.648 97.0107 168.7 97.1647 168.7 97.342C168.7 97.538 168.625 97.7107 168.476 97.86C168.336 98 168.14 98.07 167.888 98.07C167.356 98.07 166.922 98.042 166.586 97.986C166.25 97.9207 165.984 97.8227 165.788 97.692C165.592 97.5613 165.447 97.3933 165.354 97.188C165.26 96.9827 165.195 96.74 165.158 96.46L165.648 96.474C165.498 96.8193 165.321 97.0993 165.116 97.314C164.92 97.5193 164.696 97.678 164.444 97.79C164.201 97.902 163.916 97.9767 163.59 98.014C163.272 98.0513 162.913 98.07 162.512 98.07ZM166.152 100.898C165.937 100.898 165.75 100.819 165.592 100.66C165.442 100.511 165.368 100.333 165.368 100.128C165.368 99.9133 165.442 99.7267 165.592 99.568C165.75 99.4187 165.937 99.344 166.152 99.344C166.357 99.344 166.534 99.4187 166.684 99.568C166.842 99.7267 166.922 99.9133 166.922 100.128C166.922 100.333 166.842 100.511 166.684 100.66C166.534 100.819 166.357 100.898 166.152 100.898ZM164.08 100.898C163.865 100.898 163.678 100.819 163.52 100.66C163.37 100.511 163.296 100.333 163.296 100.128C163.296 99.9133 163.37 99.7267 163.52 99.568C163.678 99.4187 163.865 99.344 164.08 99.344C164.294 99.344 164.476 99.4187 164.626 99.568C164.775 99.7267 164.85 99.9133 164.85 100.128C164.85 100.333 164.775 100.511 164.626 100.66C164.476 100.819 164.294 100.898 164.08 100.898ZM167.885 98.07L168.025 96.684C168.454 96.684 168.795 96.6513 169.047 96.586C169.308 96.5113 169.509 96.376 169.649 96.18C169.798 95.9747 169.919 95.6807 170.013 95.298C170.106 94.9153 170.209 94.4067 170.321 93.772L171.637 94.01C171.599 94.178 171.557 94.36 171.511 94.556C171.473 94.752 171.441 94.9527 171.413 95.158C171.385 95.354 171.371 95.5267 171.371 95.676C171.371 95.8253 171.385 95.9653 171.413 96.096C171.45 96.2173 171.529 96.32 171.651 96.404C171.781 96.488 171.982 96.558 172.253 96.614C172.533 96.6607 172.915 96.684 173.401 96.684C173.643 96.684 173.816 96.7493 173.919 96.88C174.021 97.0107 174.073 97.1647 174.073 97.342C174.073 97.538 173.998 97.7107 173.849 97.86C173.709 98 173.513 98.07 173.261 98.07C172.729 98.07 172.295 98.042 171.959 97.986C171.623 97.9207 171.357 97.8227 171.161 97.692C170.965 97.5613 170.82 97.3933 170.727 97.188C170.633 96.9827 170.568 96.74 170.531 96.46L171.021 96.474C170.871 96.8193 170.694 97.0993 170.489 97.314C170.293 97.5193 170.069 97.678 169.817 97.79C169.574 97.902 169.289 97.9767 168.963 98.014C168.645 98.0513 168.286 98.07 167.885 98.07ZM171.525 100.898C171.31 100.898 171.123 100.819 170.965 100.66C170.815 100.511 170.741 100.333 170.741 100.128C170.741 99.9133 170.815 99.7267 170.965 99.568C171.123 99.4187 171.31 99.344 171.525 99.344C171.73 99.344 171.907 99.4187 172.057 99.568C172.215 99.7267 172.295 99.9133 172.295 100.128C172.295 100.333 172.215 100.511 172.057 100.66C171.907 100.819 171.73 100.898 171.525 100.898ZM169.453 100.898C169.238 100.898 169.051 100.819 168.893 100.66C168.743 100.511 168.669 100.333 168.669 100.128C168.669 99.9133 168.743 99.7267 168.893 99.568C169.051 99.4187 169.238 99.344 169.453 99.344C169.667 99.344 169.849 99.4187 169.999 99.568C170.148 99.7267 170.223 99.9133 170.223 100.128C170.223 100.333 170.148 100.511 169.999 100.66C169.849 100.819 169.667 100.898 169.453 100.898ZM173.258 98.07L173.398 96.684C173.668 96.684 173.934 96.684 174.196 96.684C174.466 96.6747 174.723 96.656 174.966 96.628C175.208 96.6 175.437 96.572 175.652 96.544C175.866 96.5067 176.058 96.4647 176.226 96.418C176.543 96.3153 176.832 96.1847 177.094 96.026C177.355 95.858 177.565 95.662 177.724 95.438C177.882 95.214 177.962 94.9573 177.962 94.668C177.962 94.472 177.915 94.2667 177.822 94.052C177.728 93.8373 177.598 93.66 177.43 93.52C177.271 93.3707 177.084 93.296 176.87 93.296C176.655 93.296 176.459 93.366 176.282 93.506C176.114 93.6367 175.974 93.814 175.862 94.038C175.759 94.2527 175.708 94.4813 175.708 94.724C175.708 94.9947 175.773 95.242 175.904 95.466C176.044 95.6807 176.216 95.872 176.422 96.04C176.627 96.1987 176.846 96.334 177.08 96.446L175.596 96.936C175.428 96.796 175.246 96.6233 175.05 96.418C174.854 96.2127 174.681 95.9653 174.532 95.676C174.392 95.3773 174.322 95.0413 174.322 94.668C174.322 94.276 174.392 93.9167 174.532 93.59C174.681 93.254 174.877 92.9647 175.12 92.722C175.372 92.47 175.652 92.2787 175.96 92.148C176.268 92.008 176.585 91.938 176.912 91.938C177.397 91.938 177.822 92.064 178.186 92.316C178.55 92.568 178.83 92.8947 179.026 93.296C179.231 93.688 179.334 94.108 179.334 94.556C179.334 94.9667 179.254 95.34 179.096 95.676C178.946 96.012 178.741 96.3107 178.48 96.572C178.218 96.824 177.915 97.0433 177.57 97.23C177.234 97.4167 176.879 97.5707 176.506 97.692C176.3 97.7573 176.072 97.8133 175.82 97.86C175.577 97.9067 175.311 97.9487 175.022 97.986C174.742 98.014 174.452 98.0327 174.154 98.042C173.855 98.0607 173.556 98.07 173.258 98.07ZM180.328 98.07C179.833 98.07 179.334 98.042 178.83 97.986C178.326 97.9207 177.85 97.8367 177.402 97.734C176.963 97.6313 176.594 97.5147 176.296 97.384L177.262 96.446C177.542 96.4927 177.868 96.5347 178.242 96.572C178.624 96.6093 179.012 96.6373 179.404 96.656C179.796 96.6747 180.15 96.684 180.468 96.684C180.71 96.684 180.883 96.7493 180.986 96.88C181.098 97.0107 181.154 97.1647 181.154 97.342C181.154 97.538 181.079 97.7107 180.93 97.86C180.78 98 180.58 98.07 180.328 98.07ZM177.878 90.538C177.663 90.538 177.476 90.4633 177.318 90.314C177.168 90.1647 177.094 89.9827 177.094 89.768C177.094 89.5627 177.168 89.3807 177.318 89.222C177.476 89.0633 177.663 88.984 177.878 88.984C178.083 88.984 178.26 89.0633 178.41 89.222C178.568 89.3807 178.648 89.5627 178.648 89.768C178.648 89.9827 178.568 90.1647 178.41 90.314C178.26 90.4633 178.083 90.538 177.878 90.538ZM175.82 90.538C175.596 90.538 175.409 90.4633 175.26 90.314C175.11 90.1553 175.036 89.9733 175.036 89.768C175.036 89.5533 175.11 89.3713 175.26 89.222C175.409 89.0633 175.591 88.984 175.806 88.984C176.02 88.984 176.202 89.0633 176.352 89.222C176.501 89.3713 176.576 89.5533 176.576 89.768C176.576 89.9733 176.501 90.1553 176.352 90.314C176.202 90.4633 176.025 90.538 175.82 90.538ZM180.326 98.07L180.466 96.684C180.896 96.684 181.236 96.6513 181.488 96.586C181.75 96.5113 181.95 96.376 182.09 96.18C182.24 95.9747 182.361 95.6807 182.454 95.298C182.548 94.9153 182.65 94.4067 182.762 93.772L184.078 94.01C184.041 94.178 183.999 94.36 183.952 94.556C183.915 94.752 183.882 94.9527 183.854 95.158C183.826 95.354 183.812 95.5267 183.812 95.676C183.812 95.8253 183.826 95.9653 183.854 96.096C183.892 96.2173 183.971 96.32 184.092 96.404C184.223 96.488 184.424 96.558 184.694 96.614C184.974 96.6607 185.357 96.684 185.842 96.684C186.085 96.684 186.258 96.7493 186.36 96.88C186.463 97.0107 186.514 97.1647 186.514 97.342C186.514 97.538 186.44 97.7107 186.29 97.86C186.15 98 185.954 98.07 185.702 98.07C185.17 98.07 184.736 98.042 184.4 97.986C184.064 97.9207 183.798 97.8227 183.602 97.692C183.406 97.5613 183.262 97.3933 183.168 97.188C183.075 96.9827 183.01 96.74 182.972 96.46L183.462 96.474C183.313 96.8193 183.136 97.0993 182.93 97.314C182.734 97.5193 182.51 97.678 182.258 97.79C182.016 97.902 181.731 97.9767 181.404 98.014C181.087 98.0513 180.728 98.07 180.326 98.07ZM184.288 92.386C184.074 92.386 183.887 92.3113 183.728 92.162C183.579 92.0127 183.504 91.8307 183.504 91.616C183.504 91.4107 183.579 91.2287 183.728 91.07C183.887 90.9113 184.074 90.832 184.288 90.832C184.494 90.832 184.671 90.9113 184.82 91.07C184.979 91.2287 185.058 91.4107 185.058 91.616C185.058 91.8307 184.979 92.0127 184.82 92.162C184.671 92.3113 184.494 92.386 184.288 92.386ZM182.216 92.386C182.002 92.386 181.815 92.3113 181.656 92.162C181.507 92.0033 181.432 91.8213 181.432 91.616C181.432 91.4013 181.507 91.2193 181.656 91.07C181.815 90.9113 182.002 90.832 182.216 90.832C182.431 90.832 182.613 90.9113 182.762 91.07C182.912 91.2193 182.986 91.4013 182.986 91.616C182.986 91.8213 182.912 92.0033 182.762 92.162C182.613 92.3113 182.431 92.386 182.216 92.386ZM185.699 98.07L185.825 96.684C186.329 96.684 186.684 96.6373 186.889 96.544C187.095 96.4413 187.216 96.264 187.253 96.012C187.291 95.7507 187.3 95.382 187.281 94.906L187.015 87.934H188.401L188.681 94.864C188.7 95.368 188.681 95.8207 188.625 96.222C188.569 96.6233 188.439 96.964 188.233 97.244C188.037 97.5147 187.734 97.72 187.323 97.86C186.922 98 186.381 98.07 185.699 98.07ZM190.732 98L190.452 87.934H191.838L192.118 98H190.732Z" fill="white"></path>
  <g filter="url(#filter1_d_676_5936)">
    <g clip-path="url(#clip0_676_5936)">
      <rect x="206" y="73" width="40" height="40" rx="12" fill="white" fill-opacity="0.07" shape-rendering="crispEdges"></rect>
      <path d="M235.917 94.4136C236.086 94.8908 235.836 95.4147 235.359 95.5837C234.87 95.757 234.304 96.13 233.706 96.655C233.117 97.1716 232.544 97.7922 232.036 98.4007C231.53 99.007 231.1 99.5879 230.797 100.018C230.646 100.232 230.526 100.408 230.446 100.529L230.326 100.711C230.149 100.99 229.836 101.152 229.506 101.135C229.176 101.118 228.881 100.925 228.733 100.63C228.329 99.8217 227.966 99.5 227.784 99.3782C227.706 99.3267 227.654 99.306 227.634 99.299C227.167 99.2557 226.803 98.8637 226.803 98.3864C226.803 97.8801 227.213 97.4697 227.719 97.4697C227.795 97.4704 227.982 97.4842 228.129 97.5336C228.319 97.588 228.549 97.6851 228.801 97.8528C229.052 98.0204 229.316 98.2521 229.581 98.5691C229.869 98.1742 230.226 97.7089 230.628 97.2262C231.172 96.5743 231.812 95.8771 232.497 95.2766C233.172 94.6844 233.942 94.1406 234.747 93.8555C235.224 93.6866 235.748 93.9364 235.917 94.4136Z" fill="#94E52F"></path>
      <path opacity="0.4" d="M224.466 100.906C222.78 100.906 221.456 100.906 220.412 100.788C219.347 100.668 218.483 100.417 217.765 99.8501C217.55 99.6803 217.351 99.4927 217.17 99.2895C216.559 98.6046 216.286 97.7744 216.156 96.7558C216.03 95.7663 216.03 94.5141 216.03 92.9338V92.8372C216.03 92.3094 216.03 91.8181 216.035 91.3612C216.038 91.1084 216.039 90.9821 216.119 90.9025C216.2 90.823 216.327 90.823 216.582 90.823H235.187C235.442 90.823 235.569 90.823 235.65 90.9025C235.73 90.9821 235.731 91.1085 235.734 91.3612C235.735 91.4984 235.736 91.6387 235.737 91.7822C235.739 92.0958 235.739 92.2526 235.661 92.3332C235.582 92.4138 235.388 92.4183 234.999 92.4272C234.762 92.4326 234.522 92.4752 234.286 92.5587C233.244 92.9276 232.322 93.5992 231.589 94.242C230.832 94.9054 230.142 95.6601 229.571 96.3446C229.521 96.4044 229.496 96.4344 229.472 96.4528C229.401 96.5072 229.327 96.5231 229.24 96.5024C229.211 96.4952 229.172 96.4762 229.093 96.438C228.899 96.3429 228.711 96.2712 228.532 96.2186C228.201 96.113 227.868 96.0952 227.731 96.0939L227.718 96.0938C226.452 96.0938 225.426 97.1199 225.426 98.3855C225.426 99.4128 226.101 100.281 227.033 100.573L227.037 100.574C227.068 100.584 227.086 100.59 227.108 100.615C227.204 100.728 227.124 100.906 226.976 100.906H224.466Z" fill="#94E52F"></path>
      <path d="M227.305 84.8645C228.991 84.8645 230.315 84.8645 231.359 84.9824C232.424 85.1027 233.288 85.3537 234.006 85.9208C234.221 86.0905 234.42 86.278 234.601 86.4813C235.212 87.1663 235.485 87.9965 235.615 89.015C235.629 89.1322 235.637 89.1908 235.624 89.2423C235.602 89.3246 235.539 89.3963 235.46 89.428C235.411 89.4478 235.349 89.4478 235.225 89.4478H216.548C216.424 89.4478 216.362 89.4478 216.313 89.428C216.234 89.3963 216.171 89.3246 216.15 89.2423C216.136 89.1908 216.144 89.1322 216.159 89.015C216.288 87.9965 216.561 87.1663 217.172 86.4813C217.353 86.278 217.552 86.0905 217.767 85.9208C218.485 85.3537 219.349 85.1027 220.415 84.9824C221.458 84.8645 222.782 84.8645 224.468 84.8645H227.305Z" fill="#94E52F"></path>
      <g filter="url(#filter2_f_676_5936)">
        <circle cx="226.997" cy="93.9967" r="5.04167" fill="#95E430"></circle>
      </g>
    </g>
  </g>
  <path d="M69.098 26.07C68.5473 26.07 68.062 25.9953 67.642 25.846C67.2313 25.6873 66.9047 25.4307 66.662 25.076C66.4287 24.712 66.2933 24.2127 66.256 23.578L66.032 18.482H67.404L67.642 23.2C67.6607 23.62 67.7307 23.9373 67.852 24.152C67.9827 24.3667 68.16 24.5113 68.384 24.586C68.6173 24.6513 68.902 24.684 69.238 24.684C69.4807 24.684 69.6533 24.7493 69.756 24.88C69.868 25.0107 69.924 25.1647 69.924 25.342C69.924 25.538 69.8493 25.7107 69.7 25.86C69.5507 26 69.35 26.07 69.098 26.07ZM66.844 24.6C66.284 24.7587 65.7427 24.838 65.22 24.838C64.6973 24.8287 64.2213 24.7447 63.792 24.586C63.372 24.4273 63.036 24.194 62.784 23.886C62.532 23.578 62.406 23.2 62.406 22.752C62.406 22.3227 62.5087 21.926 62.714 21.562C62.9193 21.198 63.204 20.876 63.568 20.596C63.932 20.316 64.3567 20.0827 64.842 19.896C65.3273 19.7 65.8453 19.5647 66.396 19.49L66.592 20.904C66.144 20.9227 65.7427 20.9833 65.388 21.086C65.0427 21.1887 64.7487 21.3193 64.506 21.478C64.2727 21.6367 64.0907 21.8093 63.96 21.996C63.8293 22.1827 63.764 22.374 63.764 22.57C63.764 22.7567 63.834 22.9107 63.974 23.032C64.114 23.1533 64.2913 23.2513 64.506 23.326C64.73 23.3913 64.9727 23.4287 65.234 23.438C65.5047 23.4473 65.7707 23.438 66.032 23.41C66.2933 23.3727 66.5267 23.3213 66.732 23.256L66.844 24.6ZM66.648 16.914C66.4333 16.914 66.2467 16.8393 66.088 16.69C65.9387 16.5407 65.864 16.3587 65.864 16.144C65.864 15.9387 65.9387 15.7567 66.088 15.598C66.2467 15.4393 66.4333 15.36 66.648 15.36C66.8533 15.36 67.0307 15.4393 67.18 15.598C67.3387 15.7567 67.418 15.9387 67.418 16.144C67.418 16.3587 67.3387 16.5407 67.18 16.69C67.0307 16.8393 66.8533 16.914 66.648 16.914ZM64.59 16.914C64.366 16.914 64.1793 16.8393 64.03 16.69C63.8807 16.5313 63.806 16.3493 63.806 16.144C63.806 15.9293 63.8807 15.7473 64.03 15.598C64.1793 15.4393 64.3613 15.36 64.576 15.36C64.7907 15.36 64.9727 15.4393 65.122 15.598C65.2713 15.7473 65.346 15.9293 65.346 16.144C65.346 16.3493 65.2713 16.5313 65.122 16.69C64.9727 16.8393 64.7953 16.914 64.59 16.914ZM69.0957 26.07L69.2357 24.684C69.7864 24.684 70.2157 24.6607 70.5237 24.614C70.8317 24.5673 71.0464 24.46 71.1677 24.292C71.2984 24.124 71.3637 23.8673 71.3637 23.522C71.3637 23.2793 71.3264 22.99 71.2517 22.654C71.177 22.318 71.079 21.968 70.9577 21.604C70.8457 21.2307 70.7244 20.8667 70.5937 20.512L71.9517 20.064C72.073 20.372 72.1897 20.722 72.3017 21.114C72.4137 21.506 72.507 21.898 72.5817 22.29C72.6564 22.682 72.6937 23.0413 72.6937 23.368C72.6937 23.8813 72.619 24.3107 72.4697 24.656C72.3204 25.0013 72.0917 25.2813 71.7837 25.496C71.485 25.7013 71.1117 25.8507 70.6637 25.944C70.2157 26.028 69.693 26.07 69.0957 26.07ZM71.9377 28.898C71.723 28.898 71.5364 28.8187 71.3777 28.66C71.2284 28.5107 71.1537 28.3333 71.1537 28.128C71.1537 27.9133 71.2284 27.7267 71.3777 27.568C71.5364 27.4187 71.723 27.344 71.9377 27.344C72.1524 27.344 72.3344 27.4187 72.4837 27.568C72.633 27.7267 72.7077 27.9133 72.7077 28.128C72.7077 28.3333 72.633 28.5107 72.4837 28.66C72.3344 28.8187 72.1524 28.898 71.9377 28.898ZM69.8797 28.898C69.6557 28.898 69.469 28.8187 69.3197 28.66C69.1704 28.5107 69.0957 28.3333 69.0957 28.128C69.0957 27.9133 69.1704 27.7267 69.3197 27.568C69.469 27.4187 69.6557 27.344 69.8797 27.344C70.085 27.344 70.2624 27.4187 70.4117 27.568C70.561 27.7267 70.6357 27.9133 70.6357 28.128C70.6357 28.3333 70.561 28.5107 70.4117 28.66C70.2624 28.8187 70.085 28.898 69.8797 28.898ZM73.6511 29.248L73.1471 27.988C73.7724 27.7733 74.3044 27.5307 74.7431 27.26C75.1911 26.9893 75.5504 26.7 75.8211 26.392C76.1011 26.084 76.3064 25.762 76.4371 25.426C76.5677 25.09 76.6331 24.754 76.6331 24.418C76.6331 23.9793 76.5351 23.5267 76.3391 23.06C76.1431 22.5933 75.9237 22.1407 75.6811 21.702L76.9411 21.072C77.1184 21.3893 77.2724 21.7113 77.4031 22.038C77.5337 22.3553 77.6504 22.654 77.7531 22.934C77.8557 23.2047 77.9351 23.4333 77.9911 23.62C78.1217 24.04 78.2944 24.3247 78.5091 24.474C78.7237 24.614 79.0364 24.684 79.4471 24.684C79.6897 24.684 79.8624 24.7493 79.9651 24.88C80.0771 25.0107 80.1331 25.1647 80.1331 25.342C80.1331 25.538 80.0584 25.7107 79.9091 25.86C79.7597 26 79.5591 26.07 79.3071 26.07C78.9057 26.07 78.5697 26.0047 78.2991 25.874C78.0284 25.734 77.8231 25.552 77.6831 25.328C77.5431 25.0947 77.4497 24.8427 77.4031 24.572L77.8651 24.838C77.8557 25.4167 77.7111 25.9487 77.4311 26.434C77.1604 26.9287 76.8104 27.3627 76.3811 27.736C75.9611 28.1093 75.5084 28.422 75.0231 28.674C74.5377 28.9353 74.0804 29.1267 73.6511 29.248ZM79.3086 26.07L79.4486 24.684C79.8779 24.684 80.2186 24.6513 80.4706 24.586C80.7319 24.5113 80.9326 24.376 81.0726 24.18C81.2219 23.9747 81.3433 23.6807 81.4366 23.298C81.5299 22.9153 81.6326 22.4067 81.7446 21.772L83.0606 22.01C83.0233 22.178 82.9813 22.36 82.9346 22.556C82.8973 22.752 82.8646 22.9527 82.8366 23.158C82.8086 23.354 82.7946 23.5267 82.7946 23.676C82.7946 23.8253 82.8086 23.9653 82.8366 24.096C82.8739 24.2173 82.9533 24.32 83.0746 24.404C83.2053 24.488 83.4059 24.558 83.6766 24.614C83.9566 24.6607 84.3393 24.684 84.8246 24.684C85.0673 24.684 85.2399 24.7493 85.3426 24.88C85.4453 25.0107 85.4966 25.1647 85.4966 25.342C85.4966 25.538 85.4219 25.7107 85.2726 25.86C85.1326 26 84.9366 26.07 84.6846 26.07C84.1526 26.07 83.7186 26.042 83.3826 25.986C83.0466 25.9207 82.7806 25.8227 82.5846 25.692C82.3886 25.5613 82.2439 25.3933 82.1506 25.188C82.0573 24.9827 81.9919 24.74 81.9546 24.46L82.4446 24.474C82.2953 24.8193 82.1179 25.0993 81.9126 25.314C81.7166 25.5193 81.4926 25.678 81.2406 25.79C80.9979 25.902 80.7133 25.9767 80.3866 26.014C80.0693 26.0513 79.7099 26.07 79.3086 26.07ZM83.2706 20.386C83.0559 20.386 82.8693 20.3113 82.7106 20.162C82.5613 20.0127 82.4866 19.8307 82.4866 19.616C82.4866 19.4107 82.5613 19.2287 82.7106 19.07C82.8693 18.9113 83.0559 18.832 83.2706 18.832C83.4759 18.832 83.6533 18.9113 83.8026 19.07C83.9613 19.2287 84.0406 19.4107 84.0406 19.616C84.0406 19.8307 83.9613 20.0127 83.8026 20.162C83.6533 20.3113 83.4759 20.386 83.2706 20.386ZM81.1986 20.386C80.9839 20.386 80.7973 20.3113 80.6386 20.162C80.4893 20.0033 80.4146 19.8213 80.4146 19.616C80.4146 19.4013 80.4893 19.2193 80.6386 19.07C80.7973 18.9113 80.9839 18.832 81.1986 18.832C81.4133 18.832 81.5953 18.9113 81.7446 19.07C81.8939 19.2193 81.9686 19.4013 81.9686 19.616C81.9686 19.8213 81.8939 20.0033 81.7446 20.162C81.5953 20.3113 81.4133 20.386 81.1986 20.386ZM84.6816 26.07L84.8216 24.684C85.0736 24.684 85.2836 24.628 85.4516 24.516C85.6196 24.404 85.7876 24.2173 85.9556 23.956C86.1236 23.6947 86.3103 23.3447 86.5156 22.906C86.7863 22.3273 87.0616 21.884 87.3416 21.576C87.6216 21.2587 87.9016 21.044 88.1816 20.932C88.4616 20.8107 88.7416 20.75 89.0216 20.75C89.367 20.75 89.6843 20.834 89.9736 21.002C90.2723 21.1607 90.5336 21.3847 90.7576 21.674C90.9816 21.954 91.1543 22.2667 91.2756 22.612C91.4063 22.948 91.4716 23.2887 91.4716 23.634C91.4716 24.1753 91.369 24.6233 91.1636 24.978C90.9676 25.3233 90.7063 25.58 90.3796 25.748C90.0623 25.916 89.717 26 89.3436 26C89.017 26 88.6156 25.9393 88.1396 25.818C87.6636 25.6967 87.099 25.412 86.4456 24.964L87.0336 23.83C87.4816 24.1193 87.8876 24.3247 88.2516 24.446C88.625 24.558 88.933 24.614 89.1756 24.614C89.4183 24.614 89.6143 24.5813 89.7636 24.516C89.913 24.4507 90.0203 24.3527 90.0856 24.222C90.1603 24.0913 90.1976 23.9373 90.1976 23.76C90.1976 23.5173 90.137 23.27 90.0156 23.018C89.8943 22.766 89.7403 22.556 89.5536 22.388C89.367 22.22 89.1663 22.136 88.9516 22.136C88.7743 22.136 88.6063 22.192 88.4476 22.304C88.2983 22.4067 88.1443 22.5887 87.9856 22.85C87.8363 23.102 87.659 23.4473 87.4536 23.886C87.239 24.3713 87.029 24.7587 86.8236 25.048C86.6183 25.3373 86.4083 25.5567 86.1936 25.706C85.9883 25.8553 85.7596 25.9533 85.5076 26C85.265 26.0467 84.9896 26.07 84.6816 26.07ZM93.0815 29.22L92.7735 27.834C93.3709 27.7593 93.9075 27.6567 94.3835 27.526C94.8595 27.3953 95.2655 27.2087 95.6015 26.966C95.9469 26.7327 96.2082 26.4153 96.3855 26.014C96.5722 25.622 96.6655 25.1227 96.6655 24.516C96.6655 23.9093 96.5582 23.41 96.3435 23.018C96.1289 22.626 95.8489 22.43 95.5035 22.43C95.3075 22.43 95.1302 22.5047 94.9715 22.654C94.8129 22.794 94.6869 22.9807 94.5935 23.214C94.5002 23.4473 94.4535 23.69 94.4535 23.942C94.4535 24.082 94.4862 24.2033 94.5515 24.306C94.6169 24.4087 94.7242 24.4927 94.8735 24.558C95.0229 24.614 95.2282 24.656 95.4895 24.684C95.7509 24.7027 96.0729 24.7027 96.4555 24.684H99.2275C99.4702 24.684 99.6429 24.7493 99.7455 24.88C99.8575 25.0107 99.9135 25.1647 99.9135 25.342C99.9135 25.538 99.8389 25.7107 99.6895 25.86C99.5402 26 99.3395 26.07 99.0875 26.07H95.5875C95.1209 26.07 94.6962 26.0093 94.3135 25.888C93.9402 25.7573 93.6415 25.5567 93.4175 25.286C93.2029 25.006 93.0955 24.642 93.0955 24.194C93.0955 23.7927 93.1562 23.4053 93.2775 23.032C93.4082 22.6493 93.5855 22.3087 93.8095 22.01C94.0429 21.702 94.3089 21.4593 94.6075 21.282C94.9155 21.1047 95.2469 21.016 95.6015 21.016C96.0682 21.016 96.4835 21.156 96.8475 21.436C97.2115 21.7067 97.4962 22.108 97.7015 22.64C97.9069 23.1627 98.0095 23.7973 98.0095 24.544C98.0095 25.468 97.8182 26.2613 97.4355 26.924C97.0622 27.5867 96.5069 28.1093 95.7695 28.492C95.0415 28.8747 94.1455 29.1173 93.0815 29.22ZM99.0918 26.07L99.2318 24.684H100.576C101.21 24.684 101.686 24.6513 102.004 24.586C102.321 24.5113 102.526 24.4133 102.62 24.292C102.722 24.1707 102.774 24.04 102.774 23.9C102.774 23.6947 102.694 23.466 102.536 23.214C102.377 22.9527 102.172 22.6867 101.92 22.416C101.668 22.136 101.402 21.8607 101.122 21.59C100.842 21.3193 100.576 21.072 100.324 20.848C100.072 20.6147 99.8618 20.414 99.6938 20.246C99.5351 20.078 99.4558 19.9567 99.4558 19.882C99.4558 19.7047 99.4698 19.5507 99.4978 19.42C99.5258 19.28 99.5585 19.1587 99.5958 19.056C99.6425 18.944 99.6985 18.8553 99.7638 18.79C99.9411 18.6033 100.193 18.4027 100.52 18.188C100.846 17.9733 101.224 17.754 101.654 17.53C102.083 17.2967 102.545 17.0587 103.04 16.816C103.544 16.5733 104.062 16.326 104.594 16.074L105.168 17.306C104.664 17.5487 104.183 17.782 103.726 18.006C103.268 18.2207 102.834 18.4353 102.424 18.65C102.022 18.8553 101.649 19.0607 101.304 19.266C100.958 19.462 100.646 19.6627 100.366 19.868L100.464 19.224C100.874 19.5787 101.262 19.9193 101.626 20.246C101.99 20.5633 102.33 20.89 102.648 21.226C102.965 21.5527 103.259 21.9027 103.53 22.276C103.81 22.6493 104.076 23.06 104.328 23.508C104.524 23.8533 104.743 24.11 104.986 24.278C105.238 24.446 105.485 24.558 105.728 24.614C105.97 24.6607 106.176 24.684 106.344 24.684C106.586 24.684 106.759 24.7493 106.862 24.88C106.974 25.0107 107.03 25.1647 107.03 25.342C107.03 25.538 106.955 25.7107 106.806 25.86C106.656 26 106.456 26.07 106.204 26.07C105.933 26.07 105.625 26.028 105.28 25.944C104.934 25.8507 104.598 25.6873 104.272 25.454C103.954 25.2207 103.698 24.8707 103.502 24.404L104.02 24.544C103.88 24.8147 103.716 25.0433 103.53 25.23C103.343 25.4167 103.114 25.5753 102.844 25.706C102.573 25.8273 102.246 25.9207 101.864 25.986C101.481 26.042 101.024 26.07 100.492 26.07H99.0918ZM106.201 26.07L106.341 24.684C106.771 24.684 107.111 24.6513 107.363 24.586C107.625 24.5113 107.825 24.376 107.965 24.18C108.115 23.9747 108.236 23.6807 108.329 23.298C108.423 22.9153 108.525 22.4067 108.637 21.772L109.953 22.01C109.916 22.178 109.874 22.36 109.827 22.556C109.79 22.752 109.757 22.9527 109.729 23.158C109.701 23.354 109.687 23.5267 109.687 23.676C109.687 23.8253 109.701 23.9653 109.729 24.096C109.767 24.2173 109.846 24.32 109.967 24.404C110.098 24.488 110.299 24.558 110.569 24.614C110.849 24.6607 111.232 24.684 111.717 24.684C111.96 24.684 112.133 24.7493 112.235 24.88C112.338 25.0107 112.389 25.1647 112.389 25.342C112.389 25.538 112.315 25.7107 112.165 25.86C112.025 26 111.829 26.07 111.577 26.07C111.045 26.07 110.611 26.042 110.275 25.986C109.939 25.9207 109.673 25.8227 109.477 25.692C109.281 25.5613 109.137 25.3933 109.043 25.188C108.95 24.9827 108.885 24.74 108.847 24.46L109.337 24.474C109.188 24.8193 109.011 25.0993 108.805 25.314C108.609 25.5193 108.385 25.678 108.133 25.79C107.891 25.902 107.606 25.9767 107.279 26.014C106.962 26.0513 106.603 26.07 106.201 26.07ZM109.841 28.898C109.627 28.898 109.44 28.8187 109.281 28.66C109.132 28.5107 109.057 28.3333 109.057 28.128C109.057 27.9133 109.132 27.7267 109.281 27.568C109.44 27.4187 109.627 27.344 109.841 27.344C110.047 27.344 110.224 27.4187 110.373 27.568C110.532 27.7267 110.611 27.9133 110.611 28.128C110.611 28.3333 110.532 28.5107 110.373 28.66C110.224 28.8187 110.047 28.898 109.841 28.898ZM107.769 28.898C107.555 28.898 107.368 28.8187 107.209 28.66C107.06 28.5107 106.985 28.3333 106.985 28.128C106.985 27.9133 107.06 27.7267 107.209 27.568C107.368 27.4187 107.555 27.344 107.769 27.344C107.984 27.344 108.166 27.4187 108.315 27.568C108.465 27.7267 108.539 27.9133 108.539 28.128C108.539 28.3333 108.465 28.5107 108.315 28.66C108.166 28.8187 107.984 28.898 107.769 28.898ZM111.574 26.07L111.714 24.684C112.013 24.684 112.256 24.6607 112.442 24.614C112.638 24.5673 112.797 24.46 112.918 24.292C113.049 24.1147 113.166 23.8393 113.268 23.466C113.38 23.0927 113.506 22.5747 113.646 21.912L114.92 22.22C114.874 22.444 114.813 22.7193 114.738 23.046C114.673 23.3633 114.64 23.6527 114.64 23.914C114.64 24.0633 114.678 24.1987 114.752 24.32C114.827 24.432 114.953 24.5207 115.13 24.586C115.308 24.6513 115.55 24.684 115.858 24.684C116.129 24.684 116.348 24.6607 116.516 24.614C116.694 24.5673 116.843 24.4553 116.964 24.278C117.086 24.0913 117.193 23.8067 117.286 23.424C117.38 23.032 117.478 22.4953 117.58 21.814L118.882 22.038C118.845 22.2247 118.808 22.4393 118.77 22.682C118.733 22.9247 118.7 23.1627 118.672 23.396C118.644 23.62 118.63 23.8067 118.63 23.956C118.63 24.0773 118.658 24.1987 118.714 24.32C118.78 24.432 118.906 24.5207 119.092 24.586C119.279 24.6513 119.55 24.684 119.904 24.684C120.362 24.684 120.693 24.5907 120.898 24.404C121.104 24.208 121.206 23.914 121.206 23.522C121.206 23.3073 121.202 23.0787 121.192 22.836C121.183 22.5933 121.164 22.3227 121.136 22.024C121.118 21.7253 121.085 21.38 121.038 20.988L122.284 20.904C122.35 21.6693 122.42 22.2993 122.494 22.794C122.569 23.2793 122.672 23.662 122.802 23.942C122.942 24.2127 123.129 24.404 123.362 24.516C123.605 24.628 123.922 24.684 124.314 24.684C124.557 24.684 124.73 24.7493 124.832 24.88C124.944 25.0107 125 25.1647 125 25.342C125 25.538 124.926 25.7107 124.776 25.86C124.627 26 124.426 26.07 124.174 26.07C123.876 26.07 123.596 26.0327 123.334 25.958C123.082 25.8833 122.854 25.776 122.648 25.636C122.452 25.4867 122.284 25.3047 122.144 25.09C122.004 24.8753 121.902 24.628 121.836 24.348L122.088 24.432C121.976 24.8707 121.808 25.2067 121.584 25.44C121.36 25.6733 121.094 25.8367 120.786 25.93C120.488 26.0233 120.152 26.07 119.778 26.07C119.368 26.07 119.018 26.0187 118.728 25.916C118.448 25.804 118.229 25.636 118.07 25.412C117.912 25.188 117.818 24.8987 117.79 24.544H118.266C118.08 24.9827 117.879 25.314 117.664 25.538C117.459 25.7527 117.202 25.8973 116.894 25.972C116.596 26.0373 116.199 26.07 115.704 26.07C115.452 26.07 115.186 26.0327 114.906 25.958C114.626 25.8833 114.379 25.734 114.164 25.51C113.959 25.2767 113.828 24.922 113.772 24.446L114.29 24.376C114.122 24.88 113.908 25.2533 113.646 25.496C113.394 25.7293 113.096 25.8833 112.75 25.958C112.414 26.0327 112.022 26.07 111.574 26.07ZM124.18 26.07L124.306 24.684C124.81 24.684 125.164 24.6373 125.37 24.544C125.575 24.4413 125.696 24.264 125.734 24.012C125.771 23.7507 125.78 23.382 125.762 22.906L125.496 15.934H126.882L127.162 22.864C127.18 23.368 127.162 23.8207 127.106 24.222C127.05 24.6233 126.919 24.964 126.714 25.244C126.518 25.5147 126.214 25.72 125.804 25.86C125.402 26 124.861 26.07 124.18 26.07ZM129.212 26L128.932 15.934H130.318L130.598 26H129.212ZM140.909 26.294L141.273 24.908C142.309 24.908 143.205 24.88 143.961 24.824C144.717 24.768 145.337 24.6793 145.823 24.558C146.317 24.4367 146.681 24.2733 146.915 24.068C147.157 23.8627 147.279 23.6107 147.279 23.312C147.279 22.9667 147.213 22.5607 147.083 22.094C146.961 21.618 146.803 21.1233 146.607 20.61L147.909 20.19C148.03 20.4887 148.142 20.8153 148.245 21.17C148.357 21.5247 148.45 21.8747 148.525 22.22C148.599 22.5653 148.637 22.8827 148.637 23.172C148.637 23.732 148.511 24.2127 148.259 24.614C148.007 25.006 147.587 25.328 146.999 25.58C146.411 25.8227 145.622 26 144.633 26.112C143.643 26.2333 142.402 26.294 140.909 26.294ZM140.909 26.294C140.022 26.294 139.252 26.2333 138.599 26.112C137.955 25.9907 137.418 25.8087 136.989 25.566C136.569 25.3233 136.256 25.02 136.051 24.656C135.845 24.292 135.743 23.8627 135.743 23.368C135.743 23.1067 135.761 22.8453 135.799 22.584C135.836 22.3227 135.887 22.0613 135.953 21.8C136.027 21.5387 136.097 21.2913 136.163 21.058L137.409 21.352C137.371 21.5013 137.329 21.674 137.283 21.87C137.236 22.066 137.199 22.262 137.171 22.458C137.143 22.6447 137.129 22.8127 137.129 22.962C137.129 23.41 137.25 23.7787 137.493 24.068C137.745 24.348 138.169 24.558 138.767 24.698C139.373 24.838 140.209 24.908 141.273 24.908L141.553 25.846L140.909 26.294ZM143.233 20.246C143.018 20.246 142.831 20.1713 142.673 20.022C142.523 19.8727 142.449 19.6907 142.449 19.476C142.449 19.2707 142.523 19.0887 142.673 18.93C142.831 18.7713 143.018 18.692 143.233 18.692C143.438 18.692 143.615 18.7713 143.765 18.93C143.923 19.0887 144.003 19.2707 144.003 19.476C144.003 19.6907 143.923 19.8727 143.765 20.022C143.615 20.1713 143.438 20.246 143.233 20.246ZM141.175 20.246C140.951 20.246 140.764 20.1713 140.615 20.022C140.465 19.8633 140.391 19.6813 140.391 19.476C140.391 19.2613 140.465 19.0793 140.615 18.93C140.764 18.7713 140.946 18.692 141.161 18.692C141.375 18.692 141.557 18.7713 141.707 18.93C141.856 19.0793 141.931 19.2613 141.931 19.476C141.931 19.6813 141.856 19.8633 141.707 20.022C141.557 20.1713 141.38 20.246 141.175 20.246ZM153.522 26.07C152.738 26.07 152.136 25.986 151.716 25.818C151.296 25.6407 151.007 25.3747 150.848 25.02C150.689 24.656 150.596 24.1893 150.568 23.62L150.288 15.934H151.674L151.968 23.032C151.987 23.48 152.029 23.8253 152.094 24.068C152.169 24.3013 152.323 24.4647 152.556 24.558C152.799 24.642 153.167 24.684 153.662 24.684C153.905 24.684 154.077 24.7493 154.18 24.88C154.292 25.0107 154.348 25.1647 154.348 25.342C154.348 25.538 154.273 25.7107 154.124 25.86C153.975 26 153.774 26.07 153.522 26.07ZM153.52 26.07L153.66 24.684C153.912 24.684 154.108 24.6327 154.248 24.53C154.397 24.418 154.542 24.236 154.682 23.984C154.822 23.732 154.999 23.3913 155.214 22.962C155.447 22.514 155.68 22.1453 155.914 21.856C156.147 21.5667 156.376 21.338 156.6 21.17C156.833 21.002 157.057 20.8853 157.272 20.82C157.486 20.7453 157.692 20.708 157.888 20.708C158.205 20.708 158.494 20.778 158.756 20.918C159.017 21.0487 159.264 21.282 159.498 21.618C159.731 21.9447 159.964 22.3973 160.198 22.976C160.403 23.4613 160.59 23.83 160.758 24.082C160.935 24.3247 161.117 24.488 161.304 24.572C161.5 24.6467 161.714 24.684 161.948 24.684C162.19 24.684 162.363 24.7493 162.466 24.88C162.568 25.0107 162.62 25.1647 162.62 25.342C162.62 25.538 162.545 25.7107 162.396 25.86C162.246 26 162.05 26.07 161.808 26.07C161.416 26.07 161.056 26.0047 160.73 25.874C160.403 25.7433 160.137 25.5427 159.932 25.272L160.184 24.978C160.09 25.2393 159.96 25.468 159.792 25.664C159.624 25.8507 159.423 25.9953 159.19 26.098C158.966 26.21 158.714 26.266 158.434 26.266C158.154 26.266 157.85 26.2053 157.524 26.084C157.206 25.9627 156.894 25.7853 156.586 25.552C156.278 25.3187 156.002 25.034 155.76 24.698C155.536 25.0993 155.316 25.398 155.102 25.594C154.887 25.79 154.654 25.9207 154.402 25.986C154.15 26.042 153.856 26.07 153.52 26.07ZM156.376 23.466C156.516 23.69 156.67 23.8907 156.838 24.068C157.006 24.2453 157.178 24.3947 157.356 24.516C157.533 24.6373 157.71 24.7307 157.888 24.796C158.074 24.8613 158.247 24.894 158.406 24.894C158.695 24.894 158.91 24.7913 159.05 24.586C159.199 24.3713 159.194 24.0727 159.036 23.69C158.97 23.5033 158.891 23.3167 158.798 23.13C158.714 22.9433 158.62 22.7707 158.518 22.612C158.415 22.444 158.298 22.3133 158.168 22.22C158.046 22.1173 157.916 22.066 157.776 22.066C157.636 22.066 157.491 22.1127 157.342 22.206C157.202 22.29 157.048 22.4347 156.88 22.64C156.721 22.836 156.553 23.1113 156.376 23.466ZM161.805 26.07L161.945 24.684C162.374 24.684 162.715 24.6513 162.967 24.586C163.228 24.5113 163.429 24.376 163.569 24.18C163.718 23.9747 163.839 23.6807 163.933 23.298C164.026 22.9153 164.129 22.4067 164.241 21.772L165.557 22.01C165.519 22.178 165.477 22.36 165.431 22.556C165.393 22.752 165.361 22.9527 165.333 23.158C165.305 23.354 165.291 23.5267 165.291 23.676C165.291 23.8253 165.305 23.9653 165.333 24.096C165.37 24.2173 165.449 24.32 165.571 24.404C165.701 24.488 165.902 24.558 166.173 24.614C166.453 24.6607 166.835 24.684 167.321 24.684C167.563 24.684 167.736 24.7493 167.839 24.88C167.941 25.0107 167.993 25.1647 167.993 25.342C167.993 25.538 167.918 25.7107 167.769 25.86C167.629 26 167.433 26.07 167.181 26.07C166.649 26.07 166.215 26.042 165.879 25.986C165.543 25.9207 165.277 25.8227 165.081 25.692C164.885 25.5613 164.74 25.3933 164.647 25.188C164.553 24.9827 164.488 24.74 164.451 24.46L164.941 24.474C164.791 24.8193 164.614 25.0993 164.409 25.314C164.213 25.5193 163.989 25.678 163.737 25.79C163.494 25.902 163.209 25.9767 162.883 26.014C162.565 26.0513 162.206 26.07 161.805 26.07ZM165.445 28.898C165.23 28.898 165.043 28.8187 164.885 28.66C164.735 28.5107 164.661 28.3333 164.661 28.128C164.661 27.9133 164.735 27.7267 164.885 27.568C165.043 27.4187 165.23 27.344 165.445 27.344C165.65 27.344 165.827 27.4187 165.977 27.568C166.135 27.7267 166.215 27.9133 166.215 28.128C166.215 28.3333 166.135 28.5107 165.977 28.66C165.827 28.8187 165.65 28.898 165.445 28.898ZM163.373 28.898C163.158 28.898 162.971 28.8187 162.813 28.66C162.663 28.5107 162.589 28.3333 162.589 28.128C162.589 27.9133 162.663 27.7267 162.813 27.568C162.971 27.4187 163.158 27.344 163.373 27.344C163.587 27.344 163.769 27.4187 163.919 27.568C164.068 27.7267 164.143 27.9133 164.143 28.128C164.143 28.3333 164.068 28.5107 163.919 28.66C163.769 28.8187 163.587 28.898 163.373 28.898ZM167.178 26.07L167.318 24.684C167.747 24.684 168.088 24.6513 168.34 24.586C168.601 24.5113 168.802 24.376 168.942 24.18C169.091 23.9747 169.212 23.6807 169.306 23.298C169.399 22.9153 169.502 22.4067 169.614 21.772L170.93 22.01C170.892 22.178 170.85 22.36 170.804 22.556C170.766 22.752 170.734 22.9527 170.706 23.158C170.678 23.354 170.664 23.5267 170.664 23.676C170.664 23.8253 170.678 23.9653 170.706 24.096C170.743 24.2173 170.822 24.32 170.944 24.404C171.074 24.488 171.275 24.558 171.546 24.614C171.826 24.6607 172.208 24.684 172.694 24.684C172.936 24.684 173.109 24.7493 173.212 24.88C173.314 25.0107 173.366 25.1647 173.366 25.342C173.366 25.538 173.291 25.7107 173.142 25.86C173.002 26 172.806 26.07 172.554 26.07C172.022 26.07 171.588 26.042 171.252 25.986C170.916 25.9207 170.65 25.8227 170.454 25.692C170.258 25.5613 170.113 25.3933 170.02 25.188C169.926 24.9827 169.861 24.74 169.824 24.46L170.314 24.474C170.164 24.8193 169.987 25.0993 169.782 25.314C169.586 25.5193 169.362 25.678 169.11 25.79C168.867 25.902 168.582 25.9767 168.256 26.014C167.938 26.0513 167.579 26.07 167.178 26.07ZM170.818 28.898C170.603 28.898 170.416 28.8187 170.258 28.66C170.108 28.5107 170.034 28.3333 170.034 28.128C170.034 27.9133 170.108 27.7267 170.258 27.568C170.416 27.4187 170.603 27.344 170.818 27.344C171.023 27.344 171.2 27.4187 171.35 27.568C171.508 27.7267 171.588 27.9133 171.588 28.128C171.588 28.3333 171.508 28.5107 171.35 28.66C171.2 28.8187 171.023 28.898 170.818 28.898ZM168.746 28.898C168.531 28.898 168.344 28.8187 168.186 28.66C168.036 28.5107 167.962 28.3333 167.962 28.128C167.962 27.9133 168.036 27.7267 168.186 27.568C168.344 27.4187 168.531 27.344 168.746 27.344C168.96 27.344 169.142 27.4187 169.292 27.568C169.441 27.7267 169.516 27.9133 169.516 28.128C169.516 28.3333 169.441 28.5107 169.292 28.66C169.142 28.8187 168.96 28.898 168.746 28.898ZM172.551 26.07L172.691 24.684C172.961 24.684 173.227 24.684 173.489 24.684C173.759 24.6747 174.016 24.656 174.259 24.628C174.501 24.6 174.73 24.572 174.945 24.544C175.159 24.5067 175.351 24.4647 175.519 24.418C175.836 24.3153 176.125 24.1847 176.387 24.026C176.648 23.858 176.858 23.662 177.017 23.438C177.175 23.214 177.255 22.9573 177.255 22.668C177.255 22.472 177.208 22.2667 177.115 22.052C177.021 21.8373 176.891 21.66 176.723 21.52C176.564 21.3707 176.377 21.296 176.163 21.296C175.948 21.296 175.752 21.366 175.575 21.506C175.407 21.6367 175.267 21.814 175.155 22.038C175.052 22.2527 175.001 22.4813 175.001 22.724C175.001 22.9947 175.066 23.242 175.197 23.466C175.337 23.6807 175.509 23.872 175.715 24.04C175.92 24.1987 176.139 24.334 176.373 24.446L174.889 24.936C174.721 24.796 174.539 24.6233 174.343 24.418C174.147 24.2127 173.974 23.9653 173.825 23.676C173.685 23.3773 173.615 23.0413 173.615 22.668C173.615 22.276 173.685 21.9167 173.825 21.59C173.974 21.254 174.17 20.9647 174.413 20.722C174.665 20.47 174.945 20.2787 175.253 20.148C175.561 20.008 175.878 19.938 176.205 19.938C176.69 19.938 177.115 20.064 177.479 20.316C177.843 20.568 178.123 20.8947 178.319 21.296C178.524 21.688 178.627 22.108 178.627 22.556C178.627 22.9667 178.547 23.34 178.389 23.676C178.239 24.012 178.034 24.3107 177.773 24.572C177.511 24.824 177.208 25.0433 176.863 25.23C176.527 25.4167 176.172 25.5707 175.799 25.692C175.593 25.7573 175.365 25.8133 175.113 25.86C174.87 25.9067 174.604 25.9487 174.315 25.986C174.035 26.014 173.745 26.0327 173.447 26.042C173.148 26.0607 172.849 26.07 172.551 26.07ZM179.621 26.07C179.126 26.07 178.627 26.042 178.123 25.986C177.619 25.9207 177.143 25.8367 176.695 25.734C176.256 25.6313 175.887 25.5147 175.589 25.384L176.555 24.446C176.835 24.4927 177.161 24.5347 177.535 24.572C177.917 24.6093 178.305 24.6373 178.697 24.656C179.089 24.6747 179.443 24.684 179.761 24.684C180.003 24.684 180.176 24.7493 180.279 24.88C180.391 25.0107 180.447 25.1647 180.447 25.342C180.447 25.538 180.372 25.7107 180.223 25.86C180.073 26 179.873 26.07 179.621 26.07ZM177.171 18.538C176.956 18.538 176.769 18.4633 176.611 18.314C176.461 18.1647 176.387 17.9827 176.387 17.768C176.387 17.5627 176.461 17.3807 176.611 17.222C176.769 17.0633 176.956 16.984 177.171 16.984C177.376 16.984 177.553 17.0633 177.703 17.222C177.861 17.3807 177.941 17.5627 177.941 17.768C177.941 17.9827 177.861 18.1647 177.703 18.314C177.553 18.4633 177.376 18.538 177.171 18.538ZM175.113 18.538C174.889 18.538 174.702 18.4633 174.553 18.314C174.403 18.1553 174.329 17.9733 174.329 17.768C174.329 17.5533 174.403 17.3713 174.553 17.222C174.702 17.0633 174.884 16.984 175.099 16.984C175.313 16.984 175.495 17.0633 175.645 17.222C175.794 17.3713 175.869 17.5533 175.869 17.768C175.869 17.9733 175.794 18.1553 175.645 18.314C175.495 18.4633 175.318 18.538 175.113 18.538ZM179.619 26.07L179.759 24.684C180.188 24.684 180.529 24.6513 180.781 24.586C181.042 24.5113 181.243 24.376 181.383 24.18C181.532 23.9747 181.654 23.6807 181.747 23.298C181.84 22.9153 181.943 22.4067 182.055 21.772L183.371 22.01C183.334 22.178 183.292 22.36 183.245 22.556C183.208 22.752 183.175 22.9527 183.147 23.158C183.119 23.354 183.105 23.5267 183.105 23.676C183.105 23.8253 183.119 23.9653 183.147 24.096C183.184 24.2173 183.264 24.32 183.385 24.404C183.516 24.488 183.716 24.558 183.987 24.614C184.267 24.6607 184.65 24.684 185.135 24.684C185.378 24.684 185.55 24.7493 185.653 24.88C185.756 25.0107 185.807 25.1647 185.807 25.342C185.807 25.538 185.732 25.7107 185.583 25.86C185.443 26 185.247 26.07 184.995 26.07C184.463 26.07 184.029 26.042 183.693 25.986C183.357 25.9207 183.091 25.8227 182.895 25.692C182.699 25.5613 182.554 25.3933 182.461 25.188C182.368 24.9827 182.302 24.74 182.265 24.46L182.755 24.474C182.606 24.8193 182.428 25.0993 182.223 25.314C182.027 25.5193 181.803 25.678 181.551 25.79C181.308 25.902 181.024 25.9767 180.697 26.014C180.38 26.0513 180.02 26.07 179.619 26.07ZM183.581 20.386C183.366 20.386 183.18 20.3113 183.021 20.162C182.872 20.0127 182.797 19.8307 182.797 19.616C182.797 19.4107 182.872 19.2287 183.021 19.07C183.18 18.9113 183.366 18.832 183.581 18.832C183.786 18.832 183.964 18.9113 184.113 19.07C184.272 19.2287 184.351 19.4107 184.351 19.616C184.351 19.8307 184.272 20.0127 184.113 20.162C183.964 20.3113 183.786 20.386 183.581 20.386ZM181.509 20.386C181.294 20.386 181.108 20.3113 180.949 20.162C180.8 20.0033 180.725 19.8213 180.725 19.616C180.725 19.4013 180.8 19.2193 180.949 19.07C181.108 18.9113 181.294 18.832 181.509 18.832C181.724 18.832 181.906 18.9113 182.055 19.07C182.204 19.2193 182.279 19.4013 182.279 19.616C182.279 19.8213 182.204 20.0033 182.055 20.162C181.906 20.3113 181.724 20.386 181.509 20.386ZM184.992 26.07L185.118 24.684C185.622 24.684 185.977 24.6373 186.182 24.544C186.388 24.4413 186.509 24.264 186.546 24.012C186.584 23.7507 186.593 23.382 186.574 22.906L186.308 15.934H187.694L187.974 22.864C187.993 23.368 187.974 23.8207 187.918 24.222C187.862 24.6233 187.732 24.964 187.526 25.244C187.33 25.5147 187.027 25.72 186.616 25.86C186.215 26 185.674 26.07 184.992 26.07ZM190.025 26L189.745 15.934H191.131L191.411 26H190.025Z" fill="white"></path>
  <g filter="url(#filter3_d_676_5936)">
    <g clip-path="url(#clip1_676_5936)">
      <rect x="207" y="1" width="40" height="40" rx="12" fill="white" fill-opacity="0.07" shape-rendering="crispEdges"></rect>
      <path d="M232.805 23.8365C232.922 23.9057 233.065 23.9868 233.228 24.0786C233.941 24.4807 235.018 25.0886 235.757 25.8111C236.218 26.263 236.657 26.8585 236.737 27.5881C236.821 28.3639 236.483 29.092 235.804 29.7389C234.632 30.8549 233.227 31.7493 231.408 31.7493H222.59C220.772 31.7493 219.366 30.8549 218.195 29.7389C217.516 29.092 217.177 28.3639 217.262 27.5881C217.342 26.8585 217.78 26.263 218.242 25.8111C218.98 25.0886 220.058 24.4807 220.77 24.0786C220.933 23.9869 221.077 23.9057 221.193 23.8365C224.747 21.7202 229.251 21.7202 232.805 23.8365Z" fill="#4770FF"></path>
      <path opacity="0.4" d="M221.749 15.4995C221.749 12.6 224.1 10.2495 226.999 10.2495C229.899 10.2495 232.249 12.6 232.249 15.4995C232.249 18.399 229.899 20.7495 226.999 20.7495C224.1 20.7495 221.749 18.399 221.749 15.4995Z" fill="#4770FF"></path>
      <g filter="url(#filter4_f_676_5936)">
        <circle cx="227.241" cy="23.7795" r="5.5" fill="#4871FE"></circle>
      </g>
    </g>
  </g>
  <defs>
    <filter id="filter0_d_676_5936" x="206" y="144" width="42" height="42" filterUnits="userSpaceOnUse" color-interpolation-filters="sRGB">
      <feFlood flood-opacity="0" result="BackgroundImageFix"></feFlood>
      <feColorMatrix in="SourceAlpha" type="matrix" values="0 0 0 0 0 0 0 0 0 0 0 0 0 0 0 0 0 0 127 0" result="hardAlpha"></feColorMatrix>
      <feMorphology radius="1" operator="dilate" in="SourceAlpha" result="effect1_dropShadow_676_5936"></feMorphology>
      <feOffset></feOffset>
      <feComposite in2="hardAlpha" operator="out"></feComposite>
      <feColorMatrix type="matrix" values="0 0 0 0 0.176471 0 0 0 0 0.180392 0 0 0 0 0.282353 0 0 0 1 0"></feColorMatrix>
      <feBlend mode="normal" in2="BackgroundImageFix" result="effect1_dropShadow_676_5936"></feBlend>
      <feBlend mode="normal" in="SourceGraphic" in2="effect1_dropShadow_676_5936" result="shape"></feBlend>
    </filter>
    <filter id="filter1_d_676_5936" x="205" y="72" width="42" height="42" filterUnits="userSpaceOnUse" color-interpolation-filters="sRGB">
      <feFlood flood-opacity="0" result="BackgroundImageFix"></feFlood>
      <feColorMatrix in="SourceAlpha" type="matrix" values="0 0 0 0 0 0 0 0 0 0 0 0 0 0 0 0 0 0 127 0" result="hardAlpha"></feColorMatrix>
      <feMorphology radius="1" operator="dilate" in="SourceAlpha" result="effect1_dropShadow_676_5936"></feMorphology>
      <feOffset></feOffset>
      <feComposite in2="hardAlpha" operator="out"></feComposite>
      <feColorMatrix type="matrix" values="0 0 0 0 0.176471 0 0 0 0 0.180392 0 0 0 0 0.282353 0 0 0 1 0"></feColorMatrix>
      <feBlend mode="normal" in2="BackgroundImageFix" result="effect1_dropShadow_676_5936"></feBlend>
      <feBlend mode="normal" in="SourceGraphic" in2="effect1_dropShadow_676_5936" result="shape"></feBlend>
    </filter>
    <filter id="filter2_f_676_5936" x="204.355" y="71.3551" width="45.283" height="45.2833" filterUnits="userSpaceOnUse" color-interpolation-filters="sRGB">
      <feFlood flood-opacity="0" result="BackgroundImageFix"></feFlood>
      <feBlend mode="normal" in="SourceGraphic" in2="BackgroundImageFix" result="shape"></feBlend>
      <feGaussianBlur stdDeviation="8.8" result="effect1_foregroundBlur_676_5936"></feGaussianBlur>
    </filter>
    <filter id="filter3_d_676_5936" x="206" y="0" width="42" height="42" filterUnits="userSpaceOnUse" color-interpolation-filters="sRGB">
      <feFlood flood-opacity="0" result="BackgroundImageFix"></feFlood>
      <feColorMatrix in="SourceAlpha" type="matrix" values="0 0 0 0 0 0 0 0 0 0 0 0 0 0 0 0 0 0 127 0" result="hardAlpha"></feColorMatrix>
      <feMorphology radius="1" operator="dilate" in="SourceAlpha" result="effect1_dropShadow_676_5936"></feMorphology>
      <feOffset></feOffset>
      <feComposite in2="hardAlpha" operator="out"></feComposite>
      <feColorMatrix type="matrix" values="0 0 0 0 0.176471 0 0 0 0 0.180392 0 0 0 0 0.282353 0 0 0 1 0"></feColorMatrix>
      <feBlend mode="normal" in2="BackgroundImageFix" result="effect1_dropShadow_676_5936"></feBlend>
      <feBlend mode="normal" in="SourceGraphic" in2="effect1_dropShadow_676_5936" result="shape"></feBlend>
    </filter>
    <filter id="filter4_f_676_5936" x="204.141" y="0.679541" width="46.2" height="46.2" filterUnits="userSpaceOnUse" color-interpolation-filters="sRGB">
      <feFlood flood-opacity="0" result="BackgroundImageFix"></feFlood>
      <feBlend mode="normal" in="SourceGraphic" in2="BackgroundImageFix" result="shape"></feBlend>
      <feGaussianBlur stdDeviation="8.8" result="effect1_foregroundBlur_676_5936"></feGaussianBlur>
    </filter>
    <clipPath id="clip0_676_5936">
      <rect x="206" y="73" width="40" height="40" rx="12" fill="white"></rect>
    </clipPath>
    <clipPath id="clip1_676_5936">
      <rect x="207" y="1" width="40" height="40" rx="12" fill="white"></rect>
    </clipPath>
  </defs>
</svg>
