<?xml version="1.0" encoding="UTF-8"?>
<svg xmlns="http://www.w3.org/2000/svg" width="181.888" height="94.531" viewBox="0 0 181.888 94.531">
  <g id="Group_1" data-name="Group 1" transform="translate(-12.109 -8)">
    <path id="Path_4" data-name="Path 4" d="M82.9,76.723H66c-.238,0-.34.136-.34.374v2.346c0,.238.1.374.34.374h6.665c.136,0,.2.068.2.238V101.75c0,.238.1.374.34.374H75.7c.238,0,.34-.136.34-.374V80.055c0-.136.068-.238.2-.238H82.9c.238,0,.34-.136.34-.374V77.1A.3.3,0,0,0,82.9,76.723Z" fill="#fff"></path>
    <path id="Path_5" data-name="Path 5" d="M90.521,83.829a11.4,11.4,0,0,0-3.4.476,8.26,8.26,0,0,0-2.448,1.258.412.412,0,0,0-.068.51l.952,1.734c.1.2.272.2.51.034a7.431,7.431,0,0,1,1.7-.918,7.07,7.07,0,0,1,2.448-.34,4.847,4.847,0,0,1,3.264.816,3.538,3.538,0,0,1,.85,2.686v1.292c0,.136-.068.238-.2.238h-3.91a7.87,7.87,0,0,0-4.931,1.36,4.857,4.857,0,0,0-1.768,4.183,5.665,5.665,0,0,0,.442,2.346,4.72,4.72,0,0,0,1.224,1.666,5.35,5.35,0,0,0,1.836,1.02,7.105,7.105,0,0,0,2.278.34,6.9,6.9,0,0,0,3.23-.68,4.754,4.754,0,0,0,1.87-1.666h.034v1.564c0,.238.1.374.34.374h2.108c.238,0,.34-.136.34-.374V89.916q0-3.264-1.53-4.693C94.7,84.271,92.969,83.829,90.521,83.829Zm3.842,12.513a3.066,3.066,0,0,1-1.156,2.584,4.97,4.97,0,0,1-3.2.918,4.249,4.249,0,0,1-2.652-.714,2.479,2.479,0,0,1-.918-2.108,2.506,2.506,0,0,1,.986-2.21,5.765,5.765,0,0,1,3.264-.68h3.468c.136,0,.2.068.2.238Z" fill="#fff"></path>
    <path id="Path_6" data-name="Path 6" d="M110.923,91l5.271-6.393a.282.282,0,0,0,.068-.272c-.034-.1-.1-.1-.2-.1H113.4a.822.822,0,0,0-.646.34l-6.767,8.331V77.1a.332.332,0,0,0-.34-.374H103.34c-.238,0-.34.136-.34.374V101.75c0,.238.1.374.34.374h2.278c.238,0,.34-.136.34-.374V97.057l2.959-3.638,4.862,8.331a.666.666,0,0,0,.578.374h2.653a.228.228,0,0,0,.238-.136.2.2,0,0,0-.034-.238Z" fill="#fff"></path>
    <path id="Path_7" data-name="Path 7" d="M127.145,83.829a11.4,11.4,0,0,0-3.4.476,8.261,8.261,0,0,0-2.448,1.258.412.412,0,0,0-.068.51l.952,1.734c.1.2.272.2.51.034a7.427,7.427,0,0,1,1.7-.918,7.068,7.068,0,0,1,2.448-.34,4.847,4.847,0,0,1,3.265.816,3.539,3.539,0,0,1,.85,2.686v1.292c0,.136-.068.238-.2.238h-3.911a7.868,7.868,0,0,0-4.93,1.36,4.857,4.857,0,0,0-1.768,4.183,5.666,5.666,0,0,0,.442,2.346,4.72,4.72,0,0,0,1.224,1.666,5.349,5.349,0,0,0,1.836,1.02,7.1,7.1,0,0,0,2.278.34,6.9,6.9,0,0,0,3.231-.68,4.753,4.753,0,0,0,1.87-1.666h.034v1.564c0,.238.1.374.34.374H133.5c.238,0,.34-.136.34-.374V89.916q0-3.264-1.53-4.693C131.328,84.271,129.594,83.829,127.145,83.829Zm3.843,12.513a3.067,3.067,0,0,1-1.156,2.584,4.97,4.97,0,0,1-3.2.918,4.248,4.248,0,0,1-2.652-.714,2.479,2.479,0,0,1-.918-2.108,2.506,2.506,0,0,1,.986-2.21,5.764,5.764,0,0,1,3.264-.68h3.435c.136,0,.2.068.2.238v1.972Z" fill="#fff"></path>
    <path id="Path_8" data-name="Path 8" d="M182.846,88.625a6.647,6.647,0,0,0-2.482-3.571,7.925,7.925,0,0,0-8.569,0,6.654,6.654,0,0,0-2.483,3.571,11.516,11.516,0,0,0-.442,1.938,24.621,24.621,0,0,0,0,5.169,12.752,12.752,0,0,0,.442,1.972,6.571,6.571,0,0,0,2.483,3.537,7.925,7.925,0,0,0,8.569,0,6.693,6.693,0,0,0,2.482-3.537,11.92,11.92,0,0,0,.442-1.972,18.491,18.491,0,0,0,.136-2.584,18.185,18.185,0,0,0-.136-2.584A13.259,13.259,0,0,0,182.846,88.625Zm-2.584,6.631a11.573,11.573,0,0,1-.306,1.564,3.828,3.828,0,0,1-1.428,2.074,4.555,4.555,0,0,1-4.9,0A3.828,3.828,0,0,1,172.2,96.82a11.573,11.573,0,0,1-.306-1.564,21.838,21.838,0,0,1,0-4.216,12.18,12.18,0,0,1,.306-1.53,3.829,3.829,0,0,1,1.428-2.074,4.555,4.555,0,0,1,4.9,0,3.829,3.829,0,0,1,1.428,2.074,12.18,12.18,0,0,1,.306,1.53,21.838,21.838,0,0,1,0,4.216Z" fill="#fff"></path>
    <path id="Path_9" data-name="Path 9" d="M193.589,99.4h-.68a1.612,1.612,0,0,1-1.293-.442,2.274,2.274,0,0,1-.408-1.564V77.1a.332.332,0,0,0-.34-.374H188.59c-.238,0-.34.136-.34.374V97.6a5.405,5.405,0,0,0,.952,3.571,4.039,4.039,0,0,0,3.231,1.122h1.224c.238,0,.34-.136.34-.374V99.743C193.929,99.506,193.827,99.4,193.589,99.4Z" fill="#fff"></path>
    <path id="Path_10" data-name="Path 10" d="M161.113,84.509a6.748,6.748,0,0,0-3.128-.68h-1.7a6.13,6.13,0,0,0-3.027.714,4.89,4.89,0,0,0-1.428,1.224,5.291,5.291,0,0,0-4.454-1.938h-1.7a6.748,6.748,0,0,0-3.128.68,5.21,5.21,0,0,0-1.428,1.156,7.417,7.417,0,0,0-1.564,4.9v11.221a.34.34,0,0,0,.374.374h2.278c.238,0,.34-.136.34-.374V90.8a8.021,8.021,0,0,1,.136-.952c0-.068.034-.1.034-.17a3.883,3.883,0,0,1,.918-1.734,3.571,3.571,0,0,1,2.789-1.156,3.8,3.8,0,0,1,2.788,1.156,3.7,3.7,0,0,1,.952,1.8c.034.1.034.2.068.272a.748.748,0,0,1,.034.272,2.245,2.245,0,0,1,.034.476v10.983a.34.34,0,0,0,.374.374h2.278c.238,0,.34-.136.34-.374V90.766c0-.17.034-.34.034-.476a1.708,1.708,0,0,1,.068-.408c0-.068.034-.136.034-.2a3.875,3.875,0,0,1,.919-1.734,3.619,3.619,0,0,1,2.788-1.156,3.688,3.688,0,0,1,2.788,1.156,3.883,3.883,0,0,1,.918,1.734.307.307,0,0,1,.034.17,8.021,8.021,0,0,1,.136.952v10.983c0,.238.1.374.34.374h2.279a.34.34,0,0,0,.374-.374V90.562a7.234,7.234,0,0,0-1.565-4.9A2.969,2.969,0,0,0,161.113,84.509Z" fill="#fff"></path>
    <path id="Path_11" data-name="Path 11" d="M67.774,59.039a4.637,4.637,0,0,1-1.666,1.326,4.488,4.488,0,0,1-1.836.408H59.137a9.347,9.347,0,0,1-5.509-1.5,5.073,5.073,0,0,1-2.04-4.455V8.917c0-.578-.272-.884-.85-.884H45.366a.781.781,0,0,0-.85.884V65.772c0,4.319-1.156,7.447-3.435,9.385a13.15,13.15,0,0,1-8.807,2.89,17.127,17.127,0,0,1-4.455-.612,11.766,11.766,0,0,1-4.182-2.074,10.163,10.163,0,0,1-3.128-3.945,14.146,14.146,0,0,1-1.224-6.257,21.492,21.492,0,0,1,1.394-7.549,34.841,34.841,0,0,1,2.89-6.053.731.731,0,0,0-.238-1.122l-4.625-2.618c-.544-.34-.952-.306-1.156.1a33.933,33.933,0,0,0-3.808,8.025,30.4,30.4,0,0,0-1.632,9.929,21.9,21.9,0,0,0,1.428,8.195,17.233,17.233,0,0,0,3.979,6.019,16.328,16.328,0,0,0,6.223,3.706,24.827,24.827,0,0,0,8.195,1.258c6.393,0,11.255-1.7,14.622-5.067s5.067-8.093,5.067-14.112V64.786a8.248,8.248,0,0,0,6.7,2.788h5.373a19.082,19.082,0,0,0,5.1-.748,7.222,7.222,0,0,0,3.333-2.006,13.283,13.283,0,0,1-3.468-7.277A6.949,6.949,0,0,1,67.774,59.039Z" fill="#fff"></path>
    <path id="Path_12" data-name="Path 12" d="M193.117,14.936H187.4a.781.781,0,0,0-.85.884v6.393c0,.578.272.884.85.884h5.712a.781.781,0,0,0,.851-.884V15.821C193.934,15.209,193.662,14.936,193.117,14.936Z" fill="#fff"></path>
    <path id="Path_13" data-name="Path 13" d="M177.163,23.065h5.712a.781.781,0,0,0,.85-.884V15.788c0-.578-.272-.884-.85-.884h-5.712a.782.782,0,0,0-.851.884v6.393C176.312,22.793,176.585,23.065,177.163,23.065Z" fill="#fff"></path>
    <path id="Path_14" data-name="Path 14" d="M187.806,31.735h-5.372a.781.781,0,0,0-.85.884v23.5c0,1.768-.306,2.958-.953,3.639a4.051,4.051,0,0,1-3.06,1.02h-6.7a9.781,9.781,0,0,1-5.338-1.326,4.826,4.826,0,0,1-2.211-4.047c0-.476,0-.918.034-1.394s.034-.918.034-1.394V47.343c0-5.373-1.326-9.317-4.012-11.833a14.609,14.609,0,0,0-10.4-3.774h-7.481l15.1-18.5a.905.905,0,0,0-.34-1.224l-4.012-3.5c-.408-.238-.748-.136-1.088.272L132.788,31.395a6.135,6.135,0,0,0-.476.578,1.376,1.376,0,0,0-.307.85v4.9c0,.578.273.884.851.884h13.5c6.393,0,9.555,2.958,9.555,8.841v5.441a23.161,23.161,0,0,1-.238,3.774,5.059,5.059,0,0,1-1.02,2.414,4.243,4.243,0,0,1-2.176,1.326,14.159,14.159,0,0,1-3.774.408H122.96a4.051,4.051,0,0,1-3.06-1.02c-.646-.68-.952-1.87-.952-3.639V8.884c0-.578-.272-.884-.85-.884h-5.373a.781.781,0,0,0-.85.884V56.558c0,3.808.748,6.6,2.278,8.365s4.013,2.686,7.549,2.686H151.32a16.617,16.617,0,0,0,6.461-1.088,8,8,0,0,0,3.944-3.911,6.788,6.788,0,0,0,3.231,3.707,10.272,10.272,0,0,0,5.066,1.258h8.807c3.537,0,6.053-.884,7.549-2.686,1.5-1.768,2.278-4.557,2.278-8.365v-23.9C188.656,32.041,188.384,31.735,187.806,31.735Z" fill="#fff"></path>
    <path id="Path_15" data-name="Path 15" d="M104.945,66.521V42.31A11.888,11.888,0,0,0,93.35,30.17H70.8V54.381a12.479,12.479,0,0,0,2.788,7.889c.34.408.68.782.986,1.088A11.329,11.329,0,0,0,82.4,66.521ZM78.014,54.381V37.719H93.35a4.488,4.488,0,0,1,4.386,4.591V58.972H82.4A4.487,4.487,0,0,1,78.014,54.381Z" fill="#fff"></path>
  </g>
</svg>
