<?xml version="1.0" encoding="UTF-8"?>
<svg xmlns="http://www.w3.org/2000/svg" width="46" height="46" viewBox="0 0 46 46" fill="none">
  <g filter="url(#filter0_d_251_5763)">
    <g clip-path="url(#clip0_251_5763)">
      <rect x="1" y="1" width="44" height="44" rx="12" fill="white" fill-opacity="0.07" shape-rendering="crispEdges"></rect>
      <path d="M35.9671 26.0044C36.1851 26.6196 35.8629 27.295 35.2477 27.513C34.617 27.7363 33.8884 28.2172 33.1166 28.894C32.357 29.5601 31.6183 30.3602 30.9638 31.1447C30.3117 31.9265 29.7576 32.6754 29.3665 33.2297C29.1712 33.5062 29.0176 33.7328 28.9136 33.8889L28.7597 34.1236C28.5313 34.483 28.1271 34.6919 27.7017 34.6702C27.2764 34.6483 26.8956 34.3993 26.7051 34.0184C26.1843 32.9767 25.7171 32.562 25.4817 32.405C25.382 32.3386 25.3147 32.312 25.2879 32.3029C24.687 32.2471 24.2168 31.7416 24.2168 31.1263C24.2168 30.4735 24.7459 29.9444 25.3986 29.9444C25.496 29.9454 25.7378 29.9631 25.9264 30.0268C26.172 30.097 26.4685 30.2222 26.7928 30.4383C27.1169 30.6545 27.4569 30.9531 27.7982 31.3619C28.1706 30.8528 28.6297 30.2529 29.1488 29.6305C29.8499 28.79 30.6753 27.8911 31.5581 27.1169C32.4288 26.3535 33.4208 25.6524 34.4586 25.2849C35.0738 25.0671 35.7492 25.3891 35.9671 26.0044Z" fill="#94E52F"></path>
      <path opacity="0.4" d="M21.2038 34.375C19.0304 34.375 17.3235 34.375 15.9779 34.223C14.6044 34.0678 13.4907 33.7444 12.5649 33.0132C12.2877 32.7943 12.0307 32.5525 11.7971 32.2905C11.0098 31.4075 10.6582 30.3371 10.4908 29.024C10.3281 27.7482 10.3281 26.1338 10.3281 24.0964V23.9718C10.3281 23.2913 10.3281 22.658 10.3342 22.0688C10.3375 21.743 10.3392 21.5801 10.4428 21.4776C10.5464 21.375 10.7106 21.375 11.0389 21.375H35.0265C35.3548 21.375 35.5189 21.375 35.6226 21.4776C35.7261 21.5801 35.7279 21.743 35.7312 22.0688C35.7329 22.2458 35.7342 22.4267 35.7352 22.6117C35.7371 23.016 35.738 23.2182 35.637 23.322C35.5359 23.4259 35.2852 23.4317 34.7837 23.4432C34.4781 23.4502 34.1683 23.5051 33.8645 23.6128C32.5216 24.0883 31.332 24.9543 30.3871 25.7829C29.4119 26.6382 28.5215 27.6112 27.7853 28.4938C27.7209 28.5709 27.6888 28.6095 27.6578 28.6333C27.5669 28.7033 27.4704 28.7239 27.3588 28.6972C27.3209 28.688 27.2705 28.6634 27.17 28.6142C26.9191 28.4916 26.6762 28.3991 26.4461 28.3313C26.0188 28.1952 25.5894 28.1722 25.4135 28.1706L25.3963 28.1705C23.7646 28.1705 22.4417 29.4933 22.4417 31.125C22.4417 32.4495 23.3123 33.5691 24.5131 33.9449L24.5186 33.9466C24.5589 33.9592 24.5824 33.9666 24.6107 34C24.7345 34.1454 24.6314 34.375 24.4406 34.375H21.2038Z" fill="#94E52F"></path>
      <path d="M24.8641 13.6934C27.0374 13.6933 28.7443 13.6933 30.0899 13.8453C31.4635 14.0005 32.5772 14.324 33.5029 15.0552C33.7802 15.274 34.0371 15.5158 34.2707 15.7779C35.0581 16.6609 35.4095 17.7313 35.577 19.0445C35.5963 19.1956 35.606 19.2711 35.5886 19.3375C35.5609 19.4435 35.4795 19.536 35.3779 19.5769C35.3142 19.6025 35.2345 19.6025 35.0752 19.6025H10.9951C10.8358 19.6025 10.7561 19.6025 10.6925 19.5769C10.5908 19.536 10.5094 19.4435 10.4817 19.3375C10.4644 19.2711 10.474 19.1956 10.4933 19.0445C10.6607 17.7313 11.0123 16.6609 11.7996 15.7779C12.0332 15.5158 12.2902 15.274 12.5674 15.0552C13.4932 14.324 14.6069 14.0005 15.9804 13.8453C17.326 13.6933 19.0329 13.6933 21.2062 13.6934H24.8641Z" fill="#94E52F"></path>
      <g filter="url(#filter1_f_251_5763)">
        <circle cx="24.4668" cy="25.4668" r="6.5" fill="#95E430"></circle>
      </g>
    </g>
  </g>
  <defs>
    <filter id="filter0_d_251_5763" x="0" y="0" width="46" height="46" filterUnits="userSpaceOnUse" color-interpolation-filters="sRGB">
      <feFlood flood-opacity="0" result="BackgroundImageFix"></feFlood>
      <feColorMatrix in="SourceAlpha" type="matrix" values="0 0 0 0 0 0 0 0 0 0 0 0 0 0 0 0 0 0 127 0" result="hardAlpha"></feColorMatrix>
      <feMorphology radius="1" operator="dilate" in="SourceAlpha" result="effect1_dropShadow_251_5763"></feMorphology>
      <feOffset></feOffset>
      <feComposite in2="hardAlpha" operator="out"></feComposite>
      <feColorMatrix type="matrix" values="0 0 0 0 0.176471 0 0 0 0 0.180392 0 0 0 0 0.282353 0 0 0 1 0"></feColorMatrix>
      <feBlend mode="normal" in2="BackgroundImageFix" result="effect1_dropShadow_251_5763"></feBlend>
      <feBlend mode="normal" in="SourceGraphic" in2="effect1_dropShadow_251_5763" result="shape"></feBlend>
    </filter>
    <filter id="filter1_f_251_5763" x="0.366796" y="1.3668" width="48.2" height="48.2" filterUnits="userSpaceOnUse" color-interpolation-filters="sRGB">
      <feFlood flood-opacity="0" result="BackgroundImageFix"></feFlood>
      <feBlend mode="normal" in="SourceGraphic" in2="BackgroundImageFix" result="shape"></feBlend>
      <feGaussianBlur stdDeviation="8.8" result="effect1_foregroundBlur_251_5763"></feGaussianBlur>
    </filter>
    <clipPath id="clip0_251_5763">
      <rect x="1" y="1" width="44" height="44" rx="12" fill="white"></rect>
    </clipPath>
  </defs>
</svg>
