<svg width="284" height="51" viewBox="0 0 284 51" fill="none" xmlns="http://www.w3.org/2000/svg">
<path d="M17.7061 22.7862L3.94624 18.8385C1.60927 18.1677 0 16.0317 0 13.6005V5.44878C0 2.43954 2.43954 0 5.44878 0H12.2573C15.2666 0 17.7061 2.43954 17.7061 5.44878V22.7848V22.7862Z" fill="#236D9B"/>
<path d="M12.2573 45.5723H5.44878C2.43954 45.5723 0 43.1328 0 40.1235V31.9718C0 29.5406 1.60927 27.4046 3.94624 26.7338L17.7061 22.7861V40.1221C17.7061 43.1314 15.2666 45.5709 12.2573 45.5709V45.5723Z" fill="#236D9B"/>
<path d="M47.1649 18.3992L17.7061 22.7862L32.475 2.26628C33.4993 0.844137 35.1446 0 36.8967 0H46.3624C49.3716 0 51.8112 2.43954 51.8112 5.44878V13.0086C51.8112 15.7073 49.8346 18 47.1649 18.3978V18.3992Z" fill="#236D9B"/>
<path d="M52.0223 50.5068H42.393C40.7324 50.5068 39.1634 49.75 38.1293 48.4512L17.7051 22.7875L53.3529 31.7639C55.7744 32.3738 57.471 34.5513 57.471 37.0477V45.058C57.471 48.0672 55.0315 50.5068 52.0223 50.5068Z" fill="#65B6D6"/>
<path d="M81.7668 2.60006C82.7588 2.60006 83.6268 2.97206 84.3708 3.71606C85.1562 4.41873 85.5488 5.30739 85.5488 6.38206V42.2181C85.5488 43.2927 85.1562 44.2021 84.3708 44.9461C83.5855 45.6487 82.6762 46.0001 81.6428 46.0001C80.4855 46.0001 79.5555 45.6487 78.8528 44.9461C78.1502 44.2021 77.7988 43.2927 77.7988 42.2181V6.38206C77.7988 5.30739 78.1708 4.41873 78.9148 3.71606C79.6588 2.97206 80.6095 2.60006 81.7668 2.60006ZM109.233 2.60006C110.39 2.60006 111.32 2.97206 112.023 3.71606C112.725 4.41873 113.077 5.30739 113.077 6.38206V42.2181C113.077 43.2927 112.705 44.2021 111.961 44.9461C111.258 45.6487 110.307 46.0001 109.109 46.0001C108.117 46.0001 107.228 45.6487 106.443 44.9461C105.699 44.2021 105.327 43.2927 105.327 42.2181V6.38206C105.327 5.30739 105.719 4.41873 106.505 3.71606C107.29 2.97206 108.199 2.60006 109.233 2.60006ZM81.5808 20.6421H109.233V27.7721H81.5808V20.6421Z" fill="url(#paint0_linear_524_5560)"/>
<path d="M150.013 2.41406C150.964 2.41406 151.811 2.78606 152.555 3.53006C153.341 4.23273 153.733 5.14206 153.733 6.25806C153.733 6.63006 153.671 7.02273 153.547 7.43606C153.465 7.80806 153.299 8.18006 153.051 8.55206L138.977 28.7021L140.093 24.4241V42.2181C140.093 43.2927 139.721 44.2021 138.977 44.9461C138.275 45.6487 137.448 46.0001 136.497 46.0001C135.464 46.0001 134.575 45.6487 133.831 44.9461C133.129 44.2021 132.777 43.2927 132.777 42.2181V24.9201L133.273 26.9041L119.881 9.11006C119.468 8.57273 119.179 8.05606 119.013 7.56006C118.848 7.06406 118.765 6.60939 118.765 6.19606C118.765 5.08006 119.199 4.17073 120.067 3.46806C120.935 2.76539 121.824 2.41406 122.733 2.41406C123.891 2.41406 124.903 2.99273 125.771 4.15006L137.675 20.5801L135.939 20.3321L146.913 4.27406C147.781 3.03406 148.815 2.41406 150.013 2.41406Z" fill="url(#paint1_linear_524_5560)"/>
<path d="M163.759 46.0001C162.602 46.0001 161.568 45.6487 160.659 44.9461C159.75 44.2021 159.295 43.2927 159.295 42.2181V6.38206C159.295 5.30739 159.646 4.41873 160.349 3.71606C161.093 2.97206 162.002 2.60006 163.077 2.60006H180.933C183.082 2.60006 185.087 3.17873 186.947 4.33606C188.848 5.45206 190.378 7.02273 191.535 9.04806C192.692 11.0321 193.271 13.3261 193.271 15.9301C193.271 17.5007 192.94 19.0301 192.279 20.5181C191.659 22.0061 190.791 23.3494 189.675 24.5481C188.6 25.7467 187.381 26.6767 186.017 27.3381L186.079 25.9121C187.236 26.5321 188.187 27.2761 188.931 28.1441C189.716 28.9707 190.316 29.8801 190.729 30.8721C191.184 31.8227 191.452 32.8561 191.535 33.9721C191.7 35.0054 191.804 35.9147 191.845 36.7001C191.928 37.4854 192.052 38.1467 192.217 38.6841C192.424 39.2214 192.796 39.6347 193.333 39.9241C194.242 40.4614 194.8 41.2467 195.007 42.2801C195.255 43.2721 195.028 44.1607 194.325 44.9461C193.87 45.4834 193.292 45.8347 192.589 46.0001C191.886 46.1241 191.184 46.1241 190.481 46.0001C189.778 45.8347 189.2 45.6281 188.745 45.3801C188.042 44.9667 187.34 44.3674 186.637 43.5821C185.934 42.7554 185.356 41.6601 184.901 40.2961C184.488 38.9321 184.281 37.1754 184.281 35.0261C184.281 34.3234 184.157 33.6827 183.909 33.1041C183.661 32.4841 183.31 31.9674 182.855 31.5541C182.4 31.0994 181.822 30.7687 181.119 30.5621C180.416 30.3141 179.59 30.1901 178.639 30.1901H166.115L167.045 28.7641V42.2181C167.045 43.2927 166.756 44.2021 166.177 44.9461C165.598 45.6487 164.792 46.0001 163.759 46.0001ZM166.177 23.8041H180.623C181.367 23.8041 182.09 23.4734 182.793 22.8121C183.496 22.1094 184.074 21.1794 184.529 20.0221C184.984 18.8234 185.211 17.5214 185.211 16.1161C185.211 14.2974 184.715 12.7887 183.723 11.5901C182.772 10.3501 181.739 9.73006 180.623 9.73006H166.301L167.045 7.74606V25.2921L166.177 23.8041Z" fill="url(#paint2_linear_524_5560)"/>
<path d="M220.459 2.60006C223.435 2.60006 226.081 3.15806 228.395 4.27406C230.71 5.39006 232.653 6.96073 234.223 8.98606C235.835 10.9701 237.034 13.2847 237.819 15.9301C238.646 18.5341 239.059 21.3241 239.059 24.3001C239.059 28.3094 238.336 31.9674 236.889 35.2741C235.443 38.5394 233.335 41.1434 230.565 43.0861C227.837 45.0287 224.469 46.0001 220.459 46.0001H205.641C204.567 46.0001 203.657 45.6487 202.913 44.9461C202.211 44.2021 201.859 43.2927 201.859 42.2181V6.38206C201.859 5.30739 202.211 4.41873 202.913 3.71606C203.657 2.97206 204.567 2.60006 205.641 2.60006H220.459ZM219.839 38.8701C222.443 38.8701 224.572 38.2087 226.225 36.8861C227.879 35.5221 229.077 33.7447 229.821 31.5541C230.607 29.3221 230.999 26.9041 230.999 24.3001C230.999 22.3574 230.772 20.5181 230.317 18.7821C229.904 17.0047 229.243 15.4547 228.333 14.1321C227.424 12.7681 226.267 11.6934 224.861 10.9081C223.456 10.1227 221.782 9.73006 219.839 9.73006H208.989L209.609 9.17206V39.5521L209.237 38.8701H219.839Z" fill="url(#paint3_linear_524_5560)"/>
<path d="M264.78 2.60006C267.756 2.60006 270.401 3.15806 272.716 4.27406C275.03 5.39006 276.973 6.96073 278.544 8.98606C280.156 10.9701 281.354 13.2847 282.14 15.9301C282.966 18.5341 283.38 21.3241 283.38 24.3001C283.38 28.3094 282.656 31.9674 281.21 35.2741C279.763 38.5394 277.655 41.1434 274.886 43.0861C272.158 45.0287 268.789 46.0001 264.78 46.0001H249.962C248.887 46.0001 247.978 45.6487 247.234 44.9461C246.531 44.2021 246.18 43.2927 246.18 42.2181V6.38206C246.18 5.30739 246.531 4.41873 247.234 3.71606C247.978 2.97206 248.887 2.60006 249.962 2.60006H264.78ZM264.16 38.8701C266.764 38.8701 268.892 38.2087 270.546 36.8861C272.199 35.5221 273.398 33.7447 274.142 31.5541C274.927 29.3221 275.32 26.9041 275.32 24.3001C275.32 22.3574 275.092 20.5181 274.638 18.7821C274.224 17.0047 273.563 15.4547 272.654 14.1321C271.744 12.7681 270.587 11.6934 269.182 10.9081C267.776 10.1227 266.102 9.73006 264.16 9.73006H253.31L253.93 9.17206V39.5521L253.558 38.8701H264.16Z" fill="url(#paint4_linear_524_5560)"/>
<defs>
<linearGradient id="paint0_linear_524_5560" x1="211.466" y1="-4.01242" x2="144.114" y2="-3.41613" gradientUnits="userSpaceOnUse">
<stop stop-color="#236D9B"/>
<stop offset="1" stop-color="#65B6D6"/>
</linearGradient>
<linearGradient id="paint1_linear_524_5560" x1="211.466" y1="-4.01242" x2="144.114" y2="-3.41613" gradientUnits="userSpaceOnUse">
<stop stop-color="#236D9B"/>
<stop offset="1" stop-color="#65B6D6"/>
</linearGradient>
<linearGradient id="paint2_linear_524_5560" x1="211.466" y1="-4.01242" x2="144.114" y2="-3.41613" gradientUnits="userSpaceOnUse">
<stop stop-color="#236D9B"/>
<stop offset="1" stop-color="#65B6D6"/>
</linearGradient>
<linearGradient id="paint3_linear_524_5560" x1="211.466" y1="-4.01242" x2="144.114" y2="-3.41613" gradientUnits="userSpaceOnUse">
<stop stop-color="#236D9B"/>
<stop offset="1" stop-color="#65B6D6"/>
</linearGradient>
<linearGradient id="paint4_linear_524_5560" x1="211.466" y1="-4.01242" x2="144.114" y2="-3.41613" gradientUnits="userSpaceOnUse">
<stop stop-color="#236D9B"/>
<stop offset="1" stop-color="#65B6D6"/>
</linearGradient>
</defs>
</svg>
