<svg width="100" height="100" viewBox="0 0 100 100" fill="none" xmlns="http://www.w3.org/2000/svg">
<path d="M58.0602 28.8652C57.8364 28.8652 57.6152 28.8172 57.4115 28.7242C57.2079 28.6313 57.0266 28.4957 56.8799 28.3266C56.7332 28.1575 56.6246 27.9589 56.5614 27.7442C56.4981 27.5294 56.4818 27.3036 56.5134 27.082C57.2302 22.0371 54.8278 20.7852 54.6423 20.6953C51.4177 19.4082 48.8571 19.3438 47.0251 20.5C43.9587 22.4395 43.5759 27.3359 43.5739 27.3926C43.5545 27.704 43.4423 28.0025 43.2517 28.2496C43.0612 28.4967 42.801 28.6811 42.5048 28.779C42.2085 28.8769 41.8897 28.8839 41.5894 28.799C41.2892 28.7141 41.0212 28.5413 40.82 28.3027C37.9274 24.873 37.3356 20.9043 39.154 17.1309C41.238 12.8105 46.2438 9.62695 50.8923 9.62695H51.1735C54.5446 9.7207 57.1833 11.4355 58.6696 14.4766C60.947 15.502 61.8356 17.123 62.1852 18.3496C63.4235 22.8027 59.3278 28.2246 59.2849 28.2773C59.1381 28.4612 58.9518 28.6095 58.7398 28.7113C58.5277 28.8131 58.2955 28.8657 58.0602 28.8652ZM50.8825 12.7578C47.4177 12.7578 43.5329 15.2441 41.9665 18.4941C41.269 19.8747 41.0789 21.4564 41.4294 22.9629C42.1306 21.1445 43.3239 19.1484 45.3493 17.8652C48.0837 16.1328 51.611 16.1074 55.8259 17.8027C55.9548 17.8535 58.029 18.7187 59.1169 21.502C59.3122 20.6719 59.3571 19.8535 59.1501 19.1582C58.8845 18.2559 58.1735 17.6074 56.9665 17.1719C56.7619 17.0976 56.5751 16.9814 56.418 16.8307C56.2609 16.68 56.1371 16.4982 56.0544 16.2969C54.8825 13.457 52.7009 12.8066 51.0817 12.7598L50.8825 12.7578Z" fill="url(#paint0_linear_468_6010)"/>
<path d="M50.0351 37.0606C45.9453 37.0606 42.3887 33.5918 40.5234 27.7793C40.4076 27.3879 40.4495 26.9667 40.6403 26.6058C40.831 26.245 41.1554 25.973 41.544 25.8483C41.9327 25.7235 42.3547 25.7557 42.7199 25.9381C43.0851 26.1205 43.3644 26.4386 43.498 26.8243C44.9062 31.211 47.4043 33.9356 50.0351 33.9356C52.666 33.9356 55.1641 31.211 56.5723 26.8243C56.6989 26.4295 56.9772 26.1013 57.3458 25.9117C57.7145 25.7222 58.1434 25.6869 58.5381 25.8135C58.9328 25.9402 59.261 26.2184 59.4506 26.5871C59.6401 26.9557 59.6755 27.3846 59.5488 27.7793C57.6816 33.5938 54.1269 37.0606 50.0351 37.0606Z" fill="url(#paint1_linear_468_6010)"/>
<path d="M44.5117 38.8066C44.0973 38.8066 43.6999 38.642 43.4069 38.349C43.1138 38.056 42.9492 37.6585 42.9492 37.2441V32.3203C42.9492 31.9059 43.1138 31.5085 43.4069 31.2155C43.6999 30.9224 44.0973 30.7578 44.5117 30.7578C44.9261 30.7578 45.3235 30.9224 45.6166 31.2155C45.9096 31.5085 46.0742 31.9059 46.0742 32.3203V37.2441C46.0742 37.6585 45.9096 38.056 45.6166 38.349C45.3235 38.642 44.9261 38.8066 44.5117 38.8066ZM55.4883 38.8066C55.0739 38.8066 54.6765 38.642 54.3834 38.349C54.0904 38.056 53.9258 37.6585 53.9258 37.2441V32.4102C53.9258 31.9958 54.0904 31.5983 54.3834 31.3053C54.6765 31.0123 55.0739 30.8477 55.4883 30.8477C55.9027 30.8477 56.3001 31.0123 56.5931 31.3053C56.8862 31.5983 57.0508 31.9958 57.0508 32.4102V37.2441C57.0508 37.6585 56.8862 38.056 56.5931 38.349C56.3001 38.642 55.9027 38.8066 55.4883 38.8066Z" fill="url(#paint2_linear_468_6010)"/>
<path d="M34.0176 56.25C33.6032 56.25 33.2058 56.0854 32.9127 55.7924C32.6197 55.4993 32.4551 55.1019 32.4551 54.6875V45.0527C32.4551 42.5663 33.4428 40.1818 35.201 38.4236C36.9591 36.6655 39.3437 35.6777 41.8301 35.6777H44.5117C44.9261 35.6777 45.3235 35.8424 45.6166 36.1354C45.9096 36.4284 46.0742 36.8258 46.0742 37.2402C46.0742 37.6546 45.9096 38.0521 45.6166 38.3451C45.3235 38.6381 44.9261 38.8027 44.5117 38.8027H41.8262C40.1686 38.8027 38.5789 39.4612 37.4068 40.6333C36.2347 41.8054 35.5762 43.3951 35.5762 45.0527V54.6875C35.5762 55.1012 35.4121 55.4981 35.1199 55.791C34.8277 56.0839 34.4313 56.249 34.0176 56.25ZM65.9824 56.25C65.568 56.25 65.1706 56.0854 64.8776 55.7924C64.5845 55.4993 64.4199 55.1019 64.4199 54.6875V45.0527C64.4199 43.3951 63.7614 41.8054 62.5893 40.6333C61.4172 39.4612 59.8275 38.8027 58.1699 38.8027H55.4883C55.0739 38.8027 54.6765 38.6381 54.3834 38.3451C54.0904 38.0521 53.9258 37.6546 53.9258 37.2402C53.9258 36.8258 54.0904 36.4284 54.3834 36.1354C54.6765 35.8424 55.0739 35.6777 55.4883 35.6777H58.1738C60.6602 35.6777 63.0448 36.6655 64.803 38.4236C66.5611 40.1818 67.5488 42.5663 67.5488 45.0527V54.6875C67.5488 54.893 67.5083 55.0965 67.4295 55.2864C67.3507 55.4762 67.2353 55.6486 67.0898 55.7937C66.9443 55.9389 66.7716 56.0539 66.5816 56.1322C66.3915 56.2105 66.1879 56.2505 65.9824 56.25Z" fill="url(#paint3_linear_468_6010)"/>
<path d="M50 45.5234C49.7682 45.5235 49.5393 45.4721 49.3299 45.3728C49.1204 45.2734 48.9357 45.1288 48.7891 44.9492L43.3008 38.2324C43.047 37.9107 42.9297 37.5021 42.9743 37.0947C43.0188 36.6873 43.2217 36.3138 43.5391 36.0545C43.8565 35.7953 44.263 35.6711 44.6711 35.7088C45.0792 35.7464 45.4561 35.9429 45.7207 36.2559L50 41.4922L54.2793 36.2559C54.5439 35.9429 54.9208 35.7464 55.3289 35.7088C55.737 35.6711 56.1435 35.7953 56.4609 36.0545C56.7783 36.3138 56.9812 36.6873 57.0258 37.0947C57.0703 37.5021 56.9531 37.9107 56.6992 38.2324L51.2109 44.9492C51.0643 45.1288 50.8796 45.2734 50.6702 45.3728C50.4607 45.4721 50.2318 45.5235 50 45.5234Z" fill="url(#paint4_linear_468_6010)"/>
<path d="M50 61.5039C34.2812 61.5039 21.4941 48.7168 21.4941 32.998C21.4941 17.2793 34.2812 4.49219 50 4.49219C65.7188 4.49219 78.5156 17.2793 78.5156 33.0078C78.5156 48.7363 65.7188 61.5039 50 61.5039ZM50 7.61719C44.9782 7.61719 40.0692 9.10632 35.8937 11.8963C31.7183 14.6862 28.4639 18.6517 26.5421 23.2912C24.6204 27.9308 24.1175 33.036 25.0972 37.9613C26.077 42.8866 28.4952 47.4108 32.0461 50.9617C35.5971 54.5126 40.1212 56.9309 45.0465 57.9106C49.9718 58.8903 55.077 58.3874 59.7166 56.4657C64.3561 54.5439 68.3216 51.2896 71.1115 47.1141C73.9015 42.9386 75.3906 38.0296 75.3906 33.0078C75.3855 26.2754 72.7087 19.8202 67.9482 15.0596C63.1876 10.2991 56.7324 7.62236 50 7.61719ZM70.9219 78.5156H29.0781C28.1275 78.5313 27.1833 78.3576 26.3004 78.0047C25.4176 77.6518 24.6139 77.1267 23.9361 76.4599C23.2583 75.7932 22.7199 74.9983 22.3525 74.1214C21.985 73.2445 21.7958 72.3033 21.7958 71.3525C21.7958 70.4018 21.985 69.4605 22.3525 68.5837C22.7199 67.7068 23.2583 66.9118 23.9361 66.2451C24.6139 65.5784 25.4176 65.0533 26.3004 64.7004C27.1833 64.3474 28.1275 64.1738 29.0781 64.1895H70.9219C71.8725 64.1738 72.8167 64.3474 73.6996 64.7004C74.5824 65.0533 75.3861 65.5784 76.0639 66.2451C76.7417 66.9118 77.2801 67.7068 77.6475 68.5837C78.015 69.4605 78.2042 70.4018 78.2042 71.3525C78.2042 72.3033 78.015 73.2445 77.6475 74.1214C77.2801 74.9983 76.7417 75.7932 76.0639 76.4599C75.3861 77.1267 74.5824 77.6518 73.6996 78.0047C72.8167 78.3576 71.8725 78.5313 70.9219 78.5156ZM29.0781 67.3047C28.5404 67.2929 28.0057 67.3886 27.5054 67.5862C27.0051 67.7838 26.5493 68.0793 26.1648 68.4555C25.7803 68.8316 25.4748 69.2808 25.2663 69.7766C25.0577 70.2724 24.9502 70.8049 24.9502 71.3428C24.9502 71.8807 25.0577 72.4131 25.2663 72.909C25.4748 73.4048 25.7803 73.8539 26.1648 74.23C26.5493 74.6062 27.0051 74.9017 27.5054 75.0994C28.0057 75.297 28.5404 75.3927 29.0781 75.3809H70.9219C71.4596 75.3927 71.9943 75.297 72.4946 75.0994C72.9949 74.9017 73.4507 74.6062 73.8352 74.23C74.2197 73.8539 74.5252 73.4048 74.7337 72.909C74.9423 72.4131 75.0497 71.8807 75.0497 71.3428C75.0497 70.8049 74.9423 70.2724 74.7337 69.7766C74.5252 69.2808 74.2197 68.8316 73.8352 68.4555C73.4507 68.0793 72.9949 67.7838 72.4946 67.5862C71.9943 67.3886 71.4596 67.2929 70.9219 67.3047H29.0781Z" fill="url(#paint5_linear_468_6010)"/>
<path d="M34.5703 72.9062H29.9062C29.4918 72.9062 29.0944 72.7416 28.8014 72.4486C28.5084 72.1556 28.3437 71.7582 28.3437 71.3438C28.3437 70.9293 28.5084 70.5319 28.8014 70.2389C29.0944 69.9459 29.4918 69.7812 29.9062 69.7812H34.5703C34.9847 69.7812 35.3821 69.9459 35.6752 70.2389C35.9682 70.5319 36.1328 70.9293 36.1328 71.3438C36.1328 71.7582 35.9682 72.1556 35.6752 72.4486C35.3821 72.7416 34.9847 72.9062 34.5703 72.9062ZM46.4082 72.9062H41.748C41.3336 72.9062 40.9362 72.7416 40.6432 72.4486C40.3502 72.1556 40.1855 71.7582 40.1855 71.3438C40.1855 70.9293 40.3502 70.5319 40.6432 70.2389C40.9362 69.9459 41.3336 69.7812 41.748 69.7812H46.4082C46.8226 69.7812 47.22 69.9459 47.5131 70.2389C47.8061 70.5319 47.9707 70.9293 47.9707 71.3438C47.9707 71.7582 47.8061 72.1556 47.5131 72.4486C47.22 72.7416 46.8226 72.9062 46.4082 72.9062ZM58.2519 72.9062H53.5918C53.1774 72.9062 52.78 72.7416 52.4869 72.4486C52.1939 72.1556 52.0293 71.7582 52.0293 71.3438C52.0293 70.9293 52.1939 70.5319 52.4869 70.2389C52.78 69.9459 53.1774 69.7812 53.5918 69.7812H58.2519C58.6664 69.7812 59.0638 69.9459 59.3568 70.2389C59.6498 70.5319 59.8144 70.9293 59.8144 71.3438C59.8144 71.7582 59.6498 72.1556 59.3568 72.4486C59.0638 72.7416 58.6664 72.9062 58.2519 72.9062ZM70.0937 72.9062H65.4297C65.0153 72.9062 64.6179 72.7416 64.3248 72.4486C64.0318 72.1556 63.8672 71.7582 63.8672 71.3438C63.8672 70.9293 64.0318 70.5319 64.3248 70.2389C64.6179 69.9459 65.0153 69.7812 65.4297 69.7812H70.0879C70.5023 69.7812 70.8997 69.9459 71.1927 70.2389C71.4858 70.5319 71.6504 70.9293 71.6504 71.3438C71.6504 71.7582 71.4858 72.1556 71.1927 72.4486C70.8997 72.7416 70.5023 72.9062 70.0879 72.9062H70.0937ZM70.9219 95.5078H29.0781C28.1275 95.5235 27.1833 95.3498 26.3004 94.9969C25.4176 94.644 24.6139 94.1188 23.9361 93.4521C23.2583 92.7854 22.7199 91.9905 22.3525 91.1136C21.985 90.2367 21.7958 89.2955 21.7958 88.3447C21.7958 87.394 21.985 86.4527 22.3525 85.5759C22.7199 84.699 23.2583 83.904 23.9361 83.2373C24.6139 82.5706 25.4176 82.0455 26.3004 81.6926C27.1833 81.3396 28.1275 81.1659 29.0781 81.1816H70.9219C71.8725 81.1659 72.8167 81.3396 73.6996 81.6926C74.5824 82.0455 75.3861 82.5706 76.0639 83.2373C76.7417 83.904 77.2801 84.699 77.6475 85.5759C78.015 86.4527 78.2042 87.394 78.2042 88.3447C78.2042 89.2955 78.015 90.2367 77.6475 91.1136C77.2801 91.9905 76.7417 92.7854 76.0639 93.4521C75.3861 94.1188 74.5824 94.644 73.6996 94.9969C72.8167 95.3498 71.8725 95.5235 70.9219 95.5078ZM29.0781 84.3066C28.5404 84.2948 28.0057 84.3905 27.5054 84.5881C27.0051 84.7858 26.5493 85.0813 26.1648 85.4575C25.7803 85.8336 25.4748 86.2827 25.2663 86.7786C25.0577 87.2744 24.9502 87.8068 24.9502 88.3447C24.9502 88.8826 25.0577 89.4151 25.2663 89.9109C25.4748 90.4067 25.7803 90.8559 26.1648 91.232C26.5493 91.6081 27.0051 91.9037 27.5054 92.1013C28.0057 92.2989 28.5404 92.3946 29.0781 92.3828H70.9219C71.4596 92.3946 71.9943 92.2989 72.4946 92.1013C72.9949 91.9037 73.4507 91.6081 73.8352 91.232C74.2197 90.8559 74.5252 90.4067 74.7337 89.9109C74.9423 89.4151 75.0497 88.8826 75.0497 88.3447C75.0497 87.8068 74.9423 87.2744 74.7337 86.7786C74.5252 86.2827 74.2197 85.8336 73.8352 85.4575C73.4507 85.0813 72.9949 84.7858 72.4946 84.5881C71.9943 84.3905 71.4596 84.2948 70.9219 84.3066H29.0781Z" fill="url(#paint6_linear_468_6010)"/>
<path d="M34.5703 89.9082H29.9063C29.4918 89.9082 29.0944 89.7436 28.8014 89.4506C28.5084 89.1575 28.3438 88.7601 28.3438 88.3457C28.3438 87.9313 28.5084 87.5339 28.8014 87.2409C29.0944 86.9478 29.4918 86.7832 29.9063 86.7832H34.5703C34.9847 86.7832 35.3821 86.9478 35.6752 87.2409C35.9682 87.5339 36.1328 87.9313 36.1328 88.3457C36.1328 88.7601 35.9682 89.1575 35.6752 89.4506C35.3821 89.7436 34.9847 89.9082 34.5703 89.9082ZM46.4082 89.9082H41.748C41.3336 89.9082 40.9362 89.7436 40.6432 89.4506C40.3502 89.1575 40.1855 88.7601 40.1855 88.3457C40.1855 87.9313 40.3502 87.5339 40.6432 87.2409C40.9362 86.9478 41.3336 86.7832 41.748 86.7832H46.4082C46.8226 86.7832 47.22 86.9478 47.5131 87.2409C47.8061 87.5339 47.9707 87.9313 47.9707 88.3457C47.9707 88.7601 47.8061 89.1575 47.5131 89.4506C47.22 89.7436 46.8226 89.9082 46.4082 89.9082ZM58.252 89.9082H53.5918C53.1774 89.9082 52.78 89.7436 52.4869 89.4506C52.1939 89.1575 52.0293 88.7601 52.0293 88.3457C52.0293 87.9313 52.1939 87.5339 52.4869 87.2409C52.78 86.9478 53.1774 86.7832 53.5918 86.7832H58.252C58.6664 86.7832 59.0638 86.9478 59.3568 87.2409C59.6498 87.5339 59.8145 87.9313 59.8145 88.3457C59.8145 88.7601 59.6498 89.1575 59.3568 89.4506C59.0638 89.7436 58.6664 89.9082 58.252 89.9082ZM70.0938 89.9082H65.4297C65.0153 89.9082 64.6179 89.7436 64.3248 89.4506C64.0318 89.1575 63.8672 88.7601 63.8672 88.3457C63.8672 87.9313 64.0318 87.5339 64.3248 87.2409C64.6179 86.9478 65.0153 86.7832 65.4297 86.7832H70.0879C70.5023 86.7832 70.8997 86.9478 71.1928 87.2409C71.4858 87.5339 71.6504 87.9313 71.6504 88.3457C71.6504 88.7601 71.4858 89.1575 71.1928 89.4506C70.8997 89.7436 70.5023 89.9082 70.0879 89.9082H70.0938Z" fill="url(#paint7_linear_468_6010)"/>
<defs>
<linearGradient id="paint0_linear_468_6010" x1="50.2688" y1="9.62695" x2="50.2688" y2="28.8652" gradientUnits="userSpaceOnUse">
<stop stop-color="#72C7D8"/>
<stop offset="0.489583" stop-color="#26519A"/>
<stop offset="1" stop-color="#41A575"/>
</linearGradient>
<linearGradient id="paint1_linear_468_6010" x1="50.0414" y1="25.7388" x2="50.0414" y2="37.0606" gradientUnits="userSpaceOnUse">
<stop stop-color="#72C7D8"/>
<stop offset="0.489583" stop-color="#26519A"/>
<stop offset="1" stop-color="#41A575"/>
</linearGradient>
<linearGradient id="paint2_linear_468_6010" x1="50" y1="30.7578" x2="50" y2="38.8066" gradientUnits="userSpaceOnUse">
<stop stop-color="#72C7D8"/>
<stop offset="0.489583" stop-color="#26519A"/>
<stop offset="1" stop-color="#41A575"/>
</linearGradient>
<linearGradient id="paint3_linear_468_6010" x1="50.002" y1="35.6777" x2="50.002" y2="56.25" gradientUnits="userSpaceOnUse">
<stop stop-color="#72C7D8"/>
<stop offset="0.489583" stop-color="#26519A"/>
<stop offset="1" stop-color="#41A575"/>
</linearGradient>
<linearGradient id="paint4_linear_468_6010" x1="50" y1="35.7021" x2="50" y2="45.5234" gradientUnits="userSpaceOnUse">
<stop stop-color="#72C7D8"/>
<stop offset="0.489583" stop-color="#26519A"/>
<stop offset="1" stop-color="#41A575"/>
</linearGradient>
<linearGradient id="paint5_linear_468_6010" x1="50.0049" y1="4.49219" x2="50.0049" y2="78.5166" gradientUnits="userSpaceOnUse">
<stop stop-color="#72C7D8"/>
<stop offset="0.489583" stop-color="#26519A"/>
<stop offset="1" stop-color="#41A575"/>
</linearGradient>
<linearGradient id="paint6_linear_468_6010" x1="50" y1="69.7812" x2="50" y2="95.5088" gradientUnits="userSpaceOnUse">
<stop stop-color="#72C7D8"/>
<stop offset="0.489583" stop-color="#26519A"/>
<stop offset="1" stop-color="#41A575"/>
</linearGradient>
<linearGradient id="paint7_linear_468_6010" x1="49.9971" y1="86.7832" x2="49.9971" y2="89.9082" gradientUnits="userSpaceOnUse">
<stop stop-color="#72C7D8"/>
<stop offset="0.489583" stop-color="#26519A"/>
<stop offset="1" stop-color="#41A575"/>
</linearGradient>
</defs>
</svg>
