<svg width="90" height="90" viewBox="0 0 90 90" fill="none" xmlns="http://www.w3.org/2000/svg">
<path d="M45.0001 85.6055C34.945 85.6144 25.2443 81.8924 17.7758 75.1599C10.3074 68.4274 5.60257 59.1633 4.57215 49.1612C3.54172 39.1591 6.25902 29.1304 12.198 21.0167C18.1369 12.9029 26.8751 7.28127 36.7208 5.24005C36.8743 5.20817 37.0329 5.21092 37.1853 5.24808C37.3376 5.28525 37.4797 5.35591 37.6012 5.45491C37.7228 5.55391 37.8208 5.67877 37.888 5.8204C37.9552 5.96203 37.99 6.11687 37.9899 6.27364V36.5942L67.5317 77.465C67.6152 77.5805 67.6743 77.7117 67.7057 77.8507C67.7371 77.9897 67.7399 78.1336 67.7141 78.2737C67.6883 78.4139 67.6344 78.5473 67.5556 78.666C67.4768 78.7847 67.3748 78.8863 67.2557 78.9645C60.6464 83.3072 52.9085 85.6162 45.0001 85.6055ZM35.8805 7.592C18.7823 11.7475 6.50396 27.2725 6.50396 45C6.50396 66.2274 23.7727 83.4961 45.0001 83.4961C52.1217 83.5054 59.1051 81.5308 65.1674 77.7938L36.0809 37.5522C35.951 37.3727 35.8808 37.1568 35.8805 36.9352V7.592Z" fill="url(#paint0_linear_468_5993)"/>
<path d="M45 79.868C25.7748 79.868 10.1338 64.2235 10.1338 45C10.1354 38.2682 12.0835 31.6804 15.7434 26.0304C19.4033 20.3804 24.6189 15.9092 30.7617 13.1555C30.9223 13.084 31.0982 13.0538 31.2734 13.0676C31.4486 13.0814 31.6176 13.1387 31.765 13.2344C31.9124 13.3301 32.0335 13.4612 32.1174 13.6156C32.2013 13.7701 32.2453 13.943 32.2453 14.1188V38.4504L59.0432 75.5227C59.1347 75.651 59.1963 75.7981 59.2235 75.9534C59.2507 76.1086 59.2428 76.2679 59.2003 76.4197C59.1578 76.5715 59.0818 76.7118 58.978 76.8303C58.8741 76.9489 58.745 77.0426 58.6002 77.1047C54.2996 78.9338 49.6734 79.8738 45 79.868ZM30.1412 15.7904C24.7561 18.5372 20.2347 22.7187 17.0763 27.8732C13.9178 33.0277 12.2453 38.9548 12.2432 45C12.2432 63.0633 26.9367 77.7586 45 77.7586C48.944 77.7656 52.8565 77.0563 56.5471 75.6651L30.3416 39.4102C30.2113 39.2302 30.1412 39.0136 30.1412 38.7914V15.7904Z" fill="url(#paint1_linear_468_5993)"/>
<path d="M72.9673 74.0215C72.9327 74.0232 72.8981 74.0232 72.8636 74.0215C72.7083 74.0061 72.5585 73.9565 72.4247 73.8763C72.291 73.7961 72.1767 73.6871 72.0901 73.5574L53.438 45.5854C53.3319 45.4264 53.2711 45.2417 53.2618 45.0508C53.2526 44.86 53.2954 44.6702 53.3857 44.5018C53.4759 44.3334 53.6102 44.1927 53.7742 44.0947C53.9383 43.9967 54.1258 43.945 54.3169 43.9453H84.5512C84.831 43.9453 85.0992 44.0564 85.297 44.2542C85.4948 44.452 85.6059 44.7203 85.6059 45C85.6204 50.3345 84.5767 55.6189 82.5352 60.5473C80.4937 65.4758 77.495 69.9504 73.7126 73.7121C73.515 73.91 73.2469 74.0212 72.9673 74.0215ZM56.2786 46.0547L73.1255 71.2934C79.5717 64.4441 83.2645 55.4575 83.4966 46.0547H56.2786Z" fill="url(#paint2_linear_468_5993)"/>
<path d="M73.4278 64.3729C73.254 64.3731 73.0828 64.3304 72.9294 64.2485C72.7761 64.1667 72.6454 64.0481 72.5489 63.9035L64.1606 51.3281C64.0546 51.1692 63.9937 50.9845 63.9845 50.7936C63.9753 50.6028 64.0181 50.413 64.1084 50.2446C64.1986 50.0762 64.3329 49.9355 64.4969 49.8375C64.6609 49.7394 64.8485 49.6878 65.0395 49.6881H78.3321C78.4855 49.688 78.6372 49.7214 78.7764 49.7859C78.9156 49.8505 79.039 49.9446 79.1381 50.0617C79.2372 50.1789 79.3095 50.3163 79.35 50.4642C79.3906 50.6122 79.3983 50.7673 79.3727 50.9186C78.5868 55.5417 76.8673 59.9563 74.319 63.893C74.224 64.0399 74.0939 64.1608 73.9404 64.2449C73.787 64.329 73.6151 64.3735 73.4401 64.3746L73.4278 64.3729ZM67.0048 51.7922L73.3891 61.3617C75.1116 58.3871 76.3482 55.1566 77.0524 51.7922H67.0048Z" fill="url(#paint3_linear_468_5993)"/>
<path d="M83.7268 37.9898H46.5966C46.3168 37.9898 46.0486 37.8787 45.8508 37.6809C45.653 37.4831 45.5419 37.2149 45.5419 36.9352V5.44922C45.5419 5.1695 45.653 4.90123 45.8508 4.70344C46.0486 4.50565 46.3168 4.39453 46.5966 4.39453C56.0325 4.39453 64.688 7.59727 71.6137 13.6582C78.2038 19.4186 82.8725 27.61 84.7604 36.7207C84.7923 36.8742 84.7896 37.0329 84.7524 37.1852C84.7152 37.3375 84.6446 37.4796 84.5456 37.6012C84.4466 37.7227 84.3217 37.8207 84.1801 37.8879C84.0384 37.9552 83.8836 37.99 83.7268 37.9898ZM47.6512 35.8805H82.412C78.3057 18.6117 64.5509 6.98379 47.6512 6.525V35.8805Z" fill="url(#paint4_linear_468_5993)"/>
<path d="M75.9832 32.2506H52.3336C52.0539 32.2506 51.7856 32.1395 51.5878 31.9417C51.39 31.7439 51.2789 31.4757 51.2789 31.196V11.6842C51.2791 11.5309 51.3127 11.3795 51.3773 11.2405C51.4419 11.1015 51.5361 10.9783 51.6532 10.8794C51.7704 10.7805 51.9076 10.7084 52.0555 10.6679C52.2034 10.6275 52.3583 10.6198 52.5094 10.6454C57.9786 11.5924 63.0976 13.9765 67.3418 17.5536C71.4551 21.0006 74.7809 25.578 76.9553 30.7899C77.0221 30.9501 77.0484 31.1243 77.0317 31.297C77.0151 31.4698 76.9561 31.6358 76.86 31.7803C76.7638 31.9247 76.6335 32.0433 76.4805 32.1253C76.3276 32.2074 76.1568 32.2504 75.9832 32.2506ZM53.3883 30.1413H74.3555C70.1367 21.1764 62.601 15.0012 53.383 12.971L53.3883 30.1413Z" fill="url(#paint5_linear_468_5993)"/>
<path d="M52.3339 28.2656C52.1255 28.2654 51.9217 28.2035 51.7484 28.0876C51.5752 27.9717 51.4401 27.807 51.3604 27.6144C51.2806 27.4218 51.2597 27.2099 51.3004 27.0054C51.341 26.801 51.4413 26.6131 51.5886 26.4656L62.7542 15.293C62.9521 15.0951 63.2205 14.9839 63.5004 14.9839C63.7803 14.9839 64.0487 15.0951 64.2466 15.293C64.4445 15.4909 64.5557 15.7593 64.5557 16.0392C64.5557 16.319 64.4445 16.5874 64.2466 16.7854L53.0863 27.9492C52.9882 28.0493 52.8711 28.1288 52.7419 28.1831C52.6128 28.2375 52.474 28.2655 52.3339 28.2656Z" fill="url(#paint6_linear_468_5993)"/>
<path d="M60.82 32.2506C60.6114 32.2508 60.4075 32.1891 60.2339 32.0733C60.0604 31.9576 59.9251 31.7929 59.8451 31.6003C59.7651 31.4076 59.7441 31.1955 59.7847 30.9909C59.8252 30.7863 59.9256 30.5982 60.073 30.4506L69.4474 21.078C69.6473 20.8917 69.9118 20.7903 70.185 20.7951C70.4582 20.7999 70.7189 20.9106 70.9122 21.1038C71.1054 21.2971 71.2161 21.5578 71.2209 21.831C71.2257 22.1042 71.1243 22.3687 70.938 22.5686L61.5654 31.943C61.3675 32.1402 61.0994 32.2509 60.82 32.2506Z" fill="url(#paint7_linear_468_5993)"/>
<defs>
<linearGradient id="paint0_linear_468_5993" x1="36.0449" y1="5.21802" x2="36.0449" y2="85.6055" gradientUnits="userSpaceOnUse">
<stop stop-color="#72C7D8"/>
<stop offset="0.489583" stop-color="#26519A"/>
<stop offset="1" stop-color="#41A575"/>
</linearGradient>
<linearGradient id="paint1_linear_468_5993" x1="34.6866" y1="13.0643" x2="34.6866" y2="79.868" gradientUnits="userSpaceOnUse">
<stop stop-color="#72C7D8"/>
<stop offset="0.489583" stop-color="#26519A"/>
<stop offset="1" stop-color="#41A575"/>
</linearGradient>
<linearGradient id="paint2_linear_468_5993" x1="69.4334" y1="43.9453" x2="69.4334" y2="74.0228" gradientUnits="userSpaceOnUse">
<stop stop-color="#72C7D8"/>
<stop offset="0.489583" stop-color="#26519A"/>
<stop offset="1" stop-color="#41A575"/>
</linearGradient>
<linearGradient id="paint3_linear_468_5993" x1="71.6854" y1="49.6881" x2="71.6854" y2="64.3746" gradientUnits="userSpaceOnUse">
<stop stop-color="#72C7D8"/>
<stop offset="0.489583" stop-color="#26519A"/>
<stop offset="1" stop-color="#41A575"/>
</linearGradient>
<linearGradient id="paint4_linear_468_5993" x1="65.1622" y1="4.39453" x2="65.1622" y2="37.9898" gradientUnits="userSpaceOnUse">
<stop stop-color="#72C7D8"/>
<stop offset="0.489583" stop-color="#26519A"/>
<stop offset="1" stop-color="#41A575"/>
</linearGradient>
<linearGradient id="paint5_linear_468_5993" x1="64.1578" y1="10.6306" x2="64.1578" y2="32.2506" gradientUnits="userSpaceOnUse">
<stop stop-color="#72C7D8"/>
<stop offset="0.489583" stop-color="#26519A"/>
<stop offset="1" stop-color="#41A575"/>
</linearGradient>
<linearGradient id="paint6_linear_468_5993" x1="57.9179" y1="14.9839" x2="57.9179" y2="28.2656" gradientUnits="userSpaceOnUse">
<stop stop-color="#72C7D8"/>
<stop offset="0.489583" stop-color="#26519A"/>
<stop offset="1" stop-color="#41A575"/>
</linearGradient>
<linearGradient id="paint7_linear_468_5993" x1="65.4928" y1="20.7949" x2="65.4928" y2="32.2506" gradientUnits="userSpaceOnUse">
<stop stop-color="#72C7D8"/>
<stop offset="0.489583" stop-color="#26519A"/>
<stop offset="1" stop-color="#41A575"/>
</linearGradient>
</defs>
</svg>
