<svg width="100" height="100" viewBox="0 0 100 100" fill="none" xmlns="http://www.w3.org/2000/svg">
<path d="M81.25 20.3125C82.9759 20.3125 84.375 18.9134 84.375 17.1875C84.375 15.4616 82.9759 14.0625 81.25 14.0625C79.5241 14.0625 78.125 15.4616 78.125 17.1875C78.125 18.9134 79.5241 20.3125 81.25 20.3125Z" fill="url(#paint0_linear_468_5928)"/>
<path d="M29.6875 84.375C30.5504 84.375 31.25 83.6754 31.25 82.8125C31.25 81.9496 30.5504 81.25 29.6875 81.25C28.8246 81.25 28.125 81.9496 28.125 82.8125C28.125 83.6754 28.8246 84.375 29.6875 84.375Z" fill="url(#paint1_linear_468_5928)"/>
<path d="M87.5 12.5C88.3629 12.5 89.0625 11.8004 89.0625 10.9375C89.0625 10.0746 88.3629 9.375 87.5 9.375C86.6371 9.375 85.9375 10.0746 85.9375 10.9375C85.9375 11.8004 86.6371 12.5 87.5 12.5Z" fill="url(#paint2_linear_468_5928)"/>
<path d="M9.375 14.0625C10.2379 14.0625 10.9375 13.3629 10.9375 12.5C10.9375 11.6371 10.2379 10.9375 9.375 10.9375C8.51206 10.9375 7.8125 11.6371 7.8125 12.5C7.8125 13.3629 8.51206 14.0625 9.375 14.0625Z" fill="url(#paint3_linear_468_5928)"/>
<path d="M92.6252 85.9376C92.8443 86.1548 93.1227 86.3023 93.4254 86.3616C93.7282 86.4208 94.0417 86.3891 94.3265 86.2705C94.6112 86.1519 94.8545 85.9516 95.0256 85.6949C95.1967 85.4383 95.2881 85.1367 95.2881 84.8282C95.2881 84.5197 95.1967 84.2181 95.0256 83.9614C94.8545 83.7048 94.6112 83.5045 94.3265 83.3858C94.0417 83.2672 93.7282 83.2355 93.4254 83.2948C93.1227 83.354 92.8443 83.5016 92.6252 83.7188C92.4788 83.8641 92.3625 84.0369 92.2832 84.2273C92.2039 84.4177 92.1631 84.6219 92.1631 84.8282C92.1631 85.0345 92.2039 85.2387 92.2832 85.4291C92.3625 85.6195 92.4788 85.7923 92.6252 85.9376ZM26.7971 44.5001C26.4199 44.3926 26.016 44.431 25.6658 44.6076C25.3155 44.7841 25.0445 45.086 24.9065 45.4532C24.7959 45.7476 24.7767 46.0685 24.8514 46.374C24.9261 46.6795 25.0912 46.9553 25.3252 47.1654C25.5592 47.3755 25.8512 47.5101 26.1629 47.5516C26.4747 47.5931 26.7917 47.5396 27.0725 47.398C27.3533 47.2565 27.5849 47.0334 27.7369 46.7581C27.889 46.4828 27.9544 46.1681 27.9246 45.855C27.8949 45.5419 27.7713 45.2451 27.5702 45.0033C27.369 44.7616 27.0996 44.5862 26.7971 44.5001ZM30.0159 36.3282C29.8385 36.2242 29.6423 36.1563 29.4386 36.1283C29.2349 36.1003 29.0277 36.1128 28.8288 36.1651C28.6299 36.2173 28.4433 36.3083 28.2797 36.4328C28.1161 36.5574 27.9786 36.7129 27.8752 36.8907C27.5159 37.5001 27.2034 38.1094 26.9065 38.7344C26.5317 39.5399 26.1979 40.3639 25.9065 41.2032C25.8403 41.3981 25.8133 41.6041 25.827 41.8095C25.8407 42.0149 25.8948 42.2156 25.9863 42.3999C26.0778 42.5843 26.2048 42.7488 26.36 42.884C26.5152 43.0192 26.6956 43.1223 26.8909 43.1876C27.0529 43.2375 27.2213 43.2638 27.3909 43.2657C27.7184 43.2665 28.038 43.1644 28.3044 42.9737C28.5707 42.7831 28.7704 42.5135 28.8752 42.2032C29.1004 41.4782 29.3718 40.7684 29.6877 40.0782C29.9399 39.5421 30.2215 39.0205 30.5315 38.5157C30.6449 38.3392 30.7216 38.1418 30.757 37.9351C30.7925 37.7284 30.7859 37.5167 30.7378 37.3125C30.6897 37.1084 30.601 36.916 30.4769 36.7469C30.3529 36.5778 30.1961 36.4354 30.0159 36.3282ZM64.9221 52.5938C65.2358 51.2105 65.3723 49.7928 65.3284 48.3751C65.3284 47.9607 65.1637 47.5632 64.8707 47.2702C64.5777 46.9772 64.1803 46.8126 63.7659 46.8126C63.3515 46.8126 62.954 46.9772 62.661 47.2702C62.368 47.5632 62.2034 47.9607 62.2034 48.3751C62.2353 49.5248 62.1251 50.6742 61.8752 51.7969C61.8289 51.997 61.8225 52.2042 61.8564 52.4068C61.8902 52.6093 61.9637 52.8032 62.0725 52.9773C62.1814 53.1515 62.3234 53.3025 62.4907 53.4216C62.6579 53.5408 62.847 53.6259 63.0471 53.6719H63.3909C63.7283 53.6818 64.0599 53.582 64.3359 53.3877C64.6119 53.1933 64.8176 52.9148 64.9221 52.5938Z" fill="url(#paint4_linear_468_5928)"/>
<path d="M57.8125 58.7656C55.7114 60.6867 53.0521 61.8872 50.2216 62.1926C47.391 62.4979 44.5369 61.892 42.0745 60.4631C39.6121 59.0343 37.6698 56.857 36.5303 54.248C35.3908 51.639 35.1136 48.7345 35.7389 45.9571C36.3641 43.1796 37.8594 40.6742 40.007 38.8052C42.1546 36.9363 44.8425 35.8014 47.6797 35.5656C50.5169 35.3299 53.3553 36.0056 55.7819 37.4944C58.2085 38.9833 60.0968 41.2076 61.1719 43.8438C61.3125 44.2031 61.4531 44.5781 61.5625 44.9375C61.6181 45.1392 61.7136 45.3278 61.8434 45.4919C61.9732 45.656 62.1346 45.7924 62.3181 45.8929C62.5017 45.9934 62.7035 46.0561 62.9117 46.0772C63.1199 46.0982 63.3301 46.0772 63.5301 46.0155C63.73 45.9537 63.9155 45.8524 64.0755 45.7176C64.2355 45.5828 64.3669 45.4173 64.4617 45.2308C64.5566 45.0442 64.613 44.8406 64.6276 44.6318C64.6422 44.4231 64.6148 44.2136 64.5469 44.0156C64.4063 43.5625 64.25 43.1094 64.0625 42.6563C62.7338 39.4059 60.4028 36.6641 57.4085 34.8298C54.4142 32.9955 50.9128 32.1643 47.4135 32.4571C43.9142 32.7499 40.5996 34.1514 37.9518 36.4578C35.304 38.7642 33.461 41.8552 32.691 45.2813C31.9209 48.7073 32.2639 52.2896 33.6701 55.5072C35.0764 58.7249 37.4724 61.4099 40.5098 63.172C43.5472 64.934 47.0676 65.681 50.5588 65.3045C54.05 64.9279 57.3301 63.4473 59.9219 61.0781C60.2285 60.7984 60.4115 60.4083 60.4306 59.9937C60.4496 59.5791 60.3032 59.1738 60.0234 58.8672C59.7437 58.5605 59.3536 58.3776 58.939 58.3585C58.5244 58.3395 58.1192 58.4859 57.8125 58.7656Z" fill="url(#paint5_linear_468_5928)"/>
<path d="M92.1875 87.5C92.0422 87.3535 91.8694 87.2373 91.679 87.158C91.4886 87.0787 91.2844 87.0378 91.0781 87.0378C90.8719 87.0378 90.6676 87.0787 90.4772 87.158C90.2868 87.2373 90.114 87.3535 89.9688 87.5L85.7344 91.7188C85.4649 91.9878 85.0996 92.1389 84.7188 92.1389C84.3379 92.1389 83.9726 91.9878 83.7031 91.7188L68.75 76.9687C68.4827 76.7043 68.331 76.3448 68.3281 75.9688C68.352 75.6066 68.5011 75.2641 68.75 75L75.1094 68.75C75.3789 68.4809 75.7442 68.3298 76.125 68.3298C76.5058 68.3298 76.8711 68.4809 77.1406 68.75L83.4844 75C83.6296 75.1465 83.8024 75.2627 83.9929 75.342C84.1833 75.4213 84.3875 75.4622 84.5938 75.4622C84.8 75.4622 85.0042 75.4213 85.1947 75.342C85.3851 75.2627 85.5579 75.1465 85.7031 75C85.9941 74.7072 86.1575 74.3112 86.1575 73.8984C86.1575 73.4856 85.9941 73.0896 85.7031 72.7969L79.3906 66.4062C78.5376 65.5693 77.3903 65.1005 76.1953 65.1005C75.0003 65.1005 73.853 65.5693 73 66.4062L68.75 62.1719C69.6829 60.8055 70.4686 59.3443 71.0938 57.8125C72.2757 54.8964 72.8664 51.7744 72.8315 48.6281C72.7967 45.4817 72.1369 42.3736 70.8906 39.4844C69.2127 35.6051 66.5432 32.2358 63.1504 29.7152C59.7576 27.1946 55.7611 25.6115 51.5625 25.125V21.875C51.5629 20.6532 51.0863 19.4794 50.2341 18.6039C49.3818 17.7283 48.2214 17.2201 47 17.1875H15.5C14.2786 17.2201 13.1182 17.7283 12.266 18.6039C11.4137 19.4794 10.9371 20.6532 10.9375 21.875V29.6875H9.375C8.76858 29.673 8.16531 29.7791 7.60026 29.9997C7.03521 30.2204 6.51964 30.5511 6.0835 30.9727C5.64736 31.3943 5.29936 31.8984 5.05971 32.4556C4.82006 33.0129 4.69354 33.6122 4.6875 34.2188V57.9687C4.69354 58.5753 4.82006 59.1746 5.05971 59.7319C5.29936 60.2891 5.64736 60.7932 6.0835 61.2148C6.51964 61.6364 7.03521 61.9671 7.60026 62.1878C8.16531 62.4084 8.76858 62.5145 9.375 62.5H14.0625V70.3125C14.0622 71.537 14.541 72.713 15.3965 73.589C16.2521 74.465 17.4165 74.9714 18.6406 75H35.2031C35.6175 75 36.015 74.8354 36.308 74.5424C36.601 74.2493 36.7656 73.8519 36.7656 73.4375C36.7656 73.0231 36.601 72.6257 36.308 72.3326C36.015 72.0396 35.6175 71.875 35.2031 71.875H18.6406C18.2455 71.8473 17.8756 71.6705 17.6058 71.3804C17.3361 71.0903 17.1865 70.7086 17.1875 70.3125V62.5H28.8906C31.1194 65.7069 34.0911 68.3269 37.552 70.1363C41.0129 71.9457 44.8603 72.8907 48.7656 72.8906C53.6223 72.892 58.3699 71.4509 62.4062 68.75L66.5469 72.875C65.7024 73.7241 65.2284 74.8728 65.2284 76.0703C65.2284 77.2678 65.7024 78.4166 66.5469 79.2656L79.6875 92.1875C79.2731 92.1875 78.8757 92.3521 78.5826 92.6451C78.2896 92.9382 78.125 93.3356 78.125 93.75C78.125 94.1644 78.2896 94.5618 78.5826 94.8549C78.8757 95.1479 79.2731 95.3125 79.6875 95.3125H84.6406C85.8466 95.311 87.0033 94.8337 87.8594 93.9844L92.0938 89.75C92.2512 89.6106 92.3789 89.4409 92.4693 89.2511C92.5596 89.0612 92.6106 88.855 92.6194 88.6449C92.6281 88.4349 92.5944 88.2252 92.5202 88.0284C92.446 87.8317 92.3328 87.652 92.1875 87.5ZM56.9531 68.0938C53.8561 69.4235 50.484 69.9864 47.123 69.7349C43.762 69.4834 40.5113 68.4248 37.6467 66.649C34.7821 64.8732 32.3881 62.4326 30.6679 59.5342C28.9478 56.6358 27.9522 53.3652 27.7656 50C27.7449 49.5856 27.5604 49.1964 27.2527 48.918C26.9451 48.6397 26.5394 48.4949 26.125 48.5156C25.7106 48.5363 25.3214 48.7208 25.043 49.0285C24.7647 49.3362 24.6199 49.7418 24.6406 50.1562C24.7938 52.9673 25.4445 55.7288 26.5625 58.3125C26.7188 58.6719 26.8906 59.0312 27.0625 59.375H9.375C9.17906 59.3899 8.98215 59.3649 8.79616 59.3015C8.61017 59.2381 8.43897 59.1376 8.29291 59.0061C8.14685 58.8747 8.02897 58.715 7.9464 58.5367C7.86383 58.3584 7.81827 58.1652 7.8125 57.9687V34.2188C7.81827 34.0223 7.86383 33.8291 7.9464 33.6508C8.02897 33.4725 8.14685 33.3128 8.29291 33.1814C8.43897 33.0499 8.61017 32.9494 8.79616 32.886C8.98215 32.8226 9.17906 32.7976 9.375 32.8125H29.2812C29.6957 32.8125 30.0931 32.6479 30.3861 32.3549C30.6791 32.0618 30.8438 31.6644 30.8438 31.25C30.8438 30.8356 30.6791 30.4382 30.3861 30.1451C30.0931 29.8521 29.6957 29.6875 29.2812 29.6875H14.0625V21.875C14.0612 21.4814 14.2086 21.1018 14.4751 20.8121C14.7416 20.5224 15.1076 20.344 15.5 20.3125H47C47.3924 20.344 47.7584 20.5224 48.0249 20.8121C48.2914 21.1018 48.4388 21.4814 48.4375 21.875V25C45.29 25.0296 42.179 25.6773 39.2812 26.9062C36.2492 28.1796 33.5145 30.0684 31.25 32.4531C30.959 32.7459 30.7956 33.1419 30.7956 33.5547C30.7956 33.9675 30.959 34.3635 31.25 34.6562C31.3953 34.8027 31.5681 34.9189 31.7585 34.9983C31.9489 35.0776 32.1531 35.1184 32.3594 35.1184C32.5656 35.1184 32.7699 35.0776 32.9603 34.9983C33.1507 34.9189 33.3235 34.8027 33.4688 34.6562C35.4409 32.5284 37.8358 30.836 40.5 29.6875C45.6148 27.5275 51.3753 27.4728 56.5302 29.5354C61.6851 31.5979 65.8181 35.6111 68.0312 40.7031C69.1084 43.2259 69.6761 45.9368 69.7019 48.6798C69.7276 51.4228 69.2109 54.1438 68.1814 56.6864C67.1518 59.229 65.6298 61.543 63.7029 63.4953C61.7759 65.4477 59.482 66.9998 56.9531 68.0625V68.0938ZM66.875 64.6719L70.7812 68.5625L68.75 70.5938L64.8594 66.7031C65.5737 66.0695 66.2469 65.3911 66.875 64.6719Z" fill="url(#paint6_linear_468_5928)"/>
<path d="M87.7656 76.9688C87.6192 77.114 87.5029 77.2868 87.4236 77.4772C87.3443 77.6676 87.3034 77.8719 87.3034 78.0781C87.3034 78.2844 87.3443 78.4886 87.4236 78.679C87.5029 78.8694 87.6192 79.0422 87.7656 79.1875L89.8906 81.25C90.0366 81.3948 90.2098 81.5094 90.4001 81.5871C90.5905 81.6649 90.7944 81.7043 91 81.7031C91.3058 81.6988 91.6037 81.6049 91.8566 81.4329C92.1095 81.2609 92.3064 81.0185 92.4229 80.7357C92.5393 80.4529 92.5702 80.1421 92.5117 79.8419C92.4532 79.5417 92.3079 79.2653 92.0937 79.0469L89.9844 76.9219C89.836 76.7785 89.6608 76.6658 89.4687 76.5905C89.2766 76.5152 89.0715 76.4786 88.8652 76.483C88.659 76.4873 88.4556 76.5325 88.2668 76.6159C88.0781 76.6993 87.9078 76.8192 87.7656 76.9688ZM55.7969 18.2969C56.0141 18.0779 56.1617 17.7994 56.2209 17.4967C56.2802 17.1939 56.2485 16.8804 56.1298 16.5957C56.0112 16.3109 55.8109 16.0676 55.5542 15.8965C55.2976 15.7254 54.996 15.6341 54.6875 15.6341C54.379 15.6341 54.0774 15.7254 53.8208 15.8965C53.5641 16.0676 53.3638 16.3109 53.2452 16.5957C53.1265 16.8804 53.0948 17.1939 53.1541 17.4967C53.2133 17.7994 53.3609 18.0779 53.5781 18.2969C53.7234 18.4433 53.8962 18.5596 54.0866 18.6389C54.277 18.7182 54.4812 18.7591 54.6875 18.7591C54.8938 18.7591 55.098 18.7182 55.2884 18.6389C55.4788 18.5596 55.6516 18.4433 55.7969 18.2969ZM60.7969 78.5625C60.5796 78.7815 60.4321 79.06 60.3728 79.3627C60.3136 79.6655 60.3453 79.979 60.4639 80.2637C60.5826 80.5485 60.7828 80.7918 61.0395 80.9629C61.2962 81.134 61.5978 81.2253 61.9062 81.2253C62.2147 81.2253 62.5163 81.134 62.773 80.9629C63.0297 80.7918 63.2299 80.5485 63.3486 80.2637C63.4672 79.979 63.4989 79.6655 63.4397 79.3627C63.3804 79.06 63.2329 78.7815 63.0156 78.5625C62.8704 78.416 62.6976 78.2998 62.5072 78.2205C62.3167 78.1412 62.1125 78.1003 61.9062 78.1003C61.7 78.1003 61.4958 78.1412 61.3054 78.2205C61.1149 78.2998 60.9421 78.416 60.7969 78.5625Z" fill="url(#paint7_linear_468_5928)"/>
<path d="M61.9063 57.6406C62.726 57.6406 63.3906 56.976 63.3906 56.1562C63.3906 55.3364 62.726 54.6719 61.9063 54.6719C61.0865 54.6719 60.4219 55.3364 60.4219 56.1562C60.4219 56.976 61.0865 57.6406 61.9063 57.6406Z" fill="url(#paint8_linear_468_5928)"/>
<path d="M54.8594 80.0469C54.6421 80.2659 54.4946 80.5443 54.4353 80.8471C54.3761 81.1498 54.4078 81.4633 54.5264 81.7481C54.6451 82.0329 54.8453 82.2761 55.102 82.4473C55.3587 82.6184 55.6603 82.7097 55.9688 82.7097C56.2772 82.7097 56.5788 82.6184 56.8355 82.4473C57.0922 82.2761 57.2924 82.0329 57.4111 81.7481C57.5297 81.4633 57.5614 81.1498 57.5022 80.8471C57.4429 80.5443 57.2954 80.2659 57.0781 80.0469C56.9329 79.9004 56.7601 79.7842 56.5697 79.7049C56.3792 79.6255 56.175 79.5847 55.9688 79.5847C55.7625 79.5847 55.5583 79.6255 55.3679 79.7049C55.1774 79.7842 55.0046 79.9004 54.8594 80.0469ZM48.9375 80.2656C48.7181 80.4838 48.5683 80.7622 48.5073 81.0655C48.4462 81.3689 48.4766 81.6835 48.5946 81.9696C48.7126 82.2556 48.9129 82.5002 49.17 82.6723C49.4272 82.8444 49.7296 82.9363 50.0391 82.9363C50.3485 82.9363 50.651 82.8444 50.9081 82.6723C51.1653 82.5002 51.3655 82.2556 51.4835 81.9696C51.6015 81.6835 51.6319 81.3689 51.5709 81.0655C51.5098 80.7622 51.3601 80.4838 51.1406 80.2656C50.8479 79.9746 50.4519 79.8113 50.0391 79.8113C49.6263 79.8113 49.2303 79.9746 48.9375 80.2656ZM81.0469 51.1406C81.0511 54.1224 80.657 57.0913 79.875 59.9688C79.7031 60.5781 79.5156 61.2031 79.3125 61.7969C79.2463 61.9918 79.2193 62.1978 79.233 62.4032C79.2467 62.6086 79.3008 62.8092 79.3923 62.9936C79.4838 63.178 79.6108 63.3425 79.766 63.4777C79.9212 63.6129 80.1016 63.716 80.2969 63.7812C80.4629 63.8027 80.6309 63.8027 80.7969 63.7812C81.1244 63.7821 81.444 63.68 81.7104 63.4893C81.9767 63.2987 82.1764 63.0291 82.2812 62.7188C82.5 62.0625 82.7031 61.3906 82.8906 60.7031C83.7482 57.5616 84.1792 54.319 84.1719 51.0625C84.1915 45.4359 82.8896 39.8832 80.3711 34.8516C77.8526 29.8201 74.1879 25.4502 69.6719 22.0938C69.3362 21.8493 68.9172 21.7481 68.5069 21.8126C68.0967 21.877 67.7289 22.1018 67.4844 22.4375C67.2399 22.7732 67.1387 23.1922 67.2032 23.6024C67.2677 24.0127 67.4925 24.3805 67.8281 24.625C71.9567 27.6983 75.3043 31.6997 77.6006 36.3059C79.8969 40.9121 81.0775 45.9939 81.0469 51.1406ZM59.9062 20.3125C61.3631 20.8171 62.7788 21.4335 64.1406 22.1563C64.5074 22.3531 64.9373 22.3962 65.3358 22.276C65.5331 22.2166 65.7168 22.1188 65.8763 21.9883C66.0359 21.8578 66.1682 21.6972 66.2656 21.5156C66.3631 21.334 66.4238 21.135 66.4444 20.93C66.4649 20.7249 66.4449 20.5178 66.3854 20.3204C66.3259 20.1231 66.2282 19.9395 66.0977 19.7799C65.9672 19.6204 65.8066 19.4881 65.625 19.3906C64.1141 18.5959 62.5474 17.9118 60.9375 17.3438C60.5459 17.2094 60.1169 17.2359 59.7449 17.4175C59.3728 17.5992 59.088 17.9211 58.9531 18.3125C58.8838 18.5064 58.8535 18.712 58.864 18.9176C58.8744 19.1233 58.9254 19.3248 59.0139 19.5106C59.1025 19.6965 59.2269 19.863 59.3801 20.0006C59.5332 20.1382 59.712 20.2442 59.9062 20.3125ZM44.0312 78.5938C42.5744 78.0892 41.1587 77.4728 39.7969 76.75C39.6153 76.6364 39.4123 76.5613 39.2004 76.5294C38.9886 76.4976 38.7725 76.5096 38.5655 76.5648C38.3585 76.62 38.1651 76.7171 37.9972 76.8502C37.8294 76.9833 37.6907 77.1495 37.5898 77.3384C37.4889 77.5274 37.4279 77.7351 37.4106 77.9486C37.3933 78.1621 37.4201 78.3769 37.4894 78.5796C37.5586 78.7823 37.6688 78.9686 37.8131 79.127C37.9574 79.2853 38.1327 79.4123 38.3281 79.5C39.8363 80.3004 41.4034 80.9847 43.0156 81.5469C43.1819 81.6016 43.3562 81.628 43.5312 81.625C43.8972 81.621 44.2502 81.4886 44.5286 81.2509C44.8069 81.0133 44.993 80.6854 45.0544 80.3246C45.1158 79.9638 45.0486 79.5929 44.8644 79.2765C44.6803 78.9602 44.391 78.7186 44.0469 78.5938H44.0312ZM21.875 43.75H12.5C12.0856 43.75 11.6882 43.9146 11.3951 44.2076C11.1021 44.5007 10.9375 44.8981 10.9375 45.3125C10.9375 45.7269 11.1021 46.1243 11.3951 46.4174C11.6882 46.7104 12.0856 46.875 12.5 46.875H21.875C22.2894 46.875 22.6868 46.7104 22.9799 46.4174C23.2729 46.1243 23.4375 45.7269 23.4375 45.3125C23.4375 44.8981 23.2729 44.5007 22.9799 44.2076C22.6868 43.9146 22.2894 43.75 21.875 43.75ZM23.4375 37.5H17.5C17.0856 37.5 16.6882 37.6646 16.3951 37.9576C16.1021 38.2507 15.9375 38.6481 15.9375 39.0625C15.9375 39.4769 16.1021 39.8743 16.3951 40.1674C16.6882 40.4604 17.0856 40.625 17.5 40.625H23.4375C23.8519 40.625 24.2493 40.4604 24.5424 40.1674C24.8354 39.8743 25 39.4769 25 39.0625C25 38.6481 24.8354 38.2507 24.5424 37.9576C24.2493 37.6646 23.8519 37.5 23.4375 37.5ZM21.875 51.5625H12.5C12.0856 51.5625 11.6882 51.7271 11.3951 52.0201C11.1021 52.3132 10.9375 52.7106 10.9375 53.125C10.9375 53.5394 11.1021 53.9368 11.3951 54.2299C11.6882 54.5229 12.0856 54.6875 12.5 54.6875H21.875C22.2894 54.6875 22.6868 54.5229 22.9799 54.2299C23.2729 53.9368 23.4375 53.5394 23.4375 53.125C23.4375 52.7106 23.2729 52.3132 22.9799 52.0201C22.6868 51.7271 22.2894 51.5625 21.875 51.5625Z" fill="url(#paint9_linear_468_5928)"/>
<path d="M12.5 40.625C13.3629 40.625 14.0625 39.9254 14.0625 39.0625C14.0625 38.1996 13.3629 37.5 12.5 37.5C11.6371 37.5 10.9375 38.1996 10.9375 39.0625C10.9375 39.9254 11.6371 40.625 12.5 40.625Z" fill="url(#paint10_linear_468_5928)"/>
<path d="M18.8911 23.5313C18.5737 23.5031 18.2552 23.5726 17.9785 23.7306C17.7017 23.8885 17.4798 24.1273 17.3427 24.4149C17.2055 24.7025 17.1595 25.0252 17.2109 25.3397C17.2623 25.6542 17.4087 25.9455 17.6303 26.1744C17.852 26.4034 18.1383 26.5591 18.451 26.6207C18.7636 26.6823 19.0876 26.6468 19.3795 26.519C19.6715 26.3912 19.9173 26.1772 20.0842 25.9057C20.251 25.6342 20.3308 25.3182 20.313 25C20.3093 24.6196 20.1597 24.2552 19.8952 23.9819C19.6306 23.7085 19.2712 23.5472 18.8911 23.5313ZM35.2817 25C35.2817 24.5856 35.1171 24.1882 34.8241 23.8951C34.5311 23.6021 34.1336 23.4375 33.7192 23.4375H24.8286C24.4142 23.4375 24.0168 23.6021 23.7237 23.8951C23.4307 24.1882 23.2661 24.5856 23.2661 25C23.2661 25.4144 23.4307 25.8118 23.7237 26.1049C24.0168 26.3979 24.4142 26.5625 24.8286 26.5625H33.7192C34.1336 26.5625 34.5311 26.3979 34.8241 26.1049C35.1171 25.8118 35.2817 25.4144 35.2817 25ZM21.8755 65.625C21.4611 65.625 21.0636 65.7896 20.7706 66.0826C20.4776 66.3757 20.313 66.7731 20.313 67.1875C20.313 67.6019 20.4776 67.9993 20.7706 68.2924C21.0636 68.5854 21.4611 68.75 21.8755 68.75H26.8442C27.2586 68.75 27.656 68.5854 27.9491 68.2924C28.2421 67.9993 28.4067 67.6019 28.4067 67.1875C28.4067 66.7731 28.2421 66.3757 27.9491 66.0826C27.656 65.7896 27.2586 65.625 26.8442 65.625H21.8755ZM93.7505 92.1875H92.188C91.7736 92.1875 91.3761 92.3521 91.0831 92.6451C90.7901 92.9382 90.6255 93.3356 90.6255 93.75C90.6255 94.1644 90.7901 94.5618 91.0831 94.8549C91.3761 95.1479 91.7736 95.3125 92.188 95.3125H93.7505C94.1649 95.3125 94.5623 95.1479 94.8553 94.8549C95.1484 94.5618 95.313 94.1644 95.313 93.75C95.313 93.3356 95.1484 92.9382 94.8553 92.6451C94.5623 92.3521 94.1649 92.1875 93.7505 92.1875Z" fill="url(#paint11_linear_468_5928)"/>
<defs>
<linearGradient id="paint0_linear_468_5928" x1="81.25" y1="14.0625" x2="81.25" y2="20.3125" gradientUnits="userSpaceOnUse">
<stop stop-color="#72C7D8"/>
<stop offset="0.489583" stop-color="#26519A"/>
<stop offset="1" stop-color="#41A575"/>
</linearGradient>
<linearGradient id="paint1_linear_468_5928" x1="29.6875" y1="81.25" x2="29.6875" y2="84.375" gradientUnits="userSpaceOnUse">
<stop stop-color="#72C7D8"/>
<stop offset="0.489583" stop-color="#26519A"/>
<stop offset="1" stop-color="#41A575"/>
</linearGradient>
<linearGradient id="paint2_linear_468_5928" x1="87.5" y1="9.375" x2="87.5" y2="12.5" gradientUnits="userSpaceOnUse">
<stop stop-color="#72C7D8"/>
<stop offset="0.489583" stop-color="#26519A"/>
<stop offset="1" stop-color="#41A575"/>
</linearGradient>
<linearGradient id="paint3_linear_468_5928" x1="9.375" y1="10.9375" x2="9.375" y2="14.0625" gradientUnits="userSpaceOnUse">
<stop stop-color="#72C7D8"/>
<stop offset="0.489583" stop-color="#26519A"/>
<stop offset="1" stop-color="#41A575"/>
</linearGradient>
<linearGradient id="paint4_linear_468_5928" x1="60.0474" y1="36.1138" x2="60.0474" y2="86.3907" gradientUnits="userSpaceOnUse">
<stop stop-color="#72C7D8"/>
<stop offset="0.489583" stop-color="#26519A"/>
<stop offset="1" stop-color="#41A575"/>
</linearGradient>
<linearGradient id="paint5_linear_468_5928" x1="48.4604" y1="32.3996" x2="48.4604" y2="65.3996" gradientUnits="userSpaceOnUse">
<stop stop-color="#72C7D8"/>
<stop offset="0.489583" stop-color="#26519A"/>
<stop offset="1" stop-color="#41A575"/>
</linearGradient>
<linearGradient id="paint6_linear_468_5928" x1="48.6541" y1="17.1875" x2="48.6541" y2="95.3125" gradientUnits="userSpaceOnUse">
<stop stop-color="#72C7D8"/>
<stop offset="0.489583" stop-color="#26519A"/>
<stop offset="1" stop-color="#41A575"/>
</linearGradient>
<linearGradient id="paint7_linear_468_5928" x1="72.8328" y1="15.6341" x2="72.8328" y2="81.7032" gradientUnits="userSpaceOnUse">
<stop stop-color="#72C7D8"/>
<stop offset="0.489583" stop-color="#26519A"/>
<stop offset="1" stop-color="#41A575"/>
</linearGradient>
<linearGradient id="paint8_linear_468_5928" x1="61.9063" y1="54.6719" x2="61.9063" y2="57.6406" gradientUnits="userSpaceOnUse">
<stop stop-color="#72C7D8"/>
<stop offset="0.489583" stop-color="#26519A"/>
<stop offset="1" stop-color="#41A575"/>
</linearGradient>
<linearGradient id="paint9_linear_468_5928" x1="47.5548" y1="17.2592" x2="47.5548" y2="82.9363" gradientUnits="userSpaceOnUse">
<stop stop-color="#72C7D8"/>
<stop offset="0.489583" stop-color="#26519A"/>
<stop offset="1" stop-color="#41A575"/>
</linearGradient>
<linearGradient id="paint10_linear_468_5928" x1="12.5" y1="37.5" x2="12.5" y2="40.625" gradientUnits="userSpaceOnUse">
<stop stop-color="#72C7D8"/>
<stop offset="0.489583" stop-color="#26519A"/>
<stop offset="1" stop-color="#41A575"/>
</linearGradient>
<linearGradient id="paint11_linear_468_5928" x1="56.2517" y1="23.4375" x2="56.2517" y2="95.3125" gradientUnits="userSpaceOnUse">
<stop stop-color="#72C7D8"/>
<stop offset="0.489583" stop-color="#26519A"/>
<stop offset="1" stop-color="#41A575"/>
</linearGradient>
</defs>
</svg>
