<svg width="100" height="100" viewBox="0 0 100 100" fill="none" xmlns="http://www.w3.org/2000/svg">
<path d="M88.0605 84.5235C87.7866 84.5229 87.5176 84.4502 87.2805 84.3128C87.0435 84.1754 86.8468 83.9781 86.7101 83.7407C86.5733 83.5033 86.5014 83.2341 86.5016 82.9601C86.5018 82.6861 86.574 82.417 86.7109 82.1797C90.4279 75.7355 92.3815 68.4257 92.375 60.9864C92.375 37.6172 73.3613 18.6036 49.9922 18.6036C26.623 18.6036 7.60937 37.6172 7.60937 60.9864C7.60561 68.4258 9.56189 75.7349 13.2812 82.1778C13.3943 82.3556 13.4702 82.5545 13.5044 82.7624C13.5386 82.9704 13.5304 83.1831 13.4803 83.3878C13.4301 83.5924 13.3391 83.7849 13.2127 83.9535C13.0862 84.1221 12.927 84.2633 12.7446 84.3688C12.5621 84.4743 12.3602 84.5417 12.151 84.5671C11.9418 84.5925 11.7297 84.5754 11.5273 84.5167C11.3249 84.4579 11.1365 84.3589 10.9734 84.2255C10.8102 84.092 10.6758 83.927 10.5781 83.7403C6.5852 76.8221 4.48355 68.9749 4.48438 60.9871C4.4852 52.9993 6.58848 45.1525 10.5828 38.2352C14.5772 31.3179 20.3219 25.5738 27.2396 21.5801C34.1574 17.5865 42.0044 15.484 49.9922 15.484C57.9799 15.484 65.827 17.5865 72.7447 21.5801C79.6625 25.5738 85.4072 31.3179 89.4015 38.2352C93.3959 45.1525 95.4992 52.9993 95.5 60.9871C95.5008 68.9749 93.3992 76.8221 89.4062 83.7403C89.27 83.9771 89.074 84.174 88.8379 84.3114C88.6018 84.4489 88.3337 84.522 88.0605 84.5235Z" fill="url(#paint0_linear_468_6005)"/>
<path d="M76.9746 78.125C76.6981 78.1247 76.4267 78.0511 76.188 77.9117C75.9493 77.7723 75.7518 77.572 75.6158 77.3313C75.4798 77.0906 75.41 76.8182 75.4137 76.5417C75.4174 76.2653 75.4943 75.9948 75.6367 75.7578C78.4161 71.1281 79.8838 65.8296 79.8828 60.4297C79.8828 43.957 66.4805 30.5469 50 30.5469C33.5195 30.5469 20.1172 43.9492 20.1172 60.4297C20.1145 65.8275 21.5795 71.1245 24.3555 75.7539C24.4711 75.9298 24.55 76.1272 24.5875 76.3343C24.6249 76.5414 24.6201 76.7539 24.5734 76.9592C24.5267 77.1644 24.439 77.358 24.3156 77.5285C24.1922 77.699 24.0356 77.8428 23.8552 77.9513C23.6749 78.0598 23.4745 78.1307 23.266 78.1598C23.0576 78.1889 22.8454 78.1756 22.6422 78.1207C22.439 78.0658 22.249 77.9704 22.0836 77.8402C21.9182 77.7101 21.7808 77.5479 21.6797 77.3633C18.6113 72.2479 16.991 66.3947 16.9922 60.4297C16.9922 42.2324 31.7949 27.4219 50 27.4219C68.2051 27.4219 83.0078 42.2246 83.0078 60.4297C83.009 66.3947 81.3887 72.2479 78.3203 77.3633C78.1814 77.5961 77.9842 77.7887 77.7483 77.9223C77.5124 78.0558 77.2457 78.1257 76.9746 78.125Z" fill="url(#paint1_linear_468_6005)"/>
<path d="M50 30.5547C49.5856 30.5547 49.1882 30.3901 48.8951 30.097C48.6021 29.804 48.4375 29.4066 48.4375 28.9922V17.0391C48.4375 16.6247 48.6021 16.2272 48.8951 15.9342C49.1882 15.6412 49.5856 15.4766 50 15.4766C50.4144 15.4766 50.8118 15.6412 51.1049 15.9342C51.3979 16.2272 51.5625 16.6247 51.5625 17.0391V28.9922C51.5625 29.4066 51.3979 29.804 51.1049 30.097C50.8118 30.3901 50.4144 30.5547 50 30.5547ZM34.0469 34.9141C33.7725 34.9141 33.503 34.842 33.2654 34.7048C33.0278 34.5677 32.8305 34.3704 32.6934 34.1328L26.6738 23.709C26.4666 23.35 26.4105 22.9234 26.5178 22.5231C26.6252 22.1227 26.8871 21.7814 27.2461 21.5742C27.6051 21.367 28.0317 21.3109 28.432 21.4182C28.8323 21.5255 29.1737 21.7875 29.3809 22.1465L35.3984 32.5703C35.5355 32.8077 35.6077 33.077 35.6078 33.3512C35.6078 33.6253 35.5358 33.8946 35.3988 34.1321C35.2619 34.3696 35.0649 34.5669 34.8276 34.7041C34.5903 34.8414 34.321 34.9138 34.0469 34.9141ZM22.541 46.6953C22.2665 46.6955 21.9969 46.6227 21.7598 46.4844L11.1602 40.3652C10.8012 40.158 10.5392 39.8167 10.4319 39.4164C10.3246 39.016 10.3807 38.5894 10.5879 38.2305C10.7951 37.8715 11.1364 37.6095 11.5368 37.5022C11.9371 37.3949 12.3637 37.451 12.7227 37.6582L23.3242 43.7793C23.6223 43.9512 23.8552 44.2167 23.987 44.5345C24.1187 44.8524 24.1419 45.2048 24.0528 45.5372C23.9638 45.8695 23.7676 46.1632 23.4945 46.3726C23.2215 46.582 22.887 46.6954 22.543 46.6953H22.541ZM18.5684 62.5469H6.05469C5.64029 62.5469 5.24286 62.3823 4.94983 62.0892C4.65681 61.7962 4.49219 61.3988 4.49219 60.9844C4.49219 60.57 4.65681 60.1725 4.94983 59.8795C5.24286 59.5865 5.64029 59.4219 6.05469 59.4219H18.5684C18.9828 59.4219 19.3802 59.5865 19.6732 59.8795C19.9662 60.1725 20.1309 60.57 20.1309 60.9844C20.1309 61.3988 19.9662 61.7962 19.6732 62.0892C19.3802 62.3823 18.9828 62.5469 18.5684 62.5469ZM11.9375 84.5234C11.5934 84.5236 11.2589 84.4101 10.9859 84.2007C10.7129 83.9913 10.5167 83.6976 10.4276 83.3653C10.3386 83.0329 10.3617 82.6805 10.4935 82.3626C10.6252 82.0448 10.8582 81.7793 11.1562 81.6074L22.2441 75.207C22.422 75.0979 22.6199 75.0256 22.8262 74.9942C23.0325 74.9629 23.243 74.9732 23.4452 75.0245C23.6475 75.0758 23.8374 75.1671 24.0038 75.2929C24.1702 75.4188 24.3097 75.5768 24.414 75.7575C24.5184 75.9381 24.5855 76.1379 24.6114 76.3449C24.6373 76.552 24.6215 76.7621 24.5649 76.9629C24.5083 77.1638 24.412 77.3512 24.2818 77.5142C24.1516 77.6772 23.99 77.8125 23.8066 77.9121L12.7168 84.3145C12.4798 84.4511 12.2111 84.5232 11.9375 84.5234ZM88.0625 84.5234C87.7883 84.5235 87.5188 84.4515 87.2812 84.3145L76.1934 77.9121C76.01 77.8125 75.8484 77.6772 75.7182 77.5142C75.588 77.3512 75.4917 77.1638 75.4351 76.9629C75.3785 76.7621 75.3627 76.552 75.3886 76.3449C75.4145 76.1379 75.4816 75.9381 75.586 75.7575C75.6903 75.5768 75.8298 75.4188 75.9962 75.2929C76.1626 75.1671 76.3525 75.0758 76.5548 75.0245C76.757 74.9732 76.9675 74.9629 77.1738 74.9942C77.3801 75.0256 77.578 75.0979 77.7559 75.207L88.8438 81.6074C89.1418 81.7793 89.3748 82.0448 89.5065 82.3626C89.6383 82.6805 89.6614 83.0329 89.5724 83.3653C89.4833 83.6976 89.2871 83.9913 89.0141 84.2007C88.7411 84.4101 88.4066 84.5236 88.0625 84.5234ZM93.9453 62.5469H81.4453C81.0309 62.5469 80.6335 62.3823 80.3405 62.0892C80.0474 61.7962 79.8828 61.3988 79.8828 60.9844C79.8828 60.57 80.0474 60.1725 80.3405 59.8795C80.6335 59.5865 81.0309 59.4219 81.4453 59.4219H93.9453C94.3597 59.4219 94.7571 59.5865 95.0502 59.8795C95.3432 60.1725 95.5078 60.57 95.5078 60.9844C95.5078 61.3988 95.3432 61.7962 95.0502 62.0892C94.7571 62.3823 94.3597 62.5469 93.9453 62.5469ZM77.459 46.6953C77.1149 46.6954 76.7804 46.582 76.5074 46.3726C76.2344 46.1632 76.0381 45.8695 75.9491 45.5372C75.8601 45.2048 75.8832 44.8524 76.015 44.5345C76.1467 44.2167 76.3797 43.9512 76.6777 43.7793L87.2793 37.6582C87.6383 37.451 88.0649 37.3949 88.4652 37.5022C88.8655 37.6095 89.2069 37.8715 89.4141 38.2305C89.6213 38.5894 89.6774 39.016 89.5701 39.4164C89.4627 39.8167 89.2008 40.158 88.8418 40.3652L78.2383 46.4844C78.0017 46.6223 77.7328 46.6951 77.459 46.6953ZM65.9531 34.9121C65.6788 34.913 65.4091 34.8408 65.1719 34.7031C64.9941 34.6006 64.8383 34.464 64.7133 34.3012C64.5883 34.1384 64.4966 33.9525 64.4435 33.7543C64.3904 33.5561 64.3768 33.3493 64.4036 33.1458C64.4304 32.9423 64.497 32.7461 64.5996 32.5684L70.6172 22.1445C70.8244 21.7856 71.1657 21.5236 71.566 21.4163C71.9664 21.309 72.393 21.3651 72.752 21.5723C73.1109 21.7795 73.3729 22.1208 73.4802 22.5211C73.5875 22.9215 73.5314 23.3481 73.3242 23.707L67.3066 34.1309C67.1695 34.3684 66.9722 34.5657 66.7346 34.7029C66.497 34.84 66.2275 34.9122 65.9531 34.9121ZM50 79.4922C49.0803 79.4926 48.1712 79.2965 47.3333 78.9172C46.4955 78.5379 45.7484 77.984 45.1419 77.2926C44.5354 76.6013 44.0836 75.7884 43.8166 74.9083C43.5496 74.0282 43.4736 73.1012 43.5938 72.1894L48.4512 35.1602C48.5012 34.7848 48.6858 34.4404 48.9706 34.1909C49.2555 33.9414 49.6213 33.8039 50 33.8039C50.3787 33.8039 50.7445 33.9414 51.0294 34.1909C51.3142 34.4404 51.4988 34.7848 51.5488 35.1602L56.4062 72.1953C56.5255 73.1067 56.4488 74.033 56.1814 74.9123C55.914 75.7917 55.462 76.6039 54.8556 77.2946C54.2492 77.9853 53.5024 78.5386 52.6651 78.9176C51.8277 79.2965 50.9191 79.4924 50 79.4922ZM50 47.377L46.6914 72.6035C46.6308 73.0737 46.6712 73.5514 46.8097 74.0048C46.9483 74.4581 47.1819 74.8768 47.495 75.2328C47.808 75.5888 48.1934 75.8739 48.6253 76.0693C49.0573 76.2647 49.5259 76.3657 50 76.3657C50.4741 76.3657 50.9427 76.2647 51.3747 76.0693C51.8066 75.8739 52.192 75.5888 52.505 75.2328C52.8181 74.8768 53.0517 74.4581 53.1903 74.0048C53.3288 73.5514 53.3692 73.0737 53.3086 72.6035L50 47.377Z" fill="url(#paint2_linear_468_6005)"/>
<defs>
<linearGradient id="paint0_linear_468_6005" x1="49.9922" y1="15.484" x2="49.9922" y2="84.5785" gradientUnits="userSpaceOnUse">
<stop stop-color="#72C7D8"/>
<stop offset="0.489583" stop-color="#26519A"/>
<stop offset="1" stop-color="#41A575"/>
</linearGradient>
<linearGradient id="paint1_linear_468_6005" x1="50" y1="27.4219" x2="50" y2="78.1748" gradientUnits="userSpaceOnUse">
<stop stop-color="#72C7D8"/>
<stop offset="0.489583" stop-color="#26519A"/>
<stop offset="1" stop-color="#41A575"/>
</linearGradient>
<linearGradient id="paint2_linear_468_6005" x1="50" y1="15.4766" x2="50" y2="84.5234" gradientUnits="userSpaceOnUse">
<stop stop-color="#72C7D8"/>
<stop offset="0.489583" stop-color="#26519A"/>
<stop offset="1" stop-color="#41A575"/>
</linearGradient>
</defs>
</svg>
