<svg width="100" height="100" viewBox="0 0 100 100" fill="none" xmlns="http://www.w3.org/2000/svg">
<path d="M73.0469 91.1582H26.9531C25.7551 91.1561 24.6067 90.6793 23.7596 89.8322C22.9125 88.985 22.4357 87.8367 22.4336 86.6387V40.5449C22.4372 39.3481 22.9148 38.2014 23.7618 37.3559C24.6088 36.5103 25.7563 36.0347 26.9531 36.0332H73.0469C74.2451 36.0348 75.3937 36.5114 76.241 37.3587C77.0882 38.2059 77.5649 39.3546 77.5664 40.5527V86.6465C77.5628 87.8433 77.0852 88.99 76.2382 89.8355C75.3912 90.6811 74.2437 91.1567 73.0469 91.1582ZM26.9531 38.377C26.3764 38.378 25.8236 38.6075 25.4158 39.0154C25.0079 39.4232 24.7784 39.976 24.7773 40.5527V86.6465C24.7804 87.2219 25.0109 87.7727 25.4185 88.1788C25.8261 88.5849 26.3777 88.8134 26.9531 88.8145H73.0469C73.6236 88.8134 74.1764 88.5839 74.5842 88.176C74.9921 87.7682 75.2216 87.2154 75.2227 86.6387V40.5449C75.2196 39.9695 74.9891 39.4187 74.5815 39.0126C74.1739 38.6065 73.6223 38.378 73.0469 38.377H26.9531Z" fill="url(#paint0_linear_468_5942)"/>
<path d="M55.7441 58.4746C55.5269 58.4748 55.3139 58.4146 55.1289 58.3008L50.0371 55.1621L44.8652 58.3047C44.6875 58.4129 44.4841 58.4718 44.2761 58.4754C44.068 58.479 43.8627 58.4271 43.6813 58.3251C43.5 58.2231 43.349 58.0746 43.244 57.8949C43.1391 57.7152 43.0838 57.5108 43.084 57.3027V37.2051C43.084 36.8943 43.2075 36.5962 43.4272 36.3764C43.647 36.1567 43.9451 36.0332 44.2559 36.0332H55.7441C56.0549 36.0332 56.353 36.1567 56.5728 36.3764C56.7926 36.5962 56.916 36.8943 56.916 37.2051V57.3027C56.916 57.6135 56.7926 57.9116 56.5728 58.1314C56.353 58.3511 56.0549 58.4746 55.7441 58.4746ZM45.4277 38.377V55.2188L49.4336 52.7871C49.6176 52.6746 49.8292 52.615 50.0449 52.615C50.2607 52.615 50.4722 52.6746 50.6562 52.7871L54.5723 55.1992V38.377H45.4277Z" fill="url(#paint1_linear_468_5942)"/>
<path d="M38.6289 84.4121H29.793C29.4822 84.4121 29.1841 84.2886 28.9643 84.0689C28.7446 83.8491 28.6211 83.551 28.6211 83.2402V72.8887C28.6211 72.5779 28.7446 72.2798 28.9643 72.06C29.1841 71.8403 29.4822 71.7168 29.793 71.7168H38.6289C38.9397 71.7168 39.2378 71.8403 39.4575 72.06C39.6773 72.2798 39.8008 72.5779 39.8008 72.8887V83.2402C39.8008 83.551 39.6773 83.8491 39.4575 84.0689C39.2378 84.2886 38.9397 84.4121 38.6289 84.4121ZM30.9648 82.0684H37.457V74.0605H30.9648V82.0684Z" fill="url(#paint2_linear_468_5942)"/>
<path d="M76.3906 82.7051H44.8145C44.5037 82.7051 44.2056 82.5816 43.9858 82.3618C43.766 82.1421 43.6426 81.844 43.6426 81.5332C43.6426 81.2224 43.766 80.9243 43.9858 80.7046C44.2056 80.4848 44.5037 80.3613 44.8145 80.3613H76.3906C76.7014 80.3613 76.9995 80.4848 77.2193 80.7046C77.439 80.9243 77.5625 81.2224 77.5625 81.5332C77.5625 81.844 77.439 82.1421 77.2193 82.3618C76.9995 82.5816 76.7014 82.7051 76.3906 82.7051Z" fill="url(#paint3_linear_468_5942)"/>
<path d="M76.3906 75.7812H44.8145C44.5037 75.7812 44.2056 75.6578 43.9858 75.438C43.766 75.2182 43.6426 74.9202 43.6426 74.6094C43.6426 74.2986 43.766 74.0005 43.9858 73.7807C44.2056 73.561 44.5037 73.4375 44.8145 73.4375H76.3906C76.7014 73.4375 76.9995 73.561 77.2193 73.7807C77.439 74.0005 77.5625 74.2986 77.5625 74.6094C77.5625 74.9202 77.439 75.2182 77.2193 75.438C76.9995 75.6578 76.7014 75.7812 76.3906 75.7812Z" fill="url(#paint4_linear_468_5942)"/>
<path d="M23.9984 65.4297C23.7402 65.43 23.4891 65.345 23.2842 65.1879C23.0792 65.0308 22.9319 64.8104 22.8651 64.561C22.7983 64.3116 22.8157 64.0471 22.9147 63.8086C23.0137 63.5701 23.1887 63.371 23.4124 63.2422L35.3968 56.3242V37.2051C35.3968 36.8943 35.5203 36.5962 35.74 36.3764C35.9598 36.1567 36.2579 36.0332 36.5687 36.0332C36.8795 36.0332 37.1776 36.1567 37.3973 36.3764C37.6171 36.5962 37.7406 36.8943 37.7406 37.2051V57.0078C37.7407 57.2136 37.6866 57.4159 37.5837 57.5942C37.4809 57.7725 37.3329 57.9205 37.1546 58.0234L24.5843 65.2812C24.4053 65.3811 24.2033 65.4323 23.9984 65.4297Z" fill="url(#paint5_linear_468_5942)"/>
<path d="M76.3887 65.4297C76.183 65.4299 75.981 65.376 75.8027 65.2734L63.2324 58.0156C63.0542 57.9127 62.9062 57.7647 62.8033 57.5864C62.7004 57.4081 62.6464 57.2058 62.6465 57V37.2051C62.6465 36.8943 62.7699 36.5962 62.9897 36.3764C63.2095 36.1567 63.5076 36.0332 63.8184 36.0332C64.1292 36.0332 64.4272 36.1567 64.647 36.3764C64.8668 36.5962 64.9902 36.8943 64.9902 37.2051V56.332L76.9746 63.25C77.1984 63.3788 77.3734 63.5779 77.4723 63.8164C77.5713 64.0549 77.5888 64.3194 77.5219 64.5688C77.4551 64.8182 77.3078 65.0386 77.1029 65.1957C76.898 65.3528 76.6469 65.4378 76.3887 65.4375V65.4297Z" fill="url(#paint6_linear_468_5942)"/>
<path d="M60.4238 65.3594H39.5859C39.2751 65.3594 38.9771 65.2359 38.7573 65.0161C38.5375 64.7964 38.4141 64.4983 38.4141 64.1875C38.4141 63.8767 38.5375 63.5786 38.7573 63.3589C38.9771 63.1391 39.2751 63.0156 39.5859 63.0156H60.4238C60.7346 63.0156 61.0327 63.1391 61.2525 63.3589C61.4722 63.5786 61.5957 63.8767 61.5957 64.1875C61.5957 64.4983 61.4722 64.7964 61.2525 65.0161C61.0327 65.2359 60.7346 65.3594 60.4238 65.3594Z" fill="url(#paint7_linear_468_5942)"/>
<path d="M30.2734 54.9395C29.9626 54.9395 29.6646 54.816 29.4448 54.5962C29.225 54.3765 29.1016 54.0784 29.1016 53.7676V42.8711C29.1016 42.5603 29.225 42.2622 29.4448 42.0425C29.6646 41.8227 29.9626 41.6992 30.2734 41.6992C30.5842 41.6992 30.8823 41.8227 31.1021 42.0425C31.3218 42.2622 31.4453 42.5603 31.4453 42.8711V53.7676C31.4453 54.0784 31.3218 54.3765 31.1021 54.5962C30.8823 54.816 30.5842 54.9395 30.2734 54.9395Z" fill="url(#paint8_linear_468_5942)"/>
<path d="M70.1055 54.9395C69.7947 54.9395 69.4966 54.816 69.2768 54.5962C69.0571 54.3765 68.9336 54.0784 68.9336 53.7676V42.8711C68.9336 42.5603 69.0571 42.2622 69.2768 42.0425C69.4966 41.8227 69.7947 41.6992 70.1055 41.6992C70.4163 41.6992 70.7143 41.8227 70.9341 42.0425C71.1539 42.2622 71.2773 42.5603 71.2773 42.8711V53.7676C71.2773 54.0784 71.1539 54.3765 70.9341 54.5962C70.7143 54.816 70.4163 54.9395 70.1055 54.9395Z" fill="url(#paint9_linear_468_5942)"/>
<path d="M87.9531 91.1582H12.0469C10.1475 91.1561 8.32648 90.4007 6.9834 89.0576C5.64033 87.7145 4.88488 85.8935 4.88281 83.9941V16.0156C4.88229 14.1145 5.6366 12.291 6.97995 10.9458C8.32331 9.60066 10.1458 8.84387 12.0469 8.8418H87.9531C89.8542 8.84387 91.6767 9.60066 93.02 10.9458C94.3634 12.291 95.1177 14.1145 95.1172 16.0156V84.0039C95.1125 85.9016 94.3559 87.7201 93.0132 89.0611C91.6704 90.402 89.8508 91.1562 87.9531 91.1582ZM12.0469 11.1855C10.7672 11.1871 9.54059 11.6968 8.63666 12.6026C7.73273 13.5083 7.22553 14.736 7.22656 16.0156V84.0039C7.22811 85.2819 7.73646 86.507 8.64011 87.4107C9.54376 88.3143 10.7689 88.8227 12.0469 88.8242H87.9531C89.2328 88.8227 90.4594 88.313 91.3633 87.4072C92.2673 86.5015 92.7745 85.2738 92.7734 83.9941V16.0156C92.7719 14.7377 92.2635 13.5125 91.3599 12.6089C90.4562 11.7052 89.2311 11.1969 87.9531 11.1953L12.0469 11.1855Z" fill="url(#paint10_linear_468_5942)"/>
<path d="M93.9453 28.623H6.05469C5.74389 28.623 5.44582 28.4996 5.22605 28.2798C5.00628 28.06 4.88281 27.762 4.88281 27.4512C4.88281 27.1404 5.00628 26.8423 5.22605 26.6225C5.44582 26.4028 5.74389 26.2793 6.05469 26.2793H93.9453C94.2561 26.2793 94.5542 26.4028 94.774 26.6225C94.9937 26.8423 95.1172 27.1404 95.1172 27.4512C95.1172 27.762 94.9937 28.06 94.774 28.2798C94.5542 28.4996 94.2561 28.623 93.9453 28.623Z" fill="url(#paint11_linear_468_5942)"/>
<path d="M39.4629 23.0625C38.6064 23.0629 37.769 22.8093 37.0567 22.3337C36.3444 21.8581 35.7891 21.182 35.461 20.3908C35.133 19.5996 35.047 18.7289 35.2138 17.8889C35.3807 17.0488 35.7929 16.2771 36.3984 15.6713C37.0039 15.0655 37.7755 14.6529 38.6155 14.4857C39.4555 14.3185 40.3262 14.4041 41.1175 14.7318C41.9089 15.0594 42.5853 15.6144 43.0611 16.3266C43.537 17.0387 43.791 17.8759 43.791 18.7324C43.79 19.8802 43.3337 20.9807 42.5223 21.7924C41.7109 22.6042 40.6106 23.0609 39.4629 23.0625ZM39.4629 16.748C39.0699 16.7477 38.6856 16.8639 38.3586 17.082C38.0317 17.3001 37.7768 17.6103 37.6262 17.9733C37.4756 18.3364 37.4361 18.7359 37.5127 19.1214C37.5893 19.5069 37.7785 19.861 38.0564 20.1389C38.3343 20.4168 38.6884 20.6061 39.0739 20.6826C39.4594 20.7592 39.8589 20.7197 40.222 20.5691C40.585 20.4185 40.8952 20.1637 41.1133 19.8367C41.3314 19.5098 41.4477 19.1254 41.4473 18.7324C41.4462 18.2065 41.2368 17.7023 40.8649 17.3304C40.493 16.9585 39.9889 16.7491 39.4629 16.748Z" fill="url(#paint12_linear_468_5942)"/>
<path d="M51.8262 23.0625C50.9697 23.0629 50.1323 22.8093 49.42 22.3337C48.7076 21.8581 48.1523 21.182 47.8243 20.3908C47.4963 19.5996 47.4102 18.7289 47.5771 17.8889C47.744 17.0488 48.1562 16.2771 48.7617 15.6713C49.3672 15.0655 50.1387 14.6529 50.9787 14.4857C51.8188 14.3185 52.6895 14.4041 53.4808 14.7318C54.2722 15.0594 54.9485 15.6144 55.4244 16.3266C55.9003 17.0387 56.1543 17.8759 56.1543 18.7324C56.1533 19.8802 55.697 20.9807 54.8856 21.7924C54.0742 22.6042 52.9739 23.0609 51.8262 23.0625ZM51.8262 16.748C51.4332 16.7477 51.0488 16.8639 50.7219 17.082C50.3949 17.3001 50.14 17.6103 49.9895 17.9733C49.8389 18.3364 49.7994 18.7359 49.876 19.1214C49.9525 19.5069 50.1418 19.861 50.4197 20.1389C50.6976 20.4168 51.0517 20.6061 51.4372 20.6826C51.8227 20.7592 52.2222 20.7197 52.5853 20.5691C52.9483 20.4185 53.2585 20.1637 53.4766 19.8367C53.6947 19.5098 53.8109 19.1254 53.8106 18.7324C53.8095 18.2065 53.6001 17.7023 53.2282 17.3304C52.8563 16.9585 52.3521 16.7491 51.8262 16.748Z" fill="url(#paint13_linear_468_5942)"/>
<path d="M64.1895 23.0625C63.333 23.0625 62.4959 22.8085 61.7838 22.3328C61.0717 21.857 60.5167 21.1807 60.189 20.3895C59.8613 19.5983 59.7755 18.7276 59.9426 17.8877C60.1097 17.0477 60.5221 16.2762 61.1276 15.6706C61.7332 15.065 62.5047 14.6526 63.3447 14.4855C64.1847 14.3185 65.0553 14.4042 65.8465 14.732C66.6377 15.0597 67.314 15.6147 67.7898 16.3268C68.2656 17.0388 68.5195 17.876 68.5195 18.7324C68.5185 19.8805 68.062 20.9813 67.2501 21.7931C66.4383 22.6049 65.3375 23.0615 64.1895 23.0625ZM64.1895 16.748C63.7965 16.748 63.4124 16.8646 63.0857 17.0829C62.759 17.3013 62.5044 17.6116 62.3541 17.9747C62.2039 18.3378 62.1646 18.7372 62.2414 19.1226C62.3182 19.508 62.5076 19.8619 62.7856 20.1396C63.0636 20.4173 63.4177 20.6064 63.8031 20.6828C64.1886 20.7592 64.588 20.7196 64.9509 20.5689C65.3139 20.4183 65.624 20.1634 65.842 19.8365C66.06 19.5096 66.1762 19.1254 66.1758 18.7324C66.1753 18.206 65.9658 17.7012 65.5933 17.3291C65.2209 16.9571 64.7159 16.748 64.1895 16.748Z" fill="url(#paint14_linear_468_5942)"/>
<path d="M30.2559 19.9043H14.9297C14.6189 19.9043 14.3208 19.7808 14.101 19.5611C13.8813 19.3413 13.7578 19.0432 13.7578 18.7324C13.7578 18.4216 13.8813 18.1235 14.101 17.9038C14.3208 17.684 14.6189 17.5605 14.9297 17.5605H30.2559C30.5667 17.5605 30.8647 17.684 31.0845 17.9038C31.3043 18.1235 31.4277 18.4216 31.4277 18.7324C31.4277 19.0432 31.3043 19.3413 31.0845 19.5611C30.8647 19.7808 30.5667 19.9043 30.2559 19.9043Z" fill="url(#paint15_linear_468_5942)"/>
<defs>
<linearGradient id="paint0_linear_468_5942" x1="50" y1="36.0332" x2="50" y2="91.1582" gradientUnits="userSpaceOnUse">
<stop stop-color="#72C7D8"/>
<stop offset="0.489583" stop-color="#26519A"/>
<stop offset="1" stop-color="#41A575"/>
</linearGradient>
<linearGradient id="paint1_linear_468_5942" x1="50" y1="36.0332" x2="50" y2="58.4756" gradientUnits="userSpaceOnUse">
<stop stop-color="#72C7D8"/>
<stop offset="0.489583" stop-color="#26519A"/>
<stop offset="1" stop-color="#41A575"/>
</linearGradient>
<linearGradient id="paint2_linear_468_5942" x1="34.2109" y1="71.7168" x2="34.2109" y2="84.4121" gradientUnits="userSpaceOnUse">
<stop stop-color="#72C7D8"/>
<stop offset="0.489583" stop-color="#26519A"/>
<stop offset="1" stop-color="#41A575"/>
</linearGradient>
<linearGradient id="paint3_linear_468_5942" x1="60.6025" y1="80.3613" x2="60.6025" y2="82.7051" gradientUnits="userSpaceOnUse">
<stop stop-color="#72C7D8"/>
<stop offset="0.489583" stop-color="#26519A"/>
<stop offset="1" stop-color="#41A575"/>
</linearGradient>
<linearGradient id="paint4_linear_468_5942" x1="60.6025" y1="73.4375" x2="60.6025" y2="75.7812" gradientUnits="userSpaceOnUse">
<stop stop-color="#72C7D8"/>
<stop offset="0.489583" stop-color="#26519A"/>
<stop offset="1" stop-color="#41A575"/>
</linearGradient>
<linearGradient id="paint5_linear_468_5942" x1="30.2829" y1="36.0332" x2="30.2829" y2="65.4298" gradientUnits="userSpaceOnUse">
<stop stop-color="#72C7D8"/>
<stop offset="0.489583" stop-color="#26519A"/>
<stop offset="1" stop-color="#41A575"/>
</linearGradient>
<linearGradient id="paint6_linear_468_5942" x1="70.1042" y1="36.0332" x2="70.1042" y2="65.4375" gradientUnits="userSpaceOnUse">
<stop stop-color="#72C7D8"/>
<stop offset="0.489583" stop-color="#26519A"/>
<stop offset="1" stop-color="#41A575"/>
</linearGradient>
<linearGradient id="paint7_linear_468_5942" x1="50.0049" y1="63.0156" x2="50.0049" y2="65.3594" gradientUnits="userSpaceOnUse">
<stop stop-color="#72C7D8"/>
<stop offset="0.489583" stop-color="#26519A"/>
<stop offset="1" stop-color="#41A575"/>
</linearGradient>
<linearGradient id="paint8_linear_468_5942" x1="30.2734" y1="41.6992" x2="30.2734" y2="54.9395" gradientUnits="userSpaceOnUse">
<stop stop-color="#72C7D8"/>
<stop offset="0.489583" stop-color="#26519A"/>
<stop offset="1" stop-color="#41A575"/>
</linearGradient>
<linearGradient id="paint9_linear_468_5942" x1="70.1055" y1="41.6992" x2="70.1055" y2="54.9395" gradientUnits="userSpaceOnUse">
<stop stop-color="#72C7D8"/>
<stop offset="0.489583" stop-color="#26519A"/>
<stop offset="1" stop-color="#41A575"/>
</linearGradient>
<linearGradient id="paint10_linear_468_5942" x1="50" y1="8.8418" x2="50" y2="91.1582" gradientUnits="userSpaceOnUse">
<stop stop-color="#72C7D8"/>
<stop offset="0.489583" stop-color="#26519A"/>
<stop offset="1" stop-color="#41A575"/>
</linearGradient>
<linearGradient id="paint11_linear_468_5942" x1="50" y1="26.2793" x2="50" y2="28.623" gradientUnits="userSpaceOnUse">
<stop stop-color="#72C7D8"/>
<stop offset="0.489583" stop-color="#26519A"/>
<stop offset="1" stop-color="#41A575"/>
</linearGradient>
<linearGradient id="paint12_linear_468_5942" x1="39.4609" y1="14.4023" x2="39.4609" y2="23.0625" gradientUnits="userSpaceOnUse">
<stop stop-color="#72C7D8"/>
<stop offset="0.489583" stop-color="#26519A"/>
<stop offset="1" stop-color="#41A575"/>
</linearGradient>
<linearGradient id="paint13_linear_468_5942" x1="51.8242" y1="14.4023" x2="51.8242" y2="23.0625" gradientUnits="userSpaceOnUse">
<stop stop-color="#72C7D8"/>
<stop offset="0.489583" stop-color="#26519A"/>
<stop offset="1" stop-color="#41A575"/>
</linearGradient>
<linearGradient id="paint14_linear_468_5942" x1="64.1895" y1="14.4023" x2="64.1895" y2="23.0625" gradientUnits="userSpaceOnUse">
<stop stop-color="#72C7D8"/>
<stop offset="0.489583" stop-color="#26519A"/>
<stop offset="1" stop-color="#41A575"/>
</linearGradient>
<linearGradient id="paint15_linear_468_5942" x1="22.5928" y1="17.5605" x2="22.5928" y2="19.9043" gradientUnits="userSpaceOnUse">
<stop stop-color="#72C7D8"/>
<stop offset="0.489583" stop-color="#26519A"/>
<stop offset="1" stop-color="#41A575"/>
</linearGradient>
</defs>
</svg>
