<svg width="92" height="90" viewBox="0 0 92 90" fill="none" xmlns="http://www.w3.org/2000/svg">
<path d="M83.9844 78.5723H83.9336C83.7278 78.5657 83.5254 78.5186 83.338 78.4335C83.1505 78.3485 82.9817 78.2273 82.8412 78.0769C82.7007 77.9264 82.5914 77.7497 82.5194 77.5568C82.4475 77.364 82.4143 77.1588 82.4219 76.9531C82.5039 74.2871 82.7558 67.9336 83.3164 66.5176C84.8418 62.668 89.4883 49.5742 85.2402 42.748C84.8633 42.1406 76.9277 26.6543 74.498 21.9238C74.2793 21.4905 73.9441 21.1266 73.5301 20.873C73.1162 20.6195 72.6397 20.4862 72.1543 20.4883C71.7412 20.4875 71.3339 20.586 70.9668 20.7754C70.348 21.0916 69.8798 21.6402 69.6648 22.3011C69.4499 22.962 69.5058 23.6811 69.8203 24.3008L77.8867 40.1328C77.9872 40.3162 78.0498 40.5179 78.0709 40.726C78.092 40.9341 78.0711 41.1442 78.0094 41.3441C77.9478 41.5439 77.8467 41.7294 77.712 41.8894C77.5774 42.0494 77.412 42.1808 77.2257 42.2757C77.0393 42.3707 76.8358 42.4272 76.6272 42.4421C76.4186 42.4569 76.2091 42.4297 76.0112 42.3621C75.8133 42.2945 75.631 42.1879 75.4751 42.0485C75.3192 41.9091 75.1928 41.7399 75.1035 41.5508L67.0371 25.7207C66.6948 25.0479 66.4884 24.3143 66.4296 23.5618C66.3708 22.8092 66.4609 22.0525 66.6946 21.3347C67.1665 19.8852 68.195 18.6825 69.5537 17.9912C70.9124 17.2999 72.4901 17.1767 73.9397 17.6487C74.6574 17.8824 75.3221 18.2551 75.8958 18.7457C76.4695 19.2363 76.9409 19.835 77.2832 20.5078C81.3242 28.4004 87.4726 40.375 87.8965 41.1172C92.7656 48.9648 88.3437 62.3027 86.2168 67.6797C85.9551 68.4609 85.6601 73.1601 85.539 77.0547C85.5274 77.4599 85.3587 77.8447 85.0686 78.1279C84.7785 78.4111 84.3897 78.5704 83.9844 78.5723Z" fill="url(#paint0_linear_468_5982)"/>
<path d="M66.7227 78.5723C66.3083 78.5723 65.9108 78.4077 65.6178 78.1146C65.3248 77.8216 65.1602 77.4242 65.1602 77.0098V74.1641C65.1602 71.4629 65.7715 64.9238 67.1875 62.0547C68.0039 60.3926 68.6973 54.1465 68.7207 52.8203L68.8672 44.3809C68.8959 42.9055 69.5081 41.5016 70.5697 40.4767C71.6313 39.4517 73.0558 38.8891 74.5313 38.9121H74.875C76.3509 38.9393 77.7556 39.551 78.781 40.613C79.8063 41.6749 80.3683 43.1003 80.3437 44.5762L80.1484 55.4512C80.1448 55.6564 80.1009 55.8588 80.019 56.047C79.9372 56.2352 79.8191 56.4055 79.6715 56.548C79.5238 56.6906 79.3496 56.8027 79.1586 56.8779C78.9677 56.9531 78.7638 56.9899 78.5586 56.9863C78.3534 56.9827 78.1509 56.9388 77.9627 56.8569C77.7745 56.7751 77.6043 56.657 77.4618 56.5094C77.3192 56.3617 77.2071 56.1875 77.1319 55.9965C77.0567 55.8056 77.0198 55.6017 77.0234 55.3965L77.2187 44.5215C77.2297 43.8717 76.9822 43.2442 76.5306 42.7768C76.079 42.3095 75.4603 42.0406 74.8105 42.0293H74.4668C73.8173 42.0183 73.1901 42.2656 72.7228 42.7168C72.2555 43.1679 71.9864 43.7861 71.9746 44.4356L71.8281 52.875C71.8105 53.8399 71.1836 60.9746 69.9727 63.4336C68.9473 65.5176 68.2676 71.2754 68.2676 74.1758V77.0215C68.2645 77.4308 68.101 77.8226 67.8121 78.1126C67.5232 78.4026 67.132 78.5677 66.7227 78.5723Z" fill="url(#paint1_linear_468_5982)"/>
<path d="M89.4531 89.4531H61.2461C60.8317 89.4531 60.4343 89.2885 60.1412 88.9955C59.8482 88.7025 59.6836 88.305 59.6836 87.8906V77.0098C59.6836 76.5954 59.8482 76.1979 60.1412 75.9049C60.4343 75.6119 60.8317 75.4473 61.2461 75.4473H89.4531C89.8675 75.4473 90.265 75.6119 90.558 75.9049C90.851 76.1979 91.0156 76.5954 91.0156 77.0098V87.8906C91.0156 88.305 90.851 88.7025 90.558 88.9955C90.265 89.2885 89.8675 89.4531 89.4531 89.4531ZM62.8086 86.3281H87.8906V78.5723H62.8086V86.3281Z" fill="url(#paint2_linear_468_5982)"/>
<path d="M72.0952 84.0097H65.7339C65.3195 84.0097 64.9221 83.8451 64.6291 83.552C64.336 83.259 64.1714 82.8616 64.1714 82.4472C64.1714 82.0328 64.336 81.6354 64.6291 81.3423C64.9221 81.0493 65.3195 80.8847 65.7339 80.8847H72.0952C72.5096 80.8847 72.9071 81.0493 73.2001 81.3423C73.4931 81.6354 73.6577 82.0328 73.6577 82.4472C73.6577 82.8616 73.4931 83.259 73.2001 83.552C72.9071 83.8451 72.5096 84.0097 72.0952 84.0097ZM7.03079 78.5722C6.62438 78.5724 6.2339 78.4142 5.94218 78.1312C5.65047 77.8483 5.48048 77.4628 5.46829 77.0566C5.3472 73.1503 5.05227 68.4628 4.7847 67.662C2.67141 62.3046 -1.75827 48.9667 3.12454 41.1191C3.54837 40.3769 9.6968 28.4023 13.7398 20.5077C14.4321 19.1501 15.6354 18.123 17.0849 17.6525C18.5345 17.182 20.1116 17.3066 21.4693 17.999C22.8269 18.6913 23.854 19.8946 24.3245 21.3441C24.795 22.7937 24.6704 24.3708 23.9781 25.7284L15.9116 41.5585C15.8223 41.7476 15.696 41.9169 15.5401 42.0562C15.3841 42.1956 15.2018 42.3023 15.0039 42.3699C14.806 42.4375 14.5965 42.4647 14.3879 42.4498C14.1793 42.435 13.9758 42.3784 13.7895 42.2835C13.6031 42.1886 13.4378 42.0572 13.3031 41.8971C13.1685 41.7371 13.0674 41.5517 13.0057 41.3518C12.9441 41.152 12.9232 40.9418 12.9443 40.7337C12.9653 40.5257 13.028 40.324 13.1284 40.1406L21.1929 24.3085C21.508 23.6892 21.5645 22.97 21.3499 22.3091C21.1353 21.6481 20.6672 21.0993 20.0484 20.7831C19.6812 20.5937 19.274 20.4953 18.8609 20.496C18.3758 20.4934 17.8996 20.626 17.4856 20.8788C17.0716 21.1317 16.7363 21.4949 16.5171 21.9277C14.0933 26.662 6.16555 42.1484 5.77493 42.7558C1.52688 49.5917 6.16555 62.6777 7.69876 66.5253C8.2593 67.9413 8.51126 74.2949 8.59329 76.9609C8.60592 77.3747 8.45382 77.7766 8.17038 78.0783C7.88695 78.3801 7.49535 78.557 7.08157 78.5702L7.03079 78.5722Z" fill="url(#paint3_linear_468_5982)"/>
<path d="M24.293 78.5723C23.8786 78.5723 23.4811 78.4077 23.1881 78.1146C22.8951 77.8216 22.7305 77.4242 22.7305 77.0098V74.1641C22.7305 71.2695 22.0508 65.5117 21.0254 63.4219C19.8145 60.9629 19.1875 53.8281 19.1699 52.8633L19.0234 44.4238C19.0106 43.7747 18.7412 43.1571 18.2741 42.7062C17.8071 42.2552 17.1804 42.0076 16.5313 42.0176H16.1875C15.8639 42.0232 15.5446 42.0927 15.2481 42.2223C14.9515 42.3519 14.6836 42.539 14.4597 42.7727C14.2358 43.0064 14.0604 43.2821 13.9436 43.5839C13.8269 43.8858 13.771 44.2077 13.7793 44.5313L13.9746 55.4063C13.9819 55.8203 13.8246 56.2204 13.5371 56.5185C13.2496 56.8166 12.8555 56.9884 12.4414 56.9961H12.4121C12.0024 56.9962 11.6091 56.8353 11.3168 56.5482C11.0246 56.261 10.8568 55.8706 10.8496 55.4609L10.6543 44.5859C10.6297 43.11 11.1918 41.6847 12.2171 40.6227C13.2424 39.5608 14.6472 38.9491 16.1231 38.9219H16.4668C17.9423 38.8989 19.3668 39.4614 20.4283 40.4864C21.4899 41.5114 22.1021 42.9153 22.1309 44.3906L22.2774 52.8301C22.3008 54.1563 22.9942 60.4023 23.8106 62.0645C25.2266 64.9395 25.8379 71.4785 25.8379 74.1738V77.0195C25.8354 77.4292 25.672 77.8215 25.3831 78.1119C25.0941 78.4024 24.7026 78.5677 24.293 78.5723Z" fill="url(#paint4_linear_468_5982)"/>
<path d="M29.7695 89.4531H1.5625C1.1481 89.4531 0.750671 89.2885 0.457646 88.9955C0.16462 88.7025 0 88.305 0 87.8906V77.0098C0 76.5954 0.16462 76.1979 0.457646 75.9049C0.750671 75.6119 1.1481 75.4473 1.5625 75.4473H29.7695C30.1839 75.4473 30.5814 75.6119 30.8744 75.9049C31.1674 76.1979 31.332 76.5954 31.332 77.0098V87.8906C31.332 88.305 31.1674 88.7025 30.8744 88.9955C30.5814 89.2885 30.1839 89.4531 29.7695 89.4531ZM3.125 86.3281H28.207V78.5723H3.125V86.3281Z" fill="url(#paint5_linear_468_5982)"/>
<path d="M25.2812 84.0098H18.9199C18.5055 84.0098 18.1081 83.8452 17.8151 83.5521C17.522 83.2591 17.3574 82.8617 17.3574 82.4473C17.3574 82.0329 17.522 81.6354 17.8151 81.3424C18.1081 81.0494 18.5055 80.8848 18.9199 80.8848H25.2812C25.6957 80.8848 26.0931 81.0494 26.3861 81.3424C26.6791 81.6354 26.8438 82.0329 26.8438 82.4473C26.8438 82.8617 26.6791 83.2591 26.3861 83.5521C26.0931 83.8452 25.6957 84.0098 25.2812 84.0098ZM45.5703 65.291H44.8203C41.1169 65.2415 37.4909 64.2239 34.3024 62.3395C31.1139 60.455 28.4739 57.7692 26.6445 54.5488C24.7557 51.3101 23.7466 47.6336 23.7175 43.8844C23.6884 40.1352 24.6402 36.4435 26.4785 33.1758C26.5039 33.1289 26.5332 33.084 26.5625 33.0391L36.3574 19.0391C36.4751 18.8709 36.6248 18.7277 36.7979 18.6174C36.9711 18.5071 37.1642 18.432 37.3663 18.3964C37.5684 18.3607 37.7756 18.3652 37.976 18.4097C38.1764 18.4541 38.3661 18.5376 38.5342 18.6553C38.7023 18.773 38.8456 18.9227 38.9559 19.0958C39.0662 19.2689 39.1413 19.462 39.1769 19.6642C39.2125 19.8663 39.208 20.0735 39.1636 20.2739C39.1192 20.4742 39.0357 20.6639 38.918 20.832L29.1699 34.7656C27.6152 37.5577 26.8143 40.7064 26.8461 43.902C26.878 47.0976 27.7415 50.2298 29.3516 52.9902C30.9121 55.7406 33.165 58.0349 35.8864 59.6452C38.6079 61.2555 41.7033 62.1259 44.8652 62.1699H45.8262C49.0254 62.1416 52.1624 61.2831 54.9303 59.6785C57.6981 58.0738 60.0019 55.7781 61.6162 53.0159C63.2305 50.2537 64.1 47.1196 64.1395 43.9205C64.179 40.7215 63.3873 37.5669 61.8418 34.7656L52.0957 20.8359C51.978 20.6677 51.8945 20.4779 51.8502 20.2774C51.8058 20.0769 51.8013 19.8696 51.8371 19.6674C51.8728 19.4652 51.948 19.272 52.0584 19.0988C52.1688 18.9257 52.3122 18.7759 52.4805 18.6582C52.6487 18.5405 52.8385 18.4571 53.039 18.4127C53.2395 18.3683 53.4468 18.3638 53.649 18.3996C53.8512 18.4353 54.0445 18.5105 54.2176 18.6209C54.3908 18.7313 54.5405 18.8747 54.6582 19.043L64.4531 33.0371C64.4824 33.082 64.5117 33.127 64.5371 33.1738C66.3621 36.4482 67.3035 40.1412 67.2689 43.8896C67.2343 47.6381 66.2249 51.313 64.3398 54.5532C62.4547 57.7933 59.7588 60.4871 56.5173 62.3698C53.2757 64.2525 49.6 65.2592 45.8516 65.291H45.5703Z" fill="url(#paint6_linear_468_5982)"/>
<path d="M52.25 21.5938H38.7734C38.1217 21.5938 37.4763 21.4654 36.8742 21.216C36.2721 20.9666 35.725 20.601 35.2641 20.1402C34.8033 19.6793 34.4377 19.1322 34.1883 18.5301C33.9389 17.9279 33.8105 17.2826 33.8105 16.6309C33.8105 15.9791 33.9389 15.3338 34.1883 14.7316C34.4377 14.1295 34.8033 13.5824 35.2641 13.1216C35.725 12.6607 36.2721 12.2952 36.8742 12.0457C37.4763 11.7963 38.1217 11.668 38.7734 11.668H52.25C52.9017 11.668 53.5471 11.7963 54.1492 12.0457C54.7513 12.2952 55.2984 12.6607 55.7593 13.1216C56.2201 13.5824 56.5857 14.1295 56.8351 14.7316C57.0845 15.3338 57.2129 15.9791 57.2129 16.6309C57.2129 17.2826 57.0845 17.9279 56.8351 18.5301C56.5857 19.1322 56.2201 19.6793 55.7593 20.1402C55.2984 20.601 54.7513 20.9666 54.1492 21.216C53.5471 21.4654 52.9017 21.5938 52.25 21.5938ZM38.7734 14.793C38.5321 14.793 38.2931 14.8405 38.0701 14.9329C37.8471 15.0252 37.6445 15.1606 37.4739 15.3313C37.3032 15.5019 37.1678 15.7045 37.0754 15.9275C36.9831 16.1505 36.9355 16.3895 36.9355 16.6309C36.9355 16.8722 36.9831 17.1112 37.0754 17.3342C37.1678 17.5572 37.3032 17.7598 37.4739 17.9304C37.6445 18.1011 37.8471 18.2365 38.0701 18.3288C38.2931 18.4212 38.5321 18.4688 38.7734 18.4688H52.25C52.4914 18.4688 52.7303 18.4212 52.9533 18.3288C53.1763 18.2365 53.3789 18.1011 53.5496 17.9304C53.7203 17.7598 53.8556 17.5572 53.948 17.3342C54.0404 17.1112 54.0879 16.8722 54.0879 16.6309C54.0879 16.3895 54.0404 16.1505 53.948 15.9275C53.8556 15.7045 53.7203 15.5019 53.5496 15.3313C53.3789 15.1606 53.1763 15.0252 52.9533 14.9329C52.7303 14.8405 52.4914 14.793 52.25 14.793H38.7734Z" fill="url(#paint7_linear_468_5982)"/>
<path d="M51.5093 14.793H39.5054C39.1749 14.7927 38.8529 14.6877 38.5858 14.4929C38.3188 14.2981 38.1203 14.0237 38.0191 13.709L34.8668 3.92188C34.7853 3.68816 34.7605 3.43843 34.7945 3.19326C34.8284 2.94809 34.9202 2.7145 35.0621 2.51172C36.1695 0.917969 37.7457 0 39.4 0C41.0543 0 42.6421 0.923828 43.7496 2.53906C44.2671 3.29102 44.8941 3.71094 45.5074 3.71094C46.1207 3.71094 46.7574 3.29492 47.2652 2.53906C48.3726 0.923828 49.9566 0 51.6168 0C53.2769 0 54.8394 0.910156 55.939 2.49805C55.9802 2.55464 56.0174 2.61402 56.0503 2.67578C56.1386 2.84114 56.1962 3.02113 56.2203 3.20703C56.2407 3.36686 56.2368 3.52886 56.2085 3.6875C56.1932 3.76615 56.173 3.84378 56.148 3.91992L52.9957 13.7051C52.8951 14.0205 52.697 14.2958 52.4298 14.4913C52.1627 14.6868 51.8404 14.7925 51.5093 14.793ZM40.6441 11.668H50.3707L52.9293 3.74414C52.7619 3.55975 52.5598 3.41016 52.3346 3.30392C52.1094 3.19768 51.8655 3.13688 51.6168 3.125C50.9937 3.125 50.3668 3.53906 49.8589 4.29688C48.7496 5.90234 47.1675 6.82422 45.5074 6.82422C43.8472 6.82422 42.2652 5.90234 41.1636 4.29688C40.648 3.54297 40.0211 3.125 39.4058 3.125C39.1558 3.13608 38.9104 3.19648 38.6838 3.30274C38.4573 3.409 38.2539 3.55901 38.0855 3.74414L40.6441 11.668ZM35.7418 16.6719C35.6374 16.672 35.5334 16.6616 35.4312 16.6406L23.8296 14.2969C23.6269 14.2578 23.4338 14.179 23.2617 14.0649C23.0896 13.9508 22.9418 13.8038 22.8269 13.6322C22.712 13.4606 22.6322 13.268 22.5921 13.0654C22.5521 12.8629 22.5526 12.6544 22.5937 12.452C22.6347 12.2496 22.7155 12.0574 22.8313 11.8864C22.947 11.7154 23.0956 11.5691 23.2683 11.4559C23.4409 11.3426 23.6344 11.2648 23.8373 11.2268C24.0403 11.1887 24.2488 11.1913 24.4507 11.2344L30.2144 12.4062L25.7808 8.54688C25.6255 8.4126 25.4982 8.24906 25.4061 8.06558C25.314 7.88209 25.2589 7.68227 25.2441 7.47751C25.2292 7.27275 25.2548 7.06706 25.3194 6.8722C25.384 6.67733 25.4864 6.4971 25.6207 6.3418C25.7549 6.18649 25.9185 6.05916 26.102 5.96706C26.2854 5.87496 26.4853 5.8199 26.69 5.80503C26.8948 5.79016 27.1005 5.81576 27.2953 5.88038C27.4902 5.945 27.6704 6.04737 27.8257 6.18164L36.7769 13.9277C37.0142 14.137 37.1824 14.4133 37.2592 14.7202C37.336 15.0271 37.3179 15.3501 37.2072 15.6465C37.0965 15.9428 36.8984 16.1986 36.6392 16.3799C36.3799 16.5613 36.0718 16.6597 35.7554 16.6621L35.7418 16.6719ZM45.5074 51.9199C43.6175 51.9179 41.8056 51.166 40.4695 49.8295C39.1333 48.493 38.382 46.6809 38.3804 44.791C38.3804 44.3766 38.545 43.9792 38.8381 43.6862C39.1311 43.3931 39.5285 43.2285 39.9429 43.2285C40.3573 43.2285 40.7548 43.3931 41.0478 43.6862C41.3408 43.9792 41.5054 44.3766 41.5054 44.791C41.5054 45.5825 41.7401 46.3563 42.1799 47.0144C42.6196 47.6725 43.2446 48.1854 43.9759 48.4883C44.7072 48.7912 45.5118 48.8705 46.2881 48.7161C47.0644 48.5617 47.7775 48.1805 48.3372 47.6208C48.8969 47.0611 49.278 46.3481 49.4324 45.5718C49.5868 44.7955 49.5076 43.9908 49.2047 43.2595C48.9018 42.5283 48.3889 41.9033 47.7307 41.4635C47.0726 41.0238 46.2989 40.7891 45.5074 40.7891C44.0973 40.7894 42.7188 40.3717 41.5462 39.5886C40.3736 38.8055 39.4596 37.6922 38.9197 36.3896C38.3799 35.087 38.2384 33.6536 38.5133 32.2706C38.7881 30.8876 39.4669 29.6171 40.4638 28.6199C41.4608 27.6228 42.731 26.9436 44.1139 26.6684C45.4969 26.3931 46.9303 26.5342 48.2331 27.0737C49.5358 27.6132 50.6493 28.527 51.4328 29.6993C52.2162 30.8717 52.6343 32.2501 52.6343 33.6602C52.6343 34.0746 52.4697 34.472 52.1767 34.765C51.8837 35.058 51.4862 35.2227 51.0718 35.2227C50.6574 35.2227 50.26 35.058 49.967 34.765C49.674 34.472 49.5093 34.0746 49.5093 33.6602C49.5089 32.8687 49.2739 32.0952 48.8339 31.4373C48.394 30.7795 47.7688 30.2668 47.0375 29.9642C46.3062 29.6616 45.5016 29.5827 44.7254 29.7373C43.9493 29.8919 43.2364 30.2732 42.6769 30.833C42.1174 31.3928 41.7364 32.1058 41.5822 32.8821C41.4279 33.6583 41.5073 34.4629 41.8102 35.194C42.1132 35.9252 42.6261 36.5501 43.2842 36.9897C43.9423 37.4294 44.716 37.6641 45.5074 37.6641C47.3981 37.6641 49.2113 38.4151 50.5483 39.7521C51.8852 41.089 52.6363 42.9023 52.6363 44.793C52.6363 46.6837 51.8852 48.4969 50.5483 49.8339C49.2113 51.1708 47.3981 51.9219 45.5074 51.9219V51.9199Z" fill="url(#paint8_linear_468_5982)"/>
<path d="M45.5078 29.6582C45.0934 29.6582 44.696 29.4936 44.403 29.2006C44.1099 28.9075 43.9453 28.5101 43.9453 28.0957V23.9492C43.9453 23.5348 44.1099 23.1374 44.403 22.8444C44.696 22.5513 45.0934 22.3867 45.5078 22.3867C45.9222 22.3867 46.3196 22.5513 46.6127 22.8444C46.9057 23.1374 47.0703 23.5348 47.0703 23.9492V28.0957C47.0703 28.5101 46.9057 28.9075 46.6127 29.2006C46.3196 29.4936 45.9222 29.6582 45.5078 29.6582ZM45.5078 56.0664C45.0934 56.0664 44.696 55.9018 44.403 55.6088C44.1099 55.3157 43.9453 54.9183 43.9453 54.5039V50.3574C43.9453 49.943 44.1099 49.5456 44.403 49.2526C44.696 48.9595 45.0934 48.7949 45.5078 48.7949C45.9222 48.7949 46.3196 48.9595 46.6127 49.2526C46.9057 49.5456 47.0703 49.943 47.0703 50.3574V54.5039C47.0703 54.9183 46.9057 55.3157 46.6127 55.6088C46.3196 55.9018 45.9222 56.0664 45.5078 56.0664Z" fill="url(#paint9_linear_468_5982)"/>
<defs>
<linearGradient id="paint0_linear_468_5982" x1="78.255" y1="17.3663" x2="78.255" y2="78.5723" gradientUnits="userSpaceOnUse">
<stop stop-color="#72C7D8"/>
<stop offset="0.489583" stop-color="#26519A"/>
<stop offset="1" stop-color="#41A575"/>
</linearGradient>
<linearGradient id="paint1_linear_468_5982" x1="72.7523" y1="38.9114" x2="72.7523" y2="78.5723" gradientUnits="userSpaceOnUse">
<stop stop-color="#72C7D8"/>
<stop offset="0.489583" stop-color="#26519A"/>
<stop offset="1" stop-color="#41A575"/>
</linearGradient>
<linearGradient id="paint2_linear_468_5982" x1="75.3496" y1="75.4473" x2="75.3496" y2="89.4531" gradientUnits="userSpaceOnUse">
<stop stop-color="#72C7D8"/>
<stop offset="0.489583" stop-color="#26519A"/>
<stop offset="1" stop-color="#41A575"/>
</linearGradient>
<linearGradient id="paint3_linear_468_5982" x1="37.2864" y1="17.3718" x2="37.2864" y2="84.0097" gradientUnits="userSpaceOnUse">
<stop stop-color="#72C7D8"/>
<stop offset="0.489583" stop-color="#26519A"/>
<stop offset="1" stop-color="#41A575"/>
</linearGradient>
<linearGradient id="paint4_linear_468_5982" x1="18.2457" y1="38.9212" x2="18.2457" y2="78.5723" gradientUnits="userSpaceOnUse">
<stop stop-color="#72C7D8"/>
<stop offset="0.489583" stop-color="#26519A"/>
<stop offset="1" stop-color="#41A575"/>
</linearGradient>
<linearGradient id="paint5_linear_468_5982" x1="15.666" y1="75.4473" x2="15.666" y2="89.4531" gradientUnits="userSpaceOnUse">
<stop stop-color="#72C7D8"/>
<stop offset="0.489583" stop-color="#26519A"/>
<stop offset="1" stop-color="#41A575"/>
</linearGradient>
<linearGradient id="paint6_linear_468_5982" x1="42.3136" y1="18.3726" x2="42.3136" y2="84.0098" gradientUnits="userSpaceOnUse">
<stop stop-color="#72C7D8"/>
<stop offset="0.489583" stop-color="#26519A"/>
<stop offset="1" stop-color="#41A575"/>
</linearGradient>
<linearGradient id="paint7_linear_468_5982" x1="45.5117" y1="11.668" x2="45.5117" y2="21.5938" gradientUnits="userSpaceOnUse">
<stop stop-color="#72C7D8"/>
<stop offset="0.489583" stop-color="#26519A"/>
<stop offset="1" stop-color="#41A575"/>
</linearGradient>
<linearGradient id="paint8_linear_468_5982" x1="39.3978" y1="0" x2="39.3978" y2="51.9219" gradientUnits="userSpaceOnUse">
<stop stop-color="#72C7D8"/>
<stop offset="0.489583" stop-color="#26519A"/>
<stop offset="1" stop-color="#41A575"/>
</linearGradient>
<linearGradient id="paint9_linear_468_5982" x1="45.5078" y1="22.3867" x2="45.5078" y2="56.0664" gradientUnits="userSpaceOnUse">
<stop stop-color="#72C7D8"/>
<stop offset="0.489583" stop-color="#26519A"/>
<stop offset="1" stop-color="#41A575"/>
</linearGradient>
</defs>
</svg>
