<svg width="100" height="100" viewBox="0 0 100 100" fill="none" xmlns="http://www.w3.org/2000/svg">
<path d="M50 83.2441C49.5856 83.2441 49.1882 83.0795 48.8951 82.7865C48.6021 82.4935 48.4375 82.096 48.4375 81.6816V76.5723C48.4375 76.1579 48.6021 75.7604 48.8951 75.4674C49.1882 75.1744 49.5856 75.0098 50 75.0098C50.4144 75.0098 50.8118 75.1744 51.1049 75.4674C51.3979 75.7604 51.5625 76.1579 51.5625 76.5723V81.6816C51.5625 82.096 51.3979 82.4935 51.1049 82.7865C50.8118 83.0795 50.4144 83.2441 50 83.2441ZM65.8418 79C65.5675 79.0001 65.2979 78.9279 65.0603 78.7907C64.8228 78.6536 64.6254 78.4563 64.4883 78.2187L61.9336 73.7949C61.7264 73.4359 61.6703 73.0094 61.7776 72.609C61.8849 72.2087 62.1469 71.8673 62.5059 71.6601C62.8648 71.4529 63.2914 71.3968 63.6918 71.5042C64.0921 71.6115 64.4334 71.8734 64.6406 72.2324L67.1875 76.6562C67.3246 76.8938 67.3969 77.1633 67.3968 77.4376C67.3968 77.7119 67.3246 77.9814 67.1874 78.2189C67.0502 78.4564 66.8529 78.6537 66.6154 78.7908C66.3778 78.9279 66.1083 79.0001 65.834 79H65.8418ZM77.4355 67.4043C77.1613 67.4044 76.8919 67.3323 76.6543 67.1953L72.2324 64.6484C72.0491 64.5489 71.8875 64.4136 71.7573 64.2506C71.627 64.0875 71.5308 63.9001 71.4742 63.6993C71.4175 63.4984 71.4017 63.2883 71.4276 63.0813C71.4536 62.8742 71.5207 62.6745 71.625 62.4938C71.7294 62.3131 71.8689 62.1552 72.0353 62.0293C72.2017 61.9034 72.3916 61.8121 72.5938 61.7608C72.7961 61.7095 73.0066 61.6992 73.2129 61.7306C73.4191 61.7619 73.6171 61.8343 73.7949 61.9434L78.2188 64.498C78.5168 64.6699 78.7498 64.9354 78.8815 65.2533C79.0133 65.5711 79.0364 65.9236 78.9474 66.2559C78.8583 66.5883 78.6621 66.8819 78.3891 67.0913C78.1161 67.3007 77.7816 67.4142 77.4375 67.4141L77.4355 67.4043ZM81.6816 51.5625H76.5723C76.1579 51.5625 75.7604 51.3979 75.4674 51.1049C75.1744 50.8118 75.0098 50.4144 75.0098 50C75.0098 49.5856 75.1744 49.1882 75.4674 48.8951C75.7604 48.6021 76.1579 48.4375 76.5723 48.4375H81.6816C82.096 48.4375 82.4935 48.6021 82.7865 48.8951C83.0795 49.1882 83.2441 49.5856 83.2441 50C83.2441 50.4144 83.0795 50.8118 82.7865 51.1049C82.4935 51.3979 82.096 51.5625 81.6816 51.5625ZM73.0137 38.2812C72.6696 38.2814 72.3351 38.1679 72.0621 37.9585C71.7891 37.7491 71.5928 37.4555 71.5038 37.1231C71.4147 36.7908 71.4379 36.4383 71.5696 36.1205C71.7014 35.8026 71.9344 35.5371 72.2324 35.3652L76.6562 32.8125C76.834 32.7099 77.0302 32.6433 77.2337 32.6166C77.4372 32.5898 77.6439 32.6034 77.8422 32.6565C78.0404 32.7096 78.2262 32.8013 78.389 32.9263C78.5518 33.0512 78.6884 33.207 78.791 33.3848C78.8936 33.5625 78.9602 33.7587 78.987 33.9622C79.0137 34.1657 79.0001 34.3724 78.947 34.5707C78.8939 34.7689 78.8022 34.9547 78.6772 35.1175C78.5523 35.2803 78.3965 35.4169 78.2188 35.5195L73.7949 38.0664C73.5579 38.2055 73.2884 38.2796 73.0137 38.2812ZM63.2812 28.5508C63.0071 28.5505 62.7379 28.4781 62.5006 28.3408C62.2633 28.2036 62.0662 28.0063 61.9293 27.7688C61.7923 27.5314 61.7203 27.262 61.7204 26.9879C61.7204 26.7137 61.7926 26.4444 61.9297 26.207L64.4844 21.7832C64.587 21.6055 64.7236 21.4497 64.8864 21.3247C65.0492 21.1997 65.235 21.1081 65.4332 21.0549C65.6315 21.0018 65.8382 20.9882 66.0417 21.015C66.2452 21.0418 66.4414 21.1083 66.6191 21.2109C66.7969 21.3135 66.9527 21.4501 67.0776 21.6129C67.2026 21.7757 67.2943 21.9616 67.3474 22.1598C67.4005 22.358 67.4141 22.5648 67.3873 22.7683C67.3606 22.9717 67.294 23.168 67.1914 23.3457L64.6484 27.7676C64.5104 28.0075 64.311 28.2065 64.0708 28.3441C63.8306 28.4817 63.5581 28.5531 63.2812 28.5508ZM50 25C49.5856 25 49.1882 24.8354 48.8951 24.5424C48.6021 24.2493 48.4375 23.8519 48.4375 23.4375V18.3184C48.4375 17.904 48.6021 17.5065 48.8951 17.2135C49.1882 16.9205 49.5856 16.7559 50 16.7559C50.4144 16.7559 50.8118 16.9205 51.1049 17.2135C51.3979 17.5065 51.5625 17.904 51.5625 18.3184V23.4375C51.5625 23.8519 51.3979 24.2493 51.1049 24.5424C50.8118 24.8354 50.4144 25 50 25ZM36.7188 28.5508C36.4441 28.5512 36.1742 28.4792 35.9362 28.342C35.6982 28.2049 35.5006 28.0074 35.3633 27.7695L32.8125 23.3437C32.7099 23.166 32.6433 22.9698 32.6166 22.7663C32.5898 22.5628 32.6034 22.3561 32.6565 22.1578C32.7096 21.9596 32.8013 21.7738 32.9263 21.611C33.0512 21.4482 33.207 21.3116 33.3848 21.209C33.5625 21.1064 33.7587 21.0398 33.9622 21.013C34.1657 20.9863 34.3724 20.9999 34.5707 21.053C34.7689 21.1061 34.9547 21.1978 35.1175 21.3228C35.2803 21.4477 35.4169 21.6035 35.5195 21.7812L38.0742 26.2051C38.2113 26.4425 38.2835 26.7118 38.2836 26.9859C38.2836 27.2601 38.2116 27.5294 38.0746 27.7669C37.9377 28.0044 37.7407 28.2016 37.5033 28.3389C37.266 28.4761 36.9968 28.5485 36.7227 28.5488L36.7188 28.5508ZM26.9863 38.2812C26.7119 38.2808 26.4425 38.208 26.2051 38.0703L21.7812 35.5156C21.6035 35.413 21.4477 35.2764 21.3228 35.1136C21.1978 34.9508 21.1061 34.765 21.053 34.5668C20.9999 34.3685 20.9863 34.1618 21.013 33.9583C21.0398 33.7548 21.1064 33.5586 21.209 33.3809C21.3116 33.2031 21.4482 33.0473 21.611 32.9224C21.7738 32.7974 21.9596 32.7057 22.1578 32.6526C22.3561 32.5995 22.5628 32.5859 22.7663 32.6126C22.9698 32.6394 23.166 32.706 23.3437 32.8086L27.7676 35.3652C28.0656 35.5371 28.2986 35.8026 28.4304 36.1205C28.5621 36.4383 28.5853 36.7908 28.4962 37.1231C28.4072 37.4555 28.2109 37.7491 27.9379 37.9585C27.6649 38.1679 27.3304 38.2814 26.9863 38.2812ZM23.4375 51.5625H18.3184C17.904 51.5625 17.5065 51.3979 17.2135 51.1049C16.9205 50.8118 16.7559 50.4144 16.7559 50C16.7559 49.5856 16.9205 49.1882 17.2135 48.8951C17.5065 48.6021 17.904 48.4375 18.3184 48.4375H23.4375C23.8519 48.4375 24.2493 48.6021 24.5424 48.8951C24.8354 49.1882 25 49.5856 25 50C25 50.4144 24.8354 50.8118 24.5424 51.1049C24.2493 51.3979 23.8519 51.5625 23.4375 51.5625ZM22.5645 67.4043C22.2204 67.4044 21.8859 67.291 21.6129 67.0816C21.3399 66.8722 21.1436 66.5785 21.0546 66.2462C20.9655 65.9138 20.9887 65.5613 21.1204 65.2435C21.2522 64.9257 21.4852 64.6602 21.7832 64.4883L26.207 61.9336C26.3849 61.8245 26.5828 61.7522 26.7891 61.7208C26.9954 61.6894 27.2059 61.6997 27.4081 61.751C27.6103 61.8023 27.8003 61.8936 27.9667 62.0195C28.1331 62.1454 28.2726 62.3033 28.3769 62.484C28.4813 62.6647 28.5484 62.8645 28.5743 63.0715C28.6002 63.2785 28.5844 63.4887 28.5278 63.6895C28.4712 63.8903 28.3749 64.0778 28.2447 64.2408C28.1145 64.4038 27.9529 64.5391 27.7695 64.6387L23.3437 67.1875C23.1075 67.3269 22.8387 67.4017 22.5645 67.4043ZM34.1582 79C33.8839 79.0001 33.6144 78.9279 33.3768 78.7908C33.1393 78.6537 32.942 78.4564 32.8048 78.2189C32.6676 77.9814 32.5954 77.7119 32.5954 77.4376C32.5953 77.1633 32.6675 76.8938 32.8047 76.6562L35.3516 72.2324C35.4542 72.0547 35.5908 71.8989 35.7536 71.7739C35.9164 71.649 36.1022 71.5573 36.3004 71.5042C36.4987 71.451 36.7054 71.4374 36.9089 71.4642C37.1124 71.491 37.3086 71.5576 37.4863 71.6601C37.6641 71.7627 37.8199 71.8993 37.9448 72.0622C38.0698 72.225 38.1614 72.4108 38.2146 72.609C38.2677 72.8072 38.2813 73.014 38.2545 73.2175C38.2278 73.421 38.1612 73.6172 38.0586 73.7949L35.5039 78.2187C35.3674 78.4552 35.1713 78.6517 34.9352 78.7888C34.6991 78.9259 34.4312 78.9987 34.1582 79ZM61.207 14.0625C61.055 14.063 60.9036 14.0413 60.7578 13.998C60.0137 13.7754 59.2519 13.5742 58.4941 13.3984C58.2941 13.3523 58.1051 13.2671 57.9379 13.1479C57.7707 13.0287 57.6287 12.8777 57.5199 12.7036C57.4111 12.5295 57.3376 12.3357 57.3037 12.1332C57.2698 11.9307 57.2761 11.7235 57.3223 11.5234C57.3684 11.3234 57.4536 11.1344 57.5728 10.9672C57.692 10.8 57.843 10.658 58.0171 10.5492C58.1912 10.4404 58.385 10.3669 58.5875 10.333C58.79 10.2991 58.9972 10.3054 59.1973 10.3516C60.0195 10.5469 60.8457 10.7598 61.6523 11.002C62.0125 11.1087 62.3221 11.3417 62.5245 11.6581C62.7269 11.9745 62.8085 12.3533 62.7544 12.725C62.7003 13.0967 62.5142 13.4365 62.23 13.6821C61.9458 13.9277 61.5827 14.0628 61.207 14.0625ZM65.7012 87.418C65.342 87.4186 64.9936 87.2956 64.7146 87.0695C64.4355 86.8434 64.2429 86.5281 64.1691 86.1767C64.0952 85.8252 64.1448 85.459 64.3093 85.1398C64.4738 84.8205 64.7432 84.5677 65.0723 84.4238C66.4696 83.8099 67.8283 83.1113 69.1406 82.332C69.3171 82.2272 69.5125 82.1583 69.7156 82.129C69.9187 82.0997 70.1256 82.1107 70.3245 82.1614C70.5233 82.2121 70.7103 82.3015 70.8746 82.4244C71.0389 82.5474 71.1774 82.7015 71.2822 82.8779C71.387 83.0544 71.456 83.2498 71.4853 83.4529C71.5145 83.656 71.5035 83.8629 71.4528 84.0618C71.4021 84.2607 71.3128 84.4476 71.1898 84.6119C71.0669 84.7762 70.9128 84.9147 70.7363 85.0195C69.3137 85.8637 67.8409 86.6204 66.3262 87.2851C66.1292 87.372 65.9164 87.4172 65.7012 87.418ZM73.8867 82.5605C73.5606 82.5609 73.2425 82.4591 72.9771 82.2696C72.7117 82.08 72.5122 81.8122 72.4067 81.5036C72.3012 81.195 72.2948 80.8611 72.3886 80.5487C72.4824 80.2363 72.6716 79.9612 72.9297 79.7617C74.1387 78.8306 75.2905 77.8275 76.3789 76.7578C76.525 76.6137 76.698 76.4997 76.8881 76.4224C77.0782 76.3451 77.2817 76.3061 77.4869 76.3074C77.6921 76.3088 77.8951 76.3506 78.0841 76.4304C78.2732 76.5101 78.4447 76.6264 78.5889 76.7725C78.733 76.9185 78.847 77.0916 78.9242 77.2817C79.0015 77.4718 79.0406 77.6753 79.0392 77.8805C79.0379 78.0857 78.9961 78.2886 78.9163 78.4777C78.8365 78.6668 78.7203 78.8383 78.5742 78.9824C77.3961 80.1437 76.1491 81.233 74.8398 82.2441C74.5656 82.4516 74.2306 82.5628 73.8867 82.5605ZM80.6641 75.8769C80.3694 75.8775 80.0807 75.7947 79.8311 75.6382C79.5814 75.4817 79.3812 75.2578 79.2533 74.9923C79.1255 74.7269 79.0753 74.4307 79.1086 74.138C79.1419 73.8452 79.2573 73.5679 79.4414 73.3379C80.3911 72.1412 81.2677 70.8882 82.0664 69.5859C82.1702 69.4044 82.3094 69.2456 82.4757 69.1188C82.6421 68.9921 82.8321 68.9 83.0347 68.8481C83.2373 68.7961 83.4482 68.7854 83.655 68.8164C83.8618 68.8475 84.0602 68.9198 84.2386 69.029C84.4169 69.1382 84.5715 69.282 84.6933 69.4521C84.815 69.6221 84.9014 69.8148 84.9472 70.0189C84.9931 70.2229 84.9975 70.434 84.9603 70.6398C84.9231 70.8456 84.8449 71.0418 84.7305 71.2168C83.866 72.6276 82.917 73.9849 81.8887 75.2812C81.7427 75.4665 81.5568 75.6164 81.3447 75.7195C81.1326 75.8227 80.8999 75.8765 80.6641 75.8769ZM85.6348 67.7559C85.3733 67.7556 85.1161 67.6897 84.8867 67.5642C84.6573 67.4387 84.463 67.2577 84.3217 67.0377C84.1804 66.8177 84.0966 66.5657 84.0779 66.3049C84.0593 66.0441 84.1063 65.7828 84.2148 65.5449C84.8476 64.1547 85.3942 62.7269 85.8516 61.2695C85.913 61.0737 86.0124 60.8919 86.1441 60.7345C86.2758 60.5771 86.4372 60.4471 86.6191 60.3521C86.801 60.2571 86.9998 60.1988 87.2043 60.1806C87.4087 60.1624 87.6147 60.1847 87.8105 60.2461C88.0064 60.3075 88.1882 60.4069 88.3456 60.5386C88.503 60.6703 88.6329 60.8317 88.728 61.0136C88.823 61.1955 88.8813 61.3944 88.8995 61.5988C88.9177 61.8032 88.8954 62.0092 88.834 62.2051C88.3374 63.7848 87.7445 65.3326 87.0586 66.8398C86.9342 67.1135 86.7336 67.3455 86.4807 67.5079C86.2278 67.6704 85.9334 67.7565 85.6328 67.7559H85.6348ZM88.4922 58.668C88.3966 58.6682 88.3011 58.6597 88.207 58.6426C87.7997 58.5676 87.4388 58.3339 87.2037 57.9929C86.9686 57.652 86.8785 57.2316 86.9531 56.8242C87.2275 55.3217 87.4101 53.804 87.5 52.2793C87.5246 51.8649 87.7128 51.4772 88.0232 51.2016C88.3337 50.926 88.7409 50.785 89.1553 50.8096C89.5697 50.8342 89.9573 51.0224 90.233 51.3328C90.5086 51.6432 90.6496 52.0504 90.625 52.4648C90.5258 54.1166 90.3269 55.7609 90.0293 57.3887C89.963 57.7483 89.7727 58.0733 89.4915 58.3071C89.2102 58.5408 88.8559 58.6685 88.4902 58.668H88.4922ZM89.0586 49.166C88.6599 49.1667 88.2761 49.015 87.9856 48.742C87.6951 48.469 87.52 48.0952 87.4961 47.6973C87.4042 46.1766 87.2209 44.6628 86.9473 43.1641C86.9044 42.9601 86.9028 42.7496 86.9425 42.5449C86.9823 42.3403 87.0625 42.1457 87.1786 41.9726C87.2947 41.7994 87.4443 41.6513 87.6185 41.5369C87.7927 41.4224 87.9881 41.344 88.1931 41.3062C88.3981 41.2684 88.6086 41.272 88.8121 41.3168C89.0157 41.3616 89.2083 41.4467 89.3785 41.567C89.5487 41.6874 89.6931 41.8405 89.8032 42.0175C89.9133 42.1945 89.9868 42.3918 90.0195 42.5977C90.3194 44.2246 90.5196 45.8682 90.6191 47.5195C90.6316 47.7245 90.6035 47.9299 90.5365 48.124C90.4695 48.3181 90.3648 48.4971 90.2286 48.6507C90.0924 48.8043 89.9272 48.9296 89.7425 49.0194C89.5579 49.1091 89.3573 49.1616 89.1523 49.1738L89.0586 49.166ZM87.3359 39.8047C87.0035 39.8046 86.6797 39.6985 86.4117 39.5018C86.1437 39.3051 85.9454 39.0281 85.8457 38.7109C85.3865 37.2552 84.8393 35.8288 84.207 34.4395C84.0421 34.0634 84.0318 33.6375 84.1784 33.254C84.325 32.8704 84.6167 32.5599 84.9904 32.3898C85.3641 32.2196 85.7898 32.2034 86.1754 32.3446C86.561 32.4859 86.8754 32.7732 87.0508 33.1445C87.7364 34.6499 88.3293 36.1957 88.8262 37.7734C88.9486 38.1679 88.9099 38.5948 88.7185 38.9608C88.5271 39.3268 88.1985 39.6021 87.8047 39.7266C87.6529 39.7774 87.494 39.8037 87.334 39.8047H87.3359ZM83.3984 31.1465C83.1308 31.1468 82.8676 31.0783 82.634 30.9477C82.4004 30.817 82.2043 30.6286 82.0645 30.4004C81.2657 29.0981 80.3891 27.8452 79.4395 26.6484C79.1805 26.3239 79.061 25.9098 79.1073 25.4972C79.1536 25.0846 79.362 24.7072 79.6865 24.4482C80.011 24.1892 80.4252 24.0698 80.8378 24.1161C81.2504 24.1624 81.6277 24.3708 81.8867 24.6953C82.9154 25.9906 83.8645 27.3473 84.7285 28.7578C84.8761 28.9947 84.9575 29.2667 84.9643 29.5457C84.9712 29.8246 84.9032 30.1003 84.7674 30.3441C84.6317 30.5879 84.4331 30.7909 84.1924 30.932C83.9516 31.0731 83.6775 31.1472 83.3984 31.1465ZM77.4766 23.6934C77.2711 23.6948 77.0673 23.6557 76.8769 23.5783C76.6866 23.5009 76.5133 23.3866 76.3672 23.2422C75.2784 22.1698 74.1259 21.1641 72.916 20.2305C72.7535 20.105 72.6173 19.9488 72.5152 19.7708C72.4131 19.5927 72.347 19.3963 72.3208 19.1927C72.2679 18.7816 72.3805 18.3662 72.6338 18.0381C72.8871 17.7099 73.2604 17.4958 73.6715 17.4429C74.0827 17.39 74.498 17.5026 74.8262 17.7559C76.1354 18.767 77.3825 19.8563 78.5605 21.0176C78.7814 21.2351 78.9326 21.5134 78.9949 21.8171C79.0571 22.1208 79.0276 22.4361 78.9101 22.723C78.7927 23.0098 78.5925 23.2553 78.3352 23.4281C78.0778 23.6009 77.7748 23.6932 77.4648 23.6934H77.4766ZM69.9219 17.8789C69.6467 17.876 69.3772 17.8006 69.1406 17.6602C67.8265 16.881 66.4659 16.1831 65.0664 15.5703C64.6867 15.404 64.3886 15.0937 64.2377 14.7077C64.163 14.5165 64.1267 14.3125 64.1308 14.1073C64.1349 13.9021 64.1794 13.6997 64.2617 13.5117C64.344 13.3237 64.4626 13.1538 64.6106 13.0116C64.7586 12.8694 64.9332 12.7577 65.1244 12.683C65.5104 12.5321 65.9406 12.5408 66.3203 12.707C67.8362 13.3722 69.3102 14.1288 70.7344 14.9727C71.03 15.148 71.2595 15.4159 71.3874 15.7349C71.5153 16.0539 71.5345 16.4062 71.442 16.7372C71.3494 17.0682 71.1503 17.3594 70.8755 17.5658C70.6007 17.7722 70.2655 17.8823 69.9219 17.8789ZM58.8438 89.6914C58.4594 89.692 58.0883 89.5509 57.8014 89.2951C57.5145 89.0393 57.332 88.6867 57.2888 88.3048C57.2455 87.9229 57.3445 87.5384 57.5669 87.2249C57.7893 86.9114 58.1194 86.6909 58.4941 86.6055C59.2539 86.4297 60.0156 86.2285 60.7578 86.0059C60.9549 85.9453 61.162 85.9244 61.3673 85.9443C61.5725 85.9642 61.7717 86.0246 61.9535 86.1218C62.1353 86.2191 62.2961 86.3514 62.4265 86.5111C62.557 86.6708 62.6545 86.8547 62.7135 87.0523C62.7726 87.2498 62.7919 87.4571 62.7704 87.6622C62.749 87.8672 62.6871 88.066 62.5885 88.2471C62.4898 88.4281 62.3563 88.5879 62.1957 88.7171C62.035 88.8463 61.8503 88.9425 61.6523 89C60.8477 89.2422 60.0195 89.459 59.1973 89.6504C59.0814 89.6775 58.9628 89.6912 58.8438 89.6914Z" fill="url(#paint0_linear_468_5962)"/>
<path d="M50 90.6934C27.5605 90.6934 9.30664 72.4395 9.30664 50C9.30664 27.5605 27.5605 9.30664 50 9.30664C50.4144 9.30664 50.8118 9.47126 51.1049 9.76429C51.3979 10.0573 51.5625 10.4547 51.5625 10.8691C51.5625 11.2835 51.3979 11.681 51.1049 11.974C50.8118 12.267 50.4144 12.4316 50 12.4316C29.2852 12.4316 12.4316 29.2852 12.4316 50C12.4316 70.7148 29.2852 87.5684 50 87.5684C50.4144 87.5684 50.8118 87.733 51.1049 88.026C51.3979 88.319 51.5625 88.7165 51.5625 89.1309C51.5625 89.5453 51.3979 89.9427 51.1049 90.2357C50.8118 90.5287 50.4144 90.6934 50 90.6934Z" fill="url(#paint1_linear_468_5962)"/>
<path d="M44.2402 95.5078C43.9193 95.5079 43.606 95.4091 43.3432 95.2249C43.0803 95.0407 42.8806 94.78 42.7711 94.4782C42.6616 94.1765 42.6477 93.8483 42.7313 93.5384C42.8149 93.2285 42.9919 92.9519 43.2383 92.7461L47.5625 89.1309L43.2383 85.5156C43.0747 85.3861 42.9388 85.225 42.8384 85.0421C42.7381 84.8591 42.6754 84.6579 42.6542 84.4503C42.6329 84.2427 42.6534 84.033 42.7144 83.8334C42.7755 83.6339 42.876 83.4486 43.0098 83.2886C43.1437 83.1285 43.3083 82.9968 43.4938 82.9014C43.6794 82.8059 43.8822 82.7486 44.0903 82.7328C44.2983 82.717 44.5075 82.7431 44.7053 82.8094C44.9032 82.8758 45.0857 82.9811 45.2422 83.1192L51.002 87.9316C51.1775 88.0783 51.3188 88.2617 51.4157 88.4689C51.5126 88.6761 51.5628 88.9021 51.5628 89.1309C51.5628 89.3596 51.5126 89.5856 51.4157 89.7928C51.3188 90 51.1775 90.1834 51.002 90.3301L45.2422 95.1445C44.9611 95.3793 44.6065 95.5079 44.2402 95.5078ZM44.2402 17.2461C43.9193 17.2462 43.606 17.1474 43.3432 16.9632C43.0803 16.7789 42.8806 16.5182 42.7711 16.2165C42.6616 15.9147 42.6477 15.5866 42.7313 15.2767C42.8149 14.9668 42.9919 14.6901 43.2383 14.4844L47.5625 10.8691L43.2383 7.25391C42.9202 6.98818 42.7208 6.60698 42.6838 6.19418C42.6468 5.78138 42.7753 5.37079 43.041 5.05274C43.3068 4.73469 43.6879 4.53523 44.1007 4.49823C44.5135 4.46124 44.9241 4.58974 45.2422 4.85548L51.002 9.66993C51.1775 9.81658 51.3188 9.99999 51.4157 10.2072C51.5126 10.4144 51.5628 10.6404 51.5628 10.8691C51.5628 11.0979 51.5126 11.3239 51.4157 11.5311C51.3188 11.7383 51.1775 11.9217 51.002 12.0684L45.2422 16.8809C44.9619 17.1172 44.6069 17.2466 44.2402 17.2461Z" fill="url(#paint2_linear_468_5962)"/>
<circle cx="51" cy="50" r="6" fill="#3F78AE"/>
<defs>
<linearGradient id="paint0_linear_468_5962" x1="53.6918" y1="10.3115" x2="53.6918" y2="89.6914" gradientUnits="userSpaceOnUse">
<stop stop-color="#72C7D8"/>
<stop offset="0.489583" stop-color="#26519A"/>
<stop offset="1" stop-color="#41A575"/>
</linearGradient>
<linearGradient id="paint1_linear_468_5962" x1="30.4346" y1="9.30664" x2="30.4346" y2="90.6934" gradientUnits="userSpaceOnUse">
<stop stop-color="#72C7D8"/>
<stop offset="0.489583" stop-color="#26519A"/>
<stop offset="1" stop-color="#41A575"/>
</linearGradient>
<linearGradient id="paint2_linear_468_5962" x1="47.1044" y1="4.49199" x2="47.1044" y2="95.5078" gradientUnits="userSpaceOnUse">
<stop stop-color="#72C7D8"/>
<stop offset="0.489583" stop-color="#26519A"/>
<stop offset="1" stop-color="#41A575"/>
</linearGradient>
</defs>
</svg>
