<svg width="100" height="100" viewBox="0 0 100 100" fill="none" xmlns="http://www.w3.org/2000/svg">
<path d="M16.0781 56.9043C15.6637 56.9043 15.2663 56.7397 14.9733 56.4467C14.6802 56.1536 14.5156 55.7562 14.5156 55.3418V44.6582C14.5156 44.2438 14.6802 43.8464 14.9733 43.5534C15.2663 43.2603 15.6637 43.0957 16.0781 43.0957C16.4925 43.0957 16.89 43.2603 17.183 43.5534C17.476 43.8464 17.6406 44.2438 17.6406 44.6582V55.3418C17.6406 55.7562 17.476 56.1536 17.183 56.4467C16.89 56.7397 16.4925 56.9043 16.0781 56.9043Z" fill="url(#paint0_linear_468_5967)"/>
<path d="M78.2969 95.5078H20.457C18.8816 95.5057 17.3713 94.8788 16.2574 93.7646C15.1436 92.6504 14.5172 91.1399 14.5156 89.5645V79.8145C14.5156 79.4001 14.6802 79.0026 14.9733 78.7096C15.2663 78.4166 15.6637 78.252 16.0781 78.252C16.4925 78.252 16.89 78.4166 17.183 78.7096C17.476 79.0026 17.6406 79.4001 17.6406 79.8145V89.5645C17.6411 90.3114 17.938 91.0277 18.466 91.5561C18.994 92.0844 19.7101 92.3818 20.457 92.3828H78.2969C79.2416 92.3818 80.1473 92.0062 80.8155 91.3384C81.4837 90.6705 81.8598 89.765 81.8613 88.8203V11.1797C81.8598 10.235 81.4837 9.32946 80.8155 8.66164C80.1473 7.99382 79.2416 7.61822 78.2969 7.61719H20.457C19.7101 7.61822 18.994 7.91555 18.466 8.44393C17.938 8.9723 17.6411 9.68857 17.6406 10.4355V20.1855C17.6406 20.5999 17.476 20.9974 17.183 21.2904C16.89 21.5834 16.4925 21.748 16.0781 21.748C15.6637 21.748 15.2663 21.5834 14.9733 21.2904C14.6802 20.9974 14.5156 20.5999 14.5156 20.1855V10.4355C14.5172 8.86008 15.1436 7.34956 16.2574 6.23536C17.3713 5.12116 18.8816 4.49426 20.457 4.49219H78.2969C80.0701 4.49425 81.7701 5.19943 83.0241 6.45308C84.2781 7.70672 84.9837 9.40651 84.9863 11.1797V88.8203C84.9837 90.5935 84.2781 92.2933 83.0241 93.5469C81.7701 94.8006 80.0701 95.5057 78.2969 95.5078Z" fill="url(#paint1_linear_468_5967)"/>
<path d="M16.0781 74.4824C15.6637 74.4824 15.2663 74.3178 14.9733 74.0248C14.6802 73.7318 14.5156 73.3343 14.5156 72.9199V62.2363C14.5156 61.8219 14.6802 61.4245 14.9733 61.1315C15.2663 60.8384 15.6637 60.6738 16.0781 60.6738C16.4925 60.6738 16.89 60.8384 17.183 61.1315C17.476 61.4245 17.6406 61.8219 17.6406 62.2363V72.9199C17.6406 73.3343 17.476 73.7318 17.183 74.0248C16.89 74.3178 16.4925 74.4824 16.0781 74.4824ZM16.0781 39.3262C15.6637 39.3262 15.2663 39.1616 14.9733 38.8685C14.6802 38.5755 14.5156 38.1781 14.5156 37.7637V27.0801C14.5156 26.6657 14.6802 26.2683 14.9733 25.9752C15.2663 25.6822 15.6637 25.5176 16.0781 25.5176C16.4925 25.5176 16.89 25.6822 17.183 25.9752C17.476 26.2683 17.6406 26.6657 17.6406 27.0801V37.7637C17.6406 38.1781 17.476 38.5755 17.183 38.8685C16.89 39.1616 16.4925 39.3262 16.0781 39.3262Z" fill="url(#paint2_linear_468_5967)"/>
<path d="M20.127 81.3769H12.0273C10.6987 81.3769 9.42442 80.8491 8.4849 79.9096C7.54539 78.9701 7.01758 77.6959 7.01758 76.3672C7.01758 75.0385 7.54539 73.7643 8.4849 72.8247C9.42442 71.8852 10.6987 71.3574 12.0273 71.3574H20.127C21.4556 71.3574 22.7299 71.8852 23.6694 72.8247C24.6089 73.7643 25.1367 75.0385 25.1367 76.3672C25.1367 77.6959 24.6089 78.9701 23.6694 79.9096C22.7299 80.8491 21.4556 81.3769 20.127 81.3769ZM12.0273 74.4824C11.5275 74.4824 11.0481 74.681 10.6946 75.0345C10.3412 75.3879 10.1426 75.8673 10.1426 76.3672C10.1426 76.8671 10.3412 77.3465 10.6946 77.6999C11.0481 78.0534 11.5275 78.2519 12.0273 78.2519H20.127C20.6268 78.2519 21.1062 78.0534 21.4597 77.6999C21.8131 77.3465 22.0117 76.8671 22.0117 76.3672C22.0117 75.8673 21.8131 75.3879 21.4597 75.0345C21.1062 74.681 20.6268 74.4824 20.127 74.4824H12.0273ZM20.127 63.7988H12.0273C10.6987 63.7988 9.42442 63.271 8.4849 62.3315C7.54539 61.392 7.01758 60.1177 7.01758 58.7891C7.01758 57.4604 7.54539 56.1861 8.4849 55.2466C9.42442 54.3071 10.6987 53.7793 12.0273 53.7793H20.127C21.4556 53.7793 22.7299 54.3071 23.6694 55.2466C24.6089 56.1861 25.1367 57.4604 25.1367 58.7891C25.1367 60.1177 24.6089 61.392 23.6694 62.3315C22.7299 63.271 21.4556 63.7988 20.127 63.7988ZM12.0273 56.9043C11.5275 56.9043 11.0481 57.1029 10.6946 57.4563C10.3412 57.8098 10.1426 58.2892 10.1426 58.7891C10.1426 59.2889 10.3412 59.7683 10.6946 60.1218C11.0481 60.4753 11.5275 60.6738 12.0273 60.6738H20.127C20.6268 60.6738 21.1062 60.4753 21.4597 60.1218C21.8131 59.7683 22.0117 59.2889 22.0117 58.7891C22.0117 58.2892 21.8131 57.8098 21.4597 57.4563C21.1062 57.1029 20.6268 56.9043 20.127 56.9043H12.0273ZM20.127 46.2207H12.0273C10.6987 46.2207 9.42442 45.6929 8.4849 44.7534C7.54539 43.8139 7.01758 42.5396 7.01758 41.2109C7.01758 39.8823 7.54539 38.608 8.4849 37.6685C9.42442 36.729 10.6987 36.2012 12.0273 36.2012H20.127C21.4556 36.2012 22.7299 36.729 23.6694 37.6685C24.6089 38.608 25.1367 39.8823 25.1367 41.2109C25.1367 42.5396 24.6089 43.8139 23.6694 44.7534C22.7299 45.6929 21.4556 46.2207 20.127 46.2207ZM12.0273 39.3262C11.5275 39.3262 11.0481 39.5247 10.6946 39.8782C10.3412 40.2317 10.1426 40.7111 10.1426 41.2109C10.1426 41.7108 10.3412 42.1902 10.6946 42.5437C11.0481 42.8971 11.5275 43.0957 12.0273 43.0957H20.127C20.6268 43.0957 21.1062 42.8971 21.4597 42.5437C21.8131 42.1902 22.0117 41.7108 22.0117 41.2109C22.0117 40.7111 21.8131 40.2317 21.4597 39.8782C21.1062 39.5247 20.6268 39.3262 20.127 39.3262H12.0273ZM20.127 28.6426H12.0273C10.6987 28.6426 9.42442 28.1148 8.4849 27.1753C7.54539 26.2357 7.01758 24.9615 7.01758 23.6328C7.01758 22.3041 7.54539 21.0299 8.4849 20.0904C9.42442 19.1509 10.6987 18.623 12.0273 18.623H20.127C21.4556 18.623 22.7299 19.1509 23.6694 20.0904C24.6089 21.0299 25.1367 22.3041 25.1367 23.6328C25.1367 24.9615 24.6089 26.2357 23.6694 27.1753C22.7299 28.1148 21.4556 28.6426 20.127 28.6426ZM12.0273 21.748C11.5275 21.748 11.0481 21.9466 10.6946 22.3001C10.3412 22.6535 10.1426 23.1329 10.1426 23.6328C10.1426 24.1327 10.3412 24.6121 10.6946 24.9655C11.0481 25.319 11.5275 25.5176 12.0273 25.5176H20.127C20.6268 25.5176 21.1062 25.319 21.4597 24.9655C21.8131 24.6121 22.0117 24.1327 22.0117 23.6328C22.0117 23.1329 21.8131 22.6535 21.4597 22.3001C21.1062 21.9466 20.6268 21.748 20.127 21.748H12.0273ZM67.5527 69.6699C67.1383 69.6699 66.7409 69.5053 66.4479 69.2123C66.1549 68.9193 65.9902 68.5218 65.9902 68.1074V61.4434C65.9877 59.626 65.2645 57.8838 63.9795 56.5987C62.6944 55.3136 60.9522 54.5905 59.1348 54.5879H56.9863C56.5719 54.5879 56.1745 54.4233 55.8815 54.1302C55.5885 53.8372 55.4238 53.4398 55.4238 53.0254C55.4238 52.611 55.5885 52.2136 55.8815 51.9205C56.1745 51.6275 56.5719 51.4629 56.9863 51.4629H59.1348C61.7806 51.4665 64.3171 52.5192 66.188 54.3901C68.0589 56.261 69.1116 58.7975 69.1152 61.4434V68.1074C69.1152 68.5218 68.9506 68.9193 68.6576 69.2123C68.3646 69.5053 67.9671 69.6699 67.5527 69.6699Z" fill="url(#paint3_linear_468_5967)"/>
<path d="M56.9941 54.5899C56.6726 54.5901 56.3589 54.4912 56.0957 54.3067C55.8325 54.1221 55.6327 53.8609 55.5234 53.5586C54.9392 51.9395 54.8202 50.1892 55.1796 48.5059C55.2659 48.1005 55.5096 47.7461 55.8572 47.5204C56.2048 47.2948 56.6278 47.2165 57.0332 47.3027C57.4385 47.389 57.793 47.6327 58.0186 47.9803C58.2442 48.3279 58.3225 48.7509 58.2363 49.1563C57.9976 50.2681 58.0761 51.4247 58.4628 52.4941C58.5328 52.6871 58.5641 52.8921 58.5548 53.0971C58.5456 53.3022 58.496 53.5035 58.4089 53.6894C58.3219 53.8753 58.199 54.0423 58.0474 54.1807C57.8958 54.3191 57.7184 54.4263 57.5253 54.4961C57.3549 54.5574 57.1752 54.5891 56.9941 54.5899ZM49.9999 54.5899C49.8188 54.5891 49.6391 54.5574 49.4687 54.4961C49.2756 54.4263 49.0982 54.3191 48.9466 54.1807C48.795 54.0423 48.6722 53.8753 48.5851 53.6894C48.498 53.5035 48.4485 53.3022 48.4392 53.0971C48.43 52.8921 48.4612 52.6871 48.5312 52.4941C48.9179 51.4247 48.9964 50.2681 48.7578 49.1563C48.6715 48.7509 48.7498 48.3279 48.9754 47.9803C49.2011 47.6327 49.5555 47.389 49.9609 47.3027C50.3662 47.2165 50.7892 47.2948 51.1368 47.5204C51.4844 47.7461 51.7282 48.1005 51.8144 48.5059C52.1742 50.1893 52.0544 51.9399 51.4687 53.5586C51.3595 53.8606 51.1599 54.1216 50.8971 54.3061C50.6343 54.4906 50.3211 54.5897 49.9999 54.5899Z" fill="url(#paint4_linear_468_5967)"/>
<path d="M53.4985 60.1797C53.2336 60.1795 52.9731 60.1121 52.7414 59.9836C52.5098 59.8552 52.3146 59.6699 52.1742 59.4453L48.6801 53.8555C48.5679 53.6815 48.4914 53.4871 48.455 53.2833C48.4186 53.0796 48.4231 52.8707 48.4681 52.6687C48.5131 52.4667 48.5978 52.2756 48.7173 52.1066C48.8367 51.9376 48.9886 51.794 49.164 51.6842C49.3394 51.5744 49.5349 51.5005 49.7391 51.4668C49.9433 51.4332 50.1522 51.4404 50.3535 51.4882C50.5549 51.5359 50.7448 51.6232 50.9122 51.7449C51.0796 51.8666 51.2211 52.0204 51.3285 52.1973L53.4985 55.6641L55.6645 52.1973C55.8844 51.8458 56.2349 51.5961 56.6389 51.503C57.0429 51.41 57.4673 51.4813 57.8188 51.7012C58.1702 51.9211 58.4199 52.2716 58.513 52.6756C58.606 53.0796 58.5348 53.504 58.3149 53.8555L54.8246 59.4453C54.6841 59.6702 54.4886 59.8556 54.2566 59.9841C54.0246 60.1126 53.7637 60.1799 53.4985 60.1797Z" fill="url(#paint5_linear_468_5967)"/>
<path d="M39.4531 69.6699C39.0387 69.6699 38.6413 69.5053 38.3483 69.2123C38.0552 68.9193 37.8906 68.5218 37.8906 68.1074V61.4434C37.8937 58.7973 38.9462 56.2606 40.8173 54.3895C42.6883 52.5185 45.2251 51.466 47.8711 51.4629H50.0195C50.4339 51.4629 50.8314 51.6275 51.1244 51.9205C51.4174 52.2136 51.582 52.611 51.582 53.0254C51.582 53.4398 51.4174 53.8372 51.1244 54.1302C50.8314 54.4233 50.4339 54.5879 50.0195 54.5879H47.8711C46.0537 54.5905 44.3115 55.3136 43.0264 56.5987C41.7413 57.8838 41.0182 59.626 41.0156 61.4434V68.1074C41.0156 68.5218 40.851 68.9193 40.558 69.2123C40.265 69.5053 39.8675 69.6699 39.4531 69.6699ZM53.498 51.1289C51.7353 51.1289 50.0122 50.6062 48.5465 49.6268C47.0809 48.6475 45.9386 47.2555 45.2641 45.6269C44.5897 43.9983 44.4133 42.2063 44.7573 40.4774C45.1014 38.7486 45.9503 37.1606 47.1969 35.9143C48.4435 34.668 50.0317 33.8194 51.7606 33.4757C53.4895 33.132 55.2815 33.3088 56.9099 33.9836C58.5384 34.6585 59.9301 35.8011 60.9091 37.2669C61.8882 38.7328 62.4105 40.456 62.4102 42.2188C62.4076 44.5814 61.4677 46.8465 59.7969 48.517C58.126 50.1875 55.8607 51.1268 53.498 51.1289ZM53.498 36.4316C52.3535 36.4316 51.2346 36.7711 50.2829 37.4069C49.3312 38.0428 48.5895 38.9467 48.1515 40.0041C47.7134 41.0616 47.5988 42.2252 47.8221 43.3478C48.0454 44.4704 48.5966 45.5015 49.4059 46.3109C50.2153 47.1202 51.2465 47.6714 52.369 47.8947C53.4916 48.118 54.6552 48.0034 55.7127 47.5653C56.7701 47.1273 57.674 46.3856 58.3099 45.4339C58.9457 44.4822 59.2852 43.3633 59.2852 42.2188C59.2836 40.6844 58.6734 39.2133 57.5884 38.1284C56.5035 37.0434 55.0324 36.4332 53.498 36.4316Z" fill="url(#paint6_linear_468_5967)"/>
<path d="M53.4981 74.4824C48.656 74.482 43.9227 73.0458 39.8969 70.3554C35.871 67.665 32.7334 63.8413 30.8806 59.3677C29.0279 54.8941 28.5434 49.9715 29.4883 45.2225C30.4331 40.4735 32.765 36.1114 36.189 32.6876C39.613 29.2639 43.9754 26.9324 48.7244 25.9879C53.4735 25.0434 58.396 25.5283 62.8695 27.3814C67.3429 29.2345 71.1665 32.3724 73.8565 36.3985C76.5466 40.4246 77.9824 45.1579 77.9824 50C77.9752 56.4913 75.3932 62.7146 70.803 67.3044C66.2128 71.8942 59.9893 74.4757 53.4981 74.4824ZM53.4981 28.6426C49.274 28.643 45.145 29.8959 41.633 32.2429C38.1211 34.5899 35.384 37.9256 33.7678 41.8282C32.1516 45.7308 31.7289 50.025 32.5532 54.1678C33.3775 58.3106 35.4118 62.116 38.3987 65.1027C41.3857 68.0894 45.1912 70.1233 49.3341 70.9472C53.477 71.7711 57.7711 71.3481 61.6736 69.7315C65.576 68.115 68.9115 65.3775 71.2582 61.8654C73.6049 58.3532 74.8574 54.224 74.8574 50C74.8512 44.3372 72.5988 38.9082 68.5944 34.9042C64.5901 30.9002 59.1608 28.6483 53.4981 28.6426ZM91.418 29.4062H83.4238C83.0094 29.4062 82.612 29.2416 82.319 28.9486C82.026 28.6556 81.8613 28.2582 81.8613 27.8438V14.8047C81.8613 14.3903 82.026 13.9929 82.319 13.6998C82.612 13.4068 83.0094 13.2422 83.4238 13.2422H91.418C91.8324 13.2422 92.2298 13.4068 92.5228 13.6998C92.8159 13.9929 92.9805 14.3903 92.9805 14.8047V27.8438C92.9805 28.2582 92.8159 28.6556 92.5228 28.9486C92.2298 29.2416 91.8324 29.4062 91.418 29.4062ZM84.9863 26.2812H89.8555V16.3672H84.9863V26.2812ZM91.418 48.5234H83.4238C83.0094 48.5234 82.612 48.3588 82.319 48.0658C82.026 47.7728 81.8613 47.3753 81.8613 46.9609V33.9219C81.8613 33.5075 82.026 33.11 82.319 32.817C82.612 32.524 83.0094 32.3594 83.4238 32.3594H91.418C91.8324 32.3594 92.2298 32.524 92.5228 32.817C92.8159 33.11 92.9805 33.5075 92.9805 33.9219V46.9609C92.9805 47.3753 92.8159 47.7728 92.5228 48.0658C92.2298 48.3588 91.8324 48.5234 91.418 48.5234ZM84.9863 45.3984H89.8555V35.4844H84.9863V45.3984ZM91.418 67.6406H83.4238C83.0094 67.6406 82.612 67.476 82.319 67.183C82.026 66.89 81.8613 66.4925 81.8613 66.0781V53.0391C81.8613 52.6247 82.026 52.2272 82.319 51.9342C82.612 51.6412 83.0094 51.4766 83.4238 51.4766H91.418C91.8324 51.4766 92.2298 51.6412 92.5228 51.9342C92.8159 52.2272 92.9805 52.6247 92.9805 53.0391V66.0781C92.9805 66.4925 92.8159 66.89 92.5228 67.183C92.2298 67.476 91.8324 67.6406 91.418 67.6406ZM84.9863 64.5156H89.8555V54.6016H84.9863V64.5156ZM91.418 86.7578H83.4238C83.0094 86.7578 82.612 86.5932 82.319 86.3002C82.026 86.0071 81.8613 85.6097 81.8613 85.1953V72.1563C81.8613 71.7419 82.026 71.3444 82.319 71.0514C82.612 70.7584 83.0094 70.5938 83.4238 70.5938H91.418C91.8324 70.5938 92.2298 70.7584 92.5228 71.0514C92.8159 71.3444 92.9805 71.7419 92.9805 72.1563V85.1953C92.9805 85.6097 92.8159 86.0071 92.5228 86.3002C92.2298 86.5932 91.8324 86.7578 91.418 86.7578ZM84.9863 83.6328H89.8555V73.7188H84.9863V83.6328Z" fill="url(#paint7_linear_468_5967)"/>
<defs>
<linearGradient id="paint0_linear_468_5967" x1="16.0781" y1="43.0957" x2="16.0781" y2="56.9043" gradientUnits="userSpaceOnUse">
<stop stop-color="#72C7D8"/>
<stop offset="0.489583" stop-color="#26519A"/>
<stop offset="1" stop-color="#41A575"/>
</linearGradient>
<linearGradient id="paint1_linear_468_5967" x1="49.751" y1="4.49219" x2="49.751" y2="95.5078" gradientUnits="userSpaceOnUse">
<stop stop-color="#72C7D8"/>
<stop offset="0.489583" stop-color="#26519A"/>
<stop offset="1" stop-color="#41A575"/>
</linearGradient>
<linearGradient id="paint2_linear_468_5967" x1="16.0781" y1="25.5176" x2="16.0781" y2="74.4824" gradientUnits="userSpaceOnUse">
<stop stop-color="#72C7D8"/>
<stop offset="0.489583" stop-color="#26519A"/>
<stop offset="1" stop-color="#41A575"/>
</linearGradient>
<linearGradient id="paint3_linear_468_5967" x1="38.0664" y1="18.623" x2="38.0664" y2="81.3769" gradientUnits="userSpaceOnUse">
<stop stop-color="#72C7D8"/>
<stop offset="0.489583" stop-color="#26519A"/>
<stop offset="1" stop-color="#41A575"/>
</linearGradient>
<linearGradient id="paint4_linear_468_5967" x1="53.497" y1="47.2685" x2="53.497" y2="54.5899" gradientUnits="userSpaceOnUse">
<stop stop-color="#72C7D8"/>
<stop offset="0.489583" stop-color="#26519A"/>
<stop offset="1" stop-color="#41A575"/>
</linearGradient>
<linearGradient id="paint5_linear_468_5967" x1="53.4918" y1="51.446" x2="53.4918" y2="60.1797" gradientUnits="userSpaceOnUse">
<stop stop-color="#72C7D8"/>
<stop offset="0.489583" stop-color="#26519A"/>
<stop offset="1" stop-color="#41A575"/>
</linearGradient>
<linearGradient id="paint6_linear_468_5967" x1="50.1504" y1="33.3047" x2="50.1504" y2="69.6699" gradientUnits="userSpaceOnUse">
<stop stop-color="#72C7D8"/>
<stop offset="0.489583" stop-color="#26519A"/>
<stop offset="1" stop-color="#41A575"/>
</linearGradient>
<linearGradient id="paint7_linear_468_5967" x1="60.999" y1="13.2422" x2="60.999" y2="86.7578" gradientUnits="userSpaceOnUse">
<stop stop-color="#72C7D8"/>
<stop offset="0.489583" stop-color="#26519A"/>
<stop offset="1" stop-color="#41A575"/>
</linearGradient>
</defs>
</svg>
