<svg width="100" height="100" viewBox="0 0 100 100" fill="none" xmlns="http://www.w3.org/2000/svg">
<path d="M87.1914 92.1309C86.777 92.1309 86.3796 91.9662 86.0866 91.6732C85.7935 91.3802 85.6289 90.9828 85.6289 90.5684V9.43164C85.6289 9.01724 85.7935 8.61981 86.0866 8.32679C86.3796 8.03376 86.777 7.86914 87.1914 7.86914C87.6058 7.86914 88.0032 8.03376 88.2963 8.32679C88.5893 8.61981 88.7539 9.01724 88.7539 9.43164V90.5684C88.7539 90.9828 88.5893 91.3802 88.2963 91.6732C88.0032 91.9662 87.6058 92.1309 87.1914 92.1309Z" fill="url(#paint0_linear_468_5977)"/>
<path d="M87.1914 92.1309H6.05469C5.64029 92.1309 5.24286 91.9662 4.94983 91.6732C4.65681 91.3802 4.49219 90.9828 4.49219 90.5684C4.49219 90.154 4.65681 89.7565 4.94983 89.4635C5.24286 89.1705 5.64029 89.0059 6.05469 89.0059H87.1914C87.6058 89.0059 88.0032 89.1705 88.2963 89.4635C88.5893 89.7565 88.7539 90.154 88.7539 90.5684C88.7539 90.9828 88.5893 91.3802 88.2963 91.6732C88.0032 91.9662 87.6058 92.1309 87.1914 92.1309ZM93.9453 19.1406H87.1914C86.777 19.1406 86.3796 18.976 86.0866 18.683C85.7935 18.39 85.6289 17.9925 85.6289 17.5781C85.6289 17.1637 85.7935 16.7663 86.0866 16.4733C86.3796 16.1802 86.777 16.0156 87.1914 16.0156H93.9453C94.3597 16.0156 94.7571 16.1802 95.0502 16.4733C95.3432 16.7663 95.5078 17.1637 95.5078 17.5781C95.5078 17.9925 95.3432 18.39 95.0502 18.683C94.7571 18.976 94.3597 19.1406 93.9453 19.1406ZM93.9453 32.1133H87.1914C86.777 32.1133 86.3796 31.9487 86.0866 31.6556C85.7935 31.3626 85.6289 30.9652 85.6289 30.5508C85.6289 30.1364 85.7935 29.739 86.0866 29.4459C86.3796 29.1529 86.777 28.9883 87.1914 28.9883H93.9453C94.3597 28.9883 94.7571 29.1529 95.0502 29.4459C95.3432 29.739 95.5078 30.1364 95.5078 30.5508C95.5078 30.9652 95.3432 31.3626 95.0502 31.6556C94.7571 31.9487 94.3597 32.1133 93.9453 32.1133ZM93.9453 45.0801H87.1914C86.777 45.0801 86.3796 44.9155 86.0866 44.6224C85.7935 44.3294 85.6289 43.932 85.6289 43.5176C85.6289 43.1032 85.7935 42.7058 86.0866 42.4127C86.3796 42.1197 86.777 41.9551 87.1914 41.9551H93.9453C94.3597 41.9551 94.7571 42.1197 95.0502 42.4127C95.3432 42.7058 95.5078 43.1032 95.5078 43.5176C95.5078 43.932 95.3432 44.3294 95.0502 44.6224C94.7571 44.9155 94.3597 45.0801 93.9453 45.0801ZM93.9453 58.0449H87.1914C86.777 58.0449 86.3796 57.8803 86.0866 57.5873C85.7935 57.2943 85.6289 56.8968 85.6289 56.4824C85.6289 56.068 85.7935 55.6706 86.0866 55.3776C86.3796 55.0845 86.777 54.9199 87.1914 54.9199H93.9453C94.3597 54.9199 94.7571 55.0845 95.0502 55.3776C95.3432 55.6706 95.5078 56.068 95.5078 56.4824C95.5078 56.8968 95.3432 57.2943 95.0502 57.5873C94.7571 57.8803 94.3597 58.0449 93.9453 58.0449ZM93.9453 71.0117H87.1914C86.777 71.0117 86.3796 70.8471 86.0866 70.5541C85.7935 70.261 85.6289 69.8636 85.6289 69.4492C85.6289 69.0348 85.7935 68.6374 86.0866 68.3444C86.3796 68.0513 86.777 67.8867 87.1914 67.8867H93.9453C94.3597 67.8867 94.7571 68.0513 95.0502 68.3444C95.3432 68.6374 95.5078 69.0348 95.5078 69.4492C95.5078 69.8636 95.3432 70.261 95.0502 70.5541C94.7571 70.8471 94.3597 71.0117 93.9453 71.0117ZM93.9453 83.9844H87.1914C86.777 83.9844 86.3796 83.8198 86.0866 83.5267C85.7935 83.2337 85.6289 82.8363 85.6289 82.4219C85.6289 82.0075 85.7935 81.61 86.0866 81.317C86.3796 81.024 86.777 80.8594 87.1914 80.8594H93.9453C94.3597 80.8594 94.7571 81.024 95.0502 81.317C95.3432 81.61 95.5078 82.0075 95.5078 82.4219C95.5078 82.8363 95.3432 83.2337 95.0502 83.5267C94.7571 83.8198 94.3597 83.9844 93.9453 83.9844Z" fill="url(#paint1_linear_468_5977)"/>
<path d="M24.9004 92.1309H16.5742C16.1598 92.1309 15.7624 91.9662 15.4693 91.6732C15.1763 91.3802 15.0117 90.9828 15.0117 90.5684V69.7266C15.0117 69.3122 15.1763 68.9147 15.4693 68.6217C15.7624 68.3287 16.1598 68.1641 16.5742 68.1641H24.9004C25.3148 68.1641 25.7122 68.3287 26.0052 68.6217C26.2982 68.9147 26.4629 69.3122 26.4629 69.7266V90.5684C26.4629 90.9828 26.2982 91.3802 26.0052 91.6732C25.7122 91.9662 25.3148 92.1309 24.9004 92.1309ZM18.1367 89.0059H23.3379V71.2891H18.1367V89.0059ZM42.1582 92.1309H33.832C33.4176 92.1309 33.0202 91.9662 32.7272 91.6732C32.4341 91.3802 32.2695 90.9828 32.2695 90.5684V63.8848C32.2695 63.4704 32.4341 63.0729 32.7272 62.7799C33.0202 62.4869 33.4176 62.3223 33.832 62.3223H42.1582C42.5726 62.3223 42.97 62.4869 43.263 62.7799C43.5561 63.0729 43.7207 63.4704 43.7207 63.8848V90.5684C43.7207 90.9828 43.5561 91.3802 43.263 91.6732C42.97 91.9662 42.5726 92.1309 42.1582 92.1309ZM35.3945 89.0059H40.5957V65.4473H35.3945V89.0059ZM59.414 92.1309H51.0898C50.6754 92.1309 50.278 91.9662 49.985 91.6732C49.6919 91.3802 49.5273 90.9828 49.5273 90.5684V56.4121C49.5273 55.9977 49.6919 55.6003 49.985 55.3073C50.278 55.0142 50.6754 54.8496 51.0898 54.8496H59.414C59.8284 54.8496 60.2259 55.0142 60.5189 55.3073C60.8119 55.6003 60.9765 55.9977 60.9765 56.4121V90.5684C60.9765 90.9828 60.8119 91.3802 60.5189 91.6732C60.2259 91.9662 59.8284 92.1309 59.414 92.1309ZM52.6523 89.0059H57.8515V57.9746H52.6523V89.0059ZM76.6719 92.1309H68.3457C67.9313 92.1309 67.5339 91.9662 67.2408 91.6732C66.9478 91.3802 66.7832 90.9828 66.7832 90.5684V43.8106C66.7832 43.3962 66.9478 42.9987 67.2408 42.7057C67.5339 42.4127 67.9313 42.2481 68.3457 42.2481H76.6719C77.0863 42.2481 77.4837 42.4127 77.7767 42.7057C78.0697 42.9987 78.2344 43.3962 78.2344 43.8106V90.5684C78.2344 90.9828 78.0697 91.3802 77.7767 91.6732C77.4837 91.9662 77.0863 92.1309 76.6719 92.1309ZM69.9082 89.0059H75.1094V45.3731H69.9082V89.0059ZM27.8945 57.4219C23.5976 57.4024 19.3122 56.976 15.0957 56.1485C14.7248 56.078 14.392 55.8756 14.1588 55.5787C13.9256 55.2819 13.8077 54.9106 13.827 54.5336C13.8463 54.1566 14.0014 53.7993 14.2637 53.5278C14.526 53.2563 14.8778 53.0889 15.2539 53.0567C35.2851 51.3086 50.6367 42.5762 62.1289 26.3789L58.2031 24.0801C57.9615 23.9401 57.7618 23.738 57.6248 23.4947C57.4878 23.2515 57.4185 22.9759 57.4241 22.6968C57.4296 22.4176 57.5099 22.1451 57.6565 21.9075C57.8032 21.6699 58.0108 21.4759 58.2578 21.3457L75.5664 12.1309C75.8023 12.0052 76.0664 11.9421 76.3337 11.9477C76.6009 11.9533 76.8622 12.0273 77.0926 12.1627C77.323 12.2981 77.5149 12.4904 77.6498 12.7211C77.7847 12.9518 77.8582 13.2133 77.8633 13.4805L78.2363 33.0957C78.2388 33.3712 78.1684 33.6424 78.0323 33.8819C77.8961 34.1214 77.6991 34.3206 77.4612 34.4594C77.2232 34.5982 76.9528 34.6717 76.6773 34.6723C76.4019 34.6729 76.1311 34.6006 75.8926 34.4629L71.875 32.1192C64.9355 42.5137 56.6406 49.7813 47.2129 53.7305C41.332 56.1953 34.8711 57.4219 27.8945 57.4219ZM27.1133 54.2969C44.9824 54.5449 59.1074 46.2559 70.0664 29.1777C70.2843 28.8381 70.6252 28.596 71.0177 28.5021C71.4102 28.4081 71.8238 28.4697 72.1719 28.6738L75.0664 30.3692L74.7851 16.0938L62.1933 22.7969L65.1699 24.543C65.3545 24.6512 65.5149 24.7962 65.6412 24.969C65.7675 25.1417 65.8569 25.3386 65.904 25.5473C65.9511 25.7561 65.9547 25.9723 65.9148 26.1825C65.8749 26.3928 65.7922 26.5926 65.6719 26.7695C55.7871 41.3223 43.0996 50.4004 27.1035 54.2969H27.1133Z" fill="url(#paint2_linear_468_5977)"/>
<defs>
<linearGradient id="paint0_linear_468_5977" x1="87.1914" y1="7.86914" x2="87.1914" y2="92.1309" gradientUnits="userSpaceOnUse">
<stop stop-color="#72C7D8"/>
<stop offset="0.489583" stop-color="#26519A"/>
<stop offset="1" stop-color="#41A575"/>
</linearGradient>
<linearGradient id="paint1_linear_468_5977" x1="50" y1="16.0156" x2="50" y2="92.1309" gradientUnits="userSpaceOnUse">
<stop stop-color="#72C7D8"/>
<stop offset="0.489583" stop-color="#26519A"/>
<stop offset="1" stop-color="#41A575"/>
</linearGradient>
<linearGradient id="paint2_linear_468_5977" x1="46.0307" y1="11.9474" x2="46.0307" y2="92.1309" gradientUnits="userSpaceOnUse">
<stop stop-color="#72C7D8"/>
<stop offset="0.489583" stop-color="#26519A"/>
<stop offset="1" stop-color="#41A575"/>
</linearGradient>
</defs>
</svg>
