<svg width="13" height="13" viewBox="0 0 13 13" fill="none" xmlns="http://www.w3.org/2000/svg">
<path d="M6.72363 12.4805C8.31493 12.4805 9.84106 11.8483 10.9663 10.7231C12.0915 9.59789 12.7236 8.07177 12.7236 6.48047C12.7236 4.88917 12.0915 3.36305 10.9663 2.23783C9.84106 1.11261 8.31493 0.480469 6.72363 0.480469C5.13233 0.480469 3.60621 1.11261 2.48099 2.23783C1.35577 3.36305 0.723633 4.88917 0.723633 6.48047C0.723633 8.07177 1.35577 9.59789 2.48099 10.7231C3.60621 11.8483 5.13233 12.4805 6.72363 12.4805ZM9.37207 5.37891L6.37207 8.37891C6.15176 8.59922 5.79551 8.59922 5.57754 8.37891L4.07754 6.87891C3.85723 6.65859 3.85723 6.30234 4.07754 6.08438C4.29785 5.86641 4.6541 5.86406 4.87207 6.08438L5.97363 7.18594L8.5752 4.58203C8.79551 4.36172 9.15176 4.36172 9.36973 4.58203C9.5877 4.80234 9.59004 5.15859 9.36973 5.37656L9.37207 5.37891Z" fill="#00AA00"/>
</svg>
