<svg width="13" height="11" viewBox="0 0 13 11" fill="none" xmlns="http://www.w3.org/2000/svg">
<path d="M2.82808 4.08234C3.0123 3.56075 3.31138 3.07028 3.73247 2.65157C5.22783 1.15621 7.65151 1.15621 9.14688 2.65157L9.55601 3.0631H8.73535C8.31187 3.0631 7.96973 3.40524 7.96973 3.82872C7.96973 4.25221 8.31187 4.59435 8.73535 4.59435H11.4031H11.4126C11.8361 4.59435 12.1783 4.25221 12.1783 3.82872V1.14904C12.1783 0.725549 11.8361 0.383411 11.4126 0.383411C10.9892 0.383411 10.647 0.725549 10.647 1.14904V1.99122L10.2283 1.57013C8.13481 -0.523376 4.74214 -0.523376 2.64863 1.57013C2.06484 2.15392 1.64375 2.84059 1.38535 3.57511C1.24419 3.97467 1.45474 4.41012 1.8519 4.55128C2.24907 4.69244 2.68691 4.4819 2.82808 4.08473V4.08234ZM1.24658 6.1567C1.12695 6.19259 1.01211 6.25719 0.918799 6.35289C0.823096 6.4486 0.758496 6.56344 0.725 6.68785C0.717822 6.71656 0.710645 6.74767 0.705859 6.77877C0.698682 6.81945 0.696289 6.86012 0.696289 6.90079V9.57091C0.696289 9.9944 1.03843 10.3365 1.46191 10.3365C1.8854 10.3365 2.22754 9.9944 2.22754 9.57091V8.73112L2.64863 9.14982C4.74214 11.2409 8.13481 11.2409 10.2259 9.14982C10.8097 8.56603 11.2332 7.87936 11.4916 7.14723C11.6328 6.74767 11.4222 6.31222 11.025 6.17106C10.6279 6.02989 10.19 6.24044 10.0489 6.63761C9.86465 7.15919 9.56558 7.64967 9.14448 8.06837C7.64912 9.56373 5.22544 9.56373 3.73008 8.06837L3.72769 8.06598L3.31855 7.65685H4.1416C4.56509 7.65685 4.90723 7.31471 4.90723 6.89122C4.90723 6.46774 4.56509 6.1256 4.1416 6.1256H1.47148C1.4332 6.1256 1.39492 6.12799 1.35664 6.13278C1.31836 6.13756 1.28247 6.14474 1.24658 6.1567Z" fill="#00AA00"/>
</svg>
