<svg width="41" height="40" viewBox="0 0 41 40" fill="none" xmlns="http://www.w3.org/2000/svg">
<g clip-path="url(#clip0_1522_1923)">
<path d="M12.5358 16.6676H34.2025C34.6445 16.6676 35.0684 16.8432 35.381 17.1558C35.6935 17.4683 35.8691 17.8923 35.8691 18.3343V35.001C35.8691 35.443 35.6935 35.8669 35.381 36.1795C35.0684 36.492 34.6445 36.6676 34.2025 36.6676H7.53581C7.09378 36.6676 6.66986 36.492 6.3573 36.1795C6.04474 35.8669 5.86914 35.443 5.86914 35.001V18.3343C5.86914 17.8923 6.04474 17.4683 6.3573 17.1558C6.66986 16.8432 7.09378 16.6676 7.53581 16.6676H9.20247V15.001C9.20153 12.3721 10.0884 9.82004 11.7195 7.75836C13.3505 5.69667 15.63 4.24626 18.1885 3.64223C20.747 3.0382 23.4345 3.31596 25.8154 4.43048C28.1962 5.545 30.1309 7.43096 31.3058 9.78263L28.3241 11.2726C27.485 9.59266 26.103 8.24538 24.4022 7.44921C22.7014 6.65304 20.7816 6.45467 18.9539 6.88626C17.1263 7.31785 15.498 8.35409 14.3331 9.82698C13.1681 11.2999 12.5348 13.1231 12.5358 15.001V16.6676ZM9.20247 20.001V33.3343H32.5358V20.001H9.20247ZM17.5358 25.001H24.2025V28.3343H17.5358V25.001Z" fill="white"/>
</g>
<defs>
<clipPath id="clip0_1522_1923">
<rect width="40" height="40" fill="white" transform="translate(0.5)"/>
</clipPath>
</defs>
</svg>
