<svg width="20" height="20" viewBox="0 0 20 20" fill="none" xmlns="http://www.w3.org/2000/svg">
<g opacity="0.5" clip-path="url(#clip0_1522_1936)">
<path d="M15.0262 13.8468L18.5953 17.4152L17.4162 18.5943L13.8478 15.0252C12.5201 16.0895 10.8687 16.6684 9.16699 16.666C5.02699 16.666 1.66699 13.306 1.66699 9.16601C1.66699 5.02602 5.02699 1.66602 9.16699 1.66602C13.307 1.66602 16.667 5.02602 16.667 9.16601C16.6694 10.8677 16.0905 12.5191 15.0262 13.8468ZM13.3545 13.2285C14.4121 12.1409 15.0027 10.683 15.0003 9.16601C15.0003 5.94268 12.3895 3.33268 9.16699 3.33268C5.94366 3.33268 3.33366 5.94268 3.33366 9.16601C3.33366 12.3885 5.94366 14.9993 9.16699 14.9993C10.684 15.0017 12.1419 14.4111 13.2295 13.3535L13.3545 13.2285Z" fill="#737373"/>
</g>
<defs>
<clipPath id="clip0_1522_1936">
<rect width="20" height="20" fill="white"/>
</clipPath>
</defs>
</svg>
